<?xml version="1.0" standalone="no"?>
<!DOCTYPE svg PUBLIC "-//W3C//DTD SVG 1.1//EN" "http://www.w3.org/Graphics/SVG/1.1/DTD/svg11.dtd" >
<svg xmlns="http://www.w3.org/2000/svg">
<metadata>Generated by IcoMoon</metadata>
<defs>
<font id="icomoon" horiz-adv-x="1024">
<font-face units-per-em="1024" ascent="960" descent="-64" />
<missing-glyph horiz-adv-x="1024" />
<glyph unicode="&#x20;" horiz-adv-x="512" d="" />
<glyph unicode="&#xe900;" d="M453.808 76.885l-279.773 531.114c-0.401 0.745-0.637 1.63-0.637 2.57 0 2.116 1.194 3.953 2.944 4.874l0.030 0.014 385.448 201.659c0.745 0.397 1.63 0.631 2.569 0.631 2.12 0 3.963-1.19 4.896-2.939l0.015-0.030 280.687-536.511c0.402-0.747 0.638-1.635 0.638-2.578 0-2.12-1.194-3.961-2.946-4.887l-0.030-0.014-386.361-196.241c-0.747-0.402-1.635-0.638-2.578-0.638-2.12 0-3.961 1.194-4.887 2.946l-0.014 0.030z" />
<glyph unicode="&#xe901;" d="M495.33 127.629l-256.738 490.867c-2.45 4.579-3.889 10.016-3.889 15.789 0 12.988 7.282 24.274 17.986 30l0.182 0.089-56.694-29.75c-10.909-5.808-18.209-17.107-18.209-30.11 0-5.739 1.422-11.147 3.933-15.889l-0.089 0.185 256.738-490.867c5.805-10.919 17.109-18.228 30.12-18.228 5.786 0 11.235 1.445 16.004 3.995l-0.183-0.089 56.715 29.75c-4.581-2.453-10.021-3.893-15.798-3.893-12.981 0-24.263 7.275-29.991 17.97l-0.089 0.182z" />
<glyph unicode="&#xe902;" d="M560.991 711.018l-292.502-152.998c-4.131-2.166-6.902-6.424-6.902-11.329 0-2.184 0.549-4.239 1.516-6.036l-0.033 0.068 29.75-56.949c2.17-4.117 6.421-6.876 11.316-6.876 2.18 0 4.233 0.547 6.028 1.512l-0.068-0.033 292.523 152.998c4.131 2.166 6.902 6.424 6.902 11.329 0 2.184-0.549 4.239-1.516 6.036l0.033-0.068-29.75 56.949c-2.169 4.122-6.422 6.885-11.321 6.885-2.187 0-4.245-0.551-6.044-1.521l0.068 0.033z" />
<glyph unicode="&#xe903;" d="M346.115 511.632l-29.75 56.949c-0.934 1.729-1.483 3.784-1.483 5.968 0 4.905 2.77 9.164 6.832 11.296l0.070 0.033-53.124-27.837c-4.131-2.166-6.902-6.424-6.902-11.329 0-2.184 0.549-4.239 1.516-6.036l-0.033 0.068 29.75-56.928c2.166-4.131 6.424-6.902 11.329-6.902 2.184 0 4.239 0.549 6.036 1.516l-0.068-0.033 53.124 27.816c-1.729-0.934-3.784-1.483-5.968-1.483-4.905 0-9.164 2.77-11.296 6.832l-0.033 0.070z" />
<glyph unicode="&#xe904;" d="M645.076 293.844l-0.765-0.404c-9.106-4.836-15.201-14.259-15.201-25.106 0-15.648 12.685-28.334 28.334-28.334 4.801 0 9.323 1.194 13.285 3.301l-0.153-0.074 0.744 0.404c9.1 4.858 15.187 14.291 15.187 25.146 0 4.788-1.185 9.3-3.277 13.258l0.075-0.155c-4.862 9.086-14.288 15.162-25.132 15.162-4.785 0-9.294-1.183-13.251-3.273l0.155 0.075z" />
<glyph unicode="&#xe905;" d="M657.826 268.536c-2.015 3.798-3.198 8.304-3.198 13.085 0 5.719 1.692 11.043 4.604 15.498l-0.067-0.109c-0.334 0.014-0.726 0.022-1.12 0.022-4.741 0-9.207-1.18-13.119-3.262l0.151 0.073-0.765-0.404c-9.106-4.836-15.201-14.259-15.201-25.106 0-15.648 12.685-28.334 28.334-28.334 4.801 0 9.323 1.194 13.285 3.301l-0.153-0.074 0.744 0.404c4.389 2.318 7.977 5.626 10.558 9.643l0.066 0.11c-10.447 0.386-19.415 6.356-24.044 14.999l-0.074 0.152z" />
<glyph unicode="&#xe906;" d="M683.772 416.391c-9.227-4.933-15.399-14.503-15.399-25.514 0-4.856 1.2-9.431 3.32-13.445l-0.076 0.157 41.628-79.601c4.911-9.249 14.482-15.441 25.5-15.441 15.892 0 28.775 12.883 28.775 28.775 0 4.875-1.212 9.466-3.351 13.49l0.075-0.156-41.756 79.58c-4.932 9.212-14.49 15.372-25.487 15.372-4.833 0-9.388-1.19-13.388-3.293l0.158 0.076z" />
<glyph unicode="&#xe907;" d="M738.723 311.312l-41.628 79.601c-2.046 3.861-3.247 8.44-3.247 13.299 0 5.715 1.661 11.042 4.528 15.525l-0.069-0.116c-0.381 0.018-0.828 0.029-1.277 0.029-4.847 0-9.412-1.206-13.413-3.333l0.155 0.075c-9.227-4.933-15.399-14.503-15.399-25.514 0-4.856 1.2-9.431 3.32-13.445l-0.076 0.157 41.628-79.601c4.885-9.273 14.458-15.487 25.483-15.487 10.163 0 19.092 5.281 24.194 13.248l0.069 0.115c-10.519 0.463-19.529 6.498-24.192 15.209l-0.076 0.154z" />
<glyph unicode="&#xe908;" d="M563.966 251.43l-0.744-0.382c-9.106-4.836-15.201-14.259-15.201-25.106 0-15.648 12.685-28.334 28.334-28.334 4.801 0 9.323 1.194 13.285 3.301l-0.153-0.074 0.744 0.382c9.096 4.865 15.18 14.299 15.18 25.155 0 4.785-1.182 9.293-3.27 13.25l0.075-0.155c-4.867 9.087-14.297 15.163-25.146 15.163-4.788 0-9.3-1.184-13.258-3.274l0.155 0.075z" />
<glyph unicode="&#xe909;" d="M576.737 226.122c-2.020 3.805-3.205 8.319-3.205 13.109 0 5.672 1.662 10.957 4.527 15.392l-0.068-0.112c-0.3 0.011-0.652 0.018-1.005 0.018-4.782 0-9.287-1.186-13.237-3.28l0.154 0.074-0.744-0.382c-9.106-4.836-15.201-14.259-15.201-25.106 0-15.648 12.685-28.334 28.334-28.334 4.801 0 9.323 1.194 13.285 3.301l-0.153-0.074 0.744 0.382c4.376 2.337 7.96 5.641 10.558 9.644l0.067 0.11c-10.458 0.369-19.44 6.344-24.065 14.999l-0.074 0.152z" />
<glyph unicode="&#xe90a;" d="M482.877 209.016l-0.744-0.382c-9.106-4.836-15.201-14.259-15.201-25.106 0-15.648 12.685-28.334 28.334-28.334 4.801 0 9.323 1.194 13.285 3.301l-0.153-0.074 0.744 0.382c9.090 4.861 15.17 14.289 15.17 25.137 0 4.792-1.186 9.307-3.281 13.267l0.075-0.154c-4.862 9.086-14.288 15.162-25.132 15.162-4.785 0-9.294-1.183-13.251-3.273l0.155 0.075z" />
<glyph unicode="&#xe90b;" d="M495.627 183.729c-2.015 3.798-3.198 8.304-3.198 13.085 0 5.719 1.692 11.043 4.604 15.498l-0.067-0.109c-0.319 0.013-0.693 0.020-1.068 0.020-4.761 0-9.245-1.187-13.171-3.281l0.151 0.073-0.744-0.382c-9.106-4.836-15.201-14.259-15.201-25.106 0-15.648 12.685-28.334 28.334-28.334 4.801 0 9.323 1.194 13.285 3.301l-0.153-0.074 0.744 0.382c4.376 2.337 7.96 5.641 10.558 9.644l0.067 0.11c-10.459 0.383-19.438 6.363-24.065 15.020l-0.074 0.153z" />
<glyph unicode="&#xe90c;" d="M603.044 374.189l-0.744-0.404c-9.106-4.836-15.201-14.259-15.201-25.106 0-15.648 12.685-28.334 28.334-28.334 4.801 0 9.323 1.194 13.285 3.301l-0.153-0.074 0.744 0.404c9.106 4.836 15.201 14.259 15.201 25.106 0 15.648-12.685 28.334-28.334 28.334-4.801 0-9.323-1.194-13.285-3.301l0.153 0.074z" />
<glyph unicode="&#xe90d;" d="M615.815 348.881c-2.021 3.806-3.207 8.321-3.207 13.113 0 5.715 1.688 11.036 4.592 15.492l-0.067-0.109c-0.3 0.011-0.652 0.018-1.005 0.018-4.782 0-9.287-1.186-13.237-3.28l0.154 0.074-0.744-0.404c-9.106-4.836-15.201-14.259-15.201-25.106 0-15.648 12.685-28.334 28.334-28.334 4.801 0 9.323 1.194 13.285 3.301l-0.153-0.074 0.744 0.404c4.381 2.33 7.965 5.636 10.558 9.644l0.067 0.11c-10.45 0.377-19.422 6.35-24.044 14.999l-0.074 0.152z" />
<glyph unicode="&#xe90e;" d="M521.955 331.775l-0.744-0.382c-9.109-4.833-15.207-14.258-15.207-25.106 0-15.645 12.683-28.329 28.329-28.329 4.797 0 9.315 1.192 13.275 3.296l-0.153-0.074 0.765 0.382c9.106 4.836 15.201 14.259 15.201 25.106 0 15.648-12.685 28.334-28.334 28.334-4.801 0-9.323-1.194-13.285-3.301l0.153 0.074z" />
<glyph unicode="&#xe90f;" d="M534.705 306.467c-2.015 3.801-3.198 8.31-3.198 13.095 0 5.723 1.692 11.051 4.603 15.51l-0.067-0.109c-0.321 0.013-0.699 0.021-1.078 0.021-4.758 0-9.238-1.187-13.161-3.282l0.151 0.073-0.744-0.382c-9.109-4.833-15.207-14.258-15.207-25.106 0-15.645 12.683-28.329 28.329-28.329 4.797 0 9.315 1.192 13.275 3.296l-0.153-0.074 0.765 0.382c4.376 2.337 7.96 5.641 10.558 9.644l0.067 0.11c-10.462 0.375-19.448 6.347-24.086 14.999l-0.075 0.152z" />
<glyph unicode="&#xe910;" d="M440.867 289.361l-0.765-0.382c-9.106-4.836-15.201-14.259-15.201-25.106 0-15.648 12.685-28.334 28.334-28.334 4.801 0 9.323 1.194 13.285 3.301l-0.153-0.074 0.744 0.382c9.109 4.833 15.207 14.258 15.207 25.106 0 15.645-12.683 28.329-28.329 28.329-4.797 0-9.315-1.192-13.275-3.296l0.153 0.074z" />
<glyph unicode="&#xe911;" d="M453.617 264.074c-2.015 3.798-3.198 8.304-3.198 13.085 0 5.719 1.692 11.043 4.604 15.498l-0.067-0.109c-0.321 0.013-0.699 0.021-1.078 0.021-4.758 0-9.238-1.187-13.161-3.282l0.151 0.073-0.765-0.382c-9.106-4.836-15.201-14.259-15.201-25.106 0-15.648 12.685-28.334 28.334-28.334 4.801 0 9.323 1.194 13.285 3.301l-0.153-0.074 0.744 0.382c4.379 2.333 7.963 5.638 10.558 9.644l0.067 0.11c-10.452 0.386-19.424 6.366-24.044 15.020l-0.074 0.153z" />
<glyph unicode="&#xe912;" d="M560.991 454.534l-0.744-0.404c-9.405-4.739-15.744-14.318-15.744-25.378 0-15.644 12.682-28.326 28.326-28.326 5.012 0 9.72 1.302 13.805 3.586l-0.143-0.074 0.765 0.382c9.094 4.854 15.178 14.281 15.178 25.128 0 4.796-1.189 9.314-3.289 13.275l0.074-0.154c-4.862 9.086-14.288 15.162-25.132 15.162-4.785 0-9.294-1.183-13.251-3.273l0.155 0.075z" />
<glyph unicode="&#xe913;" d="M573.741 429.226c-2.015 3.801-3.198 8.31-3.198 13.095 0 5.723 1.692 11.051 4.603 15.51l-0.067-0.109c-0.306 0.012-0.664 0.019-1.025 0.019-4.776 0-9.274-1.186-13.217-3.28l0.153 0.074-0.744-0.404c-9.405-4.739-15.744-14.318-15.744-25.378 0-15.644 12.682-28.326 28.326-28.326 5.012 0 9.72 1.302 13.805 3.586l-0.143-0.074 0.765 0.382c4.381 2.33 7.965 5.636 10.558 9.644l0.067 0.11c-10.454 0.383-19.43 6.353-24.065 14.999l-0.074 0.152z" />
<glyph unicode="&#xe914;" d="M479.945 412.12l-0.765-0.382c-9.106-4.836-15.201-14.259-15.201-25.106 0-15.648 12.685-28.334 28.334-28.334 4.801 0 9.323 1.194 13.285 3.301l-0.153-0.074 0.744 0.382c9.1 4.858 15.187 14.291 15.187 25.146 0 4.788-1.185 9.3-3.277 13.258l0.075-0.155c-4.862 9.086-14.288 15.162-25.132 15.162-4.785 0-9.294-1.183-13.251-3.273l0.155 0.075z" />
<glyph unicode="&#xe915;" d="M492.695 386.812c-2.015 3.806-3.197 8.32-3.197 13.11 0 5.715 1.684 11.037 4.582 15.496l-0.067-0.11c-0.317 0.013-0.689 0.020-1.063 0.020-4.756 0-9.234-1.187-13.155-3.281l0.15 0.073-0.765-0.382c-9.106-4.836-15.201-14.259-15.201-25.106 0-15.648 12.685-28.334 28.334-28.334 4.801 0 9.323 1.194 13.285 3.301l-0.153-0.074 0.744 0.382c4.384 2.324 7.971 5.631 10.558 9.643l0.067 0.11c-10.455 0.378-19.433 6.35-24.065 14.999l-0.074 0.152z" />
<glyph unicode="&#xe916;" d="M398.835 369.706l-0.744-0.382c-9.106-4.836-15.201-14.259-15.201-25.106 0-15.648 12.685-28.334 28.334-28.334 4.801 0 9.323 1.194 13.285 3.301l-0.153-0.074 0.744 0.382c9.096 4.865 15.18 14.299 15.18 25.155 0 4.785-1.182 9.293-3.27 13.25l0.075-0.155c-4.861 9.090-14.289 15.17-25.137 15.17-4.792 0-9.307-1.186-13.267-3.281l0.154 0.075z" />
<glyph unicode="&#xe917;" d="M411.606 344.419c-2.021 3.803-3.208 8.315-3.208 13.104 0 5.711 1.688 11.029 4.592 15.48l-0.067-0.109c-0.314 0.013-0.683 0.020-1.054 0.020-4.766 0-9.254-1.187-13.186-3.281l0.152 0.074-0.744-0.382c-9.106-4.836-15.201-14.259-15.201-25.106 0-15.648 12.685-28.334 28.334-28.334 4.801 0 9.323 1.194 13.285 3.301l-0.153-0.074 0.744 0.382c4.376 2.337 7.96 5.641 10.558 9.644l0.067 0.11c-10.455 0.377-19.43 6.36-24.044 15.019l-0.074 0.153z" />
<glyph unicode="&#xe918;" d="M519.023 534.879l-0.765-0.382c-9.106-4.836-15.201-14.259-15.201-25.106 0-15.648 12.685-28.334 28.334-28.334 4.801 0 9.323 1.194 13.285 3.301l-0.153-0.074 0.744 0.382c9.1 4.858 15.187 14.291 15.187 25.146 0 4.788-1.185 9.3-3.277 13.258l0.075-0.155c-4.858 9.1-14.291 15.187-25.146 15.187-4.788 0-9.3-1.185-13.258-3.277l0.155 0.075z" />
<glyph unicode="&#xe919;" d="M531.773 509.507c-2.015 3.806-3.197 8.32-3.197 13.11 0 5.715 1.684 11.037 4.582 15.496l-0.067-0.11c-0.302 0.012-0.658 0.018-1.014 0.018-4.772 0-9.266-1.186-13.205-3.28l0.152 0.074-0.765-0.382c-9.106-4.836-15.201-14.259-15.201-25.106 0-15.648 12.685-28.334 28.334-28.334 4.801 0 9.323 1.194 13.285 3.301l-0.153-0.074 0.744 0.382c4.384 2.324 7.971 5.631 10.558 9.643l0.067 0.11c-10.447 0.386-19.415 6.356-24.044 14.999l-0.074 0.152z" />
<glyph unicode="&#xe91a;" d="M437.913 492.507l-0.744-0.382c-9.106-4.836-15.201-14.259-15.201-25.106 0-15.648 12.685-28.334 28.334-28.334 4.801 0 9.323 1.194 13.285 3.301l-0.153-0.074 0.744 0.382c9.093 4.871 15.172 14.308 15.172 25.164 0 4.781-1.179 9.286-3.262 13.241l0.075-0.156c-4.867 9.087-14.297 15.163-25.146 15.163-4.788 0-9.3-1.184-13.258-3.274l0.155 0.075z" />
<glyph unicode="&#xe91b;" d="M450.684 467.157c-2.021 3.806-3.207 8.321-3.207 13.113 0 5.715 1.688 11.036 4.592 15.492l-0.067-0.109c-0.314 0.013-0.683 0.020-1.054 0.020-4.766 0-9.254-1.187-13.186-3.281l0.152 0.074-0.744-0.382c-9.106-4.836-15.201-14.259-15.201-25.106 0-15.648 12.685-28.334 28.334-28.334 4.801 0 9.323 1.194 13.285 3.301l-0.153-0.074 0.744 0.382c4.376 2.337 7.96 5.641 10.558 9.644l0.067 0.11c-10.458 0.369-19.44 6.344-24.065 14.999l-0.074 0.152z" />
<glyph unicode="&#xe91c;" d="M356.824 450.008l-0.744-0.382c-9.106-4.836-15.201-14.259-15.201-25.106 0-15.648 12.685-28.334 28.334-28.334 4.801 0 9.323 1.194 13.285 3.301l-0.153-0.074 0.744 0.382c9.090 4.861 15.17 14.289 15.17 25.137 0 4.792-1.186 9.307-3.281 13.267l0.075-0.154c-4.854 9.094-14.281 15.178-25.128 15.178-4.796 0-9.314-1.189-13.275-3.289l0.154 0.074z" />
<glyph unicode="&#xe91d;" d="M369.574 424.763c-2.015 3.798-3.198 8.304-3.198 13.085 0 5.719 1.692 11.043 4.604 15.498l-0.067-0.109c-0.321 0.013-0.699 0.021-1.078 0.021-4.758 0-9.238-1.187-13.161-3.282l0.151 0.073-0.744-0.382c-9.106-4.836-15.201-14.259-15.201-25.106 0-15.648 12.685-28.334 28.334-28.334 4.801 0 9.323 1.194 13.285 3.301l-0.153-0.074 0.744 0.382c4.376 2.337 7.96 5.641 10.558 9.644l0.067 0.11c-10.459 0.383-19.438 6.363-24.065 15.020l-0.074 0.153z" />
<glyph unicode="&#xe91e;" d="M642.122 496.949l-0.744-0.404c-9.106-4.836-15.201-14.259-15.201-25.106 0-15.648 12.685-28.334 28.334-28.334 4.801 0 9.323 1.194 13.285 3.301l-0.153-0.074 0.744 0.404c9.096 4.865 15.18 14.299 15.18 25.155 0 4.785-1.182 9.293-3.27 13.25l0.075-0.155c-4.874 9.083-14.305 15.156-25.155 15.156-4.784 0-9.293-1.181-13.25-3.267l0.155 0.075z" />
<glyph unicode="&#xe91f;" d="M654.893 471.64c-2.025 3.802-3.214 8.315-3.214 13.106 0 5.712 1.69 11.028 4.598 15.477l-0.066-0.108c-0.327 0.014-0.711 0.021-1.096 0.021-4.749 0-9.223-1.179-13.144-3.261l0.152 0.074-0.744-0.404c-9.106-4.836-15.201-14.259-15.201-25.106 0-15.648 12.685-28.334 28.334-28.334 4.801 0 9.323 1.194 13.285 3.301l-0.153-0.074 0.744 0.404c4.381 2.33 7.965 5.636 10.558 9.644l0.067 0.11c-10.452 0.368-19.429 6.344-24.044 14.998l-0.074 0.153z" />
<glyph unicode="&#xe920;" d="M600.112 577.294l-0.744-0.404c-9.109-4.833-15.207-14.258-15.207-25.106 0-15.645 12.683-28.329 28.329-28.329 4.797 0 9.315 1.192 13.275 3.296l-0.153-0.074 0.765 0.404c9.090 4.861 15.17 14.289 15.17 25.137 0 4.792-1.186 9.307-3.281 13.267l0.075-0.154c-4.858 9.1-14.291 15.187-25.146 15.187-4.788 0-9.3-1.185-13.258-3.277l0.155 0.075z" />
<glyph unicode="&#xe921;" d="M612.862 552.006c-2.015 3.798-3.198 8.304-3.198 13.085 0 5.719 1.692 11.043 4.604 15.498l-0.067-0.109c-0.334 0.014-0.726 0.022-1.12 0.022-4.741 0-9.207-1.18-13.119-3.262l0.151 0.073-0.744-0.404c-9.109-4.833-15.207-14.258-15.207-25.106 0-15.645 12.683-28.329 28.329-28.329 4.797 0 9.315 1.192 13.275 3.296l-0.153-0.074 0.765 0.404c4.381 2.33 7.965 5.636 10.558 9.644l0.067 0.11c-10.454 0.383-19.43 6.353-24.065 14.999l-0.074 0.152z" />
<glyph unicode="&#xe922;" d="M707.826 565.521c3.037 1.597 5.073 4.731 5.073 8.34 0 1.614-0.407 3.133-1.124 4.459l0.025-0.050-118.212 225.969c-7.414 13.917-21.831 23.23-38.423 23.23-7.33 0-14.236-1.818-20.291-5.027l0.235 0.114-343.097-179.432c-13.921-7.407-23.238-21.823-23.238-38.414 0-7.334 1.82-14.243 5.034-20.3l-0.114 0.235 256.717-490.867c7.407-13.921 21.823-23.238 38.414-23.238 7.334 0 14.243 1.82 20.3 5.034l-0.235-0.114 343.097 179.411c13.921 7.407 23.238 21.823 23.238 38.414 0 7.334-1.82 14.243-5.034 20.3l0.114-0.235-118.212 226.033c-1.628 2.931-4.705 4.882-8.239 4.882-5.187 0-9.392-4.205-9.392-9.392 0-1.532 0.367-2.978 1.017-4.256l-0.025 0.053 118.233-226.054c1.756-3.299 2.787-7.214 2.787-11.37 0-9.408-5.284-17.581-13.046-21.715l-0.133-0.064-343.055-179.432c-3.299-1.756-7.214-2.787-11.37-2.787-9.408 0-17.581 5.284-21.715 13.046l-0.064 0.133-256.738 490.867c-1.751 3.297-2.78 7.209-2.78 11.361 0 9.408 5.28 17.583 13.038 21.724l0.132 0.065 343.055 179.475c3.301 1.759 7.22 2.792 11.379 2.792 9.401 0 17.57-5.276 21.706-13.029l0.064-0.132 118.212-226.054c1.59-3.041 4.723-5.081 8.331-5.081 1.618 0 3.14 0.41 4.468 1.132l-0.049-0.025z" />
<glyph unicode="&#xe923;" d="M154.482 728.383h371.011v-527.406h-371.011v527.406z" />
<glyph unicode="&#xe924;" d="M526.981 628.512v73.522c0 40.374-32.724 72.885-72.885 72.885h-226.729c-40.374 0-72.885-32.724-72.885-72.885v-73.522z" />
<glyph unicode="&#xe925;" d="M154.482 229.239v-42.286c0-40.374 32.724-72.885 72.885-72.885h226.729c40.374 0 72.885 32.724 72.885 72.885v42.286z" />
<glyph unicode="&#xe926;" d="M221.842 152.105l-3.4 591.791c-0.212 19.974 14.874 36.336 33.574 36.549l-56.31-18.062c-18.699-0.212-41.436-40.374-41.436-60.348v-515.081c0.212-19.974 32.086-65.448 50.786-65.235l50.786-5.525c-18.699-0.212-33.999 15.937-33.999 35.911z" />
<glyph unicode="&#xe927;" d="M440.921 105.356h-200.593c-52.061 0-94.559 42.498-94.559 94.559v489.157c0 52.273 42.498 94.559 94.559 94.559h200.593c52.061 0 94.559-42.498 94.559-94.559v-489.157c0-52.061-42.286-94.559-94.559-94.559zM240.329 766.42c-42.711 0-77.347-34.636-77.347-77.347v-489.157c0-42.711 34.636-77.347 77.347-77.347h200.593c42.711 0 77.347 34.636 77.347 77.347v489.157c0 42.711-34.636 77.347-77.347 77.347h-200.593z" />
<glyph unicode="&#xe928;" d="M334.038 206.078l-0.85-0.425c-13.812-7.225-19.124-24.437-11.9-38.249s24.437-19.124 38.249-11.9l0.85 0.425c13.812 7.225 19.124 24.437 11.9 38.249v0c-7.225 13.6-24.437 19.124-38.249 11.9z" />
<glyph unicode="&#xe929;" d="M346.787 180.791c-4.887 9.35-4.037 20.187 1.275 28.474-4.675 0.212-9.562-0.85-14.024-3.187l-0.85-0.425c-13.812-7.225-19.124-24.437-11.9-38.249s24.437-19.124 38.249-11.9l0.85 0.425c4.462 2.337 8.075 5.737 10.625 9.775-9.987 0.425-19.337 5.737-24.224 15.087z" />
<glyph unicode="&#xe92a;" d="M402.885 497.617c1.912 0 3.825 0 6.162 0 0.212-1.912 0.212-3.825 0.425-6.162 6.162 0 12.112 0 18.274 0 0-2.125 0-3.825 0-6.162-3.825 0-7.862 0-12.112 0 0-4.462 0-8.5 0-12.537 0 0 0.212 0.212 0.212 0.212-1.912-0.212-3.825-0.212-6.162-0.425 0-3.825 0-7.862 0-12.112-2.337 0-4.037 0-6.375 0 0 1.912 0 3.612 0 5.737-2.125 0-4.037 0-6.162 0 0-3.825 0-7.862 0-12.112 1.912 0 3.612-0.212 5.737-0.212 0-1.912 0-3.825 0-5.95-1.7-0.212-3.612-0.212-5.737-0.425 0-1.912 0-3.612 0-5.737-2.125 0-4.037 0-6.162 0-0.212 1.912-0.212 3.612-0.425 5.737-4.037 0-7.862 0-12.112 0-0.212-1.912-0.212-3.612-0.425-5.737-1.912-0.212-3.825-0.212-5.95-0.425 0-1.912 0-3.612 0-5.95-2.125 0-4.037-0.212-6.162-0.212 0-4.037 0-8.075 0-12.112 1.912 0 3.612 0 5.737 0 0.212 1.7 0.212 3.612 0.425 6.162 2.125 0 4.037 0 6.162 0 0-2.125 0-4.037 0-6.162 2.337 0 4.037 0 5.95 0 0 2.125 0 4.037 0 5.95-2.125 0-4.037 0-5.95 0 0 1.912 0 3.825 0 5.95 4.25 0 8.075 0 12.325 0 0-1.912 0.212-3.612 0.212-5.737 3.825 0 7.862 0 12.112 0 0.212-2.337 0.212-4.037 0.425-6.162 1.912-0.212 3.825-0.212 5.95-0.425 0-1.912 0.212-3.612 0.212-5.737 1.912 0 3.612 0 5.95 0 0 1.7 0 3.612 0 5.95 2.337 0 4.462 0 6.375 0l-0.212 0.212c0-6.162 0-12.537 0-18.912 2.55 0 4.462 0 6.375 0l-0.212 0.212c0-1.912 0-3.825 0-6.162-2.125-0.212-3.825-0.212-5.95-0.425 0-1.912 0-3.825 0-5.95 1.912 0 3.612 0 5.737 0 0-4.25 0-8.075 0-12.325-1.912-0.212-3.612-0.212-5.737-0.425 0-1.912 0-3.612 0-5.737-8.287 0-16.362 0-24.862 0 0 1.7 0 3.612 0 5.737 1.912 0 3.825 0.212 5.737 0.212 0 1.912 0 3.825 0 5.95-4.037 0-8.075 0-12.325 0 0 0 0.212-0.212 0.212-0.212 0 6.162 0 12.112 0 18.699-6.375 0-12.325 0-18.699 0-0.212 2.337-0.212 4.25-0.425 6.162-1.912 0.212-3.825 0.212-5.95 0.425 0 1.912 0 3.825 0 5.737-4.25 0-8.075 0-12.75 0 0-4.037 0-8.287 0-12.325l0.212 0.212c-4.037 0-8.287 0-12.325 0 0-2.337 0-4.25 0-6.162 2.125-0.212 4.037-0.212 5.737-0.425 0-4.25 0-8.075 0-12.112-2.125 0-3.825 0-5.95 0-0.212 2.125-0.212 4.037-0.425 5.95-6.375 0-12.537 0-18.699 0l0.212-0.212c0 2.125 0 4.037 0 6.375 4.462 0 8.287 0 12.325 0 0 2.125 0 4.037 0 6.162-4.037 0-8.075 0-12.325 0 0 4.462 0 8.287 0 12.325-2.337 0-4.25 0-6.162 0 0 1.912 0 4.037 0 6.162-2.337 0-4.25 0-6.162 0 0 2.125 0 4.037 0 6.375 2.55 0 4.25 0 6.162 0 0 2.125 0 4.037 0 5.95-2.125 0.212-4.037 0.212-5.737 0.425 0 2.125 0 4.037 0 6.162 2.125 0 3.825 0 5.95 0 0 4.25 0 8.287 0 12.537 2.337 0 4.25 0 6.162 0 0-10.412 0-20.824 0-31.449 2.337 0 4.25 0 6.162 0l-0.212 0.212c0-2.125 0-4.037 0-5.95 6.587 0 12.537 0 18.699 0 0 2.125 0 4.037 0 6.162 1.912 0 4.037 0 6.162 0 0 2.337 0 4.25 0 6.162 2.125 0 4.037 0 5.95 0 0 2.337 0 4.25 0 6.162-2.125 0-4.037 0-6.162 0 0 2.125 0 4.037 0 6.375-2.337 0-4.037 0-5.95 0-0.212 2.337-0.212 4.25-0.425 5.95-2.125 0-4.037 0-5.95 0-0.212-2.125-0.212-3.825-0.425-5.737-4.25 0-8.075 0-12.112 0 0 2.125 0 3.825 0 5.737 2.125 0.212 3.825 0.212 6.162 0.425 0 4.25 0 8.075 0 12.325 4.462 0 8.5 0 12.325 0 0-2.125 0-4.037 0-6.375 2.337 0 4.25 0 6.162 0 0-1.912 0-4.037 0-6.375 2.337 0 4.25 0 6.162 0 0.212-2.125 0.212-4.037 0.212-5.95 2.125 0 4.037 0 5.95 0 0 6.162 0 12.325 0 18.274-2.125 0-4.037 0-5.95 0-0.212-2.125-0.212-4.037-0.425-5.737-2.337-0.212-4.25-0.212-6.162-0.425 0 2.125 0 4.25 0 6.375-2.337 0-4.25 0-6.162 0 0 1.912 0 4.037 0 6.162-8.5 0-16.787 0-25.074 0 0 1.912 0 4.037 0 6.162 2.337 0.212 4.25 0.212 6.375 0.425 0 4.462 0 8.287 0 12.325l-0.212-0.212c2.125 0 4.037 0 6.375 0 0-2.337 0-4.25 0-6.375 2.125 0 4.037 0 5.95 0 0.212-2.125 0.212-4.037 0.425-5.95 2.125 0 4.037 0 5.95 0 0 4.25 0 8.287 0 12.325 8.287 0 16.574 0 24.862 0 0.212-2.55 0.212-4.25 0.425-6.375 2.125 0 3.825 0 6.162 0 0-4.25 0-8.287 0-12.325 2.337-0.212 4.25-0.212 6.375-0.212 0-2.125 0-4.037 0-5.95 2.125 0 4.037 0 5.95 0 0 4.25 0 8.075 0 12.112-2.125 0.212-4.037 0.212-5.737 0.425 0 2.125 0 4.037 0 5.95 2.125 0.212 4.037 0.212 5.737 0.425 0 2.125 0 4.037 0 6.162-4.25 0-8.075 0-11.9 0 0 4.25 0 8.287 0 12.325 2.125 0 4.037 0 5.95 0l-0.212 0.212c0-2.125 0-4.037 0-6.162 2.337 0 4.25 0 6.375 0 0 2.125 0 4.037 0 6.162l-0.212-0.212c2.125 0 4.25 0 6.375 0l-0.212 0.212c0-6.162 0-12.325 0-18.699 4.462 0 8.287 0 12.325 0 0 2.125 0 4.037 0 5.95-2.125 0.212-4.037 0.212-5.95 0.425 1.275 4.887 1.275 8.925 1.062 12.75v0zM415.422 410.070c-6.375 0-12.325 0-18.487 0 0-6.375 0-12.325 0-18.274 6.375 0 12.325 0 18.487 0 0 6.162 0 12.112 0 18.274zM359.324 466.593c4.25 0 8.075 0 12.112 0 0 2.125 0 4.037 0 5.95-2.125 0.212-4.037 0.212-5.95 0.425-0.212 2.125-0.212 4.037-0.425 5.95-2.125 0-4.037 0-5.95 0 0.212-4.037 0.212-7.862 0.212-12.325zM396.51 416.657c0 2.125 0 4.037 0 5.737-2.125 0-4.037 0-5.737 0 0-2.125 0-3.825 0-5.737 1.912 0 3.612 0 5.737 0zM371.861 454.269c2.125 0 4.037 0 5.95 0 0 2.125 0 3.825 0 5.95-2.125 0-3.825 0-5.95 0 0-2.125 0-3.825 0-5.95z" />
<glyph unicode="&#xe92b;" d="M259.241 485.080c4.037 0 8.075 0 12.325 0 0.212 2.125 0.212 4.037 0.425 6.162 4.25 0 8.287 0 12.325 0l-0.212 0.212c0-2.125 0-4.037 0-6.375-2.337 0-4.25 0-5.95 0 0-2.125 0-4.037 0-6.162 6.162 0 12.325 0 18.274 0 0-2.337 0-4.037 0-6.375-8.287 0-16.574 0-24.437 0 0-2.125 0-4.037 0-6.162 4.25 0 8.075 0 12.325 0 0-2.337 0-4.25 0-6.162-2.125 0-4.037 0-6.162 0 0-2.337 0-4.037 0-5.95 2.125 0 4.037 0 5.95 0 0 2.125 0 4.037 0 5.95 2.125 0 4.037 0 6.162 0 0.212 2.337 0.212 4.037 0.425 6.162 4.25 0 8.287 0 12.325 0 0-1.912 0-4.037 0-6.162 2.125-0.212 4.037-0.212 5.95-0.425 0-4.25 0-8.075 0-12.325-2.125 0-4.037 0-5.95 0 0 2.125 0 4.037 0 5.95-4.462 0-8.287 0-12.112 0 0-4.25 0-8.287 0-12.112 2.125 0 3.825 0 5.737 0 0.212 2.125 0.212 4.037 0.425 6.162 2.125 0 4.037 0 6.162 0 0-4.037 0-8.287 0-12.75-8.712 0-16.787 0-24.862 0 0-2.337 0-4.037 0-6.162 2.125 0 3.825 0 5.737 0 0-2.125 0-4.037 0-5.95-2.125-0.212-4.037-0.212-6.162-0.425 0-2.337 0-4.25 0-6.162l0.212 0.212c-1.912 0-3.825 0-6.162 0-0.212-2.125-0.212-4.037-0.425-6.162-1.912 0-3.825 0-5.95 0 0 1.912 0 3.612 0 5.737-2.125 0.212-4.037 0.212-6.162 0.425 0 4.037 0 7.862 0 12.325-2.337 0-4.462 0-6.375 0l0.212-0.212c0 4.037 0 8.075 0 12.325-2.125 0.212-4.037 0.212-6.162 0.425 0 1.912 0 3.612 0 5.95 1.7 0 3.612 0 5.95 0 0 2.337 0 4.462 0 6.587 4.25 0 8.5 0 12.537 0 0-2.125 0-4.25 0-6.375-2.125 0-4.037 0-6.162 0 0-2.337 0-4.037 0-5.95 2.125 0 4.037 0 5.95 0 0 2.125 0 4.037 0 5.95 2.125 0 4.037 0 5.95 0 0 2.337 0 4.25 0 6.162-2.125 0-4.037 0-6.162 0 0 2.125 0 4.037 0 5.95-4.462 0-8.287 0-12.325 0 0-2.125 0-4.037 0-6.162-4.037 0-8.075 0-12.325 0 0 6.375 0 12.325 0 18.912 6.162 0 12.325 0 18.487 0 0-2.125 0-4.037 0-6.162 2.337 0 4.037 0 5.95 0 0 2.125 0 4.037 0 5.95-2.125 0-4.037 0-5.95 0 0.212 5.1 0.212 9.137 0.212 13.175v0zM284.102 447.469c-2.125 0-4.037 0-5.737 0 0-2.125 0-4.037 0-5.737 2.125 0 3.825 0 5.737 0 0 1.912 0 3.612 0 5.737zM265.828 435.144c0-2.337 0-4.25 0-5.737 2.125 0 4.037 0 5.737 0 0 2.125 0 4.037 0 5.737-2.337 0-4.037 0-5.737 0z" />
<glyph unicode="&#xe92c;" d="M334.038 560.302c0-1.912 0-3.825 0-5.95 6.375 0 12.325 0 18.699 0 0 4.037 0 7.862 0 12.112 2.125 0 4.037 0 6.162 0 0-1.912 0.212-3.612 0.212-5.737 1.912-0.212 3.825-0.212 5.95-0.425 0-4.037 0-7.862 0-12.112-3.825 0-7.862 0-12.325 0 0-6.587 0-12.75 0-18.912 0 0 0.212 0.212 0.212 0.212-2.125 0-4.25 0-6.375-0.212 0 1.912 0 4.037 0 6.162-2.337 0-4.25 0-6.162 0 0 4.037 0 8.287 0 12.75-4.25 0-8.287 0-12.325 0-0.212 2.337-0.212 4.25-0.425 5.95-2.125 0-4.037 0-6.162 0 0-4.037 0-8.075 0-12.112-2.337-0.212-4.25-0.212-6.162-0.425 0-2.337 0-4.25 0-6.162-1.912 0-4.037 0-6.162 0 0-4.462 0-8.5 0-12.537-2.125 0-4.037 0-6.375 0 0 2.55 0 4.25 0 6.162-2.125 0-4.037 0-6.162 0 0-6.162 0-12.325 0-18.487-2.337-0.212-4.25-0.212-5.95-0.212 0-2.125 0-4.037 0-5.95 4.037 0 8.075 0 12.537 0 0 4.25 0 8.075 0 12.325 2.337 0 4.25 0 6.162 0 0-1.912 0-4.037 0-6.162 2.337 0 4.25 0 6.162 0 0-1.912 0-4.037 0-6.162-2.337-0.212-4.25-0.212-6.587-0.425 0-4.25 0-8.075 0-12.325-4.462 0-8.287 0-12.325 0 0 2.125 0 4.037 0 6.162-2.337 0-4.25 0-6.162 0 0-2.125 0-4.037 0-6.162-2.125 0-4.25 0-6.375 0.212l0.212-0.212c0 1.912 0 3.825 0 6.162-2.125 0-4.037 0-6.162 0 0 2.337 0 4.462 0 6.375l-0.212-0.212c2.125 0 4.037 0 6.162 0 0 2.337 0 4.25 0 6.375-2.125 0-4.037 0-6.162 0l0.212-0.212c0 1.912 0 3.825 0 6.162 4.037 0 8.075 0 12.325 0 0 10.625 0 20.612 0 31.236 2.337 0 4.462 0 6.375 0l-0.212 0.212c0-1.912 0-3.825 0-5.95 4.25 0 8.075 0 12.325 0 0.212 1.912 0.212 3.825 0.425 5.95 1.912 0 3.612 0 5.737 0 0 2.125 0 4.037 0 6.162-1.7 0-3.612 0.212-5.737 0.425 0 4.037 0 8.075 0 12.112 6.162 0 11.9 0 18.274 0 0.212-1.912 0.212-3.612 0.425-6.162 2.125-0.212 4.037-0.212 5.95 0v0z" />
<glyph unicode="&#xe92d;" d="M384.186 547.765c0-4.037 0-8.075 0-12.325 4.25 0 8.075 0 12.537 0 0-6.587 0-12.75 0-18.912l0.212 0.212c-2.125 0-4.25 0-6.375-0.212 0 4.037 0 8.287 0 12.325-2.337 0-4.037 0-6.162 0-0.212-2.125-0.212-4.037-0.425-6.162-2.337 0-4.25 0-6.162 0 0 2.125 0 4.037 0 6.162-2.337 0-4.037 0-5.95 0 0-2.125 0-4.037 0-5.95 2.125 0 4.037 0 5.95 0 0-1.912 0-4.037 0-6.162 4.462 0 8.5 0 12.537 0 0-6.375 0-12.537-0.212-18.912l0.212 0.212c-2.125 0-4.25 0-6.375 0l0.212-0.212c0 2.125 0 4.037 0 6.375-4.462 0-8.5 0-12.75 0 0 2.125 0 4.037 0 5.95-2.125 0.212-4.037 0.212-5.95 0.425-0.212 2.125-0.212 4.037-0.425 5.737-4.25 0-8.287 0-12.112 0 0-2.125 0-3.825 0-5.737 2.125-0.212 4.037-0.212 5.95-0.425 0-4.25 0-8.287 0-12.325l0.212 0.212c-1.912 0-4.037 0-6.162 0-0.212 2.337-0.212 4.25-0.425 5.95-4.25 0-8.287 0-12.325 0 0-2.125 0-4.037 0-5.95-4.037 0-8.075 0-12.537 0 0-4.462 0-8.5 0-12.537l0.212 0.212c-2.125 0-4.25 0-6.375-0.212 0 2.125 0 4.037 0 6.162-2.337 0.212-4.037 0.212-5.95 0.425 0 2.125 0 3.825 0 5.95 2.125 0 3.825 0.212 5.95 0.212 0.212 2.125 0.212 4.037 0.425 6.162 4.25 0 8.075 0 12.112 0 0 4.462 0 8.5 0 12.325 1.912 0 4.037 0 6.162 0 0.212-2.337 0.212-4.25 0.425-5.95 2.125 0 4.037 0 5.95 0 0 4.25 0 8.287 0 12.325 1.912 0 4.037 0 6.375 0 0 2.337 0 4.25 0 6.162 0 0-0.212-0.212-0.212-0.212 1.912 0 3.825 0 6.162 0 0.212-1.912 0.212-3.825 0.425-5.95 1.912 0 3.825 0 6.162 0 0 4.037 0 8.287 0 12.325l-0.212-0.212c1.912 0 3.825 0 6.162 0 0 6.375 0 12.325 0 18.487 2.125 0 4.037 0 6.162 0 0-1.7 0-3.612 0-6.162 2.55 0.212 4.675 0.212 6.587 0.212v0z" />
<glyph unicode="&#xe92e;" d="M240.541 523.116c0 14.449 0 28.899 0 43.348 14.449 0 28.686 0 43.136 0 0-14.237 0-28.686 0-43.348-14.024 0-28.474 0-43.136 0zM246.916 529.278c10.412 0 20.612 0 30.811 0 0 10.412 0 20.612 0 30.811-10.412 0-20.612 0-30.811 0 0-10.412 0-20.399 0-30.811z" />
<glyph unicode="&#xe92f;" d="M403.098 523.116c0 14.662 0 28.899 0 43.348 14.449 0 28.686 0 43.136 0 0-14.237 0-28.686 0-43.348-14.237 0-28.474 0-43.136 0zM440.284 560.090c-10.412 0-20.612 0-30.811 0 0-10.412 0-20.612 0-30.811 10.412 0 20.612 0 30.811 0 0 10.2 0 20.399 0 30.811z" />
<glyph unicode="&#xe930;" d="M359.112 397.746c1.912 0 3.825 0 6.162 0 0-4.037 0-8.075 0-12.325 2.125 0 4.037-0.212 6.162-0.212 0-1.912 0-3.825 0-5.95 2.337-0.212 4.25-0.212 6.375-0.425 0-4.037 0-8.075 0-12.112 2.125 0 4.037 0 6.162 0 0.212 1.912 0.212 3.825 0.425 5.95 1.912 0 3.612 0 5.95 0 0.212-1.7 0.212-3.612 0.425-5.95 4.037 0 7.862 0 12.112 0 0-2.125 0-4.037 0-5.95-14.237 0-28.686 0-43.561 0 0 1.912 0 4.037 0 5.95 4.037 0 8.287 0 12.325 0 0 2.337 0 4.25 0 6.375-2.125 0-3.825 0-5.737 0-0.212 2.125-0.212 4.037-0.425 5.95-2.125 0-4.037 0-5.95 0 0-4.25 0-8.287 0-12.325-1.912 0-3.825 0-6.162 0-0.212-1.912-0.212-3.825-0.425-5.95-1.912 0-3.825 0-5.95 0 0 1.912 0 3.612 0 5.737-4.25 0-8.075 0-12.325 0-0.212 2.337-0.212 4.037-0.425 6.375-2.125 0-4.037 0-6.162 0l0.212-0.212c0 2.125 0 4.25-0.212 6.375 4.037 0 8.287 0 12.325 0 0.212-2.55 0.212-4.25 0.425-6.162 4.25 0 8.075 0 12.325 0 0 4.037 0 8.075 0 12.112 2.337 0.212 4.25 0.212 6.162 0.425 0 4.462 0 8.287-0.212 12.325v0z" />
<glyph unicode="&#xe931;" d="M240.541 360.559c0 14.449 0 28.686 0 43.136 14.449 0 28.686 0 43.136 0 0-14.237 0-28.686 0-43.136-14.024 0-28.474 0-43.136 0zM277.727 366.722c0 10.412 0 20.612 0 30.811-10.412 0-20.612 0-30.811 0 0-10.412 0-20.612 0-30.811 10.2 0 20.399 0 30.811 0z" />
<glyph unicode="&#xe932;" d="M421.797 422.607c0 4.037 0 8.075 0 12.537-2.337 0-4.462 0-6.375 0l0.212-0.212c0 2.125 0 4.25 0 6.375l-0.212-0.212c4.037 0 8.075 0 12.325 0 0.212-2.125 0.212-3.825 0.425-6.162 4.037 0 7.862 0 12.112 0 0-4.25 0-8.075 0-12.325 2.337-0.212 4.25-0.212 6.162-0.425 0-1.912 0-3.612 0-5.95-1.7 0-3.612 0-5.737 0-0.212-2.337-0.212-4.25-0.425-6.375-1.912 0-3.612 0-5.95 0 0-2.125 0-4.037 0-6.375-2.337 0-4.462 0-6.587 0l0.212-0.212c0 4.037 0 8.287 0 12.325 2.337 0.212 4.25 0.212 5.95 0.425 0 2.125 0 4.037 0 6.162-4.25 0.637-8.287 0.637-12.112 0.425v0z" />
<glyph unicode="&#xe933;" d="M259.241 485.292c-4.037 0-8.075 0-12.325 0-0.212-2.125-0.212-4.037-0.425-5.95-1.912 0-3.612 0-5.737 0 0 3.825 0 7.862 0 12.112 1.7 0.212 3.612 0.212 5.737 0.425 0 4.037 0 8.075 0 12.325-1.912 0-3.825 0-5.737 0 0 4.25 0 8.075 0 12.325 1.912 0 3.612 0 5.737 0 0-1.912 0-3.612 0-5.737 2.337-0.212 4.25-0.212 6.375-0.425 0-1.912 0-3.612 0-5.95 2.125 0 4.037 0 6.375 0 0-6.8 0-12.962 0-19.124 0-0.212 0 0 0 0z" />
<glyph unicode="&#xe934;" d="M396.723 516.529c10.2 0 20.399 0 31.024 0 0.212-1.912 0.212-3.825 0.425-5.95 1.912-0.212 3.825-0.212 5.95-0.425 0-1.912 0-3.612 0-5.95-1.912 0-3.612 0-5.737 0-0.212-2.337-0.212-4.037-0.425-6.162-1.912 0-3.612 0-5.95 0 0 3.825 0 7.862 0 12.112-6.375 0-12.537 0-18.912 0 0-4.037 0-8.287 0-12.325l0.212 0.212c-2.125 0-4.25 0-6.375 0l0.212-0.212c-0.425 6.162-0.425 12.537-0.425 18.699v0z" />
<glyph unicode="&#xe935;" d="M434.334 454.056c-1.912 0-3.825 0-6.162 0-0.212-2.125-0.212-4.037-0.425-6.162-1.912 0-3.612 0-5.95 0 0 3.825 0 7.862 0 12.112-2.337 0.212-4.037 0.212-6.162 0.425 0 4.25 0 8.287 0 12.537 0 0-0.212-0.212-0.212-0.212 1.912 0 3.825 0 5.95 0 0.212 2.125 0.212 3.825 0.425 5.95 1.912 0 3.825 0 5.95 0 0-5.95 0-12.112 0-18.699 2.337 0 4.462 0 6.375 0l-0.212 0.212c0.212-2.125 0.212-4.25 0.425-6.162v0z" />
<glyph unicode="&#xe936;" d="M315.551 379.046c-1.912 0-3.825 0-6.162 0-0.212 1.912-0.212 3.825-0.425 6.162-2.125 0-4.037 0-6.162 0l0.212-0.212c0 2.125 0 4.25 0 6.375l-0.212-0.212c2.125 0 4.037 0 6.587 0 0 2.337 0 4.25 0 6.162 2.125 0 4.037 0 5.95 0 0.212-2.125 0.212-4.037 0.425-6.162 2.337 0 4.25 0 6.162 0l-0.212 0.212c0-2.125 0-4.25 0.212-6.375-1.912 0-4.037 0-6.375 0-0.212-2.125-0.212-4.037 0-5.95v0z" />
<glyph unicode="&#xe937;" d="M296.639 547.765c0 4.037 0 8.075 0 12.325-2.125 0.212-4.037 0.212-5.95 0.425 0 1.912 0 3.825 0 5.95 4.037 0 7.862 0 11.9 0 0-5.95 0-11.9 0-18.487-1.912-0.212-4.037-0.212-5.95-0.212 0 0 0 0 0 0z" />
<glyph unicode="&#xe938;" d="M296.852 391.371c0 1.912 0 3.825 0 6.162-2.125 0.212-4.037 0.212-6.162 0.425 0 4.25 0 8.287 0 12.325l-0.212-0.212c1.912 0 4.037 0 6.375 0 0-2.337 0-4.25 0-6.162 2.337 0 4.25 0 6.162 0 0-4.25 0-8.5-0.212-12.537l0.212 0.212c-2.125 0-4.25 0-6.162-0.212v0z" />
<glyph unicode="&#xe939;" d="M252.866 428.982c0-4.037 0-8.075 0-12.325-4.25 0-8.075 0-12.325 0 0 4.037 0 7.862 0 12.112 4.25 0.212 8.287 0.212 12.325 0.212 0.212 0 0 0 0 0z" />
<glyph unicode="&#xe93a;" d="M277.94 503.992c-4.037 0-8.075 0-12.325 0 0 4.037 0 8.075 0 12.325 1.912 0 3.612 0 5.737 0 0-1.912 0-3.612 0-6.162 2.337 0 4.462 0 6.587 0l-0.212 0.212c0.212-2.125 0.212-4.25 0.212-6.375v0z" />
<glyph unicode="&#xe93b;" d="M290.477 410.283c-4.037 0-8.075 0-12.537 0 0 2.125 0 4.25 0 6.162l-0.212-0.212c4.25 0 8.5 0 12.537 0l-0.212 0.212c0.212-2.125 0.425-4.037 0.425-6.162v0z" />
<glyph unicode="&#xe93c;" d="M409.26 441.519c0 4.037 0 8.075 0 12.325 1.912 0 3.825 0 6.162 0 0-4.037 0-8.075 0-12.325 0 0 0.212 0.212 0.212 0.212-2.337-0.212-4.462-0.212-6.375-0.212v0z" />
<glyph unicode="&#xe93d;" d="M434.122 454.056c1.912 0 3.825 0 5.95 0 0-4.037 0-8.075 0-12.112-1.912 0-3.612 0-5.95 0 0.212 4.037 0.212 8.075 0 12.112 0.212 0 0 0 0 0z" />
<glyph unicode="&#xe93e;" d="M440.496 385.209c0 4.037 0 8.075 0 12.325 2.125 0 3.825 0 5.95 0 0-4.037 0-7.862 0-12.112-1.912 0-4.037 0-5.95-0.212v0z" />
<glyph unicode="&#xe93f;" d="M302.801 385.209c0-4.037 0-8.075 0-12.325-1.912 0-3.825 0-6.162 0 0 4.037 0 8.075 0 12.325l-0.212-0.212c2.337 0.212 4.462 0.212 6.375 0.212v0z" />
<glyph unicode="&#xe940;" d="M315.338 366.297c0-2.125 0-3.825 0-5.737-4.037 0-7.862 0-12.112 0 0 1.7 0 3.612 0 5.737 4.037 0 7.862 0 12.112 0z" />
<glyph unicode="&#xe941;" d="M384.186 385.421c-1.912 0-3.825 0-5.95 0 0 4.037 0 8.075 0 12.325 1.912 0 3.612 0 5.95 0 0-4.25 0-8.5 0-12.325v0z" />
<glyph unicode="&#xe942;" d="M390.136 560.302c-1.912 0-3.612 0-5.737 0 0 1.912 0 3.825 0 5.95 1.912 0 3.612 0 5.737 0 0-1.7 0-3.612 0-5.95z" />
<glyph unicode="&#xe943;" d="M384.186 547.765c0 1.912 0 3.825 0 5.95 1.912 0 3.825 0 5.95 0 0-1.7 0-3.612 0-5.95-1.912 0-4.037 0-5.95 0 0 0 0 0 0 0z" />
<glyph unicode="&#xe944;" d="M365.487 535.228c-1.912 0-3.825 0-5.95 0 0 1.912 0 3.825 0 5.95 1.7 0 3.612 0 5.95 0 0-1.912 0-4.037 0-5.95 0 0 0 0 0 0z" />
<glyph unicode="&#xe945;" d="M409.26 435.357c-1.912 0-3.825 0-5.95 0 0 1.912 0 3.825 0 6.162 1.912 0 4.037 0 5.95 0l-0.212 0.212c0-2.337 0-4.462 0.212-6.375v0z" />
<glyph unicode="&#xe946;" d="M415.422 435.357c0-1.912 0-3.825 0-5.95-1.912 0-3.825 0-6.162 0 0 1.912 0 4.037 0 5.95 0 0-0.212-0.212-0.212-0.212 2.125 0 4.25 0 6.375 0.212v0z" />
<glyph unicode="&#xe947;" d="M440.709 516.316c2.125 0 3.612 0 5.737 0 0-1.912 0-3.825 0-5.95-1.7 0-3.612 0-5.737 0 0 1.912 0 3.825 0 5.95z" />
<glyph unicode="&#xe948;" d="M440.496 491.667c-1.912 0-3.825 0-5.95 0 0 2.125 0 3.825 0 5.95 1.912 0 3.612 0 5.95 0-0.212-2.125-0.212-4.037 0-5.95v0z" />
<glyph unicode="&#xe949;" d="M352.95 403.908c1.912 0 3.825 0 6.162 0 0-2.125 0-4.25 0-6.162 0 0 0.212 0.212 0.212 0.212-2.125 0-4.037 0-6.162 0-0.212 2.337-0.212 4.25-0.212 5.95v0z" />
<glyph unicode="&#xe94a;" d="M440.284 491.455c1.912 0 3.825 0 5.95 0 0-1.912 0-3.825 0-5.95-1.7 0-3.612 0-5.95 0 0.212 2.125 0.212 4.037 0 5.95 0.212 0.212 0 0 0 0z" />
<glyph unicode="&#xe94b;" d="M440.071 472.968c-1.912 0-3.612 0-5.737 0 0 1.912 0 3.825 0 5.95 1.912 0 3.612 0 5.737 0 0-1.912 0-3.825 0-5.95z" />
<glyph unicode="&#xe94c;" d="M434.334 460.218c0 1.912 0 3.825 0 5.95 1.912 0 3.825 0 5.95 0 0-1.7 0-3.612 0-5.95-2.125 0-4.25 0-5.95 0-0.212 0 0 0 0 0z" />
<glyph unicode="&#xe94d;" d="M296.852 385.209c-1.912 0-3.825 0-5.95 0 0 1.912 0 3.825 0 6.162 1.912 0 4.037 0 5.95 0l-0.212 0.212c0-2.125 0-4.25 0.212-6.375v0z" />
<glyph unicode="&#xe94e;" d="M384.186 385.209c2.125 0 4.462 0 6.587-0.212 0 0-0.212 0.212-0.212 0.212 0-1.912 0-3.825 0-5.95-2.125 0-4.037 0-6.375 0 0 2.125 0 4.037 0 5.95 0 0.212 0 0 0 0z" />
<glyph unicode="&#xe94f;" d="M440.496 385.421c0-1.912 0-3.825 0-5.95-1.912 0-3.825 0-5.95 0 0 1.7 0 3.612 0 5.95 1.912-0.212 4.037-0.212 5.95 0 0-0.212 0 0 0 0z" />
<glyph unicode="&#xe950;" d="M321.713 372.884c-1.912 0-3.825 0-6.162 0 0 2.125 0 4.25 0 6.162l-0.212-0.212c2.125 0 4.25 0 6.375 0.212 0-2.125 0-4.25 0-6.162v0z" />
<glyph unicode="&#xe951;" d="M327.875 372.884c0-1.912 0-3.825 0-5.95-1.912 0-3.825 0-6.162 0 0 1.912 0 4.037 0 5.95l-0.212-0.212c2.337 0 4.462 0 6.375 0.212v0z" />
<glyph unicode="&#xe952;" d="M290.689 366.297c1.912 0 3.612 0 5.737 0 0-1.912 0-3.612 0-5.737-1.912 0-3.612 0-5.737 0 0 1.7 0 3.612 0 5.737z" />
<glyph unicode="&#xe953;" d="M334.25 560.090c0 1.912 0 3.825 0 5.95 1.912 0 3.825 0 5.95 0 0-1.7 0-3.612 0-5.95-2.125 0.212-4.037 0.212-5.95 0-0.212 0.212 0 0 0 0z" />
<glyph unicode="&#xe954;" d="M446.659 366.297c0-2.125 0-3.612 0-5.737-1.912 0-3.825 0-5.95 0 0 1.7 0 3.612 0 5.737 1.912 0 3.612 0 5.95 0z" />
<glyph unicode="&#xe955;" d="M359.112 497.617c4.037 0 8.075 0 12.325 0 0-1.912 0-3.825 0-5.95-3.825 0-7.862 0-12.112 0 0 2.125 0 4.037-0.212 5.95 0.212 0.212 0 0 0 0z" />
<glyph unicode="&#xe956;" d="M346.787 485.292c-1.912 0-3.825 0-6.375 0 0 4.462 0 8.5 0 12.537 1.912 0 3.825 0 6.375 0 0-4.462 0-8.5 0-12.537z" />
<glyph unicode="&#xe957;" d="M302.801 466.381c0 6.162 0 12.112 0 18.912 6.587 0 12.75 0 18.912 0 0-1.912 0-3.825 0-6.162-2.125-0.212-4.037-0.212-6.162-0.425 0-4.25 0-8.287 0-12.325-4.25 0-8.5 0-12.75 0z" />
<glyph unicode="&#xe958;" d="M309.176 422.82c0-1.912 0-4.037 0-6.162 2.337 0 4.25 0 6.162 0 0-4.037 0-8.075 0-12.537-4.462 0-8.5 0-12.537 0 0 6.162 0 12.112 0 18.912 2.337-0.212 4.462-0.212 6.375-0.212z" />
<glyph unicode="&#xe959;" d="M290.477 416.445c0 1.912 0 3.825 0 5.95 1.912 0 3.825 0 5.95 0 0-1.7 0-3.612 0-5.95-2.125 0-4.037 0-5.95 0-0.212 0 0 0 0 0z" />
<glyph unicode="&#xe95a;" d="M315.338 466.593c2.125 0 4.25 0 6.375 0 0-2.125 0-4.25 0-6.375-1.912 0-3.825 0-6.375 0 0 2.337 0 4.25 0 6.375z" />
<glyph unicode="&#xe95b;" d="M321.713 460.218c1.912 0 3.825 0 5.95 0 0-2.125 0-4.037 0-6.375-1.912 0-4.037 0-5.95 0 0 2.125 0 4.25 0 6.375z" />
<glyph unicode="&#xe95c;" d="M352.95 428.982c-1.912 0-4.037 0-6.162 0 0-2.337 0-4.25 0-6.162-1.912 0-3.825 0-5.95 0 0 4.25 0 8.075 0 12.537 4.037 0 8.287 0 12.325 0-0.212-2.125-0.212-4.25-0.212-6.375z" />
<glyph unicode="&#xe95d;" d="M328.088 422.607c0 1.912 0 3.825 0 5.95 1.912 0 3.825 0 5.95 0 0-1.7 0-3.612 0-5.95-2.125 0.212-4.25 0.212-5.95 0-0.212 0.212 0 0 0 0z" />
<glyph unicode="&#xe95e;" d="M321.713 378.834c0 2.125 0 4.25 0 6.375 1.912 0 3.825 0 6.375 0 0-2.337 0-4.25 0-6.375-2.125 0-4.25 0-6.375 0z" />
<glyph unicode="&#xe95f;" d="M408.835 397.958c-1.912 0-3.612 0-5.737 0 0 1.912 0 3.825 0 5.95 1.912 0 3.612 0 5.737 0 0-1.912 0-3.825 0-5.95z" />
<glyph unicode="&#xe960;" d="M315.338 522.691c0 4.25 0 8.5 0 12.537 1.912 0 3.825 0 5.95 0 0-4.25 0-8.075 0-12.537-1.912 0-3.825 0-5.95 0z" />
<glyph unicode="&#xe961;" d="M334.25 529.066c0-4.25 0-8.5 0-12.537-1.912 0-3.825 0-5.95 0 0 4.25 0 8.075 0 12.537 1.912 0 3.825 0 5.95 0z" />
<glyph unicode="&#xe962;" d="M340.413 528.853c-2.125 0-4.25 0-6.375 0 0 1.912 0 3.825 0 6.375 2.337 0 4.25 0 6.375 0 0-2.125 0-4.25 0-6.375z" />
<glyph unicode="&#xe963;" d="M316.826 519.716c0-2.464-1.998-4.462-4.462-4.462s-4.462 1.998-4.462 4.462c0 2.464 1.998 4.462 4.462 4.462s4.462-1.998 4.462-4.462z" />
<glyph unicode="&#xe964;" d="M315.338 510.154c0 2.125 0 4.25 0 6.375 1.912 0 3.825 0 5.95 0 0-2.125 0-4.037 0-6.375-1.912 0-3.825 0-5.95 0z" />
<glyph unicode="&#xe965;" d="M290.477 491.455c2.125 0 4.25 0 6.375 0 0-1.912 0-3.825 0-5.95-2.125 0-4.037 0-6.375 0 0 2.125 0 4.037 0 5.95z" />
<glyph unicode="&#xe966;" d="M346.787 522.691c-1.912 0-3.825 0-6.375 0 0 2.337 0 4.25 0 6.375 2.125 0 4.25 0 6.375 0 0-2.125 0-4.25 0-6.375z" />
<glyph unicode="&#xe967;" d="M253.078 535.653c0 6.162 0 12.112 0 18.274 6.162 0 11.9 0 18.274 0 0-5.95 0-11.9 0-18.274-5.95 0-11.9 0-18.274 0z" />
<glyph unicode="&#xe968;" d="M415.847 553.927c6.162 0 12.112 0 18.274 0 0-6.162 0-12.112 0-18.274-6.162 0-11.9 0-18.274 0 0 5.737 0 11.9 0 18.274z" />
<glyph unicode="&#xe969;" d="M271.565 391.158c0-6.162 0-11.9 0-18.274-5.95 0-12.112 0-18.274 0 0 5.95 0 11.9 0 18.274 5.95 0 11.9 0 18.274 0z" />
<glyph unicode="&#xe96a;" d="M879.718 332.298c0-130.148-105.506-235.654-235.654-235.654s-235.654 105.506-235.654 235.654c0 130.148 105.506 235.654 235.654 235.654s235.654-105.506 235.654-235.654z" />
<glyph unicode="&#xe96b;" d="M845.507 332.298c0-111.254-90.189-201.443-201.443-201.443s-201.443 90.189-201.443 201.443c0 111.254 90.189 201.443 201.443 201.443s201.443-90.189 201.443-201.443z" />
<glyph unicode="&#xe96c;" d="M644.064 122.143c-115.808 0-210.155 94.134-210.155 210.155 0 24.224 4.037 48.023 12.112 70.547 1.7 4.462 6.587 6.8 11.050 5.312 4.462-1.7 6.8-6.587 5.312-11.050-7.437-20.824-11.262-42.498-11.262-64.81 0-106.246 86.484-192.73 192.73-192.73s192.73 86.484 192.73 192.73-86.484 192.73-192.73 192.73c-56.523 0-109.858-24.649-146.62-67.573-3.187-3.612-8.5-4.037-12.112-1.062-3.612 3.187-4.037 8.5-1.062 12.112 39.949 46.748 98.171 73.735 159.794 73.735 115.808 0 210.155-94.134 210.155-210.155s-93.922-209.942-209.942-209.942z" />
<glyph unicode="&#xe96d;" d="M634.289 295.537c-10.837 0-19.549 8.712-19.549 19.549v86.484c0 10.837 8.712 19.549 19.549 19.549s19.549-8.712 19.549-19.549v-86.484c0-10.625-8.925-19.549-19.549-19.549zM634.289 409.008c-4.037 0-7.225-3.187-7.225-7.225v-86.484c0-4.037 3.187-7.225 7.225-7.225s7.225 3.187 7.225 7.225v86.484c-0.212 3.825-3.4 7.225-7.225 7.225z" />
<glyph unicode="&#xe96e;" d="M576.704 272.375c-2.125 0-4.462 1.275-5.525 3.4-1.487 2.975-0.425 6.8 2.55 8.287l57.585 30.174c2.975 1.7 6.8 0.425 8.287-2.55s0.425-6.8-2.55-8.287l-57.585-30.174c-0.85-0.637-1.912-0.85-2.762-0.85z" />
<glyph unicode="&#xe96f;" d="M616.44 297.662v22.099c0 1.275 1.062 2.337 2.337 2.337h134.508c1.275 0 2.337-1.062 2.337-2.337v-22.099c0-1.275-1.062-2.337-2.337-2.337h-134.508c-1.275 0-2.337 1.062-2.337 2.337z" />
<glyph unicode="&#xe970;" d="M142.157 658.474h352.1v-497.657h-352.1v497.657z" />
<glyph unicode="&#xe971;" d="M407.985 742.833h352.1v-497.657h-352.1v497.657z" />
<glyph unicode="&#xe972;" d="M760.085 236.039h-352.1c-4.887 0-8.925 4.037-8.925 8.925v113.471c0 4.887 4.037 8.925 8.925 8.925s8.925-4.037 8.925-8.925v-104.546h334.25v480.020h-334.25v-311.939c0-4.887-4.037-8.925-8.925-8.925s-8.925 4.037-8.925 8.925v320.863c0 4.887 4.037 8.925 8.925 8.925h352.1c4.887 0 8.925-4.037 8.925-8.925v-497.657c0-5.1-4.037-9.137-8.925-9.137z" />
<glyph unicode="&#xe973;" d="M630.252 288.95c-16.787 0-37.611 21.037-48.448 33.361l-31.236-16.574c-2.975-1.487-6.587-1.275-9.35 0.637-0.85 0.637-18.274 12.962-29.324 33.999-4.037-8.075-8.5-22.524-8.925-26.987 0.425-4.887-3.187-8.712-8.075-9.137-4.675-0.425-9.137 3.825-9.562 8.712-0.212 3.4 8.287 45.048 24.437 49.298 2.55 0.637 11.050 1.912 16.362-10.2 5.95-13.175 15.724-22.949 21.249-27.836l32.299 17.212c3.825 1.912 8.5 1.062 11.050-2.337 12.962-15.937 32.724-33.361 39.311-32.299 9.35 1.062 22.099 15.299 28.049 23.799 2.762 4.037 8.287 5.1 12.325 2.337s5.1-8.287 2.337-12.325c-1.912-2.975-20.187-29.111-40.586-31.661-0.425 0-1.062 0-1.912 0z" />
<glyph unicode="&#xe974;" d="M345.087 200.128c-16.787 0-37.824 21.037-48.448 33.361l-31.236-16.574c-2.975-1.487-6.587-1.275-9.35 0.637-0.85 0.637-18.274 12.962-29.324 33.999-4.037-8.075-8.5-22.524-8.925-26.987 0.425-4.887-3.187-8.712-8.075-9.137-4.675-0.425-9.137 3.825-9.562 8.712-0.212 3.4 8.287 45.048 24.437 49.298 2.55 0.637 11.050 1.912 16.362-10.2 5.95-13.175 15.724-22.949 21.249-27.836l32.299 17.212c3.825 1.912 8.5 1.062 11.050-2.337 12.962-15.937 32.511-33.149 39.311-32.299 9.35 1.062 22.099 15.299 28.049 23.799 2.762 4.037 8.287 5.1 12.325 2.337s5.1-8.287 2.337-12.325c-1.912-2.975-20.187-29.111-40.586-31.661-0.425 0-1.062 0-1.912 0z" />
<glyph unicode="&#xe975;" d="M642.364 630.637h-171.481c-4.887 0-8.925 4.037-8.925 8.925s4.037 8.925 8.925 8.925h171.481c4.887 0 8.925-4.037 8.925-8.925s-4.037-8.925-8.925-8.925z" />
<glyph unicode="&#xe976;" d="M642.364 588.564h-171.481c-4.887 0-8.925 4.037-8.925 8.925s4.037 8.925 8.925 8.925h171.481c4.887 0 8.925-4.037 8.925-8.925s-4.037-8.925-8.925-8.925z" />
<glyph unicode="&#xe977;" d="M642.364 546.49h-171.481c-4.887 0-8.925 4.037-8.925 8.925s4.037 8.925 8.925 8.925h171.481c4.887 0 8.925-4.037 8.925-8.925s-4.037-8.925-8.925-8.925z" />
<glyph unicode="&#xe978;" d="M642.364 473.605h-171.481c-4.887 0-8.925 4.037-8.925 8.925s4.037 8.925 8.925 8.925h171.481c4.887 0 8.925-4.037 8.925-8.925s-4.037-8.925-8.925-8.925z" />
<glyph unicode="&#xe979;" d="M642.364 443.856h-171.481c-4.887 0-8.925 4.037-8.925 8.925s4.037 8.925 8.925 8.925h171.481c4.887 0 8.925-4.037 8.925-8.925s-4.037-8.925-8.925-8.925z" />
<glyph unicode="&#xe97a;" d="M367.399 566.889h-171.481c-4.887 0-8.925 4.037-8.925 8.925s4.037 8.925 8.925 8.925h171.481c4.887 0 8.925-4.037 8.925-8.925s-4.037-8.925-8.925-8.925z" />
<glyph unicode="&#xe97b;" d="M367.399 525.028h-171.481c-4.887 0-8.925 4.037-8.925 8.925s4.037 8.925 8.925 8.925h171.481c4.887 0 8.925-4.037 8.925-8.925 0-5.1-4.037-8.925-8.925-8.925z" />
<glyph unicode="&#xe97c;" d="M367.399 482.955h-171.481c-4.887 0-8.925 4.037-8.925 8.925s4.037 8.925 8.925 8.925h171.481c4.887 0 8.925-4.037 8.925-8.925s-4.037-8.925-8.925-8.925z" />
<glyph unicode="&#xe97d;" d="M367.399 409.858h-171.481c-4.887 0-8.925 4.037-8.925 8.925s4.037 8.925 8.925 8.925h171.481c4.887 0 8.925-4.037 8.925-8.925s-4.037-8.925-8.925-8.925z" />
<glyph unicode="&#xe97e;" d="M390.773 380.109h-171.481c-4.887 0-8.925 4.037-8.925 8.925s4.037 8.925 8.925 8.925h171.481c4.887 0 8.925-4.037 8.925-8.925s-4.037-8.925-8.925-8.925z" />
<glyph unicode="&#xe97f;" d="M597.316 144.455l39.099 63.748 212.067 239.904 6.8-5.95 17.212 18.274 9.35-10.2-16.574-18.699 7.225-6.8-215.68-237.991z" />
<glyph unicode="&#xe980;" d="M743.51 329.323l104.971 118.783 6.8-5.95 17.212 18.274 9.35-10.2-16.574-18.699 7.225-6.8-215.68-237.991-59.498-42.286 39.099 63.748 37.611 42.711z" />
<glyph unicode="&#xe981;" d="M143.783 516.471l352.312-3.332-1.949-206.117-352.312 3.332 1.949 206.117z" />
<glyph unicode="&#xe982;" d="M177.538 490.438l284.527-2.691-1.461-154.482-284.527 2.691 1.461 154.482z" />
<glyph unicode="&#xe983;" d="M314.276 380.109v-5.737c0-3.4-2.975-6.375-6.587-6.375-3.4 0-6.375 2.975-6.375 6.375v4.462c-4.25 0.637-8.5 2.337-11.687 4.462-3.612 2.337-4.462 7.437-2.125 11.050 1.487 1.912 3.612 3.187 5.95 3.4 2.975 0.212 5.312-1.7 8.075-2.55 3.612-1.275 7.862-1.062 10.2 1.912 2.762 3.612 2.337 8.712-2.125 11.050s-9.987 2.125-15.937 8.075c-4.037 4.037-6.162 9.562-5.95 15.299 0.212 7.65 4.462 14.662 11.262 18.487 0.85 0.425 1.912 0.85 2.762 1.275v5.1c0 3.612 2.975 6.375 6.375 6.375 3.612 0 6.375-2.762 6.375-6.375v-3.612c2.975-0.425 5.737-1.275 8.287-2.975 6.375-4.675 4.037-12.75-2.125-14.449-2.337-0.637-4.25 0.212-6.375 1.062-6.162 2.55-12.325-1.487-10.625-6.8 1.275-3.825 9.987-5.95 13.387-7.225 7.225-2.975 12.325-10.837 12.325-18.699 0.212-10.837-6.162-19.974-15.087-23.587z" />
<glyph unicode="&#xe984;" d="M228.031 645.004l323.282-140.044-81.932-189.133-323.282 140.044 81.932 189.133z" />
<glyph unicode="&#xe985;" d="M248.813 607.981l261.082-113.1-61.407-141.753-261.082 113.1 61.407 141.753z" />
<glyph unicode="&#xe986;" d="M332.55 453.419l-2.337-5.312c-1.487-3.187-5.1-4.675-8.5-3.187-3.187 1.487-4.675 5.312-3.4 8.5l1.7 4.037c-3.612 2.337-7.012 5.525-8.925 8.712-2.337 3.612-1.275 8.5 2.337 11.050 2.125 1.275 4.675 1.7 6.8 0.637 2.762-0.85 4.25-3.612 6.375-5.525 2.762-2.55 6.8-3.825 10.2-2.125 4.037 2.125 5.525 7.225 2.337 11.050s-8.5 5.95-11.475 13.6c-2.125 5.312-1.912 11.262 0.425 16.362 3.187 7.012 9.775 11.687 17.637 12.537 1.062 0 1.912 0.212 2.975 0l2.125 4.675c1.487 3.4 5.1 4.675 8.5 3.4 3.4-1.487 4.887-5.1 3.4-8.5l-1.487-3.4c2.55-1.487 4.887-3.4 6.375-5.95 4.037-6.8-1.275-13.387-7.65-12.325-2.337 0.425-3.825 1.7-5.525 3.4-4.675 4.887-12.112 3.4-12.537-2.125-0.425-4.037 7.012-9.35 9.35-11.9 5.525-5.525 7.225-14.874 4.037-22.099-3.825-9.775-13.175-15.724-22.737-15.512z" />
<glyph unicode="&#xe987;" d="M359.214 734.714l240.242-257.681-150.754-140.551-240.242 257.681 150.754 140.551z" />
<glyph unicode="&#xe988;" d="M363.292 692.325l194.019-208.103-112.988-105.341-194.019 208.103 112.988 105.341z" />
<glyph unicode="&#xe989;" d="M377.386 518.016l-4.25-4.037c-2.55-2.337-6.587-2.337-9.137 0.425-2.337 2.55-2.337 6.587 0.212 9.137l3.187 2.975c-2.337 3.612-4.25 7.862-4.675 11.475-0.637 4.25 2.125 8.287 6.587 9.137 2.337 0.425 4.887-0.425 6.587-2.125 2.125-1.912 2.55-4.887 3.612-7.65 1.487-3.612 4.675-6.375 8.5-5.95 4.462 0.425 8.075 4.25 6.587 9.137-1.275 4.887-5.312 8.712-5.1 17.212 0.212 5.737 2.762 11.050 7.012 14.874 5.737 5.1 13.6 6.8 21.249 4.462 1.062-0.212 1.912-0.637 2.762-1.062l3.612 3.4c2.55 2.55 6.587 2.337 9.137-0.212s2.337-6.587-0.212-9.137l-2.55-2.55c1.7-2.337 2.975-5.1 3.4-8.075 1.062-7.862-6.587-11.687-11.9-8.287-1.912 1.275-2.762 3.187-3.612 5.525-2.337 6.375-9.775 7.862-12.325 2.975-1.912-3.612 2.55-11.475 3.825-14.662 2.762-7.225 0.637-16.574-5.1-21.887-7.862-7.437-18.699-9.137-27.411-5.1z" />
<glyph unicode="&#xe98a;" d="M839.132 170.166h-398.423c-18.912 0-33.999 15.299-33.999 33.999v231.404c0 18.912 15.299 33.999 33.999 33.999h398.423c18.912 0 33.999-15.299 33.999-33.999v-231.192c0-18.912-15.299-34.211-33.999-34.211z" />
<glyph unicode="&#xe98b;" d="M542.493 227.327c7.437-4.462 16.149-6.8 25.499-6.8 28.261 0 50.998 22.949 50.998 50.998 0 28.261-22.949 50.998-50.998 50.998-9.35 0-18.062-2.55-25.499-6.8z" />
<glyph unicode="&#xe98c;" d="M567.992 271.525c0-28.165-22.833-50.998-50.998-50.998s-50.998 22.833-50.998 50.998c0 28.165 22.833 50.998 50.998 50.998s50.998-22.833 50.998-50.998z" />
<glyph unicode="&#xe98d;" d="M745.423 478.493h-304.714c-23.799 0-42.923-19.337-42.923-42.923v-231.192c0-23.799 19.337-42.923 42.923-42.923h398.423c23.799 0 42.923 19.337 42.923 42.923v45.898c0 4.887-4.037 8.925-8.925 8.925s-8.925-4.037-8.925-8.925v-45.898c0-13.812-11.262-25.074-25.074-25.074h-398.423c-13.812 0-25.074 11.262-25.074 25.074v231.192c0 13.812 11.262 25.074 25.074 25.074h398.423c13.812 0 25.074-11.262 25.074-25.074v-111.133c0-4.887 4.037-8.925 8.925-8.925s8.925 4.037 8.925 8.925v111.133c0 23.799-19.337 42.923-42.923 42.923h-75.86z" />
<glyph unicode="&#xe98e;" d="M516.144 374.584c4.887 0 8.925 4.037 8.925 8.925s-4.037 8.925-8.925 8.925h-52.061c-4.887 0-8.925-4.037-8.925-8.925s4.037-8.925 8.925-8.925h52.061z" />
<glyph unicode="&#xe98f;" d="M763.485 392.433c-4.887 0-8.925-4.037-8.925-8.925s4.037-8.925 8.925-8.925h52.061c4.887 0 8.925 4.037 8.925 8.925s-4.037 8.925-8.925 8.925h-52.061z" />
<glyph unicode="&#xe990;" d="M663.826 392.433c-4.887 0-8.925-4.037-8.925-8.925s4.037-8.925 8.925-8.925h52.061c4.887 0 8.925 4.037 8.925 8.925s-4.037 8.925-8.925 8.925h-52.061z" />
<glyph unicode="&#xe991;" d="M616.015 374.584c4.887 0 8.925 4.037 8.925 8.925s-4.037 8.925-8.925 8.925h-52.061c-4.887 0-8.925-4.037-8.925-8.925s4.037-8.925 8.925-8.925h52.061z" />
<glyph unicode="&#xe992;" d="M429.604 328.269c23.375 0 46.749 0 70.124 0h6.162v-86.826c-1.87 0-3.782-0.255-5.695-0.255-23.545 0-47.111-0.212-70.655-0.297z" />
<glyph unicode="&#xe993;" d="M429.604 641.255c23.375 0 46.749 0 70.124 0h6.162v-86.826c-1.87 0-3.782-0.255-5.695-0.255-23.545 0-47.111-0.212-70.655-0.297z" />
<glyph unicode="&#xe994;" d="M412.711 240.975c-24.161 0-48.322 0-72.461 0.51-47.238 1.020-91.182 13.6-128.56 43.966-30.238 24.565-48.407 56.737-56.779 94.434-10.455 47.004-10.115 93.987 4.866 139.972 18.933 58.182 60.115 93.754 117.808 111.263 20.291 6.352 43.622 10.011 67.808 10.011 0.343 0 0.687-0.001 1.030-0.002h66.31v-86.805c-24.905 0-49.788 0-74.65-1.020-37.484-1.424-69.189-16.681-88.292-51.169-12.75-23.035-15.172-48.279-13.281-74.076 1.36-18.338 5.737-35.869 15.427-51.722 14.875-24.416 37.421-38.249 64.79-44.178 11.261-2.312 24.204-3.636 37.456-3.636 0.324 0 0.647 0.001 0.971 0.002h-0.050c19.125-0.212 38.419-0.255 57.629-0.255z" />
<glyph unicode="&#xe995;" d="M412.711 240.975c-24.161 0-48.322 0-72.461 0.51-47.238 1.020-91.182 13.6-128.56 43.966 0 0 62.453-30.515 120.379-11.624 54.973 17.913 80.642 54.442 80.642 54.442z" />
<glyph unicode="&#xe996;" d="M435.979 233.262c-4.036 0.22-7.226 3.546-7.226 7.618s3.19 7.398 7.207 7.617l0.019 0.001 26.838 0.127c11.454 0 22.546 0.127 35.529 0.149v71.973h-62.347c-4.201 0-7.607 3.406-7.607 7.607s3.406 7.607 7.607 7.607h69.975c4.201 0 7.607-3.406 7.607-7.607v0-86.826c0-0.003 0-0.006 0-0.009 0-4.074-3.203-7.401-7.228-7.598l-0.018-0.001h-1.657c-1.466 0-2.932-0.191-4.399-0.191-13.791 0-25.393 0-37.357-0.127l-26.902-0.149z" />
<glyph unicode="&#xe997;" d="M435.979 546.418c-4.036 0.22-7.226 3.546-7.226 7.618s3.19 7.398 7.207 7.617l0.019 0.001 26.201 0.127c11.666 0 22.95 0.127 36.124 0.149v71.866h-62.347c-4.201 0-7.607 3.406-7.607 7.607s3.406 7.607 7.607 7.607h69.975c4.201 0 7.607-3.406 7.607-7.607v-86.826c0-0.003 0-0.006 0-0.009 0-4.074-3.203-7.401-7.228-7.598l-0.018-0.001h-1.657c-1.466-0.106-2.932-0.191-4.399-0.191-14.046 0-25.818 0-38.016-0.127l-26.243-0.149z" />
<glyph unicode="&#xe998;" d="M395.541 233.262c-17.17 0-36.124 0-55.44 0.531-52.465 1.126-97.281 16.49-133.214 45.666-30.345 24.65-50.34 57.842-59.499 98.683-11.262 50.659-9.541 99.087 5.057 143.988 3.009 9.214 6.089 16.814 9.609 24.162l-0.514-1.191c1.302 2.451 3.839 4.092 6.759 4.092 4.213 0 7.629-3.415 7.629-7.629 0-1.087-0.227-2.122-0.637-3.058l0.019 0.049c-2.825-5.721-5.702-12.749-8.131-19.983l-0.369-1.266c-13.749-42.266-15.321-88.016-4.675-135.998 8.33-37.421 26.541-67.744 54.165-90.184 33.702-27.37 74.246-41.203 123.928-42.266 22.843-0.489 45.113-0.552 64.663-0.51v72.313c-16.681 0-33.383 0-50.085 0.234-0.288-0.002-0.63-0.002-0.971-0.002-13.77 0-27.215 1.393-40.201 4.047l1.286-0.22c-30.94 6.609-54.399 22.631-69.699 47.663-9.52 15.597-14.875 33.617-16.511 55.122-2.337 31.726 2.125 56.609 14.195 78.305 19.125 34.403 51.807 53.464 94.667 55.1 23.545 0.914 46.749 1.084 67.319 1.041v71.569h-58.649c-0.195 0.001-0.425 0.001-0.655 0.001-23.464 0-46.103-3.534-67.413-10.099l1.62 0.43c-36.124-10.986-64.748-29.197-84.999-54.123-1.407-1.728-3.535-2.823-5.918-2.823-4.206 0-7.615 3.409-7.615 7.615 0 1.822 0.64 3.495 1.708 4.806l-0.011-0.014c22.185 27.327 53.252 47.217 92.372 59.095 20.999 6.553 45.143 10.328 70.169 10.328 0.246 0 0.491 0 0.737-0.001h66.431c4.201 0 7.607-3.406 7.607-7.607v0-86.805c-0.012-4.201-3.408-7.605-7.605-7.629h-0.002c-21.993 0.106-48.067 0-74.374-0.999-37.782-1.445-65.364-17.34-81.939-47.259-10.625-18.997-14.45-41.182-12.346-69.826 1.402-19.018 6.099-34.807 14.322-48.3 13.047-21.25 33.192-34.998 59.903-40.693 10.712-2.219 23.023-3.489 35.631-3.489 0.428 0 0.855 0.001 1.282 0.004h-0.065q28.793-0.297 57.565-0.255c4.201 0 7.607-3.406 7.607-7.607v0-87.294c-0.012-4.189-3.399-7.583-7.584-7.607h-0.002z" />
<glyph unicode="&#xe999;" d="M591.803 721.876h104.357c15.62 0 28.283-12.663 28.283-28.283v-104.357c0-15.62-12.663-28.283-28.283-28.283h-104.357c-15.62 0-28.283 12.663-28.283 28.283v104.357c0 15.62 12.663 28.283 28.283 28.283z" />
<glyph unicode="&#xe99a;" d="M658.102 659.764l-8.819-5.376c-1.513-0.935-3.348-1.489-5.312-1.489s-3.799 0.554-5.357 1.514l0.044-0.025-8.84 5.376c-2.951 1.832-4.887 5.056-4.887 8.731 0 0.001 0 0.002 0 0.003v0 23.63c0 0 0 0 0 0 0 6.494 5.259 11.76 11.75 11.772h14.557c6.481-0.012 11.73-5.269 11.73-11.751 0-0.007 0-0.015 0-0.022v0.001-23.63c0-0.005 0-0.010 0-0.016 0-3.667-1.927-6.883-4.823-8.693l-0.043-0.025z" />
<glyph unicode="&#xe99b;" d="M615.305 647.949h57.374c3.849 0 6.97-3.121 6.97-6.97v0-64.28h-71.293v64.301c0.012 3.833 3.116 6.937 6.947 6.949h0.001z" />
<glyph unicode="&#xe99c;" d="M720.406 529.546h149.874c3.051 0 5.525-2.474 5.525-5.525v-149.874c0-3.051-2.474-5.525-5.525-5.525h-149.874c-3.051 0-5.525 2.474-5.525 5.525v149.874c0 3.051 2.474 5.525 5.525 5.525z" />
<glyph unicode="&#xe99d;" d="M809.485 467.454l-8.819-5.376c-1.512-0.939-3.347-1.496-5.312-1.496s-3.8 0.557-5.356 1.521l0.043-0.025-8.819 5.376c-2.951 1.822-4.887 5.039-4.887 8.707 0 0.002 0 0.004 0 0.005v0 23.651c0 0.006 0 0.014 0 0.021 0 6.49 5.261 11.751 11.751 11.751 0 0 0 0 0 0h14.535c0 0 0 0 0 0 6.49 0 11.751-5.261 11.751-11.751 0-0.007 0-0.015 0-0.022v0.001-23.651c0-0.002 0-0.003 0-0.005 0-3.669-1.937-6.885-4.844-8.682l-0.044-0.025z" />
<glyph unicode="&#xe99e;" d="M766.688 455.639h57.374c3.849 0 6.97-3.121 6.97-6.97v0-64.28h-71.293v64.28c0 0 0 0 0 0 0 3.842 3.108 6.958 6.947 6.97h0.001z" />
<glyph unicode="&#xe99f;" d="M569.045 349.093h149.874c3.051 0 5.525-2.474 5.525-5.525v-149.874c0-3.051-2.474-5.525-5.525-5.525h-149.874c-3.051 0-5.525 2.474-5.525 5.525v149.874c0 3.051 2.474 5.525 5.525 5.525z" />
<glyph unicode="&#xe9a0;" d="M658.102 286.981l-8.819-5.376c-1.511-0.944-3.346-1.504-5.312-1.504s-3.801 0.56-5.355 1.529l0.043-0.025-8.84 5.376c-2.951 1.827-4.887 5.047-4.887 8.719 0 0.005 0 0.010 0 0.015v-0.001 23.63c0 0 0 0 0 0 0 6.494 5.259 11.76 11.75 11.772h14.557c6.481-0.012 11.73-5.269 11.73-11.751 0-0.007 0-0.015 0-0.022v0.001-23.63c0-0.008 0-0.018 0-0.028 0-3.663-1.927-6.876-4.823-8.681l-0.043-0.025z" />
<glyph unicode="&#xe9a1;" d="M615.305 275.166h57.374c3.849 0 6.97-3.121 6.97-6.97v0-64.28h-71.293v64.301c0.012 3.833 3.116 6.937 6.947 6.949h0.001z" />
<glyph unicode="&#xe9a2;" d="M234.766 777.657h555.721c44.021 0 79.707-35.686 79.707-79.707v0-401.47h-715.072v401.47c0 43.999 35.65 79.671 79.64 79.707h0.003z" />
<glyph unicode="&#xe9a3;" d="M259.756 712.739h150.724v-295.519h-150.724c-0.006 0-0.014 0-0.021 0-29.081 0-52.657 23.575-52.657 52.657v0 190.206c0 29.081 23.575 52.657 52.657 52.657 0.007 0 0.015 0 0.022 0h-0.001z" />
<glyph unicode="&#xe9a4;" d="M410.48 712.739h203.402v-295.519h-203.402z" />
<glyph unicode="&#xe9a5;" d="M750.836 712.739h14.152c28.885-0.048 52.283-23.469 52.295-52.358v-190.759c0-0.006 0-0.014 0-0.021 0-28.899-23.403-52.332-52.291-52.38h-14.072z" />
<glyph unicode="&#xe9a6;" d="M613.882 712.739h136.954v-295.519h-136.954z" />
<glyph unicode="&#xe9a7;" d="M528.925 578.887l-10.434-6.375c-1.787-1.111-3.956-1.769-6.279-1.769s-4.492 0.658-6.331 1.799l0.051-0.030-10.455 6.375c-3.494 2.168-5.788 5.978-5.801 10.325v27.988c0 0 0 0 0 0 0 7.691 6.229 13.928 13.917 13.94h17.213c7.69-0.012 13.919-6.249 13.919-13.94v0-27.986c-0.013-4.349-2.308-8.159-5.749-10.297l-0.052-0.030z" />
<glyph unicode="&#xe9a8;" d="M476.97 564.905h70.421c3.849 0 6.97-3.121 6.97-6.97v-77.37h-84.34v77.391c0.012 3.833 3.116 6.937 6.947 6.949h0.001z" />
<glyph unicode="&#xe9a9;" d="M325.524 578.887l-10.434-6.375c-1.787-1.111-3.956-1.769-6.279-1.769s-4.492 0.658-6.331 1.799l0.051-0.030-10.455 6.375c-3.494 2.168-5.788 5.978-5.801 10.325v27.988c0 0 0 0 0 0 0 7.691 6.229 13.928 13.917 13.94h17.213c7.69-0.012 13.919-6.249 13.919-13.94v0-27.986c-0.013-4.349-2.308-8.159-5.749-10.297l-0.052-0.030z" />
<glyph unicode="&#xe9aa;" d="M273.568 564.905h70.421c3.849 0 6.97-3.121 6.97-6.97v-77.37h-84.34v77.391c0.012 3.833 3.116 6.937 6.947 6.949h0.001z" />
<glyph unicode="&#xe9ab;" d="M730.988 578.887l-10.434-6.375c-1.787-1.111-3.956-1.769-6.279-1.769s-4.492 0.658-6.331 1.799l0.051-0.030-10.455 6.375c-3.494 2.168-5.788 5.978-5.801 10.325v27.988c0 0 0 0 0 0 0 7.691 6.229 13.928 13.917 13.94h17.234c7.678-0.012 13.897-6.239 13.897-13.919 0-0.007 0-0.015 0-0.022v0.001-27.986c-0.004-4.351-2.302-8.165-5.749-10.297l-0.052-0.030z" />
<glyph unicode="&#xe9ac;" d="M679.012 564.905h70.421c0.025 0 0.055 0.001 0.085 0.001 3.842 0 6.958-3.109 6.97-6.948v-77.371h-84.425v77.37c0.012 3.833 3.116 6.937 6.947 6.949h0.001z" />
<glyph unicode="&#xe9ad;" d="M870.089 356.935l-19.125-17.722c-5.473-5.094-12.837-8.221-20.93-8.224h-639.913c-7.722 0.017-14.771 2.88-20.159 7.595l0.036-0.031-21.25 18.381v-15.704c0-34.797 28.208-63.005 63.005-63.005v0h595.416c34.726 0 62.878 28.151 62.878 62.878v0z" />
<glyph unicode="&#xe9ae;" d="M870.089 314.775l-19.125-17.722c-5.473-5.094-12.837-8.221-20.93-8.224h-639.913c-7.718 0.019-14.765 2.873-20.16 7.575l0.037-0.031-21.25 18.402v-15.64c0-34.797 28.208-63.005 63.005-63.005v0h203.593l-12.92-95.921-23.375-10.625 6.97-11.432h256.186l0.531 13.791-19.443 0.68-14.875 103.571h198.833c34.726 0 62.878 28.151 62.878 62.878v0z" />
<glyph unicode="&#xe9af;" d="M503.83 317.963l-0.637-0.34c-8.425-3.858-14.173-12.217-14.173-21.917 0-13.273 10.76-24.033 24.033-24.033 4.585 0 8.87 1.284 12.515 3.511l-0.105-0.060 0.637 0.319c7.713 4.128 12.87 12.129 12.87 21.335 0 4.061-1.004 7.887-2.776 11.245l0.063-0.131c-4.133 7.674-12.111 12.802-21.286 12.802-4.072 0-7.908-1.010-11.272-2.793l0.131 0.063z" />
<glyph unicode="&#xe9b0;" d="M514.646 296.501c-1.716 3.225-2.724 7.051-2.724 11.113 0 4.849 1.436 9.363 3.906 13.139l-0.056-0.092c-0.262 0.010-0.569 0.016-0.878 0.016-4.045 0-7.855-1.004-11.194-2.778l0.129 0.063-0.637-0.34c-8.425-3.858-14.173-12.217-14.173-21.917 0-13.273 10.76-24.033 24.033-24.033 4.585 0 8.87 1.284 12.515 3.511l-0.105-0.060 0.637 0.319c3.726 1.976 6.774 4.786 8.975 8.194l0.057 0.094c-8.876 0.309-16.499 5.381-20.422 12.727l-0.063 0.129z" />
<glyph unicode="&#xe9b1;" d="M634.6 109.015h-248.876c-10.806 0.363-19.428 9.21-19.428 20.070s8.622 19.708 19.395 20.069l0.033 0.001h9.052l12.049 75.309h-183.321c-43.423 0-78.624 35.201-78.624 78.624v0 206.547c0.24 4.796 4.187 8.593 9.020 8.593s8.78-3.797 9.020-8.572l0.001-0.021v-206.568c0.036-33.444 27.138-60.547 60.579-60.583h193.907c4.97-0.008 8.996-4.039 8.996-9.010 0-0.503-0.041-0.996-0.12-1.476l0.007 0.052-14.875-93.35c-0.711-4.326-4.423-7.586-8.897-7.586-0.002 0-0.005 0-0.007 0h-16.723c-0.006 0-0.014 0-0.021 0-1.033 0-1.87-0.837-1.87-1.87 0 0 0 0 0 0v0c-0.003-0.039-0.004-0.084-0.004-0.13 0-1.067 0.837-1.939 1.891-1.995h248.817c0.006 0 0.014 0 0.021 0 1.025 0 1.858 0.825 1.87 1.848v0.001c0 0.006 0 0.014 0 0.021 0 1.044-0.847 1.891-1.891 1.891 0 0 0 0 0 0h-13.472c-0.003 0-0.007 0-0.011 0-4.42 0-8.097 3.183-8.863 7.382l-0.008 0.055-16.702 93.647c-0.093 0.486-0.146 1.044-0.146 1.615 0 4.975 4.032 9.008 9.007 9.010h196.092c33.444 0.036 60.547 27.138 60.583 60.579v405.213c-0.036 33.444-27.138 60.547-60.579 60.583h-576.996c-33.444-0.036-60.547-27.138-60.583-60.579v-121.126c-0.24-4.796-4.187-8.593-9.020-8.593s-8.78 3.797-9.020 8.572l-0.001 0.021v121.123c0 43.423 35.201 78.624 78.624 78.624v0h576.992c43.423 0 78.624-35.201 78.624-78.624v0-405.316c0-43.423-35.201-78.624-78.624-78.624v0h-185.318l13.472-75.649h5.95c0.001 0 0.001 0 0.002 0 10.997 0 19.911-8.914 19.911-19.911 0-0.097-0.001-0.194-0.002-0.291v0.015c-0.226-10.84-9.044-19.547-19.907-19.592h-0.004z" />
<glyph unicode="&#xe9b2;" d="M701.781 402.261l90.795-62.123v221.867l-90.795-58.027v-101.717z" />
<glyph unicode="&#xe9b3;" d="M512 931.328c-266.935 0-483.328-216.393-483.328-483.328s216.393-483.328 483.328-483.328c266.935 0 483.328 216.393 483.328 483.328v0c0 266.935-216.393 483.328-483.328 483.328v0zM636.928 291.669c0-14.327-11.614-25.941-25.941-25.941v0h-341.333c-0.61-0.015-1.328-0.024-2.048-0.024-48.259 0-87.381 39.122-87.381 87.381 0 0.008 0 0.017 0 0.025v-0.001 255.317c0 0.003 0 0.006 0 0.009 0 13.71 10.923 24.869 24.541 25.249l0.035 0.001h109.227c0.613 0.053 1.327 0.083 2.048 0.083 13.95 0 25.259-11.309 25.259-25.259 0-0.029 0-0.058 0-0.088v0.005c0-14.327-11.614-25.941-25.941-25.941v0h-83.968v-161.109c16.050-21.722 34.511-40.399 55.3-56.168l0.679-0.494c32.172-17.51 69.894-33.703 109.175-46.433l4.831-1.354h184.32v230.059c0 0.002 0 0.004 0 0.007 0 19.605-15.893 35.499-35.499 35.499-0.24 0-0.48-0.002-0.718-0.007l0.036 0.001h-130.389c-14.030 0.381-25.259 11.845-25.259 25.932 0 0.003 0 0.006 0 0.010v-0.001c0 13.95 11.309 25.259 25.259 25.259v0h130.389c0.001 0 0.002 0 0.003 0 48.019 0 86.992-38.734 87.378-86.662v-0.037zM841.728 291.669c0-0.028 0-0.060 0-0.093 0-9.71-5.48-18.141-13.515-22.369l-0.138-0.066c-3.737-2.538-8.348-4.052-13.312-4.052s-9.575 1.514-13.396 4.105l0.084-0.054-139.947 98.304c-6.644 4.76-10.923 12.456-10.923 21.152 0 0.004 0 0.008 0 0.012v-0.001 129.024c0.17 9.012 4.68 16.935 11.521 21.788l0.085 0.057 141.995 90.112c3.704 2.252 8.181 3.585 12.971 3.585s9.267-1.333 13.083-3.648l-0.112 0.063c7.912-4.618 13.241-12.908 13.651-22.472l0.002-0.056z" />
<glyph unicode="&#xe9b4;" d="M267.605 316.928h136.533c-44.112 14.083-81.833 30.277-117.634 49.575l3.629-1.788c-21.468 16.262-39.928 34.939-55.455 55.92l-0.524 0.741v-68.267c0-0.031 0-0.067 0-0.103 0-19.021 14.678-34.615 33.326-36.070l0.125-0.008z" />
<glyph unicode="&#xe9b5;" d="M549.547 633.685h-130.389c-13.95 0-25.259-11.309-25.259-25.259v0c0-0.003 0-0.006 0-0.009 0-14.087 11.228-25.551 25.224-25.932l0.035-0.001h130.389c0.203 0.004 0.443 0.007 0.683 0.007 19.605 0 35.499-15.893 35.499-35.499 0-0.002 0-0.005 0-0.007v0-230.059h-318.123c-19.982 0-36.181 16.199-36.181 36.181v0 229.376h82.603c0.408-0.023 0.885-0.036 1.365-0.036 14.327 0 25.941 11.614 25.941 25.941 0 0.013 0 0.025 0 0.038v-0.002c0 0.003 0 0.006 0 0.009 0 13.95-11.309 25.259-25.259 25.259-0.24 0-0.479-0.003-0.718-0.010l0.035 0.001h-110.592c-0.203 0.006-0.443 0.009-0.683 0.009-13.95 0-25.259-11.309-25.259-25.259 0-0.003 0-0.007 0-0.010v0.001-255.317c0-48.259 39.122-87.381 87.381-87.381h348.16c14.327 0 25.941 11.614 25.941 25.941v0 255.317c-0.349 47.994-39.336 86.765-87.379 86.765-1.201 0-2.397-0.024-3.586-0.072l0.171 0.005z" />
<glyph unicode="&#xe9b6;" d="M830.123 630.955c-3.704 2.252-8.181 3.585-12.971 3.585s-9.267-1.333-13.083-3.648l0.112 0.063-141.995-91.477c-6.926-4.91-11.435-12.834-11.605-21.819v-129.050c0-0.003 0-0.007 0-0.011 0-8.695 4.278-16.392 10.845-21.099l0.078-0.053 141.995-96.939c3.737-2.538 8.348-4.052 13.312-4.052s9.575 1.514 13.396 4.105l-0.084-0.054c8.174 4.294 13.654 12.724 13.654 22.435 0 0.033 0 0.066 0 0.098v-0.005 315.392c-0.412 9.62-5.742 17.91-13.524 22.458l-0.129 0.070zM792.576 340.139l-90.795 62.123v101.717l90.795 57.344z" />
<glyph unicode="&#xe9b7;" d="M512 931.328c-266.935 0-483.328-216.393-483.328-483.328s216.393-483.328 483.328-483.328c266.935 0 483.328 216.393 483.328 483.328v0c0 266.935-216.393 483.328-483.328 483.328v0zM750.933 426.837l-381.611-189.781c-1.742-0.454-3.742-0.715-5.803-0.715s-4.061 0.261-5.968 0.751l0.166-0.036c-4.999 0.098-9.683 1.348-13.828 3.496l0.175-0.082c-7.365 4.613-12.21 12.655-12.288 21.834v377.526c-0.035 0.505-0.055 1.094-0.055 1.688 0 8.117 3.728 15.363 9.565 20.12l0.047 0.037c3.638 2.065 7.992 3.282 12.629 3.282s8.991-1.217 12.758-3.349l-0.129 0.067 103.765-51.883c8.575-4.353 14.348-13.105 14.348-23.207 0-4.232-1.013-8.227-2.811-11.757l0.068 0.147c-4.274-8.236-12.738-13.765-22.492-13.765-4.254 0-8.262 1.052-11.779 2.909l0.138-0.066-68.267 33.451v-211.627c23.75-8.963 51.61-16.121 80.453-20.229l2.15-0.251c1.066-0.011 2.325-0.018 3.585-0.018 17.517 0 34.742 1.247 51.592 3.658l-1.93-0.226 167.253 81.237-124.245 60.757c-8.773 4.476-14.677 13.445-14.677 23.793 0 3.996 0.88 7.786 2.458 11.187l-0.068-0.165c4.446 8.275 13.041 13.807 22.928 13.807 4.342 0 8.434-1.067 12.030-2.952l-0.143 0.068 169.984-83.968c8.531-3.978 14.337-12.482 14.337-22.341 0-0.066 0-0.131-0.001-0.197v0.010c-0.16-10.054-5.868-18.739-14.191-23.141l-0.145-0.070z" />
<glyph unicode="&#xe9b8;" d="M518.827 368.811c-14.921-2.184-32.146-3.431-49.663-3.431-1.261 0-2.52 0.006-3.777 0.019l0.192-0.002c-30.992 4.359-58.852 11.517-85.392 21.389l2.79-0.909v-84.651z" />
<glyph unicode="&#xe9b9;" d="M750.933 472.576l-169.301 83.968c-3.587 1.994-7.868 3.168-12.422 3.168-10 0-18.678-5.658-23.008-13.947l-0.068-0.143c-1.591-3.313-2.521-7.202-2.521-11.308 0-10.13 5.657-18.938 13.985-23.439l0.141-0.070 124.928-60.757-163.84-81.237-136.533-68.267v298.325l68.267-33.451c3.379-1.791 7.387-2.842 11.641-2.842 9.755 0 18.218 5.529 22.426 13.625l0.066 0.14c1.729 3.382 2.743 7.377 2.743 11.609 0 10.101-5.773 18.854-14.201 23.139l-0.147 0.068-103.765 51.883c-3.638 2.065-7.992 3.282-12.629 3.282s-8.991-1.217-12.758-3.349l0.129 0.067c-7.365-4.613-12.21-12.655-12.288-21.834v-380.256c0.078-9.19 4.923-17.232 12.18-21.782l0.108-0.063c3.97-2.065 8.655-3.316 13.622-3.413h0.031c1.742-0.454 3.742-0.715 5.803-0.715s4.061 0.261 5.968 0.751l-0.166-0.036 381.611 191.147c8.468 4.472 14.176 13.156 14.336 23.189v0.022c0 0.055 0.001 0.121 0.001 0.187 0 9.86-5.806 18.363-14.186 22.278l-0.151 0.063z" />
<glyph unicode="&#xe9ba;" d="M512 931.328c-266.935 0-483.328-216.393-483.328-483.328s216.393-483.328 483.328-483.328c266.935 0 483.328 216.393 483.328 483.328v0c0 266.935-216.393 483.328-483.328 483.328v0zM773.461 354.475c-40.619-75.485-119.065-125.93-209.293-125.93-106.598 0-196.75 70.41-226.488 167.259l-0.443 1.678c-30.3 16.897-53.114 44.145-63.895 76.859l-0.275 0.965c-19.878 1.97-37.666 9.63-52.064 21.305l0.182-0.143c-5.495 4.154-9.009 10.677-9.009 18.021 0 0.866 0.049 1.721 0.144 2.562l-0.009-0.103c1.139 8.052 6.041 14.759 12.838 18.368l0.133 0.064c-4.98 5.537-9.301 11.82-12.745 18.623l-0.226 0.491c-1.897 3.231-3.018 7.117-3.018 11.264s1.121 8.033 3.076 11.37l-0.058-0.106c3.847 6.576 10.876 10.924 18.919 10.924 0.069 0 0.137 0 0.206-0.001h49.142c24.215 40.357 67.737 66.947 117.469 66.947 66.977 0 122.691-48.227 134.308-111.85l0.127-0.836c40.597 8.512 75.572 28.59 102.33 56.587l0.070 0.074c9.338 9.288 17.668 19.571 24.824 30.682l0.434 0.721c4.42 8.099 12.826 13.53 22.511 13.653h0.017c9.564-0.522 17.702-6.151 21.777-14.188l0.068-0.148c10.5-19.737 18.569-42.635 22.989-66.807l0.222-1.459c0.429-1.482 0.675-3.184 0.675-4.944 0-10.18-8.252-18.432-18.432-18.432-9.998 0-18.136 7.96-18.424 17.888l-0.001 0.027c-1.717 15.004-4.837 28.64-9.286 41.661l0.411-1.384-18.432-21.163c-36.645-36.773-85.254-61.602-139.493-68.155l-1.137-0.112c-0.522-0.043-1.129-0.067-1.742-0.067-5.293 0-10.16 1.826-14.005 4.882l0.046-0.035c-4.061 3.854-6.803 9.064-7.498 14.902l-0.011 0.116c-4.025 51.719-46.983 92.16-99.386 92.16-0.1 0-0.199 0-0.299 0h0.016c-0.014 0-0.030 0-0.047 0-38.571 0-72.093-21.613-89.118-53.39l-0.265-0.541c-3.988-7.368-11.66-12.288-20.48-12.288h-29.355l4.779-2.048c4.485-3.659 7.327-9.185 7.327-15.376 0-1.568-0.182-3.093-0.527-4.556l0.027 0.134c-0.532-7.363-4.758-13.632-10.815-17.012l-0.107-0.055c2.562-0.341 5.525-0.535 8.533-0.535s5.971 0.195 8.876 0.572l-0.343-0.036c10.587-0.337 19.361-7.715 21.812-17.59l0.034-0.16c7.125-30.161 26.934-54.67 53.348-68l0.583-0.267c6.881-2.952 11.968-8.938 13.624-16.228l0.030-0.156c20.728-74.353 81.581-130.413 157.174-143.865l1.204-0.178c57.66 7.035 107.48 35.976 141.681 78.108l0.313 0.399h-15.019c-8.668 0.487-15.861 6.296-18.392 14.191l-0.040 0.145c-0.759 2.161-1.197 4.652-1.197 7.246 0 5.905 2.272 11.279 5.989 15.297l-0.014-0.015c22.606 22.702 39.625 50.983 48.811 82.598l0.341 1.37c2.106 7.622 8.978 13.127 17.137 13.127 1.926 0 3.78-0.307 5.517-0.874l-0.126 0.035c7.57-2.407 12.959-9.375 12.959-17.601 0-1.754-0.245-3.45-0.702-5.057l0.032 0.13c-8.36-28.97-21.219-54.217-37.968-76.357l0.421 0.581c20.256 0.754 39.399 4.444 57.365 10.657l-1.386-0.417c2.478 0.921 5.34 1.454 8.327 1.454 7.625 0 14.439-3.472 18.946-8.922l0.033-0.041c3.882-4.508 6.246-10.42 6.246-16.884 0-4.302-1.047-8.36-2.901-11.932l0.068 0.144z" />
<glyph unicode="&#xe9bb;" d="M727.040 345.6c-8.712-1.145-18.786-1.799-29.013-1.799s-20.302 0.654-30.184 1.922l1.171-0.123c-34.246-41.581-83.242-69.936-138.879-77.030l-1.067-0.111c11.702-2.474 25.147-3.891 38.923-3.891 65.145 0 122.89 31.684 158.665 80.482l0.385 0.551z" />
<glyph unicode="&#xe9bc;" d="M742.741 390.656c-16.58-5.796-35.723-9.486-55.619-10.229l-0.359-0.011c16.328 21.559 29.187 46.806 37.139 74.141l0.407 1.635c0.426 1.477 0.671 3.174 0.671 4.927 0 8.226-5.389 15.193-12.828 17.565l-0.131 0.036c-1.611 0.532-3.465 0.839-5.391 0.839-8.158 0-15.031-5.504-17.107-13.002l-0.029-0.125c-9.527-32.985-26.546-61.267-49.159-83.975l0.007 0.007c-3.704-4.002-5.976-9.377-5.976-15.282 0-2.594 0.438-5.085 1.245-7.404l-0.048 0.158c2.571-8.040 9.764-13.849 18.378-14.334l0.054-0.002h15.019c8.712-1.145 18.786-1.799 29.013-1.799s20.302 0.654 30.184 1.922l-1.171-0.123c-36.756-50.616-95.742-83.15-162.326-83.15-93.207 0-171.524 63.752-193.723 150.030l-0.303 1.387c-1.685 7.446-6.772 13.432-13.502 16.326l-0.151 0.058c-26.996 13.597-46.805 38.105-53.792 67.576l-0.138 0.691c-2.484 10.034-11.258 17.412-21.809 17.748l-0.036 0.001c-2.562-0.341-5.525-0.535-8.533-0.535s-5.971 0.195-8.876 0.572l0.343-0.036c4.708 3.298 7.983 8.367 8.86 14.22l0.014 0.116c0.318 1.328 0.5 2.854 0.5 4.421 0 6.19-2.841 11.717-7.291 15.348l-0.036 0.028h24.576c8.82 0 16.492 4.92 20.419 12.166l0.061 0.122c16.784 33.157 50.442 55.578 89.375 55.978h0.054c0.044 0 0.097 0 0.15 0 53.125 0 96.542-41.563 99.508-93.946l0.012-0.263c0.706-5.954 3.448-11.164 7.499-15.009l0.011-0.010c3.799-3.021 8.666-4.846 13.959-4.846 0.613 0 1.22 0.024 1.821 0.073l-0.079-0.005c55.375 6.665 103.984 31.494 140.623 68.26l0.007 0.007 18.432 23.211c5.13-12.604 9.182-27.319 11.472-42.61l0.133-1.080c0.288-9.955 8.427-17.915 18.425-17.915 10.18 0 18.432 8.252 18.432 18.432 0 1.76-0.247 3.462-0.707 5.074l0.032-0.13c-4.642 25.632-12.711 48.53-23.836 69.563l0.625-1.296c-3.533 10.388-13.195 17.732-24.574 17.749h-0.002c-0.139 0.003-0.303 0.004-0.468 0.004-9.273 0-17.41-4.866-21.997-12.184l-0.063-0.108c-7.59-11.832-15.921-22.115-25.251-31.395l-0.008-0.008c-26.828-28.071-61.803-48.149-101.122-56.436l-1.278-0.225c-11.744 64.458-67.457 112.686-134.435 112.686-49.733 0-93.255-26.59-117.125-66.329l-0.344-0.618h-46.421c-0.058 0.001-0.127 0.001-0.196 0.001-8.044 0-15.072-4.347-18.863-10.82l-0.056-0.103c-1.897-3.231-3.018-7.117-3.018-11.264s1.121-8.033 3.076-11.37l-0.058 0.106c3.669-7.294 7.99-13.578 13.040-19.193l-0.069 0.079c-6.93-3.673-11.831-10.38-12.955-18.301l-0.015-0.131c-0.086-0.738-0.135-1.593-0.135-2.459 0-7.344 3.514-13.867 8.953-17.98l0.057-0.041c13.391-11.57 30.144-19.601 48.605-22.458l0.547-0.070c12.025-34.275 36.318-61.674 67.488-77.466l0.779-0.358c30.181-98.528 120.334-168.938 226.931-168.938 90.228 0 168.673 50.445 208.672 124.67l0.62 1.259c1.786 3.428 2.833 7.486 2.833 11.788 0 6.464-2.364 12.376-6.275 16.918l0.029-0.034c-4.512 6.272-11.79 10.309-20.011 10.309-4.165 0-8.087-1.036-11.525-2.864l0.133 0.064z" />
<glyph unicode="&#xe9bd;" d="M512 931.328c-266.935 0-483.328-216.393-483.328-483.328s216.393-483.328 483.328-483.328c266.935 0 483.328 216.393 483.328 483.328v0c0 266.935-216.393 483.328-483.328 483.328v0zM610.304 450.048c-1.148-53.404-44.711-96.256-98.283-96.256-54.292 0-98.304 44.012-98.304 98.304 0 54.284 44 98.292 98.281 98.304h0.001c0.006 0 0.014 0 0.021 0 54.292 0 98.304-44.012 98.304-98.304 0-0.72-0.008-1.438-0.023-2.155l0.002 0.107zM603.477 565.419c0 13.196 10.697 23.893 23.893 23.893s23.893-10.697 23.893-23.893c0-13.196-10.697-23.893-23.893-23.893v0c-13.196 0-23.893 10.697-23.893 23.893v0zM733.867 321.707c0-0.001 0-0.002 0-0.002 0-51.653-41.873-93.525-93.525-93.525-0.24 0-0.48 0.001-0.719 0.003h-255.28c-0.203-0.002-0.443-0.002-0.683-0.002-51.653 0-93.525 41.873-93.525 93.525 0 0.001 0 0.002 0 0.003v0 256c0 52.030 42.178 94.208 94.208 94.208h25.259c7.854-1.637 13.67-8.502 13.67-16.725s-5.816-15.089-13.56-16.706l-0.111-0.019h-25.259c-33.555 0-60.757-27.202-60.757-60.757v0-256c0.465-10.91 3.705-20.975 9.027-29.621l-0.152 0.266h260.779c0.203-0.002 0.443-0.003 0.683-0.003 42.227 0 76.459 34.232 76.459 76.459 0 0.001 0 0.002 0 0.003v0 255.317s0 0 0 5.461c-8.581 5.25-18.893 8.502-29.935 8.872l-0.102 0.003h-143.36c-1.021-0.217-2.194-0.341-3.396-0.341-9.426 0-17.067 7.641-17.067 17.067s7.641 17.067 17.067 17.067c1.202 0 2.375-0.124 3.507-0.361l-0.111 0.019h142.677c52.030 0 94.208-42.178 94.208-94.208v0z" />
<glyph unicode="&#xe9be;" d="M512 514.901c-1.019 0.054-2.213 0.085-3.413 0.085-37.703 0-68.267-30.564-68.267-68.267s30.564-68.267 68.267-68.267c37.673 0 68.218 30.515 68.267 68.177v0.005c0 0.025 0 0.055 0 0.085 0 36.502-28.648 66.313-64.687 68.174l-0.166 0.007z" />
<glyph unicode="&#xe9bf;" d="M384.341 261.632h255.317c0.001 0 0.002 0 0.004 0 33.315 0 60.368 26.814 60.753 60.038v256.036c-0.495 22.109-12.595 41.285-30.43 51.726l-0.29 0.157s0 0 0-5.461v-255.317c0.002-0.203 0.003-0.443 0.003-0.683 0-42.227-34.232-76.459-76.459-76.459-0.001 0-0.002 0-0.003 0h-260.778c10.557-18.043 29.819-29.983 51.875-30.037h0.008z" />
<glyph unicode="&#xe9c0;" d="M639.659 671.915h-142.677c-1.021 0.217-2.194 0.341-3.396 0.341-9.426 0-17.067-7.641-17.067-17.067s7.641-17.067 17.067-17.067c1.202 0 2.375 0.124 3.507 0.361l-0.111-0.019h142.677c11.145-0.373 21.457-3.624 30.31-9.030l-0.273 0.155c18.125-10.598 30.225-29.774 30.719-51.813l0.001-0.069v-256c-0.386-33.26-27.438-60.075-60.753-60.075-0.001 0-0.003 0-0.004 0h-255.317c-22.189 0.203-41.483 12.405-51.727 30.423l-0.155 0.297c-5.17 8.38-8.41 18.444-8.87 29.228l-0.004 0.126v256c0 33.555 27.202 60.757 60.757 60.757h25.259c7.854 1.637 13.67 8.502 13.67 16.725s-5.816 15.089-13.56 16.706l-0.111 0.019h-25.259c-52.030 0-94.208-42.178-94.208-94.208v0-256c0-0.001 0-0.002 0-0.002 0-51.653 41.873-93.525 93.525-93.525 0.24 0 0.48 0.001 0.719 0.003h255.28c0.203-0.002 0.443-0.002 0.683-0.002 51.653 0 93.525 41.873 93.525 93.525 0 0.001 0 0.002 0 0.003v0 256c0 52.030-42.178 94.208-94.208 94.208v0z" />
<glyph unicode="&#xe9c1;" d="M512 550.4c-54.283-0.012-98.283-44.020-98.283-98.304 0-54.292 44.012-98.304 98.304-98.304 53.572 0 97.135 42.852 98.281 96.149l0.002 0.107c0.006 0.407 0.009 0.887 0.009 1.368 0 54.432-43.935 98.603-98.277 98.984h-0.036zM512 387.243c-1.019-0.054-2.213-0.085-3.413-0.085-37.703 0-68.267 30.564-68.267 68.267s30.564 68.267 68.267 68.267c37.673 0 68.218-30.515 68.267-68.177v-0.005c0.021-0.635 0.033-1.382 0.033-2.132 0-36.514-28.667-66.332-64.722-68.176l-0.165-0.007z" />
<glyph unicode="&#xe9c2;" d="M651.264 565.419c0-13.196-10.697-23.893-23.893-23.893s-23.893 10.697-23.893 23.893c0 13.196 10.697 23.893 23.893 23.893s23.893-10.697 23.893-23.893z" />
<glyph unicode="&#xe9c3;" d="M512 931.328c-266.935 0-483.328-216.393-483.328-483.328s216.393-483.328 483.328-483.328c266.935 0 483.328 216.393 483.328 483.328v0c0 266.935-216.393 483.328-483.328 483.328v0zM626.688 595.456c0-13.95-11.309-25.259-25.259-25.259v0h-27.307c-22.999 0-41.643-18.644-41.643-41.643v0-12.288h34.816c0.003 0 0.006 0 0.009 0 13.71 0 24.869-10.923 25.249-24.541l0.001-0.035v-98.304c-0.37-13.799-11.46-24.889-25.224-25.258l-0.035-0.001h-34.816v-180.224c0-13.95-11.309-25.259-25.259-25.259h-97.621c-0.003 0-0.006 0-0.009 0-13.573 0-24.576 11.003-24.576 24.576 0 0.24 0.003 0.479 0.010 0.718l-0.001-0.035v81.237c0 9.803 7.947 17.749 17.749 17.749v0c9.803 0 17.749-7.947 17.749-17.749v0-68.267h57.344v180.224c0.306 2.506 2.272 4.472 4.752 4.776l0.026 0.003h15.701c1.922 9.861 10.27 17.276 20.432 17.748l0.048 0.002h20.48v78.507h-20.48c-10.114 0.717-18.337 8.012-20.452 17.6l-0.028 0.149h-14.336c-0.313-0.064-0.673-0.1-1.042-0.1-2.316 0-4.295 1.442-5.089 3.476l-0.013 0.037v25.259c0.319 26.181 17.529 48.259 41.222 55.862l0.42 0.117c13.938 12.973 32.64 20.99 53.213 21.162h0.035v77.141c-84.619-0.773-152.917-69.549-152.917-154.277 0-0.002 0-0.004 0-0.006v0-25.259c-0.741-11.84-10.525-21.163-22.487-21.163-0.015 0-0.029 0-0.044 0h-37.545v-78.507h37.547c12.442 0 22.528-10.086 22.528-22.528v0-21.845c0-0.004 0-0.008 0-0.013 0-9.94-7.868-18.042-17.715-18.418l-0.034-0.001c-0.004 0-0.009 0-0.013 0-9.803 0-17.749 7.947-17.749 17.749 0 0.24 0.005 0.479 0.014 0.717l-0.001-0.034v8.875h-35.499c-13.653 0.381-24.576 11.54-24.576 25.249 0 0.003 0 0.006 0 0.010v0 98.304c0 13.573 11.003 24.576 24.576 24.576v0h35.499v12.288c0 104.813 84.968 189.781 189.781 189.781v0h27.307c0.203 0.006 0.443 0.009 0.683 0.009 13.573 0 24.576-11.003 24.576-24.576 0-0.003 0-0.007 0-0.010v0.001z" />
<glyph unicode="&#xe9c4;" d="M496.299 381.099s0 3.413 0 4.779h-12.288c-0.216 0.030-0.466 0.048-0.72 0.048-2.792 0-5.095-2.096-5.422-4.8l-0.003-0.026v-182.955h17.067z" />
<glyph unicode="&#xe9c5;" d="M539.307 480.768h17.067v-76.459h-17.067v76.459z" />
<glyph unicode="&#xe9c6;" d="M496.299 528.555c0.143 22.094 9.551 41.963 24.531 55.937l0.045 0.042c-24.686-7.246-42.496-29.465-43.007-55.92l-0.001-0.058v-25.259c0.306-2.506 2.272-4.472 4.752-4.776l0.026-0.003h15.701s0 0 0 4.779z" />
<glyph unicode="&#xe9c7;" d="M591.189 605.696v77.141h-17.067v-77.141h17.067z" />
<glyph unicode="&#xe9c8;" d="M601.429 718.336h-27.307c-104.813 0-189.781-84.968-189.781-189.781v0-12.288h-35.499c-13.573 0-24.576-11.003-24.576-24.576v0-98.304c0-0.003 0-0.006 0-0.009 0-13.71 10.923-24.869 24.541-25.249l0.035-0.001h35.499v-8.875c-0.008-0.204-0.013-0.443-0.013-0.683 0-9.803 7.947-17.749 17.749-17.749 0.005 0 0.009 0 0.014 0h-0.001c9.882 0.378 17.749 8.48 17.749 18.419 0 0.004 0 0.009 0 0.013v-0.001 21.845c0 12.442-10.086 22.528-22.528 22.528v0h-37.547v78.507h37.547c12.442 0 22.528 10.086 22.528 22.528v0 23.893c0 85.208 69.075 154.283 154.283 154.283v0h17.067v-77.141h-17.067c-20.608-0.172-39.31-8.19-53.296-21.207l0.048 0.044c-15.025-14.016-24.434-33.885-24.576-55.953v-25.285s0 0 0-4.779c2.761-9.541 11.419-16.4 21.679-16.4 0.299 0 0.596 0.006 0.892 0.017l-0.043-0.001h37.547v-78.507h-37.547c-10.21-0.474-18.558-7.889-20.458-17.611l-0.022-0.138s0 0 0-4.779v-182.955h-78.507v68.267c0 9.803-7.947 17.749-17.749 17.749v0c-9.803 0-17.749-7.947-17.749-17.749v0-81.237c-0.006-0.203-0.009-0.443-0.009-0.683 0-13.573 11.003-24.576 24.576-24.576 0.003 0 0.007 0 0.010 0h98.303c13.95 0 25.259 11.309 25.259 25.259v0 182.955h34.816c13.799 0.37 24.889 11.46 25.258 25.224l0.001 0.035v98.304c-0.381 13.653-11.54 24.576-25.249 24.576-0.003 0-0.006 0-0.010 0h-34.816v12.288c0 22.999 18.644 41.643 41.643 41.643v0h27.307c13.95 0 25.259 11.309 25.259 25.259v98.304c0 0.003 0 0.006 0 0.009 0 13.573-11.003 24.576-24.576 24.576-0.24 0-0.479-0.003-0.718-0.010l0.035 0.001z" />
<glyph unicode="&#xe9c9;" d="M840.619 304.886h-657.663c-14.024 0-25.499 11.475-25.499 25.499v371.649c0 43.773 35.699 79.472 79.472 79.472h549.717c43.773 0 79.472-35.699 79.472-79.472v-371.649c0-14.024-11.475-25.499-25.499-25.499z" />
<glyph unicode="&#xe9ca;" d="M868.668 361.197l-18.912-17.637c-5.737-5.312-13.175-8.075-20.824-8.075h-635.564c-7.437 0-14.449 2.762-19.974 7.437l-21.037 18.274v-15.512c0-34.636 28.049-62.473 62.473-62.473h591.366c34.424 0 62.473 28.049 62.473 62.473v15.512z" />
<glyph unicode="&#xe9cb;" d="M868.668 319.336l-18.912-17.637c-5.737-5.312-13.175-8.075-20.824-8.075h-635.564c-7.437 0-14.449 2.762-19.974 7.437l-21.037 18.274v-15.512c0-34.636 28.049-62.473 62.473-62.473h202.293l-12.75-95.197-23.162-10.625 7.012-11.262h254.353l0.425 13.6-19.337 0.637-14.874 102.846h197.405c34.424 0 62.473 28.049 62.473 62.473v15.512z" />
<glyph unicode="&#xe9cc;" d="M504.882 322.311l-0.637-0.425c-11.687-6.162-16.149-20.612-9.987-32.299s20.612-16.149 32.299-9.987l0.637 0.425c11.687 6.162 16.149 20.612 9.987 32.299v0c-6.162 11.687-20.612 16.149-32.299 9.987z" />
<glyph unicode="&#xe9cd;" d="M515.719 301.062c-4.037 7.862-3.4 16.999 1.062 24.012-4.037 0.212-8.075-0.637-11.9-2.762l-0.637-0.425c-11.687-6.162-16.149-20.612-9.987-32.299s20.612-16.149 32.299-9.987l0.637 0.425c3.825 1.912 6.8 4.887 8.925 8.287-8.287 0.212-16.362 4.887-20.399 12.75v0z" />
<glyph unicode="&#xe9ce;" d="M634.927 114.918h-247.341c-10.837 0-19.762 8.925-19.762 19.762 0 11.262 8.925 20.187 19.762 20.187h8.925l11.9 74.797h-182.106c-43.136 0-77.985 35.061-77.985 77.985v233.741c0 4.887 4.037 8.925 8.925 8.925s8.925-4.037 8.925-8.925v-233.741c0-33.149 26.987-60.135 60.135-60.135h192.518c2.55 0 5.1-1.062 6.8-3.187 1.7-1.912 2.55-4.675 2.125-7.225l-14.874-92.647c-0.637-4.25-4.462-7.437-8.925-7.437h-16.574c-1.062 0-1.912-0.85-1.912-1.912 0-1.275 0.85-2.125 1.912-2.125h247.128c1.062 0 1.912 0.85 1.912 1.912 0 0.637-0.212 1.062-0.637 1.275-0.212 0.212-0.637 0.637-1.275 0.637h-13.387c-4.25 0-8.075 3.187-8.712 7.437l-16.574 93.072c-0.425 2.55 0.212 5.312 1.912 7.225 1.7 2.125 4.25 3.187 6.8 3.187h194.643c33.149 0 60.135 26.987 60.135 60.135v402.248c0 33.149-26.987 60.135-60.135 60.135h-572.667c-33.149 0-60.135-26.987-60.135-60.135v-120.271c0-4.887-4.037-8.925-8.925-8.925s-8.925 4.037-8.925 8.925v120.271c0 43.136 35.061 77.985 77.985 77.985h573.092c43.136 0 77.985-35.061 77.985-77.985v-402.46c0-43.136-35.061-77.985-77.985-77.985h-184.018l13.387-75.222h5.95c5.312 0 10.412-2.125 14.024-5.95 3.825-3.825 5.737-8.925 5.737-14.237-0.212-10.625-9.137-19.337-19.762-19.337z" />
<glyph unicode="&#xe9cf;" d="M546.955 553.29c0-93.063-75.443-168.506-168.506-168.506s-168.506 75.443-168.506 168.506c0 93.063 75.443 168.506 168.506 168.506s168.506-75.443 168.506-168.506z" />
<glyph unicode="&#xe9d0;" d="M522.518 553.29c0-79.568-64.502-144.070-144.070-144.070s-144.070 64.502-144.070 144.070c0 79.568 64.502 144.070 144.070 144.070s144.070-64.502 144.070-144.070z" />
<glyph unicode="&#xe9d1;" d="M378.449 400.295c-84.359 0-152.994 68.635-152.994 152.994 0 17.637 2.975 34.849 8.925 51.423 1.7 4.675 6.8 7.225 11.475 5.312 4.675-1.7 7.012-6.8 5.312-11.475-5.1-14.449-7.862-29.749-7.862-45.473 0-74.372 60.56-135.145 135.145-135.145s135.145 60.56 135.145 135.145-60.56 135.145-135.145 135.145c-39.524 0-76.922-17.212-102.846-47.386-3.187-3.825-8.925-4.25-12.537-1.062-3.825 3.187-4.25 8.925-1.062 12.537 29.111 34.211 71.61 53.761 116.446 53.761 84.359 0 152.994-68.635 152.994-152.994s-68.847-152.782-152.994-152.782z" />
<glyph unicode="&#xe9d2;" d="M371.224 525.241c-8.712 0-15.937 7.225-15.937 15.937v61.835c0 8.712 7.225 15.937 15.937 15.937s15.937-7.225 15.937-15.937v-61.835c0-8.925-7.012-15.937-15.937-15.937zM371.224 606.2c-1.7 0-3.187-1.487-3.187-3.187v-61.835c0-3.4 6.375-3.4 6.375 0v61.835c0 1.7-1.487 3.187-3.187 3.187z" />
<glyph unicode="&#xe9d3;" d="M330.213 508.454c-2.337 0-4.462 1.275-5.737 3.4-1.7 3.187-0.425 7.012 2.762 8.712l41.011 21.462c3.187 1.7 7.012 0.425 8.712-2.762s0.425-7.012-2.762-8.712l-41.011-21.462c-1.062-0.425-2.125-0.637-2.975-0.637z" />
<glyph unicode="&#xe9d4;" d="M358.474 528.428v15.937c0 0.85 0.637 1.487 1.487 1.487h96.259c0.85 0 1.487-0.637 1.487-1.487v-15.937c0-0.85-0.637-1.487-1.487-1.487h-96.259c-0.637 0-1.487 0.637-1.487 1.487z" />
<glyph unicode="&#xe9d5;" d="M576.916 595.151h104.121v-104.121h-104.121v104.121z" />
<glyph unicode="&#xe9d6;" d="M645.764 496.342h-76.497v108.159h105.184v-78.41z" />
<glyph unicode="&#xe9d7;" d="M594.365 614.378l11.195 4.621 10.052-24.354-11.195-4.621-10.052 24.354z" />
<glyph unicode="&#xe9d8;" d="M682.1 460.431h104.121v-104.121h-104.121v104.121z" />
<glyph unicode="&#xe9d9;" d="M750.947 361.622h-76.497v108.159h105.184v-78.41z" />
<glyph unicode="&#xe9da;" d="M699.538 479.664l11.195 4.621 10.052-24.354-11.195-4.621-10.052 24.354z" />
<glyph unicode="&#xe9db;" d="M771.772 710.322c-24.437 4.887-48.023-11.050-52.698-35.486l-5.95-30.599-8.5-3.4c-4.25-1.7-7.225-5.312-8.075-9.775-1.487-7.225 3.187-14.237 10.625-15.724l88.397-17.424c7.225-1.487 14.449 3.4 15.724 10.625 0.85 4.462-0.425 8.925-3.612 12.112l-6.162 6.162 5.95 30.386c4.462 24.649-11.475 48.236-35.699 53.123z" />
<glyph unicode="&#xe9dc;" d="M764.547 598.126c-1.487-8.287-9.562-13.6-17.637-12.112s-13.6 9.562-12.112 17.637z" />
<glyph unicode="&#xe9dd;" d="M692.087 599.613c-0.637 0-1.275 0.212-1.7 0.637-1.487 1.275-14.662 12.537-12.325 29.961 1.7 12.962 10.837 20.399 13.6 22.312 1.275 0.85 2.975 0.637 4.037-0.637 0.85-1.275 0.637-2.975-0.637-4.037-2.337-1.7-9.775-7.862-11.262-18.487-1.912-14.662 9.775-24.437 10.2-24.862 1.275-1.062 1.487-2.762 0.425-4.037-0.637-0.637-1.487-0.85-2.337-0.85z" />
<glyph unicode="&#xe9de;" d="M667.013 610.45c-1.062 0-2.125 0.637-2.55 1.487-2.975 5.95-4.037 11.9-3.187 18.274 0.637 5.737 2.975 11.050 6.587 15.724 1.062 1.275 2.762 1.487 4.037 0.425s1.487-2.762 0.425-4.037c-2.975-3.825-4.887-8.287-5.525-12.962-0.637-5.1 0.212-9.987 2.55-14.874 0.637-1.487 0.212-3.187-1.275-3.825-0.212-0.212-0.637-0.212-1.062-0.212z" />
<glyph unicode="&#xe9df;" d="M819.37 659.748c-0.425 0-1.062 0.212-1.487 0.425-1.275 0.85-1.7 2.55-0.85 3.825 1.487 2.337 6.162 11.050 3.612 21.249-3.612 14.449-18.274 19.124-18.699 19.124-1.487 0.425-2.337 2.125-1.912 3.612s2.125 2.337 3.612 1.912c0.637-0.212 18.062-5.95 22.524-23.162 3.187-12.537-2.337-22.949-4.25-25.712-0.85-0.85-1.7-1.275-2.55-1.275z" />
<glyph unicode="&#xe9e0;" d="M838.494 673.985c-0.212 0-0.425 0-0.85 0.212-1.487 0.425-2.337 1.912-1.912 3.612 1.275 4.675 1.487 9.562 0.212 14.024-1.275 4.887-4.037 9.35-8.075 12.962-1.275 1.062-1.275 2.762-0.212 4.037s2.762 1.275 4.037 0.212c4.887-4.25 8.075-9.562 9.775-15.724 1.487-5.525 1.275-11.262-0.425-16.999-0.212-1.487-1.275-2.337-2.55-2.337z" />
<glyph unicode="&#xe9e1;" d="M733.736 688.222h-401.185v-576.491h462.596v119.633l-61.41 42.498z" />
<glyph unicode="&#xe9e2;" d="M754.135 572.839l41.011-30.386v-133.233l-41.011 29.111z" />
<glyph unicode="&#xe9e3;" d="M754.135 416.232l41.011-30.386v-133.233l-41.011 29.324z" />
<glyph unicode="&#xe9e4;" d="M208.030 780.657h392.048v-555.88h-392.048v555.88z" />
<glyph unicode="&#xe9e5;" d="M599.866 219.252h-391.836c-5.312 0-9.562 4.25-9.562 9.562v329.363c0 5.312 4.25 9.562 9.562 9.562s9.562-4.25 9.562-9.562v-319.801h372.924v536.755h-372.924v-123.245c0-5.312-4.25-9.562-9.562-9.562s-9.562 4.25-9.562 9.562v132.808c0 5.312 4.25 9.562 9.562 9.562h392.048c5.312 0 9.562-4.25 9.562-9.562v-555.88c-0.212-5.312-4.462-9.562-9.775-9.562z" />
<glyph unicode="&#xe9e6;" d="M535.268 444.494h-262.64c-5.312 0-9.562 4.25-9.562 9.562s4.25 9.562 9.562 9.562h262.64c5.312 0 9.562-4.25 9.562-9.562s-4.25-9.562-9.562-9.562z" />
<glyph unicode="&#xe9e7;" d="M535.268 411.983h-262.64c-5.312 0-9.562 4.25-9.562 9.562s4.25 9.562 9.562 9.562h262.64c5.312 0 9.562-4.25 9.562-9.562s-4.25-9.562-9.562-9.562z" />
<glyph unicode="&#xe9e8;" d="M535.268 379.471h-262.64c-5.312 0-9.562 4.25-9.562 9.562s4.25 9.562 9.562 9.562h262.64c5.312 0 9.562-4.25 9.562-9.562s-4.25-9.562-9.562-9.562z" />
<glyph unicode="&#xe9e9;" d="M535.268 347.172h-262.64c-5.312 0-9.562 4.25-9.562 9.562s4.25 9.562 9.562 9.562h262.64c5.312 0 9.562-4.25 9.562-9.562s-4.25-9.562-9.562-9.562z" />
<glyph unicode="&#xe9ea;" d="M535.268 314.661h-262.64c-5.312 0-9.562 4.25-9.562 9.562s4.25 9.562 9.562 9.562h262.64c5.312 0 9.562-4.25 9.562-9.562s-4.25-9.562-9.562-9.562z" />
<glyph unicode="&#xe9eb;" d="M421.585 644.449l-11.050-6.8c-4.037-2.55-9.137-2.55-13.387 0l-11.050 6.8c-3.825 2.337-6.162 6.587-6.162 11.050v29.749c0 8.075 6.587 14.874 14.662 14.874h18.274c8.075 0 14.662-6.587 14.662-14.874v-29.749c0.212-4.675-2.125-8.712-5.95-11.050z" />
<glyph unicode="&#xe9ec;" d="M441.771 629.575h-75.435c-3.825 0-7.012-3.187-7.012-7.012v-82.447h89.459v82.447c-0.212 3.825-3.187 7.012-7.012 7.012z" />
<glyph unicode="&#xe9ed;" d="M688.262 119.381h-466.633v658.088h319.588c81.172 0 147.045-65.873 147.045-147.045v-511.044z" />
<glyph unicode="&#xe9ee;" d="M635.139 171.016h-358.049c-2.125 0-3.825 1.7-3.825 3.825v372.499c0 2.125 1.7 3.825 3.825 3.825h357.837c2.125 0 3.825-1.7 3.825-3.825v-372.286c0.212-2.125-1.487-4.037-3.612-4.037z" />
<glyph unicode="&#xe9ef;" d="M659.363 459.581h-408.623c-3.825 0-7.012 2.762-7.225 6.587-0.212 4.037 2.975 7.225 6.8 7.225h408.623c3.825 0 7.012-2.762 7.225-6.587 0.425-3.825-2.762-7.225-6.8-7.225z" />
<glyph unicode="&#xe9f0;" d="M657.451 398.383h-408.623c-3.825 0-7.012 2.762-7.225 6.587-0.212 4.037 2.975 7.225 6.8 7.225h408.623c3.825 0 7.012-2.762 7.225-6.587s-2.975-7.225-6.8-7.225z" />
<glyph unicode="&#xe9f1;" d="M657.451 334.423h-408.623c-3.825 0-7.012 2.762-7.225 6.587-0.212 4.037 2.975 7.225 6.8 7.225h408.623c3.825 0 7.012-2.762 7.225-6.587s-2.975-7.225-6.8-7.225z" />
<glyph unicode="&#xe9f2;" d="M659.363 278.325h-408.623c-3.825 0-7.012 2.762-7.225 6.587-0.212 4.037 2.975 7.225 6.8 7.225h408.623c3.825 0 7.012-2.762 7.225-6.587 0.425-3.825-2.762-7.225-6.8-7.225z" />
<glyph unicode="&#xe9f3;" d="M659.363 223.927h-408.623c-3.825 0-7.012 2.762-7.225 6.587-0.212 4.037 2.975 7.225 6.8 7.225h408.623c3.825 0 7.012-2.762 7.225-6.587 0.425-4.037-2.762-7.225-6.8-7.225z" />
<glyph unicode="&#xe9f4;" d="M552.267 137.23c-3.825 0.212-6.587 3.612-6.587 7.225v408.198c0 3.825 2.762 7.012 6.587 7.225 4.037 0.212 7.225-2.975 7.225-6.8v-409.048c0-3.825-3.4-7.012-7.225-6.8z" />
<glyph unicode="&#xe9f5;" d="M470.245 137.23c-3.825 0.212-6.587 3.612-6.587 7.225v408.198c0 3.825 2.762 7.012 6.587 7.225 4.037 0.212 7.225-2.975 7.225-6.8v-409.048c0.212-3.825-3.187-7.012-7.225-6.8z" />
<glyph unicode="&#xe9f6;" d="M388.436 137.23c-3.825 0.212-6.587 3.612-6.587 7.225v408.198c0 3.825 2.762 7.012 6.587 7.225 4.037 0.212 7.225-2.975 7.225-6.8v-409.048c0.212-3.825-3.187-7.012-7.225-6.8z" />
<glyph unicode="&#xe9f7;" d="M306.626 137.23c-3.825 0.212-6.587 3.612-6.587 7.225v408.198c0 3.825 2.762 7.012 6.587 7.225 4.037 0.212 7.225-2.975 7.225-6.8v-409.048c0-3.825-3.187-7.012-7.225-6.8z" />
<glyph unicode="&#xe9f8;" d="M221.629 777.469h85.422v-658.088h-85.422v658.088z" />
<glyph unicode="&#xe9f9;" d="M356.137 715.634h-175.094v-107.521h175.094c15.512 0 28.049 12.537 28.049 28.049v51.636c-0.212 15.299-12.537 27.836-28.049 27.836z" />
<glyph unicode="&#xe9fa;" d="M680.825 652.736c-0.425 0-0.85 0-1.062 0l-103.909 12.325c-5.312 0.637-8.925 5.312-8.5 10.625l8.712 85.209c0.637 5.312 5.312 9.137 10.625 8.712 5.312-0.637 9.137-5.312 8.712-10.625l-7.65-75.86 94.347-11.050c5.312-0.637 9.137-5.525 8.5-10.625s-4.887-8.712-9.775-8.712z" />
<glyph unicode="&#xe9fb;" d="M688.262 109.606h-466.633c-5.312 0-9.562 4.25-9.562 9.562v658.301c0 5.312 4.25 9.562 9.562 9.562h302.589c96.046 0 173.819-77.772 173.819-173.819v-115.808c0-5.1-3.612-9.562-8.712-9.987-5.737-0.637-10.625 4.037-10.625 9.562v116.233c0 85.209-69.060 154.482-154.482 154.482h-293.027v-638.752h447.509v259.241c0 5.1 3.612 9.562 8.712 9.987 5.737 0.637 10.625-4.037 10.625-9.562v-269.228c0-5.312-4.462-9.775-9.775-9.775z" />
<glyph unicode="&#xe9fc;" d="M838.494 178.666h-103.696c-0.637 0-1.275 0.637-1.275 1.275v14.662c0 0.637 0.637 1.275 1.275 1.275h103.696c0.637 0 1.275-0.637 1.275-1.275v-14.662c0.212-0.637-0.425-1.275-1.275-1.275z" />
<glyph unicode="&#xe9fd;" d="M841.682 161.242h-103.696c-0.637 0-1.275 0.637-1.275 1.275v14.662c0 0.637 0.637 1.275 1.275 1.275h103.696c0.637 0 1.275-0.637 1.275-1.275v-14.662c0-0.637-0.637-1.275-1.275-1.275z" />
<glyph unicode="&#xe9fe;" d="M834.244 143.817h-103.696c-0.637 0-1.275 0.637-1.275 1.275v14.662c0 0.637 0.637 1.275 1.275 1.275h103.696c0.637 0 1.275-0.637 1.275-1.275v-14.662c0-0.637-0.637-1.275-1.275-1.275z" />
<glyph unicode="&#xe9ff;" d="M838.494 126.393h-103.696c-0.637 0-1.275 0.637-1.275 1.275v14.662c0 0.637 0.637 1.275 1.275 1.275h103.696c0.637 0 1.275-0.637 1.275-1.275v-14.662c0.212-0.637-0.425-1.275-1.275-1.275z" />
<glyph unicode="&#xea00;" d="M838.494 108.969h-103.696c-0.637 0-1.275 0.637-1.275 1.275v14.662c0 0.637 0.637 1.275 1.275 1.275h103.696c0.637 0 1.275-0.637 1.275-1.275v-14.662c0.212-0.637-0.425-1.275-1.275-1.275z" />
<glyph unicode="&#xea01;" d="M838.494 265.788h-103.696c-0.637 0-1.275 0.637-1.275 1.275v14.662c0 0.637 0.637 1.275 1.275 1.275h103.696c0.637 0 1.275-0.637 1.275-1.275v-14.662c0.212-0.637-0.425-1.275-1.275-1.275z" />
<glyph unicode="&#xea02;" d="M841.682 248.364h-103.696c-0.637 0-1.275 0.637-1.275 1.275v14.662c0 0.637 0.637 1.275 1.275 1.275h103.696c0.637 0 1.275-0.637 1.275-1.275v-14.662c0-0.637-0.637-1.275-1.275-1.275z" />
<glyph unicode="&#xea03;" d="M834.244 230.939h-103.696c-0.637 0-1.275 0.637-1.275 1.275v14.662c0 0.637 0.637 1.275 1.275 1.275h103.696c0.637 0 1.275-0.637 1.275-1.275v-14.662c0-0.637-0.637-1.275-1.275-1.275z" />
<glyph unicode="&#xea04;" d="M838.494 213.515h-103.696c-0.637 0-1.275 0.637-1.275 1.275v14.662c0 0.637 0.637 1.275 1.275 1.275h103.696c0.637 0 1.275-0.637 1.275-1.275v-14.662c0.212-0.637-0.425-1.275-1.275-1.275z" />
<glyph unicode="&#xea05;" d="M838.494 196.090h-103.696c-0.637 0-1.275 0.637-1.275 1.275v14.662c0 0.637 0.637 1.275 1.275 1.275h103.696c0.637 0 1.275-0.637 1.275-1.275v-14.662c0.212-0.637-0.425-1.275-1.275-1.275z" />
<glyph unicode="&#xea06;" d="M748.398 178.666h-103.696c-0.637 0-1.275 0.637-1.275 1.275v14.662c0 0.637 0.637 1.275 1.275 1.275h103.696c0.637 0 1.275-0.637 1.275-1.275v-14.662c0-0.637-0.637-1.275-1.275-1.275z" />
<glyph unicode="&#xea07;" d="M751.372 161.242h-103.696c-0.637 0-1.275 0.637-1.275 1.275v14.662c0 0.637 0.637 1.275 1.275 1.275h103.696c0.637 0 1.275-0.637 1.275-1.275v-14.662c0-0.637-0.425-1.275-1.275-1.275z" />
<glyph unicode="&#xea08;" d="M743.935 143.817h-103.696c-0.637 0-1.275 0.637-1.275 1.275v14.662c0 0.637 0.637 1.275 1.275 1.275h103.696c0.637 0 1.275-0.637 1.275-1.275v-14.662c0.212-0.637-0.425-1.275-1.275-1.275z" />
<glyph unicode="&#xea09;" d="M748.398 126.393h-103.696c-0.637 0-1.275 0.637-1.275 1.275v14.662c0 0.637 0.637 1.275 1.275 1.275h103.696c0.637 0 1.275-0.637 1.275-1.275v-14.662c0-0.637-0.637-1.275-1.275-1.275z" />
<glyph unicode="&#xea0a;" d="M748.398 108.969h-103.696c-0.637 0-1.275 0.637-1.275 1.275v14.662c0 0.637 0.637 1.275 1.275 1.275h103.696c0.637 0 1.275-0.637 1.275-1.275v-14.662c0-0.637-0.637-1.275-1.275-1.275z" />
</font>
</defs>
</svg>
