<svg xmlns="http://www.w3.org/2000/svg" viewBox="0 0 133.4 133.4"><defs><style>.a,.b,.h{fill:none}.a{stroke:#fff;stroke-width:.5px}.a,.b{stroke-linecap:round;stroke-linejoin:round}.b,.h{stroke:#6cc1d8;stroke-width:1.4px}.c{fill:#eeecac}.d{fill:#2d3180}.e{fill:#b2d3ed}.f{fill:#d9e9f6}.g{fill:#6572b0}.h{stroke-miterlimit:10}</style></defs><title>1</title><path class="a" d="M12.35 124.31a2.66 2.66.0 0 1-2.65-1.93 3 3 0 0 1 1-3.17 3.56 3.56.0 0 1 .58-1.19A3.46 3.46.0 0 1 15 116.78a1.21 1.21.0 0 1 0-.18v0h0a10.88 10.88.0 0 1 5.11-6.23 10.78 10.78.0 0 1 3.68-1.25h.29.22.27.56.64a10.86 10.86.0 0 1 7.5 3.32l.2.21h.07v0a7.58 7.58.0 0 1 4.31-1.1h0a7 7 0 0 1 1 .11 7.06 7.06.0 0 1 5.63 5 .36.36.0 0 1 0 .1v.18.0h0a6.53 6.53.0 0 1-6.15 7.5H12.35z"/><path class="a" d="M93.53 22.32a2.66 2.66.0 0 1-2.65-1.92 3 3 0 0 1 1-3.17 3.45 3.45.0 0 1 4.31-2.44 1.54 1.54.0 0 0 0-.17v0h0A10.9 10.9.0 0 1 105 7.12h.3.21.27.56H107a10.86 10.86.0 0 1 7.5 3.33l.2.21h.06v0a7.72 7.72.0 0 1 4.31-1.1h0a7.33 7.33.0 0 1 6.63 5.15.3.3.0 0 1 0 .1.86.86.0 0 1 0 .17v0h0a6.53 6.53.0 0 1-6.15 7.5H93.53z"/><path class="b" d="M3.4 38.47 3.18 31.11 40.7 29.98 32.13 40.8 41.19 46.3 34.92 55.68 41.64 61.25 36.94 73.81 42.27 82.06 4.75 83.19l-1-33.18"/><path class="b" d="M50.18 29.7 83.1 28.7 84.67 80.78 50.97 81.8 43.87 73.31 49.62 59.94 43.31 54.75 49.48 45.27 40.98 39.36 50.18 29.7z"/><path class="c" d="M35.34 65.65 33.17 67.59 34.79 70 32.13 71.17 32.91 73.97 30.02 74.26 29.91 77.16 27.07 76.55 26.06 79.27 23.55 77.81 21.75 80.08 19.82 77.92 17.4 79.53 16.23 76.87 13.44 77.66 13.15 74.77 10.24 74.65 10.86 71.81 8.13 70.81 9.6 68.3 7.32 66.5 9.48 64.56 7.87 62.15 10.53 60.98 9.75 58.18 12.64 57.89 12.75 54.99 15.59 55.6 16.6 52.88 19.11 54.34 20.91 52.06 22.84 54.23 25.26 52.62 26.43 55.27 29.23 54.49 29.52 57.38 32.42 57.5 31.8 60.34 34.53 61.34 33.06 63.85 35.34 65.65z"/><path class="d" d="M113.7 119.58a34.52 34.52.0 1 1 5.4-54l2.19-3.52a3.41 3.41.0 0 1 1.25-1.37 3.54 3.54.0 0 1 2.87-.34 3.38 3.38.0 0 1 2.26 2.37l2.52 20.41a4.71 4.71.0 0 1-6 5.72l-20.26-3.53A3.38 3.38.0 0 1 101.68 83a3.46 3.46.0 0 1 .44-2.86h0a3.38 3.38.0 0 1 1.45-1.22l3.7-2a18.19 18.19.0 1 0-4.91 30.27 3 3 0 0 1 3.4.68l4.64 4.88a32.68 32.68.0 0 0 4.47-3.72 2.34 2.34.0 1 1 3.31 3.31 37 37 0 0 1-4.52 3.84l.4.42a2 2 0 0 1-.36 3z"/><path class="e" d="M82.62 77.29a18.2 18.2.0 0 1 24.65-.4L110 75.36a.86.86.0 0 0 .18-1.38c-10.42-10.06-23.67-6.32-30.41.09-7.34 7-8.34 18.08-1.23 25.35A18.29 18.29.0 0 0 80.32 101a18.2 18.2.0 0 1 2.3-23.69z"/><path class="e" d="M114.06 116.57l-.4-.42a37 37 0 0 0 4.52-3.84 2.34 2.34.0 1 0-3.31-3.31 32.68 32.68.0 0 1-4.47 3.72l.08.08a2 2 0 0 1-.36 3 34.52 34.52.0 0 1-41.69-3.52c.53.66 1.1 1.3 1.69 1.92a34.52 34.52.0 0 0 43.58 5.37A2 2 0 0 0 114.06 116.57z"/><path class="e" d="M109.07 105.38h0a2.35 2.35.0 0 1-.1-3.31 15.7 15.7.0 0 0 4-7.58 2.34 2.34.0 0 1 4.58 1 20.44 20.44.0 0 1-5.13 9.83A2.34 2.34.0 0 1 109.07 105.38z"/><path class="e" d="M121.16 103.92a2.35 2.35.0 0 1-.19-2.5c.48-.93.93-1.89 1.33-2.86a2.34 2.34.0 1 1 4.33 1.78 35.9 35.9.0 0 1-1.52 3.27 2.34 2.34.0 0 1-3.17 1 2.52 2.52.0 0 1-.78-.66z"/><path class="f" d="M112.36 105.27a20.44 20.44.0 0 0 5.13-9.83 2.34 2.34.0 0 0-1.81-2.77 2.24 2.24.0 0 0-1.45.17A2.32 2.32.0 0 1 114.9 95a20.4 20.4.0 0 1-5.13 9.82 2.21 2.21.0 0 1-.73.53h0a2.34 2.34.0 0 0 3.29-.11z"/><path class="f" d="M125.11 103.61a35.9 35.9.0 0 0 1.52-3.27 2.33 2.33.0 0 0-2.86-3.12 2.33 2.33.0 0 1 .35 2.36c-.46 1.11-1 2.21-1.53 3.27a2.33 2.33.0 0 1-1.37 1.14 2.42 2.42.0 0 0 .72.59 2.34 2.34.0 0 0 3.17-1z"/><path class="g" d="M130.19 83.15l-2.52-20.41a3.34 3.34.0 0 0-2.26-2.36 3.43 3.43.0 0 0-1.22-.17h0a3.49 3.49.0 0 0-1.65.5v0s1.13.09 1.9 1.88a.67.67.0 0 0 .08.17l2 16.53a4.72 4.72.0 0 1-6 5.73l-16.62-2.91h0c-1.7-.83-1.79-1.92-1.79-2a3.37 3.37.0 0 0-.57 1.83 3.49 3.49.0 0 0 .13 1 3.38 3.38.0 0 0 2.23 2.31l20.26 3.53a4.71 4.71.0 0 0 6-5.72z"/><path class="h" d="M66 71.92a35.15 35.15.0 0 1 5.42-6.54 34.52 34.52.0 0 1 47.65.22l2.19-3.52a3.41 3.41.0 0 1 1.25-1.37 3.54 3.54.0 0 1 2.87-.34 3.38 3.38.0 0 1 2.26 2.37l2.52 20.41a4.71 4.71.0 0 1-6 5.72l-20.26-3.53A3.38 3.38.0 0 1 101.68 83a3.46 3.46.0 0 1 .44-2.86h0a3.38 3.38.0 0 1 1.45-1.22l3.7-2a18.19 18.19.0 1 0-4.91 30.27 3 3 0 0 1 3.4.68l4.64 4.88a32.68 32.68.0 0 0 4.47-3.72 2.34 2.34.0 1 1 3.31 3.31 37 37 0 0 1-4.52 3.84l.4.42a2 2 0 0 1-.36 3h0A34.55 34.55.0 0 1 62.08 80.49"/></svg>