<svg xmlns="http://www.w3.org/2000/svg" viewBox="0 0 133.4 133.4"><defs><style>.a,.b,.c,.d{fill:none;stroke-linecap:round;stroke-linejoin:round}.a{stroke:#fff;stroke-width:.5px}.b{stroke:#6cc1d8;stroke-width:1.4px}.c{stroke:#d9e9f6}.c,.d{stroke-width:2px}.d{stroke:#eeecac}</style></defs><title>6</title><path class="a" d="M4.24 125.47a2.66 2.66.0 0 1-2.65-1.92 3 3 0 0 1 1-3.17 3.28 3.28.0 0 1 .57-1.19 3.48 3.48.0 0 1 3.74-1.25 1.09 1.09.0 0 0 0-.17v0h0a10.9 10.9.0 0 1 5.1-6.25 10.65 10.65.0 0 1 3.67-1.25h.3.21.27.56.65a10.85 10.85.0 0 1 7.5 3.32l.19.21h.07v0a7.72 7.72.0 0 1 4.31-1.1h0a7.33 7.33.0 0 1 6.63 5.15.3.3.0 0 1 0 .1v.17.0h0a6.53 6.53.0 0 1-6.15 7.49H4.24z"/><path class="a" d="M99.6 23.49A2.66 2.66.0 0 1 97 21.56a3 3 0 0 1 1-3.17 3.56 3.56.0 0 1 .58-1.19A3.48 3.48.0 0 1 102.22 16a1.21 1.21.0 0 1 0-.18v0h0a10.88 10.88.0 0 1 5.11-6.23 11.22 11.22.0 0 1 3.68-1.25h.29.22.27.56.64a10.88 10.88.0 0 1 7.5 3.32 2.09 2.09.0 0 1 .2.22l.07-.05v0a7.72 7.72.0 0 1 4.31-1.1h0a7 7 0 0 1 1 .11 7.06 7.06.0 0 1 5.63 5s0 .07.0.1v.18.0h0a6.56 6.56.0 0 1-1.42 5.13 6.47 6.47.0 0 1-4.73 2.37H99.6z"/><path class="b" d="M94.55 76.45a2.78 2.78.0 0 1 2.09-1h5.76a2.8 2.8.0 0 0 2.8-2.79V59.59a2.8 2.8.0 0 0-2.8-2.8H96.64A2.82 2.82.0 0 1 94 54.93c-.31-.85-.66-1.69-1-2.5a2.82 2.82.0 0 1 .54-3.18l4.08-4.08a2.79 2.79.0 0 0 0-4l-9.28-9.28a2.79 2.79.0 0 0-4 0L80.28 36a2.82 2.82.0 0 1-3.18.54c-.82-.38-1.65-.72-2.5-1a2.83 2.83.0 0 1-1.86-2.64V27.13a2.8 2.8.0 0 0-2.8-2.8H56.82a2.8 2.8.0 0 0-2.8 2.8v5.76a2.81 2.81.0 0 1-1.86 2.64c-.85.31-1.68.65-2.5 1A2.82 2.82.0 0 1 46.48 36l-4.07-4.08a2.81 2.81.0 0 0-4 0l-9.28 9.28a2.79 2.79.0 0 0 0 4l4.08 4.08a2.82 2.82.0 0 1 .55 3.18c-.38.81-.73 1.65-1 2.5a2.82 2.82.0 0 1-2.64 1.86H24.36a2.8 2.8.0 0 0-2.8 2.8V72.71a2.8 2.8.0 0 0 2.8 2.79h5.76a2.82 2.82.0 0 1 2.64 1.86c.31.86.66 1.69 1 2.51a2.83 2.83.0 0 1-.55 3.18l-4.08 4.07a2.81 2.81.0 0 0 0 4l9.28 9.28a2.81 2.81.0 0 0 4 0l4.07-4.08a2.81 2.81.0 0 1 3.18-.55c.82.38 1.65.73 2.5 1A2.8 2.8.0 0 1 54 99.4v5.77a2.79 2.79.0 0 0 2.8 2.79H69.94a2.79 2.79.0 0 0 2.8-2.79V99.4A2.77 2.77.0 0 1 74.07 97M42.2 71.64A21.88 21.88.0 0 1 63.38 44.27a21.76 21.76.0 0 1 14.3 5.33"/><path class="c" d="M113.24 117.47h0a6.84 6.84.0 0 1-9.69.0L79.46 93.38 57.75 91.67a9.05 9.05.0 0 1-8.12-7L46 68.81a2.54 2.54.0 0 1 .64-2.32l1.8-1.87L63.08 79.29a8.3 8.3.0 0 0 11.72.0h0a8.29 8.29.0 0 0 0-11.67L60.19 52.72l1.55-1.49a2.73 2.73.0 0 1 2.54-.69l15 3.64a10.45 10.45.0 0 1 7.92 9.07l2 19 24.22 25.7A6.84 6.84.0 0 1 113.24 117.47z"/><circle class="d" cx="67.74" cy="73.02" r="6.32"/></svg>