<svg id="Layer_1" data-name="Layer 1" xmlns="http://www.w3.org/2000/svg" viewBox="0 0 300 55"><defs><style>.cls-1{fill:#fff;}</style></defs><title>ACD HORIZONTAL BLANCO blanco</title><path class="cls-1" d="M74.18,13.17h7.16l9.9,28.58h-8l-1.73-5.6H73.94l-1.69,5.6h-8ZM80.3,30.92l-2.54-8.85-2.65,8.85Z"/><path class="cls-1" d="M89.88,27.22a14.21,14.21,0,0,1,3.86-9.7A14.38,14.38,0,0,1,104.49,13a14.42,14.42,0,0,1,7.18,1.71,11.1,11.1,0,0,1,4.53,4.53l-6,4.26a5.08,5.08,0,0,0-1.07-1.73,5.58,5.58,0,0,0-1.46-1.08,6.47,6.47,0,0,0-1.67-.57,9.91,9.91,0,0,0-1.67-.16,5.88,5.88,0,0,0-4.93,2.4,7.21,7.21,0,0,0-1.17,2.41,9.59,9.59,0,0,0-.38,2.68,9.14,9.14,0,0,0,.44,2.86,7.26,7.26,0,0,0,1.29,2.41,6.13,6.13,0,0,0,2.07,1.67,6,6,0,0,0,2.76.62,8,8,0,0,0,1.65-.18,6.29,6.29,0,0,0,1.63-.6,5.24,5.24,0,0,0,1.4-1.09,4.66,4.66,0,0,0,1-1.63l6.4,3.83a8.19,8.19,0,0,1-2,2.81,12.41,12.41,0,0,1-3,2.1A15.69,15.69,0,0,1,108,41.54a16.28,16.28,0,0,1-3.72.45,13.17,13.17,0,0,1-5.82-1.27,15,15,0,0,1-4.55-3.36,15.49,15.49,0,0,1-3-4.75A14.75,14.75,0,0,1,89.88,27.22Z"/><path class="cls-1" d="M118.25,41.75V13.17h11a16.12,16.12,0,0,1,6.24,1.13,12.61,12.61,0,0,1,7.24,7.58,16.31,16.31,0,0,1,.93,5.54,16.17,16.17,0,0,1-1,5.89,12.73,12.73,0,0,1-2.92,4.51,12.9,12.9,0,0,1-4.55,2.9,16.36,16.36,0,0,1-5.91,1Zm17.43-14.33a9.62,9.62,0,0,0-.45-3A6.61,6.61,0,0,0,134,22.07a5.61,5.61,0,0,0-2-1.51,6.34,6.34,0,0,0-2.69-.55H126.1V34.9h3.14a6.36,6.36,0,0,0,2.74-.56,5.7,5.7,0,0,0,2-1.57,7.06,7.06,0,0,0,1.25-2.37A10.17,10.17,0,0,0,135.68,27.42Z"/><path class="cls-1" d="M153.5,15.75v26h-1V13h.12l19.92,26.56v-26h1v28.7h-.12Z"/><path class="cls-1" d="M178.82,27.58c0-8.45,6.23-14.53,14-14.53s14,6.08,14,14.53-6.24,14.57-14,14.57S178.82,36.07,178.82,27.58Zm27,0c0-7.93-5.83-13.68-13-13.68s-13,5.75-13,13.68,5.88,13.72,13,13.72S205.78,35.55,205.78,27.58ZM196.16,5.12h1.33L193,11.56h-.56Z"/><path class="cls-1" d="M212,13.13h.12l11.47,16.38L235,13.13h.12V41.75h-1V15.91L223.61,31h-.12L213,15.91V41.75h-1Z"/><path class="cls-1" d="M242.41,13.57h1V41.75h-1Z"/><path class="cls-1" d="M251.62,15.75v26h-1V13h.12l19.64,26.56v-26h1v28.7h-.12Z"/><path class="cls-1" d="M287.6,13h.12L300,41.75H299l-3.14-7.49h-16.3l-3.14,7.49h-1Zm7.85,20.41-7.81-18.48-7.76,18.48Z"/><path class="cls-1" d="M27.54,55A27.54,27.54,0,0,1,8.07,8,27.55,27.55,0,0,1,47,47,27.37,27.37,0,0,1,27.54,55Zm0-53.36A25.82,25.82,0,1,0,53.36,27.5,25.85,25.85,0,0,0,27.54,1.68Z"/><circle class="cls-1" cx="14.93" cy="12.48" r="1.97"/><path class="cls-1" d="M47.3,44.81H37.92a.33.33,0,0,1,0-.65H47.3a.33.33,0,0,1,0,.65Z"/><path class="cls-1" d="M49,43h-10a.32.32,0,0,1,0-.64H49A.32.32,0,1,1,49,43Z"/><path class="cls-1" d="M50.37,41.14H40.21a.33.33,0,0,1-.32-.33.32.32,0,0,1,.32-.32H50.37a.32.32,0,0,1,.32.32A.32.32,0,0,1,50.37,41.14Z"/><path class="cls-1" d="M11.37,35A2.86,2.86,0,0,1,8.53,32.9a3.19,3.19,0,0,1,1-3.4,4,4,0,0,1,.62-1.28,3.71,3.71,0,0,1,4-1.33l.06-.19v0h0a11.73,11.73,0,0,1,9.44-8l.31,0,.23,0,.29,0q.3,0,.6,0h.69a11.64,11.64,0,0,1,8.05,3.57l.21.22.08,0,0,0a8.24,8.24,0,0,1,4.63-1.18h0a10.3,10.3,0,0,1,1.07.12,7.58,7.58,0,0,1,6,5.4.43.43,0,0,1,0,.11,1.06,1.06,0,0,1,0,.19v0h0a7,7,0,0,1-6.6,8h-28Zm-.65-4.18a1.48,1.48,0,0,0-.54,1.62,1.15,1.15,0,0,0,1.26.83H39.35a5.27,5.27,0,0,0,4.95-6,.13.13,0,0,0,0-.06.5.5,0,0,0,0-.12,6,6,0,0,0-5.51-4.25h0a6.4,6.4,0,0,0-3.66.93,4.09,4.09,0,0,0-.53.4h0a.83.83,0,0,1-.64.22.87.87,0,0,1-.61-.3l0,0a8.87,8.87,0,0,0-.64-.72,10,10,0,0,0-6.87-3.05h-.56c-.19,0-.36,0-.53,0l-.25,0-.19,0-.28,0a9.77,9.77,0,0,0-3.36,1.14,10,10,0,0,0-4.68,5.69v0c-.1.32-.19.66-.26,1a.87.87,0,0,1-1.23.59,2.17,2.17,0,0,0-2.83.44,2,2,0,0,0-.39.91A.87.87,0,0,1,10.72,30.79Z"/></svg>