<?xml version="1.0" encoding="utf-8"?>
<!-- Generator: Adobe Illustrator 23.1.0, SVG Export Plug-In . SVG Version: 6.00 Build 0)  -->
<svg version="1.1" id="Layer_2" xmlns="http://www.w3.org/2000/svg" xmlns:xlink="http://www.w3.org/1999/xlink" x="0px" y="0px"
	 viewBox="0 0 400 400" style="enable-background:new 0 0 400 400;" xml:space="preserve">
<style type="text/css">
	.st0{fill:#79B874;}
	.st1{fill:url(#SVGID_1_);}
	.st2{fill:url(#SVGID_2_);}
	.st3{fill:#D0B38B;}
	.st4{fill:#F1F6E7;}
	.st5{fill:#E3D587;}
</style>
<g>
	<g>
		<path class="st0" d="M127.7,203.4h-4.6v-5.9c-3.8,4.7-8.5,7-14.1,6.8c-4.9-0.2-9-2.2-12.4-6c-3.4-3.8-5.1-8.4-5.1-13.7
			c0-5.5,1.9-10.3,5.5-14.2c3.6-4,8-5.8,13.2-5.6c4.9,0.2,9.1,2.2,12.6,6.1c3.5,3.8,5.1,8.4,4.9,13.7v0.3V203.4z M96.3,184.1
			c-0.1,4,1.1,7.5,3.6,10.5c2.5,3,5.6,4.5,9.2,4.7c3.9,0.2,7.2-1.3,9.9-4.3c2.8-3.1,4.1-6.8,4-10.9c-0.1-4-1.4-7.4-4-10.2
			c-2.5-2.8-5.6-4.2-9.2-4.2c-3.8,0-6.9,1.4-9.6,4.2C97.6,176.7,96.3,180.1,96.3,184.1z"/>
		<path class="st0" d="M183.3,203.4h-4.9v-23.2c0-2.9-0.8-5.4-2.3-7.5c-1.5-2.1-3.6-3.1-6.2-3.1c-2.6,0-4.8,0.9-6.7,2.7
			c-1.9,1.8-2.8,4-2.8,6.8v24.3h-4.9v-24.3c0-2.7-0.9-5-2.8-6.8c-1.9-1.8-4.1-2.7-6.7-2.7c-2.5,0-4.6,1.1-6.1,3.1
			c-1.5,2.1-2.3,4.5-2.3,7.5v23.2h-4.9v-22.6c0-4.7,1.2-8.6,3.8-11.4c2.3-2.7,5.4-4.2,9.3-4.6c5.1-0.5,9.2,1.9,12.2,7
			c3-5.1,7.1-7.5,12.2-7c3.8,0.3,6.9,1.9,9.3,4.6c2.5,2.9,3.8,6.7,3.8,11.4V203.4z"/>
		<path class="st0" d="M193,216.7h-4.6v-31.9c0,0,0-0.2,0-0.3c0-5.4,1.9-10.1,5.5-14.1c3.7-4,8.1-5.9,13.2-5.7c4.9,0.1,9,2.1,12.4,6
			s5.1,8.4,5.1,13.7c0,5.5-1.9,10.3-5.5,14.3c-3.6,3.9-8,5.8-13.1,5.6c-5.2-0.2-9.5-2.5-13-6.7V216.7z M207.1,169.7
			c-3.9-0.2-7.2,1.2-9.9,4.3c-2.7,3.1-4,6.7-4,10.9c0.1,4,1.4,7.4,4,10.2c2.5,2.9,5.6,4.2,9.3,4.2c3.7,0,6.9-1.4,9.5-4.2
			c2.7-2.9,4-6.2,4.1-10.3c0.1-4-1.2-7.4-3.7-10.4C213.7,171.4,210.7,169.9,207.1,169.7z"/>
		<path class="st0" d="M264.8,191c-1.3,4-3.5,7.3-6.7,9.7c-3.2,2.4-6.6,3.6-10.4,3.6c-4.8,0.1-9.1-1.8-12.8-5.6
			c-3.7-3.9-5.6-8.5-5.7-13.9c-0.1-5.6,1.7-10.5,5.6-14.6c3.9-4.1,8.4-6,13.7-5.7c4.7,0.3,8.8,2.4,12.2,6.2c3.3,3.8,5,8,5,12.7v2.7
			h-31.6c0.4,3.8,1.9,7,4.5,9.4c2.7,2.5,5.7,3.7,9.3,3.6c5.6-0.1,9.5-2.8,11.9-8.3H264.8z M261.1,181.6c-0.7-3.5-2.2-6.4-4.6-8.6
			c-2.4-2.2-5.3-3.3-8.7-3.4c-3.4-0.1-6.4,1.1-8.9,3.2c-2.5,2.2-4.1,5.1-4.8,8.7H261.1z"/>
		<path class="st0" d="M274.8,193.5c0,1.3,0.7,2.6,2,4c1.3,1.4,2.7,2.1,4.2,2c2-0.1,3.5-0.7,4.7-1.9c1.1-1.1,1.5-2.7,1.6-4.5
			c0.1-3.2-1.7-5.4-5.1-6.6L278,185c-4.3-1.5-6.6-4.6-6.8-9.5c-0.1-2.9,0.8-5.4,2.7-7.5c2-2.1,4.3-3.2,7.1-3.3
			c2.4-0.1,4.6,0.7,6.7,2.5c2.1,1.8,3.2,4,3.4,6.6l0.1,1.1h-4.9v-0.9c0-2.7-2.5-4.4-5.2-4.4c-2.7,0.1-4.9,2.3-4.9,5.2
			c-0.2,2.7,1.4,4.6,4.5,5.8l4.1,1.5c4.7,1.7,7.2,5.1,7.5,10.1c0.2,3.4-0.9,6.4-3.3,8.9c-2.5,2.5-5.3,3.6-8.5,3.4
			c-3-0.2-5.4-1.5-7.5-3.8c-2-2.3-3-5.1-3-8.4h4.9V193.5z"/>
		<path class="st0" d="M318.4,203.4h-4.9v-37.8h4.4v5.4c1-2.1,2.5-3.6,4.4-4.7c1.8-1,3.6-1.5,5.4-1.4v5c-2.2,0.1-4,0.7-5.3,1.9
			c-1.4,1.2-2.3,2.3-2.8,3.1c-0.8,1.5-1.2,3.4-1.2,5.8V203.4z"/>
		<path class="st0" d="M366.9,191c-1.3,4-3.5,7.3-6.7,9.7c-3.2,2.4-6.6,3.6-10.4,3.6c-4.8,0.1-9.1-1.8-12.8-5.6
			c-3.7-3.9-5.6-8.5-5.7-13.9c-0.1-5.6,1.7-10.5,5.6-14.6c3.9-4.1,8.4-6,13.7-5.7c4.7,0.3,8.8,2.4,12.2,6.2c3.3,3.8,5,8,5,12.7v2.7
			h-31.6c0.4,3.8,1.9,7,4.5,9.4c2.7,2.5,5.7,3.7,9.3,3.6c5.6-0.1,9.5-2.8,11.9-8.3H366.9z M363.1,181.6c-0.7-3.5-2.2-6.4-4.6-8.6
			c-2.4-2.2-5.3-3.3-8.7-3.4c-3.4-0.1-6.4,1.1-8.9,3.2c-2.5,2.2-4.1,5.1-4.8,8.7H363.1z"/>
		<linearGradient id="SVGID_1_" gradientUnits="userSpaceOnUse" x1="293.3498" y1="173.1817" x2="306.7741" y2="149.5072">
			<stop  offset="0" style="stop-color:#B5CC5F"/>
			<stop  offset="0.7542" style="stop-color:#82BC7D"/>
			<stop  offset="1" style="stop-color:#74AA71"/>
		</linearGradient>
		<path class="st1" d="M312.9,131.1V127h-11.4v-17h-4.8v17h-11.1v4.1h11.1v61.4c0,7.8,4.3,11.7,12.9,11.7V200
			c-5.4,0-8.1-2.8-8.1-8.4v-60.5H312.9z"/>
		<g>
			<linearGradient id="SVGID_2_" gradientUnits="userSpaceOnUse" x1="21.6223" y1="216.4062" x2="109.7761" y2="165.5106">
				<stop  offset="0" style="stop-color:#55B4A4"/>
				<stop  offset="0.2492" style="stop-color:#5CAF93"/>
				<stop  offset="0.722" style="stop-color:#66A878"/>
				<stop  offset="1" style="stop-color:#6AA56E"/>
			</linearGradient>
			<path class="st2" d="M41,248c-3-2.9-5.3-6.5-6.3-10.9c-1.5-6-2.4-12.7-2.4-21.3c0-9.2,0.8-18.8,3.1-28.2
				c2.2-9.4,5.6-18.9,9.9-27.1c4.2-8.1,8.5-14.8,12.9-19.8c4.4-5.1,8.8-7.7,11.7-9c1.8-0.9,4.4-1.6,7.6-2c0.7-0.1,1.5-0.2,2.2-0.2
				c2.5,0,4.9,0.5,7.3,1.5h0.1c5.4,2.7,8.6,8,8,15.5c-0.8,9.7-4.4,14.3-7.5,16.8c-1.7,1.4-4.1,1-5.4-0.7l0,0c0.7-2.4,5.9-17.1,5-21
				c-0.2-0.9-1.6-4.3-5.2-4.2c-1.9,0.1-5.5,0.8-10.8,4.9c-3.4,2.7-7,7.1-11.8,16.5c-4.4,8.7-8,16.5-10.5,27.4
				c-1.3,5.9-2.7,10-4,19.9c-0.6,4.4-1.4,14.1-1.4,17.8c0,4.4,0.6,8.6,1.9,11.8c2.2,5.3,5.6,7.4,9.9,7.4c0.6,0,1.2-0.1,1.9-0.2
				c5.7-1.6,11.9-6.1,18.6-13.8c6.6-7.5,9.9-14.1,13.1-19.6c0.1-0.2,0.4-0.4,0.7-0.4h0c1.5-0.2,2.5,1.3,1.9,2.7
				c-7.2,15.2-8.5,17.6-14.5,25.5c-1.2,1.6-5.5,5.8-8.9,8.7c-3.4,3-8.9,6-18.1,5.7C46.6,251.6,43.6,250.6,41,248z"/>
		</g>
	</g>
	<g>
		<path class="st3" d="M129.3,240.2c0,0.9,0.1,1.7,0.4,2.5c0.3,0.8,0.7,1.4,1.2,2s1.1,1,1.7,1.4c0.7,0.3,1.4,0.5,2.1,0.5
			c0.6,0,1.1-0.1,1.7-0.3c0.5-0.2,1-0.5,1.5-0.8c0.3-0.2,0.5-0.3,0.9-0.3c0.2,0,0.5,0,0.6,0.1c0.2,0.1,0.4,0.2,0.5,0.4l0.4,0.4
			c-0.3,0.4-0.7,0.8-1.1,1.2c-0.4,0.3-0.9,0.6-1.3,0.9c-0.5,0.2-1,0.4-1.5,0.6c-0.5,0.1-1,0.2-1.6,0.2c-1,0-2-0.2-2.9-0.7
			c-0.9-0.5-1.7-1.1-2.4-1.9c-0.7-0.8-1.2-1.7-1.6-2.8c-0.4-1.1-0.6-2.2-0.6-3.4c0-0.8,0.1-1.6,0.3-2.3c0.2-0.7,0.4-1.4,0.8-2.1
			c0.3-0.6,0.7-1.2,1.2-1.8c0.5-0.5,1-1,1.5-1.4c0.6-0.4,1.2-0.7,1.8-0.9c0.6-0.2,1.3-0.3,2-0.3c0.5,0,1.1,0.1,1.6,0.2
			c0.5,0.1,1,0.3,1.5,0.6c0.5,0.2,0.9,0.5,1.3,0.9c0.4,0.3,0.8,0.7,1.1,1.2l-0.4,0.4c-0.2,0.2-0.3,0.3-0.5,0.4
			c-0.2,0.1-0.4,0.1-0.6,0.1c-0.3,0-0.6-0.1-0.9-0.3c-0.5-0.4-0.9-0.6-1.5-0.8c-0.5-0.2-1.1-0.3-1.7-0.3c-0.8,0-1.5,0.2-2.1,0.5
			c-0.7,0.3-1.2,0.8-1.7,1.4c-0.5,0.6-0.9,1.2-1.2,2C129.5,238.5,129.3,239.3,129.3,240.2z"/>
		<path class="st3" d="M144.5,238.1c0.1-0.1,0.2-0.2,0.2-0.4c0.1-0.1,0.2-0.2,0.3-0.3c0.1-0.1,0.3-0.2,0.4-0.4
			c0.4-0.3,0.9-0.5,1.3-0.7c0.5-0.2,1-0.2,1.6-0.2c0.6,0,1.1,0.1,1.5,0.2c0.4,0.2,0.8,0.4,1.1,0.7c0.3,0.3,0.6,0.6,0.8,1.1
			c0.2,0.4,0.4,0.8,0.5,1.3c0.1,0.5,0.2,1,0.2,1.5c0,0.5,0.1,1.1,0.1,1.6v6.2h-1.7c-0.1-0.1-0.2-0.3-0.2-0.5
			c-0.1-0.2-0.1-0.4-0.1-0.5v-0.3c-0.2,0.2-0.4,0.4-0.7,0.6c-0.3,0.2-0.6,0.3-0.8,0.5c-0.3,0.1-0.6,0.2-0.9,0.3
			c-0.3,0.1-0.6,0.1-0.8,0.1c-0.5,0-1-0.1-1.5-0.3c-0.4-0.2-0.8-0.4-1.2-0.8c-0.3-0.3-0.6-0.7-0.7-1.2c-0.2-0.5-0.3-1-0.3-1.6
			c0-0.6,0.1-1.2,0.3-1.7c0.2-0.5,0.5-0.9,0.9-1.3c0.4-0.4,0.9-0.6,1.5-0.8c0.6-0.2,1.4-0.3,2.2-0.3c0.2,0,0.5,0,0.7,0
			c0.2,0,0.4,0,0.6,0c0.2,0,0.3,0,0.4,0c0.1,0,0.2,0,0.2,0c0-0.6-0.1-1.1-0.2-1.4c-0.1-0.4-0.3-0.7-0.5-0.9
			c-0.2-0.2-0.4-0.4-0.7-0.5c-0.3-0.1-0.5-0.1-0.8-0.1c-0.3,0-0.6,0-0.8,0.1c-0.2,0.1-0.4,0.1-0.5,0.2c-0.1,0.1-0.3,0.2-0.4,0.2
			c-0.1,0.1-0.3,0.1-0.6,0.1c-0.2,0-0.4,0-0.5-0.1c-0.2-0.1-0.3-0.2-0.5-0.3L144.5,238.1z M147.4,246.7c0.2,0,0.5,0,0.8-0.1
			c0.3-0.1,0.6-0.1,0.8-0.2c0.3-0.1,0.6-0.2,0.8-0.4c0.3-0.1,0.5-0.3,0.8-0.5v-2.1c0,0-0.1,0-0.2,0c-0.1,0-0.3,0-0.4,0
			c-0.2,0-0.4,0-0.6,0c-0.2,0-0.4,0-0.7,0c-0.4,0-0.8,0-1.2,0.1c-0.4,0.1-0.7,0.2-1,0.3s-0.5,0.3-0.6,0.6s-0.2,0.5-0.2,0.8
			c0,0.3,0,0.5,0.1,0.7c0.1,0.2,0.2,0.3,0.4,0.5c0.2,0.1,0.3,0.2,0.5,0.3C146.9,246.6,147.1,246.7,147.4,246.7z"/>
		<path class="st3" d="M156.6,246.1c0.1-0.1,0.3-0.1,0.4-0.2c0.1-0.1,0.3-0.1,0.4-0.1c0.2,0,0.3,0,0.5,0.1c0.2,0.1,0.4,0.2,0.6,0.4
			c0.2,0.1,0.3,0.2,0.5,0.3c0.2,0.1,0.4,0.1,0.6,0.1c0.2,0,0.4,0,0.6-0.1c0.2-0.1,0.4-0.2,0.6-0.3c0.2-0.1,0.3-0.3,0.4-0.5
			c0.1-0.2,0.2-0.5,0.2-0.7c0-0.2,0-0.4-0.1-0.6c-0.1-0.2-0.2-0.3-0.3-0.4c-0.1-0.1-0.3-0.3-0.6-0.4c-0.2-0.1-0.5-0.3-0.9-0.4
			c-0.4-0.1-0.7-0.3-1.1-0.5c-0.4-0.2-0.7-0.4-1-0.7c-0.3-0.3-0.5-0.6-0.7-1c-0.2-0.4-0.3-0.9-0.3-1.4c0-0.5,0.1-0.9,0.3-1.3
			c0.2-0.4,0.4-0.8,0.8-1.1c0.3-0.3,0.7-0.5,1.1-0.7c0.4-0.2,0.8-0.3,1.2-0.3c0.4,0,0.8,0.1,1.1,0.3c0.3,0.2,0.6,0.4,0.9,0.6
			c0.3,0.2,0.4,0.4,0.6,0.6c0.1,0.2,0.2,0.3,0.3,0.4l-0.5,0.5c-0.3,0.3-0.6,0.4-1,0.4c-0.1,0-0.3,0-0.4-0.1
			c-0.2-0.1-0.3-0.2-0.5-0.3c-0.1-0.1-0.3-0.1-0.4-0.1c-0.3,0-0.5,0-0.7,0.1c-0.2,0.1-0.3,0.2-0.4,0.3c-0.1,0.1-0.2,0.2-0.2,0.4
			c0,0.1-0.1,0.2-0.1,0.3c0,0.2,0.1,0.4,0.2,0.6c0.1,0.2,0.2,0.3,0.4,0.4c0.2,0.1,0.4,0.2,0.6,0.3c0.2,0.1,0.4,0.2,0.6,0.2
			c0.4,0.2,0.8,0.3,1.2,0.5c0.4,0.2,0.7,0.5,1,0.8c0.3,0.3,0.5,0.7,0.7,1.1c0.2,0.4,0.3,0.9,0.3,1.5c0,0.5-0.1,1-0.3,1.5
			s-0.4,0.9-0.8,1.3c-0.3,0.4-0.7,0.7-1.2,0.9c-0.5,0.2-0.9,0.3-1.5,0.3c-0.4,0-0.7-0.1-1.1-0.2c-0.4-0.1-0.7-0.3-1-0.5
			c-0.3-0.2-0.6-0.5-0.8-0.8c-0.3-0.3-0.5-0.7-0.6-1.1L156.6,246.1z"/>
		<path class="st3" d="M167.4,238.1c0.1-0.1,0.2-0.2,0.2-0.4c0.1-0.1,0.2-0.2,0.3-0.3c0.1-0.1,0.3-0.2,0.4-0.4
			c0.4-0.3,0.9-0.5,1.3-0.7c0.5-0.2,1-0.2,1.6-0.2c0.6,0,1.1,0.1,1.5,0.2c0.4,0.2,0.8,0.4,1.1,0.7s0.6,0.6,0.8,1.1
			c0.2,0.4,0.4,0.8,0.5,1.3c0.1,0.5,0.2,1,0.2,1.5c0,0.5,0.1,1.1,0.1,1.6v6.2h-1.7c-0.1-0.1-0.2-0.3-0.2-0.5
			c-0.1-0.2-0.1-0.4-0.1-0.5v-0.3c-0.2,0.2-0.4,0.4-0.7,0.6c-0.3,0.2-0.6,0.3-0.8,0.5c-0.3,0.1-0.6,0.2-0.9,0.3
			c-0.3,0.1-0.6,0.1-0.8,0.1c-0.5,0-1-0.1-1.5-0.3c-0.4-0.2-0.8-0.4-1.2-0.8s-0.6-0.7-0.7-1.2c-0.2-0.5-0.3-1-0.3-1.6
			c0-0.6,0.1-1.2,0.3-1.7c0.2-0.5,0.5-0.9,0.9-1.3c0.4-0.4,0.9-0.6,1.5-0.8c0.6-0.2,1.4-0.3,2.2-0.3c0.2,0,0.5,0,0.7,0
			c0.2,0,0.4,0,0.6,0c0.2,0,0.3,0,0.4,0c0.1,0,0.2,0,0.2,0c0-0.6-0.1-1.1-0.2-1.4c-0.1-0.4-0.3-0.7-0.5-0.9
			c-0.2-0.2-0.4-0.4-0.7-0.5c-0.3-0.1-0.5-0.1-0.8-0.1c-0.3,0-0.6,0-0.8,0.1c-0.2,0.1-0.4,0.1-0.5,0.2c-0.1,0.1-0.3,0.2-0.4,0.2
			c-0.1,0.1-0.3,0.1-0.6,0.1c-0.2,0-0.4,0-0.5-0.1s-0.3-0.2-0.5-0.3L167.4,238.1z M170.3,246.7c0.2,0,0.5,0,0.8-0.1
			c0.3-0.1,0.6-0.1,0.8-0.2c0.3-0.1,0.6-0.2,0.8-0.4c0.3-0.1,0.5-0.3,0.8-0.5v-2.1c0,0-0.1,0-0.2,0c-0.1,0-0.3,0-0.4,0
			c-0.2,0-0.4,0-0.6,0c-0.2,0-0.4,0-0.7,0c-0.4,0-0.8,0-1.2,0.1c-0.4,0.1-0.7,0.2-1,0.3c-0.3,0.1-0.5,0.3-0.6,0.6s-0.2,0.5-0.2,0.8
			c0,0.3,0,0.5,0.1,0.7c0.1,0.2,0.2,0.3,0.4,0.5c0.2,0.1,0.3,0.2,0.5,0.3C169.8,246.6,170.1,246.7,170.3,246.7z"/>
		<path class="st3" d="M196,239.3v2.4h-6v7.1h-2v-17h9.1v2.4H190v5.2H196z"/>
		<path class="st3" d="M207.5,248.7c-0.1-0.1-0.1-0.2-0.1-0.3c0-0.1-0.1-0.2-0.1-0.3c0-0.1-0.1-0.3-0.1-0.4v-0.5
			c-0.1,0.3-0.3,0.5-0.5,0.7c-0.2,0.2-0.5,0.4-0.7,0.5c-0.3,0.1-0.6,0.2-0.9,0.3c-0.3,0.1-0.6,0.1-1,0.1c-0.6,0-1.2-0.1-1.7-0.4
			s-0.9-0.6-1.3-1.1c-0.4-0.5-0.6-1.1-0.8-1.8c-0.2-0.7-0.3-1.5-0.3-2.3v-7.1h2v7.1c0,1,0.2,1.9,0.5,2.4c0.3,0.6,0.8,0.9,1.5,0.9
			c0.4,0,0.8-0.1,1.2-0.2c0.4-0.1,0.7-0.3,1-0.5c0.3-0.2,0.5-0.4,0.7-0.7c0.2-0.3,0.3-0.5,0.3-0.8v-8.3h2v12.5H207.5z"/>
		<path class="st3" d="M215.5,236.3c0.1,0.1,0.1,0.2,0.1,0.3c0,0.1,0.1,0.2,0.1,0.3c0,0.1,0.1,0.3,0.1,0.4v0.5
			c0.1-0.3,0.3-0.5,0.5-0.7c0.2-0.2,0.5-0.4,0.7-0.5c0.3-0.1,0.6-0.2,0.9-0.3c0.3-0.1,0.6-0.1,1-0.1c0.6,0,1.2,0.1,1.7,0.4
			c0.5,0.2,0.9,0.6,1.3,1.1c0.4,0.5,0.6,1.1,0.8,1.7c0.2,0.7,0.3,1.5,0.3,2.4v7.1h-2v-7.1c0-1-0.2-1.9-0.5-2.4
			c-0.3-0.6-0.8-0.9-1.5-0.9c-0.4,0-0.8,0.1-1.2,0.2c-0.4,0.1-0.7,0.3-1,0.4c-0.3,0.2-0.5,0.4-0.7,0.7c-0.2,0.3-0.3,0.5-0.3,0.8v8.4
			h-2v-12.5H215.5z"/>
		<path class="st3" d="M237.4,241.4c0,0.3,0,0.5-0.1,0.7c-0.1,0.2-0.2,0.4-0.3,0.6c-0.1,0.2-0.3,0.3-0.5,0.4
			c-0.2,0.1-0.3,0.1-0.5,0.1h-7.5c0.1,0.5,0.2,0.9,0.4,1.3c0.2,0.4,0.5,0.8,0.8,1.1c0.3,0.3,0.7,0.5,1.1,0.7
			c0.4,0.2,0.8,0.3,1.2,0.3c0.3,0,0.6,0,0.9-0.1c0.3-0.1,0.6-0.2,0.8-0.4c0.1-0.1,0.3-0.1,0.4-0.2c0.1,0,0.3-0.1,0.4-0.1
			c0.2,0,0.4,0,0.6,0.1s0.3,0.2,0.5,0.4l0.4,0.5c-0.5,0.6-1.1,1.1-1.8,1.5c-0.7,0.4-1.4,0.6-2.3,0.6c-0.8,0-1.5-0.2-2.2-0.5
			c-0.7-0.3-1.3-0.8-1.8-1.4c-0.5-0.6-0.9-1.3-1.2-2s-0.4-1.6-0.4-2.5c0-0.9,0.1-1.7,0.4-2.5c0.3-0.8,0.7-1.5,1.2-2
			c0.5-0.6,1.1-1,1.8-1.4c0.7-0.3,1.4-0.5,2.2-0.5c0.6,0,1.2,0.1,1.8,0.4c0.6,0.2,1.1,0.6,1.6,1c0.5,0.4,0.9,0.9,1.2,1.5
			s0.6,1.2,0.7,1.9c0,0.1,0,0.2,0,0.3S237.4,241.4,237.4,241.4z M229.3,240.9h6c-0.1-0.4-0.3-0.7-0.5-1c-0.2-0.3-0.5-0.6-0.8-0.8
			c-0.3-0.2-0.6-0.4-0.9-0.5c-0.3-0.1-0.7-0.2-1.1-0.2c-0.4,0-0.8,0.1-1.2,0.2s-0.7,0.4-1,0.6c-0.3,0.3-0.6,0.6-0.8,0.9
			c-0.2,0.4-0.4,0.8-0.5,1.2c0.1-0.1,0.1-0.2,0.2-0.3C229,241,229.1,240.9,229.3,240.9z"/>
		<path class="st3" d="M243,236.3c0.1,0.1,0.1,0.2,0.1,0.3c0,0.1,0.1,0.2,0.1,0.3c0,0.1,0.1,0.3,0.1,0.4v0.9
			c0.1-0.3,0.3-0.6,0.5-0.8c0.2-0.2,0.5-0.5,0.7-0.6c0.3-0.2,0.6-0.3,0.9-0.4c0.3-0.1,0.6-0.2,1-0.2c0.6,0,1.1,0.1,1.6,0.3l-0.2,1
			c-0.1,0.3-0.2,0.6-0.4,0.8c-0.2,0.2-0.4,0.3-0.7,0.3c0,0-0.1,0-0.1,0s0,0,0,0s0,0-0.1,0c0,0-0.1,0-0.2,0c-0.4,0-0.8,0.1-1.2,0.2
			c-0.4,0.1-0.7,0.3-1,0.5c-0.3,0.2-0.5,0.5-0.7,0.8c-0.2,0.3-0.3,0.6-0.3,0.8v7.9h-2v-12.5H243z"/>
		<path class="st3" d="M250.6,238.1c0.1-0.1,0.1-0.2,0.2-0.4c0.1-0.1,0.2-0.2,0.3-0.3c0.1-0.1,0.3-0.2,0.4-0.4
			c0.4-0.3,0.9-0.5,1.3-0.7c0.5-0.2,1-0.2,1.6-0.2c0.6,0,1.1,0.1,1.5,0.2c0.4,0.2,0.8,0.4,1.1,0.7c0.3,0.3,0.6,0.6,0.8,1.1
			c0.2,0.4,0.4,0.8,0.5,1.3c0.1,0.5,0.2,1,0.2,1.5c0,0.5,0.1,1.1,0.1,1.6v6.2H257c-0.1-0.1-0.2-0.3-0.2-0.5
			c-0.1-0.2-0.1-0.4-0.1-0.5v-0.3c-0.2,0.2-0.4,0.4-0.7,0.6c-0.3,0.2-0.6,0.3-0.8,0.5c-0.3,0.1-0.6,0.2-0.9,0.3
			c-0.3,0.1-0.6,0.1-0.8,0.1c-0.5,0-1-0.1-1.5-0.3c-0.4-0.2-0.8-0.4-1.2-0.8c-0.3-0.3-0.6-0.7-0.7-1.2c-0.2-0.5-0.3-1-0.3-1.6
			c0-0.6,0.1-1.2,0.3-1.7c0.2-0.5,0.5-0.9,0.9-1.3c0.4-0.4,0.9-0.6,1.5-0.8c0.6-0.2,1.4-0.3,2.2-0.3c0.2,0,0.5,0,0.7,0
			c0.2,0,0.4,0,0.6,0c0.2,0,0.3,0,0.4,0c0.1,0,0.2,0,0.2,0c0-0.6-0.1-1.1-0.2-1.4c-0.1-0.4-0.3-0.7-0.5-0.9
			c-0.2-0.2-0.4-0.4-0.7-0.5c-0.3-0.1-0.5-0.1-0.8-0.1c-0.3,0-0.6,0-0.8,0.1c-0.2,0.1-0.4,0.1-0.5,0.2c-0.1,0.1-0.3,0.2-0.4,0.2
			c-0.1,0.1-0.3,0.1-0.6,0.1c-0.2,0-0.4,0-0.5-0.1c-0.2-0.1-0.3-0.2-0.5-0.3L250.6,238.1z M253.5,246.7c0.2,0,0.5,0,0.8-0.1
			c0.3-0.1,0.6-0.1,0.8-0.2c0.3-0.1,0.6-0.2,0.8-0.4c0.3-0.1,0.5-0.3,0.8-0.5v-2.1c0,0-0.1,0-0.2,0c-0.1,0-0.3,0-0.4,0
			c-0.2,0-0.4,0-0.6,0c-0.2,0-0.4,0-0.7,0c-0.4,0-0.8,0-1.2,0.1c-0.4,0.1-0.7,0.2-1,0.3c-0.3,0.1-0.5,0.3-0.6,0.6
			c-0.2,0.2-0.2,0.5-0.2,0.8c0,0.3,0,0.5,0.1,0.7c0.1,0.2,0.2,0.3,0.4,0.5c0.1,0.1,0.3,0.2,0.5,0.3
			C253.1,246.6,253.3,246.7,253.5,246.7z"/>
		<path class="st3" d="M265.3,231.7v17h-2v-17H265.3z"/>
	</g>
	<g>
		<path class="st0" d="M91.5,274.1c4.2-1.9,8.6-3.2,13-4.4l3.3-0.9l3.3-0.8c2.2-0.6,4.5-1,6.7-1.4c9-1.7,18.1-2.9,27.2-4l6.8-0.7
			c2.3-0.2,4.6-0.3,6.8-0.5l6.8-0.5l6.9-0.3c4.6-0.3,9.1-0.4,13.7-0.5c4.6-0.2,9.1-0.2,13.7-0.2c9.1,0,18.3,0.1,27.4,0.4
			c9.1,0.3,18.3,0.6,27.4,1.3c9.1,0.6,18.2,1.4,27.3,2.4c4.5,0.5,9.1,1.1,13.6,1.7c4.5,0.6,9,1.3,13.5,2.2l0,0.2
			c-9-1.4-18.1-2.3-27.2-3.1c-9.1-0.8-18.2-1.4-27.3-1.9c-18.2-1-36.5-1.3-54.7-1.2c-18.2,0.1-36.5,0.7-54.6,2.3
			c-9.1,0.9-18.1,1.9-27.1,3.5c-2.2,0.4-4.5,0.8-6.7,1.2l-3.3,0.7l-3.3,0.8c-4.4,1.1-8.9,2.2-13.1,4L91.5,274.1z"/>
	</g>
	<path class="st0" d="M315.2,264.8c0,0-2.4-7.9,0-10.7c2.4-2.8,6.9-10.7,6.9-10.7s4.1,6.9,3.5,12.8c-0.7,5.9-2.8,8.6-2.8,8.6
		s1.7-6.5,7.2-10.5c7.6-5.6,13.7-4.1,13.7-4.1s-2.8,11.6-5,14.2c-2.2,2.5-13.5,5-13.5,5s4.8-1,8.6,4.8c3.8,5.9,4.8,9,4.8,9
		s-9.3,0.7-13.1,0c-3.8-0.7-5-5.9-5-5.9s-1.9,6.6-7.6,9.7c-5.7,3.1-5.7,3.1-5.7,3.1s-2.1-5.9,1.7-11.4c3.8-5.5,3.8-5.5,3.8-5.5
		s-2.4,6.6-9.3,5.5c-6.9-1-14.9-6.6-14.9-6.6s11.8-8.6,18-7.9s11.4,2.6,11.4,2.6"/>
	<path class="st4" d="M316.6,264.1c0,0-2.1-5.9,0-8.3s4-4.1,4-4.1s3.8,7.5,3.1,9.8c-0.6,2.3-2.1,3.1-2.1,3.1s2.5-2.2,4.9-3.1
		c4.2-1.5,6.5-0.4,6.5-0.4s-3.6,8.2-6.6,8.9c-3,0.6-3.5,0-3.5,0s3.6,1.6,3.9,4.7c0.3,3.1,0.7,7.3,0.7,7.3s-4.8,0-7-3.3
		c-2.2-3.2-1.3-4.7-1.3-4.7s-1.8,3.5-5.1,4.7c-3.2,1.2-5.1,2.5-5.1,2.5s0.2-7.1,1.7-8.6c1.6-1.6,2.6-2.5,2.6-2.5s-5.3-0.4-6.2-4.7
		c-0.9-4.3-1.6-4.8-1.6-4.8s5.2-0.2,7.9,0.8C316.1,262.7,316.6,264.1,316.6,264.1z"/>
	<circle class="st5" cx="318.6" cy="269" r="2.4"/>
</g>
</svg>
