<svg id="Capa_1" data-name="Capa 1" xmlns="http://www.w3.org/2000/svg" viewBox="0 0 595.28 394.59"><defs><style>.cls-1{fill:#202154}.cls-2{fill:#000d19}</style></defs><g id="Consultores"><path class="cls-1" d="M66.19 335.32a21.75 21.75 0 0 1-21.5 19.19 21.64 21.64 0 1 1 18.36-33.11l-6.77 4.83c-3-4.49-7.28-6.68-11.59-6.68-7 0-12.54 5.95-12.54 13.36s5.54 13.24 12.54 13.24a13 13 0 0 0 12.71-10.83zM77.33 332.85a21.59 21.59 0 1 1 21.61 21.66 21.56 21.56 0 0 1-21.61-21.66zm8.9 0c0 7.47 5.55 13.3 12.71 13.3s12.66-5.83 12.66-13.3-5.66-13.3-12.71-13.3-12.66 5.95-12.66 13.3zM163.06 312h8.68v42.54l-29.68-24.75v24h-8.68v-42.6l29.68 25zM184.45 323.31c0-7.07 6.49-12.07 12.26-12.07a14.18 14.18 0 0 1 11.29 5.39l-6.83 5a6.78 6.78 0 0 0-4.42-2.08 3.54 3.54 0 0 0-3.86 3.71c0 1.9 1.4 3.64 5.82 3.92 7.11.45 13 5.28 13 13.36a14.05 14.05 0 0 1-14.11 14 17.74 17.74 0 0 1-13.49-6.11l7.16-5.28a7.22 7.22 0 0 0 6.33 3 5.06 5.06 0 0 0 5.1-5c0-3.37-2.24-5.45-6.28-5.89-7.27-.84-11.97-5.38-11.97-11.95zM223.76 334.42V312h8.68v23.91c0 6.57 3.19 10.27 9.35 10.27 6.49 0 9.29-4 9.29-10.27V312h8.57v23.18c0 12.18-6.78 19.36-17.86 19.36-12.21-.03-18.03-8.54-18.03-20.12zM282.55 312v34h16.8v7.86h-25.48V312zM310.38 353.79v-34h-10.31V312h30v7.86h-11v34zM337.65 332.85a21.59 21.59 0 1 1 21.61 21.66 21.56 21.56 0 0 1-21.61-21.66zm8.9 0c0 7.47 5.54 13.3 12.71 13.3s12.65-5.83 12.65-13.3-5.65-13.3-12.71-13.3-12.65 5.95-12.65 13.3zM402.38 346.55v7.24h-8.68V312h14.5c9.8 0 17.3 7.36 17.3 16.45 0 7.52-3.58 13-9.41 15.71l9 9.66h-11.52l-6.83-7.24zm3.58-7.86c6.89 0 10.64-3.37 10.64-9.6 0-5.11-3-9.26-9-9.26h-5.26v18.86zM438.16 353.79V312h22.17v7.86h-13.5v7.8h15.68v7.8h-15.68v10.5H464v7.86zM475 323.31c0-7.07 6.49-12.07 12.26-12.07a14.2 14.2 0 0 1 11.26 5.39l-6.83 5a6.81 6.81 0 0 0-4.43-2.08 3.55 3.55 0 0 0-3.86 3.71c0 1.9 1.4 3.64 5.82 3.92 7.11.45 13 5.28 13 13.36a14.05 14.05 0 0 1-14.11 14 17.74 17.74 0 0 1-13.49-6.11l7.16-5.28a7.22 7.22 0 0 0 6.33 3 5.06 5.06 0 0 0 5.1-5c0-3.37-2.24-5.45-6.27-5.89-7.24-.84-11.94-5.38-11.94-11.95zM41.45 385.93a7.74 7.74 0 0 1-2.79 3 7.83 7.83 0 0 1-4 1.12 7.23 7.23 0 0 1-5.44-2.29 7.64 7.64 0 0 1-2.27-5.54 7.58 7.58 0 0 1 7.71-7.69 7.52 7.52 0 0 1 6.8 4.14h-1.7a6.22 6.22 0 0 0-9.52-.89 6.32 6.32 0 0 0-.06 8.9 6 6 0 0 0 4.47 1.92 6.45 6.45 0 0 0 5.13-2.71zM57.64 382.16a7.71 7.71 0 0 1-2.3 5.6 7.55 7.55 0 0 1-5.55 2.33 7.78 7.78 0 0 1-5.56-2.25 7.18 7.18 0 0 1-2.35-5.4 7.67 7.67 0 0 1 2.29-5.57 7.48 7.48 0 0 1 5.53-2.32 7.93 7.93 0 0 1 5.59 2.21 7.14 7.14 0 0 1 2.35 5.4zm-1.44.1a6 6 0 0 0-1.94-4.45 6.31 6.31 0 0 0-4.53-1.81 6.29 6.29 0 0 0-4.46 10.77 6.4 6.4 0 0 0 9 0 6 6 0 0 0 1.93-4.51zM72.08 389.8h-1.67l-8.62-13.09v13.09h-1.56v-15h2l8.28 12.61v-12.65h1.54zM82.54 376.19h-3.41v13.61h-1.48v-13.61h-3.39v-1.41h8.28zM96.1 389.8h-1.67l-2.13-5.08h-7l-2.1 5.08h-1.9l6.71-15h1.67zm-4.33-6.43l-2.85-6.87-2.92 6.87zM107.69 385.52a3.72 3.72 0 0 1-1.35 3 4.87 4.87 0 0 1-3.3 1.24h-4.78v-15h4.25a4.74 4.74 0 0 1 3.1 1.06 3.45 3.45 0 0 1 1.38 2.81 3.52 3.52 0 0 1-1.71 3.12 4 4 0 0 1 2.41 3.77zm-5.21-9.35h-2.66v5h2.74a3.26 3.26 0 0 0 2.06-.69 2.17 2.17 0 0 0 .89-1.78 2.22 2.22 0 0 0-.94-1.9 3.31 3.31 0 0 0-2.09-.63zm3.67 9.2a2.66 2.66 0 0 0-1.13-2.16 4.38 4.38 0 0 0-2.55-.66h-2.65v5.8h2.73a4.06 4.06 0 0 0 2.71-.82 2.44 2.44 0 0 0 .89-2.16zM111.77 389.8h-1.49v-15h1.49zM122.79 389.8h-4.3a4.09 4.09 0 0 1-2.81-1 3.46 3.46 0 0 1-1.09-2.75v-11.29h1.48v11.58a2.23 2.23 0 0 0 .74 1.54 2.35 2.35 0 0 0 1.66.47h4.32zM126 389.8h-1.48v-15H126zM141.34 382.3a7.55 7.55 0 0 1-7.48 7.5h-5.09v-15h4.35a8.35 8.35 0 0 1 5.9 2.15 7 7 0 0 1 2.32 5.35zm-1.52-.22a5.59 5.59 0 0 0-2-4.19 6.51 6.51 0 0 0-4.5-1.7h-3.14v12.2h3.57a5.77 5.77 0 0 0 4.33-1.87 6 6 0 0 0 1.74-4.44zM155.89 389.8h-1.67l-2.13-5.08h-7L143 389.8h-1.9l6.71-15h1.67zm-4.33-6.43l-2.85-6.87-2.91 6.87zM170.62 382.3a7.55 7.55 0 0 1-7.48 7.5h-5.09v-15h4.35a8.34 8.34 0 0 1 5.9 2.15 7 7 0 0 1 2.32 5.35zm-1.52-.22a5.55 5.55 0 0 0-2-4.19 6.51 6.51 0 0 0-4.5-1.7h-3.1v12.2h3.56a5.8 5.8 0 0 0 4.34-1.87 6 6 0 0 0 1.7-4.44zM199.22 389.8h-1.67l-2.13-5.08h-6.95l-2.1 5.08h-1.9l6.7-15h1.68zm-4.33-6.43L192 376.5l-2.91 6.87zM214 382.3a7.55 7.55 0 0 1-7.48 7.5h-5.09v-15h4.35a8.34 8.34 0 0 1 5.9 2.15 7 7 0 0 1 2.32 5.35zm-1.52-.22a5.59 5.59 0 0 0-2-4.19 6.51 6.51 0 0 0-4.5-1.7h-3.14v12.2h3.57a5.77 5.77 0 0 0 4.33-1.87 6 6 0 0 0 1.69-4.44zM232.09 389.8h-1.52v-13.28l-5.71 13.28h-1.27L218 376.54v13.26h-1.54v-15h2.38l5.37 12.94 5.58-12.94h2.32zM236.39 389.8h-1.48v-15h1.48zM251.06 389.8h-1.67l-8.61-13.09v13.09h-1.56v-15h2l8.28 12.61v-12.65h1.54zM255.37 389.8h-1.48v-15h1.48zM266.74 385.64a4.12 4.12 0 0 1-1.29 3.13 4.55 4.55 0 0 1-6.36 0 4.44 4.44 0 0 1-1.33-3.22h1.58a3 3 0 0 0 .83 2.14 2.8 2.8 0 0 0 2.06.92 2.89 2.89 0 0 0 2.17-.86 2.73 2.73 0 0 0 .86-2.14c0-1.4-.95-2.37-2.75-2.93l-1.59-.5a3.71 3.71 0 0 1-2-1.36 3.92 3.92 0 0 1-.72-2.32 3.68 3.68 0 0 1 1.23-2.82 4.08 4.08 0 0 1 2.94-1.14 3.85 3.85 0 0 1 2.84 1.22 4 4 0 0 1 1.17 2.88h-1.57a2.55 2.55 0 0 0-.69-1.83 2.53 2.53 0 0 0-3.65-.11 2.34 2.34 0 0 0-.79 1.85 2.26 2.26 0 0 0 1.72 2.29l1.81.57c2.34.74 3.51 2.14 3.53 4.23zM276.1 376.19h-3.41v13.61h-1.48v-13.61h-3.39v-1.41h8.28zM288.51 379.68a4.61 4.61 0 0 1-1.19 3 4.23 4.23 0 0 1-2.85 1.43l-.43.05 4.15 5.6h-1.85l-5.06-6.8h1.46a4.59 4.59 0 0 0 3.12-1 3.07 3.07 0 0 0 1.07-2.56 3.19 3.19 0 0 0-1-2.29 3.89 3.89 0 0 0-2.73-.95h-3.35v13.64h-1.55v-15h4.79a5.62 5.62 0 0 1 4 1.38 4.52 4.52 0 0 1 1.42 3.5zM304.85 389.8h-1.67l-2.13-5.08h-6.95l-2.1 5.08h-1.9l6.71-15h1.67zm-4.33-6.43l-2.85-6.87-2.91 6.87zM319.33 385.93a7.58 7.58 0 0 1-6.8 4.16 7.25 7.25 0 0 1-5.45-2.29 7.64 7.64 0 0 1-2.27-5.54 7.58 7.58 0 0 1 7.72-7.69 7.55 7.55 0 0 1 6.8 4.14h-1.7a6.21 6.21 0 0 0-9.51-.89 6.3 6.3 0 0 0-.06 8.9 6.08 6.08 0 0 0 7.43 1.13 6.13 6.13 0 0 0 2.16-1.92zM322.21 389.8h-1.48v-15h1.48zM340.8 382.16a7.68 7.68 0 0 1-2.31 5.6 7.54 7.54 0 0 1-5.54 2.33 7.78 7.78 0 0 1-5.57-2.25 7.21 7.21 0 0 1-2.34-5.4 7.63 7.63 0 0 1 2.29-5.57 7.44 7.44 0 0 1 5.52-2.32 7.92 7.92 0 0 1 5.59 2.21 7.15 7.15 0 0 1 2.36 5.4zm-1.44.1a6.12 6.12 0 0 0-1.94-4.45 6.35 6.35 0 0 0-4.53-1.82 6.29 6.29 0 0 0-4.46 10.77 6.4 6.4 0 0 0 9 0 6.07 6.07 0 0 0 1.93-4.5zM355.23 389.8h-1.67L345 376.71v13.09h-1.56v-15h2l8.28 12.61v-12.65h1.54zM377.13 389.8h-4.3a4.09 4.09 0 0 1-2.81-1 3.46 3.46 0 0 1-1.09-2.75v-11.29h1.48v11.58a2.23 2.23 0 0 0 .74 1.54 2.35 2.35 0 0 0 1.66.47h4.32zM386.33 389.8H382a4 4 0 0 1-2.78-1 3.44 3.44 0 0 1-1.1-2.73v-7.64a3.44 3.44 0 0 1 1.1-2.73 4 4 0 0 1 2.78-1h4.31v1.41H382a2.08 2.08 0 0 0-2.38 2v3.24h5v1.44h-5v3.47a2.25 2.25 0 0 0 .74 1.55 2.29 2.29 0 0 0 1.64.47h4.32zM402.54 382.88a7.54 7.54 0 0 1-3 5.53 8.05 8.05 0 0 1-10.54-.65 7.24 7.24 0 0 1-2.38-5.48 7.43 7.43 0 0 1 2.31-5.51 7.76 7.76 0 0 1 5.62-2.22 8.25 8.25 0 0 1 4.09.93 8.1 8.1 0 0 1 3 3.32h-1.67a6.51 6.51 0 0 0-9.9-1 6.14 6.14 0 0 0-2 4.43 5.74 5.74 0 0 0 1.85 4.45 7 7 0 0 0 4.64 2 5.61 5.61 0 0 0 3.73-1.17 6.34 6.34 0 0 0 2.48-3.22h-8.39v-1.35zM416.41 389.8h-1.67l-2.13-5.08h-6.95l-2.1 5.08h-1.9l6.7-15H410zm-4.33-6.43l-2.85-6.87-2.91 6.87zM425.89 389.8h-4.3a4.11 4.11 0 0 1-2.81-1 3.5 3.5 0 0 1-1.09-2.75v-11.29h1.48v11.58a2.2 2.2 0 0 0 .75 1.54 2.32 2.32 0 0 0 1.66.47h4.31zM446.62 376.19h-4.31a2.28 2.28 0 0 0-1.65.47 2.31 2.31 0 0 0-.74 1.56v3.24h5v1.44h-5v6.9h-1.48v-11.33a3.43 3.43 0 0 1 1.09-2.73 4.08 4.08 0 0 1 2.79-1h4.3zM449.86 389.8h-1.48v-15h1.48zM461.24 385.64a4.17 4.17 0 0 1-1.3 3.13 4.55 4.55 0 0 1-6.36 0 4.44 4.44 0 0 1-1.33-3.22h1.58a3 3 0 0 0 .83 2.14 2.8 2.8 0 0 0 2.06.92 2.88 2.88 0 0 0 2.17-.86 2.77 2.77 0 0 0 .87-2.14c0-1.4-1-2.37-2.76-2.93l-1.59-.5a3.71 3.71 0 0 1-2-1.36 4.07 4.07 0 0 1-.72-2.32 3.68 3.68 0 0 1 1.23-2.82 4.08 4.08 0 0 1 2.94-1.14 3.89 3.89 0 0 1 2.85 1.22 4 4 0 0 1 1.17 2.88h-1.58a2.55 2.55 0 0 0-.69-1.83 2.53 2.53 0 0 0-3.65-.11 2.34 2.34 0 0 0-.79 1.85 2.26 2.26 0 0 0 1.72 2.29l1.81.57c2.3.74 3.51 2.14 3.54 4.23zM477.54 385.93a7.55 7.55 0 0 1-6.8 4.16 7.23 7.23 0 0 1-5.44-2.29 7.6 7.6 0 0 1-2.27-5.54 7.58 7.58 0 0 1 7.71-7.69 7.52 7.52 0 0 1 6.8 4.14h-1.69a6.22 6.22 0 0 0-9.52-.89 6.32 6.32 0 0 0-.06 8.9 6.08 6.08 0 0 0 7.43 1.13 6.08 6.08 0 0 0 2.17-1.92zM491.8 389.8h-1.67l-2.13-5.08h-6.94L479 389.8h-1.9l6.71-15h1.67zm-4.33-6.43l-2.84-6.87-2.92 6.87zM501.29 389.8H497a4.09 4.09 0 0 1-2.81-1 3.46 3.46 0 0 1-1.09-2.75v-11.29h1.48v11.58a2.23 2.23 0 0 0 .74 1.54 2.35 2.35 0 0 0 1.66.47h4.32z"/><path class="cls-2" d="M98.91 50l22-46.19L236.28 245.6h-49.49L98.91 50M438.56 172.47c-22.2 63-87.41 93.82-145.78 69.53s-87.71-94.43-65.42-157.73c20.73-58.86 79.28-90.39 133.93-75.15l-16.43 46.67C312 49.26 279.92 68 268.2 101.25c-13.09 37.16 5.32 78.56 41.22 93.49 36.18 15 75.59-2.29 88.68-39.44M453 53.52h28.88c38.07 0 67.65 30.94 67.65 74 0 42.74-29.58 74.31-67.36 74.31h-43.36l.17 44.65h43.17c62.67 0 113.92-50.71 113.92-119 0-67.61-51.25-118.64-114.21-118.64H453"/><path class="cls-1" d="M433.7 8.87h-40.28v44.65h40.4M71.45 210.55l-16.07 35.76H5.89l17.07-35.76"/><path class="cls-2" d="M171.06 135.63l-16.07 35.77H85.76l17.07-35.77"/><path class="cls-1" d="M0 312.52h5.38v77.84H0zM176.38 383.09a2.11 2.11 0 1 1 2.11 2.1 2.09 2.09 0 0 1-2.11-2.1zM360.55 383.09a2.12 2.12 0 1 1 2.12 2.1 2.1 2.1 0 0 1-2.12-2.1zM429.55 383.09a2.12 2.12 0 1 1 2.12 2.1 2.1 2.1 0 0 1-2.12-2.1z"/><path class="cls-2" d="M575.19 391.41H526.5a2 2 0 0 1-.59-.1 14 14 0 0 1-9.29-9.79l-.13-.47a1.9 1.9 0 0 1 1.84-2.39h14l-.19-60.49a1.92 1.92 0 0 1 .56-1.35 1.88 1.88 0 0 1 1.34-.56H585a1.91 1.91 0 0 1 1.9 1.91v10.21a1.9 1.9 0 0 1-3.8 0v-8.31H536l.19 60.49a1.89 1.89 0 0 1-1.9 1.9H521a10.24 10.24 0 0 0 5.8 5.14h48.38a7.92 7.92 0 0 0 7.91-7.91v-22.07a1.9 1.9 0 1 1 3.8 0v22.07a11.73 11.73 0 0 1-11.7 11.72z"/><path class="cls-2" d="M539.13 381.28a1.36 1.36 0 0 1-.61-.14 1.42 1.42 0 0 1-.67-1.9c3.39-7.16 4.44-7.52 4.95-7.7a1.57 1.57 0 0 1 1.24.08c1.09.54 1.17 1.89 1.23 4.11.74-1.06 1.82-2 3.3-1.34a8.15 8.15 0 0 1 2.2 1.83 8.43 8.43 0 0 0 1.56 1.4 25.06 25.06 0 0 0 3.58-3.15 1.43 1.43 0 1 1 2.06 2 25 25 0 0 1-4.38 3.74c-1.93 1.07-3.63-.69-4.87-2-.33-.34-.71-.73-1-1-.22.31-.48.8-.67 1.13-.57 1-1.11 2-2.08 2.32a1.68 1.68 0 0 1-1.46-.23c-.85-.61-1-1.73-1-3.92-.65 1.19-1.39 2.64-2 3.95a1.41 1.41 0 0 1-1.38.82zM578.24 330.28h-36.72a1.9 1.9 0 1 1 0-3.8h36.72a1.9 1.9 0 1 1 0 3.8zM574 339h-32.48a1.9 1.9 0 1 1 0-3.8H574a1.9 1.9 0 0 1 0 3.8zM568.18 347.8h-26.66a1.91 1.91 0 0 1 0-3.81h26.66a1.91 1.91 0 0 1 0 3.81zM558.9 357h-17.38a1.91 1.91 0 0 1 0-3.81h17.38a1.91 1.91 0 1 1 0 3.81z"/><path class="cls-2" d="M553.56 374.3a1.42 1.42 0 0 1-1.17-2.24c1.43-2 8.56-12.23 8.76-12.5.34-.45 26.82-26.87 27.05-27.1 2.27-2.18 4.84-2.47 6.55-.77 2 2 .64 4.92-.48 6.33l-.08.1-26 27.6a1.23 1.23 0 0 1-.31.24l-13.61 8.14a1.39 1.39 0 0 1-.71.2zm9.84-13c-.34.47-2.6 3.7-4.84 6.9l7.71-4.61 25.79-27.41c.4-.52 1.21-2 .67-2.5-.79-.8-2.27.54-2.55.81-1.12 1.1-25.51 25.51-26.78 26.84z"/><path class="cls-2" d="M584 353.44a1.38 1.38 0 0 1-1-.38 1.42 1.42 0 0 1-.08-2l7.6-8.22a1.8 1.8 0 0 0 .13-2.29l-.49-.65a1.43 1.43 0 1 1 2.29-1.7l.49.65a4.65 4.65 0 0 1-.33 5.93l-7.53 8.22a1.43 1.43 0 0 1-1.08.44zM526.36 391.12l-2-3.23 1.79-1.11a16.59 16.59 0 0 0 5.39-5.41l1.12-1.81 3.24 2-1.12 1.81a20.49 20.49 0 0 1-6.62 6.64z"/><path class="cls-1" d="M335.79 370l-2.38 2.79h-1.23l1.72-2.79z"/></g></svg>