<?xml version="1.0" encoding="utf-8"?>
<!-- Generator: Adobe Illustrator 23.1.0, SVG Export Plug-In . SVG Version: 6.00 Build 0)  -->
<svg version="1.1" id="Layer_2" xmlns="http://www.w3.org/2000/svg" xmlns:xlink="http://www.w3.org/1999/xlink" x="0px" y="0px"
	 viewBox="0 0 400 400" style="enable-background:new 0 0 400 400;" xml:space="preserve">
<style type="text/css">
	.st0{fill:#324450;}
	.st1{fill:#336381;}
	.st2{fill:#FDFDFD;}
</style>
<g>
	<g>
		<g>
			<path class="st0" d="M104.6,211.9v12.5h-64v-101h62v12.5H55.1v22.4h30v12.3h-30v41.2H104.6z"/>
		</g>
		<g>
			<path class="st0" d="M120.5,208.1c1.3,0.6,2.7,1.2,4.1,1.7c5.4,2,11.1,3,17.2,3c7.5,0,13.3-1.6,17.5-4.8
				c4.2-3.2,6.3-7.5,6.3-13.1c0-5.6-2.1-9.9-6.2-13c-4.1-3.1-10.4-4.6-18.7-4.6h-8.1v-10.1l25.4-31.2H117v-12.5h62.9v9.8l-30.4,32.6
				c9.9,1,17.5,4,22.6,9.2c5.2,5.1,7.8,11.7,7.8,19.7c0,5.8-1.4,11-4.3,15.6c-2.9,4.7-7.2,8.4-12.9,11.1c-5.7,2.7-12.7,4.1-21,4.1
				c-7.2,0-14.1-1.1-20.8-3.2c-1.9-0.6-3.8-1.3-5.5-2.1"/>
		</g>
		<g>
			<path class="st0" d="M212.4,218.9c-8.1-4.5-14.5-10.6-19.1-18.5c-4.6-7.8-6.9-16.7-6.9-26.5s2.3-18.6,6.9-26.5
				c4.6-7.8,11-14,19.2-18.5c8.2-4.5,17.3-6.7,27.4-6.7c7.9,0,15.1,1.3,21.6,4c6.5,2.6,12.1,6.6,16.7,11.8l-9.4,9.1
				c-7.6-8-17.1-12-28.4-12c-7.5,0-14.3,1.7-20.3,5c-6.1,3.4-10.8,8-14.2,13.9c-3.4,5.9-5.1,12.5-5.1,19.8c0,7.3,1.7,13.9,5.1,19.8
				c3.4,5.9,8.1,10.6,14.2,13.9c6.1,3.4,12.8,5,20.3,5c11.2,0,20.7-4,28.4-12.1l9.4,9.1c-4.6,5.2-10.2,9.1-16.8,11.8
				c-6.6,2.7-13.8,4-21.7,4C229.6,225.6,220.5,223.4,212.4,218.9z"/>
		</g>
	</g>
	<g>
		<g>
			<path class="st1" d="M55.1,180.5v31.4h49.6v12.5h-64V187"/>
		</g>
		<g>
			<path class="st1" d="M160.8,183.2c3.2,3,4.7,6.9,4.7,11.8c0,5.6-2.1,10-6.3,13.1c-4.2,3.2-10,4.8-17.5,4.8c-6.1,0-11.8-1-17.2-3
				c-1.4-0.5-2.8-1.1-4.1-1.7l-5,12.1c1.7,0.8,3.6,1.5,5.5,2.1c6.6,2.2,13.6,3.2,20.8,3.2c8.3,0,15.3-1.4,21-4.1
				c5.7-2.7,10-6.4,12.9-11.1c2.9-4.7,4.3-9.9,4.3-15.6c0-8-2.6-14.5-7.8-19.7c-1.2-1.1-2.4-2.2-3.8-3.1"/>
		</g>
		<g>
			<path class="st1" d="M200.8,174c0,7.3,1.7,13.9,5.1,19.8c3.4,5.9,8.1,10.6,14.2,13.9c6.1,3.4,12.8,5,20.3,5
				c11.2,0,20.7-4,28.4-12.1l9.4,9.1c-4.6,5.2-10.2,9.1-16.8,11.8c-6.6,2.7-13.8,4-21.7,4c-10.1,0-19.2-2.2-27.3-6.7
				c-8.1-4.5-14.5-10.6-19.1-18.5c-2.9-4.9-4.9-10.2-6-16"/>
		</g>
	</g>
	<g>
		<polygon class="st0" points="303.2,103.4 291.8,95 291.8,225.6 303.2,235.7 		"/>
	</g>
	<g>
		<path class="st1" d="M370.4,234.7V103.4h-62.7v134.8h0.5c-2.4,1.9-5.2,4-8.4,6c-20.4,12.4-66.7-5.1-130.8-6.5
			c-21.4-0.4-57.9-1-94,19.9c-23,13.3-37.1,29-45.6,40.4h134.4c9-16.4,28.3-23.2,42.6-25c32.2-4,95,19.4,147.2-15.9
			C358.1,254,373.1,241.8,370.4,234.7z"/>
	</g>
	<g>
		<rect x="317.7" y="174.6" class="st2" width="42.1" height="10.1"/>
	</g>
	<g>
		<rect x="317.7" y="145.1" class="st2" width="42.1" height="10.1"/>
	</g>
	<g>
		<rect x="317.7" y="115.6" class="st2" width="42.1" height="10.1"/>
	</g>
	<g>
		<path class="st2" d="M84.2,305c4.3-9.7,13.7-27.1,32.5-40.1c19-13.2,38-15.3,51.7-16.6c22.9-2.2,32,2.2,104.5,11.3
			c7.8,1,25.5,3,42.1-6c5.6-3,13.7-7.4,15.9-15.6c2.3-8.7,0.2-19.1,2.4-21.8c2.2-2.7,4.7-4.1,7.9-2.7c3.4,1.5,3.6,7.3,3.6,11.9
			c0.1,5.6,0.4,17.6-6.6,26.9c-5.4,7.2-14.1,11.2-33.8,13.6c-28.9,3.4-44.2,1.1-72.1-1.3c-31.9-2.7-53.4-7.2-76.5,2.3
			c-20.7,8.6-34.3,23.1-42.4,33.8"/>
	</g>
	<g>
		<path class="st0" d="M202.4,300.4c-1.2-0.4-2.1-0.9-2.8-1.6l0.9-1.9c0.7,0.6,1.5,1.1,2.5,1.4c1,0.4,2.1,0.5,3.1,0.5
			c1.4,0,2.5-0.2,3.2-0.7c0.7-0.5,1.1-1.1,1.1-1.9c0-0.6-0.2-1.1-0.6-1.4c-0.4-0.4-0.9-0.6-1.4-0.8c-0.6-0.2-1.4-0.4-2.4-0.7
			c-1.3-0.3-2.3-0.6-3.1-0.9c-0.8-0.3-1.5-0.8-2-1.4c-0.6-0.6-0.8-1.5-0.8-2.6c0-0.9,0.2-1.7,0.7-2.5c0.5-0.7,1.2-1.3,2.2-1.8
			c1-0.4,2.2-0.7,3.6-0.7c1,0,2,0.1,3,0.4c1,0.3,1.8,0.6,2.5,1.1l-0.8,2c-0.7-0.5-1.5-0.8-2.3-1c-0.8-0.2-1.6-0.4-2.4-0.4
			c-1.4,0-2.4,0.3-3.1,0.8c-0.7,0.5-1,1.2-1,2c0,0.6,0.2,1.1,0.6,1.4c0.4,0.4,0.9,0.7,1.5,0.9c0.6,0.2,1.4,0.4,2.4,0.6
			c1.3,0.3,2.3,0.6,3.1,0.9c0.8,0.3,1.5,0.8,2,1.4c0.6,0.6,0.8,1.5,0.8,2.6c0,0.9-0.2,1.7-0.7,2.5c-0.5,0.7-1.2,1.3-2.2,1.8
			c-1,0.4-2.2,0.6-3.7,0.6C204.9,301,203.6,300.8,202.4,300.4z"/>
		<path class="st0" d="M217.7,300.4c-0.3-0.3-0.5-0.7-0.5-1.2c0-0.5,0.2-0.9,0.5-1.2c0.3-0.3,0.7-0.5,1.2-0.5c0.5,0,0.8,0.2,1.1,0.5
			c0.3,0.3,0.5,0.7,0.5,1.2c0,0.5-0.2,0.9-0.5,1.2c-0.3,0.3-0.7,0.5-1.1,0.5C218.4,300.9,218,300.8,217.7,300.4z"/>
		<path class="st0" d="M237.7,296.5h-9.1l-1.9,4.3h-2.5l7.7-17.1h2.4l7.8,17.1h-2.6L237.7,296.5z M236.9,294.5l-3.7-8.4l-3.7,8.4
			H236.9z"/>
		<path class="st0" d="M246.4,300.4c-0.3-0.3-0.5-0.7-0.5-1.2c0-0.5,0.2-0.9,0.5-1.2c0.3-0.3,0.7-0.5,1.2-0.5c0.5,0,0.8,0.2,1.1,0.5
			c0.3,0.3,0.5,0.7,0.5,1.2c0,0.5-0.2,0.9-0.5,1.2c-0.3,0.3-0.7,0.5-1.1,0.5C247.1,300.9,246.7,300.8,246.4,300.4z"/>
		<path class="st0" d="M263.1,283.7h7.2c1.8,0,3.4,0.4,4.8,1.1c1.4,0.7,2.5,1.7,3.3,3c0.8,1.3,1.2,2.8,1.2,4.5
			c0,1.7-0.4,3.2-1.2,4.5c-0.8,1.3-1.9,2.3-3.3,3c-1.4,0.7-3,1.1-4.8,1.1h-7.2V283.7z M270.2,298.6c1.4,0,2.6-0.3,3.7-0.8
			s1.9-1.3,2.4-2.3c0.6-1,0.9-2.1,0.9-3.4c0-1.3-0.3-2.4-0.9-3.4c-0.6-1-1.4-1.7-2.4-2.3c-1.1-0.5-2.3-0.8-3.7-0.8h-4.6v12.9H270.2z
			"/>
		<path class="st0" d="M297.6,298.6v2.1h-12.4v-17.1h12.1v2.1h-9.6v5.3h8.6v2.1h-8.6v5.5H297.6z"/>
		<path class="st0" d="M314.8,299.8c-1.4-0.8-2.5-1.8-3.2-3.1c-0.8-1.3-1.2-2.8-1.2-4.5c0-1.7,0.4-3.2,1.2-4.5
			c0.8-1.3,1.9-2.4,3.2-3.1c1.4-0.8,2.9-1.1,4.6-1.1c1.3,0,2.6,0.2,3.7,0.7c1.1,0.4,2.1,1.1,2.8,2l-1.6,1.5c-1.3-1.4-2.9-2-4.8-2
			c-1.3,0-2.4,0.3-3.4,0.9s-1.8,1.4-2.4,2.4c-0.6,1-0.9,2.1-0.9,3.4c0,1.2,0.3,2.4,0.9,3.4c0.6,1,1.4,1.8,2.4,2.4
			c1,0.6,2.2,0.9,3.4,0.9c1.9,0,3.5-0.7,4.8-2.1l1.6,1.5c-0.8,0.9-1.7,1.5-2.8,2c-1.1,0.5-2.3,0.7-3.7,0.7
			C317.7,301,316.1,300.6,314.8,299.8z"/>
		<path class="st0" d="M330.6,300.4c-0.3-0.3-0.5-0.7-0.5-1.2c0-0.5,0.2-0.9,0.5-1.2c0.3-0.3,0.7-0.5,1.2-0.5c0.5,0,0.8,0.2,1.1,0.5
			c0.3,0.3,0.5,0.7,0.5,1.2c0,0.5-0.2,0.9-0.5,1.2c-0.3,0.3-0.7,0.5-1.1,0.5C331.3,300.9,330.9,300.8,330.6,300.4z"/>
		<path class="st0" d="M352.9,283.7l-7.5,17.1H343l-7.5-17.1h2.6l6.2,14l6.2-14H352.9z"/>
	</g>
</g>
</svg>
