<?xml version="1.0" encoding="utf-8"?>
<!-- Generator: Adobe Illustrator 23.1.0, SVG Export Plug-In . SVG Version: 6.00 Build 0)  -->
<svg version="1.1" id="Layer_2" xmlns="http://www.w3.org/2000/svg" xmlns:xlink="http://www.w3.org/1999/xlink" x="0px" y="0px"
	 viewBox="0 0 400 400" style="enable-background:new 0 0 400 400;" xml:space="preserve">
<style type="text/css">
	.st0{fill:#BB1A2F;}
	.st1{fill:#1E120D;}
	.st2{font-family:'Centaur';}
	.st3{font-size:22.6944px;}
</style>
<g>
	<g>
		<path class="st0" d="M202.5,116.4l13.3,24.4l-2.6,0.2c-5.2-16.9-17.6-20.1-25.9-28.3s-18.1-12.4-29.8-12.4c-9,0-16.8,1.8-23.3,5.5
			c-6.5,3.7-12.6,9.7-18.2,18c-11.4,17-17.1,36.3-17.1,58.1c0,10.4,1.4,20.2,4.1,29.5c2.7,9.2,6.7,17.4,12,24.5
			c10.2,13.7,22.6,20.5,37.3,20.5c5.8,0,13.5-1.5,18.7-3.6c7.6-3,14.3-5.7,17.6-9.9c4.5-5.9,6.7-13,6.7-21.1c0-7.5-2-13-6.1-16.3
			c-4.1-3.3-18.2-5.1-27.6-5.1v-2.6h72.7v2.6c-6.7,0.6-11.4,1.5-14.1,2.8s-4.7,3.4-6,6.4c-1.4,3.3-2.2,10-2.2,20
			c0,2.7,1.4,13.1-3.1,13.1c-1.7,0-6.4,1.6-9,3.3c-6.6,4.6-14.3,8.1-23,10.5c-8.7,2.4-18,3.6-27.7,3.6c-13.4,0-25.4-2.3-36.2-6.8
			c-10.8-4.6-19.5-11.1-26.2-19.6c-5-6.4-8.9-14-11.6-22.8c-2.7-8.8-4-18.2-4-28c0-13.6,2.4-26.3,7.3-38c4.9-11.7,11.7-21.4,20.5-29
			c7.2-6.2,15.5-10.9,25-14.3s19.4-5,29.9-5c6.1,0,11.7,0.6,16.9,1.7c5.2,1.1,10.7,3,16.6,5.6l6.7,3.1c1.7,0.7-2,5.3-0.7,5.3
			c3,0,2.4,6.1,4,1.2L202.5,116.4z"/>
		<path class="st0" d="M189.1,117.7v121.4c0,7.8-1.6,11.3-1.6,3.6V136.3c0-7.7-0.4-13.4-1.3-17.2c-0.9-3.8-2.5-6.9-4.8-9.3
			c-2.1-2.2-3.7-4.7-6.9-6.3c-2.6-1.3-6.9-2.8-11.3-3l0.2-3.5h0c22.7,2.3,43.6,13.2,58.5,30.5l78.2,91.2v-82.3
			c0-7.8-0.4-13.6-1.3-17.3c-0.9-3.7-2.5-6.8-4.8-9.2c-2.1-2.2-4.5-3.8-7.2-4.8s-6.2-1.6-10.5-1.8v-2.6h52.6v2.6
			c-7.6,0-13.5,2.2-17.8,6.6c-2.4,2.4-4,5.5-4.8,9.3s-1.3,9.5-1.3,17.2v119.9h-5.1L189.1,117.7z"/>
	</g>
	<text transform="matrix(1 0 0 1 31.8145 296.9666)" class="st1 st2 st3">Gestión Empresarial de la Nueva España</text>
</g>
</svg>
