<?xml version="1.0" encoding="utf-8"?>
<!-- Generator: Adobe Illustrator 23.1.0, SVG Export Plug-In . SVG Version: 6.00 Build 0)  -->
<svg version="1.1" id="Layer_2" xmlns="http://www.w3.org/2000/svg" xmlns:xlink="http://www.w3.org/1999/xlink" x="0px" y="0px"
	 viewBox="0 0 400 400" style="enable-background:new 0 0 400 400;" xml:space="preserve">
<style type="text/css">
	.st0{fill:#96C8A3;}
	.st1{fill:#50AFCF;}
	.st2{fill:#7087B7;}
	.st3{fill:#EBB86B;}
	.st4{fill:#0F8140;}
	.st5{fill:#C47AA6;}
	.st6{fill:#DF837B;}
	.st7{fill:#ECDF78;}
	.st8{fill:#FFFFFF;}
	.st9{fill:#096B93;}
	.st10{font-family:'BaskOldFace';}
	.st11{font-size:70.2434px;}
</style>
<g>
	<path class="st0" d="M259.5,230.7c0-2.6,0-5.2,0-7.8c0-3,0-6.1,0-9.1c0-4.8,0-9.5,0-14.3c0-0.6-0.2-1-0.5-1.5
		c-2.2-3.6-5-6.6-8.1-9.4c-3.5-3.1-7.4-5.7-11.5-7.8c-0.7-0.3-1.4-0.4-2.1-0.3c-5.2,0.4-9.2,3-12.5,6.8c-0.2,0.3-0.5,0.6-0.7,0.9
		c-0.2,0.2-0.3,0.4-0.6,0.2c-0.3-0.2-0.5-0.4-0.2-0.8c0.3-0.4,0.5-1,0.9-1.4c0.5-0.6,0.3-1-0.3-1.3c-2.2-1.2-4.3-1-6.4,0.1
		c-0.4,0.2-0.8,0.5-1.2,0.8c-0.2,0.1-0.4,0.3-0.6,0c-0.2-0.3,0.1-0.4,0.2-0.5c1.4-1.4,3.1-2.1,5-2.4c1.6-0.2,3.2-0.1,4.7,0.3
		c0.5,0.1,0.9,0.1,1.2-0.3c1.9-2.1,4-3.8,6.8-4.5c-0.6-0.4-1.1-0.6-1.7-0.8c-6.1-2.4-12.5-3.7-19-4.7c-5.4-0.8-10.9-1-16.4-1.1
		c-0.6,0-1.2,0-1.8-0.1c-0.4,0-0.5-0.3-0.5-0.6c0-0.3,0.2-0.5,0.5-0.6c0.1,0,0.2,0,0.3,0c5.4-0.1,10.9-0.4,16.3,0
		c4.4,0.3,8.8,0.7,13.1,1.6c0.3,0.1,0.6,0.1,0.9,0.1c0.1-0.2,0-0.3-0.1-0.4c-4.8-5.4-10.1-10-16.7-13c-1.6-0.7-3.3-1.3-4.9-1.7
		c-0.4-0.1-0.8-0.2-0.8-0.7c0.1-0.7,0.6-0.5,1-0.4c5.6,0.8,10.6,3.1,15.4,6.1c5.1,3.2,9.6,7.2,13.6,11.6c0.4,0.4,0.8,0.7,1.3,0.9
		c3.1,0.9,6.1,2.1,9,3.4c0.2,0.1,0.4,0.3,0.7,0.2c-0.2-0.8-0.4-1.7-0.5-2.5c-0.2-2,0.3-3.8,1.9-5.2c0.2-0.2,0.4-0.5,0.8-0.2
		c0.4,0.2,0,0.5,0,0.7c-1.1,3.1-0.6,5.9,1.2,8.5c0.2,0.3,0.5,0.4,0.7,0.6c3.1,2.2,6.3,4.3,9.1,6.8c0.7,0.6,1.4,1.3,2.3,2.1
		c-0.1-0.8-0.1-1.5-0.1-2.1c-0.2-5.9,0.5-11.7,2.2-17.3c0.6-2.1,0.4-3.7-0.5-5.5c-4.4-8.4-10-15.7-17.5-21.5
		c-1.7-1.3-3.5-2.4-5.4-3.5c-0.2-0.1-0.4-0.2-0.6-0.3c-0.3-0.2-0.3-0.5-0.1-0.8c0.2-0.4,0.4-0.3,0.7-0.2c3.8,1.6,7.4,3.6,10.6,6.1
		c0.2,0.1,0.3,0.4,0.7,0.4c-0.2-1.1-0.5-2.2-0.6-3.3c-0.1-0.7,0-1.4,0.3-2.1c0.2-0.5,0.6-0.8,1.1-0.3c0.3,0.3,0.5,0.5,0,0.7
		c-0.4,0.2-0.5,0.6-0.5,1c-0.1,1.9,0.6,3.6,1.4,5.3c0.1,0.1,0.2,0.2,0.3,0.3c4.9,4.1,9,8.9,12.6,14.1c0.1,0.1,0.2,0.2,0.3,0.4
		c0.6-1.3,1.1-2.5,1.7-3.7c3.2-6.6,7.5-12.2,13.2-16.8c0.6-0.5,1-0.4,1.2,0.1c0.1,0.4-0.2,0.6-0.4,0.8c-1.8,1.9-3.3,4-4.8,6.2
		c-0.1,0.2-0.3,0.5-0.4,0.7c0.2,0.2,0.4,0,0.5-0.1c2.2-1.1,4.5-1.7,6.9-1.7c0.6,0,1.1-0.2,1.5-0.5c2.3-1.9,4.8-3.3,7.8-3.8
		c0.3,0,0.7-0.3,0.8,0.2c0.1,0.5-0.4,0.3-0.7,0.4c-1.1,0.3-2.3,0.7-3.3,1.4c-0.6,0.4-1.2,1-1.5,1.6c-0.5,1-0.5,1.2,0.6,1.4
		c0.4,0.1,0.8,0.2,1.2,0.4c0.4,0.1,0.5,0.4,0.4,0.7c-0.1,0.4-0.4,0.3-0.6,0.3c-3.6,0.1-7.1,0.5-10.6,1.5c-1.6,0.5-3.2,1.2-4.6,2.1
		c-0.7,0.5-1.2,1.1-1.6,1.9c-2.2,5.2-3.3,10.6-4,16.2c-0.8,6-0.1,11.9,0.7,17.8c0,0.1,0.1,0.3,0.1,0.4c0,0.1,0.1,0.1,0.1,0.3
		c0.3-0.3,0.7-0.6,1-0.9c3.1-3,6.5-5.5,10.2-7.8c0.6-0.4,0.9-0.9,1-1.6c0.1-2.7,0.6-5.4,1.7-7.9c0.5-1.2,1.2-2.2,2.1-3.2
		c0.8-1,1.8-1.4,3.1-0.8c-0.3,0.2-0.6,0.5-0.9,0.7c-3,2.7-3.6,6-3,9.8c0.1,0.6,0.5,0.4,0.8,0.2c2.3-1.1,4.6-2.3,7-3.2
		c1.3-0.5,2.4-1.2,3.5-2c3.3-2.6,6.6-5.3,9.7-8.3c0.7-0.7,1.2-1.4,1.3-2.4c0.4-3.9,0.7-7.7,0.6-11.6c0-0.9-0.2-1.8-0.6-2.6
		c-0.1-0.2-0.3-0.4,0-0.6c0.3-0.2,0.4,0.1,0.5,0.3c0.8,1.3,1.2,2.8,1.5,4.3c0.5,2.8,0.5,5.5,0.2,8.3c0,0.1-0.1,0.3,0.1,0.5
		c0.9-0.9,1.7-1.8,2.3-2.8c0.2-0.2,0.3-0.6,0.6-0.5c0.6,0.1,0.8,0.5,0.4,1c-1.2,1.9-2.5,3.5-4,5.2c-2.1,2.4-4.4,4.6-6.7,6.8
		c-0.4,0.4-0.8,0.8-1.1,1.1c0,0,0,0.1,0,0.1c0,0,0.1,0,0.1-0.1c0,0-0.1-0.1-0.1-0.1c0.2,0.3,0.4,0.1,0.5,0
		c6.8-2.2,13.7-3.7,20.7-4.9c0.4-0.1,0.7-0.2,0.9,0.4c0.1,0.6-0.2,0.7-0.6,0.8c-4.2,1.2-8.4,2.4-12.5,3.9
		c-8.6,3.1-16.8,6.8-24.2,12.2c-5,3.6-9.7,7.7-13.1,13c0,0-0.1,0.1-0.1,0.1c-1.4,2-2.1,4.1-2,6.6c0.2,3.8,0.1,7.7,0.1,11.6
		c-0.1,5.7-0.1,11.3,0,17c0,2.1,0,19.8,0,27.7c0,2,9.7,5.1,9.7,5.1s-15.3,2.4-18.5-1c-0.4-0.5-1-1.7-1-4.5
		C259.5,249,259.5,232.7,259.5,230.7z"/>
	<path class="st1" d="M219.1,121.9c0.1-0.8,0.1-1.5,0.2-2.3c0-0.5,0.2-0.5,0.6-0.4c6.5,2.1,12,5.7,15.5,11.8c1,1.8,0.9,4-0.3,5.6
		c-1.3,1.6-3.8,2.4-5.8,1.8c-1.3-0.4-2.4-1.1-3.3-2c-2.2-2.1-4.1-4.5-5.3-7.2C219.6,126.9,219.1,124.4,219.1,121.9z"/>
	<path class="st1" d="M283.8,137.9c-0.7,0-1.3-0.1-2-0.1c-0.7,0-0.9-0.3-0.7-1c0.5-2,1.5-3.8,2.9-5.3c4.7-5,10.5-7.8,17.4-8.3
		c0.8-0.1,1.6,0,2.4-0.1c0.7-0.1,0.8,0.2,0.7,0.8c-0.6,2.7-1.6,5.2-3.9,7.1c-3.4,2.8-7,5.1-11.3,6.2
		C287.6,137.6,285.7,137.8,283.8,137.9z"/>
	<path class="st2" d="M265.3,142.5c0.1-4,1.3-7.6,3.6-10.8c2.4-3.3,5.3-6.2,9.1-7.9c1-0.5,1.1-0.4,1.4,0.7c0.5,1.8,0.4,3.7-0.2,5.4
		c-1.1,3.1-2.4,6.1-4.4,8.7c-1.6,2.3-3.6,4.2-6.3,5.2c-0.8,0.3-1.6,0.5-2.4,0.6c-0.6,0.1-0.9-0.1-0.9-0.7
		C265.3,143.4,265.3,143,265.3,142.5z"/>
	<path class="st3" d="M332,166.4c-2.6,0-5.1-0.4-7.5-1.3c-0.9-0.3-0.9-0.4-0.3-1.1c3.6-3.9,8.1-5.9,13.2-6.6
		c3.7-0.5,7.3-0.1,10.9,0.8c0.5,0.1,0.9,0.2,0.3,0.8C344.1,163.7,338.7,166.3,332,166.4z"/>
	<path class="st4" d="M267.8,123.9c-1,3.2-1.9,6.3-3.9,8.8c-1.4,1.8-3.1,3.4-5.2,4.4c-2.6,1.2-5.1,0.8-7.6-0.4
		c-0.5-0.2-0.5-0.7-0.5-1.1c-0.1-2.5,0.9-4.4,2.9-5.9c1.1-0.8,2.4-1.4,3.7-2c3.2-1.5,6.5-2.8,9.9-3.6
		C267.3,124,267.5,124,267.8,123.9z"/>
	<path class="st2" d="M200.5,142.6c0-2.4,0-2.4,1.7-2.3c3.2,0.2,6.2,1,8.6,3.3c2.9,2.7,3.9,6.2,4,10.1c0,0.5-0.2,0.7-0.7,0.6
		c-3.8-0.4-7.3-1.5-10.2-4.3C201.6,147.9,200.5,145.1,200.5,142.6z"/>
	<path class="st2" d="M335.7,178.8c-4-0.2-8-0.5-11.8-1.8c-1.7-0.6-3.3-1.4-4.6-2.7c-0.7-0.8-1.2-1.7-1.3-2.8
		c-0.1-0.6,0.2-1.1,0.7-1.4c2.7-1.7,5.5-2.1,8.5-0.9c3.1,1.2,5.4,3.3,7.5,5.7c0.9,1,1.7,2.1,2.5,3.3c0.1,0.2,0.3,0.3,0.2,0.5
		c-0.1,0.3-0.4,0.2-0.6,0.2C336.4,178.8,336,178.8,335.7,178.8z"/>
	<path class="st5" d="M218.6,146.4c0-3.2,1-6,2.8-8.6c0.4-0.6,0.7-0.6,1.2-0.1c4.2,4.2,5.3,10,2.8,15.7c-0.6,1.3-1.3,2.6-2.1,3.8
		c-0.2,0.4-0.5,0.6-0.8,0.1C220.2,154.1,218.6,150.5,218.6,146.4z"/>
	<path class="st5" d="M241.5,162.1c0-1.8,0.2-3.8,1.1-5.7c1.3-2.7,3.5-4.1,6.5-4.2c0.6,0,1.1,0.2,1.4,0.7c1.7,2.8,1.9,5.6,0.1,8.4
		c-1.9,3.1-4.8,5-7.9,6.6c-0.6,0.3-0.6-0.1-0.7-0.5C241.7,165.8,241.5,164.1,241.5,162.1z"/>
	<path class="st6" d="M307.6,175c3.3,0,6.2,0.7,9.1,1.8c0.3,0.1,0.7,0.3,0.2,0.7c-5.2,4.3-12.1,6.6-18.7,3.9
		c-0.8-0.3-1.6-0.8-2.4-1.2c-0.6-0.3-0.6-0.6-0.1-1c3.1-2.5,6.6-3.9,10.6-4.2C306.8,175,307.3,175,307.6,175z"/>
	<path class="st5" d="M312.4,163.7c-0.4,0-1.3-0.1-2.1-0.2c-0.8-0.1-0.9-0.3-0.4-0.9c3.2-4.8,7.5-8.1,13.2-9.3
		c2.1-0.4,4.2-0.4,6.3-0.1c0.4,0.1,0.9,0.1,0.4,0.7c-3.8,4.6-8.2,8.4-14.2,9.6C314.7,163.6,313.8,163.7,312.4,163.7z"/>
	<path class="st3" d="M249.5,171.5c0-1.6,0.1-3.2,0.4-4.7c0.1-0.3,0.1-0.6,0.6-0.4c4.8,2.2,8.3,7.8,8.1,13.1c-0.1,1.5-0.4,3-0.9,4.4
		c-0.2,0.6-0.5,0.6-1,0.4c-3.6-1.5-5.6-4.3-6.6-7.9C249.6,174.8,249.4,173.2,249.5,171.5z"/>
	<path class="st7" d="M238.8,163.9c0,3.9-0.8,6.2-3.2,7.9c-1,0.7-1,0.7-1.8-0.1c-3.2-3.3-4.5-7-3.1-11.5c0.7-2.2,2-3.9,3.5-5.6
		c0.2-0.3,0.5-0.4,0.7,0C236.8,157.8,238.7,161.1,238.8,163.9z"/>
	<path class="st7" d="M302.2,185c-3.1,2.5-6.3,4.4-10.1,5.3c-1.8,0.4-3.5,0.4-5.3,0c-1.3-0.3-2.5-0.9-3.5-1.7
		c-0.5-0.4-0.5-0.7-0.2-1.2c0.9-1.3,2.1-2.2,3.5-2.8c1.4-0.6,2.9-0.9,4.5-1C294.9,183.2,298.5,183.9,302.2,185z"/>
	<path class="st1" d="M280,166.1c0.1,0.3,0,0.5-0.1,0.7c-1,2.4-1.4,4.9-1.3,7.5c0,0.5-0.1,1-0.3,1.4c-1,2.1-2.2,3.9-4.1,5.2
		c-1.1,0.8-2.2,1.2-3.5,1.2c-0.6,0-0.9-0.2-1-0.8c-0.4-3.2,0.5-6.1,2.3-8.8c2-2.8,4.7-4.8,7.7-6.3
		C279.8,166.2,279.9,166.2,280,166.1z"/>
	<path class="st3" d="M197.8,156.4c-4,0-7.4-0.7-10.5-2.6c-1.8-1.1-3.2-2.7-4.2-4.5c-0.3-0.5-0.2-0.7,0.4-0.9
		c6.3-1.1,13,0.8,17.3,6.8c0.5,0.7,0.5,0.8-0.4,0.9C199.4,156.4,198.4,156.4,197.8,156.4z"/>
	<path class="st1" d="M317.4,149.7c0.1-0.8,0.2-1.5,0.2-2.3c0.1-3.2-0.6-6.3-1.7-9.2c-0.5-1.4-0.3-2.3,0.7-3.3
		c2.1-2.1,4.3-4.1,6.7-5.8c0.1-0.1,0.2-0.1,0.5-0.3c-0.2,1.8-0.3,3.4-0.5,5.1c-0.4,3.2-0.9,6.3-1.8,9.4
		C320.8,145.9,319,147.7,317.4,149.7z"/>
	<path class="st7" d="M186.6,167.5c2.4,0.1,4.4,1,6,2.8c0.2,0.3,0.5,0.5,0.1,0.9c-2,1.7-4.1,3.3-6.7,4c-3.3,0.9-6.7-0.4-8.6-3.3
		c-0.2-0.3-0.3-0.6,0.1-0.9c2.5-1.8,5.2-3.2,8.3-3.5C186.1,167.5,186.4,167.5,186.6,167.5z"/>
	<path class="st2" d="M309.9,149.2c0-2.6,0.9-5,2.1-7.3c0.6-1.2,1.3-2.4,2.1-3.5c0.2-0.4,0.5-0.6,0.7,0c1.4,3.3,2.4,6.6,1.9,10.3
		c-0.4,2.5-1.7,4.4-3.9,5.6c-0.7,0.4-1.1,0.3-1.6-0.3C310.2,152.5,309.9,150.9,309.9,149.2z"/>
	<path class="st7" d="M247.4,134.3c0,1.3-0.4,2.5-1.1,3.6c-0.4,0.5-0.8,0.7-1.5,0.5c-2.5-0.8-4.4-3.3-4.4-5.9c0-3.1,0.8-6.1,2.2-8.9
		c0.4-0.8,0.5-0.8,1.1-0.1c1.6,1.7,2.4,3.8,2.9,6C247.1,131,247.4,132.6,247.4,134.3z"/>
	<path class="st1" d="M301.7,197.1c-4.2,0-6.8-0.8-8.7-3.3c-0.7-0.9-0.7-1,0.3-1.5c4.2-2,8.6-1.8,12.9-0.4c1.3,0.4,2.5,1,3.7,1.6
		c0.4,0.2,0.6,0.4,0.1,0.6C307,195.8,303.9,197.1,301.7,197.1z"/>
	<path class="st3" d="M304.7,133.7c1,0.1,1.9,0.2,2.9,0.3c0.5,0.1,0.7,0.3,0.4,0.8c-1.1,2.4-2.5,4.5-4.7,6c-2.8,1.9-5.7,1.8-8.6,0.3
		c-0.5-0.2-0.4-0.5-0.2-0.9C296.4,135.8,299.9,133.7,304.7,133.7z"/>
	<path class="st5" d="M299.2,156.3c0.4,0,0.9-0.1,1.3-0.1c0.4,0,0.6,0.2,0.4,0.6c-1.7,2.8-3.5,5.6-6.3,7.5c-2.2,1.4-4.3,1.6-6.6,0.3
		c-0.7-0.4-0.8-0.8-0.6-1.4c0.7-2.5,2.3-4.2,4.6-5.3C294.2,156.8,296.7,156.4,299.2,156.3z"/>
	<path class="st7" d="M277.7,155.7c0,3.1-0.8,6-2.9,8.4c-1,1.2-2.2,2-3.6,2.6c-0.4,0.2-0.7,0.2-0.8-0.4c-0.6-3.6-0.5-7,1.9-10
		c1.2-1.6,2.9-2.4,4.8-3c0.4-0.1,0.7,0,0.7,0.5C277.7,154.5,277.7,155.1,277.7,155.7z"/>
	<path class="st2" d="M237.3,150.3c-2.2-0.1-4.4-1-6.4-2.5c-0.5-0.4-0.4-0.7,0-1.1c2.5-2.9,5.6-3.8,9.2-2.8c1.5,0.4,2.9,1.2,4.3,2
		c0.2,0.1,0.6,0.2,0.3,0.6C242.8,148.7,240.6,150.3,237.3,150.3z"/>
	<path class="st7" d="M205.9,195.2c-2,0-2,0-1.8-2c0.1-0.7,0.2-1.4,0.4-2.1c1.3-4.4,4.4-5.6,8.4-5c0.6,0.1,0.8,0.3,0.8,1
		c0,1.6-0.2,3.1-0.9,4.5C211.2,194.2,208.8,195.2,205.9,195.2z"/>
	<path class="st6" d="M216.6,168.1c-3.3,0.4-6.5,0.3-9.6-1c-2.3-1-4.2-2.5-5.4-4.6c-0.4-0.7-0.3-0.8,0.5-1c5.3-1,11.8,1.8,14.6,6.4
		C216.6,167.9,216.6,167.9,216.6,168.1z"/>
	<path class="st6" d="M265.4,149.9c0,1.9-0.5,3.3-1.6,4.6c-0.4,0.5-0.8,0.6-1.4,0.1c-2.5-2-3.5-4.7-3.5-7.8c0-2.1,0.6-4,1.3-6
		c0.2-0.4,0.3-0.7,0.7-0.2c2,2.4,3.7,5,4.2,8.2C265.4,149.3,265.4,149.7,265.4,149.9z"/>
	<path class="st3" d="M200.4,180.4c2.5,0,4.6,0.9,6.5,2.4c0.3,0.2,0.4,0.4,0.1,0.7c-2.4,2.1-5.7,3.8-9.2,2.6
		c-1.4-0.5-2.6-1.3-3.7-2.4c-0.4-0.4-0.3-0.6,0.1-1C196,181.3,198.1,180.4,200.4,180.4z"/>
	<path class="st3" d="M293.1,198.2c-1.3,0-2.4,0.1-3.6,0c-3.1-0.2-6.2-0.5-9.2-1.6c-1.1-0.4-2.2-0.9-3-1.8c-0.6-0.6-0.5-0.9,0.1-1.4
		c1.2-0.9,2.5-1.1,4-0.9c2.7,0.4,5.1,1.6,7.5,2.9C290.3,196.2,291.7,197.1,293.1,198.2z"/>
	<path class="st4" d="M193,166.2c-2.8,0-5.1-0.9-6.5-3.5c-0.4-0.8-0.4-0.9,0.4-1.2c4.6-1.9,8.8,0.5,11,3.1c0.3,0.3,0.3,0.6-0.2,0.8
		C196.2,165.8,194.6,166.2,193,166.2z"/>
	<path class="st7" d="M316.8,128.4c-0.1,1.7-0.6,3.4-1.8,5c-0.8,1.1-1.9,1.5-3.2,1.3c-0.8-0.1-1.3-0.5-1.3-1.3
		c-0.2-1.5,0-2.9,0.8-4.2c0.9-1.6,2-3.1,3.4-4.4c0.8-0.8,1.2-0.7,1.6,0.4C316.7,126.1,316.8,127.1,316.8,128.4z"/>
	<path class="st7" d="M234.2,189.5c-1,0-2-0.2-3.1-0.4c-0.3-0.1-0.7-0.2-0.4-0.6c1.7-2.1,3.6-4,6.4-4.6c1.6-0.3,3,0.1,4.4,1
		c0.5,0.3,0.4,0.6,0.1,1c-1.6,2.5-4,3.6-6.9,3.6C234.6,189.5,234.5,189.5,234.2,189.5z"/>
	<path class="st6" d="M216,196.1c0.1-1.6,0.3-3.2,1-4.7c0.9-1.9,2.4-3.1,4.6-3.2c0.6,0,0.8,0.2,1,0.7c0.7,2.8-0.2,5.3-2.6,6.9
		c-0.9,0.6-1.9,1-2.9,1.3c-0.9,0.3-1,0.2-1-0.7C216.1,196.3,216,196.2,216,196.1z"/>
	<path class="st7" d="M331.7,142.5c1.6,0,1.6,0,1,1.5c-0.7,1.8-1.7,3.4-3.3,4.6c-1.6,1.2-3.4,1.3-5.2,0.8c-0.5-0.1-0.5-0.4-0.4-0.8
		C324.8,144.9,327.9,142.6,331.7,142.5z"/>
	<path class="st4" d="M222.3,181.2c-0.5,0-1.1-0.1-1.6-0.3c-1-0.4-2.1-0.6-3.2-0.5c-0.2,0-0.4,0.1-0.5,0c-0.2-0.2,0.1-0.4,0.2-0.6
		c1.9-3.4,5.2-4.5,8.8-3c0.4,0.2,0.9,0.4,1.3,0.7c1.2,0.7,1.2,0.9,0.2,1.8C226.3,180.3,224,181.2,222.3,181.2z"/>
	<path class="st2" d="M287,156.5c0-0.9,0.2-1.8,0.5-2.6c0.9-2.1,3-3.2,5.2-2.8c0.5,0.1,0.5,0.4,0.5,0.8c0.3,2.7-1.1,4.7-3.6,5.5
		c-0.4,0.1-0.9,0.2-1.3,0.3C287.1,157.9,287,157.8,287,156.5z"/>
	<path class="st6" d="M295.3,149.2c-1.4,0-2.7-0.4-3.8-1.5c-0.4-0.4-0.4-0.7,0.1-1c1.7-1.2,3.7-1.5,5.7-1.1c1.3,0.2,2.6,0.7,3.8,1.3
		c0.3,0.2,0.5,0.3,0,0.6C299.4,148.4,297.5,149.3,295.3,149.2z"/>
	<path class="st2" d="M225.5,195c0-1.2,0.4-2.5,1.1-3.6c0.2-0.4,0.5-0.5,0.7,0c1,1.9,1.8,3.9,1.8,6.1c0,1-0.2,1.9-0.8,2.7
		c-0.5,0.6-0.8,0.6-1.2,0C226.2,198.7,225.5,197,225.5,195z"/>
	<path class="st4" d="M284.5,153.8c0,2.6-0.7,4.8-1.8,6.9c-0.3,0.5-0.5,0.5-0.8,0c-0.7-1.3-0.7-2.6-0.6-4c0.2-2.1,0.9-4,1.9-5.9
		c0.1-0.2,0.2-0.4,0.4-0.4c0.2,0,0.3,0.3,0.4,0.5C284.3,151.9,284.5,152.9,284.5,153.8z"/>
	<path class="st7" d="M257,144.1c0,1-0.7,2.2-1.6,3.2c-0.2,0.3-0.5,0.4-0.7,0.1c-1.2-1.5-2.2-3-1.8-5.1c0.2-1,0.7-1.7,1.5-2.3
		c0.3-0.3,0.6-0.3,1,0C256.4,141.1,257,142.2,257,144.1z"/>
	<path class="st1" d="M206.8,177.2c2.8,0,4.7,1.1,6.4,3c0.3,0.3,0.3,0.6-0.2,0.6c-3,0.5-5.7,0-7.8-2.4c-0.2-0.2-0.5-0.4-0.4-0.7
		c0.1-0.3,0.5-0.3,0.8-0.3C206.1,177.3,206.6,177.2,206.8,177.2z"/>
	<path class="st8" d="M299.6,170c0,0,0.1,0.1,0.1,0.1c0,0-0.1,0-0.1,0.1C299.6,170.1,299.7,170.1,299.6,170
		C299.7,170,299.6,170,299.6,170z"/>
	<g>
		<text transform="matrix(1 0 0 1 27.5613 252.0665)" class="st9 st10 st11">Campes</text>
	</g>
	<g>
		<g>
			<g>
				<g>
					<path class="st9" d="M82.6,188.4l5.3-0.7v10.6l0,1.4c0,0.8,0,1.4,0.1,1.8c0.1,0.4,0.3,0.7,0.6,1c0.3,0.3,1,0.6,1.9,0.7v0.4
						h-8.1v-0.4c0.7-0.1,1.3-0.2,1.6-0.4c0.3-0.2,0.6-0.5,0.8-0.9c0.1-0.3,0.2-0.7,0.3-1.3c0.1-0.6,0.1-1.4,0.1-2.5v-4.5
						c0-1.3,0-2.1-0.1-2.6c-0.1-0.5-0.2-0.9-0.4-1.2c-0.2-0.3-0.5-0.6-0.8-0.7c-0.3-0.2-0.7-0.2-1.3-0.3V188.4z"/>
				</g>
			</g>
			<path class="st9" d="M96.8,187.7c0.2,0.9,0.4,1.7,0.4,2.5c0.8-0.8,1.6-1.4,2.6-1.9c1-0.4,2-0.7,3-0.7c1.1,0,2.1,0.3,2.9,0.9
				c0.5,0.4,1,1,1.6,1.9c0.9-0.9,1.9-1.6,2.8-2.1c0.9-0.4,2-0.7,3-0.7c1.5,0,2.7,0.4,3.6,1.2s1.4,1.8,1.4,3.1v6.2l0,1.4
				c0,0.8,0,1.4,0.1,1.8c0.1,0.4,0.3,0.7,0.5,1c0.4,0.3,1,0.6,1.9,0.8v0.4h-8.1v-0.4c0.7-0.1,1.3-0.2,1.6-0.4
				c0.3-0.2,0.6-0.5,0.8-0.9c0.1-0.3,0.2-0.7,0.3-1.3c0.1-0.6,0.1-1.4,0.1-2.4v-3.5c0-1.4,0-2.3-0.1-3c-0.1-0.6-0.3-1.2-0.5-1.6
				c-0.6-1-1.6-1.6-3-1.6c-1.5,0-2.6,0.6-3.3,1.7c-0.6,1-0.9,2.5-0.9,4.5v3.5l0,1.4c0,0.8,0,1.4,0.1,1.8c0.1,0.4,0.3,0.7,0.6,1
				c0.3,0.3,1,0.6,1.9,0.8v0.4h-8.1v-0.4c0.7-0.1,1.3-0.2,1.6-0.4c0.3-0.2,0.6-0.5,0.8-0.9c0.1-0.3,0.2-0.7,0.3-1.3
				c0.1-0.6,0.1-1.4,0.1-2.4v-3.4c0-1.4,0-2.5-0.1-3.1c-0.1-0.7-0.3-1.2-0.5-1.6c-0.3-0.4-0.6-0.8-1.1-1c-0.5-0.3-1-0.4-1.6-0.4
				c-0.7,0-1.3,0.2-2,0.5c-0.6,0.3-1.1,0.8-1.4,1.3c-0.3,0.5-0.6,1.1-0.7,1.8c-0.1,0.7-0.2,1.6-0.2,2.7v3.4l0,1.4
				c0,0.8,0,1.4,0.1,1.8c0.1,0.4,0.3,0.7,0.6,1c0.3,0.3,1,0.6,1.9,0.8v0.4h-8.1v-0.4c0.7-0.1,1.3-0.2,1.6-0.4
				c0.3-0.2,0.6-0.5,0.8-0.9c0.1-0.3,0.2-0.7,0.3-1.3c0.1-0.6,0.1-1.4,0.1-2.5v-4.5c0-1.3,0-2.1-0.1-2.6c-0.1-0.5-0.2-0.9-0.4-1.2
				c-0.2-0.3-0.5-0.6-0.8-0.7c-0.3-0.2-0.7-0.2-1.3-0.3v-0.4L96.8,187.7z"/>
			<path class="st9" d="M125.5,193.6c0,0.6-0.1,1-0.1,1.3c0,1.1,0.2,2.1,0.5,3.1c0.3,1,0.7,1.9,1.3,2.5c0.5,0.7,1.2,1.2,2,1.6
				c0.8,0.4,1.7,0.6,2.5,0.6c0.7,0,1.3-0.1,1.9-0.3s1.1-0.5,1.5-0.9c0.4-0.4,0.8-1.1,1.1-2.1l0.4,0.1c-0.3,1.4-1,2.5-2,3.2
				c-1,0.7-2.4,1.1-4.2,1.1c-1.5,0-2.8-0.2-3.9-0.7c-1.1-0.5-2-1.2-2.7-2.2c-1-1.4-1.6-3.1-1.6-5.1c0-2.8,1-4.9,3-6.5
				c1.4-1.1,3.1-1.7,4.9-1.7c1,0,1.9,0.2,2.7,0.5c0.8,0.3,1.5,0.9,2.1,1.5c0.9,1,1.3,2.3,1.3,3.9H125.5z M133.5,192.9
				c-0.1-1.2-0.3-2.2-0.7-2.8c-0.3-0.6-0.8-1.1-1.3-1.4c-0.5-0.3-1.1-0.5-1.8-0.5c-1,0-2,0.5-2.7,1.4c-0.8,0.9-1.3,2-1.4,3.4H133.5z
				"/>
			<path class="st9" d="M142.4,193.6c0,0.6-0.1,1-0.1,1.3c0,1.1,0.2,2.1,0.5,3.1c0.3,1,0.7,1.9,1.3,2.5c0.5,0.7,1.2,1.2,2,1.6
				c0.8,0.4,1.7,0.6,2.5,0.6c0.7,0,1.3-0.1,1.9-0.3s1.1-0.5,1.5-0.9c0.4-0.4,0.8-1.1,1.1-2.1l0.4,0.1c-0.3,1.4-1,2.5-2,3.2
				c-1,0.7-2.4,1.1-4.2,1.1c-1.5,0-2.8-0.2-3.9-0.7c-1.1-0.5-2-1.2-2.7-2.2c-1-1.4-1.6-3.1-1.6-5.1c0-2.8,1-4.9,3-6.5
				c1.4-1.1,3.1-1.7,4.9-1.7c1,0,1.9,0.2,2.7,0.5c0.8,0.3,1.5,0.9,2.1,1.5c0.9,1,1.3,2.3,1.3,3.9H142.4z M150.4,192.9
				c-0.1-1.2-0.3-2.2-0.7-2.8c-0.3-0.6-0.8-1.1-1.3-1.4c-0.5-0.3-1.1-0.5-1.8-0.5c-1,0-2,0.5-2.7,1.4c-0.8,0.9-1.3,2-1.4,3.4H150.4z
				"/>
		</g>
	</g>
	<g>
		<text transform="matrix(1 0 0 1 284.7034 262.3595)" class="st0 st10 st11">ree</text>
	</g>
	<path class="st4" d="M86.5,186.4c-1.2,0-2.1-0.4-2.9-1.1s-1.1-1.7-1.1-2.8c0-1.1,0.4-2,1.2-2.8c0.8-0.8,1.7-1.1,2.8-1.1
		s2.1,0.4,2.8,1.1c0.8,0.8,1.2,1.7,1.2,2.8c0,1.1-0.4,2-1.1,2.8C88.6,186.1,87.6,186.4,86.5,186.4z"/>
</g>
</svg>
