<?xml version="1.0" encoding="utf-8"?>
<!-- Generator: Adobe Illustrator 23.1.0, SVG Export Plug-In . SVG Version: 6.00 Build 0)  -->
<svg version="1.1" id="Layer_2" xmlns="http://www.w3.org/2000/svg" xmlns:xlink="http://www.w3.org/1999/xlink" x="0px" y="0px"
	 viewBox="0 0 400 400" style="enable-background:new 0 0 400 400;" xml:space="preserve">
<style type="text/css">
	.st0{fill:#BB1A2F;}
	.st1{fill:#010001;}
	.st2{fill:#1E120D;}
</style>
<g>
	<g>
		<polygon class="st0" points="182.6,215.5 34.1,72 365.9,138.9 		"/>
	</g>
	<g>
		<g>
			<path class="st1" d="M145.7,125c3.2,4.2,3.6,7.3,3.6,12.7v33.6h7.9v-51.4l32.9,51.4h17.6l-38-58.7h-39.8v5.4
				C138.5,119.1,142.3,120.2,145.7,125z"/>
		</g>
		<g>
			<path class="st1" d="M212.5,112.7v5.4c14.3,1,18.4,3.7,18.9,12.3c0.5,5.8,0.9,14.1,0.9,32v9h8v-9c0-17.9,0.4-26,0.5-32.2
				c0.5-8.9,4.3-10.8,15.7-12.1v-5.4H212.5z"/>
		</g>
		<g>
			<polygon class="st1" points="232.4,179.7 232.4,209.6 213,179.7 195.3,179.7 233.6,239.7 240.4,239.7 240.4,179.7 			"/>
		</g>
		<g>
			<path class="st1" d="M158,218.7c-0.4-5.6-0.9-14.3-0.9-31.6v-7.4h-7.9v7.2c0,17.5-0.4,26.2-0.9,32.4c-0.7,9.4-5,12.3-16.1,13.3
				v5.4h43.4v-5.4C162.9,231.4,158.4,228.5,158,218.7z"/>
		</g>
	</g>
	<g>
		<path class="st2" d="M61.7,264.7c5.3,0,8.7,1.1,11,3.3c1.9,1.8,3.2,4.5,3.2,8.1c0,4.4-1.8,8-4.7,10.2c-2.9,2.2-6.5,3-11.2,3h-8.8
			v-1.1c3.3-0.3,3.4-0.6,3.4-3.7v-15.1c0-3.3-0.5-3.4-3.4-3.7v-1.1H61.7z M57.9,284.2c0,2.8,1.2,3.6,4,3.6c6.8,0,10.3-4.6,10.3-11.3
			c0-4.1-1.4-7.3-4.4-9.1c-1.7-1.1-3.9-1.5-6.5-1.5c-1.7,0-2.6,0.2-3,0.5c-0.3,0.2-0.5,0.6-0.5,2.1V284.2z"/>
		<path class="st2" d="M79.7,289.2v-1.1c3.1-0.3,3.4-0.5,3.4-3.7v-15c0-3.3-0.3-3.4-3.4-3.7v-1.1h10.1v1.1c-3.1,0.3-3.4,0.5-3.4,3.7
			v15c0,3.3,0.3,3.4,3.4,3.7v1.1H79.7z"/>
		<path class="st2" d="M106.1,270.4c-0.6-2.5-1.7-5-5.3-5c-2.9,0-4,2.2-4,4.1c0,2.6,1.7,3.9,4.8,5.6c4.5,2.3,6.5,4.1,6.5,7.7
			c0,4-3.4,7-8.3,7c-2.3,0-4.2-0.6-5.8-1.2c-0.3-1.1-0.8-3.6-1-5.7l1.2-0.3c0.8,2.5,2.4,5.8,6.4,5.8c2.7,0,4.4-1.9,4.4-4.3
			c0-2.9-1.5-4.1-4.9-5.9c-4-2.2-6.2-4-6.2-7.5c0-3.4,2.8-6.5,7.8-6.5c2.1,0,4.2,0.6,5,0.7c0.2,1.4,0.3,2.9,0.6,5.3L106.1,270.4z"/>
		<path class="st2" d="M131.2,270.6c-0.3-1.2-0.8-2.5-1.2-3.1c-0.6-1-1-1.3-3.1-1.3h-3.8v18.4c0,2.9,0.3,3.4,3.9,3.6v1.1h-11v-1.1
			c3.5-0.2,3.8-0.6,3.8-3.6v-18.4h-3.4c-2.1,0-2.7,0.2-3.3,1.4c-0.5,0.8-0.8,1.7-1.2,3.1h-1.1c0.2-2.3,0.5-4.7,0.6-6.8h0.9
			c0.6,0.9,1,0.9,2,0.9h15c1.1,0,1.4-0.2,1.9-0.9h0.9c0,1.8,0.2,4.5,0.3,6.7L131.2,270.6z"/>
		<path class="st2" d="M157.9,289.5c-0.5,0-0.9,0-1.4-0.1c-2.8-0.2-4.2-0.9-5.9-3.3c-1.4-1.9-2.8-4.3-4-6.2
			c-0.8-1.2-1.2-1.4-3.2-1.4h-1.3v5.9c0,3.2,0.4,3.4,3.4,3.7v1.1h-10.1v-1.1c3.1-0.3,3.4-0.5,3.4-3.7v-15.1c0-3.2-0.4-3.3-3.4-3.7
			v-1.1h9.6c2.8,0,4.6,0.3,6,1.3c1.5,1,2.6,2.7,2.6,5c0,3.3-2.1,5.3-4.9,6.5c0.7,1.2,2.3,3.7,3.4,5.4c1.4,2,2.1,2.9,3,3.9
			c1,1.1,1.9,1.5,2.8,1.7L157.9,289.5z M143.9,277.3c2,0,3.2-0.3,4.2-1.1c1.5-1.1,2.1-2.6,2.1-4.7c0-4-2.7-5.5-5.6-5.5
			c-1.1,0-1.7,0.2-2,0.4c-0.3,0.3-0.5,0.6-0.5,1.6v9.3H143.9z"/>
		<path class="st2" d="M159.4,289.2v-1.1c3.1-0.3,3.4-0.5,3.4-3.7v-15c0-3.3-0.3-3.4-3.4-3.7v-1.1h10.1v1.1
			c-3.1,0.3-3.4,0.5-3.4,3.7v15c0,3.3,0.3,3.4,3.4,3.7v1.1H159.4z"/>
		<path class="st2" d="M186.2,275.9c3.6,0.6,6.6,2.3,6.6,6c0,2.6-1.4,4.6-3.7,5.8c-2,1.1-3.9,1.5-6.5,1.5h-9.3v-1.1
			c3.2-0.3,3.4-0.6,3.4-3.6v-15.2c0-3.1-0.3-3.4-3.4-3.7v-1.1h9.9c2.8,0,4.6,0.5,5.8,1.3c1.3,0.9,2.2,2.3,2.2,4.2
			C191.3,273.8,188.4,275.4,186.2,275.9z M181.9,275.5c4.2,0,5.9-1.7,5.9-4.8c0-2.6-1.6-4.7-5.3-4.7c-1.1,0-1.7,0.1-2.1,0.4
			c-0.3,0.2-0.4,0.6-0.4,1.9v7.2H181.9z M180,284.5c0,2.7,0.6,3.4,3.3,3.4c2.9,0,5.8-1.6,5.8-5.6c0-3.9-2.7-5.5-7.3-5.5H180V284.5z"
			/>
		<path class="st2" d="M221,265.7c-2.4,0.2-3.3,0.8-3.3,2.5c0,0.9-0.1,2.5-0.1,5.9v4.1c0,3.9-0.5,6.8-2.6,9.1
			c-1.8,1.9-4.3,2.4-7,2.4c-2.2,0-4.5-0.5-6.2-1.7c-2.3-1.7-3.4-4.3-3.4-8.8v-9.6c0-3.4-0.3-3.6-3.3-3.9v-1.1h9.9v1.1
			c-3,0.2-3.3,0.5-3.3,3.9v9.5c0,5.5,2.6,8.5,7.1,8.5c5.4,0,7.1-3.3,7.1-9.6v-3.9c0-3.5-0.1-4.9-0.2-5.9c-0.1-1.7-1-2.3-3.8-2.5
			v-1.1h9.1V265.7z"/>
		<path class="st2" d="M223.1,289.2v-1.1c3.1-0.3,3.4-0.5,3.4-3.7v-15c0-3.3-0.3-3.4-3.4-3.7v-1.1h10.1v1.1
			c-3.1,0.3-3.4,0.5-3.4,3.7v15c0,3.3,0.3,3.4,3.4,3.7v1.1H223.1z"/>
		<path class="st2" d="M247.6,264.7c5.3,0,8.7,1.1,11,3.3c1.9,1.8,3.2,4.5,3.2,8.1c0,4.4-1.8,8-4.7,10.2c-2.9,2.2-6.5,3-11.2,3h-8.8
			v-1.1c3.3-0.3,3.4-0.6,3.4-3.7v-15.1c0-3.3-0.5-3.4-3.4-3.7v-1.1H247.6z M243.8,284.2c0,2.8,1.2,3.6,4,3.6
			c6.8,0,10.3-4.6,10.3-11.3c0-4.1-1.4-7.3-4.4-9.1c-1.7-1.1-3.9-1.5-6.5-1.5c-1.7,0-2.6,0.2-3,0.5c-0.3,0.2-0.5,0.6-0.5,2.1V284.2z
			"/>
		<path class="st2" d="M278.8,264.1c6.5,0,12.2,5,12.2,12.5c0,8.1-5.5,13.2-12.5,13.2c-7.3,0-12.5-5.5-12.5-12.6
			C266.1,270.4,270.9,264.1,278.8,264.1z M278.1,265.5c-4.2,0-8.1,3.6-8.1,10.6c0,7,3.9,12.2,9.2,12.2c4.6,0,8-3.4,8-10.7
			C287.2,269.7,283,265.5,278.1,265.5z"/>
		<path class="st2" d="M317.2,289.5c-0.5,0-0.9,0-1.4-0.1c-2.8-0.2-4.2-0.9-5.9-3.3c-1.4-1.9-2.8-4.3-4-6.2
			c-0.8-1.2-1.2-1.4-3.2-1.4h-1.3v5.9c0,3.2,0.4,3.4,3.4,3.7v1.1h-10.1v-1.1c3.1-0.3,3.4-0.5,3.4-3.7v-15.1c0-3.2-0.4-3.3-3.4-3.7
			v-1.1h9.6c2.8,0,4.6,0.3,6,1.3c1.5,1,2.6,2.7,2.6,5c0,3.3-2.1,5.3-4.9,6.5c0.7,1.2,2.3,3.7,3.4,5.4c1.4,2,2.1,2.9,3,3.9
			c1,1.1,1.9,1.5,2.8,1.7L317.2,289.5z M303.2,277.3c2,0,3.2-0.3,4.2-1.1c1.5-1.1,2.1-2.6,2.1-4.7c0-4-2.7-5.5-5.6-5.5
			c-1.1,0-1.7,0.2-2,0.4c-0.3,0.3-0.5,0.6-0.5,1.6v9.3H303.2z"/>
		<path class="st2" d="M333.4,289.2v-1.1c2.5-0.3,2.8-0.7,2.2-2.1c-0.5-1.5-1.2-3.4-2-5.7h-8.2c-0.6,1.7-1.2,3.2-1.7,4.7
			c-0.8,2.5-0.3,2.8,2.8,3.1v1.1h-8.7v-1.1c2.4-0.3,3-0.6,4.3-4l7.8-19.8l1.2-0.2c2.4,6.5,5,13.6,7.4,20.1c1.2,3.3,1.6,3.6,4.2,3.9
			v1.1H333.4z M329.6,269.1c-1.2,3.3-2.5,6.7-3.6,9.7h7.1L329.6,269.1z"/>
		<path class="st2" d="M239.8,303.9c-2.4,0.3-3.2,0.6-3.3,2.4c0,1.2-0.1,2.8-0.1,6.3v15.2h-1.4L218.8,308v9.5c0,3.4,0.1,5.1,0.2,6.2
			c0.1,1.9,1,2.5,3.7,2.7v1.1h-9.2v-1.1c2.3-0.2,3.3-0.8,3.4-2.6c0.1-1.2,0.2-2.9,0.2-6.4v-9.6c0-1.1-0.1-1.7-0.8-2.5
			c-0.7-0.9-1.5-1.2-3.4-1.4v-1.1h5.7l16,19v-9.3c0-3.5-0.1-5.1-0.2-6.3c-0.1-1.7-1-2.2-4-2.4v-1.1h9.3V303.9z"/>
		<path class="st2" d="M255.5,302.3c6.5,0,12.2,5,12.2,12.5c0,8.1-5.5,13.2-12.5,13.2c-7.3,0-12.5-5.5-12.5-12.6
			C242.8,308.6,247.6,302.3,255.5,302.3z M254.8,303.7c-4.2,0-8.1,3.6-8.1,10.6c0,7,3.9,12.2,9.2,12.2c4.6,0,8-3.4,8-10.7
			C263.9,307.9,259.7,303.7,254.8,303.7z"/>
		<path class="st2" d="M292.5,327.4v-1.1c3.1-0.3,3.2-0.5,3.2-4.6l0-15.4c-3.1,6.9-8.1,17.7-9.4,21.1h-1c-1.3-3.4-5.6-13.8-8.4-20.7
			c-0.6,13.2-0.7,16.2-0.7,16.9c0,2.1,1,2.4,3.6,2.7v1.1h-9v-1.1c2.2-0.2,3.1-0.7,3.4-2.7c0.2-1.7,0.3-3,1.2-16.8
			c0.2-2-0.2-2.6-3.6-2.9v-1.1h6.6l8.4,19.2l9-19.2h6.6v1.1c-3.3,0.4-3.7,0.7-3.6,3.4l0.2,14.5c0.2,4,0.3,4.2,3.6,4.6v1.1H292.5z"/>
		<path class="st2" d="M305.9,327.4v-1.1c3.1-0.3,3.4-0.5,3.4-3.7v-15c0-3.3-0.3-3.4-3.4-3.7v-1.1h10.1v1.1
			c-3.1,0.3-3.4,0.5-3.4,3.7v15c0,3.3,0.3,3.4,3.4,3.7v1.1H305.9z"/>
		<path class="st2" d="M339.6,308.8c-0.3-1.2-0.8-2.5-1.2-3.1c-0.6-1-1-1.3-3.1-1.3h-3.8v18.4c0,2.9,0.3,3.4,3.9,3.6v1.1h-11v-1.1
			c3.5-0.2,3.8-0.6,3.8-3.6v-18.4h-3.4c-2.1,0-2.7,0.2-3.3,1.4c-0.5,0.8-0.8,1.7-1.2,3.1h-1.1c0.2-2.3,0.5-4.7,0.6-6.8h0.9
			c0.6,0.9,1,0.9,2,0.9h15c1.1,0,1.4-0.2,1.9-0.9h0.9c0,1.8,0.2,4.5,0.3,6.7L339.6,308.8z"/>
	</g>
</g>
</svg>
