<svg xmlns="http://www.w3.org/2000/svg" viewBox="0 0 300 300"><defs><style>.a{isolation:isolate;}.b{fill:#4c720a;}.c,.i,.r,.u{fill:#b3de02;}.d{fill:#7c4b43;}.e{fill:#ae615b;}.f{fill:#b87100;}.g{fill:#e09c0f;}.h{fill:#ffec03;}.i{stroke:#4c720a;stroke-width:0.75px;}.i,.o,.p{stroke-miterlimit:10;}.j{fill:#ae7a6f;}.k{fill:#cc8500;}.l{fill:#e3c734;}.m{fill:#fff539;}.n{fill:#fff685;mix-blend-mode:lighten;}.o,.p{fill:none;stroke-linecap:round;}.o{stroke:#ae615b;stroke-width:3px;}.p{stroke:#e09c0f;}.q{fill:#fff;}.r,.s,.v{mix-blend-mode:multiply;}.t,.v{fill:#dbed02;}.t,.u{mix-blend-mode:screen;}</style></defs><title>palmeritoa</title><g class="a"><path class="b" d="M92.13,127.82a51.49,51.49,0,0,1-8.56-8.08,38.68,38.68,0,0,1-7.26-12.43c4-1.39,18.81-7.52,36.11-26.94,2,3.78,8,14,15.25,17.93a104.39,104.39,0,0,1-15.57,17.84C102.24,125.17,94.06,127.4,92.13,127.82Z"/><path class="c" d="M112.12,82.93c2.5,4.36,7.42,11.9,13.41,15.84A104.9,104.9,0,0,1,111.08,115c-8.65,7.93-16,10.47-18.62,11.16a51,51,0,0,1-7.75-7.42,38.23,38.23,0,0,1-6.48-10.58c5.42-2.15,18.66-8.65,33.89-25.26m.63-5.22-.43.49c-20.3,23.3-37.29,28-37.46,28l-.43.11.12.43a40,40,0,0,0,7.87,14,51.75,51.75,0,0,0,9.23,8.61l.14.09.17,0c.39-.06,9.73-1.68,21.15-12.14A102.21,102.21,0,0,0,129.6,98.1l.26-.42-.45-.2c-8.83-3.87-16.3-19-16.38-19.18l-.28-.59Z"/><ellipse class="c" cx="103.49" cy="107.23" rx="9.63" ry="7" transform="translate(-44.75 91.92) rotate(-40.12)"/><path class="c" d="M113.14,31.34a62.14,62.14,0,0,0-6.25-.32h0a61.22,61.22,0,0,0-35,11c-1.44,1.4-14.36,14.21-22.71,30.71C58.56,66.06,71,59.47,85.72,59.47a51.43,51.43,0,0,1,15,2.29c10.2,3.12,19.72,9.74,30,20.83,1.77,1.92,3.46,3.9,5.1,5.82,4.57,5.37,8.93,10.49,14.49,13.6l7.86-31.55C154.37,63.8,136,33.7,113.14,31.34Z"/><path class="b" d="M113.55,27.36a66.48,66.48,0,0,0-6.66-.34A64.32,64.32,0,0,0,69.3,39S46.83,60.28,40,85.21c9-7.71,25-21.74,45.7-21.74A47.42,47.42,0,0,1,99.6,65.58C110.74,69,119.88,76.73,127.78,85.3S142,103.85,153,107.6l9.39-37.7S141.64,30.26,113.55,27.36Zm22.27,61.05c-1.64-1.92-3.33-3.9-5.1-5.82C120.49,71.5,111,64.88,100.77,61.76a51.43,51.43,0,0,0-15-2.29c-14.68,0-27.16,6.59-36.51,13.27C57.56,56.24,70.48,43.43,71.92,42a61.22,61.22,0,0,1,35-11h0a62.14,62.14,0,0,1,6.25.32c22.87,2.36,41.23,32.46,45,39.12L150.31,102C144.75,98.9,140.39,93.78,135.82,88.41Z"/><path class="b" d="M126,46.11c-2.84-4.31-6.69-6.06-9.83-7.39a29.08,29.08,0,0,0-11.09-2.08A30.47,30.47,0,0,0,92.67,39a14,14,0,0,0-4.82,3.82,4.55,4.55,0,0,0-.37,4.87c1.08,1.72,3.43,2.21,5.46,2.34,6.68.42,9.74.38,15.47,2.79,4.71,2,8.61,4.5,11.42,5.21,3.82,1,7.85.1,8.62-3.35C129,52,128.3,49.62,126,46.11Z"/><polygon class="d" points="221.51 237.76 221.51 229.71 126.4 228.79 130.46 239.38 221.51 237.76"/><polygon class="e" points="151.3 289.68 155.45 290.42 136 242.49 133.38 241.83 141.15 279.47 151.3 289.68"/><path class="f" d="M189.9,102.3c-12.06,10.65-13.22,17-17.64,32.44s-4.37,27.54.32,47.62l5.68.39c-3-20.22-3.86-28.9,1.25-45.88,5.74-19.08,12.13-24.89,25-37C201.25,98.39,191.73,105.4,189.9,102.3Z"/><path class="g" d="M182.68,135.08a3.78,3.78,0,0,1,1.17.2,3.64,3.64,0,0,0,.53-1.88,3.73,3.73,0,1,0-4.9,3.52A3.71,3.71,0,0,1,182.68,135.08Z"/><path class="h" d="M183.85,135.28a3.78,3.78,0,0,0-1.17-.2,3.71,3.71,0,0,0-3.2,1.84,3.79,3.79,0,0,0,1.17.21A3.71,3.71,0,0,0,183.85,135.28Z"/><path class="c" d="M216.76,190.88a29.73,29.73,0,0,0-3.36,3.18,39.29,39.29,0,0,0-2.93,3.54c-.9,1.24-1.6,2.59-2.47,3.83-.45.62-.87,1.25-1.32,1.88s-.88,1.27-1.43,1.88l-.15-.06a13.86,13.86,0,0,1,1.49-4.54,12.7,12.7,0,0,1,1.3-2c.25-.31.52-.61.78-.91s.51-.61.78-.9.52-.59.8-.88l.83-.85c.57-.54,1.15-1.08,1.75-1.58a26.24,26.24,0,0,1,3.84-2.73Z"/><path class="c" d="M216.39,167.24a73.72,73.72,0,0,0-6.56,9.21,93.36,93.36,0,0,0-5.33,9.89c-1.57,3.39-2.63,7-4.12,10.35-.77,1.69-1.48,3.41-2.28,5.12s-1.5,3.47-2.52,5.19l-.39-.08a33.31,33.31,0,0,1,1.43-11.59,29.4,29.4,0,0,1,2.17-5.41c.44-.87,1-1.7,1.42-2.55s.93-1.7,1.45-2.52,1-1.67,1.5-2.48l1.58-2.43c1.12-1.58,2.25-3.14,3.45-4.64a65.19,65.19,0,0,1,7.92-8.35Z"/><path class="c" d="M209,167.66a73.91,73.91,0,0,0-5.11,10.08,91.9,91.9,0,0,0-3.8,10.57c-1.05,3.59-1.56,7.28-2.53,10.85-.51,1.79-1,3.59-1.49,5.4s-1,3.65-1.72,5.51l-.4,0a33.43,33.43,0,0,1-.31-11.67A29.14,29.14,0,0,1,195,192.7c.3-.92.69-1.82,1-2.73s.67-1.82,1.06-2.71.72-1.8,1.12-2.68l1.2-2.64c.87-1.72,1.75-3.43,2.72-5.1a64.47,64.47,0,0,1,6.59-9.43Z"/><path class="b" d="M162.77,106.68c-3.55-5.62-17.16-27.22-18.11-28.63-6.53-9.69-16.28-19.06-20.37-22.82,11.66-7.73,29.49-14,40.24-14,.51,0,1,0,1.47,0,4.3,4.94,20.65,49.45,22.08,57.17C184.76,99.77,173.39,103.42,162.77,106.68Z"/><path class="c" d="M164.53,43.22h.39c4.41,7,18.14,43.75,20.82,54-4.2,1.51-13.26,4.42-22.09,7.14-4.59-7.28-16.42-26-17.33-27.38-5.77-8.57-14-16.88-18.78-21.41,11.31-6.9,27.2-12.31,37-12.31m0-4c-11.53,0-31.19,6.9-43.46,15.81,0,0,13.71,11.94,21.93,24.14,1.06,1.58,18.89,29.87,18.89,29.87s27.28-8.33,28.22-9.39c1.54-1.76-20-60-23.42-60.34q-1-.09-2.16-.09Z"/><path class="b" d="M197.55,67.69c8.25-12.09,22-21.45,38.85-26.47,2.67.19,21.59,4.13,34.17,11.22C255.42,54.5,225.8,66.07,216.86,81.6Z"/><path class="c" d="M236.58,43.25a129.51,129.51,0,0,1,27.77,8.34c-15.52,3.58-38.73,13.46-48.05,27.14l-16-11.5c8-10.86,20.73-19.28,36.25-24m-.34-4-.16,0c-16.33,4.81-32,14.34-41.25,29l22.76,16.4c7.76-17.76,44.77-30.48,57.24-30.48a11.22,11.22,0,0,1,2.15.17c-12.26-9.68-38.24-15.07-40.74-15.07Z"/><path class="c" d="M277.81,116.52c-4.19-5.66-13.83-17.57-23.6-22,.36-2.09,1-4.53,1.73-7.09,1.83-6.67,3.86-14.08,1.83-19.79,1,0,2.05,0,3.09,0a63.16,63.16,0,0,1,9.31.54c5.31.87,9,3.31,11.25,7.44C287.72,87.14,280.88,108.33,277.81,116.52Z"/><path class="b" d="M260.86,69.58a61.61,61.61,0,0,1,9,.52c4.67.76,7.88,2.86,9.82,6.42,4.89,9,1,25.47-2.48,35.89-4.7-5.94-12.53-14.73-20.71-19,.36-1.66.87-3.52,1.4-5.45,1.65-6,3.46-12.62,2.47-18.36h.52m0-4c-2.45,0-4.74.08-6.31.2,5.51,7.4-1.7,21.68-2.53,30,12.77,4.75,26.3,24.9,26.3,24.9S300,71,270.49,66.15a65.8,65.8,0,0,0-9.63-.57Z"/><path class="c" d="M185.38,97.94c1.84-2,3.73-4.23,5.68-6.52C202,78.57,215.6,62.58,239.37,62.58c.66,0,1.33,0,2,0a97.88,97.88,0,0,1,15.3,2.16c-20.09,3.31-33.77,16.46-43.24,25.57-4.19,4-7.83,7.53-10.56,8.73Z"/><path class="b" d="M239.37,64.58q1,0,1.92,0c1.64.06,3.56.24,5.67.52-15.63,5.23-26.79,16-34.92,23.78-3.67,3.54-7.16,6.9-9.56,8.14l-12.89-.84q1.47-1.69,3-3.5c10.67-12.53,23.94-28.13,46.79-28.13m0-4c-31.5,0-45.71,26.9-58.46,39.07l22.29,1.46C213.73,97.19,231.08,66,266.26,66q2.07,0,4.23.15c-11.72-3.39-22.67-5.3-29.05-5.53-.69,0-1.39,0-2.07,0Z"/><path class="f" d="M189.49,100.3c-6.79,2.12-14.08,5.38-18.27,8.74-6.31,5.07,5.51,5.92,9.69,13,4.39-4.24,12.16-5.1,21.13-5.39C200.54,111.86,197,103.8,189.49,100.3Z"/><path class="c" d="M199,98.12a56.77,56.77,0,0,0-9.47,2.18c7.5,3.5,11,11.56,12.55,16.37,15-.48,33.27.62,44.72-9.75Z"/><ellipse class="e" cx="174.54" cy="226.74" rx="69.12" ry="19.79"/><path class="d" d="M241.87,231.11c-2.89-4.35-11.6-8.42-24.51-11.48h-.05l-86,.05c-12.27,2.94-20.7,7.06-23.73,11.6l-.17.26.22.22c.27.27.57.54.89.81l1,.8,1.62,1.09c.24.14.47.29.71.42l1.33.74,3,1.43,2.09.87c.14.58.31,2.93.45,4.84.4,5.49.47,5.51.82,5.64l3.83,1.29,4.51,1.28c2.24.58,4.57,1.1,6.91,1.56,1.91.38,4,.75,6.46,1.13l1.8.25,7,.88,9,.76,8.4.34h6.82c32.3,0,59.43-16.37,67.51-24.3l.22-.22Z"/><path class="i" d="M209.18,201.18a41.22,41.22,0,0,1,6.16-6.23s4.62,3.83,5.9,4.53a28.92,28.92,0,0,0,9.55,3.7c-2.54,4.58-7.39,8-10,11.89s-4.79,10.08-6.14,14.64l-13.55-8.84C204,208.58,205.48,206.56,209.18,201.18Z"/><path class="b" d="M134.49,231.57c-2-4.53-5.38-11.68-9.31-16.25a47.39,47.39,0,0,0-6.37-5.74,53.05,53.05,0,0,1-6.75-6.06c6.75-.53,10-3,14.71-8.1.71-.78,2.06-2.41,2.83-3.35a47.91,47.91,0,0,1,7.8,6.23l.15.17c5.22,5.9,7.23,8.17,12.11,21.91Z"/><path class="c" d="M129.79,193.41a42.16,42.16,0,0,1,6.86,5.55l.15.17c5,5.7,7,8,11.67,20.89L134.9,230c-2-4.58-5.27-11.06-9-15.35a47.36,47.36,0,0,0-6.51-5.87c-1.81-1.45-3.65-2.93-5.27-4.52,5.76-.88,9.06-3.47,13.35-8.18.57-.63,1.52-1.77,2.28-2.69m-.4-2.67s-2.36,2.91-3.36,4c-4.74,5.21-8,7.67-16,7.87,3.83,5.29,10.55,8.91,14.37,13.35s7.38,11.75,9.63,17.16l16.79-12.39c-5.17-14.68-7.28-17-12.7-23.1-2.71-3.06-8.76-6.9-8.76-6.9Z"/><path class="c" d="M135.87,213.5a8.64,8.64,0,0,1-4-2.45,6.25,6.25,0,0,1-1.43-2.13,3.39,3.39,0,0,1,.06-2.56,3.28,3.28,0,0,1,2.6-1.69,7.28,7.28,0,0,1,3.12.52,8.62,8.62,0,0,1,3.44,2,5.11,5.11,0,0,1,1.56,4,2.67,2.67,0,0,1-2.44,2.51A9.68,9.68,0,0,1,135.87,213.5Z"/><path class="b" d="M214.7,215a8.59,8.59,0,0,0,2.48-3.91,6.37,6.37,0,0,0,.39-2.53,3.41,3.41,0,0,0-1-2.3,2.89,2.89,0,0,0-2.87-.45,6.66,6.66,0,0,0-2.45,1.76,8.85,8.85,0,0,0-2.15,3.24,5.48,5.48,0,0,0,.23,4.3c.76,1.12,1.68,1.74,3,1.26A8.79,8.79,0,0,0,214.7,215Z"/><path class="c" d="M138.5,230.75c-3.35-2.57-9.12-6.65-14.51-8.81a59.06,59.06,0,0,0-8-2.31,75.87,75.87,0,0,1-7.66-2.13c5.73-1.92,8-4.34,10.79-8.73.43-.69,1.2-2.1,1.64-2.92a64,64,0,0,1,9.86,2.36l.2.08c6.92,2.67,9.64,3.72,18.59,11.5Z"/><path class="b" d="M121.27,207a58.76,58.76,0,0,1,9,2.18l.19.08c6.6,2.55,9.31,3.6,17.49,10.63l-9.5,9.57c-3.46-2.6-8.91-6.35-14-8.41a61.11,61.11,0,0,0-8.18-2.35c-1.64-.4-3.3-.8-4.9-1.26,4.15-1.88,6.28-4.32,8.64-8.1.35-.55.9-1.54,1.34-2.34m-1.08-2.21s-1.34,2.51-2,3.49c-2.9,4.63-5.23,7.06-12.93,9.11,5.45,2.64,13.15,3.45,18.31,5.52s11,6.12,15,9.21l12.25-12.34c-9.82-8.61-12.62-9.65-19.89-12.46a70.15,70.15,0,0,0-10.76-2.53Z"/><path class="b" d="M132.7,220.81a9,9,0,0,1-4.76-.91,6.17,6.17,0,0,1-2.1-1.5A3.13,3.13,0,0,1,125,216a3.32,3.32,0,0,1,2-2.46,7.58,7.58,0,0,1,3.2-.58,9,9,0,0,1,4,.69c1.24.58,2.67,1.85,2.87,3.2a2.65,2.65,0,0,1-1.52,3.16A10.27,10.27,0,0,1,132.7,220.81Z"/><path class="j" d="M243.57,226.62v.17a3.69,3.69,0,0,1-.11.45v.15a9,9,0,0,1-.51,1.2v.06c-.1.19-.21.37-.33.56v.06a11,11,0,0,1-1.52,1.82h0c-8.35,8.2-35,14.2-66.53,14.2h-9.82l-1,0h-.44l-1.3-.06H160.6l-1.32-.08h-1.34l-1.35-.1h-.71l-.55-.05-1.37-.11h-.62l-.57-.06-1.4-.14-1.11-.11-1.43-.16h-.29l-.68-.08-1.49-.18-.87-.12-1.56-.21-.67-.1-1.71-.25h-.09c-2.23-.35-4.38-.72-6.45-1.13h0a110,110,0,0,0,4.41,21.62,84.41,84.41,0,0,0,8.4,18.94,67.89,67.89,0,0,0,5.4,7.56A140.46,140.46,0,0,0,174.52,292c19.36,0,35.82-3.52,41.9-8.43h.13a75.06,75.06,0,0,0,27.2-57h0C243.63,226.21,243.6,226.41,243.57,226.62Z"/><path class="e" d="M139.32,263.76a109.88,109.88,0,0,1-4.41-21.62h0c-2.42-.47-4.71-1-6.89-1.55h0l-2-.54-.36-.11-1.62-.47-.51-.16-1.39-.44-.58-.19-1.24-.43-.6-.22-1.12-.42-.62-.24-1-.42-.6-.26-.94-.43-.59-.27-.85-.43-.56-.29-.79-.43-.52-.3c-.25-.14-.49-.29-.73-.44l-.48-.3-.68-.47-.41-.29-.67-.53-.31-.25c-.31-.26-.6-.52-.87-.79h0a11.1,11.1,0,0,1-1.53-1.82v-.06c-.12-.19-.23-.37-.33-.56V229a6.36,6.36,0,0,1-.51-1.2v-.15a2.46,2.46,0,0,0-.11-.45V227c0-.2-.06-.4-.08-.6h0a75,75,0,0,0,27.21,57h.12c3.66,3,10.95,5.54,20.48,7a68.46,68.46,0,0,1-5.27-7.7A84.75,84.75,0,0,1,139.32,263.76Z"/><path class="k" d="M172.35,180.07a41.17,41.17,0,0,0-38.43,53.75,24,24,0,0,0,8.66.22l18.14-10.93,41.77,1.46,10.33,8a41.22,41.22,0,0,0-36.39-52.33v-.06h0C176.51,177.69,172.3,177.84,172.35,180.07Z"/><path class="l" d="M152.72,234.05c2.66.69,5.23,2.22,7.95,1.85,2.3-.32,4.2-2,6.43-2.64,3-.9,6.24.07,9.14,1.28s5.79,2.69,8.93,2.84c5.13.24,9.68-3.08,14.62-4.51a27.22,27.22,0,0,1,13.91.08c1,.24,2,.53,3,.84a39.26,39.26,0,1,0-76.08.44c.85-.07,1.69-.16,2.53-.25C146.33,233.63,149.61,233.25,152.72,234.05Z"/><path class="m" d="M178.34,194.55a30.16,30.16,0,0,0-28.8,39,15.53,15.53,0,0,1,3.18.45c2.66.69,5.23,2.22,7.95,1.85,2.3-.32,4.2-2,6.43-2.64,3-.9,6.24.07,9.14,1.28s5.79,2.69,8.93,2.84c5.13.24,9.68-3.08,14.62-4.51a23.52,23.52,0,0,1,7.79-.82,30.15,30.15,0,0,0-29.24-37.5Z"/><path class="n" d="M193,187.74c-.38.71-41.19,46.12-41.19,46.12l4.37,1.36,41-45.53Z"/><path class="n" d="M200.21,191.47c-.39.71-39.54,44.43-39.54,44.43a10.18,10.18,0,0,0,4.23-1.7,8.85,8.85,0,0,1,4-1.26l34.82-38.82Z"/><path class="f" d="M188.83,230.62c0-4.09-2.12-6.57-7.47-8.46-3.87-1.39-5.45-2.38-5.45-3.82,0-1.26,1-2.57,3.87-2.57a14,14,0,0,1,6.48,1.58l1.35-5.09a16.27,16.27,0,0,0-6.57-1.48v-4h-4.41v4.27c-4.81.9-7.6,4-7.6,8,0,4.37,3.28,6.62,8.1,8.24,3.37,1.12,4.81,2.2,4.81,3.91s-1.75,2.79-4.36,2.79a15.81,15.81,0,0,1-7.47-2l-.23.9a18.08,18.08,0,0,1,6.36,1.61c2.86,1.19,5.7,2.64,8.79,2.82A7.82,7.82,0,0,0,188.83,230.62Z"/><path class="c" d="M82,163.44c-1.46-17.68-1.19-34.59,11.78-48.23,10.29-10.83,21.52-17.4,34.32-20.1.72,0,4.31-.24,9.49-.24,11.49,0,32,1,47,7.23-6.72,3.08-15.89,7.32-20.84,17.53-6.57,13.55-6.5,22.6-5.23,36.37a187.28,187.28,0,0,0-23.89-1.54C115.23,154.46,97.12,157.56,82,163.44Z"/><path class="b" d="M137.55,96.87c10.24,0,27.77.79,41.83,5.45-6.23,3.12-13.27,7.68-17.51,16.43-6.39,13.19-6.7,22.19-5.64,35a189.47,189.47,0,0,0-21.68-1.25c-18.51,0-36,2.82-50.81,8.18-1.16-16.25-.33-31.67,11.44-44,10-10.48,20.81-16.86,33.14-19.49,1,0,4.38-.23,9.23-.23m0-4c-6,0-9.77.26-9.77.26-9.8,2-22.5,7-35.5,20.7-14,14.69-13.88,32.74-12.09,52.47,16.89-7.05,36.05-9.84,54.36-9.84a185.51,185.51,0,0,1,26.12,1.86c-1.46-15.06-2-23.86,4.8-37.82,5.59-11.54,16.84-14.89,23.74-18.42-15.34-8-38.61-9.21-51.66-9.21Z"/><path class="b" d="M133.72,93.87s-9.31,3.47-13.53,8.46c-7.07,8.34-2.51,14.71,1.87,16.76,5,2.36,15.66,1.82,21.11-.78a27.82,27.82,0,0,0,12.34-10.79c2.2-3.53,2.47-6.38,2.07-10.93C151.35,94.78,133.72,93.87,133.72,93.87Z"/><path class="c" d="M221.66,52.36s6.11-2.74,9.55.38.19,8.38-.8,8.57-8.53,2.35-8.53,2.35Z"/><path class="b" d="M257.64,67s4.08,4.6,9.7,5,2.87-5,2.87-5Z"/><path class="b" d="M238.66,63.17s-14.64,4.51-9.45,5.7S254,64.7,254,64.7Z"/><path class="c" d="M161.51,87c-3.86-6.14-4.29-15.16.92-17.91s9.93,5,11.72,8.66,3.45,11.47,0,14S164.32,91.43,161.51,87Z"/><path class="c" d="M203.49,89.71c-10.26,0-24.38-.64-34.82-3.6,1.37-8.38,5.29-43.63-20-71a109.28,109.28,0,0,1,30.27-4.35c9.92,0,18.09,1.51,24.3,4.48C227.74,48.35,218.81,75,213.86,89.49,211.52,89.59,207.86,89.71,203.49,89.71Z"/><path class="b" d="M178.92,12.72c9.25,0,17.17,1.41,23,4.08,22.87,31.2,15.64,55.61,10.5,70.74-2.27.09-5.36.16-8.92.16-9.57,0-22.54-.55-32.56-3a95.72,95.72,0,0,0,.39-22.57c-1.77-17.58-8.33-33.34-19.08-46a110.26,110.26,0,0,1,26.68-3.39m0-4c-14.27,0-28.23,3.15-33.84,5.52,31,31,21.3,73.27,21.3,73.27C177,90.93,192.2,91.7,203.49,91.7c4.89,0,9.06-.14,11.82-.28,5.05-14.8,15.48-42.63-10.78-77.8C197.28,10,188,8.72,178.92,8.72Z"/><ellipse class="b" cx="193.3" cy="44.19" rx="11.16" ry="16.82" transform="translate(-4.79 52.99) rotate(-15.42)"/><path class="b" d="M235.72,121.38c-4.17-10.56-9.71-15.1-18.26-15.1a61,61,0,0,0-12,1.73c-2.54.53-5.15,1.08-7.9,1.5-1.65-2.57-6-8.45-12.62-10.69,8.75-7.34,25.72-16,42.57-16l1.46,0c15.58.48,32.42,9.29,35.66,27.88-6.13,3.2-14.45,5.92-23.23,8.79Z"/><path class="c" d="M227.52,84.82l1.4,0A39.59,39.59,0,0,1,250.85,92a28.78,28.78,0,0,1,11.54,17.65c-5.84,2.84-13.53,5.35-21.6,8l-3.94,1.29c-4.43-10.08-10.51-14.62-19.39-14.62a62,62,0,0,0-12.4,1.78c-2.12.44-4.3.89-6.55,1.27a30.14,30.14,0,0,0-9.72-9c9-6.59,23.89-13.52,38.73-13.52m0-4c-18.94,0-38.53,10.66-46.78,19.16,9.88.76,15.81,11.7,15.81,11.7,8.07-1.09,15-3.4,20.91-3.4,7,0,12.64,3.25,17.07,15.61,12.23-4.12,24.26-7.57,32.3-12.08C264,91,245.89,81.36,229,80.84l-1.52,0Z"/><path class="c" d="M196.74,93.13s13.54,4.17,20.94.59,2.64-9.13,2.64-9.13A49.83,49.83,0,0,0,196.74,93.13Z"/><path class="c" d="M249.87,142.05c-12.88-.46-43.93-2.59-53.45-3.25,1.85-4.57,5.08-14.11,3.53-22a22.62,22.62,0,0,0-12.38-16.13L239.5,106c1.15.32,10.28,3.26,12.49,15.83C253.16,128.49,251.86,136.72,249.87,142.05Z"/><path class="b" d="M194.91,103.46,239.12,108c1.32.41,9,3.21,10.9,14.2A40.18,40.18,0,0,1,248.46,140c-12.45-.5-38-2.23-49.22-3,1.87-5.26,4.06-13.49,2.68-20.53a24.08,24.08,0,0,0-7-13M180.74,98s-2,1.45.82,2.58c0,0,13.71,2.81,16.43,16.65,2,10-4.54,23.37-4.54,23.37s43.6,3.09,57.75,3.49c2.21-5.09,4.18-14.54,2.76-22.61-2.58-14.7-14.1-17.45-14.1-17.45l-59.12-6Z"/><path class="b" d="M208.65,102.91s7.9,11.55,17.69,10.66,3.9-9.36,3.9-9.36Z"/><path class="o" d="M239.57,237.76s-11.22,10.43-50.74,11.45"/><path class="o" d="M214.39,253.84a189.53,189.53,0,0,1-29,2"/><path class="o" d="M136.36,275.14a189.29,189.29,0,0,0,29,2.05"/><path class="o" d="M136.36,281.55a177,177,0,0,0,18.51,1.82"/><path class="h" d="M193.42,113.79a6.91,6.91,0,0,0-1.47-2.33c-7.62,5.12-14.32,11.47-20.75,18.07a22.39,22.39,0,0,0,2.48,1.42,37.26,37.26,0,0,0,15.21,3.51,17.69,17.69,0,0,0,4.65-.58,3.33,3.33,0,0,0,1.59-2.68c-.22-1-1.13-1.67-1.36-2.66C192.74,124.17,195.19,118.62,193.42,113.79Z"/><path class="g" d="M192,111.46a9.28,9.28,0,0,0-4.9-2.69,9.07,9.07,0,0,0-7.28,1.52,15.49,15.49,0,0,0-5.09,6.54,12.26,12.26,0,0,1-3.35,4.12,11.83,11.83,0,0,1-3.21,1.46,4.44,4.44,0,0,0-1.42,3c.34.8,2,2.52,4.5,4.14C177.63,122.93,184.33,116.58,192,111.46Z"/><path class="p" d="M171.22,122.7a24.73,24.73,0,0,0,11.93,5.85"/><path class="p" d="M172.63,121.5a24.89,24.89,0,0,0,6.91,4.35"/><circle class="q" cx="190.04" cy="119.05" r="1.45"/><path class="r" d="M227.21,80.82s7-6.32,14.44-9.24c0,0-20.61-1.29-13.55-9.68l-6.22,1.76a105.29,105.29,0,0,1-3.39,17.91Z"/><path class="r" d="M278.32,120.67c1.83-5,5.82-15.2,6.7-22.55,0,0-17.5,3.58-28.66-27.94,0,0,2,3-2.9,18.75,0,0,8.13,4.59,11.81,16.14C265.27,105.07,269.7,108.66,278.32,120.67Z"/><path class="r" d="M193.45,140.6s7.93-14,3.5-27c0,0,27.81,20.17,56.06,25,0,0,.17.85-1.81,5.5C251.2,144.09,212.88,142.53,193.45,140.6Z"/><g class="s"><path class="c" d="M194.83,89.83c.38-.1,12.26-6.87,23.66-8.26,0,0,2.34-9.27,2.69-13.1,0,0-39-4.4-57.47-25.91h0s5,10.4,4.15,26.49-1.48,18.46-1.48,18.46S186.15,92,194.83,89.83Z"/></g><path class="r" d="M239.17,60.58s-13.32-10-3.09-21.35A96.5,96.5,0,0,0,220,45.71s2.91,13,1.16,22.76C221.18,68.47,231,62.16,239.17,60.58Z"/><g class="s"><path class="t" d="M204.53,13.62c-18.59-9.26-50.26-3.26-59.45.62A76,76,0,0,1,154.68,26a176.41,176.41,0,0,1,63.87,14.28A88.45,88.45,0,0,0,204.53,13.62Z"/></g><g class="s"><path class="u" d="M80.19,166.3c21-9.39,56.36-11.87,80.48-8a81,81,0,0,1-.91-14.47c-21.93-.7-51.7-16-71.85-24.69C78.53,131.57,78.28,150.83,80.19,166.3Z"/></g><path class="v" d="M156,94.23S135,67.74,121.07,55c8.35-5.19,10.63-7.2,22-11.23-1-1-3.8-3.65-4.9-4.59C136.57,37.85,111.34,55,111.34,55s11.85,13.1,15.32,20.56c1,2.16-1.1,7,1.12,9.7,2.07,2.53,4.1,5.1,6.19,7.57,9.29,1,22,1.36,22,1.36"/><path class="v" d="M81.08,63.71S69.3,56.36,74.43,42.23c2.71-7.46,12.5-12.06,12.5-12.06S75,33.89,69.3,39c-5.14,4.59-14.66,16.79-17.59,21.48S41.85,76.19,40,85.21C40,85.21,60.46,65.35,81.08,63.71Z"/><path class="v" d="M161.71,39.34A75.75,75.75,0,0,0,148.62,42a97.81,97.81,0,0,1,10.64,46.65s19.23,5.62,24.76,6.55l4.59-4s-13.33-.29-22.23-3.7C166.38,87.51,171.91,52.37,161.71,39.34Z"/><path class="v" d="M98.94,91.54a30.25,30.25,0,0,1,8.7,9.64s10.21-5.57,16.63-7.22a59.13,59.13,0,0,1-11.52-16.25S104.91,86.59,98.94,91.54Z"/><path class="v" d="M84.16,102s4.18,8.38,8.12,11.82c0,0-5.79,6.84-7.21,9.79,0,0-8.68-8.67-10.64-17.31C74.43,106.31,81.15,104.1,84.16,102Z"/></g></svg>