<?xml version="1.0" encoding="utf-8"?>
<!-- Generator: Adobe Illustrator 23.1.0, SVG Export Plug-In . SVG Version: 6.00 Build 0)  -->
<svg version="1.1" id="Layer_2" xmlns="http://www.w3.org/2000/svg" xmlns:xlink="http://www.w3.org/1999/xlink" x="0px" y="0px"
	 viewBox="0 0 400 400" style="enable-background:new 0 0 400 400;" xml:space="preserve">
<style type="text/css">
	.st0{fill:#6E6E6E;}
	.st1{fill:#39A36E;}
	.st2{fill:#044274;}
	.st3{opacity:0.8;clip-path:url(#SVGID_2_);fill:url(#SVGID_3_);}
	.st4{opacity:0.8;fill:url(#SVGID_4_);}
	.st5{opacity:0.8;}
</style>
<g>
	<g>
		<path class="st0" d="M114.3,221.4c-0.2-0.3-0.5-0.6-0.9-0.8c-0.4-0.2-0.8-0.3-1.3-0.3c-0.3,0-0.5,0-0.8,0.1
			c-0.3,0.1-0.5,0.2-0.8,0.4c-0.2,0.2-0.4,0.4-0.5,0.6c-0.1,0.3-0.2,0.6-0.2,0.9c0,0.3,0.1,0.6,0.2,0.9c0.1,0.2,0.3,0.4,0.5,0.6
			c0.2,0.2,0.5,0.3,0.7,0.4c0.3,0.1,0.6,0.2,0.9,0.3c0.4,0.1,0.8,0.3,1.1,0.4c0.4,0.1,0.7,0.3,1,0.6c0.3,0.2,0.6,0.5,0.7,0.9
			c0.2,0.4,0.3,0.8,0.3,1.3c0,0.5-0.1,1-0.3,1.4c-0.2,0.4-0.5,0.7-0.8,1c-0.3,0.3-0.7,0.4-1.1,0.6c-0.4,0.1-0.9,0.2-1.3,0.2
			c-0.3,0-0.7,0-1-0.1c-0.3-0.1-0.6-0.2-0.9-0.3c-0.3-0.1-0.6-0.3-0.8-0.5c-0.3-0.2-0.5-0.4-0.7-0.7l0.9-0.7c0.2,0.4,0.6,0.7,1,1
			c0.4,0.3,0.9,0.4,1.5,0.4c0.3,0,0.6,0,0.8-0.1c0.3-0.1,0.5-0.2,0.8-0.4c0.2-0.2,0.4-0.4,0.6-0.7c0.1-0.3,0.2-0.6,0.2-0.9
			c0-0.4-0.1-0.7-0.2-0.9c-0.1-0.2-0.3-0.5-0.6-0.6c-0.2-0.2-0.5-0.3-0.8-0.4c-0.3-0.1-0.6-0.2-1-0.3c-0.4-0.1-0.7-0.2-1.1-0.4
			c-0.3-0.1-0.7-0.3-0.9-0.6c-0.3-0.2-0.5-0.5-0.7-0.8c-0.2-0.3-0.3-0.8-0.3-1.2c0-0.5,0.1-1,0.3-1.3c0.2-0.4,0.5-0.7,0.8-0.9
			c0.3-0.2,0.7-0.4,1.1-0.5c0.4-0.1,0.8-0.2,1.2-0.2c0.7,0,1.4,0.1,1.9,0.4c0.5,0.3,0.9,0.6,1.2,0.9L114.3,221.4z"/>
		<path class="st0" d="M125.4,226.7v0.2c0,0.1,0,0.2,0,0.3h-5.9c0,0.4,0.1,0.7,0.2,1c0.1,0.3,0.3,0.6,0.6,0.8
			c0.2,0.2,0.5,0.4,0.8,0.6c0.3,0.1,0.7,0.2,1,0.2c0.5,0,1-0.1,1.4-0.4c0.4-0.3,0.7-0.5,0.9-0.9l0.8,0.6c-0.4,0.5-0.9,0.9-1.4,1.2
			c-0.5,0.2-1.1,0.4-1.7,0.4c-0.5,0-1-0.1-1.5-0.3c-0.5-0.2-0.8-0.5-1.2-0.8c-0.3-0.3-0.6-0.7-0.8-1.2c-0.2-0.5-0.3-1-0.3-1.5
			c0-0.5,0.1-1,0.3-1.5c0.2-0.5,0.4-0.9,0.8-1.2c0.3-0.3,0.7-0.6,1.1-0.8c0.4-0.2,0.9-0.3,1.4-0.3c0.6,0,1.1,0.1,1.5,0.3
			c0.4,0.2,0.8,0.4,1.1,0.8c0.3,0.3,0.5,0.7,0.7,1.1C125.3,225.8,125.4,226.3,125.4,226.7 M124.3,226.4c0-0.7-0.2-1.2-0.7-1.7
			c-0.4-0.4-1-0.7-1.7-0.7c-0.3,0-0.7,0.1-1,0.2c-0.3,0.1-0.6,0.3-0.8,0.5c-0.2,0.2-0.4,0.5-0.5,0.8c-0.1,0.3-0.2,0.6-0.2,0.9H124.3
			z"/>
		<path class="st0" d="M128.7,224.2c0-0.3,0-0.6,0-0.8h1c0,0.2,0,0.4,0,0.6c0,0.2,0,0.4,0,0.6h0c0.2-0.4,0.5-0.8,0.9-1
			c0.4-0.3,0.9-0.4,1.4-0.4c0.1,0,0.3,0,0.4,0c0.1,0,0.2,0,0.3,0.1l-0.1,1c-0.1,0-0.2,0-0.3-0.1c-0.1,0-0.3,0-0.4,0
			c-0.3,0-0.5,0.1-0.8,0.2c-0.3,0.1-0.5,0.3-0.7,0.5c-0.2,0.2-0.3,0.5-0.5,0.8c-0.1,0.3-0.2,0.8-0.2,1.2v3.7h-1V225
			C128.8,224.8,128.7,224.5,128.7,224.2"/>
		<polygon class="st0" points="138.4,230.5 137.2,230.5 134.3,223.4 135.5,223.4 137.8,229.4 137.8,229.4 140.2,223.4 141.3,223.4 
					"/>
		<path class="st0" d="M145.3,220.6c0,0.2-0.1,0.4-0.2,0.5c-0.2,0.1-0.3,0.2-0.5,0.2c-0.2,0-0.4-0.1-0.5-0.2
			c-0.2-0.1-0.2-0.3-0.2-0.5c0-0.2,0.1-0.4,0.2-0.5c0.2-0.1,0.3-0.2,0.5-0.2c0.2,0,0.4,0.1,0.5,0.2
			C145.3,220.2,145.3,220.4,145.3,220.6 M145.1,230.5h-1v-7.2h1V230.5z"/>
		<path class="st0" d="M154.2,225c-0.2-0.3-0.4-0.5-0.8-0.7c-0.3-0.2-0.7-0.3-1.1-0.3c-0.4,0-0.8,0.1-1.1,0.2
			c-0.3,0.1-0.6,0.4-0.9,0.6c-0.2,0.3-0.4,0.6-0.6,0.9c-0.1,0.4-0.2,0.7-0.2,1.1c0,0.4,0.1,0.8,0.2,1.1c0.1,0.3,0.3,0.7,0.5,0.9
			c0.2,0.3,0.5,0.5,0.9,0.6c0.3,0.1,0.7,0.2,1.1,0.2c0.5,0,0.8-0.1,1.2-0.3c0.3-0.2,0.6-0.4,0.8-0.7l0.8,0.6
			c-0.3,0.4-0.7,0.7-1.1,0.9c-0.4,0.2-1,0.3-1.6,0.3c-0.6,0-1.1-0.1-1.6-0.3c-0.5-0.2-0.9-0.5-1.2-0.8c-0.3-0.3-0.6-0.7-0.8-1.2
			c-0.2-0.5-0.3-1-0.3-1.5c0-0.5,0.1-1,0.3-1.5c0.2-0.5,0.4-0.9,0.8-1.2c0.3-0.3,0.7-0.6,1.2-0.8c0.5-0.2,1-0.3,1.6-0.3
			c0.5,0,1,0.1,1.5,0.3c0.5,0.2,0.9,0.5,1.2,0.9L154.2,225z"/>
		<path class="st0" d="M159.2,220.6c0,0.2-0.1,0.4-0.2,0.5c-0.2,0.1-0.3,0.2-0.5,0.2c-0.2,0-0.4-0.1-0.5-0.2
			c-0.2-0.1-0.2-0.3-0.2-0.5c0-0.2,0.1-0.4,0.2-0.5c0.2-0.1,0.3-0.2,0.5-0.2c0.2,0,0.4,0.1,0.5,0.2
			C159.1,220.2,159.2,220.4,159.2,220.6 M158.9,230.5h-1v-7.2h1V230.5z"/>
		<path class="st0" d="M170,227c0,0.5-0.1,1-0.3,1.5c-0.2,0.5-0.5,0.9-0.8,1.2c-0.3,0.3-0.7,0.6-1.2,0.8c-0.5,0.2-1,0.3-1.5,0.3
			c-0.6,0-1.1-0.1-1.5-0.3c-0.5-0.2-0.9-0.5-1.2-0.8c-0.3-0.3-0.6-0.7-0.8-1.2c-0.2-0.5-0.3-1-0.3-1.5c0-0.5,0.1-1,0.3-1.5
			c0.2-0.5,0.5-0.9,0.8-1.2c0.3-0.3,0.7-0.6,1.2-0.8c0.5-0.2,1-0.3,1.5-0.3c0.6,0,1.1,0.1,1.5,0.3c0.5,0.2,0.9,0.5,1.2,0.8
			c0.3,0.3,0.6,0.7,0.8,1.2C169.9,225.9,170,226.4,170,227 M168.9,227c0-0.4-0.1-0.8-0.2-1.1c-0.1-0.4-0.3-0.7-0.5-0.9
			c-0.2-0.3-0.5-0.5-0.9-0.6c-0.3-0.2-0.7-0.2-1.1-0.2c-0.4,0-0.8,0.1-1.1,0.2c-0.3,0.2-0.6,0.4-0.8,0.6c-0.2,0.3-0.4,0.6-0.5,0.9
			c-0.1,0.4-0.2,0.7-0.2,1.1c0,0.4,0.1,0.8,0.2,1.1c0.1,0.4,0.3,0.7,0.5,0.9c0.2,0.3,0.5,0.5,0.8,0.6c0.3,0.1,0.7,0.2,1.1,0.2
			c0.4,0,0.8-0.1,1.1-0.2c0.3-0.1,0.6-0.4,0.9-0.6c0.2-0.3,0.4-0.6,0.5-0.9C168.8,227.7,168.9,227.4,168.9,227"/>
		<path class="st0" d="M177.2,225.1c-0.2-0.3-0.4-0.5-0.7-0.7c-0.3-0.2-0.7-0.3-1.1-0.3c-0.2,0-0.4,0-0.6,0.1
			c-0.2,0-0.3,0.1-0.5,0.2c-0.1,0.1-0.3,0.2-0.3,0.4c-0.1,0.1-0.1,0.3-0.1,0.5c0,0.3,0.1,0.6,0.4,0.8c0.3,0.2,0.7,0.3,1.3,0.5
			c0.8,0.2,1.5,0.4,1.9,0.8c0.4,0.3,0.6,0.8,0.6,1.3c0,0.4-0.1,0.8-0.2,1c-0.2,0.3-0.4,0.5-0.6,0.7c-0.3,0.2-0.5,0.3-0.9,0.4
			c-0.3,0.1-0.6,0.1-1,0.1c-0.5,0-1.1-0.1-1.6-0.3c-0.5-0.2-0.9-0.6-1.3-1.1l0.8-0.6c0.2,0.3,0.5,0.6,0.8,0.8
			c0.4,0.2,0.8,0.3,1.2,0.3c0.2,0,0.4,0,0.6-0.1c0.2,0,0.4-0.1,0.5-0.2c0.2-0.1,0.3-0.2,0.4-0.4c0.1-0.2,0.1-0.4,0.1-0.6
			c0-0.4-0.2-0.7-0.5-0.8c-0.4-0.2-0.9-0.4-1.6-0.5c-0.2-0.1-0.4-0.1-0.7-0.2c-0.2-0.1-0.5-0.2-0.7-0.3c-0.2-0.1-0.4-0.3-0.5-0.6
			c-0.1-0.2-0.2-0.5-0.2-0.8c0-0.4,0.1-0.7,0.2-0.9c0.1-0.3,0.3-0.5,0.6-0.6c0.2-0.2,0.5-0.3,0.8-0.4c0.3-0.1,0.6-0.1,0.9-0.1
			c0.5,0,1,0.1,1.5,0.3c0.5,0.2,0.8,0.5,1.1,0.9L177.2,225.1z"/>
		<rect x="186.4" y="219.7" class="st0" width="1.1" height="10.8"/>
		<path class="st0" d="M192.4,223.4c0,0.2,0,0.4,0,0.6c0,0.2,0,0.4,0,0.6h0c0.2-0.4,0.5-0.8,1-1c0.5-0.3,0.9-0.4,1.5-0.4
			c0.9,0,1.6,0.3,2,0.8c0.5,0.5,0.7,1.3,0.7,2.1v4.4h-1v-4c0-0.4,0-0.7-0.1-1c-0.1-0.3-0.2-0.6-0.3-0.8c-0.1-0.2-0.3-0.4-0.6-0.5
			c-0.2-0.1-0.6-0.2-0.9-0.2c-0.3,0-0.5,0.1-0.8,0.2c-0.3,0.1-0.5,0.3-0.7,0.5c-0.2,0.2-0.4,0.5-0.5,0.9c-0.1,0.4-0.2,0.8-0.2,1.2
			v3.7h-1V225c0-0.2,0-0.4,0-0.8c0-0.3,0-0.6,0-0.8H192.4z"/>
		<path class="st0" d="M207.5,229.3c-0.3,0.5-0.7,0.8-1.2,1c-0.5,0.2-1,0.4-1.5,0.4c-0.6,0-1.1-0.1-1.5-0.3
			c-0.5-0.2-0.8-0.5-1.2-0.8c-0.3-0.3-0.6-0.7-0.7-1.2c-0.2-0.5-0.3-1-0.3-1.5c0-0.5,0.1-1,0.3-1.5c0.2-0.5,0.4-0.9,0.7-1.2
			c0.3-0.3,0.7-0.6,1.2-0.8c0.5-0.2,1-0.3,1.5-0.3c0.5,0,1,0.1,1.5,0.4c0.5,0.2,0.9,0.6,1.2,1.1h0V219h1v11.6h-1L207.5,229.3
			L207.5,229.3z M202.2,227c0,0.4,0.1,0.8,0.2,1.1c0.1,0.4,0.3,0.7,0.5,0.9c0.2,0.3,0.5,0.5,0.8,0.6c0.3,0.1,0.7,0.2,1.1,0.2
			c0.4,0,0.8-0.1,1.1-0.2c0.3-0.1,0.6-0.4,0.9-0.6c0.2-0.3,0.4-0.6,0.6-0.9c0.1-0.4,0.2-0.7,0.2-1.1c0-0.4-0.1-0.8-0.2-1.1
			c-0.1-0.4-0.3-0.7-0.6-0.9c-0.2-0.3-0.5-0.5-0.9-0.6c-0.3-0.1-0.7-0.2-1.1-0.2c-0.4,0-0.8,0.1-1.1,0.2c-0.3,0.2-0.6,0.4-0.8,0.6
			c-0.2,0.3-0.4,0.6-0.5,0.9C202.2,226.2,202.2,226.6,202.2,227"/>
		<path class="st0" d="M217.7,230.5c0-0.2,0-0.4,0-0.6c0-0.2,0-0.4,0-0.6h0c-0.2,0.4-0.5,0.8-1,1c-0.5,0.3-0.9,0.4-1.5,0.4
			c-0.9,0-1.6-0.3-2-0.8c-0.5-0.5-0.7-1.3-0.7-2.1v-4.4h1v4c0,0.4,0,0.7,0.1,1c0.1,0.3,0.2,0.6,0.3,0.8c0.1,0.2,0.3,0.4,0.6,0.5
			c0.3,0.1,0.6,0.2,0.9,0.2c0.3,0,0.5-0.1,0.8-0.2c0.3-0.1,0.5-0.3,0.7-0.5c0.2-0.2,0.4-0.5,0.5-0.9c0.1-0.4,0.2-0.8,0.2-1.2v-3.7h1
			v5.6c0,0.2,0,0.4,0,0.7c0,0.3,0,0.6,0,0.8H217.7z"/>
		<path class="st0" d="M226.4,225.1c-0.2-0.3-0.4-0.5-0.7-0.7c-0.3-0.2-0.7-0.3-1.1-0.3c-0.2,0-0.4,0-0.6,0.1
			c-0.2,0-0.3,0.1-0.5,0.2c-0.1,0.1-0.3,0.2-0.3,0.4c-0.1,0.1-0.1,0.3-0.1,0.5c0,0.3,0.1,0.6,0.4,0.8c0.3,0.2,0.7,0.3,1.3,0.5
			c0.8,0.2,1.5,0.4,1.9,0.8c0.4,0.3,0.6,0.8,0.6,1.3c0,0.4-0.1,0.8-0.2,1c-0.2,0.3-0.4,0.5-0.6,0.7c-0.3,0.2-0.5,0.3-0.9,0.4
			c-0.3,0.1-0.6,0.1-1,0.1c-0.5,0-1.1-0.1-1.6-0.3c-0.5-0.2-0.9-0.6-1.3-1.1l0.8-0.6c0.2,0.3,0.5,0.6,0.8,0.8
			c0.4,0.2,0.7,0.3,1.2,0.3c0.2,0,0.4,0,0.6-0.1c0.2,0,0.4-0.1,0.5-0.2c0.2-0.1,0.3-0.2,0.4-0.4c0.1-0.2,0.1-0.4,0.1-0.6
			c0-0.4-0.2-0.7-0.5-0.8c-0.4-0.2-0.9-0.4-1.6-0.5c-0.2-0.1-0.4-0.1-0.7-0.2c-0.2-0.1-0.5-0.2-0.7-0.3c-0.2-0.1-0.4-0.3-0.5-0.6
			c-0.1-0.2-0.2-0.5-0.2-0.8c0-0.4,0.1-0.7,0.2-0.9c0.1-0.3,0.3-0.5,0.6-0.6c0.2-0.2,0.5-0.3,0.8-0.4c0.3-0.1,0.6-0.1,1-0.1
			c0.5,0,1,0.1,1.5,0.3c0.5,0.2,0.8,0.5,1.1,0.9L226.4,225.1z"/>
		<path class="st0" d="M233.8,224.2h-2v4.2c0,0.3,0,0.5,0.1,0.7c0.1,0.2,0.1,0.3,0.2,0.4c0.1,0.1,0.2,0.2,0.3,0.2
			c0.1,0,0.3,0.1,0.4,0.1c0.1,0,0.3,0,0.5-0.1c0.2,0,0.3-0.1,0.5-0.2l0,0.9c-0.2,0.1-0.4,0.1-0.6,0.2c-0.2,0-0.4,0.1-0.7,0.1
			c-0.2,0-0.4,0-0.6-0.1c-0.2-0.1-0.4-0.1-0.6-0.3c-0.2-0.1-0.3-0.3-0.5-0.6c-0.1-0.2-0.2-0.6-0.2-1v-4.5h-1.5v-0.9h1.5v-2h1v2h2
			V224.2z"/>
		<path class="st0" d="M236.5,224.2c0-0.3,0-0.6,0-0.8h1c0,0.2,0,0.4,0,0.6c0,0.2,0,0.4,0,0.6h0c0.2-0.4,0.5-0.8,0.9-1
			c0.4-0.3,0.9-0.4,1.4-0.4c0.1,0,0.3,0,0.4,0c0.1,0,0.2,0,0.3,0.1l-0.1,1c-0.1,0-0.2,0-0.3-0.1c-0.1,0-0.3,0-0.4,0
			c-0.3,0-0.5,0.1-0.8,0.2c-0.3,0.1-0.5,0.3-0.7,0.5c-0.2,0.2-0.3,0.5-0.5,0.8c-0.1,0.3-0.2,0.8-0.2,1.2v3.7h-1V225
			C236.5,224.8,236.5,224.5,236.5,224.2"/>
		<path class="st0" d="M244.5,220.6c0,0.2-0.1,0.4-0.2,0.5c-0.2,0.1-0.3,0.2-0.5,0.2c-0.2,0-0.4-0.1-0.5-0.2
			c-0.2-0.1-0.2-0.3-0.2-0.5c0-0.2,0.1-0.4,0.2-0.5c0.2-0.1,0.3-0.2,0.5-0.2c0.2,0,0.4,0.1,0.5,0.2
			C244.4,220.2,244.5,220.4,244.5,220.6 M244.3,230.5h-1v-7.2h1V230.5z"/>
		<path class="st0" d="M252.7,225.9c0-0.6-0.2-1.1-0.5-1.4c-0.3-0.3-0.8-0.5-1.4-0.5c-0.4,0-0.8,0.1-1.2,0.2
			c-0.4,0.2-0.7,0.4-0.9,0.6l-0.6-0.7c0.3-0.3,0.7-0.5,1.2-0.7c0.5-0.2,1-0.3,1.6-0.3c0.4,0,0.8,0.1,1.1,0.2
			c0.3,0.1,0.6,0.3,0.9,0.5c0.3,0.2,0.5,0.5,0.6,0.8c0.1,0.3,0.2,0.7,0.2,1.1v3.1c0,0.3,0,0.6,0,0.9c0,0.3,0.1,0.5,0.1,0.8h-0.9
			c0-0.2-0.1-0.4-0.1-0.6c0-0.2,0-0.4,0-0.6h0c-0.3,0.5-0.7,0.8-1.1,1c-0.4,0.2-0.9,0.3-1.5,0.3c-0.3,0-0.6,0-0.9-0.1
			c-0.3-0.1-0.6-0.2-0.8-0.4c-0.2-0.2-0.4-0.4-0.6-0.7c-0.2-0.3-0.2-0.6-0.2-1c0-0.6,0.1-1,0.4-1.3c0.3-0.3,0.7-0.6,1.1-0.7
			c0.5-0.2,1-0.3,1.6-0.3c0.6,0,1.2-0.1,1.9-0.1V225.9z M252.4,227c-0.4,0-0.9,0-1.3,0.1c-0.4,0-0.8,0.1-1.2,0.2
			c-0.4,0.1-0.6,0.3-0.9,0.5c-0.2,0.2-0.3,0.5-0.3,0.8c0,0.3,0,0.5,0.1,0.6c0.1,0.2,0.2,0.3,0.4,0.4c0.2,0.1,0.3,0.2,0.5,0.2
			c0.2,0,0.4,0.1,0.6,0.1c0.4,0,0.7-0.1,1-0.2c0.3-0.1,0.5-0.3,0.7-0.5c0.2-0.2,0.3-0.5,0.4-0.8c0.1-0.3,0.2-0.6,0.2-0.9V227H252.4z
			"/>
		<rect x="257.6" y="219" class="st0" width="1" height="11.6"/>
		<path class="st0" d="M269.1,226.7v0.2c0,0.1,0,0.2,0,0.3h-5.9c0,0.4,0.1,0.7,0.2,1c0.1,0.3,0.3,0.6,0.6,0.8
			c0.2,0.2,0.5,0.4,0.8,0.6c0.3,0.1,0.7,0.2,1,0.2c0.5,0,1-0.1,1.4-0.4c0.4-0.3,0.7-0.5,0.9-0.9l0.8,0.6c-0.4,0.5-0.9,0.9-1.4,1.2
			c-0.5,0.2-1.1,0.4-1.7,0.4c-0.5,0-1-0.1-1.5-0.3c-0.5-0.2-0.8-0.5-1.2-0.8c-0.3-0.3-0.6-0.7-0.8-1.2c-0.2-0.5-0.3-1-0.3-1.5
			c0-0.5,0.1-1,0.3-1.5c0.2-0.5,0.4-0.9,0.8-1.2c0.3-0.3,0.7-0.6,1.1-0.8c0.4-0.2,0.9-0.3,1.4-0.3c0.6,0,1.1,0.1,1.5,0.3
			c0.4,0.2,0.8,0.4,1.1,0.8c0.3,0.3,0.5,0.7,0.7,1.1C269,225.8,269.1,226.3,269.1,226.7 M268,226.4c0-0.7-0.2-1.2-0.7-1.7
			c-0.4-0.4-1-0.7-1.7-0.7c-0.3,0-0.7,0.1-1,0.2c-0.3,0.1-0.6,0.3-0.8,0.5c-0.2,0.2-0.4,0.5-0.5,0.8c-0.1,0.3-0.2,0.6-0.2,0.9H268z"
			/>
		<path class="st0" d="M276.3,225.1c-0.2-0.3-0.4-0.5-0.7-0.7c-0.3-0.2-0.7-0.3-1.1-0.3c-0.2,0-0.4,0-0.6,0.1
			c-0.2,0-0.3,0.1-0.5,0.2c-0.1,0.1-0.3,0.2-0.3,0.4c-0.1,0.1-0.1,0.3-0.1,0.5c0,0.3,0.1,0.6,0.4,0.8c0.3,0.2,0.7,0.3,1.3,0.5
			c0.8,0.2,1.5,0.4,1.9,0.8c0.4,0.3,0.6,0.8,0.6,1.3c0,0.4-0.1,0.8-0.2,1c-0.2,0.3-0.4,0.5-0.6,0.7c-0.3,0.2-0.5,0.3-0.9,0.4
			c-0.3,0.1-0.6,0.1-1,0.1c-0.5,0-1.1-0.1-1.6-0.3c-0.5-0.2-0.9-0.6-1.3-1.1l0.8-0.6c0.2,0.3,0.5,0.6,0.8,0.8
			c0.4,0.2,0.8,0.3,1.2,0.3c0.2,0,0.4,0,0.6-0.1c0.2,0,0.4-0.1,0.5-0.2c0.2-0.1,0.3-0.2,0.4-0.4s0.1-0.4,0.1-0.6
			c0-0.4-0.2-0.7-0.5-0.8c-0.4-0.2-0.9-0.4-1.6-0.5c-0.2-0.1-0.4-0.1-0.7-0.2c-0.2-0.1-0.5-0.2-0.7-0.3c-0.2-0.1-0.4-0.3-0.5-0.6
			c-0.1-0.2-0.2-0.5-0.2-0.8c0-0.4,0.1-0.7,0.2-0.9c0.1-0.3,0.3-0.5,0.6-0.6c0.2-0.2,0.5-0.3,0.8-0.4c0.3-0.1,0.6-0.1,0.9-0.1
			c0.5,0,1,0.1,1.5,0.3c0.5,0.2,0.8,0.5,1.1,0.9L276.3,225.1z"/>
		<path class="st0" d="M296.6,230.5h-6.2c-0.8,0-1.5-0.1-2.2-0.4c-0.7-0.3-1.2-0.7-1.7-1.2c-0.5-0.5-0.9-1.1-1.1-1.8
			c-0.3-0.7-0.4-1.4-0.4-2.2c0-0.8,0.1-1.6,0.4-2.2c0.3-0.7,0.7-1.3,1.1-1.8c0.5-0.5,1.1-0.9,1.7-1.2c0.7-0.3,1.4-0.4,2.2-0.4
			c0.8,0,1.5,0.1,2.2,0.4c0.7,0.3,1.3,0.7,1.7,1.2c0.5,0.5,0.9,1.1,1.1,1.8c0.3,0.7,0.4,1.4,0.4,2.2c0,1-0.2,1.8-0.6,2.6
			c-0.4,0.8-1.1,1.4-1.9,1.9v0h3.3V230.5z M286.1,225c0,0.6,0.1,1.2,0.3,1.7c0.2,0.5,0.5,1,0.9,1.5c0.4,0.4,0.8,0.8,1.4,1
			c0.5,0.2,1.1,0.4,1.8,0.4c0.7,0,1.3-0.1,1.8-0.4c0.5-0.3,1-0.6,1.4-1c0.4-0.4,0.7-0.9,0.9-1.5c0.2-0.5,0.3-1.1,0.3-1.7
			c0-0.6-0.1-1.2-0.3-1.7c-0.2-0.5-0.5-1-0.9-1.5c-0.4-0.4-0.8-0.8-1.4-1c-0.5-0.2-1.1-0.4-1.8-0.4c-0.7,0-1.3,0.1-1.8,0.4
			c-0.5,0.2-1,0.6-1.4,1c-0.4,0.4-0.7,0.9-0.9,1.5C286.2,223.8,286.1,224.4,286.1,225"/>
		<path class="st0" d="M304.7,230.5c0-0.2,0-0.4,0-0.6c0-0.2,0-0.4,0-0.6h0c-0.2,0.4-0.5,0.8-1,1c-0.5,0.3-0.9,0.4-1.5,0.4
			c-0.9,0-1.6-0.3-2-0.8c-0.5-0.5-0.7-1.3-0.7-2.1v-4.4h1v4c0,0.4,0,0.7,0.1,1c0.1,0.3,0.2,0.6,0.3,0.8c0.1,0.2,0.3,0.4,0.6,0.5
			c0.3,0.1,0.6,0.2,0.9,0.2c0.3,0,0.5-0.1,0.8-0.2c0.3-0.1,0.5-0.3,0.7-0.5c0.2-0.2,0.4-0.5,0.5-0.9c0.1-0.4,0.2-0.8,0.2-1.2v-3.7h1
			v5.6c0,0.2,0,0.4,0,0.7c0,0.3,0,0.6,0,0.8H304.7z"/>
		<path class="st0" d="M316.1,226.7v0.2c0,0.1,0,0.2,0,0.3h-5.9c0,0.4,0.1,0.7,0.2,1c0.1,0.3,0.3,0.6,0.6,0.8
			c0.2,0.2,0.5,0.4,0.8,0.6c0.3,0.1,0.7,0.2,1,0.2c0.5,0,1-0.1,1.4-0.4c0.4-0.3,0.7-0.5,0.9-0.9l0.8,0.6c-0.4,0.5-0.9,0.9-1.4,1.2
			c-0.5,0.2-1.1,0.4-1.7,0.4c-0.5,0-1-0.1-1.5-0.3c-0.5-0.2-0.8-0.5-1.2-0.8c-0.3-0.3-0.6-0.7-0.8-1.2c-0.2-0.5-0.3-1-0.3-1.5
			c0-0.5,0.1-1,0.3-1.5c0.2-0.5,0.4-0.9,0.8-1.2c0.3-0.3,0.7-0.6,1.1-0.8c0.4-0.2,0.9-0.3,1.4-0.3c0.6,0,1.1,0.1,1.5,0.3
			c0.4,0.2,0.8,0.4,1.1,0.8c0.3,0.3,0.5,0.7,0.7,1.1C316,225.8,316.1,226.3,316.1,226.7 M315.1,226.4c0-0.7-0.2-1.2-0.7-1.7
			c-0.4-0.4-1-0.7-1.7-0.7c-0.3,0-0.7,0.1-1,0.2c-0.3,0.1-0.6,0.3-0.8,0.5c-0.2,0.2-0.4,0.5-0.5,0.8c-0.1,0.3-0.2,0.6-0.2,0.9H315.1
			z M313,221.9h-0.9l1.5-2.2h1.4L313,221.9z"/>
		<path class="st0" d="M319.5,224.2c0-0.3,0-0.6,0-0.8h1c0,0.2,0,0.4,0,0.6c0,0.2,0,0.4,0,0.6h0c0.2-0.4,0.5-0.8,0.9-1
			c0.4-0.3,0.9-0.4,1.4-0.4c0.1,0,0.3,0,0.4,0c0.1,0,0.2,0,0.3,0.1l-0.1,1c-0.1,0-0.2,0-0.3-0.1c-0.1,0-0.3,0-0.4,0
			c-0.3,0-0.5,0.1-0.8,0.2c-0.3,0.1-0.5,0.3-0.7,0.5c-0.2,0.2-0.3,0.5-0.5,0.8c-0.1,0.3-0.2,0.8-0.2,1.2v3.7h-1V225
			C319.5,224.8,319.5,224.5,319.5,224.2"/>
		<path class="st0" d="M332.5,226.7v0.2c0,0.1,0,0.2,0,0.3h-5.9c0,0.4,0.1,0.7,0.2,1c0.1,0.3,0.3,0.6,0.6,0.8
			c0.2,0.2,0.5,0.4,0.8,0.6c0.3,0.1,0.7,0.2,1,0.2c0.5,0,1-0.1,1.4-0.4c0.4-0.3,0.7-0.5,0.9-0.9l0.8,0.6c-0.4,0.5-0.9,0.9-1.4,1.2
			c-0.5,0.2-1.1,0.4-1.7,0.4c-0.5,0-1-0.1-1.5-0.3c-0.5-0.2-0.8-0.5-1.2-0.8c-0.3-0.3-0.6-0.7-0.8-1.2c-0.2-0.5-0.3-1-0.3-1.5
			c0-0.5,0.1-1,0.3-1.5c0.2-0.5,0.4-0.9,0.8-1.2c0.3-0.3,0.7-0.6,1.1-0.8c0.4-0.2,0.9-0.3,1.4-0.3c0.6,0,1.1,0.1,1.5,0.3
			c0.4,0.2,0.8,0.4,1.1,0.8c0.3,0.3,0.5,0.7,0.7,1.1C332.4,225.8,332.5,226.3,332.5,226.7 M331.4,226.4c0-0.7-0.2-1.2-0.7-1.7
			c-0.4-0.4-1-0.7-1.7-0.7c-0.3,0-0.7,0.1-1,0.2c-0.3,0.1-0.6,0.3-0.8,0.5c-0.2,0.2-0.4,0.5-0.5,0.8c-0.1,0.3-0.2,0.6-0.2,0.9H331.4
			z"/>
		<path class="st0" d="M339.1,224.2h-2v4.2c0,0.3,0,0.5,0.1,0.7c0.1,0.2,0.1,0.3,0.2,0.4c0.1,0.1,0.2,0.2,0.3,0.2
			c0.1,0,0.3,0.1,0.4,0.1c0.1,0,0.3,0,0.5-0.1c0.2,0,0.3-0.1,0.5-0.2l0,0.9c-0.2,0.1-0.4,0.1-0.6,0.2c-0.2,0-0.4,0.1-0.6,0.1
			c-0.2,0-0.4,0-0.6-0.1c-0.2-0.1-0.4-0.1-0.6-0.3c-0.2-0.1-0.3-0.3-0.5-0.6c-0.1-0.2-0.2-0.6-0.2-1v-4.5h-1.5v-0.9h1.5v-2h1v2h2
			V224.2z"/>
		<path class="st0" d="M346.4,225.9c0-0.6-0.2-1.1-0.5-1.4c-0.3-0.3-0.8-0.5-1.4-0.5c-0.4,0-0.8,0.1-1.2,0.2
			c-0.4,0.2-0.7,0.4-0.9,0.6l-0.6-0.7c0.3-0.3,0.7-0.5,1.2-0.7c0.5-0.2,1-0.3,1.6-0.3c0.4,0,0.7,0.1,1.1,0.2
			c0.3,0.1,0.6,0.3,0.9,0.5c0.3,0.2,0.5,0.5,0.6,0.8c0.1,0.3,0.2,0.7,0.2,1.1v3.1c0,0.3,0,0.6,0,0.9c0,0.3,0.1,0.5,0.1,0.8h-0.9
			c0-0.2-0.1-0.4-0.1-0.6c0-0.2,0-0.4,0-0.6h0c-0.3,0.5-0.7,0.8-1.1,1c-0.4,0.2-0.9,0.3-1.5,0.3c-0.3,0-0.6,0-0.9-0.1
			c-0.3-0.1-0.6-0.2-0.8-0.4c-0.2-0.2-0.4-0.4-0.6-0.7c-0.2-0.3-0.2-0.6-0.2-1c0-0.6,0.1-1,0.4-1.3c0.3-0.3,0.7-0.6,1.1-0.7
			c0.5-0.2,1-0.3,1.6-0.3c0.6,0,1.2-0.1,1.9-0.1V225.9z M346.1,227c-0.4,0-0.9,0-1.3,0.1c-0.4,0-0.8,0.1-1.2,0.2
			c-0.4,0.1-0.6,0.3-0.9,0.5c-0.2,0.2-0.3,0.5-0.3,0.8c0,0.3,0,0.5,0.1,0.6c0.1,0.2,0.2,0.3,0.4,0.4c0.2,0.1,0.3,0.2,0.5,0.2
			c0.2,0,0.4,0.1,0.6,0.1c0.4,0,0.7-0.1,1-0.2c0.3-0.1,0.5-0.3,0.7-0.5c0.2-0.2,0.3-0.5,0.4-0.8c0.1-0.3,0.2-0.6,0.2-0.9V227H346.1z
			"/>
		<path class="st0" d="M351.2,224.2c0-0.3,0-0.6,0-0.8h1c0,0.2,0,0.4,0,0.6c0,0.2,0,0.4,0,0.6h0c0.2-0.4,0.5-0.8,0.9-1
			c0.4-0.3,0.9-0.4,1.4-0.4c0.1,0,0.3,0,0.4,0c0.1,0,0.2,0,0.3,0.1l-0.1,1c-0.1,0-0.2,0-0.3-0.1c-0.1,0-0.3,0-0.4,0
			c-0.3,0-0.5,0.1-0.8,0.2c-0.3,0.1-0.5,0.3-0.7,0.5c-0.2,0.2-0.3,0.5-0.5,0.8c-0.1,0.3-0.2,0.8-0.2,1.2v3.7h-1V225
			C351.2,224.8,351.2,224.5,351.2,224.2"/>
		<path class="st0" d="M364.7,227c0,0.5-0.1,1-0.3,1.5c-0.2,0.5-0.5,0.9-0.8,1.2c-0.3,0.3-0.7,0.6-1.2,0.8c-0.5,0.2-1,0.3-1.5,0.3
			c-0.6,0-1.1-0.1-1.5-0.3c-0.5-0.2-0.9-0.5-1.2-0.8c-0.3-0.3-0.6-0.7-0.8-1.2c-0.2-0.5-0.3-1-0.3-1.5c0-0.5,0.1-1,0.3-1.5
			c0.2-0.5,0.5-0.9,0.8-1.2c0.3-0.3,0.7-0.6,1.2-0.8c0.5-0.2,1-0.3,1.5-0.3c0.6,0,1.1,0.1,1.5,0.3c0.5,0.2,0.9,0.5,1.2,0.8
			c0.3,0.3,0.6,0.7,0.8,1.2C364.6,225.9,364.7,226.4,364.7,227 M363.6,227c0-0.4-0.1-0.8-0.2-1.1c-0.1-0.4-0.3-0.7-0.5-0.9
			c-0.2-0.3-0.5-0.5-0.9-0.6c-0.3-0.2-0.7-0.2-1.1-0.2c-0.4,0-0.8,0.1-1.1,0.2c-0.3,0.2-0.6,0.4-0.9,0.6c-0.2,0.3-0.4,0.6-0.5,0.9
			c-0.1,0.4-0.2,0.7-0.2,1.1c0,0.4,0.1,0.8,0.2,1.1c0.1,0.4,0.3,0.7,0.5,0.9c0.2,0.3,0.5,0.5,0.9,0.6c0.3,0.1,0.7,0.2,1.1,0.2
			c0.4,0,0.8-0.1,1.1-0.2c0.3-0.1,0.6-0.4,0.9-0.6c0.2-0.3,0.4-0.6,0.5-0.9C363.6,227.7,363.6,227.4,363.6,227"/>
	</g>
	<path class="st0" d="M108.2,213.5V209h26.6c2.5,0,3.8-0.9,3.8-2.8v-3.9c0-1.9-1.3-2.8-3.8-2.8h-18c-1.7,0-3.2-0.2-4.4-0.5
		c-1.2-0.4-2.2-0.9-3-1.5c-0.8-0.7-1.3-1.4-1.7-2.3c-0.3-0.9-0.5-1.9-0.5-3v-1.8c0-1.1,0.2-2.1,0.5-3c0.3-0.9,0.9-1.7,1.7-2.3
		c0.8-0.6,1.8-1.2,3-1.5c1.2-0.4,2.7-0.5,4.4-0.5h25.9v4.5h-25.9c-2.5,0-3.8,0.9-3.8,2.8v1.9c0,1.9,1.3,2.8,3.8,2.8h18
		c1.7,0,3.2,0.2,4.4,0.5c1.2,0.4,2.2,0.9,3,1.5c0.8,0.7,1.3,1.4,1.7,2.3c0.3,0.9,0.5,1.9,0.5,3v3.8c0,1.1-0.2,2.1-0.5,3
		c-0.3,0.9-0.9,1.7-1.7,2.3c-0.8,0.7-1.8,1.2-3,1.5c-1.2,0.4-2.7,0.5-4.4,0.5H108.2z"/>
	<polygon class="st0" points="149.1,213.5 149.1,182.9 180.5,182.9 180.5,187.5 154.9,187.5 154.9,195.1 179.2,195.1 179.2,199.6 
		154.9,199.6 154.9,209 180.5,209 180.5,213.5 	"/>
	<rect x="185.7" y="182.9" class="st0" width="5.8" height="30.6"/>
	<polygon class="st0" points="234.9,213.5 202.3,189.7 202.3,213.5 197.3,213.5 197.3,182.9 202.3,182.9 232.7,205.7 232.7,182.9 
		237.8,182.9 237.8,213.5 	"/>
	<path class="st0" d="M317,213.5l-7.2-13.6h-16.1v13.6H288v-30.6h26c1.7,0,3.2,0.2,4.4,0.5c1.2,0.4,2.2,0.9,3,1.5
		c0.8,0.7,1.3,1.4,1.7,2.3c0.3,0.9,0.5,1.9,0.5,3v2.2c0,2-0.6,3.6-1.7,4.9c-1.2,1.3-3.1,2.1-5.8,2.4l7.2,13.7H317z M317.8,190.3
		c0-1.9-1.3-2.8-3.8-2.8h-20.2v7.9H314c2.5,0,3.8-0.9,3.8-2.8V190.3z"/>
	<path class="st0" d="M337.6,213.5c-1.7,0-3.2-0.2-4.4-0.5c-1.2-0.4-2.2-0.9-3-1.5c-0.8-0.7-1.3-1.4-1.7-2.3c-0.3-0.9-0.5-1.9-0.5-3
		v-15.8c0-1.1,0.2-2.1,0.5-3c0.3-0.9,0.9-1.7,1.7-2.3c0.8-0.7,1.8-1.2,3-1.5c1.2-0.4,2.7-0.5,4.4-0.5h20.2c1.7,0,3.2,0.2,4.4,0.5
		c1.2,0.4,2.2,0.9,3,1.5c0.8,0.7,1.3,1.4,1.7,2.3c0.3,0.9,0.5,1.9,0.5,3v15.8c0,1.1-0.2,2.1-0.5,3c-0.3,0.9-0.9,1.7-1.7,2.3
		c-0.8,0.7-1.8,1.2-3,1.5c-1.2,0.4-2.7,0.5-4.4,0.5H337.6z M361.6,190.3c0-1.9-1.3-2.8-3.8-2.8h-20.2c-2.5,0-3.8,0.9-3.8,2.8v15.9
		c0,1.9,1.3,2.8,3.8,2.8h20.2c2.5,0,3.8-0.9,3.8-2.8V190.3z"/>
	<path class="st1" d="M82.9,170.6l-9.1,6.3c-0.1-0.9-0.4-1.8-0.9-2.6c-0.5-0.8-1.1-1.6-1.8-2.2c-0.8-0.6-1.7-1.1-2.6-1.5
		c-1-0.4-2-0.5-3.1-0.5c-2.1,0-3.9,0.7-5.4,2.2c-1.5,1.5-2.3,3.3-2.3,5.3c0,2.1,0.8,3.8,2.2,5c1.5,1.2,3.4,2.3,5.6,3.2
		c2.3,0.9,4.7,1.9,7.3,2.8c2.6,1,5,2.3,7.3,3.9c2.3,1.6,4.1,3.7,5.6,6.3c1.5,2.6,2.2,5.9,2.2,10c0,2.9-0.6,5.7-1.7,8.2
		c-1,2.1-2.2,4.1-3.7,5.8c8.4-5.7,14-15.3,14-26.3C96.6,185.8,91.2,176.3,82.9,170.6z"/>
	<g>
		<path class="st2" d="M85.7,168.8l-1.8,1.1c8.3,5.7,14.2,15.9,14.2,26.7c0,10.3-4.9,19.4-12.5,25.2c0,0,0,0,0,0
			c8.4-5.7,14.3-15.5,14.3-26.4C99.9,184.5,94,174.5,85.7,168.8z"/>
	</g>
	<g>
		<path class="st2" d="M47,214.4l8.9-5.5c0.5,2.7,2,5.4,4.3,7.2c2.3,1.8,5.1,2.7,8.3,2.7c1.5,0,3-0.3,4.4-0.9
			c1.4-0.6,2.6-1.4,3.6-2.4c1-1,1.8-2.2,2.4-3.5c0.6-1.3,0.9-2.8,0.9-4.3c0-2.6-0.8-4.6-2.3-6.1c-1.5-1.5-3.4-2.8-5.7-3.9
			c-2.3-1.1-4.7-2.1-7.4-3c-2.7-0.9-5.1-2.1-7.3-3.6c-2.2-1.5-4.1-3.3-5.5-5.6c-1.5-2.3-2.2-5.3-2.1-9c0-2.4,0.4-4.7,1.2-6.8
			c0.3-0.7,0.6-1.4,1-2c-9.9,5.4-16.5,15.8-16.5,27.8c0,13.4,8.3,24.8,20,29.4C51.4,222.2,48.6,218.5,47,214.4z"/>
	</g>
	<g>
		<g>
			<path class="st1" d="M46.7,220.8c-7.7-5.8-12.2-15.1-12.2-25.5c0-10.6,4.7-19.6,12.7-25.4c-9,5.6-14.5,15.2-14.5,26.6
				c0,13.4,8.3,24.8,20,29.4C50.4,224.5,48.1,222.9,46.7,220.8z"/>
			<path class="st1" d="M72.4,218.5c-1.4,0.6-2.9,0.9-4.4,0.9c-3.2,0-6-0.9-8.3-2.7c-2.3-1.8-3.8-4.1-4.3-6.8l-1.8,1.2
				c0.5,2.7,2,5,4.3,6.8c2.3,1.8,5.1,2.7,8.3,2.7c1.5,0,3-0.3,4.4-0.9c1.1-0.5,2-1,2.9-1.7C73.1,218.2,72.8,218.4,72.4,218.5z"/>
		</g>
	</g>
	<g>
		<defs>
			<path id="SVGID_1_" d="M82.9,170.6l-9.1,6.3c-0.1-0.9-0.4-1.8-0.9-2.6c-0.5-0.8-1.1-1.6-1.8-2.2c-0.8-0.6-1.7-1.1-2.6-1.5
				c-1-0.4-2-0.5-3.1-0.5c-2.1,0-3.9,0.7-5.4,2.2c-1.5,1.5-2.3,3.3-2.3,5.3c0,2.1,0.8,3.8,2.2,5c1.5,1.2,3.4,2.3,5.6,3.2
				c2.3,0.9,4.7,1.9,7.3,2.8c2.6,1,5,2.3,7.3,3.9c2.3,1.6,4.1,3.7,5.6,6.3c1.5,2.6,2.2,5.9,2.2,10c0,2.9-0.6,5.7-1.7,8.2
				c-1,2.1-2.2,4.1-3.7,5.8c8.4-5.7,14-15.3,14-26.3C96.6,185.8,91.2,176.3,82.9,170.6z"/>
		</defs>
		<clipPath id="SVGID_2_">
			<use xlink:href="#SVGID_1_"  style="overflow:visible;"/>
		</clipPath>
		
			<linearGradient id="SVGID_3_" gradientUnits="userSpaceOnUse" x1="48.9864" y1="189.094" x2="93.0924" y2="189.094" gradientTransform="matrix(1 0 0 1 -3.390000e-02 0)">
			<stop  offset="0" style="stop-color:#00A8BF"/>
			<stop  offset="1" style="stop-color:#00A8BF;stop-opacity:0"/>
		</linearGradient>
		<path class="st3" d="M93.1,189.1c0,12.2-9.9,22.1-22.1,22.1c-12.2,0-22.1-9.9-22.1-22.1C49,176.9,58.8,167,71,167
			C83.2,167,93.1,176.9,93.1,189.1z"/>
	</g>
	<path class="st1" d="M74.4,227c-2.9,0.8-5.9,1.3-5.9,1.3l2.4,4.1H82l-4.1-6.7C77.9,225.8,75.6,226.7,74.4,227z"/>
	
		<linearGradient id="SVGID_4_" gradientUnits="userSpaceOnUse" x1="35.6303" y1="196.1598" x2="80.8844" y2="196.1598" gradientTransform="matrix(0.9883 0 0 1 -2.250000e-02 0)">
		<stop  offset="9.475160e-02" style="stop-color:#00A8BF;stop-opacity:0.1421"/>
		<stop  offset="1" style="stop-color:#00A8BF"/>
	</linearGradient>
	<path class="st4" d="M79.9,207.6c0-4-1.7-5.5-3-6.8c-1.6-1.6-4.1-2.8-6.3-3.9c-2.2-1.1-5.3-2.1-7.6-3c-2.7-1-4.7-2.2-6.8-3.7
		c-2.4-1.7-3.4-3.2-4.9-5.4c-0.3-0.5-2-3.4-1.8-8.9c0.2-5.2,2.2-8.4,2.2-8.4c-6.3,3.4-17.1,12.9-16.5,28.9
		c0.5,16.9,13.3,25.9,20,28.4c-4.4-2.9-7.1-7.5-8.2-10.4l8.9-5.5c0.5,2.7,1.8,5.1,3.8,6.7c2.2,1.8,3.8,2.4,6.6,3
		c1.5,0.3,3.1,0.2,4.7-0.1c1.5-0.3,3.2-1.1,4.3-2c1.5-1.1,2.2-1.9,3.2-3.5C79.5,211.4,79.9,209.2,79.9,207.6z"/>
	<path class="st0" d="M282.4,187.3c-0.3-0.9-0.9-1.7-1.7-2.3c-0.8-0.7-1.8-1.2-3-1.5c-1.2-0.4-2.7-0.5-4.4-0.5h-20.2
		c-1.7,0-3.2,0.2-4.4,0.5c-1.2,0.4-2.2,0.9-3,1.5c-0.8,0.7-1.3,1.4-1.7,2.3c-0.3,0.9-0.5,1.9-0.5,3v15.8c0,1.1,0.2,2.1,0.5,3
		c0.3,0.9,0.9,1.7,1.7,2.3c0.8,0.7,1.8,1.2,3,1.5c1.2,0.4,2.7,0.5,4.4,0.5h14.3c1.8,1.8,2.8,2.8,2.9,2.8c1.1,1.4,2.3,2.1,3.9,2.1
		h5.1c0.3,0,0.5-0.1,0.5-0.3c0-0.3-0.2-0.6-0.7-1.1c-1.8-1.7-3-2.9-3.5-3.6c0.8-0.1,1.6-0.2,2.2-0.4c1.2-0.4,2.2-0.9,3-1.5
		c0.8-0.7,1.3-1.4,1.7-2.3c0.3-0.9,0.5-1.9,0.5-3v-15.8C282.9,189.2,282.7,188.2,282.4,187.3z M277.1,206.2c0,1.9-1.3,2.8-3.8,2.8
		h-20.2c-2.5,0-3.8-0.9-3.8-2.8v-15.9c0-1.9,1.3-2.8,3.8-2.8h20.2c2.5,0,3.8,0.9,3.8,2.8V206.2z"/>
	<g class="st5">
		<defs>
			<path id="SVGID_5_" class="st5" d="M82.9,170.6l-9.1,6.3c-0.1-0.9-0.4-1.8-0.9-2.6c-0.5-0.8-1.1-1.6-1.8-2.2
				c-0.8-0.6-1.7-1.1-2.6-1.5c-1-0.4-2-0.5-3.1-0.5c-2.1,0-3.9,0.7-5.4,2.2c-1.5,1.5-2.3,3.3-2.3,5.3c0,2.1,0.8,3.8,2.2,5
				c1.5,1.2,3.4,2.3,5.6,3.2c2.3,0.9,4.7,1.9,7.3,2.8c2.6,1,5,2.3,7.3,3.9c2.3,1.6,4.1,3.7,5.6,6.3c1.5,2.6,2.2,5.9,2.2,10
				c0,2.9-0.6,5.7-1.7,8.2c-1,2.1-2.2,4.1-3.7,5.8c8.4-5.7,14-15.3,14-26.3C96.6,185.8,91.2,176.3,82.9,170.6z"/>
		</defs>
		<linearGradient id="SVGID_6_" gradientUnits="userSpaceOnUse" x1="57.6792" y1="196.419" x2="96.6133" y2="196.419">
			<stop  offset="0" style="stop-color:#00A8BF"/>
			<stop  offset="1" style="stop-color:#00A8BF;stop-opacity:0"/>
		</linearGradient>
		<use xlink:href="#SVGID_5_"  style="overflow:visible;fill:url(#SVGID_6_);"/>
		<clipPath id="SVGID_7_">
			<use xlink:href="#SVGID_5_"  style="overflow:visible;"/>
		</clipPath>
	</g>
</g>
</svg>
