<svg id="Capa_1" data-name="Capa 1" xmlns="http://www.w3.org/2000/svg" xmlns:xlink="http://www.w3.org/1999/xlink" viewBox="0 0 595.28 194.98"><defs><style>.cls-1{fill:none;}.cls-2{fill:#1b1a41;}.cls-3{font-size:23.46px;fill:#fdfefe;font-family:Roboto-Bold, Roboto;font-weight:700;letter-spacing:0.07em;}.cls-4{clip-path:url(#clip-path);}.cls-5{fill:#fff;}</style><clipPath id="clip-path"><polyline class="cls-1" points="557.98 165.53 557.98 53.22 45.29 53.22 45.29 165.53"/></clipPath></defs><title>WINDOWS</title><path class="cls-2" d="M595.28,168.63A26.35,26.35,0,0,1,568.93,195H25.57A26.35,26.35,0,0,1-.78,168.63V26.35A26.35,26.35,0,0,1,25.57,0H568.93a26.35,26.35,0,0,1,26.35,26.35Z"/><text class="cls-3" transform="translate(180.1 53.22)">DISPONIBLE EN</text><g class="cls-4"><path class="cls-5" d="M101.84,74.45a11.27,11.27,0,0,1,.23,2.3c-3.23,1.39-4.47,2.39-4.41,7.18v2.93l-2.22.45v-3.4c0-7,2.7-8.16,6.4-9.46m6.43-1.51a17.56,17.56,0,0,1,.34,2.22c5.79-.83,5.67,1.56,5.67,6.54v1.84l2.19-.45V81.7c0-7.74-1.2-9.81-8.2-8.76M85.48,89.3V79.13c-.07-6.3,3.18-8.23,9.19-9.65,9-2.12,9.63,3.72,9.63,7.44v8.61l2.21-.44v-8c0-7-2.21-12.29-12.28-10-5.43,1.23-11,2.61-11,11.82V89.74ZM112,116H95V103.72l17-2.5Zm0,17.41L95,131V117.74h17ZM93.26,116H79.75V105.72l13.51-1.91Zm0,14.82L79.75,129V117.74H93.26Zm34.29-47.3L66.66,95.74V140l60.89,12.17,12.17-4.42V88Z"/><path class="cls-5" d="M250,81.54l-19.41,68.69h-9.42L207,100a32.68,32.68,0,0,1-1-6.94h-.19a46.31,46.31,0,0,1-1.29,6.85l-14.24,50.33h-9.34L160.84,81.54h8.81l14.62,52.7a40.44,40.44,0,0,1,1.19,6.89h.2a32.69,32.69,0,0,1,1.44-6.89l15.23-52.7h7.75l14.52,53.08a36.4,36.4,0,0,1,1.14,6.37h.2a42.32,42.32,0,0,1,1.3-6.56l14-52.89Zm15.59,3.51A4.83,4.83,0,0,1,264,88.72a5.36,5.36,0,0,1-7.28,0,4.94,4.94,0,0,1-1.49-3.72,5,5,0,0,1,1.47-3.58A5,5,0,0,1,260.4,80a5.08,5.08,0,0,1,3.7,1.5,4.91,4.91,0,0,1,1.48,3.59m-1.35,65.18h-7.86v-49h7.86Zm52.61,0H309v-28q0-15.57-11.39-15.58a12.49,12.49,0,0,0-9.71,4.4,16.12,16.12,0,0,0-3.9,11.18v28h-7.85v-49H284v8.15h.18c3.69-6.22,9-9.34,16.11-9.34q8.09,0,12.33,5.26c2.83,3.53,4.24,8.5,4.24,15Zm54.51,0h-7.86V141.9h-.18q-5.46,9.54-16.86,9.53-9.3,0-14.81-6.67t-5.5-17.85c0-8.1,2-14.63,6.11-19.54s9.52-7.38,16.36-7.38q10,0,14.7,7.94h.18V77.61h7.86Zm-7.86-22.18v-7.23a13.71,13.71,0,0,0-4-10.11,13.46,13.46,0,0,0-9.84-4,13.61,13.61,0,0,0-11.25,5.26q-4.17,5.24-4.18,14.54c0,5.62,1.32,10.06,3.93,13.33a12.81,12.81,0,0,0,10.59,4.91,13.55,13.55,0,0,0,10.63-4.7c2.79-3.11,4.16-7.11,4.16-12m65.87-2.53q0,11.69-6.65,18.8t-17.79,7.11q-10.86,0-17.37-6.91t-6.48-18.23q0-12.18,6.66-19.23T406.08,100q10.91,0,17.1,6.83t6.18,18.7m-8.05.28c0-6.16-1.36-10.87-4.09-14.17s-6.64-4.95-11.72-4.95-9,1.7-12,5.06-4.41,8.13-4.41,14.26q0,8.82,4.43,13.76t11.95,5c5.1,0,9-1.62,11.73-4.87s4.08-7.95,4.08-14m79.55-24.62-14.71,49H478l-10.1-35.1a23.76,23.76,0,0,1-.76-4.51H467a21.58,21.58,0,0,1-1,4.41l-11,35.2h-7.85l-14.81-49h8.25l10.1,36.89a28,28,0,0,1,.67,4.41h.38a19.67,19.67,0,0,1,.91-4.51l11.27-36.79h7.18l10.2,37a25.89,25.89,0,0,1,.67,4.41h.38a17.49,17.49,0,0,1,.77-4.41l10-37Zm33.47,35.92a12.68,12.68,0,0,1-4.91,10.36c-3.27,2.65-7.63,4-13,4a24.13,24.13,0,0,1-12.18-3V140a19.74,19.74,0,0,0,12.75,4.7c6.22,0,9.34-2.27,9.34-6.84a6,6,0,0,0-1.82-4.53q-1.83-1.74-8.29-4.71c-4.34-1.86-7.41-3.84-9.2-6a13.66,13.66,0,0,1,2.21-18.61q4.88-4.07,12.4-4.07a23.49,23.49,0,0,1,10.5,2.3v7.9A18.38,18.38,0,0,0,521,106.68a9.63,9.63,0,0,0-6.26,1.93,6,6,0,0,0-2.38,4.94,6.63,6.63,0,0,0,1.83,5c1.22,1.16,3.72,2.55,7.52,4.13,4.66,2,7.93,4.06,9.82,6.25a12,12,0,0,1,2.82,8.17"/></g></svg>