<svg xmlns="http://www.w3.org/2000/svg" viewBox="0 0 133.4 133.4"><defs><style>.a,.b,.c,.d,.e,.f{fill:none}.a{stroke:#fff;stroke-width:.5px}.a,.f{stroke-linecap:round;stroke-linejoin:round}.b{stroke:#cda2c9}.b,.c,.d,.e{stroke-miterlimit:10;stroke-width:2px}.c{stroke:#3caa72}.d{stroke:#eebe1e}.e{stroke:#d9e9f6}.f{stroke:#6cc1d8;stroke-width:1.4px}.g{fill:#6572b0}.h{fill:#d9e9f6}</style></defs><title>web beneficios</title><path class="a" d="M91.49 126.08a2.15 2.15.0 0 1-2.14-1.56 2.37 2.37.0 0 1 .77-2.55 2.89 2.89.0 0 1 .46-1 2.82 2.82.0 0 1 3-1s0-.1.0-.14v0h0a8.79 8.79.0 0 1 4.13-5 8.65 8.65.0 0 1 3-1h.24.17.22.46.51a8.77 8.77.0 0 1 6.06 2.68l.16.17v0h0a6.17 6.17.0 0 1 3.48-.89h0a5.83 5.83.0 0 1 5.35 4.15s0 0 0 .08.0.09.0.14v0h0a5.29 5.29.0 0 1-5 6H91.49z"/><path class="a" d="M26.71 22.17a2.66 2.66.0 0 1-2.65-1.93 3 3 0 0 1 1-3.16 3.59 3.59.0 0 1 .57-1.2 3.48 3.48.0 0 1 3.74-1.24l.06-.18h0A10.89 10.89.0 0 1 38.19 7h.29.21.28a5.12 5.12.0 0 1 .56.0h.64a10.86 10.86.0 0 1 7.5 3.33l.2.21.06-.05v0a7.72 7.72.0 0 1 4.31-1.1h0a8.73 8.73.0 0 1 1 .11 7 7 0 0 1 5.63 5v.11.17.0h0a6.53 6.53.0 0 1-6.15 7.5H26.71z"/><path class="b" d="M69.19 67.43 90.83 87.39z"/><path class="c" d="M93.53 66.08 88.12 108.69z"/><path class="d" d="M49.16 30.19v70.52z"/><path class="e" d="M17.12 75.66 49.16 63.42 84.9 70.57 116.28 51.19"/><path class="f" d="M17.12 100.71v10.11l32.17-10.11L82.97 111.34 116.28 100.71V30.42L84.63 40.83 49.16 30.19 17.12 40V87.39"/><path class="g" d="M29.31 97.3 20.84 75.93a9 9 0 0 1 8.37-12.31h0A9 9 0 0 1 37.6 75.86z"/><circle class="h" cx="29.21" cy="72.53" r="4.47"/><path class="g" d="M79.8 46.82 71.33 25.45a9 9 0 0 1 8.36-12.32h0a9 9 0 0 1 8.4 12.25z"/><circle class="h" cx="79.69" cy="22.05" r="4.47"/><path class="g" d="M103.52 86.08 95.05 64.71a9 9 0 0 1 8.37-12.32h0a9 9 0 0 1 8.39 12.25z"/><circle class="h" cx="103.42" cy="61.31" r="4.47"/></svg>