<svg xmlns="http://www.w3.org/2000/svg" viewBox="0 0 133.4 133.4"><defs><style>.a,.b,.c,.d{fill:none;stroke-linecap:round;stroke-linejoin:round}.a{stroke:#6cc1d8;stroke-width:1.4px}.b{stroke:#3caa72}.b,.c{stroke-width:2px}.c{stroke:#d9e9f6}.d{stroke:#fff;stroke-width:.5px}</style></defs><title>3</title><path class="a" d="M32.78 46.87l-2.16 1.31a2.47 2.47.0 0 1-2.59.0l-2.15-1.31a2.51 2.51.0 0 1-1.2-2.13V39a2.88 2.88.0 0 1 2.87-2.87H31.1A2.87 2.87.0 0 1 34 39v5.78A2.5 2.5.0 0 1 32.78 46.87z"/><path class="a" d="M23.91 53.24H34.75A3.28 3.28.0 0 1 38 56.52V70.64a0 0 0 0 1 0 0H20.63a0 0 0 0 1 0 0V56.52A3.28 3.28.0 0 1 23.91 53.24z"/><path class="a" d="M32.78 89.23l-2.16 1.31a2.47 2.47.0 0 1-2.59.0l-2.15-1.31a2.5 2.5.0 0 1-1.2-2.13V81.33a2.88 2.88.0 0 1 2.87-2.88H31.1A2.87 2.87.0 0 1 34 81.33V87.1A2.49 2.49.0 0 1 32.78 89.23z"/><path class="a" d="M23.91 95.6H34.75A3.28 3.28.0 0 1 38 98.88V113a0 0 0 0 1 0 0H20.63a0 0 0 0 1 0 0V98.88a3.28 3.28.0 0 1 3.28-3.28z"/><path class="a" d="M60.58 89.23l-2.16 1.31a2.47 2.47.0 0 1-2.59.0l-2.15-1.31a2.5 2.5.0 0 1-1.2-2.13V81.33a2.88 2.88.0 0 1 2.87-2.88H58.9a2.87 2.87.0 0 1 2.87 2.88V87.1A2.49 2.49.0 0 1 60.58 89.23z"/><path class="a" d="M51.71 95.6H62.55a3.28 3.28.0 0 1 3.28 3.28V113a0 0 0 0 1 0 0H48.43a0 0 0 0 1 0 0V98.88A3.28 3.28.0 0 1 51.71 95.6z"/><path class="a" d="M87.9 89.23l-2.16 1.31a2.47 2.47.0 0 1-2.59.0L81 89.23a2.5 2.5.0 0 1-1.2-2.13V81.33a2.88 2.88.0 0 1 2.87-2.88h3.55a2.87 2.87.0 0 1 2.87 2.88V87.1A2.49 2.49.0 0 1 87.9 89.23z"/><path class="a" d="M79 95.6H89.87a3.28 3.28.0 0 1 3.28 3.28V113a0 0 0 0 1 0 0H75.75a0 0 0 0 1 0 0V98.88A3.28 3.28.0 0 1 79 95.6z"/><path class="b" d="M52.48 32.06h57.91v32.37H52.48z"/><path class="a" d="M41.24 53.24 47.66 46.68z"/><path class="c" d="M59.59 42.32H84.45z"/><path class="c" d="M59.59 49.96H84.45z"/><path class="c" d="M59.59 57.04H84.45z"/><path class="d" d="M95.46 125.69a2.15 2.15.0 0 1-2.14-1.55 2.39 2.39.0 0 1 .77-2.56 2.93 2.93.0 0 1 .46-1 2.8 2.8.0 0 1 3-1c0-.05.0-.1.0-.15h0a8.76 8.76.0 0 1 4.13-5 8.88 8.88.0 0 1 3-1h.24.17.22.46.51a8.81 8.81.0 0 1 6.06 2.68l.16.18v0 0a6.17 6.17.0 0 1 3.48-.89h0a7.78 7.78.0 0 1 .81.1 5.7 5.7.0 0 1 4.54 4s0 .06.0.09.0.09.0.14v0h0a5.25 5.25.0 0 1-1.15 4.14 5.17 5.17.0 0 1-3.82 1.91H95.46z"/><path class="d" d="M16.51 21.79a2.66 2.66.0 0 1-2.65-1.93 3 3 0 0 1 1-3.17 3.54 3.54.0 0 1 .57-1.19 3.46 3.46.0 0 1 3.74-1.24 1.21 1.21.0 0 0 .05-.18v0h0a10.9 10.9.0 0 1 5.12-6.23A10.65 10.65.0 0 1 28 6.58h.3.21.27.56H30a10.9 10.9.0 0 1 7.5 3.32l.2.22h.06v0a7.56 7.56.0 0 1 4.31-1.1h0a7 7 0 0 1 1 .11 7.06 7.06.0 0 1 5.63 5 .36.36.0 0 1 0 .1.57.57.0 0 1 0 .18v0h0a6.53 6.53.0 0 1-6.15 7.5H16.51z"/></svg>