<svg xmlns="http://www.w3.org/2000/svg" viewBox="0 0 130.98 117.81"><defs><style>.a,.b,.e{fill:none;stroke-linecap:round;stroke-linejoin:round}.a{stroke:#6cc1d8;stroke-width:1.4px}.b{stroke:#eeecac;stroke-width:2px}.c{fill:#eeecac}.d{fill:#6572b0}.e{stroke:#fff;stroke-width:.5px}</style></defs><title>4</title><path class="a" d="M20 45V31.32a5.67 5.67.0 0 1 5.67-5.67H84.85a5.66 5.66.0 0 1 5.66 5.67V71.25a5.65 5.65.0 0 1-5.66 5.66H49.68l-11 9.58a1.35 1.35.0 0 1-2.23-1V76.91H25.67A5.66 5.66.0 0 1 20 71.25V51.78" transform="translate(-1.21 -8.47)"/><path class="a" d="M44.12 84.69v18.4a5.66 5.66.0 0 0 5.66 5.66H85l11 9.57a1.35 1.35.0 0 0 2.23-1v-8.55H109a5.67 5.67.0 0 0 5.67-5.66V63.15A5.66 5.66.0 0 0 109 57.49H92.67" transform="translate(-1.21 -8.47)"/><path class="b" d="M50.05 79.06H66.4z"/><path class="b" d="M91.74 68.94H108.08z"/><path class="b" d="M96.59 60.31h9.61z"/><path class="b" d="M73.86 79.06h30.89z"/><path class="b" d="M50.05 88.1H80.94z"/><path class="c" d="M54 36.85a9.81 9.81.0 0 1 4.59 18.47v5.45H49.4V55.32A9.8 9.8.0 0 1 54 36.85m0-2a11.8 11.8.0 0 0-6.59 21.6v4.32a2 2 0 0 0 2 2h9.18a2 2 0 0 0 2-2V56.45A11.81 11.81.0 0 0 54 34.85z" transform="translate(-1.21 -8.47)"/><path class="b" d="M48.98 39.31H56.59z"/><path class="b" d="M52.78 39.96V52.2z"/><path class="d" d="M46.38 55.81H59.2v3.78H46.38z"/><path class="b" d="M35.88 45.6 37.77 45.06z"/><path class="b" d="M34.87 37.71 36.83 37.65z"/><path class="b" d="M35.22 30.92 37.16 31.23z"/><path class="b" d="M38.52 25.16 40.14 26.28z"/><path class="b" d="M66.73 25.31 65.09 26.39z"/><path class="b" d="M70.07 32.53 68.21 33.18z"/><path class="b" d="M71.76 39.13 69.82 39.41z"/><path class="b" d="M70.34 45.6 68.46 45.02z"/><path class="e" d="M4.23 126a2.66 2.66.0 0 1-2.65-1.93 3 3 0 0 1 1-3.17 3.54 3.54.0 0 1 .57-1.19 3.46 3.46.0 0 1 3.74-1.24l.06-.18v0h0A10.9 10.9.0 0 1 12 112.07a10.7 10.7.0 0 1 3.68-1.25h.29.21.28.56.64a10.9 10.9.0 0 1 7.5 3.32l.2.22h.06v0a7.64 7.64.0 0 1 4.31-1.1h0a7 7 0 0 1 1 .11 7 7 0 0 1 5.63 5v.1.18.0h0a6.53 6.53.0 0 1-6.15 7.5H4.23z" transform="translate(-1.21 -8.47)"/><path class="e" d="M99.59 24a2.66 2.66.0 0 1-2.65-1.92 3 3 0 0 1 1-3.17 3.48 3.48.0 0 1 4.32-2.44l.05-.17v0h0a10.88 10.88.0 0 1 5.11-6.23 10.78 10.78.0 0 1 3.68-1.25h.29.22.27.56H113a10.82 10.82.0 0 1 7.5 3.32l.2.21h.07v0a7.74 7.74.0 0 1 4.31-1.1h0a7.33 7.33.0 0 1 6.63 5.15.3.3.0 0 1 0 .1v.17.0h0A6.53 6.53.0 0 1 125.71 24H99.59z" transform="translate(-1.21 -8.47)"/></svg>