<svg xmlns="http://www.w3.org/2000/svg" viewBox="0 0 133.4 133.4"><defs><style>.a,.b,.c,.d{fill:none;stroke-linecap:round;stroke-linejoin:round}.a{stroke:#fff;stroke-width:.5px}.b{stroke:#6cc1d8;stroke-width:1.4px}.c{stroke:#3caa72}.c,.d{stroke-width:2px}.d{stroke:#eeecac}</style></defs><title>5</title><path class="a" d="M4.69 126A2.66 2.66.0 0 1 2 124.1a3 3 0 0 1 1-3.17 3.36 3.36.0 0 1 .57-1.19 3.46 3.46.0 0 1 3.74-1.24 1.21 1.21.0 0 0 .05-.18v0h0a10.9 10.9.0 0 1 5.12-6.23 10.65 10.65.0 0 1 3.67-1.25h.29.22.27.56.65A10.85 10.85.0 0 1 25.64 114a2.09 2.09.0 0 1 .2.22h.07v0a7.64 7.64.0 0 1 4.31-1.1h0a7 7 0 0 1 1 .11 7.06 7.06.0 0 1 5.63 5 .36.36.0 0 1 0 .1v.18.0h0a6.53 6.53.0 0 1-6.15 7.5H4.69z"/><path class="a" d="M100.05 24a2.66 2.66.0 0 1-2.65-1.92A3 3 0 0 1 98.35 19a3.48 3.48.0 0 1 4.32-2.44 1.09 1.09.0 0 1 0-.17v0h0a10.88 10.88.0 0 1 5.11-6.23 10.78 10.78.0 0 1 3.68-1.25h.29.22.27.56.64a10.84 10.84.0 0 1 7.5 3.32l.2.21h.07v0a7.72 7.72.0 0 1 4.31-1.1h0a7 7 0 0 1 1 .12 7.06 7.06.0 0 1 5.63 5s0 .06.0.1v.17.0h0A6.53 6.53.0 0 1 126.17 24H100.05z"/><path class="b" d="M29.05 77.2a54.15 54.15.0 0 0 9.23 20.56c10 13.65 23.63 19.36 29 21.3a63.06 63.06.0 0 0 27-19.06 55.23 55.23.0 0 0 11.75-26.1V36.31L67.3 20.83l-39 15.48V64.37"/><circle class="c" cx="67.15" cy="65.91" r="25.64"/><path class="d" d="M52.84 65.91 62.27 75.34 81.47 55.92"/><path class="d" d="M18.1 58a13.71 13.71.0 0 0-5.88-4.83 13.69 13.69.0 0 0-7.56-.89A14.66 14.66.0 0 0 9.48 46a14.68 14.68.0 0 0 .9-7.17 14.21 14.21.0 0 0 13.44 5.72A14.54 14.54.0 0 0 18.1 58z"/></svg>