<svg id="Capa_1" data-name="Capa 1" xmlns="http://www.w3.org/2000/svg" xmlns:xlink="http://www.w3.org/1999/xlink" viewBox="0 0 3228.63 815.11"><defs><style>.cls-1{fill:none;stroke:#323387;stroke-width:3px;stroke-miterlimit:10}.cls-2{fill:#02d7db}.cls-3{fill:#323387}.cls-5{fill:#4bb5be;opacity:.57}.cls-11{fill:#b2d3ed}.cls-9{fill:#ddcfe6}.cls-10{fill:#223e53}.cls-21{fill:#9a381d}.cls-22{fill:#eb8e26}.cls-24{fill:#010001}.cls-25{fill:#192529}</style><linearGradient id="linear-gradient" x1="1997.92" y1="423.91" x2="2071.78" y2="423.91" gradientUnits="userSpaceOnUse"><stop offset=".44" stop-color="#b28574"/><stop offset=".86" stop-color="#a4624e"/></linearGradient><linearGradient id="linear-gradient-2" x1="1940.5" y1="701.96" x2="2188.78" y2="701.96" gradientUnits="userSpaceOnUse"><stop offset=".09" stop-color="#b28574"/><stop offset=".86" stop-color="#a4624e"/></linearGradient><linearGradient id="linear-gradient-3" x1="-2610.14" y1="185.37" x2="-2567.39" y2="210.05" gradientTransform="matrix(-1 0 0 1 -302.44 0)" gradientUnits="userSpaceOnUse"><stop offset="0" stop-color="#af705c"/><stop offset=".1" stop-color="#885c4f"/><stop offset=".2" stop-color="#684c45"/><stop offset=".32" stop-color="#4d3f3c"/><stop offset=".44" stop-color="#383435"/><stop offset=".58" stop-color="#292d31"/><stop offset=".74" stop-color="#21282e"/><stop offset="1" stop-color="#1e272d"/></linearGradient><linearGradient id="linear-gradient-4" x1="-2659.21" y1="267.95" x2="-2445.24" y2="267.95" gradientTransform="matrix(-1 0 0 1 -302.44 0)" gradientUnits="userSpaceOnUse"><stop offset="0" stop-color="#af705c"/><stop offset=".07" stop-color="#885c4f"/><stop offset=".15" stop-color="#684c45"/><stop offset=".24" stop-color="#4d3f3c"/><stop offset=".33" stop-color="#383435"/><stop offset=".43" stop-color="#292d31"/><stop offset=".56" stop-color="#21282e"/><stop offset=".75" stop-color="#1e272d"/></linearGradient><linearGradient id="linear-gradient-5" x1="-2506.31" y1="369.31" x2="-2506.31" y2="286.57" gradientTransform="matrix(-1 0 0 1 -302.44 0)" xlink:href="#linear-gradient"/><linearGradient id="linear-gradient-6" x1="-2466.92" y1="221.82" x2="-2555.02" y2="272.68" gradientTransform="matrix(-1 0 0 1 -302.44 0)" gradientUnits="userSpaceOnUse"><stop offset=".62" stop-color="#b28574"/><stop offset="1" stop-color="#af6d57"/></linearGradient><linearGradient id="linear-gradient-7" x1="-2458.77" y1="236.85" x2="-2561.69" y2="296.28" gradientTransform="matrix(-1 0 0 1 -302.44 0)" gradientUnits="userSpaceOnUse"><stop offset=".29" stop-color="#b28574"/><stop offset=".62" stop-color="#b17c69"/><stop offset="1" stop-color="#af6d57"/></linearGradient><linearGradient id="linear-gradient-8" x1="2136.1" y1="429.62" x2="1955.83" y2="429.62" gradientUnits="userSpaceOnUse"><stop offset=".41" stop-color="#b28574"/><stop offset=".57" stop-color="#ad7865"/><stop offset=".82" stop-color="#a66854"/><stop offset="1" stop-color="#a4624e"/></linearGradient><linearGradient id="linear-gradient-9" x1="2283.1" y1="451.88" x2="2345.31" y2="451.88" xlink:href="#linear-gradient"/><linearGradient id="linear-gradient-10" x1="2156.57" y1="444.24" x2="2345.42" y2="444.24" xlink:href="#linear-gradient"/><linearGradient id="linear-gradient-11" x1="2052.58" y1="711.33" x2="1939.83" y2="764.92" gradientUnits="userSpaceOnUse"><stop offset=".44" stop-color="#b28574"/><stop offset="1" stop-color="#a4624e"/></linearGradient><linearGradient id="linear-gradient-12" x1="2004.93" y1="697.12" x2="2302.6" y2="697.12" xlink:href="#linear-gradient"/></defs><path class="cls-1" d="M2435.71 179c-8.79 0-15.82-5.07-18.29-13.32a20.5 20.5 0 0 1 6.58-21.9 24.27 24.27 0 0 1 4-8.24c4.7-6.64 14.39-11.52 25.85-8.59.12-.41.25-.82.38-1.22v-.14A75.48 75.48 0 0 1 2515 73.88c.68-.1 1.34-.2 2-.28l1.5-.17c.59-.06 1.24-.13 1.88-.18 1.29-.1 2.57-.15 3.87-.18h4.43a75.12 75.12 0 0 1 51.84 23q.69.72 1.38 1.47l.46-.31.24-.15a53 53 0 0 1 29.79-7.62h.11a50.45 50.45 0 0 1 6.9.78c19 3.44 34.23 17.07 38.9 34.76a5.94 5.94 0 0 1 .17.7c.07.41.14.81.2 1.21a1.57 1.57 0 0 1 0 .23 45.17 45.17 0 0 1-42.44 51.86h-180.52zM2581.65 190.58h51.57M2577.88 197.05h51.58M2574.12 203.52h51.57M583.65 763.79a13.67 13.67 0 0 1-13.65-9.92 15.27 15.27 0 0 1 4.9-16.3 18.13 18.13 0 0 1 3-6.13c3.49-5 10.71-8.58 19.24-6.4.09-.31.19-.61.28-.91v-.1a56.23 56.23 0 0 1 45.25-38.48l1.5-.2c.34-.05.73-.09 1.11-.13l1.4-.13c1-.07 1.92-.11 2.88-.14H652.84a55.87 55.87 0 0 1 38.59 17.1c.34.36.69.72 1 1.09l.34-.23.18-.11a39.48 39.48 0 0 1 22.18-5.67h.08a38.56 38.56 0 0 1 5.14.59c14.13 2.56 25.48 12.71 29 25.87a3.41 3.41 0 0 1 .13.53c.06.3.11.59.15.89a.55.55 0 0 1 0 .17 33.62 33.62 0 0 1-31.63 38.6H583.65zM692.29 772.44h38.39M689.48 777.25h38.4M686.68 782.07h38.4"/><path class="cls-2" d="M2604.72 574.96l14.83-3.15-14.56-3.1-3.14-18.71-3.1 18.44-14.83 3.15 14.56 3.1 3.14 18.71 3.1-18.44zM692.47 119.83l14.83-3.14-14.56-3.1-3.14-18.72-3.1 18.45-14.83 3.15 14.56 3.1 3.14 18.71 3.1-18.45z"/><path class="cls-3" d="M865.33 230.12v53.1h-16.1v-82.87h12.49l43.18 54.4v-54.28H921v82.75h-13.06zM955.44 284.39q-9.45 0-14.36-6.07t-4.9-18v-38.26h15.64V257q0 14.13 10.15 14.13a16.08 16.08 0 0 0 8.82-2.75 19.67 19.67 0 0 0 6.94-8.34v-37.98h15.64v43.19a5.46 5.46 0 0 0 .88 3.5 3.83 3.83 0 0 0 2.86 1.17v13.3a34.11 34.11 0 0 1-3.91.59c-1.05.08-2 .12-2.86.12a11.3 11.3 0 0 1-6.83-1.93 7.57 7.57 0 0 1-3.09-5.31l-.35-4.9a26.11 26.11 0 0 1-10.51 9.45 31.63 31.63 0 0 1-14.12 3.15zM1037.26 284.39a34 34 0 0 1-13.31-2.51 30.06 30.06 0 0 1-16.63-16.88 32.17 32.17 0 0 1-2.28-12 34 34 0 0 1 2.22-12.31 30 30 0 0 1 6.42-10.15 30.55 30.55 0 0 1 10.21-6.95 34 34 0 0 1 13.49-2.57 33.2 33.2 0 0 1 13.36 2.57 30.78 30.78 0 0 1 10 6.89 29.25 29.25 0 0 1 6.3 10 33.39 33.39 0 0 1 2.16 11.9c0 1 0 2-.06 2.92a12.38 12.38 0 0 1-.29 2.33h-47.27a17.86 17.86 0 0 0 1.75 6.42 15.69 15.69 0 0 0 8.64 7.82 16.44 16.44 0 0 0 5.83 1.05 18 18 0 0 0 8.81-2.27 12 12 0 0 0 5.66-6l13.43 3.73a27.35 27.35 0 0 1-10.8 11.5 33.52 33.52 0 0 1-17.64 4.51zm15.87-36.88a16.24 16.24 0 0 0-5.08-11 15.51 15.51 0 0 0-10.91-4.14 15.7 15.7 0 0 0-5.89 1.1 15.47 15.47 0 0 0-4.85 3.1 16 16 0 0 0-3.44 4.78 16.87 16.87 0 0 0-1.58 6.19zM1093.63 283.22l-22.52-61.16h16.1l15.53 48.44 15.64-48.44h14.71l-22.53 61.16zM1167.4 284.39a33.6 33.6 0 0 1-13.42-2.57 30.06 30.06 0 0 1-10.1-6.94 30.68 30.68 0 0 1-6.36-10.1 32.92 32.92 0 0 1-2.22-12 33.28 33.28 0 0 1 2.22-12.14 30.64 30.64 0 0 1 6.36-10.09 30.08 30.08 0 0 1 10.1-6.95 33.6 33.6 0 0 1 13.42-2.6 33.21 33.21 0 0 1 13.37 2.57 30.18 30.18 0 0 1 16.39 17 33.28 33.28 0 0 1 2.22 12.14 32.92 32.92 0 0 1-2.22 12 31 31 0 0 1-6.3 10.1 29.41 29.41 0 0 1-10 6.94 33.56 33.56 0 0 1-13.46 2.64zm-16-31.63a21.17 21.17 0 0 0 1.23 7.41A17.91 17.91 0 0 0 1156 266a15.08 15.08 0 0 0 5.08 3.79 15.37 15.37 0 0 0 12.6 0 15.08 15.08 0 0 0 5.08-3.79 18 18 0 0 0 3.39-5.84 21.92 21.92 0 0 0 1.22-7.47 21.63 21.63 0 0 0-1.22-7.35 18 18 0 0 0-3.39-5.83 15.11 15.11 0 0 0-5.08-3.8 14.93 14.93 0 0 0-6.3-1.34 14.39 14.39 0 0 0-6.3 1.4 15.8 15.8 0 0 0-5.08 3.85 17.88 17.88 0 0 0-3.38 5.84 21.39 21.39 0 0 0-1.21 7.3zM1332.91 283.22h-15.64v-34.31q0-7.35-2.51-10.74a8.19 8.19 0 0 0-7-3.38 13.07 13.07 0 0 0-8.75 3.56 19.53 19.53 0 0 0-5.84 9.28v35.59h-15.64v-34.31q0-7.35-2.51-10.74a8.17 8.17 0 0 0-6.94-3.38 13.28 13.28 0 0 0-8.7 3.5 19.06 19.06 0 0 0-5.89 9.22v35.71h-15.59v-61.16h14.1v11.33a23.38 23.38 0 0 1 9.28-9.17 27.72 27.72 0 0 1 13.48-3.21c5.14 0 9.1 1.25 11.91 3.74a16.62 16.62 0 0 1 5.36 9.22 26.5 26.5 0 0 1 9.46-9.63 25.49 25.49 0 0 1 13.07-3.33 18.16 18.16 0 0 1 9.22 2.1 15.32 15.32 0 0 1 5.61 5.49 23.17 23.17 0 0 1 2.74 7.7 51.12 51.12 0 0 1 .76 8.76zM1374.81 284.39a33.56 33.56 0 0 1-13.42-2.57 30.06 30.06 0 0 1-10.1-6.94 30.68 30.68 0 0 1-6.36-10.1 32.92 32.92 0 0 1-2.22-12 33.28 33.28 0 0 1 2.22-12.14 30.64 30.64 0 0 1 6.36-10.09 30.08 30.08 0 0 1 10.1-6.95 33.56 33.56 0 0 1 13.42-2.57 33.16 33.16 0 0 1 13.36 2.57 30.23 30.23 0 0 1 10 6.95 30.64 30.64 0 0 1 6.36 10.09 33.28 33.28 0 0 1 2.22 12.14 32.92 32.92 0 0 1-2.22 12 31.19 31.19 0 0 1-6.3 10.1 29.51 29.51 0 0 1-10 6.94 33.6 33.6 0 0 1-13.42 2.57zm-16-31.63a21.41 21.41 0 0 0 1.22 7.41 18.11 18.11 0 0 0 3.39 5.78 15.08 15.08 0 0 0 5.08 3.79 15.37 15.37 0 0 0 12.6 0 15.18 15.18 0 0 0 5.08-3.79 17.78 17.78 0 0 0 3.38-5.84 21.68 21.68 0 0 0 1.23-7.47 21.39 21.39 0 0 0-1.23-7.35 17.83 17.83 0 0 0-3.38-5.83 15.21 15.21 0 0 0-5.08-3.8 15 15 0 0 0-6.3-1.34 14.39 14.39 0 0 0-6.3 1.4 15.8 15.8 0 0 0-5.08 3.85 18.08 18.08 0 0 0-3.39 5.84 21.63 21.63 0 0 0-1.21 7.35zm20-37.82l-10-3L1375 198h14.59zM1442.62 284.39a27.6 27.6 0 0 1-20.89-9.22 31.6 31.6 0 0 1-6-10.09 35.28 35.28 0 0 1-2.16-12.44 36.61 36.61 0 0 1 2-12.37 32.53 32.53 0 0 1 5.66-10 26.23 26.23 0 0 1 8.64-6.77 24.69 24.69 0 0 1 11-2.45 23.19 23.19 0 0 1 12.2 3.27 23.65 23.65 0 0 1 8.46 8.52V198h15.64v67.23a5.76 5.76 0 0 0 .82 3.5 3.62 3.62 0 0 0 2.8 1.17v13.3a35.1 35.1 0 0 1-6.66.82 10.83 10.83 0 0 1-6.88-2.1 7.74 7.74 0 0 1-3-5.48l-.35-3.86a22.15 22.15 0 0 1-9.16 8.82 26.08 26.08 0 0 1-12.12 2.99zm4.09-13.3a14.91 14.91 0 0 0 4.55-.76 16.49 16.49 0 0 0 4.32-2.16 19 19 0 0 0 3.56-3.27 13.63 13.63 0 0 0 2.39-4.09v-14.59a17 17 0 0 0-2.63-4.72 19.46 19.46 0 0 0-3.85-3.74 20.53 20.53 0 0 0-4.55-2.51 13 13 0 0 0-4.73-.93 14.12 14.12 0 0 0-6.48 1.52 15.37 15.37 0 0 0-5.07 4.14 20.06 20.06 0 0 0-3.27 6 21.29 21.29 0 0 0-1.17 7 19.18 19.18 0 0 0 1.29 7.12 18.33 18.33 0 0 0 3.5 5.72 15.9 15.9 0 0 0 5.31 3.86 16.42 16.42 0 0 0 6.83 1.41zM1511.25 284.39q-9.45 0-14.36-6.07t-4.9-18v-38.26h15.64V257q0 14.13 10.16 14.13a16.07 16.07 0 0 0 8.81-2.75 19.67 19.67 0 0 0 6.94-8.34v-37.98h15.64v43.19a5.52 5.52 0 0 0 .88 3.5 3.83 3.83 0 0 0 2.86 1.17v13.3a34.11 34.11 0 0 1-3.91.59c-1 .08-2 .12-2.86.12a11.3 11.3 0 0 1-6.83-1.93 7.57 7.57 0 0 1-3.09-5.31l-.35-4.9a26.11 26.11 0 0 1-10.51 9.45 31.6 31.6 0 0 1-14.12 3.15zM1564.59 198h15.64v65.6a7.73 7.73 0 0 0 1.63 5.25 5.9 5.9 0 0 0 4.67 1.87 11.8 11.8 0 0 0 3.1-.47 21.11 21.11 0 0 0 3.21-1.17l2.1 11.91a30.18 30.18 0 0 1-7.36 2.33 39.68 39.68 0 0 1-7.58.82q-7.37 0-11.38-3.91t-4-11.15zM1630 284.39a33.6 33.6 0 0 1-13.42-2.57 30.06 30.06 0 0 1-10.1-6.94 30.68 30.68 0 0 1-6.36-10.1 32.92 32.92 0 0 1-2.22-12 33.28 33.28 0 0 1 2.22-12.14 30.64 30.64 0 0 1 6.36-10.09 30.08 30.08 0 0 1 10.1-6.95A33.6 33.6 0 0 1 1630 221a33.21 33.21 0 0 1 13.37 2.57 30.24 30.24 0 0 1 16.4 17 33.49 33.49 0 0 1 2.21 12.14 33.12 33.12 0 0 1-2.21 12 31.21 31.21 0 0 1-6.31 10.1 29.41 29.41 0 0 1-10 6.94 33.56 33.56 0 0 1-13.46 2.64zm-16-31.63a21.17 21.17 0 0 0 1.23 7.41 17.91 17.91 0 0 0 3.38 5.78 15.08 15.08 0 0 0 5.08 3.79 15.4 15.4 0 0 0 12.61 0 15.14 15.14 0 0 0 5.07-3.79 18 18 0 0 0 3.39-5.84 21.92 21.92 0 0 0 1.22-7.47 21.63 21.63 0 0 0-1.22-7.35 18 18 0 0 0-3.39-5.83 15.17 15.17 0 0 0-5.07-3.8 15 15 0 0 0-6.31-1.34 14.39 14.39 0 0 0-6.3 1.4 15.8 15.8 0 0 0-5.08 3.85 17.88 17.88 0 0 0-3.38 5.84 21.39 21.39 0 0 0-1.23 7.35zM882.66 563.75h-13.22l-2.76 8h-6.17l12.89-34.13h5.32l12.92 34.13h-6.19zM871.11 559H881l-5-14.15zM916 559.28q0 5.88-2.68 9.38a8.55 8.55 0 0 1-7.17 3.51 8.64 8.64 0 0 1-6.68-2.74v12h-5.69v-35.09h5.25l.23 2.58a8.37 8.37 0 0 1 6.82-3 8.63 8.63 0 0 1 7.28 3.46q2.64 3.45 2.64 9.6zm-5.68-.49a10.58 10.58 0 0 0-1.51-6 4.92 4.92 0 0 0-4.32-2.22 5.25 5.25 0 0 0-5 2.88v11.25a5.29 5.29 0 0 0 5.07 3 4.9 4.9 0 0 0 4.25-2.19c1.04-1.51 1.55-3.76 1.55-6.72zM926.91 571.7h-5.69v-36h5.69zM933.12 539.75a3.05 3.05 0 0 1 .83-2.18 3.74 3.74 0 0 1 4.77 0 3 3 0 0 1 .85 2.18 2.92 2.92 0 0 1-.85 2.15 3.77 3.77 0 0 1-4.77 0 3 3 0 0 1-.83-2.15zm6 32h-5.7v-25.41h5.7zM955.79 567.62a5.15 5.15 0 0 0 3.54-1.24 4.3 4.3 0 0 0 1.5-3.07h5.36a8.36 8.36 0 0 1-1.47 4.42A9.79 9.79 0 0 1 961 571a11.17 11.17 0 0 1-5.11 1.2 10.81 10.81 0 0 1-8.44-3.45c-2.08-2.29-3.12-5.47-3.12-9.51v-.59q0-5.79 3.1-9.27a10.7 10.7 0 0 1 8.43-3.48 10.39 10.39 0 0 1 7.37 2.64 9.42 9.42 0 0 1 3 6.92h-5.36a5.25 5.25 0 0 0-1.49-3.58 4.79 4.79 0 0 0-3.55-1.41 5 5 0 0 0-4.27 2q-1.5 2-1.52 6.08v.91c0 2.75.49 4.8 1.49 6.15a5 5 0 0 0 4.26 2.01zM985.65 571.7a8.76 8.76 0 0 1-.66-2.37 8.87 8.87 0 0 1-6.66 2.84 9 9 0 0 1-6.23-2.17 7 7 0 0 1-2.42-5.39 7.18 7.18 0 0 1 3-6.22c2-1.45 4.88-2.17 8.61-2.17h3.49v-1.67a4.46 4.46 0 0 0-1.1-3.15 4.35 4.35 0 0 0-3.35-1.18 5 5 0 0 0-3.19 1 3 3 0 0 0-1.24 2.47h-5.7a6.27 6.27 0 0 1 1.39-3.9 9.2 9.2 0 0 1 3.76-2.85 13.3 13.3 0 0 1 5.31-1 10.65 10.65 0 0 1 7.1 2.24 8 8 0 0 1 2.72 6.29v11.44a13 13 0 0 0 1 5.46v.4zm-6.26-4.1a6.43 6.43 0 0 0 3.17-.82 5.42 5.42 0 0 0 2.24-2.21v-4.78h-3.07a8.46 8.46 0 0 0-4.76 1.1 3.59 3.59 0 0 0-1.59 3.12 3.32 3.32 0 0 0 1.09 2.62 4.27 4.27 0 0 0 2.92.97zM1006.88 567.62a5.15 5.15 0 0 0 3.54-1.24 4.23 4.23 0 0 0 1.5-3.07h5.37a8.46 8.46 0 0 1-1.48 4.42 9.65 9.65 0 0 1-3.75 3.24 11.14 11.14 0 0 1-5.11 1.2 10.81 10.81 0 0 1-8.44-3.45c-2.08-2.29-3.11-5.47-3.11-9.51v-.59q0-5.79 3.09-9.27a10.71 10.71 0 0 1 8.44-3.48 10.42 10.42 0 0 1 7.37 2.64 9.45 9.45 0 0 1 3 6.92h-5.37a5.2 5.2 0 0 0-1.49-3.58 4.78 4.78 0 0 0-3.55-1.41 5 5 0 0 0-4.27 2c-1 1.33-1.5 3.36-1.52 6.08v.91q0 4.13 1.49 6.15a5 5 0 0 0 4.29 2.04zM1021.6 539.75a3.05 3.05 0 0 1 .83-2.18 3.74 3.74 0 0 1 4.77 0 3 3 0 0 1 .84 2.18 3 3 0 0 1-.84 2.15 3.77 3.77 0 0 1-4.77 0 3 3 0 0 1-.83-2.15zm6.05 32H1022v-25.41h5.7zM1032.78 558.79a14.88 14.88 0 0 1 1.48-6.72 10.75 10.75 0 0 1 4.14-4.59 11.69 11.69 0 0 1 6.14-1.61 11.07 11.07 0 0 1 8.34 3.31 13 13 0 0 1 3.45 8.76v1.34a15.09 15.09 0 0 1-1.44 6.7 10.72 10.72 0 0 1-4.13 4.57 11.77 11.77 0 0 1-6.2 1.62 11 11 0 0 1-8.59-3.58q-3.23-3.57-3.22-9.52zm5.69.49a10.21 10.21 0 0 0 1.62 6.13 5.27 5.27 0 0 0 4.5 2.21 5.2 5.2 0 0 0 4.49-2.25q1.61-2.25 1.6-6.58a10.1 10.1 0 0 0-1.65-6.1 5.57 5.57 0 0 0-8.92 0q-1.64 2.18-1.64 6.59zm7.64-23.58h6.5l-6.5 7.1h-4.57zM1066.46 546.34l.16 2.93a9.12 9.12 0 0 1 7.39-3.4q7.92 0 8.06 9.07v16.76h-5.7v-16.43a5.23 5.23 0 0 0-1-3.57 4.37 4.37 0 0 0-3.41-1.16 5.48 5.48 0 0 0-5.13 3.11v18.05h-5.7v-25.36zM1088.68 579.39l-3.07-1.83a16.85 16.85 0 0 0 1.86-3.72 11 11 0 0 0 .53-3.22v-4.43h5.13v4.1a11.48 11.48 0 0 1-1.26 5 12.43 12.43 0 0 1-3.19 4.1zM1123.65 551.54a14.73 14.73 0 0 0-2.32-.18q-3.91 0-5.28 3v17.34h-5.69v-25.36h5.43l.14 2.84a6.42 6.42 0 0 1 5.72-3.31 5.3 5.3 0 0 1 2 .33zM1138 572.17a11.8 11.8 0 0 1-8.78-3.41 12.38 12.38 0 0 1-3.36-9.08V559a15.14 15.14 0 0 1 1.46-6.78 11.21 11.21 0 0 1 4.11-4.65 10.9 10.9 0 0 1 5.91-1.67q5.18 0 8 3.31t2.83 9.35v2.29h-16.57a7.58 7.58 0 0 0 2.1 5 6.26 6.26 0 0 0 4.62 1.83 7.71 7.71 0 0 0 6.38-3.16l3.07 2.93a10.24 10.24 0 0 1-4.07 3.52 12.63 12.63 0 0 1-5.7 1.2zm-.68-21.73a4.81 4.81 0 0 0-3.79 1.64 8.58 8.58 0 0 0-1.84 4.57h10.85v-.42a6.86 6.86 0 0 0-1.52-4.32 4.75 4.75 0 0 0-3.73-1.47zM1166.77 564.81a2.58 2.58 0 0 0-1.25-2.32 13.57 13.57 0 0 0-4.16-1.41 21.17 21.17 0 0 1-4.85-1.54q-4.27-2.07-4.27-6a6.75 6.75 0 0 1 2.77-5.49 11 11 0 0 1 7-2.2 11.34 11.34 0 0 1 7.34 2.25 7.14 7.14 0 0 1 2.8 5.84h-5.69a3.5 3.5 0 0 0-1.22-2.73 4.65 4.65 0 0 0-3.23-1.09 5.11 5.11 0 0 0-3.06.86 2.75 2.75 0 0 0-1.19 2.32 2.3 2.3 0 0 0 1.11 2 14.74 14.74 0 0 0 4.45 1.47 21 21 0 0 1 5.26 1.76 7.46 7.46 0 0 1 2.84 2.45 6.26 6.26 0 0 1 .92 3.46 6.61 6.61 0 0 1-2.83 5.55 12.12 12.12 0 0 1-7.43 2.12 13.15 13.15 0 0 1-5.56-1.13 9.12 9.12 0 0 1-3.79-3.09 7.3 7.3 0 0 1-1.36-4.24h5.53a4 4 0 0 0 1.52 3.1 5.91 5.91 0 0 0 3.73 1.09 5.75 5.75 0 0 0 3.42-.85 2.65 2.65 0 0 0 1.2-2.18zM1192.69 569.22a8.84 8.84 0 0 1-7.12 2.95 7.89 7.89 0 0 1-6.25-2.42q-2.11-2.4-2.12-7v-16.41h5.7v16.36q0 4.83 4 4.83 4.15 0 5.61-3v-18.19h5.69v25.36h-5.37zM1210.06 571.7h-5.7v-36h5.7zM1223.4 540.18v6.16h4.47v4.22h-4.47v14.16a3.13 3.13 0 0 0 .57 2.09 2.66 2.66 0 0 0 2 .65 8.52 8.52 0 0 0 2-.24v4.41a13.93 13.93 0 0 1-3.75.54q-6.55 0-6.56-7.24v-14.37h-4.17v-4.22h4.17v-6.16zM1247.37 571.7a8.47 8.47 0 0 1-.65-2.37 9.57 9.57 0 0 1-12.89.66 7 7 0 0 1-2.42-5.39 7.2 7.2 0 0 1 3-6.22q3-2.18 8.62-2.17h3.49v-1.67a4.46 4.46 0 0 0-1.1-3.15 4.37 4.37 0 0 0-3.35-1.18 5 5 0 0 0-3.19 1 3 3 0 0 0-1.24 2.47H1232a6.32 6.32 0 0 1 1.38-3.9 9.34 9.34 0 0 1 3.76-2.85 13.37 13.37 0 0 1 5.31-1 10.68 10.68 0 0 1 7.11 2.24 8 8 0 0 1 2.71 6.29v11.44a13 13 0 0 0 1 5.46v.4zm-6.26-4.1a6.44 6.44 0 0 0 3.18-.82 5.48 5.48 0 0 0 2.24-2.21v-4.78h-3.07a8.43 8.43 0 0 0-4.76 1.1 3.59 3.59 0 0 0-1.59 3.12 3.32 3.32 0 0 0 1.09 2.62 4.24 4.24 0 0 0 2.91.97zM1257.12 558.83q0-5.85 2.72-9.41a8.7 8.7 0 0 1 7.29-3.55 8.3 8.3 0 0 1 6.52 2.81v-13h5.69v36h-5.16l-.28-2.63a8.37 8.37 0 0 1-6.82 3.1 8.65 8.65 0 0 1-7.2-3.59q-2.76-3.56-2.76-9.73zm5.7.49a10.52 10.52 0 0 0 1.49 6 4.84 4.84 0 0 0 4.23 2.17 5.39 5.39 0 0 0 5.11-3.12v-10.79a5.3 5.3 0 0 0-5.07-3 4.86 4.86 0 0 0-4.26 2.19q-1.5 2.15-1.5 6.55zM1284.22 558.79a15 15 0 0 1 1.47-6.72 10.83 10.83 0 0 1 4.15-4.59 11.69 11.69 0 0 1 6.14-1.61 11 11 0 0 1 8.33 3.31 12.94 12.94 0 0 1 3.46 8.76v1.34a15.09 15.09 0 0 1-1.44 6.7 10.63 10.63 0 0 1-4.12 4.57 11.77 11.77 0 0 1-6.2 1.62 11 11 0 0 1-8.59-3.58q-3.23-3.57-3.22-9.52zm5.69.49a10.21 10.21 0 0 0 1.62 6.13 5.27 5.27 0 0 0 4.5 2.21 5.2 5.2 0 0 0 4.49-2.25q1.61-2.25 1.6-6.58a10.1 10.1 0 0 0-1.65-6.1 5.57 5.57 0 0 0-8.92 0q-1.63 2.18-1.64 6.59zM1326.83 564.81a2.57 2.57 0 0 0-1.26-2.32 13.37 13.37 0 0 0-4.16-1.41 21.34 21.34 0 0 1-4.85-1.54c-2.84-1.38-4.27-3.37-4.27-6a6.77 6.77 0 0 1 2.77-5.49 11 11 0 0 1 7-2.2 11.39 11.39 0 0 1 7.35 2.25 7.14 7.14 0 0 1 2.8 5.84h-5.7a3.49 3.49 0 0 0-1.21-2.73 4.69 4.69 0 0 0-3.24-1.09 5.11 5.11 0 0 0-3.06.86 2.74 2.74 0 0 0-1.18 2.32 2.31 2.31 0 0 0 1.1 2 14.85 14.85 0 0 0 4.45 1.47 21.06 21.06 0 0 1 5.27 1.76 7.42 7.42 0 0 1 2.83 2.45 6.19 6.19 0 0 1 .93 3.46 6.62 6.62 0 0 1-2.84 5.55 12.12 12.12 0 0 1-7.43 2.12 13.07 13.07 0 0 1-5.55-1.13 9.16 9.16 0 0 1-3.8-3.09 7.3 7.3 0 0 1-1.36-4.24h5.58a4 4 0 0 0 1.53 3.1 5.86 5.86 0 0 0 3.72 1.09 5.75 5.75 0 0 0 3.42-.85 2.66 2.66 0 0 0 1.16-2.18zM1358.21 563.54l5.15-17.2h6.07l-10.07 29.2q-2.33 6.4-7.88 6.4a10.22 10.22 0 0 1-2.74-.42v-4.43l1.08.07a5.53 5.53 0 0 0 3.24-.78 5.3 5.3 0 0 0 1.73-2.64l.82-2.18-8.91-25.22h6.14zM1395.83 572.17a11.8 11.8 0 0 1-8.78-3.41 12.39 12.39 0 0 1-3.37-9.08V559a15.15 15.15 0 0 1 1.47-6.78 11.21 11.21 0 0 1 4.11-4.65 10.9 10.9 0 0 1 5.91-1.67q5.17 0 8 3.31t2.83 9.35v2.29h-16.57a7.63 7.63 0 0 0 2.09 5 6.3 6.3 0 0 0 4.63 1.83 7.71 7.71 0 0 0 6.38-3.16l3.07 2.93a10.24 10.24 0 0 1-4.07 3.52 12.66 12.66 0 0 1-5.7 1.2zm-.68-21.73a4.81 4.81 0 0 0-3.79 1.64 8.58 8.58 0 0 0-1.84 4.57h10.85v-.42a6.86 6.86 0 0 0-1.52-4.32 4.75 4.75 0 0 0-3.7-1.47zM1424.63 564.81a2.58 2.58 0 0 0-1.25-2.32 13.57 13.57 0 0 0-4.16-1.41 21.43 21.43 0 0 1-4.86-1.54q-4.26-2.07-4.26-6a6.76 6.76 0 0 1 2.76-5.49 11 11 0 0 1 7-2.2 11.34 11.34 0 0 1 7.34 2.25 7.14 7.14 0 0 1 2.8 5.9h-5.69a3.5 3.5 0 0 0-1.22-2.73 4.65 4.65 0 0 0-3.23-1.09 5.11 5.11 0 0 0-3.06.86 2.75 2.75 0 0 0-1.19 2.32 2.3 2.3 0 0 0 1.11 2 14.74 14.74 0 0 0 4.45 1.47 21 21 0 0 1 5.26 1.76 7.46 7.46 0 0 1 2.84 2.45 6.26 6.26 0 0 1 .92 3.46 6.61 6.61 0 0 1-2.83 5.55 12.12 12.12 0 0 1-7.43 2.12 13.15 13.15 0 0 1-5.56-1.13 9.22 9.22 0 0 1-3.8-3.09 7.36 7.36 0 0 1-1.35-4.24h5.53a4 4 0 0 0 1.52 3.1 5.91 5.91 0 0 0 3.73 1.09 5.75 5.75 0 0 0 3.42-.85 2.65 2.65 0 0 0 1.21-2.24zM1442.33 540.18v6.16h4.47v4.22h-4.47v14.16a3.13 3.13 0 0 0 .57 2.09 2.66 2.66 0 0 0 2 .65 8.52 8.52 0 0 0 2-.24v4.41a13.93 13.93 0 0 1-3.75.54q-6.56 0-6.56-7.24v-14.37h-4.17v-4.22h4.17v-6.16zM1466.3 571.7a8.47 8.47 0 0 1-.65-2.37 9.57 9.57 0 0 1-12.89.66 7 7 0 0 1-2.42-5.39 7.18 7.18 0 0 1 3-6.22q3-2.18 8.62-2.17h3.49v-1.67a4.46 4.46 0 0 0-1.1-3.15 4.37 4.37 0 0 0-3.35-1.18 5 5 0 0 0-3.19 1 3 3 0 0 0-1.24 2.47h-5.7a6.32 6.32 0 0 1 1.38-3.9 9.27 9.27 0 0 1 3.76-2.85 13.37 13.37 0 0 1 5.31-1 10.64 10.64 0 0 1 7.1 2.24 7.94 7.94 0 0 1 2.72 6.29v11.44a13 13 0 0 0 1 5.46v.4zm-6.26-4.1a6.44 6.44 0 0 0 3.18-.82 5.48 5.48 0 0 0 2.24-2.21v-4.78h-3.07a8.43 8.43 0 0 0-4.76 1.1A3.59 3.59 0 0 0 1456 564a3.32 3.32 0 0 0 1.09 2.62 4.24 4.24 0 0 0 2.91.98zM1476.05 558.83q0-5.85 2.72-9.41a8.7 8.7 0 0 1 7.29-3.55 8.3 8.3 0 0 1 6.52 2.81v-13h5.69v36h-5.16l-.28-2.63a8.37 8.37 0 0 1-6.82 3.1 8.65 8.65 0 0 1-7.2-3.59q-2.76-3.56-2.76-9.73zm5.7.49a10.52 10.52 0 0 0 1.49 6 4.84 4.84 0 0 0 4.23 2.17 5.39 5.39 0 0 0 5.11-3.12v-10.79a5.3 5.3 0 0 0-5.07-3 4.86 4.86 0 0 0-4.26 2.19q-1.5 2.15-1.5 6.55zM1504.22 539.75a3 3 0 0 1 .84-2.18 3.14 3.14 0 0 1 2.37-.86 3.23 3.23 0 0 1 2.4.86 3 3 0 0 1 .84 2.18 3 3 0 0 1-.84 2.15 3.23 3.23 0 0 1-2.4.85 3.14 3.14 0 0 1-2.37-.85 3 3 0 0 1-.84-2.15zm6 32h-5.69v-25.41h5.69zM1530.68 564.81a2.56 2.56 0 0 0-1.25-2.32 13.47 13.47 0 0 0-4.16-1.41 21.34 21.34 0 0 1-4.85-1.54c-2.84-1.38-4.27-3.37-4.27-6a6.77 6.77 0 0 1 2.77-5.49 11 11 0 0 1 7-2.2 11.39 11.39 0 0 1 7.35 2.25 7.14 7.14 0 0 1 2.8 5.84h-5.7a3.47 3.47 0 0 0-1.22-2.73 4.65 4.65 0 0 0-3.23-1.09 5.11 5.11 0 0 0-3.06.86 2.74 2.74 0 0 0-1.18 2.32 2.31 2.31 0 0 0 1.1 2 14.85 14.85 0 0 0 4.45 1.47 20.83 20.83 0 0 1 5.26 1.76 7.38 7.38 0 0 1 2.84 2.45 6.19 6.19 0 0 1 .93 3.46 6.62 6.62 0 0 1-2.84 5.55 12.12 12.12 0 0 1-7.43 2.12 13.07 13.07 0 0 1-5.55-1.13 9.16 9.16 0 0 1-3.8-3.09 7.3 7.3 0 0 1-1.36-4.24h5.53a4 4 0 0 0 1.52 3.1 5.91 5.91 0 0 0 3.73 1.09 5.75 5.75 0 0 0 3.42-.85 2.65 2.65 0 0 0 1.2-2.18zM1548.38 540.18v6.16h4.48v4.22h-4.48v14.16a3.13 3.13 0 0 0 .57 2.09 2.69 2.69 0 0 0 2.06.65 8.59 8.59 0 0 0 2-.24v4.41a14 14 0 0 1-3.75.54q-6.57 0-6.57-7.24v-14.37h-4.17v-4.22h4.17v-6.16zM1557.22 539.75a3 3 0 0 1 .83-2.18 3.17 3.17 0 0 1 2.38-.86 3.21 3.21 0 0 1 2.39.86 3 3 0 0 1 .84 2.18 3 3 0 0 1-.84 2.15 3.2 3.2 0 0 1-2.39.85 3.16 3.16 0 0 1-2.38-.85 2.94 2.94 0 0 1-.83-2.15zm6 32h-5.69v-25.41h5.69zM1579.88 567.62a5.15 5.15 0 0 0 3.54-1.24 4.23 4.23 0 0 0 1.5-3.07h5.37a8.46 8.46 0 0 1-1.48 4.42 9.65 9.65 0 0 1-3.75 3.24 11.14 11.14 0 0 1-5.11 1.2 10.81 10.81 0 0 1-8.44-3.45c-2.08-2.29-3.11-5.47-3.11-9.51v-.59q0-5.79 3.09-9.27a10.71 10.71 0 0 1 8.44-3.48 10.42 10.42 0 0 1 7.37 2.64 9.45 9.45 0 0 1 3 6.92h-5.37a5.2 5.2 0 0 0-1.49-3.58 4.78 4.78 0 0 0-3.55-1.41 5 5 0 0 0-4.27 2c-1 1.33-1.5 3.36-1.52 6.08v.91q0 4.13 1.49 6.15a5 5 0 0 0 4.29 2.04zM1609.74 571.7a8.76 8.76 0 0 1-.66-2.37 8.86 8.86 0 0 1-6.65 2.84 9 9 0 0 1-6.24-2.18 7 7 0 0 1-2.41-5.39 7.18 7.18 0 0 1 3-6.22q3-2.18 8.61-2.17h3.5v-1.67a4.42 4.42 0 0 0-1.11-3.15 4.35 4.35 0 0 0-3.35-1.18 5 5 0 0 0-3.18 1 3 3 0 0 0-1.25 2.47h-5.69a6.32 6.32 0 0 1 1.38-3.9 9.27 9.27 0 0 1 3.76-2.85 13.37 13.37 0 0 1 5.31-1 10.64 10.64 0 0 1 7.1 2.24 8 8 0 0 1 2.72 6.29v11.44a13 13 0 0 0 1 5.46v.4zm-6.26-4.1a6.44 6.44 0 0 0 3.18-.82 5.48 5.48 0 0 0 2.24-2.21v-4.78h-3.07a8.43 8.43 0 0 0-4.76 1.1 3.6 3.6 0 0 0-1.6 3.12 3.36 3.36 0 0 0 1.09 2.62 4.27 4.27 0 0 0 2.92.97zM1634.77 564.81a2.58 2.58 0 0 0-1.25-2.32 13.57 13.57 0 0 0-4.16-1.41 21.17 21.17 0 0 1-4.85-1.54q-4.27-2.07-4.27-6a6.75 6.75 0 0 1 2.77-5.49 11 11 0 0 1 7-2.2 11.34 11.34 0 0 1 7.34 2.25 7.14 7.14 0 0 1 2.8 5.84h-5.69a3.5 3.5 0 0 0-1.22-2.73 4.65 4.65 0 0 0-3.23-1.09 5.11 5.11 0 0 0-3.06.86 2.75 2.75 0 0 0-1.19 2.32 2.3 2.3 0 0 0 1.11 2 14.74 14.74 0 0 0 4.45 1.47 21 21 0 0 1 5.26 1.76 7.46 7.46 0 0 1 2.84 2.45 6.26 6.26 0 0 1 .92 3.46 6.61 6.61 0 0 1-2.83 5.55 12.12 12.12 0 0 1-7.43 2.12 13.15 13.15 0 0 1-5.56-1.13 9.12 9.12 0 0 1-3.79-3.09 7.3 7.3 0 0 1-1.36-4.24h5.53a4 4 0 0 0 1.52 3.1 5.91 5.91 0 0 0 3.73 1.09 5.75 5.75 0 0 0 3.42-.85 2.65 2.65 0 0 0 1.2-2.18zM796.28 616.43q0-5.85 2.72-9.41a8.72 8.72 0 0 1 7.29-3.55 8.3 8.3 0 0 1 6.52 2.81v-13h5.69v36h-5.16l-.28-2.62a8.39 8.39 0 0 1-6.82 3.09 8.65 8.65 0 0 1-7.2-3.59q-2.76-3.56-2.76-9.73zm5.7.5a10.5 10.5 0 0 0 1.49 6 4.81 4.81 0 0 0 4.23 2.17 5.39 5.39 0 0 0 5.11-3.12v-10.8a5.3 5.3 0 0 0-5.07-3 4.86 4.86 0 0 0-4.26 2.19q-1.48 2.15-1.48 6.56zM835.61 629.77a11.81 11.81 0 0 1-8.78-3.41 12.37 12.37 0 0 1-3.36-9.08v-.71a15.28 15.28 0 0 1 1.46-6.78 11.17 11.17 0 0 1 4.12-4.65 10.84 10.84 0 0 1 5.9-1.67q5.19 0 8 3.31t2.82 9.35v2.3h-16.56a7.56 7.56 0 0 0 2.1 5 6.3 6.3 0 0 0 4.63 1.83 7.7 7.7 0 0 0 6.37-3.16l3.07 2.93a10.21 10.21 0 0 1-4.06 3.52 12.7 12.7 0 0 1-5.71 1.22zm-.68-21.77a4.8 4.8 0 0 0-3.78 1.64 8.42 8.42 0 0 0-1.84 4.57h10.85v-.42a6.94 6.94 0 0 0-1.53-4.32 4.74 4.74 0 0 0-3.7-1.47zM869.29 597.78v6.16h4.48v4.22h-4.48v14.16a3.13 3.13 0 0 0 .57 2.09 2.69 2.69 0 0 0 2.06.65 8.59 8.59 0 0 0 2-.24v4.41a14 14 0 0 1-3.75.54q-6.57 0-6.57-7.24v-14.37h-4.17v-4.22h4.17v-6.16zM893.48 626.82a8.86 8.86 0 0 1-7.13 2.95 7.85 7.85 0 0 1-6.24-2.42c-1.42-1.6-2.12-3.93-2.12-7v-16.41h5.69v16.36q0 4.83 4 4.83t5.6-3v-18.19H899v25.36h-5.37zM939 616.88q0 5.88-2.68 9.38a8.55 8.55 0 0 1-7.17 3.51 8.64 8.64 0 0 1-6.68-2.74v12h-5.69v-35.09H922l.23 2.58a8.37 8.37 0 0 1 6.82-3 8.63 8.63 0 0 1 7.28 3.46q2.64 3.45 2.64 9.6zm-5.68-.49a10.58 10.58 0 0 0-1.51-6 4.91 4.91 0 0 0-4.32-2.22 5.25 5.25 0 0 0-5 2.88v11.25a5.29 5.29 0 0 0 5.07 3 4.9 4.9 0 0 0 4.25-2.19c.95-1.54 1.46-3.76 1.46-6.72zM954.93 629.77a11.81 11.81 0 0 1-8.78-3.41 12.37 12.37 0 0 1-3.36-9.08v-.71a15.15 15.15 0 0 1 1.47-6.78 11.08 11.08 0 0 1 4.11-4.65 10.84 10.84 0 0 1 5.9-1.67q5.19 0 8 3.31t2.82 9.35v2.3h-16.56a7.56 7.56 0 0 0 2.1 5 6.3 6.3 0 0 0 4.63 1.83 7.7 7.7 0 0 0 6.37-3.16l3.07 2.9a10.21 10.21 0 0 1-4.06 3.52 12.7 12.7 0 0 1-5.71 1.25zm-.68-21.77a4.8 4.8 0 0 0-3.78 1.64 8.5 8.5 0 0 0-1.84 4.57h10.85v-.42a6.94 6.94 0 0 0-1.53-4.32 4.74 4.74 0 0 0-3.7-1.47zM982.8 609.14a14.73 14.73 0 0 0-2.32-.18q-3.91 0-5.28 3v17.34h-5.69v-25.36H975l.14 2.84a6.4 6.4 0 0 1 5.72-3.31 5.28 5.28 0 0 1 2 .33zM1000.61 622.41a2.58 2.58 0 0 0-1.25-2.32 13.57 13.57 0 0 0-4.16-1.41 21.43 21.43 0 0 1-4.86-1.54q-4.26-2.07-4.26-6a6.73 6.73 0 0 1 2.76-5.48 11 11 0 0 1 7-2.21 11.34 11.34 0 0 1 7.34 2.25 7.14 7.14 0 0 1 2.8 5.84h-5.69a3.5 3.5 0 0 0-1.22-2.73 4.65 4.65 0 0 0-3.23-1.09 5.11 5.11 0 0 0-3.06.86 2.76 2.76 0 0 0-1.19 2.33 2.29 2.29 0 0 0 1.11 2 14.74 14.74 0 0 0 4.45 1.47 21 21 0 0 1 5.26 1.76 7.46 7.46 0 0 1 2.84 2.45 6.29 6.29 0 0 1 .92 3.46 6.61 6.61 0 0 1-2.83 5.55 12.12 12.12 0 0 1-7.43 2.12 13.15 13.15 0 0 1-5.56-1.13 9.22 9.22 0 0 1-3.8-3.09 7.36 7.36 0 0 1-1.35-4.24h5.53a4 4 0 0 0 1.52 3.1 5.91 5.91 0 0 0 3.75 1.14 5.75 5.75 0 0 0 3.42-.85 2.65 2.65 0 0 0 1.19-2.24zM1010.1 616.39a14.88 14.88 0 0 1 1.48-6.72 10.77 10.77 0 0 1 4.15-4.59 11.69 11.69 0 0 1 6.14-1.61 11 11 0 0 1 8.33 3.31 13 13 0 0 1 3.46 8.76v1.34a15.09 15.09 0 0 1-1.44 6.7 10.66 10.66 0 0 1-4.13 4.57 11.71 11.71 0 0 1-6.19 1.62 11 11 0 0 1-8.59-3.58q-3.23-3.57-3.23-9.52zm5.7.49a10.21 10.21 0 0 0 1.62 6.13 5.25 5.25 0 0 0 4.5 2.21 5.19 5.19 0 0 0 4.48-2.25q1.61-2.25 1.61-6.58a10.1 10.1 0 0 0-1.65-6.1 5.28 5.28 0 0 0-4.49-2.25 5.22 5.22 0 0 0-4.43 2.22c-1.1 1.47-1.64 3.68-1.64 6.62zM1043.78 603.94l.17 2.93a9.09 9.09 0 0 1 7.38-3.4q7.92 0 8.06 9.07v16.76h-5.69v-16.43a5.18 5.18 0 0 0-1-3.57 4.35 4.35 0 0 0-3.41-1.16 5.5 5.5 0 0 0-5.13 3.11v18h-5.69v-25.31zM1080.34 629.3a8.83 8.83 0 0 1-.65-2.37 8.87 8.87 0 0 1-6.66 2.84 9 9 0 0 1-6.23-2.18 7 7 0 0 1-2.42-5.39 7.19 7.19 0 0 1 3-6.22q3-2.18 8.61-2.17h3.49v-1.67a4.46 4.46 0 0 0-1.1-3.15 4.35 4.35 0 0 0-3.35-1.18 5 5 0 0 0-3.19 1 3 3 0 0 0-1.24 2.47h-5.7a6.27 6.27 0 0 1 1.39-3.9 9.2 9.2 0 0 1 3.76-2.85 13.3 13.3 0 0 1 5.31-1 10.67 10.67 0 0 1 7.1 2.24 8 8 0 0 1 2.72 6.29v11.44a13 13 0 0 0 1 5.46v.4zm-6.25-4.1a6.43 6.43 0 0 0 3.17-.82 5.46 5.46 0 0 0 2.24-2.2v-4.79h-3.07a8.37 8.37 0 0 0-4.76 1.11 3.56 3.56 0 0 0-1.59 3.11 3.32 3.32 0 0 0 1.09 2.62 4.27 4.27 0 0 0 2.92.97zM1097.22 629.3h-5.7v-36h5.7zM1114.31 616.43q0-5.85 2.71-9.41a8.75 8.75 0 0 1 7.29-3.55 8.3 8.3 0 0 1 6.52 2.81v-13h5.69v36h-5.15l-.28-2.62a8.41 8.41 0 0 1-6.82 3.09 8.68 8.68 0 0 1-7.21-3.59q-2.76-3.56-2.75-9.73zm5.69.5a10.58 10.58 0 0 0 1.49 6 4.81 4.81 0 0 0 4.23 2.17 5.38 5.38 0 0 0 5.11-3.12v-10.8a5.3 5.3 0 0 0-5.06-3 4.87 4.87 0 0 0-4.27 2.19q-1.5 2.15-1.5 6.56zM1153.63 629.77a11.77 11.77 0 0 1-8.77-3.41 12.33 12.33 0 0 1-3.37-9.08v-.71a15.15 15.15 0 0 1 1.47-6.78 11.15 11.15 0 0 1 4.11-4.65 10.9 10.9 0 0 1 5.91-1.67q5.18 0 8 3.31t2.83 9.35v2.3h-16.57a7.6 7.6 0 0 0 2.09 5 6.3 6.3 0 0 0 4.63 1.83 7.71 7.71 0 0 0 6.38-3.16l3.07 2.93a10.24 10.24 0 0 1-4.07 3.52 12.67 12.67 0 0 1-5.71 1.22zM1153 608a4.8 4.8 0 0 0-3.78 1.64 8.5 8.5 0 0 0-1.84 4.57h10.85v-.42a6.88 6.88 0 0 0-1.52-4.32A4.76 4.76 0 0 0 1153 608zM1195.33 629.3a8.76 8.76 0 0 1-.66-2.37 8.86 8.86 0 0 1-6.65 2.84 9 9 0 0 1-6.24-2.18 7 7 0 0 1-2.41-5.39 7.19 7.19 0 0 1 3-6.22q3-2.18 8.61-2.17h3.5v-1.67a4.42 4.42 0 0 0-1.11-3.15 4.35 4.35 0 0 0-3.35-1.18 5 5 0 0 0-3.19 1 3 3 0 0 0-1.24 2.47h-5.69a6.32 6.32 0 0 1 1.38-3.9 9.27 9.27 0 0 1 3.76-2.85 13.37 13.37 0 0 1 5.31-1 10.64 10.64 0 0 1 7.1 2.24 8 8 0 0 1 2.72 6.29v11.44a13 13 0 0 0 1 5.46v.4zm-6.26-4.1a6.44 6.44 0 0 0 3.18-.82 5.52 5.52 0 0 0 2.24-2.2v-4.79h-3.07a8.35 8.35 0 0 0-4.76 1.11 3.54 3.54 0 0 0-1.6 3.11 3.36 3.36 0 0 0 1.09 2.62 4.27 4.27 0 0 0 2.92.97zM1216.56 625.22a5.11 5.11 0 0 0 3.54-1.24 4.23 4.23 0 0 0 1.5-3.07h5.4a8.29 8.29 0 0 1-1.48 4.42 9.65 9.65 0 0 1-3.75 3.24 11.11 11.11 0 0 1-5.11 1.2 10.79 10.79 0 0 1-8.43-3.45c-2.08-2.29-3.12-5.47-3.12-9.51v-.59q0-5.79 3.09-9.27a10.73 10.73 0 0 1 8.44-3.48 10.4 10.4 0 0 1 7.37 2.64 9.43 9.43 0 0 1 3 6.92h-5.37a5.2 5.2 0 0 0-1.49-3.58 4.78 4.78 0 0 0-3.55-1.41 5 5 0 0 0-4.26 2q-1.5 2-1.53 6.08v.88q0 4.13 1.49 6.15a5 5 0 0 0 4.26 2.07zM1246.63 626.82a8.84 8.84 0 0 1-7.12 2.95 7.89 7.89 0 0 1-6.25-2.42q-2.12-2.4-2.12-7v-16.41h5.7v16.36q0 4.83 4 4.83 4.15 0 5.61-3v-18.19h5.69v25.36h-5.37zM1269.11 629.77a11.81 11.81 0 0 1-8.78-3.41 12.37 12.37 0 0 1-3.36-9.08v-.71a15.28 15.28 0 0 1 1.46-6.78 11.17 11.17 0 0 1 4.12-4.65 10.84 10.84 0 0 1 5.9-1.67q5.19 0 8 3.31t2.82 9.35v2.3h-16.57a7.56 7.56 0 0 0 2.1 5 6.3 6.3 0 0 0 4.63 1.83 7.7 7.7 0 0 0 6.37-3.16l3.07 2.93a10.21 10.21 0 0 1-4.06 3.52 12.7 12.7 0 0 1-5.7 1.22zm-.68-21.73a4.8 4.8 0 0 0-3.78 1.64 8.42 8.42 0 0 0-1.84 4.57h10.85v-.42a6.94 6.94 0 0 0-1.53-4.32 4.74 4.74 0 0 0-3.7-1.51zM1297 609.14a14.73 14.73 0 0 0-2.32-.18q-3.92 0-5.28 3v17.34h-5.69v-25.36h5.44l.14 2.84a6.4 6.4 0 0 1 5.72-3.31 5.28 5.28 0 0 1 2 .33zM1299.06 616.43q0-5.85 2.72-9.41a8.72 8.72 0 0 1 7.29-3.55 8.3 8.3 0 0 1 6.52 2.81v-13h5.69v36h-5.15l-.29-2.62a8.39 8.39 0 0 1-6.82 3.09 8.66 8.66 0 0 1-7.2-3.59q-2.76-3.56-2.76-9.73zm5.7.5a10.58 10.58 0 0 0 1.49 6 4.81 4.81 0 0 0 4.23 2.17 5.38 5.38 0 0 0 5.11-3.12v-10.8a5.3 5.3 0 0 0-5.07-3 4.86 4.86 0 0 0-4.26 2.19q-1.5 2.15-1.5 6.56zM1326.16 616.39a15 15 0 0 1 1.47-6.72 10.83 10.83 0 0 1 4.15-4.59 11.69 11.69 0 0 1 6.14-1.61 11.09 11.09 0 0 1 8.34 3.31 13 13 0 0 1 3.45 8.76v1.34a15 15 0 0 1-1.45 6.7 10.63 10.63 0 0 1-4.12 4.57 11.77 11.77 0 0 1-6.2 1.62 11 11 0 0 1-8.59-3.58q-3.23-3.57-3.22-9.52zm5.69.49a10.21 10.21 0 0 0 1.62 6.13 5.27 5.27 0 0 0 4.5 2.21 5.2 5.2 0 0 0 4.49-2.25q1.61-2.25 1.6-6.58a10.1 10.1 0 0 0-1.65-6.1 5.57 5.57 0 0 0-8.92 0q-1.63 2.18-1.64 6.59zM1381.66 629.3a8.76 8.76 0 0 1-.66-2.37 8.87 8.87 0 0 1-6.66 2.84 9 9 0 0 1-6.23-2.18 7 7 0 0 1-2.41-5.39 7.19 7.19 0 0 1 3-6.22q3-2.18 8.61-2.17h3.49v-1.67a4.42 4.42 0 0 0-1.1-3.15 4.35 4.35 0 0 0-3.35-1.18 5 5 0 0 0-3.19 1 3 3 0 0 0-1.24 2.47h-5.69a6.32 6.32 0 0 1 1.38-3.9 9.2 9.2 0 0 1 3.76-2.85 13.37 13.37 0 0 1 5.31-1 10.65 10.65 0 0 1 7.1 2.24 8 8 0 0 1 2.72 6.29v11.44a13 13 0 0 0 1 5.46v.4zm-6.26-4.1a6.5 6.5 0 0 0 3.18-.82 5.5 5.5 0 0 0 2.23-2.2v-4.79h-3.07a8.31 8.31 0 0 0-4.75 1.11 3.54 3.54 0 0 0-1.6 3.11 3.36 3.36 0 0 0 1.09 2.62 4.27 4.27 0 0 0 2.92.97zM1410.49 629.3h-5.7v-36h5.7zM1431.84 629.3a8.76 8.76 0 0 1-.66-2.37 8.87 8.87 0 0 1-6.66 2.84 9 9 0 0 1-6.23-2.18 7 7 0 0 1-2.41-5.39 7.19 7.19 0 0 1 3-6.22q3-2.18 8.61-2.17h3.51v-1.67a4.42 4.42 0 0 0-1.1-3.15 4.35 4.35 0 0 0-3.35-1.18 5 5 0 0 0-3.19 1 3 3 0 0 0-1.24 2.47h-5.69a6.32 6.32 0 0 1 1.38-3.9 9.2 9.2 0 0 1 3.76-2.85 13.37 13.37 0 0 1 5.31-1 10.65 10.65 0 0 1 7.1 2.24 8 8 0 0 1 2.72 6.29v11.44a13 13 0 0 0 1 5.46v.4zm-6.26-4.1a6.5 6.5 0 0 0 3.18-.82 5.5 5.5 0 0 0 2.23-2.2v-4.79h-3.07a8.31 8.31 0 0 0-4.75 1.11 3.54 3.54 0 0 0-1.6 3.11 3.32 3.32 0 0 0 1.09 2.62 4.27 4.27 0 0 0 2.92.97zM1459.89 603.94l.17 2.93a9.09 9.09 0 0 1 7.38-3.4q7.92 0 8.06 9.07v16.76h-5.69v-16.43a5.18 5.18 0 0 0-1-3.57 4.35 4.35 0 0 0-3.41-1.16 5.49 5.49 0 0 0-5.13 3.11v18h-5.7v-25.31zM1480.24 616.39a15 15 0 0 1 1.47-6.72 10.83 10.83 0 0 1 4.15-4.59 11.69 11.69 0 0 1 6.14-1.61 11 11 0 0 1 8.33 3.31 12.94 12.94 0 0 1 3.46 8.76v1.34a15.09 15.09 0 0 1-1.44 6.7 10.63 10.63 0 0 1-4.12 4.57 11.77 11.77 0 0 1-6.2 1.62 11 11 0 0 1-8.59-3.58q-3.23-3.57-3.22-9.52zm5.69.49a10.21 10.21 0 0 0 1.62 6.13 5.27 5.27 0 0 0 4.5 2.21 5.2 5.2 0 0 0 4.49-2.25q1.61-2.25 1.6-6.58a10.1 10.1 0 0 0-1.65-6.1 5.57 5.57 0 0 0-8.92 0q-1.63 2.18-1.64 6.59zM1521.91 609.14a14.73 14.73 0 0 0-2.32-.18q-3.91 0-5.28 3v17.34h-5.69v-25.36h5.44l.14 2.84a6.4 6.4 0 0 1 5.72-3.31 5.28 5.28 0 0 1 2 .33zM1530.86 603.94l.16 2.65a9.14 9.14 0 0 1 7.32-3.12q5.09 0 7 3.89a9 9 0 0 1 7.78-3.89c2.8 0 4.88.78 6.25 2.32s2.06 3.83 2.09 6.85v16.66h-5.69v-16.5a5 5 0 0 0-1.06-3.54 4.6 4.6 0 0 0-3.49-1.12 4.69 4.69 0 0 0-3.17 1 5.41 5.41 0 0 0-1.73 2.73v17.39h-5.7v-16.65q-.12-4.47-4.57-4.47a5 5 0 0 0-4.85 2.79v18.37h-5.7v-25.36zM1582.42 629.3a8.47 8.47 0 0 1-.65-2.37 9.57 9.57 0 0 1-12.89.66 7 7 0 0 1-2.42-5.39 7.21 7.21 0 0 1 3-6.22q3-2.18 8.62-2.17h3.49v-1.67a4.46 4.46 0 0 0-1.1-3.15 4.37 4.37 0 0 0-3.35-1.18 5 5 0 0 0-3.19 1 3 3 0 0 0-1.24 2.47H1567a6.32 6.32 0 0 1 1.38-3.9 9.3 9.3 0 0 1 3.77-2.85 13.29 13.29 0 0 1 5.3-1 10.68 10.68 0 0 1 7.11 2.24 8 8 0 0 1 2.71 6.29v11.44a12.81 12.81 0 0 0 1 5.46v.4zm-6.25-4.1a6.43 6.43 0 0 0 3.17-.82 5.52 5.52 0 0 0 2.24-2.2v-4.79h-3.07a8.35 8.35 0 0 0-4.76 1.11 3.56 3.56 0 0 0-1.59 3.11 3.32 3.32 0 0 0 1.09 2.62 4.25 4.25 0 0 0 2.92.97zM1623.58 620.51A4.13 4.13 0 0 0 1622 617a19.24 19.24 0 0 0-5.71-2.46 27.77 27.77 0 0 1-6.56-2.76q-4.67-2.94-4.67-7.64a8.3 8.3 0 0 1 3.37-6.8 13.61 13.61 0 0 1 8.73-2.67 14.68 14.68 0 0 1 6.35 1.31 10.35 10.35 0 0 1 4.38 3.74 9.6 9.6 0 0 1 1.6 5.38h-5.91a5.35 5.35 0 0 0-1.68-4.19 6.88 6.88 0 0 0-4.79-1.51 7.2 7.2 0 0 0-4.51 1.24 4.15 4.15 0 0 0-1.61 3.47 3.75 3.75 0 0 0 1.74 3.13 19.77 19.77 0 0 0 5.72 2.44 26.53 26.53 0 0 1 6.39 2.69 10.24 10.24 0 0 1 3.54 3.47 9 9 0 0 1 1.13 4.58 8.12 8.12 0 0 1-3.27 6.79q-3.27 2.52-8.87 2.52a16.74 16.74 0 0 1-6.81-1.37 11.51 11.51 0 0 1-4.83-3.79A9.41 9.41 0 0 1 1604 619h5.93a5.52 5.52 0 0 0 1.92 4.5 8.44 8.44 0 0 0 5.51 1.59 7.35 7.35 0 0 0 4.65-1.25 4 4 0 0 0 1.57-3.33zM1659.37 600h-10.64v29.3h-5.89V600h-10.54v-4.78h27.07zM1669.77 616.64v12.66h-5.93v-34.12h13.06q5.71 0 9.08 3a10 10 0 0 1 3.36 7.89 9.66 9.66 0 0 1-3.29 7.81q-3.29 2.79-9.22 2.79zm0-4.78h7.13a7 7 0 0 0 4.83-1.49 5.45 5.45 0 0 0 1.66-4.3 5.87 5.87 0 0 0-1.69-4.41 6.45 6.45 0 0 0-4.64-1.7h-7.29zM1712.36 620.51a4.13 4.13 0 0 0-1.58-3.47 19.24 19.24 0 0 0-5.71-2.46 27.77 27.77 0 0 1-6.56-2.76q-4.66-2.94-4.67-7.64a8.33 8.33 0 0 1 3.37-6.8 13.61 13.61 0 0 1 8.73-2.67 14.68 14.68 0 0 1 6.35 1.31 10.35 10.35 0 0 1 4.38 3.74 9.52 9.52 0 0 1 1.6 5.38h-5.91a5.35 5.35 0 0 0-1.68-4.19 6.88 6.88 0 0 0-4.79-1.51 7.2 7.2 0 0 0-4.51 1.24 4.15 4.15 0 0 0-1.61 3.47 3.75 3.75 0 0 0 1.74 3.13 19.89 19.89 0 0 0 5.72 2.44 26.8 26.8 0 0 1 6.4 2.69 10.24 10.24 0 0 1 3.54 3.47 9 9 0 0 1 1.12 4.58 8.12 8.12 0 0 1-3.27 6.79q-3.27 2.52-8.87 2.52a16.74 16.74 0 0 1-6.81-1.37 11.51 11.51 0 0 1-4.83-3.79 9.41 9.41 0 0 1-1.72-5.62h5.93a5.52 5.52 0 0 0 1.92 4.5 8.44 8.44 0 0 0 5.51 1.59 7.35 7.35 0 0 0 4.65-1.25 4 4 0 0 0 1.56-3.32z"/><path class="cls-2" d="M968.1 480h-26.94l-52.43-86v86h-26.94V349.29h26.94l52.52 86.2v-86.2h26.85zM1099 417.62q0 19.31-6.82 33.85a51.4 51.4 0 0 1-19.53 22.45q-12.71 7.89-29.14 7.9a54.46 54.46 0 0 1-29-7.81 51.85 51.85 0 0 1-19.75-22.32q-7-14.49-7.1-33.35v-6.47q0-19.31 7-34a51.81 51.81 0 0 1 19.66-22.54 57.61 57.61 0 0 1 58.1 0 51.81 51.81 0 0 1 19.66 22.54q7 14.67 7 33.89zm-27.3-5.93q0-20.55-7.36-31.24t-21-10.69q-13.56 0-20.92 10.55t-7.42 30.93v6.38q0 20 7.36 31.06t21.19 11.05q13.56 0 20.83-10.64t7.36-31zM1153.78 349.29l33.58 94.82 33.4-94.82h35.38V480h-27v-35.72l2.7-61.68-35.32 97.4H1178l-35.19-97.33 2.69 61.59V480h-26.94V349.29zM1328.42 434.5h-50.55v-20.92h50.55zM1436.17 426q0 27.12-11.23 41.48t-32.86 14.37q-21.37 0-32.68-14.1t-11.59-40.4v-24.1q0-27.37 11.36-41.57t32.73-14.19q21.36 0 32.68 14.06t11.59 40.36zm-26-26.46q0-16.26-4.45-23.68t-13.87-7.42q-9.17 0-13.51 7.06t-4.63 22.06v31.82q0 16 4.36 23.77t14 7.78q9.51 0 13.74-7.46t4.4-22.83zM1480.07 403.16h13.83q9.87 0 14.64-4.94t4.75-13.11q0-7.89-4.71-12.3t-13-4.4a19.16 19.16 0 0 0-12.48 4.09 13 13 0 0 0-5 10.64h-25.95a31.93 31.93 0 0 1 5.52-18.36 36.85 36.85 0 0 1 15.44-12.71 51.64 51.64 0 0 1 21.87-4.58q20.73 0 32.5 9.92t11.76 27.35a27.52 27.52 0 0 1-5.47 16.52 35.66 35.66 0 0 1-14.37 11.58q11 3.94 16.48 11.85a32.16 32.16 0 0 1 5.43 18.68q0 17.42-12.71 27.92t-33.6 10.51q-19.57 0-32-10.33t-12.44-27.29h26a15 15 0 0 0 5.52 12 20.37 20.37 0 0 0 13.61 4.67q9.24 0 14.5-4.9t5.25-13q0-19.57-21.55-19.58h-13.74zM1563 415.73l7.54-66.44h73.27v21.64h-52l-3.23 28.1a41.12 41.12 0 0 1 19.66-4.94q18.68 0 29.27 11.59t10.6 32.41a47.4 47.4 0 0 1-5.35 22.67 37.62 37.62 0 0 1-15.31 15.53q-10 5.54-23.52 5.53a50.82 50.82 0 0 1-22-4.81 39 39 0 0 1-16-13.51 36.85 36.85 0 0 1-6.24-19.84h25.68q.81 8.16 5.7 12.7t12.8 4.54q8.8 0 13.56-6.33t4.76-17.92q0-11.13-5.48-17.06t-15.53-5.92q-9.26 0-15 4.85l-2.51 2.33z"/><rect x="1488.8" y="109.94" width="275.87" height="75.79" rx="27.28" transform="rotate(7.23 1625.822 147.657)" fill="#eeecac"/><path class="cls-3" d="M1548.27 156.89a16.94 16.94 0 0 1-8.06 3.85 31.1 31.1 0 0 1-10.82.28 21.14 21.14 0 0 1-10.33-4.12 17.86 17.86 0 0 1-6-8.7 27.36 27.36 0 0 1-.94-12.25l.44-3.2a29.08 29.08 0 0 1 4-11.85 17.67 17.67 0 0 1 7.92-6.94 19.86 19.86 0 0 1 10.84-1.3q8.36 1.14 12.52 5.77t4 12.36l-9.42-1.28a9.47 9.47 0 0 0-2.05-6.3 9.16 9.16 0 0 0-5.83-2.7 8.65 8.65 0 0 0-8 2.68q-3.09 3.36-4.12 10.68l-.41 3c-.68 4.93-.25 8.77 1.28 11.55s4.1 4.4 7.71 4.9 6.34.07 8.1-1.26l1.1-8.1-8.81-1.21 1-7.13 18.49 2.53zM1575 149.08l-7.72-1.05-2.35 17.2-9.67-1.33 6.41-47 17.46 2.39q8.32 1.14 12.33 5.46t3.09 11.11a14.61 14.61 0 0 1-3.18 7.73 14.27 14.27 0 0 1-7 4.25l7.55 20.59-.07.45-10.38-1.42zm-6.64-8.89l7.8 1.07a8.05 8.05 0 0 0 5.9-1.09 6.64 6.64 0 0 0 2.7-4.84 7.15 7.15 0 0 0-1.17-5.48c-1.08-1.45-2.93-2.34-5.53-2.7l-7.78-1.06zM1625.31 163.61l-17-2.32-4.55 9.24-10.29-1.41 23.9-44.59 9 1.23 11.17 49.38-10.29-1.41zm-13.29-9.8l11.75 1.6-3.5-18.39zM1678.76 140.9l-14.39-2-5.37 39.18-9.68-1.33 5.34-39.14-14.19-1.93 1.07-7.85 38.27 5.23zM1689.23 182.2l-9.68-1.32 6.42-47 9.68 1.32zM1724.24 174.43a5 5 0 0 0-1.36-4.48 25.86 25.86 0 0 0-6.54-4 48.42 48.42 0 0 1-7.53-4.3q-7.43-5.41-6.41-12.74a11.4 11.4 0 0 1 3.07-6.49 14.05 14.05 0 0 1 6.8-3.82 23.2 23.2 0 0 1 9.25-.45 21.28 21.28 0 0 1 8.72 3.05 14.4 14.4 0 0 1 5.41 6 13.54 13.54 0 0 1 1.14 7.85l-9.68-1.33a6.37 6.37 0 0 0-1.34-5.29 8.41 8.41 0 0 0-5.47-2.57 9 9 0 0 0-5.72.75 4.78 4.78 0 0 0-2.51 3.68 4.57 4.57 0 0 0 1.78 4.15 26.35 26.35 0 0 0 6.4 3.84q7.92 3.6 11.19 7.8a12.4 12.4 0 0 1 2.52 9.68 11.37 11.37 0 0 1-5.92 8.94q-5.08 2.84-12.89 1.77a24.19 24.19 0 0 1-9.6-3.33 15.71 15.71 0 0 1-6-6.37 14 14 0 0 1-1.25-8.32l9.71 1.33q-1.07 7.77 8.23 9a9.16 9.16 0 0 0 5.58-.66 4.61 4.61 0 0 0 2.42-3.69z"/><path class="cls-5" d="M2522.07 460c8.4-10.72 14.53-23.55 15.65-37.13s-3.17-27.9-13-37.37c-12.1-11.72-30.22-14.48-47.07-14.69-24.09-.29-48.58 3.56-70.18 14.24s-40.12 28.61-48.68 51.13c-7 18.48-8.33 41.06-24 53.14-16.82 13-41.37 6.87-61.49 13.7-9.68 3.29-18.09 9.53-25.64 16.42a156.73 156.73 0 0 0-50.34 111l34 17.22a755.56 755.56 0 0 1 162.35-18.85c19.63-.14 39.38.48 58.77-2.58s38.72-10.16 52.92-23.72 22.41-34.36 17.5-53.37c-5.26-20.43-24.56-38.05-20.42-58.74 2.42-11.95 12.12-20.77 19.63-30.4zM2177.49 556.07c-27-20.9-55.39-43.69-66.26-76.06-11-32.87-1.74-69.09-7.09-103.35a122 122 0 0 0-16-44c-6.69-11.12-15.41-21.34-26.7-27.75-11.94-6.77-26-8.87-39.72-9a152.06 152.06 0 0 0-70.19 16.64c-25.3 12.94-48.06 35.61-51 63.87-.7 6.73-.26 13.6-1.67 20.22-4.2 19.73-23.35 32.41-41.93 40.27s-39 13.61-53 28.12c-23.11 23.95-19.08 66.32 4.13 90.17s60.36 30.36 92.72 22.57c2.69-.65 5.44-1.39 8.17-1 4.31.63 7.7 4 10.37 7.43 7.31 9.48 11.57 21 18.42 30.79 16.77 24 47.61 35.27 76.93 35s57.59-10.45 84.61-21.82S2153 604 2181.72 598zM2453.11 243.71c-8.38-6-18.8-8.24-29-9.7-16.9-2.43-35.18-2.77-49.87 5.93-30.08 17.8-32.59 64.91-63.36 81.47-23 12.39-51.7 2.15-77.29 7.46-23.82 4.93-43.27 23.46-53.95 45.31s-13.58 46.73-13.52 71.05c.06 22.83 3 46.82 16.34 65.36l27-44.57c12.4-23.55 35.34-40 59.82-50.49s50.81-15.57 76.66-21.9c16.85-4.12 33.77-8.86 48.82-17.48 10.72-6.14 20.25-14.12 29.6-22.19 16.66-14.38 33.48-29.95 41.64-50.4s5-47.08-12.89-59.85z"/><path class="cls-5" d="M2238.55 255.61c-1.22-13.05-11.74-23.11-22.13-31.08a266.59 266.59 0 0 0-38.55-24.63c-11.06-5.79-22.68-10.9-32.13-19.05-7.28-6.29-13-14.14-19.16-21.5-18.61-22.2-11.44-40.6-35.82-56.24-22-14.14-52.74-19.41-73.57-12.38-12.91 4.36-35.61 23-42.6 34.73-12.24 20.54-1.39 44.54 11.79 64.54 7.23 11 18.41 21.69 16.23 34.63-.84 5-3.65 9.37-5 14.21-5 17.52 9.86 34.74 26 43.16s34.86 12.29 48.91 23.87l69 65.36c13.9-10.61 34.43-6.15 50-14.09 11.42-5.81 18.64-17.56 23.19-29.54s7-24.69 12.17-36.43c5.12-11.6 12.84-22.99 11.67-35.56z"/><circle cx="2082.6" cy="392.48" r="92.4" opacity=".6" fill="#b2d3ed"/><circle cx="2320.73" cy="619.3" r="96.93" opacity=".74" fill="#b2d3ed"/><path d="M2041 399.5c-8.66 3.61-31.26 9.24-42 14.1-4.81 2.17 9.37 6.3 7.11 11.06s-2.45 10.77.63 15c3.73 5.16 10.79 6.35 17.13 7a361.06 361.06 0 0 0 39.05 1.63c3 0 6-.12 8.94-.27-3.41-33.44-18.75-44.8-30.86-48.52z" fill="url(#linear-gradient)"/><path class="cls-9" d="M2151.91 366.33c-2.74-6.84-3.72-10.95-11.92-9.58-17.68 2.95-49.36 22-66.85 27.94-8.67 3-20.36 7.14-29.92 10.74-2.55.95-8.72 4.95-8.55 6.33 4.56-2.71 33.78 12.82 37.11 46.27-.47 4.16-27.62 14.31-25 18.1 16.48 23.61 47.8-21.22 53.1-23.17 30.58-11.23 60.64-55.07 52.03-76.63z"/><path class="cls-10" d="M1965.33 667.15A151.2 151.2 0 0 1 1947 634c-1-2.59-1.94-5.73-.31-8 1-1.41 2.77-2.06 4.43-2.58 12.33-3.89 25.33-5 38.21-6.12 38-3.26 121.81-35.65 130.25-33.25 20.3 5.76 95.52 12.49 95.52 33.6 0 51.66-77.35 76.94-97.14 84.27-11.75 4.35-26.68 7.25-39.18 8.16-22.73 1.67-46 1-67.59-6.33s-41.33-22.17-50.76-42.9"/><path class="cls-10" d="M2278.15 567.31c19 8.77 23.89 28.3 32.66 47.31 3.74 8.09 5 17.13 5.33 26 .46 10.83-.3 21.86-3.83 32.12-8.66 25.21-35.19 43-61.81 41.63s-51.1-21.82-57.36-47.73 6.14-55.19 29-68.83"/><circle class="cls-11" cx="2332.78" cy="429.62" r="51.99"/><path d="M2187.48 750.86c-28.27-22.94-91-82.91-124.19-97.88-37.86-17.08-109.5-45.84-120.4-22.52s18.51 66.25 27.89 74.88 56.29 29.37 56.29 29.37c61.44 15.1 101.31 38.18 141.44 47.47 3.91.91 25.75-25.81 18.97-31.32z" fill="url(#linear-gradient-2)"/><path class="cls-9" d="M2260.05 361.15c-10.5 13-26.49 34.74-17.41 48.76 28.41 43.85 87 85.52 93.62 79.19 3.7-3.52 18.48-14.43 18.48-30 0-11.46-13.7-35.72-26.18-48-53.45-52.32-68.51-49.95-68.51-49.95z"/><path class="cls-9" d="M2280.89 562.06c-8.09-26.29-17.73-52.73-17.77-80.23 0-28.55 10.31-56.27 11-84.8.32-13.46-2.36-29.23-14.06-35.88-3.19-1.82-18.86-3.32-28.18-5.39-32.16-7.13-86.84-2.31-91.88 1s-17 29.42-21.65 39.51c-9 19.37-18.11 40.7-12.83 61.38 2 7.86 6 15 9.53 22.35 6.54 13.54 11.61 28 12.54 43s-2.56 30.65-11.73 42.58c-4.36 5.67-10.32 12.12-8 18.88a16.32 16.32 0 0 0 4.05 5.75c21.62 22.13 54.85 30.82 85.45 26.27s58.54-21.18 80.57-42.91c1.58-1.57 3.21-3.28 3.7-5.45s-.13-4.12-.74-6.06z"/><circle cx="2208.02" cy="133.8" r="100.9" opacity=".85" fill="#b2d3ed"/><circle class="cls-11" cx="2346.3" cy="234.71" r="51.99"/><circle cx="1896.71" cy="557.04" r="51.99" opacity=".75" fill="#b2d3ed"/><path d="M2273.46 172.37a14.51 14.51 0 0 1 8.53 4.08 16 16 0 0 1 10-2.21c10.22 1 18.51 10.95 18.51 22.13 0 7.59-3.82 13.8-9.46 16.7a17.47 17.47 0 0 1 .22 2.62c0 8.39-6.23 15-13.9 13.78-20.36-3.13-29.36-33.47-27.8-43.32 1.33-8.15 6.22-14.56 13.9-13.78z" fill="url(#linear-gradient-3)"/><path d="M2270.87 218.26s2.37-11.17-10.33-19.35" stroke="#56ab3d" stroke-linecap="round" stroke-miterlimit="10" fill="none"/><path d="M2149.47 280c6.09-9.11 11.12-15.91 14-22.32a107.86 107.86 0 0 1-6.12-22.71c-6-37.75 22.84-63.8 59.07-63.8 33.13 0 66.2 22.14 71.35 54.49 1 2 1.91 4.15 2.78 6.31a109.55 109.55 0 0 0 6 12.35h.7a24.72 24.72 0 0 1 23.22 16.28 25.37 25.37 0 0 1 4.3-.4 24.69 24.69 0 0 1 21.33 37.19c7.79 8.76 14.55 20.9 8 36.71-10.48 25.25-35.49 23.36-52.64 15 0 0-7.68 9.91-25.54 14.91-17.16 4.8-39.47-11.85-39.47-11.85s-15.93 8.15-32.69 8.64-33-16-33-16-19.94-7.89-26.13-26.69c-3.63-11.44-1.74-28.3 4.84-38.11z" fill="url(#linear-gradient-4)"/><path id="Neck" d="M2178.26 312.45s2.38 29.47-2.41 40.24a24.84 24.84 0 0 0 12.47 13.79c7 3.59 25.26 6.83 43.55-10.72-3.34-14.36-3-22.6-1.91-53.28.41-11.72-46.69-33.42-51.7 9.97z" fill="url(#linear-gradient-5)"/><g id="Face"><path d="M2251.12 267.86a16 16 0 0 0 4-3.69 74.15 74.15 0 0 1-6.88 16A41.79 41.79 0 0 1 2250 271a18.38 18.38 0 0 1 1.12-3.14z" fill="url(#linear-gradient-6)"/><path d="M2160.22 248.84c2.11-21.65 2.6-37.68 20.93-31.3 27.71 9.65 51.86-1.13 51.86-1.13 13.79 17.09 0 21.41 6.35 42.59 3.38 11.26 8.31 10.95 11.76 8.86 3-6.36 9.32-11 14.15-10.08 5.59 1 8.48 8.29 6.43 16.19s-13.83 12.43-19.43 11.39c-3-.56-4-2.39-4-5.19a81.19 81.19 0 0 1-18.27 22.31c-11.16 9.39-44.81 13.08-55.55 9.53-16.32-10.01-19.27-45.88-14.23-63.17z" fill="url(#linear-gradient-7)"/><path class="cls-21" d="M2152.21 231.28c.06-.32.17-.45.51-.46 1 0 2-.11 2.92-.17 2.67-.15 5.33-.21 8-.16a60.14 60.14 0 0 1 7 .47 36.62 36.62 0 0 1 8.6 2 20.67 20.67 0 0 1 5.36 3 16 16 0 0 1 4.73 6.06.68.68 0 0 0 .56.42c1.21.2 2.42.4 3.62.65a1 1 0 0 0 1-.32 15.34 15.34 0 0 1 3.33-2.44 18.69 18.69 0 0 1 6.94-2.17 27.29 27.29 0 0 1 6.76.12 47.67 47.67 0 0 1 6.16 1.25 75.28 75.28 0 0 1 7.52 2.5c2.51 1 5 2 7.43 3.13a.47.47 0 0 1 .33.63c-.47 2.19-.91 4.39-1.36 6.58a2.81 2.81 0 0 1-.16.49 29.73 29.73 0 0 1-5.06 7.47 22.15 22.15 0 0 1-10.16 6.39 18.48 18.48 0 0 1-10.55 0 16.82 16.82 0 0 1-10.63-9.44 20.33 20.33 0 0 1-1.6-8.83 2 2 0 0 0-.11-.64 3 3 0 0 0-3.59-1.78 2.7 2.7 0 0 0-1.9 1.49 29 29 0 0 1-1.28 2.7 19.31 19.31 0 0 1-7 7.46 17.53 17.53 0 0 1-7.33 2.46 18.31 18.31 0 0 1-12-3.07 19.45 19.45 0 0 1-4.5-4.28 22.64 22.64 0 0 1-3.31-6.14 28.83 28.83 0 0 1-1.46-6.51 8.65 8.65 0 0 1 .13-3.36c.2-.71.3-1.44.45-2.16.21-1.13.44-2.24.65-3.34zm54.59 9.31a31.87 31.87 0 0 0-5 .62 11 11 0 0 0-3.6 1.35 5.76 5.76 0 0 0-2.73 3.83 17.79 17.79 0 0 0 .36 8.76 15.1 15.1 0 0 0 3.26 6 14.63 14.63 0 0 0 4 3.19 16.8 16.8 0 0 0 4.74 1.7 12.42 12.42 0 0 0 3.28 0 20.52 20.52 0 0 0 7.81-2 17.18 17.18 0 0 0 4.17-2.84 19.46 19.46 0 0 0 5.23-7.72 5.91 5.91 0 0 0-.51-5.59 6.89 6.89 0 0 0-1.74-1.75 29 29 0 0 0-8.58-4.15 28.15 28.15 0 0 0-3.18-.8 33.39 33.39 0 0 0-7.51-.6zm-46-7.12a14.48 14.48 0 0 0-3.68 1 5.94 5.94 0 0 0-3.32 3.79 11.73 11.73 0 0 0-.11 5.46 19.64 19.64 0 0 0 1.15 4.2 17 17 0 0 0 5.41 7.16 23 23 0 0 0 6.82 3.57 9.17 9.17 0 0 0 2.56.32 15.63 15.63 0 0 0 7.15-1.3 17 17 0 0 0 8.28-7.86 18.73 18.73 0 0 0 1.71-4.42 6 6 0 0 0-2-6.27 17.77 17.77 0 0 0-3.4-2.29 30.53 30.53 0 0 0-3.67-1.7c-1.1-.42-2.23-.76-3.37-1.08-.79-.22-1.6-.37-2.41-.52a31.48 31.48 0 0 0-11.14-.06zM2232.85 249.12c-.2 1-.4 1.92-.59 2.88 0 .19-.21.44.09.57a.72.72 0 0 0 .85-.25 1 1 0 0 0 .14-.34c.37-1.79.73-3.59 1.11-5.39a.59.59 0 0 0-.29-.71c-.43-.22-.63-.2-.72.3-.18 1-.39 2-.6 2.94zM2151.08 234.45c.2-1 .4-1.91.59-2.87 0-.19.21-.44-.1-.57a.76.76 0 0 0-.85.24.86.86 0 0 0-.12.3l-1.1 5.39a.64.64 0 0 0 .51.85c.28.09.4 0 .45-.28.2-1.02.41-2.04.62-3.06z"/><path class="cls-22" d="M2197.15 252.5a6.72 6.72 0 0 0-.36-3.74 1.14 1.14 0 0 0-.61-.68.62.62 0 0 0-.86.5 21.76 21.76 0 0 0 .31 5c0 .25.13.43.4.49a.59.59 0 0 0 .63-.28 2.82 2.82 0 0 0 .49-1.29zM2182.89 249.77a3.82 3.82 0 0 0-.08 1.4.6.6 0 0 0 .46.58c.31.06.46-.13.62-.36a18.18 18.18 0 0 0 2.16-4.29c.09-.26.22-.54-.06-.78a.73.73 0 0 0-.88 0 2.05 2.05 0 0 0-.69.55 7 7 0 0 0-1.53 2.9z"/><path class="cls-21" d="M2235.11 246.58l20.53 12.42-1.78 2.49-20.04-8.69 1.29-6.22z"/><path d="M2188.32 247.62c-.36.31-9.89 12.53-10.65 17.55s6.62 8.91 6.62 8.91" fill="#b28574"/><path class="cls-24" d="M2188.32 247.62c-2.44 4.93-5.34 9.46-7.8 14.06a22 22 0 0 0-1.48 3.38 4.57 4.57 0 0 0 .29 3.1 19.36 19.36 0 0 0 5 5.92 12.9 12.9 0 0 1-6.86-4.88 6.42 6.42 0 0 1-1-4.71 15.48 15.48 0 0 1 1.52-4.12 40.64 40.64 0 0 1 4.58-6.89 35.92 35.92 0 0 1 5.75-5.86z"/></g><path class="cls-25" d="M2203.78 231.15a11.22 11.22 0 0 1 6.74-2.89 13.87 13.87 0 0 1 3.64.11c.31.06.6.09.92.17s.74.2 1.08.32a9.75 9.75 0 0 1 1.9.88 17.13 17.13 0 0 1 5.35 5.06 18.41 18.41 0 0 1 2.92 6.43c-2.1-1.18-3.95-2.4-5.74-3.56a38.82 38.82 0 0 0-5.11-3 9.51 9.51 0 0 0-1.13-.43c-.18-.06-.34-.09-.51-.13s-.47-.1-.71-.15c-1-.19-1.92-.42-2.91-.67a37.65 37.65 0 0 1-6.44-2.14zM2181.93 227.66a27.41 27.41 0 0 1-5.15.2 11.42 11.42 0 0 0-3.4.09c-1.05.25-2.53.69-4.06 1a18.92 18.92 0 0 1-5.22.42 11.91 11.91 0 0 1 8-7c.29-.05.54-.11.85-.14s.68 0 1 0a10 10 0 0 1 7.95 5.5z"/><path id="Mouth" d="M2190.16 291.61c.61-.56-6.08-7.68-10.22-7.68s-6.72 2.72-6.21 3.84 7.64 5.23 16.43 3.84z" fill="#fff" stroke="#623d0e" stroke-width=".75" stroke-miterlimit="10"/><path d="M2164.72 382.14c-3.19-.35-9.62 3.89-10.65 7.34a280.33 280.33 0 0 0-8.92 40.85c-.48 3.43-1.3 7.48-4.2 9a8.32 8.32 0 0 1-4.4.6c-35.78-2.11-67.31-22.25-102.22-29.23-16.38-3.27-36.47-2.13-47.4 12.95a11.63 11.63 0 0 0-2.42 5.35 14.62 14.62 0 0 0 3.65 10.36c5.52 5.91 15.14 18.45 31.34 24.09s27.74 2.09 41.83 1.29a227 227 0 0 1 85.8 11.57 8.94 8.94 0 0 0 4.44.71c5.16-.92 13.49-9.29 13.15-14.9-1.63-26.63-3.64-53.12 0-79.98z" fill="url(#linear-gradient-8)"/><path d="M2283.1 446c.55-.91 15.3-5.13 28.33-7.88s25.2-.91 30.59 6.61c3.63 5.07 3.28 22.15 3.28 22.15z" fill="url(#linear-gradient-9)"/><path d="M2344.71 464.28c-1.09-3.13-17.38-20-50.7-20-33 0-65.89-2.06-98.83-3.09a9.8 9.8 0 0 1-5-1.06c-2.69-1.7-3-5.41-3.28-8.58-1.25-16.21-14.12-44.31-19-47.36-3-1.9-5.4-.56-7.79 7.27-2.89 9.49-2.22 38.26-3.38 60-.31 5.92-.45 12 1.61 17.58a14.51 14.51 0 0 0 12.6 9.63c6.13.6 11.79-2 17.82-3.23 4.07-.84 8.28-.39 12.38.26 35.15 5.65 66.81 29.35 102.42 29.36 25.73-.01 45.96-26.9 41.15-40.78z" fill="url(#linear-gradient-10)"/><path class="cls-24" d="M2199.5 254.07c4.34 4.28 10.7 3.84 16.27 3.18a1.11 1.11 0 0 0 1.08-1.08 1.08 1.08 0 0 0-1.08-1.08c-4.92.59-10.86 1.28-14.75-2.55a1.08 1.08 0 0 0-1.52 1.53zM2163.68 245.42c1 2.44 3.19 3.81 5.59 4.6a25.63 25.63 0 0 0 8.67 1.07c1.38 0 1.39-2.2 0-2.16a24.79 24.79 0 0 1-7.58-.82c-1.75-.51-3.89-1.43-4.6-3.26a1.11 1.11 0 0 0-1.33-.76 1.1 1.1 0 0 0-.75 1.33z"/><path d="M2044.92 735.74c-3-5.35-7.63-9.93-9.24-15.86h-32.5a106.34 106.34 0 0 1-34.34 4.9c-5.38-.12-10.78-.65-16.14-.18-6 .52-11.81 2.27-17.57 4-3.23 1-6.57 2-9.13 4.22s-4.15 5.92-2.86 9a12.46 12.46 0 0 0 2.59 3.55q6 6.36 12 12.73c4.22 4.5 8.47 9 13.47 12.65a49.28 49.28 0 0 0 44 6.62c14.82-5 26.59-17 41.57-21.53 2.66-.8 5.49-1.42 7.61-3.2 4.62-3.9 3.62-11.56.54-16.9z" fill="url(#linear-gradient-11)"/><path d="M2290.76 650.46c-16.57-14.42-41.88-9-63-2.81l-117.12 34.54c-29.52 8.7-59.17 17.46-87 30.55-6.92 3.25-13.8 4.71-17.33 11.49s.18 17.44 5.14 22 17.07 7.62 32.85 6.44 106.72-8 167.09-14c16.81-1.69 33.84-3.48 49.63-9.48s30.48-16.78 37.57-32.12 4.91-35.51-7.83-46.61z" fill="url(#linear-gradient-12)"/></svg>