<svg xmlns="http://www.w3.org/2000/svg" xmlns:xlink="http://www.w3.org/1999/xlink" viewBox="0 0 4377.51 1511.46"><defs><style>.cls-8{fill:none;stroke:#323387;stroke-miterlimit:10;stroke-width:3px}.cls-9{opacity:.9}.cls-10{opacity:.48}.cls-11{opacity:.65}</style><linearGradient id="linear-gradient" x1="3207.44" y1="500.71" x2="3228.04" y2="500.71" gradientUnits="userSpaceOnUse"><stop offset="0" stop-color="#fff"/><stop offset="1" stop-color="#edfdfc"/></linearGradient><linearGradient id="linear-gradient-2" x1="3207.44" y1="549.04" x2="3228.04" y2="549.04" xlink:href="#linear-gradient"/><linearGradient id="linear-gradient-3" x1="3207.44" y1="597.37" x2="3228.04" y2="597.37" xlink:href="#linear-gradient"/><linearGradient id="linear-gradient-4" x1="3207.44" y1="645.7" x2="3228.04" y2="645.7" xlink:href="#linear-gradient"/><linearGradient id="linear-gradient-5" x1="3207.44" y1="694.03" x2="3228.04" y2="694.03" xlink:href="#linear-gradient"/></defs><g style="isolation:isolate"><g id="Capa_1" data-name="Capa 1"><path fill="#fff" d="M0 86.23h4377.51v1425.23H0z"/><path d="M3217.74 511a10.3 10.3 0 1 1 10.3-10.3 10.3 10.3 0 0 1-10.3 10.3z" style="mix-blend-mode:screen" opacity=".8" fill="url(#linear-gradient)"/><path d="M3217.74 559.34A10.3 10.3 0 1 1 3228 549a10.3 10.3 0 0 1-10.26 10.34z" style="mix-blend-mode:screen" fill="url(#linear-gradient-2)" opacity=".3"/><path d="M3217.74 607.67a10.3 10.3 0 1 1 10.3-10.3 10.3 10.3 0 0 1-10.3 10.3z" style="mix-blend-mode:screen" fill="url(#linear-gradient-3)" opacity=".3"/><path d="M3217.74 656a10.3 10.3 0 1 1 10.3-10.3 10.3 10.3 0 0 1-10.3 10.3z" style="mix-blend-mode:screen" fill="url(#linear-gradient-4)" opacity=".3"/><path d="M3217.74 704.33A10.3 10.3 0 1 1 3228 694a10.3 10.3 0 0 1-10.26 10.33z" style="mix-blend-mode:screen" fill="url(#linear-gradient-5)" opacity=".3"/><path class="cls-8" d="M2863.23 340.31c-13.43 0-24.17-7.74-28-20.35a31.38 31.38 0 0 1 10.07-33.47 36.9 36.9 0 0 1 6-12.58c7.18-10.16 22-17.61 39.51-13.14.19-.63.38-1.25.58-1.86l.06-.2a115.37 115.37 0 0 1 92.88-79c1-.16 2.06-.3 3.08-.43.71-.09 1.5-.17 2.28-.25s1.9-.2 2.88-.28c2-.15 3.93-.22 5.92-.27.94 0 1.74-.05 2.56-.05h.42c1.28 0 2.53 0 3.79.07a114.79 114.79 0 0 1 79.21 35.11c.71.73 1.41 1.48 2.11 2.24l.71-.47.36-.23c14.47-8.5 29.8-12.41 45.52-11.64h.17a76.11 76.11 0 0 1 10.55 1.2c29 5.25 52.32 26.08 59.44 53.12a9.85 9.85 0 0 1 .27 1.07c.11.61.21 1.23.31 1.84l.06.35a69 69 0 0 1-65 79.19h-275.74zM3086.25 358.06h78.81M3080.49 367.95h78.82M3074.74 377.84h78.82M3967.13 1398c-13.43 0-24.17-7.74-28-20.36a31.36 31.36 0 0 1 10.07-33.46 36.92 36.92 0 0 1 6.05-12.58c7.17-10.16 22-17.61 39.5-13.14.19-.63.38-1.25.58-1.87l.06-.2a115.42 115.42 0 0 1 92.89-79c1-.15 2-.3 3.07-.42.71-.1 1.5-.18 2.28-.26s1.9-.19 2.88-.27c2-.15 3.93-.23 5.92-.28h2.98c1.28 0 2.54 0 3.79.08a114.79 114.79 0 0 1 79.21 35.11c.71.73 1.41 1.47 2.11 2.23l.71-.47.36-.23c14.47-8.49 29.8-12.4 45.52-11.63h.17a79.1 79.1 0 0 1 10.55 1.2c29 5.26 52.32 26.09 59.44 53.12a7.75 7.75 0 0 1 .27 1.08c.11.61.21 1.22.31 1.84l.06.34A69 69 0 0 1 4243 1398h-275.87zM4190.15 1415.78h78.82M4184.39 1425.67h78.82M4178.64 1435.56h78.82M2753.62 1335.86c-10.85 0-19.52-6.25-22.58-16.44a25.32 25.32 0 0 1 8.13-27 30 30 0 0 1 4.88-10.16c5.8-8.2 17.76-14.22 31.9-10.61.15-.5.31-1 .47-1.5a.75.75 0 0 1 0-.16 93.13 93.13 0 0 1 75-63.78c.83-.12 1.66-.24 2.48-.34.58-.08 1.21-.14 1.85-.21s1.53-.16 2.32-.22c1.59-.12 3.17-.18 4.78-.22h2.4c1 0 2.05 0 3.07.06a92.62 92.62 0 0 1 63.95 28.35c.57.58 1.14 1.19 1.7 1.8l.57-.38.3-.18a65.37 65.37 0 0 1 36.75-9.4h.14a61.74 61.74 0 0 1 8.52 1c23.42 4.24 42.23 21.07 48 42.89a6.48 6.48 0 0 1 .21.87c.09.49.18 1 .25 1.48 0 .1 0 .19.05.28a55.72 55.72 0 0 1-52.45 63.94h-222.69zM2933.68 1350.19h63.64M2929.03 1358.17h63.64M2924.39 1366.15h63.64"/><g class="cls-9"><path class="cls-8" d="M1136.47 810.69c-11.18 0-20.11-6.44-23.26-16.93a26.09 26.09 0 0 1 8.37-27.85 30.93 30.93 0 0 1 5-10.47c6-8.45 18.3-14.65 32.87-10.93.16-.52.32-1 .49-1.55a1.09 1.09 0 0 1 0-.17 96 96 0 0 1 77.29-65.72c.86-.13 1.71-.25 2.56-.35.59-.08 1.24-.15 1.9-.21s1.58-.17 2.39-.23a89.5 89.5 0 0 1 4.92-.23h2.49q1.59 0 3.15.06a95.47 95.47 0 0 1 65.9 29.21c.59.61 1.18 1.23 1.76 1.86l.59-.39.31-.19a67.32 67.32 0 0 1 37.87-9.68h.14a64 64 0 0 1 8.78 1c24.14 4.37 43.52 21.71 49.46 44.2a6.77 6.77 0 0 1 .21.89c.1.51.18 1 .26 1.53a2.93 2.93 0 0 1 0 .29 57.43 57.43 0 0 1-54 65.89h-229.45zM1322.03 825.46h65.58M1317.24 833.69h65.58M1312.45 841.92h65.58"/></g><g class="cls-9"><path class="cls-8" d="M277 894.64c-11.18 0-20.12-6.44-23.27-16.93a26.1 26.1 0 0 1 8.38-27.85 30.84 30.84 0 0 1 5-10.47c6-8.45 18.3-14.65 32.87-10.93l.48-1.55a1.09 1.09 0 0 0 .05-.17A96 96 0 0 1 377.85 761c.85-.13 1.7-.25 2.55-.35.59-.08 1.25-.15 1.9-.22s1.58-.16 2.4-.22a89.5 89.5 0 0 1 4.92-.23h2.48c1.07 0 2.11 0 3.16.06a95.47 95.47 0 0 1 65.9 29.21c.59.61 1.18 1.23 1.76 1.86l.59-.39.3-.19a67.37 67.37 0 0 1 37.88-9.68h.14a64.18 64.18 0 0 1 8.78 1c24.13 4.37 43.52 21.7 49.45 44.2a5.51 5.51 0 0 1 .22.89c.09.51.18 1 .26 1.53a2.93 2.93 0 0 1 .05.29 57.41 57.41 0 0 1-54 65.89H277zM462.58 909.41h65.57M457.79 917.64h65.58M453 925.87h65.58"/></g><g class="cls-10"><path class="cls-8" d="M1290 330.24a12.67 12.67 0 0 1-12.61-9.18A14.13 14.13 0 0 1 1282 306a16.55 16.55 0 0 1 2.73-5.67c3.23-4.58 9.91-7.94 17.81-5.93.08-.28.17-.56.26-.84v-.09a52 52 0 0 1 41.87-35.6l1.39-.2 1-.11c.41 0 .85-.09 1.3-.12.88-.07 1.77-.11 2.66-.13H1354.08a51.67 51.67 0 0 1 35.7 15.82c.32.33.64.67 1 1l.32-.21.17-.11a36.45 36.45 0 0 1 20.52-5.24h.07a34.36 34.36 0 0 1 4.76.54c13.07 2.37 23.58 11.76 26.79 23.95a3.37 3.37 0 0 1 .12.48c0 .27.1.55.14.83v.15a31.12 31.12 0 0 1-29.28 35.7H1290zM1390.56 338.24h35.52M1387.96 342.7h35.53M1385.37 347.15h35.53"/></g><g class="cls-10"><path class="cls-8" d="M1433.62 1214.18A12.67 12.67 0 0 1 1421 1205a14.15 14.15 0 0 1 4.54-15.09 16.64 16.64 0 0 1 2.73-5.67c3.23-4.58 9.91-7.94 17.8-5.92l.27-.84a.29.29 0 0 1 0-.09 52 52 0 0 1 41.87-35.61c.47-.07.93-.14 1.39-.19l1-.12 1.3-.12c.88-.07 1.77-.1 2.66-.12H1497.62a51.76 51.76 0 0 1 35.7 15.82c.32.33.64.67.95 1l.32-.21a1 1 0 0 1 .17-.1 36.45 36.45 0 0 1 20.51-5.25h.08a36.15 36.15 0 0 1 4.76.54c13.07 2.37 23.58 11.76 26.79 24a4.21 4.21 0 0 1 .12.48c.05.28.1.56.14.83v.16a31.12 31.12 0 0 1-29.28 35.7h-124.26zM1534.15 1222.18h35.52M1531.55 1226.64h35.53M1528.96 1231.1h35.53"/></g><g class="cls-9"><path class="cls-8" d="M3455.63 810.69c-11.18 0-20.12-6.44-23.27-16.93a26.11 26.11 0 0 1 8.38-27.85 30.93 30.93 0 0 1 5-10.47c6-8.45 18.3-14.65 32.87-10.93l.48-1.55a1.09 1.09 0 0 0 .05-.17 96 96 0 0 1 77.29-65.72c.86-.13 1.7-.25 2.55-.35.59-.08 1.25-.15 1.9-.21s1.58-.17 2.4-.23a89.5 89.5 0 0 1 4.92-.23h2.48c1.07 0 2.11 0 3.16.06a95.47 95.47 0 0 1 65.9 29.21c.59.61 1.18 1.23 1.76 1.86l.59-.39.3-.19a67.37 67.37 0 0 1 37.88-9.68h.14a64.18 64.18 0 0 1 8.78 1c24.14 4.37 43.52 21.71 49.45 44.2a5.51 5.51 0 0 1 .22.89c.09.51.18 1 .26 1.53a2.93 2.93 0 0 1 0 .29 57.41 57.41 0 0 1-54 65.89h-229.49zM3641.19 825.46h65.58M3636.4 833.69h65.58M3631.61 841.92h65.58"/></g><g class="cls-10"><path class="cls-8" d="M3609.19 330.24a12.67 12.67 0 0 1-12.61-9.18 14.13 14.13 0 0 1 4.54-15.08 16.55 16.55 0 0 1 2.73-5.67c3.23-4.58 9.91-7.94 17.8-5.93l.27-.84a.29.29 0 0 1 0-.09 52 52 0 0 1 41.87-35.6l1.39-.2 1-.11c.41 0 .85-.09 1.3-.12.88-.07 1.77-.11 2.66-.13h3.05a51.7 51.7 0 0 1 35.81 15.84c.32.33.64.67 1 1l.32-.21.16-.11a36.49 36.49 0 0 1 20.52-5.24h.08a34.53 34.53 0 0 1 4.76.54c13.07 2.37 23.58 11.76 26.79 23.95a3.37 3.37 0 0 1 .12.48c0 .27.09.55.14.83v.15a31.12 31.12 0 0 1-29.28 35.7h-124.42zM3709.71 338.24h35.53M3707.12 342.7h35.53M3704.53 347.15h35.52"/></g><g class="cls-10"><path class="cls-8" d="M3566 1269.69a12.65 12.65 0 0 1-12.6-9.18 14.11 14.11 0 0 1 4.53-15.08 16.74 16.74 0 0 1 2.73-5.67c3.23-4.58 9.91-7.94 17.81-5.93.08-.28.17-.56.26-.84v-.09a52 52 0 0 1 41.87-35.6l1.39-.2 1-.11c.41 0 .85-.09 1.3-.12.88-.07 1.77-.11 2.66-.13H3630.01a51.67 51.67 0 0 1 35.7 15.82c.32.33.64.67.95 1l.32-.21.17-.11a36.45 36.45 0 0 1 20.52-5.24h.07a34.36 34.36 0 0 1 4.76.54c13.08 2.37 23.58 11.76 26.79 24a3.37 3.37 0 0 1 .12.48c.05.27.1.55.14.83v.15a31.1 31.1 0 0 1-29.28 35.7H3566zM3666.54 1277.69h35.52M3663.94 1282.15h35.53M3661.35 1286.6h35.53"/></g><g class="cls-11"><path class="cls-8" d="M2950.67 692.17a12.65 12.65 0 0 1-12.6-9.17 14.12 14.12 0 0 1 4.53-15.09 16.83 16.83 0 0 1 2.73-5.67c3.23-4.58 9.91-7.94 17.81-5.92.08-.28.17-.56.26-.84v-.09a52 52 0 0 1 41.87-35.61l1.39-.19 1-.12 1.3-.12c.88-.07 1.77-.1 2.66-.12H3014.68a51.76 51.76 0 0 1 35.7 15.82c.32.33.64.67 1 1l.32-.21.17-.1a36.46 36.46 0 0 1 20.52-5.25h.07a36 36 0 0 1 4.76.54c13.08 2.37 23.58 11.76 26.79 24a4.21 4.21 0 0 1 .12.48c0 .28.1.56.14.83v.16a31.1 31.1 0 0 1-29.28 35.7h-124.32zM3051.2 700.17h35.52M3048.6 704.63h35.53M3046.01 709.09h35.53"/></g><g class="cls-11"><path class="cls-8" d="M3951 587.37a12.67 12.67 0 0 1-12.61-9.18 14.13 14.13 0 0 1 4.54-15.08 16.55 16.55 0 0 1 2.73-5.67c3.23-4.58 9.91-7.94 17.8-5.93l.27-.84a.29.29 0 0 1 0-.09 52 52 0 0 1 41.87-35.6c.47-.07.93-.14 1.39-.19s.67-.08 1-.12.85-.09 1.3-.12c.88-.07 1.77-.1 2.66-.13H4015.01a51.67 51.67 0 0 1 35.7 15.82c.32.33.64.67.95 1l.32-.21.16-.11a36.49 36.49 0 0 1 20.52-5.24h.08a36.15 36.15 0 0 1 4.76.54c13.07 2.37 23.58 11.76 26.79 24a3.74 3.74 0 0 1 .12.48c.05.28.1.55.14.83v.15a31.12 31.12 0 0 1-29.28 35.7H3951zM4051.56 595.37h35.52M4048.96 599.83h35.53M4046.37 604.28h35.53"/></g><path class="cls-8" d="M630.18 340.31c-13.43 0-24.17-7.74-28-20.35a31.38 31.38 0 0 1 10.07-33.47 36.92 36.92 0 0 1 6.05-12.58c7.17-10.16 22-17.61 39.5-13.14.19-.63.38-1.25.58-1.86l.06-.2a115.37 115.37 0 0 1 92.89-79c1-.16 2-.3 3.07-.43.71-.09 1.5-.17 2.28-.25s1.9-.2 2.88-.28c2-.15 3.93-.22 5.92-.27.94 0 1.74-.05 2.56-.05h.42c1.28 0 2.54 0 3.79.07a114.79 114.79 0 0 1 79.21 35.11c.71.73 1.41 1.48 2.11 2.24l.71-.47.36-.23c14.47-8.5 29.8-12.41 45.52-11.64h.17a75.94 75.94 0 0 1 10.55 1.2c29 5.25 52.32 26.08 59.44 53.12a8 8 0 0 1 .27 1.07c.11.61.21 1.23.31 1.84l.06.35a69 69 0 0 1-65 79.19H630.18zM853.2 358.06h78.81M847.44 367.95h78.82M841.69 377.84h78.82M520.57 1335.86c-10.85 0-19.52-6.25-22.58-16.44a25.32 25.32 0 0 1 8.13-27 30 30 0 0 1 4.88-10.16c5.8-8.2 17.76-14.22 31.9-10.61.15-.5.31-1 .47-1.5a.75.75 0 0 1 0-.16 93.13 93.13 0 0 1 75-63.78c.83-.12 1.66-.24 2.48-.34.58-.08 1.21-.14 1.85-.21s1.53-.16 2.32-.22c1.59-.12 3.18-.18 4.78-.22H632.21c1 0 2 0 3.06.06a92.62 92.62 0 0 1 64 28.35c.57.58 1.14 1.19 1.7 1.8l.57-.38.3-.18a65.37 65.37 0 0 1 36.75-9.4h.14a61.74 61.74 0 0 1 8.52 1c23.42 4.24 42.24 21.07 48 42.89a6.48 6.48 0 0 1 .21.87c.09.49.18 1 .25 1.48v.28a55.72 55.72 0 0 1-52.45 63.94H520.57zM700.63 1350.19h63.64M695.99 1358.17h63.63M691.34 1366.15h63.64"/><g class="cls-11"><path class="cls-8" d="M717.62 692.17A12.65 12.65 0 0 1 705 683a14.11 14.11 0 0 1 4.54-15.09 16.62 16.62 0 0 1 2.72-5.67c3.23-4.58 9.91-7.94 17.81-5.92.08-.28.17-.56.26-.84v-.09a52 52 0 0 1 41.86-35.61l1.39-.19 1-.12 1.3-.12c.89-.07 1.77-.1 2.66-.12h3.17a51.76 51.76 0 0 1 35.7 15.82c.32.33.64.67 1 1l.32-.21.17-.1a36.46 36.46 0 0 1 20.52-5.25h.07a36 36 0 0 1 4.76.54c13.08 2.37 23.58 11.76 26.79 24a4.21 4.21 0 0 1 .12.48c0 .28.1.56.14.83v.16a31.1 31.1 0 0 1-29.3 35.67H717.62zM818.15 700.17h35.53M815.55 704.63h35.53M812.96 709.09h35.53"/></g></g></g></svg>