<svg xmlns="http://www.w3.org/2000/svg" viewBox="0 0 2210.22 1502.64"><defs><style>.a{fill:#323387}.b{fill:#1e120d}.c{fill:#2c4892}.d{fill:#fff}</style></defs><title>Untitled-4</title><path class="a" d="M378.76 762.71h52.47c21.82-39.64 55.1-71.33 61.45-77.38 26.81-25.53 41.85-30.16 53.15-37.24A93.16 93.16.0 0 0 496.18 632c-1 0-2.05-.06-3.08-.06h-.35-2.08c-1.93.05-3.42.12-4.81.23-.8.06-1.6.15-2.34.22s-1.28.13-1.85.21c-.85.1-1.68.22-2.52.35a93.86 93.86.0 0 0-75.5 64l-.12.39c-.16.5-.32 1-.47 1.52l-.42 1.38-1.39-.36a33.59 33.59.0 0 0-8.28-1.08 27.92 27.92.0 0 0-22.78 11.35 28.93 28.93.0 0 0-4.77 9.92l-.13.48-.38.31A24.53 24.53.0 0 0 357.08 747C360 756.67 368.3 762.71 378.76 762.71z"/><path class="a" d="M1869.07 341.14h123.4a29.39 29.39.0 0 0 27.75-33.73v-.11c0-.31-.09-.58-.14-.84a2.46 2.46.0 0 0-.07-.29c-3.06-11.61-13-20.52-25.46-22.77a32.25 32.25.0 0 0-4.52-.51 34.85 34.85.0 0 0-19.64 5l-1.47 1-.87-.95c-.3-.33-.61-.65-.92-1a49.85 49.85.0 0 0-34.44-15.27c-.56.0-1.1.0-1.65.0h-.19-1.11c-1 0-1.83.07-2.57.12l-1.25.12-1 .11-1.36.19a50.13 50.13.0 0 0-40.38 34.35c-.12.35-.2.62-.28.9l-.42 1.37-1.39-.35a17.3 17.3.0 0 0-4.31-.56 14.45 14.45.0 0 0-11.79 5.85 15.21 15.21.0 0 0-2.48 5.16l-.12.47-.39.31a12.62 12.62.0 0 0-4 13.39A11.14 11.14.0 0 0 1869.07 341.14z"/><path class="a" d="M1 1501.64H2209.22V1H1zM1999.09 360.94H1963.8v-3h35.29zm2.58-4.42h-35.3v-3h35.3zM493.74 491.77l3.92-23.3 4 23.64L520 496l-18.73 4-3.92 23.3-4-23.64L475 495.74z"/><path class="b" d="M0 0V1502.64H2210.22V0zM2209.22 1501.64H1V1H2209.22z"/><path class="c" d="M431.23 762.7H606.75A55.55 55.55.0 0 0 659 699v-.24c-.09-.55-.18-1.05-.26-1.54a5.53 5.53.0 0 0-.18-.7c-5.76-21.85-24.58-38.65-48-42.89a63.36 63.36.0 0 0-8.52-1h-.15A65.42 65.42.0 0 0 565.1 662l-.24.15-1.64 1.1-.87-.95c-.57-.61-1.14-1.22-1.72-1.81a94.37 94.37.0 0 0-14.8-12.45c-11.3 7.08-26.34 11.71-53.15 37.24C486.33 691.37 453.05 723.06 431.23 762.7z"/><path class="c" d="M563.7 659.39A68.43 68.43.0 0 1 602 649.63h.14a66.22 66.22.0 0 1 8.92 1c24.53 4.44 44.28 22.11 50.31 45a8.08 8.08.0 0 1 .25 1c.09.53.18 1.05.26 1.56l.05.28a58.54 58.54.0 0 1-55.11 67.2H429.61c-13.72 25.88-22.26 54.89-15.24 82.26 11.91 46.44 57.17 43.64 69.28 84.33 22.29 74.92-115.66 136.3-108.43 195.78 15.09 124.2 150.61 226.52 772.69 226.52 371.28.0 745.56-18.7 772.41-205.44 9-62.3-89.87-115.89-66.26-201.8 20.07-73.06 110.47-65.7 129.51-150.59 18.2-81.19-18.33-152-51.21-189.75-36.58-42-56.55-29.34-84.33-66.26-54-71.72-.59-148.83-39.15-210.83-16.07-25.83-54.7-59.67-213.85-63.25-258.48-5.82-291.61 80.41-503 78.31-145.54-1.45-194.28-43-373.48-24.1-155.92 16.43-181.81 54.48-189.75 72.29C496.36 466 604.64 558.37 562 631.1c-4.33 7.39-8.56 11.73-13.41 15.18a96.94 96.94.0 0 1 14.24 12.16C563.09 658.75 563.39 659.07 563.7 659.39zm55 137.34H553.6v-3h65.15zm4.76-8.17H558.35v-3h65.16zm4.75-8.18H563.11v-3h65.15zm1223.91 63.7 3.91-23.3 4 23.64 18.38 3.92-18.72 4-3.92 23.3-4-23.64-18.39-3.92z"/><path class="d" d="M378.76 765.71h228.1A58.54 58.54.0 0 0 662 698.49l-.05-.28c-.08-.51-.17-1-.26-1.56a8.08 8.08.0 0 0-.25-1c-6-22.89-25.78-40.56-50.31-45a66.22 66.22.0 0 0-8.92-1H602a68.43 68.43.0 0 0-38.34 9.76c-.31-.32-.61-.64-.92-.95A96.43 96.43.0 0 0 496.29 629c-1.06.0-2.11-.06-3.19-.06h-.35c-.69.0-1.36.0-2.16.0-2 0-3.52.12-5 .23l-2.42.23c-.66.06-1.33.13-1.92.21l-2.58.36a96.91 96.91.0 0 0-78 66.32l-.12.38c-15.67-3.41-27.44 4.11-32.84 11.75a31.84 31.84.0 0 0-5.11 10.44 27.58 27.58.0 0 0-8.44 28.95C357.52 758.85 366.93 765.71 378.76 765.71zm-13.85-44.82.38-.31.13-.48a28.93 28.93.0 0 1 4.77-9.92A27.92 27.92.0 0 1 393 698.83a33.59 33.59.0 0 1 8.28 1.08l1.39.36.42-1.38c.15-.51.31-1 .47-1.52l.12-.39a93.86 93.86.0 0 1 75.5-64c.84-.13 1.67-.25 2.52-.35.57-.08 1.21-.14 1.85-.21s1.54-.16 2.34-.22c1.39-.11 2.88-.18 4.81-.23h2.08.35c1 0 2 0 3.08.06a93.16 93.16.0 0 1 49.65 16.12 94.37 94.37.0 0 1 14.8 12.45c.58.59 1.15 1.2 1.72 1.81l.87.95 1.64-1.1.24-.15a65.42 65.42.0 0 1 36.79-9.41H602a63.36 63.36.0 0 1 8.52 1c23.39 4.24 42.21 21 48 42.89a5.53 5.53.0 0 1 .18.7c.08.49.17 1 .26 1.54v.24a55.55 55.55.0 0 1-52.26 63.73h-228c-10.46.0-18.76-6-21.68-15.76A24.53 24.53.0 0 1 364.91 720.89z"/><path class="d" d="M563.11 777.38h65.15v3H563.11z"/><path class="d" d="M558.35 785.56h65.15v3H558.35z"/><path class="d" d="M553.6 793.73h65.15v3H553.6z"/><path class="d" d="M1869.07 344.14h123.6a32.41 32.41.0 0 0 30.52-37.19v-.16c0-.29-.09-.57-.15-.86a4.5 4.5.0 0 0-.14-.6c-3.34-12.66-14.25-22.43-27.8-24.88a35.1 35.1.0 0 0-5-.56 37.54 37.54.0 0 0-20.68 5.11l-.12-.13a52.82 52.82.0 0 0-36.49-16.18c-.59.0-1.17.0-1.76.0h-.19-1.19c-1.09.0-1.93.07-2.72.13l-1.32.13c-.37.0-.74.07-1.06.12-.47.0-.94.12-1.41.19a53.19 53.19.0 0 0-42.69 36 17.68 17.68.0 0 0-17.88 6.75 18.09 18.09.0 0 0-2.82 5.68 15.63 15.63.0 0 0-4.62 16.27A14 14 0 0 0 1869.07 344.14zM1862 319.7l.39-.31.12-.47a15.21 15.21.0 0 1 2.48-5.16 14.45 14.45.0 0 1 11.79-5.85 17.3 17.3.0 0 1 4.31.56l1.39.35.42-1.37c.08-.28.16-.55.28-.9a50.13 50.13.0 0 1 40.38-34.35l1.36-.19 1-.11 1.25-.12c.74.0 1.53-.09 2.57-.12h1.11.19c.55.0 1.09.0 1.65.0A49.85 49.85.0 0 1 1967.11 287c.31.31.62.63.92 1l.87.95 1.47-1a34.85 34.85.0 0 1 19.64-5 32.25 32.25.0 0 1 4.52.51c12.41 2.25 22.4 11.16 25.46 22.77a2.46 2.46.0 0 1 .07.29c0 .26.09.53.14.84v.11a29.39 29.39.0 0 1-27.75 33.73h-123.4a11.14 11.14.0 0 1-11.08-8.05A12.62 12.62.0 0 1 1862 319.7z"/><path class="d" d="M1968.95 349.09h35.3v3H1968.95z"/><path class="d" d="M1966.37 353.52h35.3v3H1966.37z"/><path class="d" d="M1963.8 357.94h35.3v3H1963.8z"/><path class="d" d="M497.37 523.3 501.29 5e2 520.01 496.03 501.63 492.11 497.66 468.47 493.74 491.77 475.01 495.74 493.4 499.66 497.37 523.3z"/><path class="d" d="M1855.8 875.61 1859.72 852.31 1878.44 848.34 1860.06 844.42 1856.08 820.78 1852.17 844.08 1833.44 848.05 1851.83 851.97 1855.8 875.61z"/></svg>