<svg id="Capa_1" data-name="Capa 1" xmlns="http://www.w3.org/2000/svg" xmlns:xlink="http://www.w3.org/1999/xlink" viewBox="0 0 595.28 194.98"><defs><style>.cls-1{fill:none;}.cls-2{fill:#1e120d;}.cls-3{clip-path:url(#clip-path);}.cls-4{fill:url(#linear-gradient);}.cls-5{fill:url(#linear-gradient-2);}.cls-6{fill:url(#linear-gradient-3);}.cls-7{fill:url(#linear-gradient-4);}.cls-8{fill:#f9f9f9;}.cls-9{font-size:23.46px;fill:#fdfefe;font-family:Roboto-Bold, Roboto;font-weight:700;letter-spacing:0.07em;}</style><clipPath id="clip-path"><path class="cls-1" d="M128.39,85.82,101.51,70.31,49.67,40.37c-2.88-1.66-5.74-.65-5.74,2.82v122c0,2.6,2,3.72,4.55,2.28l53-30.63,26.88-15.51,25.83-14.92c3-1.75,2.74-4.15.19-5.53S128.39,85.82,128.39,85.82Z"/></clipPath><linearGradient id="linear-gradient" x1="77.22" y1="37.54" x2="77.22" y2="169.58" gradientUnits="userSpaceOnUse"><stop offset="0" stop-color="#307aaf"/><stop offset="0.23" stop-color="#4b90b3"/><stop offset="0.75" stop-color="#82bcbc"/><stop offset="1" stop-color="#98cdbf"/></linearGradient><linearGradient id="linear-gradient-2" x1="43.93" y1="70.31" x2="128.39" y2="70.31" gradientUnits="userSpaceOnUse"><stop offset="0" stop-color="#67baaa"/><stop offset="1" stop-color="#e7ea9b"/></linearGradient><linearGradient id="linear-gradient-3" x1="86.16" y1="103.56" x2="86.16" y2="170.06" gradientUnits="userSpaceOnUse"><stop offset="0" stop-color="#e34736"/><stop offset="0.19" stop-color="#d1484a"/><stop offset="0.73" stop-color="#a04c81"/><stop offset="1" stop-color="#8d4e97"/></linearGradient><linearGradient id="linear-gradient-4" x1="134.81" y1="85.82" x2="134.81" y2="121.29" gradientUnits="userSpaceOnUse"><stop offset="0" stop-color="#ed8e7b"/><stop offset="0.62" stop-color="#f6b978"/><stop offset="1" stop-color="#facf76"/></linearGradient></defs><title>GOOGLE PLAY</title><path class="cls-2" d="M595.28,168.63A26.35,26.35,0,0,1,568.93,195H25.57A26.35,26.35,0,0,1-.78,168.63V26.35A26.35,26.35,0,0,1,25.57,0H568.93a26.35,26.35,0,0,1,26.35,26.35Z"/><g id="PLAY"><g class="cls-3"><polygon class="cls-4" points="43.93 37.54 43.93 103.56 43.93 169.58 110.51 103.56 43.93 37.54"/><polygon class="cls-5" points="128.39 85.83 101.52 70.31 43.93 37.06 43.93 37.54 110.51 103.56 128.39 85.83"/><polygon class="cls-6" points="43.93 169.58 43.93 170.06 101.52 136.8 128.39 121.29 110.51 103.56 43.93 169.58"/><polygon class="cls-7" points="128.39 85.83 110.51 103.56 128.39 121.29 159.1 103.56 128.39 85.83"/></g></g><path class="cls-8" d="M463.1,129.37a16.51,16.51,0,0,1-6.85-1.39,12.85,12.85,0,0,1-5.2-4.25h-.42a51.54,51.54,0,0,1,.42,6.37v15.8h-5.82V90.27H450l.81,5.25h.28A13.41,13.41,0,0,1,456.27,91a15.76,15.76,0,0,1,6.83-1.4q7.63,0,11.79,5.22T479,109.43q0,9.46-4.22,14.7T463.1,129.37Zm-.84-34.86c-3.93,0-6.76,1.08-8.52,3.25s-2.65,5.63-2.69,10.38v1.29q0,8.1,2.69,11.58t8.66,3.49a9,9,0,0,0,7.8-4q2.82-4,2.82-11.11t-2.82-11A9.27,9.27,0,0,0,462.26,94.51Z"/><path class="cls-8" d="M492.51,128.67h-5.82V74.15h5.82Z"/><path class="cls-8" d="M525.94,128.67l-1.15-5.47h-.28a16.17,16.17,0,0,1-5.73,4.89,17.52,17.52,0,0,1-7.13,1.28q-5.72,0-8.95-3t-3.24-8.37q0-11.62,18.6-12.19l6.52-.21v-2.38c0-3-.65-5.24-2-6.68s-3.37-2.15-6.22-2.15a25.35,25.35,0,0,0-10.86,2.94l-1.79-4.45A27.74,27.74,0,0,1,510,90.51a27.18,27.18,0,0,1,6.78-.87q6.87,0,10.18,3t3.31,9.78v26.21Zm-13.13-4.1c3.61,0,6.46-1,8.53-3s3.1-4.76,3.1-8.34v-3.47l-5.82.25q-6.93.24-10,2.15a6.5,6.5,0,0,0-3.07,5.94,6,6,0,0,0,1.91,4.8A7.93,7.93,0,0,0,512.81,124.57Z"/><path class="cls-8" d="M533.63,90.27h6.23l8.41,21.9A83.85,83.85,0,0,1,551.71,123H552q.45-1.78,1.91-6.11t9.51-26.61h6.24L553.14,134q-2.45,6.48-5.73,9.2a12.16,12.16,0,0,1-8,2.71,23.22,23.22,0,0,1-5.25-.59v-4.66a20.26,20.26,0,0,0,4.31.42q6,0,8.55-6.73l2.13-5.46Z"/><path class="cls-8" d="M355.36,93.84c1.85,1.52,5.7,4.73,5.7,10.84,0,5.94-3.37,8.76-6.75,11.4-1,1-2.24,2.17-2.24,3.94a4.38,4.38,0,0,0,2.09,3.45l2.89,2.25c3.53,3,6.74,5.7,6.74,11.25,0,7.55-7.31,15.18-21.12,15.18-11.65,0-17.27-5.54-17.27-11.49,0-2.89,1.44-7,6.19-9.8,5-3.05,11.73-3.45,15.34-3.7-1.13-1.44-2.41-3-2.41-5.45a7.26,7.26,0,0,1,.8-3.14c-.89.08-1.77.16-2.57.16-8.51,0-13.33-6.34-13.33-12.6a14.46,14.46,0,0,1,5.14-10.77c4.58-3.77,10-4.42,14.38-4.42h16.54l-5.14,2.9Zm-5.7,35.66a11.68,11.68,0,0,0-1.85-.09,32.12,32.12,0,0,0-8.43,1.3c-1.77.63-6.91,2.56-6.91,8.27s5.54,9.8,14.14,9.8c7.7,0,11.81-3.7,11.81-8.68C358.42,136,355.76,133.84,349.66,129.5ZM352,114.24a8.15,8.15,0,0,0,2-5.87c0-5.78-3.45-14.77-10.11-14.77a7.52,7.52,0,0,0-5.63,2.65,9.28,9.28,0,0,0-1.77,5.94c0,5.38,3.14,14.3,10,14.3A8.26,8.26,0,0,0,352,114.24Z"/><path class="cls-8" d="M304.8,128.21c-12.75,0-19.57-9.94-19.57-18.92,0-10.51,8.58-19.49,20.78-19.49a18.75,18.75,0,0,1,19.16,18.93C325.17,118.18,317.87,128.21,304.8,128.21Zm10-6.49c1.93-2.57,2.41-5.78,2.41-8.91,0-7-3.37-20.52-13.31-20.52A11.16,11.16,0,0,0,296.7,95c-3.12,2.8-3.69,6.33-3.69,9.78,0,7.93,3.93,21,13.64,21A10.25,10.25,0,0,0,314.82,121.72Z"/><path class="cls-8" d="M261.34,128.21c-12.75,0-19.57-9.94-19.57-18.92,0-10.51,8.58-19.49,20.77-19.49a18.74,18.74,0,0,1,19.16,18.93C281.7,118.18,274.41,128.21,261.34,128.21Zm10-6.49c1.92-2.57,2.41-5.78,2.41-8.91,0-7-3.37-20.52-13.32-20.52A11.14,11.14,0,0,0,253.24,95c-3.13,2.8-3.69,6.33-3.69,9.78,0,7.93,3.93,21,13.63,21A10.25,10.25,0,0,0,271.36,121.72Z"/><path class="cls-8" d="M235.64,127l-11.53,2.66a86.1,86.1,0,0,1-13.3,1.36c-22.25,0-30.71-16.36-30.71-29.18,0-15.64,12-30.15,32.57-30.15A46.84,46.84,0,0,1,225,73.34a31.49,31.49,0,0,1,10.64,5L229,84.71l-2.82.64,2-3.22c-2.74-2.66-7.75-7.58-17.26-7.58-12.73,0-22.33,9.68-22.33,23.79,0,15.15,11,29.42,28.54,29.42a24,24,0,0,0,10.24-2v-13l-12.17.64,6.44-3.47h17.1l-2.1,2a1.88,1.88,0,0,0-.81,1.28c-.08.73-.16,3.07-.16,3.88Z"/><path class="cls-8" d="M380.84,124.63c-2.66-.24-3.22-.72-3.22-3.87V75.13c0-.17,0-.35.05-.52.32-2.82,1.13-3.3,3.63-4.75H369.77l-6,2.9h6.16v49.78c0,1.61-.32,1.85-2.18,4.27H382l3-1.77C383.59,124.87,382.22,124.79,380.84,124.63Z"/><path class="cls-8" d="M413.65,125.38c-.88.48-1.76,1-2.64,1.44a18.67,18.67,0,0,1-7.77,1.52,17.11,17.11,0,0,1-10.65-3.13c-5.68-4-8.16-10.89-8.16-16.89,0-12.41,10.08-18.49,18.33-18.49A15.59,15.59,0,0,1,411,92.07a13.28,13.28,0,0,1,5.6,7.92L397.8,107.6l-6.17.48c2,10.17,8.89,16.09,16.5,16.09,4.08,0,7-1.44,9.76-2.8Zm-7.53-23.87c1.52-.56,2.32-1,2.32-2.16,0-3.2-3.6-6.88-7.92-6.88-3.21,0-9.21,2.48-9.21,11.13,0,1.36.16,2.8.24,4.24Z"/><path class="cls-8" d="M421.38,90.38v5.28h-.65V90.38H419v-.55h4.13v.55Z"/><path class="cls-8" d="M428.58,95.66V90.33h0l-1.63,5.33h-.5l-1.64-5.33h0v5.33h-.59V89.83h1l1.49,4.71h0l1.46-4.71h1v5.83Z"/><text class="cls-9" transform="translate(180.1 53.22)">DISPONIBLE EN</text></svg>