<svg xmlns="http://www.w3.org/2000/svg" viewBox="0 0 300 300"><defs><style>.a{fill:#ae615b;}.b{fill:none;}.c{fill:#b3de02;}.d{fill:#cc8500;}.e{fill:#ae946f;}.f{fill:#924a5b;}.g{fill:#ae606f;}.h{fill:#5c7300;}.i{fill:#788500;}.j{fill:#7c8a00;}.k{fill:#808e00;}.l{fill:#687300;}.m{fill:#6c7800;}.n{fill:#707c00;}.o{fill:#748100;}.p{fill:#dfe821;}.q{fill:#e3c734;}.r{fill:#ae7a6f;}</style></defs><title>monedita</title><path class="a" d="M157.51,276.15a59.73,59.73,0,0,0-11.15-26.22c-2.24-3-4.8-5.82-6.34-9.23A3.84,3.84,0,0,0,138.9,239a2.62,2.62,0,0,0-.94-.36,7.16,7.16,0,0,0-5.68,1.17,9.27,9.27,0,0,0-3.33,5.28,22.67,22.67,0,0,0-.48,6.32c.09,2.82.32,5.64.69,8.44l18.69,27.78c1.41,1.12,3.36,1.19,5.16,1.19a5.48,5.48,0,0,0,3.39-.73c1.14-.84,1.46-2.38,1.57-3.79A34.43,34.43,0,0,0,157.51,276.15Z"/><path class="b" d="M196.3,199.72h0l-.91-.64h0Z"/><path class="b" d="M191.19,196.75h0l-.52-.24h0Z"/><path class="b" d="M160.16,200.78l-.6.48h0c.2-.17.4-.32.61-.48Z"/><path class="b" d="M199.18,202.1c-.41-.38-.83-.75-1.25-1.11.42.36.84.73,1.25,1.11Z"/><path class="b" d="M190.43,196.41l-1-.41h0l1,.41Z"/><path class="b" d="M165.59,197.35c-.3.15-.6.3-.89.46h0l.9-.46Z"/><path class="b" d="M168.2,196.2l-.85.35h0l.86-.35Z"/><path class="b" d="M187.66,195.42h0c-.34-.11-.68-.2-1-.29h0Z"/><path class="b" d="M200.31,203.24l-.23-.24.23.24Z"/><path class="b" d="M171.28,195.2c-.45.12-.89.24-1.33.38h0c.44-.14.88-.27,1.33-.38Z"/><path class="b" d="M189.19,195.92h0c-.41-.15-.83-.29-1.25-.42h0Z"/><path class="b" d="M186.21,195h0c-.3-.08-.61-.15-.91-.21h0Z"/><path class="b" d="M172.64,194.87h0l-1,.23h0Z"/><path class="b" d="M178.86,194.16h0c-.47,0-.94,0-1.41.05h0C177.92,194.18,178.39,194.17,178.86,194.16Z"/><path class="b" d="M169.72,195.66h0l-1.07.37h0C169,195.9,169.36,195.78,169.72,195.66Z"/><path class="b" d="M177.43,194.21c-.48,0-1,.07-1.42.11h0c.47,0,1-.09,1.43-.11Z"/><path class="b" d="M183.51,194.48h0c-.44-.07-.9-.12-1.35-.17h0C182.6,194.36,183.06,194.41,183.51,194.48Z"/><path class="b" d="M184.85,194.72h0c-.37-.08-.73-.14-1.1-.2h0C184.12,194.58,184.48,194.64,184.85,194.72Z"/><path class="b" d="M180.28,194.19h0c-.32,0-.65,0-1,0h0C179.63,194.17,180,194.17,180.28,194.19Z"/><path class="b" d="M182,194.3h0q-.62-.06-1.23-.09h0Q181.38,194.24,182,194.3Z"/><path class="b" d="M186.68,185.74l-.51-.1-.86-.14c.56.09,1.12.18,1.68.29Z"/><path class="b" d="M180.4,185.06h-1c.53,0,1.05,0,1.57,0Z"/><path class="b" d="M178.93,185.05h-.5l-.68,0-.54,0,2-.06Z"/><path class="b" d="M184.73,185.41l-.91-.11-.5-.06c.59.06,1.18.13,1.76.22Z"/><path class="b" d="M170.63,186l-.91.23c.42-.11.84-.21,1.27-.3Z"/><path class="b" d="M182.28,185.15l-.43,0-.44,0c.58,0,1.16.07,1.73.12Z"/><path class="b" d="M164.55,188l-.44.19c.37-.16.74-.3,1.11-.45Z"/><path class="b" d="M152.63,195.44l-.06.06.75-.65Z"/><path class="b" d="M158.74,190.88l-.05,0c.51-.31,1-.61,1.54-.9C159.73,190.29,159.23,190.58,158.74,190.88Z"/><path class="b" d="M155.17,205.67c-.13.16-.26.32-.38.49.12-.17.25-.33.38-.49Z"/><path class="b" d="M198.91,190.41l-.45-.25-.76-.45,1.47.86Z"/><path class="b" d="M197.55,189.64l-.54-.29-.83-.42c.49.24,1,.49,1.45.75Z"/><path class="b" d="M154.2,206.93c-.07.08-.13.17-.19.25.06-.08.12-.17.19-.25Z"/><path class="b" d="M195.57,188.64l-.83-.38-.36-.16c.54.23,1.08.47,1.61.73Z"/><path class="b" d="M193.28,187.65l-.55-.21c.45.16.89.34,1.33.53Z"/><path class="b" d="M164.35,198c-.4.22-.79.45-1.18.69h0c.39-.24.78-.47,1.19-.69Z"/><path class="b" d="M188.16,186.05l-.09,0-.4-.09-.46-.1,1.37.32Z"/><path class="b" d="M190.23,186.6l-.6-.17-.49-.13c.45.12.89.24,1.34.38Z"/><path class="b" d="M191.78,187.1l-.63-.21-.33-.11c.55.17,1.09.36,1.63.55Z"/><path class="b" d="M166.86,196.76l-.82.37h0l.82-.38Z"/><path class="b" d="M171.57,245.64h0Z"/><path class="b" d="M162.59,199.06h0l-.65.42h0Z"/><path class="b" d="M159,201.72h0l-.57.5h0C158.64,202.05,158.83,201.88,159,201.72Z"/><path class="b" d="M161.35,199.89h0l-.62.44h0Z"/><path class="b" d="M157.3,203.31h0l-.21.22h0Z"/><path class="b" d="M156.21,204.46l-.37.42h0l.37-.42Z"/><path class="c" d="M142.19,67.58c-2.57-3.12-5.27-6.15-8.17-9q-2.16-2.16-4.46-4.22c-1.54-1.39-3.08-2.71-4.69-3.94a31.68,31.68,0,0,0-10.77-5.72l.05-1a18.9,18.9,0,0,1,3.37-.21,23.17,23.17,0,0,1,3.41.34,33.09,33.09,0,0,1,6.57,1.94,50.24,50.24,0,0,1,6.07,3c1.93,1.1,3.84,2.28,5.66,3.57a75.16,75.16,0,0,1,10.3,8.65,71.89,71.89,0,0,1,8.62,10.37,77.24,77.24,0,0,1,7.24,13.5c-.92-4-1.7-8-2.22-12.14,0-.23-.06-.47-.08-.7-.61-3.12-1.12-6.26-1.41-9.13-1.35-13.12-10-24.75-13.6-28.17-14.06-13.51-33.83-16.11-53-12.54-4,.76-20.35,3.08-24.49,3-5-.13-10.5-.6-14.14-4a9.93,9.93,0,0,0,.78,5.16c5.36,15.51,14.39,35,26.64,49.66,8.18,9.8,29.52,21.2,42.28,21.6a177.16,177.16,0,0,0,33.36-2.89A120,120,0,0,0,149.4,77.28Q146,72.3,142.19,67.58Z"/><path class="d" d="M174.06,194.59h0l-.91.17h0Z"/><path class="d" d="M175.55,194.38h0l-1,.13h0Z"/><path class="e" d="M215.32,210.12l-.26-.06h0Z"/><path class="e" d="M134.91,242.14h0Z"/><path class="e" d="M172,245.65h2.44l-2.64,0Z"/><path class="e" d="M148.44,244.23h0l.29,0-1-.11Z"/><path class="e" d="M243.64,226.39h0c0-.14,0-.28,0-.41C243.66,226.12,243.65,226.26,243.64,226.39Z"/><path class="e" d="M168.81,245.6H169l1.59,0-1.83,0Z"/><path class="e" d="M166.06,245.52h.5l1,0-1.61-.05Z"/><path class="e" d="M158.27,245.12l.21,0,.73,0-1.34-.09Z"/><path class="e" d="M153.27,244.73h.13l.49,0-1.19-.11Z"/><path class="e" d="M155.81,244.94H156l.54,0-1.26-.1Z"/><path class="e" d="M160.86,245.28l.37,0,.71,0-1.41-.08Z"/><path class="e" d="M163.45,245.41h.23l1,.05-1.49-.07Z"/><path class="e" d="M105.16,226c0,.13,0,.27,0,.41h0C105.17,226.26,105.16,226.12,105.16,226Z"/><path class="e" d="M132.82,210.26l-.66.14.66-.14Z"/><path class="f" d="M217.27,220c12,2.86,20.61,6.88,23.67,11.48h0a11.29,11.29,0,0,0,1.52-1.82l0-.06c.12-.19.23-.37.33-.56l0-.06a7.71,7.71,0,0,0,.51-1.2s0-.1,0-.15a3.69,3.69,0,0,0,.11-.45c0-.06,0-.12,0-.17,0-.2.06-.4.07-.6s0-.27,0-.4,0-.16,0-.24v0c0-.17,0-.34-.05-.51v-.06a4,4,0,0,0-.09-.5l0-.06c0-.17-.09-.34-.14-.5a.14.14,0,0,1,0-.06l-.2-.5a.08.08,0,0,1,0-.05c-.08-.17-.16-.33-.25-.49l0-.07c-.09-.16-.18-.32-.29-.48a.43.43,0,0,1,0-.07c-.1-.15-.21-.31-.33-.46l-.06-.08-.36-.46-.08-.08c-.12-.15-.26-.3-.39-.44l-.1-.1-.43-.42-.12-.12c-.15-.13-.29-.27-.45-.4l-.16-.13c-.15-.13-.3-.26-.46-.38l-.21-.16-.46-.34-.27-.19c-.15-.11-.29-.21-.45-.31l-.36-.24c-.14-.08-.27-.17-.4-.26l-.82-.48h0l-.75-.42h0l-.78-.41h0l-.81-.41h0l-.83-.39h0l-.85-.39h0l-.89-.38,0,0-.89-.36-.07,0-.91-.35-.08,0-.94-.35-.08,0-1-.33-.1,0-1-.33-.13,0-1-.31-.14-.05-1-.29-.17,0-1-.29-.2,0-1-.27-.2-.05-1-.27-.23-.06-1-.25-.27-.06-1-.24-.28-.06-1-.23-.3-.07-1-.22-.33-.06-.26-.06A39.11,39.11,0,0,1,217.27,220Z"/><path class="f" d="M149.36,216.52l0,.08h0Z"/><path class="f" d="M154,207.18l-.19.27h0Z"/><path class="f" d="M152.1,210.16h0c.05-.09.1-.18.16-.27C152.2,210,152.15,210.07,152.1,210.16Z"/><path class="f" d="M151.6,211.07c-.08.16-.18.33-.26.5h0c.08-.17.18-.34.26-.51Z"/><path class="f" d="M105.26,227l0,.17c0,.15.07.3.11.45l0,.15A6.85,6.85,0,0,0,106,229l0,.06c.1.19.21.37.33.56l0,.06a11.37,11.37,0,0,0,1.53,1.82h0c3-4.58,11.57-8.59,23.51-11.44,0-.08,0-.16,0-.23,0-.24,0-.48,0-.72,0-.48.05-1,.09-1.45,0-.28.05-.55.08-.83,0-.44.09-.88.15-1.31s.09-.58.13-.87.14-.83.22-1.25.11-.57.17-.86.18-.83.28-1.24l.21-.82a1.21,1.21,0,0,0,0-.18l-.66.14-.3.07-1,.23-.29.06-1,.24-.26.06-1,.25-.23.06-1,.27-.19.05-1,.27-.19,0-1,.29-.17,0-1,.29-.14.05-1,.31-.12,0-1,.33-.1,0-1,.33-.09,0-.94.35-.07,0-.92.35-.06,0-.9.36,0,0-.88.38h0l-.86.39h0l-.83.39h0l-.81.41h0l-.78.41h0l-.75.42h0l-.81.48-.4.26-.37.24-.45.31-.27.19-.45.34-.22.16-.45.38-.17.13-.44.4-.13.12-.42.42-.1.1c-.14.14-.27.29-.4.44l-.07.08-.37.46-.06.08-.32.46,0,.07c-.1.16-.2.32-.28.48l0,.07a4.44,4.44,0,0,0-.24.49l0,.05c-.07.17-.13.34-.19.5a.14.14,0,0,0,0,.06,4.13,4.13,0,0,0-.15.5v.06c0,.16-.07.33-.1.5v.06c0,.17,0,.34,0,.51v0c0,.08,0,.16,0,.24s0,.27,0,.4S105.22,226.79,105.26,227Z"/><path class="f" d="M150.79,212.73h0c0,.1-.09.19-.13.29h0Z"/><path class="g" d="M148.37,220.8h0c0,.22-.07.44-.1.67h0C148.3,221.24,148.34,221,148.37,220.8Z"/><path class="g" d="M217.27,220c.08.86.13,1.72.15,2.6a40.32,40.32,0,0,1-1.11,10.52c-.59,0-1.18-.11-1.76-.21-2.36-.44-4.59-1.58-7-1.85a7.46,7.46,0,0,0-.95-.06c-3.5,0-6.54,2.25-9.71,3.74a23.35,23.35,0,0,1-11.71,2.09,23.71,23.71,0,0,1-10-3.06c-.43-.25-.85-.51-1.27-.79a6.46,6.46,0,0,0-3.13-1.47,5.58,5.58,0,0,0-2.71.83c-2.72,1.39-5.7,2.91-8.68,2.23-2.31-.52-4.19-2.3-6.52-2.76a8.16,8.16,0,0,0-4.23.4c-1.84.62-3.66,1.64-5.48,2.35a18.75,18.75,0,0,1-9,1.15A39.26,39.26,0,0,1,131.4,222c0-.65,0-1.3,0-1.95-11.94,2.85-20.46,6.86-23.51,11.44.27.27.56.53.87.79l.31.25.67.53.41.29.68.47.48.3c.24.15.48.3.73.44l.52.3.79.43.56.29.85.43.59.27.94.43.6.26,1,.42.62.24c.36.14.74,10.28,1.12,10.42l.6.22,1.24.43.58.19,1.39.44.51.16,1.62.47.36.11,2,.54h0c2.18.56,4.47,1.08,6.89,1.55h0c2.07.41,4.22.78,6.45,1.13h.09l1.71.25.67.1,1.56.21.87.12,1.49.18,1,.11,1.43.16,1.11.11,1.4.14,1.19.11,1.37.11,1.26.1,1.35.1,1.34.09,1.32.08,1.41.08,1.3.06,1.49.07,1.25,0,1.61.05,1.17,0,1.83,0h1.18l2.64,0c31.56,0,58.18-16,66.53-24.2C237.88,226.86,229.29,222.84,217.27,220Z"/><path class="g" d="M148.67,219.17h0c0,.22-.09.44-.13.66h0C148.58,219.61,148.63,219.39,148.67,219.17Z"/><path class="g" d="M149,217.74l-.12.48h0Z"/><path class="h" d="M200.53,203.48l-.22-.24h0Z"/><path class="h" d="M199.54,202.46h0l-.36-.35h0Z"/><path class="h" d="M195.39,199.08h0l-.69-.45h0Z"/><path class="h" d="M194.36,198.42c-.37-.23-.75-.45-1.13-.66h0c.38.21.76.43,1.13.66Z"/><path class="h" d="M191.92,197.08h0c-.24-.12-.49-.22-.73-.33h0C191.43,196.86,191.68,197,191.92,197.08Z"/><path class="h" d="M193.16,197.72h0c-.36-.2-.73-.38-1.1-.57h0Z"/><path class="h" d="M196.58,199.92h0l-.28-.2h0Z"/><polygon class="i" points="177.45 194.21 177.44 194.21 177.43 194.21 177.44 194.21 177.45 194.21"/><path class="j" d="M183.75,194.52h0l-.25,0h0Z"/><path class="j" d="M180.76,194.21h0l-.48,0h0Z"/><path class="j" d="M182.15,194.31Z"/><path class="j" d="M185.29,194.81h0l-.44-.09h0Z"/><path class="j" d="M179.3,194.17h0Z"/><path class="k" d="M187.93,195.5h0l-.27-.08h0Z"/><path class="k" d="M190.67,196.51h0l-.24-.1h0Z"/><path class="k" d="M189.29,196l-.11,0h0Z"/><path class="k" d="M186.63,195.13h0l-.43-.11h0Z"/><path class="k" d="M194.7,198.63h0l-.34-.21h0Z"/><path class="k" d="M192.06,197.15l-.13-.06.13.06Z"/><path class="l" d="M148.89,218.22h0c-.07.31-.15.63-.22.95h0C148.74,218.85,148.82,218.53,148.89,218.22Z"/><path class="l" d="M148.27,221.47c0,.11,0,.21,0,.32,0-.11,0-.21,0-.32Z"/><path class="l" d="M149.34,216.6c-.07.24-.15.47-.22.7.07-.23.15-.46.22-.7Z"/><path class="l" d="M152.05,210.24l-.45.83h0Z"/><path class="l" d="M150.66,213c-.21.46-.41.94-.59,1.42.18-.48.38-1,.58-1.42Z"/><path class="l" d="M157.09,203.53h0c-.3.3-.59.61-.88.93h0C156.49,204.15,156.79,203.84,157.09,203.53Z"/><path class="l" d="M158.45,202.22c-.38.34-.74.69-1.1,1,.36-.35.72-.7,1.1-1Z"/><path class="l" d="M148.54,219.83h0c-.06.32-.11.65-.17,1h0C148.43,220.48,148.48,220.15,148.54,219.83Z"/><path class="l" d="M153.82,207.45l-.28.39.28-.39Z"/><path class="m" d="M161.92,199.49h0l-.58.42h0Z"/><path class="m" d="M163,198.78l-.45.28h0Z"/><path class="m" d="M160.72,200.34l-.16.13.16-.13Z"/><path class="n" d="M167.3,196.56l-.44.2h0Z"/><path class="n" d="M164.63,197.84l-.28.15h0Z"/><path class="o" d="M169.77,195.64l-.06,0h0Z"/><path class="o" d="M168.64,196l-.2.08.19-.07Z"/><path class="o" d="M171.67,195.1l-.26.06.26-.06Z"/><path class="i" d="M173.15,194.76h0l-.51.11h0Z"/><path class="i" d="M175.73,194.36l-.18,0h0Z"/><path class="i" d="M174.58,194.51l-.42.07.42-.07Z"/><path class="p" d="M152.91,231.79c2.33.46,4.21,2.24,6.52,2.76,3,.68,6-.84,8.68-2.23a5.58,5.58,0,0,1,2.71-.83A6.46,6.46,0,0,1,174,233c.42.28.84.54,1.27.79a14,14,0,0,0,2.82,0c2.69-.29,4.45-1.54,4.36-3.35s-1.63-2.7-5.17-3.49c-5-1.13-8.55-3.08-8.77-7.56-.21-4.12,2.51-7.61,7.43-9.07l-.22-4.39,4.55-.48.2,4.06a16.62,16.62,0,0,1,6.86.8l-1.14,5.38a14,14,0,0,0-6.76-.91c-3,.32-3.93,1.77-3.86,3.06.07,1.48,1.75,2.33,5.81,3.33,5.62,1.35,7.93,3.66,8.14,7.87a8.69,8.69,0,0,1-4.24,7.83,23.35,23.35,0,0,0,11.71-2.09c3.17-1.49,6.21-3.76,9.71-3.74a7.46,7.46,0,0,1,.95.06,31.29,31.29,0,0,0,.83-8,29.71,29.71,0,0,0-7.9-19.6l-.22-.24-.23-.24c-.18-.18-.36-.37-.54-.54l-.36-.36c-.41-.38-.83-.75-1.25-1.11l0,0-.57-.45c-.25-.2-.5-.41-.76-.6l-.28-.2-.91-.64-.69-.45-.34-.21c-.37-.23-.75-.45-1.13-.66l-.07,0-1.1-.57-.13-.06h0c-.24-.12-.49-.22-.73-.33l-.52-.24-.24-.1-1-.41-.11,0-.1,0-1.26-.42-.27-.08-1-.29-.42-.11-.92-.21-.44-.09c-.37-.08-.73-.14-1.1-.2l-.24,0c-.45-.07-.91-.12-1.36-.17H182q-.62-.06-1.23-.09l-.48,0c-.32,0-.65,0-1,0h-.43c-.47,0-.94,0-1.42.05s-1,.07-1.43.11l-.28,0-.18,0-1,.13-.42.07h-.1l-.91.17-.51.11-1,.23-.26.06-.13,0c-.45.11-.89.24-1.33.38l-.18.06-.05,0c-.36.12-.73.24-1.09.38l-.19.07-.24.09-.86.35h0l-.44.19-.82.38-.45.22-.9.46-.06,0-.27.15c-.41.22-.8.45-1.19.69l-.15.1-.43.28-.67.43-.57.4-.63.45-.16.13-.39.31c-.21.16-.41.31-.61.48l-.53.46c-.2.16-.39.33-.58.5-.38.34-.74.69-1.1,1l0,.05-.21.22c-.3.31-.6.62-.88.93l-.37.42c-.22.26-.45.52-.67.79s-.26.32-.38.49h0c-.2.25-.39.51-.58.77-.07.08-.13.17-.19.25l-.19.27-.28.39c-.28.41-.55.83-.82,1.25l-.3.52c-.06.09-.11.19-.16.28s-.11.18-.16.27a.56.56,0,0,0,0,.08l-.45.82c-.08.17-.18.34-.26.51-.19.38-.37.77-.55,1.16l-.14.29c-.2.46-.4.94-.58,1.42a.14.14,0,0,0,0,.06c-.06.14-.1.28-.16.42-.13.37-.26.73-.38,1.1h0l-.15.5,0,.08c-.07.24-.15.47-.22.7a2.86,2.86,0,0,1-.07.28.94.94,0,0,1,0,.16l-.12.48c-.07.31-.15.63-.22.95s-.09.44-.13.66-.11.65-.17,1-.07.44-.1.67,0,.21,0,.32a30.33,30.33,0,0,0-.23,4.68,30.78,30.78,0,0,0,.46,4.64c.07.36.15.72.22,1.08A8.16,8.16,0,0,1,152.91,231.79Z"/><path class="d" d="M132.77,210.44l-.21.82c-.1.41-.19.83-.28,1.24s-.12.57-.17.86-.15.84-.22,1.25-.09.58-.13.87-.11.87-.15,1.31c0,.28-.06.55-.08.83,0,.48-.07,1-.09,1.45,0,.24,0,.48,0,.72,0,.07,0,.15,0,.23,0,.65,0,1.3,0,1.95a39.26,39.26,0,0,0,2.82,13.72,19.28,19.28,0,0,0,5.92-.25c-.07-.31-.15-.61-.22-.91s-.1-.52-.16-.78c-.09-.47-.18-.95-.25-1.43,0-.27-.09-.54-.13-.81-.07-.51-.13-1-.18-1.54,0-.24,0-.48-.07-.72-.06-.75-.11-1.51-.13-2.28s0-1.46,0-2.18c0-.24,0-.48,0-.71,0-.49,0-1,.08-1.46,0-.28.06-.55.08-.83,0-.44.1-.88.16-1.31s.08-.58.13-.86.13-.84.21-1.26.11-.57.17-.86.19-.82.29-1.24c.07-.27.13-.55.21-.82.11-.43.24-.85.36-1.27.08-.25.15-.5.23-.75.16-.48.33-1,.5-1.43.07-.18.13-.37.19-.55.25-.65.52-1.29.8-1.92,0-.13.12-.26.18-.39.22-.5.46-1,.7-1.49.11-.22.23-.44.35-.66.21-.39.41-.79.63-1.17l.42-.71c.21-.36.43-.72.65-1.07l.47-.72c.23-.34.46-.68.7-1l.49-.69c.25-.34.5-.67.76-1l.51-.65c.28-.34.57-.68.87-1l.47-.55c.38-.42.77-.82,1.16-1.22.09-.09.17-.19.26-.27.48-.49,1-1,1.49-1.42l.06-.06.69-.59.69-.6.79-.62c.24-.19.47-.38.72-.56s.55-.4.82-.59l.74-.53.85-.55.76-.49.05,0c.49-.3,1-.59,1.49-.87l.43-.22,1.17-.61.59-.28,1.06-.49.63-.27.44-.19.67-.26.56-.21,1.41-.49.3-.1c.57-.18,1.15-.35,1.73-.5l.5-.13.91-.23L171,186l.65-.14,1.18-.21.67-.11c.42-.07.84-.12,1.27-.17l.59-.07c.61-.07,1.24-.12,1.86-.16l.54,0,.68,0h2l.58,0,.43,0,.44,0,.43,0,.86.07.18,0,.5.06.91.11.35.05.23,0,.86.14.51.1.31,0,.22.05.46.1.4.09.09,0,.42.11.56.14.49.13.6.17.25.08.34.1.33.11.63.21.67.23.28.11.55.21.78.32.32.13.36.16.83.38.42.19.19.1.83.42.54.29.08,0,.07,0,.76.45.45.25.26.16.44.28.62.39-7.61-5c-.43-.29-.87-.56-1.32-.83-.14-.09-.29-.17-.44-.25-.3-.18-.61-.36-.91-.52l-.54-.29-.85-.43-.59-.28-.84-.39-.61-.26-.85-.34-.62-.24-.88-.31c-.21-.07-.41-.15-.62-.21l-.93-.29-.6-.17c-.34-.1-.69-.19-1-.27l-.43-.11-.1,0-.4-.09-1-.2-.52-.1-.89-.15-.55-.08-.74-.09c.08-2.44.15-4.89.19-7.33.16-8.57.08-17.16-.38-25.74-.07-2.15-.23-4.29-.36-6.43s-.26-4.3-.47-6.44L174.8,128l-.74-6.41c-.23-2.14-.55-4.27-.85-6.4l-.45-3.2c-.14-1.06-.3-2.14-.48-3.25-.35-2.2-.77-4.38-1.29-6.55-.28-1.27-.61-2.53-1-3.78l.2-.06c-1-4.29-1.84-8.6-2.5-12.93a124.7,124.7,0,0,1-1.44-13,85.26,85.26,0,0,1,2.16-25.65,64.93,64.93,0,0,1,4.19-12,56.26,56.26,0,0,1,3-5.52,37.71,37.71,0,0,1,3.57-4.92,25.4,25.4,0,0,1,9.07-7,14.08,14.08,0,0,1,5.06-1.19,12.54,12.54,0,0,1,5,.81,24.21,24.21,0,0,1,5,2.61c.42.24.78.57,1.17.84a14.08,14.08,0,0,1,1.14.9l1.09.94,1,1a30.49,30.49,0,0,1,3.66,4.45,11.86,11.86,0,0,1,.78,1.21c.25.41.5.82.74,1.24.43.85.9,1.68,1.26,2.56s.73,1.76,1.08,2.64.6,1.79.81,2.71a28.81,28.81,0,0,1,1,5.5c.37,3.7-.07,7.25-1.4,9.35a6.12,6.12,0,0,1-1.17,1.44,8.42,8.42,0,0,1-1.75,1.21A14.16,14.16,0,0,1,207.93,57a18.46,18.46,0,0,1-10.5-1.48c-.41-.2-.83-.4-1.22-.63l-.61-.34-.48-.31a9.18,9.18,0,0,1-1.78-1.63,5.8,5.8,0,0,1-1.08-1.83,2.87,2.87,0,0,1-.17-.81,1.91,1.91,0,0,1,.11-.73,3.53,3.53,0,0,1,1.46-1.65A7.74,7.74,0,0,1,196,46.39a3.12,3.12,0,0,1,1.13-.12,1.91,1.91,0,0,1,1,.38,1.87,1.87,0,0,1,.83,2.07l.85.55a2.7,2.7,0,0,0,.61-2,4,4,0,0,0-.74-2,4.16,4.16,0,0,0-1.76-1.42,5.65,5.65,0,0,0-2.13-.45,9.73,9.73,0,0,0-3.91.82,10.5,10.5,0,0,0-1.8.91,6.33,6.33,0,0,0-1.75,1.62,6.57,6.57,0,0,0-1.14,2.31,7.82,7.82,0,0,0-.21,2.48,10.56,10.56,0,0,0,1.28,4.29,14.31,14.31,0,0,0,2.49,3.4c.24.25.51.49.78.74l.74.62c.49.43,1,.79,1.56,1.17A24.88,24.88,0,0,0,208.7,66a22.86,22.86,0,0,0,8-1.73A17.9,17.9,0,0,0,220.6,62a16.13,16.13,0,0,0,3.33-3.37,19.76,19.76,0,0,0,3.35-8.18,29,29,0,0,0,.25-7.91,37.56,37.56,0,0,0-4.4-14.42c-.57-1.11-1.26-2.16-1.93-3.22-.35-.52-.72-1-1.08-1.52s-.74-1-1.14-1.48a39.78,39.78,0,0,0-5.18-5.36,39.29,39.29,0,0,0-6.07-4.32,32,32,0,0,0-6.92-3.1,22.87,22.87,0,0,0-3.95-.83c-.68-.07-1.37-.08-2.06-.11a20.08,20.08,0,0,0-2.05.09,21.79,21.79,0,0,0-7.64,2.21,32.49,32.49,0,0,0-11.2,9.57,42.42,42.42,0,0,0-3.81,6,60.06,60.06,0,0,0-2.91,6.32,70.3,70.3,0,0,0-3.71,13.24A88.85,88.85,0,0,0,163.09,72c0,.23,0,.47.08.7.52,4.1,1.3,8.14,2.22,12.14a77.24,77.24,0,0,0-7.24-13.5,71.89,71.89,0,0,0-8.62-10.37,75.16,75.16,0,0,0-10.3-8.65c-1.82-1.29-3.73-2.47-5.66-3.57a50.24,50.24,0,0,0-6.07-3,33.09,33.09,0,0,0-6.57-1.94,23.17,23.17,0,0,0-3.41-.34,18.9,18.9,0,0,0-3.37.21l-.05,1a31.68,31.68,0,0,1,10.77,5.72c1.61,1.23,3.15,2.55,4.69,3.94s3,2.78,4.46,4.22c2.9,2.88,5.6,5.91,8.17,9s4.93,6.38,7.21,9.7a120,120,0,0,1,10.11,17.28c.59,1.29,1.16,2.58,1.67,3.9a81.67,81.67,0,0,1,3.59,11.68l.33,1.5.29,1.55.58,3.12c.38,2.07.78,4.14,1.09,6.23,1.41,8.33,2.49,16.72,3.37,25.14L171,154l.48,6.34c.29,4.23.57,8.46.74,12.71.1,2.33.18,4.67.25,7q-.58,0-1.17,0h-.51l-.67,0-.54,0c-.63,0-1.25.09-1.87.16l-.59.07-1.26.16-.67.11-1.18.22-.66.14L163,181l-.93.22-.5.12c-.58.16-1.16.33-1.73.51l-.3.1c-.47.15-.94.31-1.4.49l-.57.21L157,183l-.46.18-.63.27-1.06.49-.58.28c-.4.19-.79.4-1.17.61l-.43.22c-.51.28-1,.57-1.5.87l0,0-.75.48-.86.56-.73.52c-.28.2-.56.39-.83.6l-.71.55-.79.63c-.24.19-.46.39-.69.59l-.69.6-.07.06c-.5.46-1,.93-1.49,1.42-.08.08-.16.18-.25.26-.4.41-.78.81-1.16,1.23l-.48.55c-.29.33-.58.67-.86,1s-.34.43-.51.64-.52.66-.76,1l-.5.69c-.24.33-.47.67-.7,1l-.46.72c-.22.35-.44.7-.65,1.06s-.29.48-.42.72-.43.77-.63,1.17c-.12.22-.24.43-.35.66-.25.49-.48,1-.71,1.49l-.18.38c-.28.64-.54,1.28-.79,1.93-.07.18-.13.37-.19.55-.18.47-.35.95-.5,1.43-.08.25-.15.5-.23.75s-.22.72-.32,1.09h0A1.21,1.21,0,0,1,132.77,210.44Z"/><path class="q" d="M197.7,189.71l-.07,0c-.48-.26-1-.51-1.45-.75l-.19-.1c-.53-.26-1.07-.5-1.61-.73l-.32-.13c-.44-.19-.88-.37-1.33-.53l-.28-.11c-.54-.19-1.08-.38-1.63-.55l-.34-.1c-.45-.14-.89-.26-1.34-.38l-.56-.14-1.37-.32-.22-.05c-.56-.11-1.12-.2-1.68-.29l-.23,0c-.58-.09-1.17-.16-1.76-.22l-.18,0c-.57-.05-1.15-.09-1.73-.12l-.43,0c-.52,0-1,0-1.57,0h-.23l-2,.06c-.62,0-1.25.09-1.86.16l-.59.07c-.43,0-.85.1-1.27.17l-.67.11-1.18.21L171,186c-.43.09-.85.19-1.27.3l-.5.13c-.58.15-1.16.32-1.73.5l-.3.1-1.41.49-.56.21c-.37.15-.74.29-1.11.45l-.63.27-1.06.49-.59.28-1.17.61-.43.22c-.52.29-1,.59-1.54.9l-.76.49-.85.55-.74.53c-.27.19-.55.38-.82.59s-.48.37-.72.56l-.79.62-.69.6-.75.65c-.51.46-1,.93-1.49,1.42-.09.08-.17.18-.26.27-.39.4-.78.8-1.16,1.22l-.47.55c-.3.33-.59.67-.87,1l-.51.65c-.26.32-.51.65-.76,1l-.49.69c-.24.33-.47.67-.7,1l-.47.72c-.22.35-.44.71-.65,1.07l-.42.71c-.22.38-.42.78-.63,1.17-.12.22-.24.44-.35.66-.24.49-.48,1-.7,1.49-.06.13-.13.26-.18.39-.28.63-.55,1.27-.8,1.92-.06.18-.12.37-.19.55-.17.47-.34.95-.5,1.43-.08.25-.15.5-.23.75-.12.42-.25.84-.36,1.27-.08.27-.14.55-.21.82-.1.42-.2.83-.29,1.24s-.11.58-.17.86-.15.84-.21,1.26-.09.57-.13.86-.11.87-.16,1.31c0,.28-.06.55-.08.83,0,.48-.06,1-.08,1.46,0,.23,0,.47,0,.71,0,.72,0,1.45,0,2.18s.07,1.53.13,2.28c0,.24.05.48.07.72.05.52.11,1,.18,1.54,0,.27.08.54.13.81.07.48.16,1,.25,1.43.06.26.11.52.16.78s.15.6.22.91a18.19,18.19,0,0,0,3.06-.9c1.82-.71,3.64-1.73,5.48-2.35-.07-.36-.15-.72-.22-1.08a30.78,30.78,0,0,1-.46-4.64,30.33,30.33,0,0,1,.23-4.68c0-.11,0-.21,0-.32s.07-.45.1-.67.11-.65.17-1,.09-.44.13-.66.15-.64.22-.95l.12-.48a.94.94,0,0,0,0-.16,2.86,2.86,0,0,0,.07-.28c.07-.23.15-.46.22-.7l0-.08.15-.5h0c.12-.37.25-.73.38-1.1.06-.14.1-.28.16-.42a.14.14,0,0,1,0-.06c.18-.48.38-1,.59-1.42,0-.1.09-.19.13-.29h0c.18-.39.36-.78.55-1.16h0c.08-.17.18-.34.26-.5l.45-.83a.56.56,0,0,1,0-.08h0c.05-.09.1-.18.16-.27s.1-.19.16-.28l.3-.52c.27-.42.54-.84.82-1.25l.28-.39.19-.27c.06-.08.12-.17.19-.25h0c.19-.26.38-.52.58-.77h0c.12-.17.25-.33.38-.49h0c.22-.27.45-.53.67-.79h0l.37-.42c.29-.32.58-.63.88-.93l.21-.22h0l0-.05c.36-.35.72-.7,1.1-1l.57-.5h0l.53-.46h0l.6-.48h0l.39-.31.16-.13.62-.44.58-.42.65-.42.45-.28.15-.1h0c.39-.24.78-.47,1.18-.69l.28-.15.06,0h0c.29-.16.59-.31.89-.46h0l.45-.22h0l.82-.37.44-.2h0l.85-.35h0l.24-.09.2-.08,1.07-.37.06,0,.18-.06h0c.44-.14.88-.26,1.33-.38h0l.13,0,.26-.06,1-.23.51-.11.91-.17h.1l.42-.07,1-.13.18,0,.28,0h0c.47,0,.94-.09,1.42-.11h0c.47,0,.94,0,1.41-.05h.44c.33,0,.66,0,1,0l.48,0q.62,0,1.23.09h.16c.45.05.91.1,1.35.17l.25,0c.37.06.73.12,1.1.2l.44.09c.3.06.61.13.91.21l.43.11c.35.09.69.18,1,.29l.27.08c.42.13.84.27,1.25.42l.11,0,.11,0h0l1,.41.24.1.52.24c.24.11.49.21.73.33h0l.13.06c.37.19.74.37,1.1.57h0l.07,0h0c.38.21.76.43,1.13.66l.34.21.69.45.91.64.28.2h0c.26.19.51.4.76.6l.57.45,0,0c.42.36.84.73,1.25,1.11l.36.35h0c.18.17.36.36.54.54l.23.24.22.24a29.71,29.71,0,0,1,7.9,19.6,31.29,31.29,0,0,1-.83,8c2.36.27,4.59,1.41,7,1.85.58.1,1.17.16,1.76.21a40.32,40.32,0,0,0,1.11-10.52c0-.88-.07-1.74-.15-2.6a39.11,39.11,0,0,0-2.21-9.92h0a38.06,38.06,0,0,0-15.45-19.21l-.44-.28Z"/><path class="d" d="M189.47,229c-.21-4.21-2.52-6.52-8.14-7.87-4.06-1-5.74-1.85-5.81-3.33-.07-1.29.84-2.74,3.86-3.06a14,14,0,0,1,6.76.91l1.14-5.38a16.62,16.62,0,0,0-6.86-.8l-.2-4.06-4.55.48.22,4.39c-4.92,1.46-7.64,5-7.43,9.07.22,4.48,3.72,6.43,8.77,7.56,3.54.79,5.08,1.74,5.17,3.49s-1.67,3.06-4.36,3.35a14,14,0,0,1-2.82,0,23.71,23.71,0,0,0,10,3.06A8.69,8.69,0,0,0,189.47,229Z"/><path class="r" d="M243.57,227s0,.11,0,.17a3.69,3.69,0,0,1-.11.45s0,.1,0,.15a7.71,7.71,0,0,1-.51,1.2l0,.06c-.1.19-.21.37-.33.56l0,.06a11.29,11.29,0,0,1-1.52,1.82h0c-8.35,8.2-35,14.2-66.53,14.2h-3.82l-1.59,0h-.24l-1.17,0-1,0H166l-1.25,0-1-.05h-.44l-1.3-.06-.71,0-.37,0-.33,0-1.32-.08-.73,0-.21,0-.4,0-1.35-.1-.54,0h-.17l-.55-.05-1.37-.11-.49,0h-.13l-.57-.06-1.4-.14-1.11-.11-1.43-.16-.29,0h0l-.68-.08-1.49-.18-.87-.12-1.56-.21-.67-.1-1.71-.25h-.09c-2.23-.35-4.38-.72-6.45-1.13h0a110,110,0,0,0,4.41,21.62,84.46,84.46,0,0,0,8.4,18.94,67.34,67.34,0,0,0,5.4,7.56,139.47,139.47,0,0,0,21.29,1.55c19.36,0,35.82-3.52,41.9-8.43h.13a75.06,75.06,0,0,0,27.2-57h0C243.63,226.59,243.6,226.79,243.57,227Z"/><path class="a" d="M139.32,263.76a110,110,0,0,1-4.41-21.62h0c-2.42-.47-4.71-1-6.89-1.55h0l-2-.54-.36-.11-1.62-.47-.51-.16-1.39-.44-.58-.19-1.24-.43-.6-.22-1.12-.42-.62-.24-1-.42-.6-.26-.94-.43-.59-.27-.85-.43-.56-.29-.79-.43-.52-.3c-.25-.14-.49-.29-.73-.44l-.48-.3-.68-.47-.41-.29-.67-.53-.31-.25c-.31-.26-.6-.52-.87-.79h0a11.37,11.37,0,0,1-1.53-1.82l0-.06c-.12-.19-.23-.37-.33-.56l0-.06a6.85,6.85,0,0,1-.51-1.2l0-.15c0-.15-.08-.3-.11-.45l0-.17c0-.2-.06-.4-.08-.6h0a75,75,0,0,0,27.21,57h.12c3.66,2.95,11.08,5.4,20.61,6.88a67.34,67.34,0,0,1-5.4-7.56A84.46,84.46,0,0,1,139.32,263.76Z"/></svg>