<svg xmlns="http://www.w3.org/2000/svg" viewBox="0 0 300 300"><defs><style>.a{fill:#1c1b41}.b{fill:#49b5be}.c{fill:#504a89}.d{fill:#1f140f}.e{opacity:.39}.f{fill:#6cc1d8}.g{fill:#fff}</style></defs><path class="a" d="M86.52 228.79v6.46h-2.61V224h2l5.26 6.63V224h2.61v11.3h-2.1zM100.93 235.34a5.26 5.26 0 0 1-2.29-.49 5.6 5.6 0 0 1-1.76-1.3 6 6 0 0 1-1.55-4 5.5 5.5 0 0 1 .43-2.15 5.8 5.8 0 0 1 1.17-1.82 6 6 0 0 1 1.79-1.26 5.48 5.48 0 0 1 2.26-.47 5.23 5.23 0 0 1 2.29.5 5.64 5.64 0 0 1 1.77 1.3 6 6 0 0 1 1.53 3.95 5.68 5.68 0 0 1-.42 2.15 6.17 6.17 0 0 1-1.15 1.85 5.9 5.9 0 0 1-1.79 1.26 5.29 5.29 0 0 1-2.28.48zM98 229.61a4.49 4.49 0 0 0 .19 1.27 3.43 3.43 0 0 0 .57 1.09 2.89 2.89 0 0 0 3.51.75 3.06 3.06 0 0 0 .92-.79 3.78 3.78 0 0 0 .55-1.1 4.39 4.39 0 0 0 .18-1.25 4.09 4.09 0 0 0-.19-1.26 3.43 3.43 0 0 0-.57-1.09 2.9 2.9 0 0 0-.93-.74 2.73 2.73 0 0 0-1.27-.28 2.8 2.8 0 0 0-1.3.29 3.13 3.13 0 0 0-.92.77 3.52 3.52 0 0 0-.56 1.09 4.45 4.45 0 0 0-.18 1.25zM114.86 227.26a2.48 2.48 0 0 0-.34-.24 6.49 6.49 0 0 0-.71-.37 9.33 9.33 0 0 0-.94-.33 3.58 3.58 0 0 0-1-.14c-.93 0-1.4.31-1.4.94a.73.73 0 0 0 .15.47 1.27 1.27 0 0 0 .45.34 3.1 3.1 0 0 0 .74.28l1 .29a14.73 14.73 0 0 1 1.46.48 4 4 0 0 1 1.11.66 2.73 2.73 0 0 1 .7.94 3.41 3.41 0 0 1 .25 1.34 3.37 3.37 0 0 1-.36 1.62 3.13 3.13 0 0 1-1 1.06 3.93 3.93 0 0 1-1.35.59 6.9 6.9 0 0 1-1.58.18 9.37 9.37 0 0 1-1.27-.09 10.62 10.62 0 0 1-1.27-.28 9 9 0 0 1-1.2-.44 6.21 6.21 0 0 1-1.08-.59l1.15-2.27a2.47 2.47 0 0 0 .41.3 6.3 6.3 0 0 0 .87.45 9.08 9.08 0 0 0 1.15.39 4.78 4.78 0 0 0 1.29.18c.92 0 1.39-.28 1.39-.85a.7.7 0 0 0-.21-.52 1.94 1.94 0 0 0-.57-.37 6.16 6.16 0 0 0-.87-.32l-1.09-.31a8.89 8.89 0 0 1-1.35-.52 3.66 3.66 0 0 1-1-.64 2.38 2.38 0 0 1-.56-.85 3.15 3.15 0 0 1-.18-1.11 3.6 3.6 0 0 1 .33-1.58 3.54 3.54 0 0 1 .91-1.15 4 4 0 0 1 1.33-.71 5.25 5.25 0 0 1 1.6-.24 6.42 6.42 0 0 1 1.16.11 9.32 9.32 0 0 1 1.1.29 8.71 8.71 0 0 1 1 .4l.83.44zM124.15 224h2.35l4.12 11.3H128l-.88-2.53h-3.51l-.86 2.53H120zm2.5 7l-1.33-4-1.35 4zM131.74 235.25V224H136a6.34 6.34 0 0 1 2.45.44 5.07 5.07 0 0 1 1.76 1.21 5.15 5.15 0 0 1 1.07 1.79 7.09 7.09 0 0 1 0 4.52 5 5 0 0 1-2.92 2.93 6.38 6.38 0 0 1-2.32.41zm7.19-5.67a4.46 4.46 0 0 0-.2-1.36 3.11 3.11 0 0 0-.58-1.06 2.67 2.67 0 0 0-.94-.68 3.15 3.15 0 0 0-1.26-.24h-1.6V233H136a3.08 3.08 0 0 0 1.28-.25 2.62 2.62 0 0 0 .93-.71 3.18 3.18 0 0 0 .57-1.06 4.45 4.45 0 0 0 .15-1.4zM145.8 224h2.36l4.12 11.3h-2.68l-.87-2.53h-3.52l-.86 2.53h-2.67zm2.5 7l-1.32-4-1.35 4zM153.39 235.25V224h4.82a3.36 3.36 0 0 1 1.49.33 3.91 3.91 0 0 1 1.16.88 4.17 4.17 0 0 1 .76 1.22 3.59 3.59 0 0 1 .28 1.39 3.86 3.86 0 0 1-.26 1.43 4.17 4.17 0 0 1-.73 1.22 3.34 3.34 0 0 1-1.14.86 3.28 3.28 0 0 1-1.48.32H156v3.65zm2.61-5.92h2.13a1 1 0 0 0 .8-.4 1.78 1.78 0 0 0 .33-1.16 2 2 0 0 0-.1-.69 1.28 1.28 0 0 0-.28-.47 1.08 1.08 0 0 0-.4-.28 1.19 1.19 0 0 0-.44-.09h-2zM171.91 226.24h-3.44v9h-2.61v-9h-3.45V224h9.5zM175.14 224h2.35l4.12 11.3h-2.67l-.87-2.53h-3.52l-.86 2.53H171zm2.5 7l-1.32-4-1.36 4zM191.64 235.25v-6.77l-2.45 4.92h-1.4l-2.45-4.92v6.77h-2.61V224h2.83l2.93 5.9 2.94-5.9h2.82v11.3zM201.36 235.34a5.23 5.23 0 0 1-2.29-.49 5.64 5.64 0 0 1-1.77-1.3 5.9 5.9 0 0 1-1.54-4 5.74 5.74 0 0 1 1.6-4 5.9 5.9 0 0 1 1.79-1.26 5.44 5.44 0 0 1 2.26-.47 5.26 5.26 0 0 1 2.29.5 5.49 5.49 0 0 1 1.76 1.3 6 6 0 0 1 1.53 3.95 5.68 5.68 0 0 1-.42 2.15 5.8 5.8 0 0 1-1.17 1.82 5.86 5.86 0 0 1-1.78 1.26 5.29 5.29 0 0 1-2.26.54zm-2.94-5.73a4.16 4.16 0 0 0 .19 1.27 3.22 3.22 0 0 0 .56 1.09 2.74 2.74 0 0 0 2.21 1.05 2.71 2.71 0 0 0 1.3-.3 3 3 0 0 0 .92-.79 3.34 3.34 0 0 0 .55-1.1 4.39 4.39 0 0 0 .18-1.25 4.09 4.09 0 0 0-.19-1.26 3.07 3.07 0 0 0-.57-1.09 2.76 2.76 0 0 0-2.19-1 2.77 2.77 0 0 0-1.3.29 2.89 2.89 0 0 0-.92.77 3.32 3.32 0 0 0-.56 1.09 4.45 4.45 0 0 0-.18 1.23zM215.28 227.26a1.7 1.7 0 0 0-.28-.26 5.9 5.9 0 0 0-.72-.37 9.33 9.33 0 0 0-.94-.33 3.58 3.58 0 0 0-1-.14c-.93 0-1.4.31-1.4.94a.73.73 0 0 0 .15.47 1.36 1.36 0 0 0 .45.34 3.28 3.28 0 0 0 .74.28l1 .29a15 15 0 0 1 1.47.48 4.07 4.07 0 0 1 1.1.66 2.5 2.5 0 0 1 .7.94 3.24 3.24 0 0 1 .25 1.34 3.37 3.37 0 0 1-.36 1.62 3.1 3.1 0 0 1-.94 1.06 4.07 4.07 0 0 1-1.36.59 6.81 6.81 0 0 1-1.57.18 9.4 9.4 0 0 1-1.28-.09A11.07 11.07 0 0 1 210 235a10.13 10.13 0 0 1-1.2-.44 6.12 6.12 0 0 1-1.07-.59l1.14-2.27a2.77 2.77 0 0 0 .42.3 6.13 6.13 0 0 0 .86.45 9.25 9.25 0 0 0 1.16.39 4.67 4.67 0 0 0 1.29.18c.92 0 1.38-.28 1.38-.85a.7.7 0 0 0-.21-.52 1.81 1.81 0 0 0-.57-.37 5.36 5.36 0 0 0-.87-.32l-1.09-.31a8.89 8.89 0 0 1-1.35-.52 3.84 3.84 0 0 1-1-.64 2.35 2.35 0 0 1-.55-.85 3.14 3.14 0 0 1-.19-1.11 3.6 3.6 0 0 1 .34-1.58 3.3 3.3 0 0 1 .91-1.15 4 4 0 0 1 1.32-.71 5.3 5.3 0 0 1 1.6-.24 6.34 6.34 0 0 1 1.16.11 8.83 8.83 0 0 1 1.1.29 8 8 0 0 1 1 .4l.84.44zM75.69 243H78l4.12 11.3h-2.63l-.88-2.53H75.1l-.86 2.53h-2.68zm2.49 7l-1.32-4-1.35 4z"/><path class="b" d="M94.65 245.33h-3.44v9H88.6v-9h-3.45V243h9.5zM100.78 252.11a2.13 2.13 0 0 0 1.13-.28 2.18 2.18 0 0 0 .74-.74 3.21 3.21 0 0 0 .41-1.06 6.06 6.06 0 0 0 .12-1.21V243h2.61v5.78a7.73 7.73 0 0 1-.3 2.19 5.07 5.07 0 0 1-.9 1.78A4.37 4.37 0 0 1 103 254a5.35 5.35 0 0 1-2.25.43 5.23 5.23 0 0 1-2.31-.46 4.32 4.32 0 0 1-1.55-1.23A5.17 5.17 0 0 1 96 251a8.29 8.29 0 0 1-.28-2.13V243h2.61v5.78a6.2 6.2 0 0 0 .13 1.24 3.49 3.49 0 0 0 .41 1.05 2.24 2.24 0 0 0 .74.73 2.2 2.2 0 0 0 1.17.31zM114.59 246.35a2.48 2.48 0 0 0-.34-.24 6.61 6.61 0 0 0-.71-.36 7.37 7.37 0 0 0-.94-.34 4 4 0 0 0-1-.14c-.93 0-1.4.31-1.4.94a.72.72 0 0 0 .15.47 1.28 1.28 0 0 0 .45.35 3.64 3.64 0 0 0 .74.27l1 .29a12.45 12.45 0 0 1 1.46.49 3.74 3.74 0 0 1 1.11.65 2.73 2.73 0 0 1 .7.94 3.41 3.41 0 0 1 .25 1.34 3.34 3.34 0 0 1-.36 1.62 3 3 0 0 1-.95 1.06 3.93 3.93 0 0 1-1.35.59 6.9 6.9 0 0 1-1.58.18 9.37 9.37 0 0 1-1.27-.09 10.62 10.62 0 0 1-1.27-.28 9 9 0 0 1-1.2-.44 6.21 6.21 0 0 1-1.08-.59l1.15-2.27a2.47 2.47 0 0 0 .41.3 5.77 5.77 0 0 0 .87.45 7.73 7.73 0 0 0 1.15.39 4.78 4.78 0 0 0 1.29.18c.92 0 1.39-.28 1.39-.84a.71.71 0 0 0-.21-.53 1.94 1.94 0 0 0-.57-.37 6.21 6.21 0 0 0-.87-.31l-1.09-.32a8.89 8.89 0 0 1-1.35-.52 3.43 3.43 0 0 1-1-.64 2.38 2.38 0 0 1-.56-.85 3.11 3.11 0 0 1-.18-1.11 3.35 3.35 0 0 1 1.24-2.73 4 4 0 0 1 1.33-.71 5.25 5.25 0 0 1 1.6-.23 5.63 5.63 0 0 1 1.16.11 9.31 9.31 0 0 1 1.1.28 8.71 8.71 0 0 1 1 .4c.3.15.58.3.83.45zM123.91 247.88v6.46h-2.61V243h2l5.26 6.63V243h2.61v11.3h-2.1zM141.31 252.05v2.29h-7.93V243h7.79v2.29H136v2.2h4.46v2.11H136v2.41zM142 248.59a5.66 5.66 0 0 1 .39-2 5.42 5.42 0 0 1 1.11-1.8 5.7 5.7 0 0 1 1.78-1.29 5.55 5.55 0 0 1 2.39-.49 5.43 5.43 0 0 1 2.76.68 4.44 4.44 0 0 1 1.74 1.78l-2 1.4a2.45 2.45 0 0 0-.49-.74 2.85 2.85 0 0 0-.64-.47 2.61 2.61 0 0 0-.72-.26 3.51 3.51 0 0 0-.72-.07 2.71 2.71 0 0 0-1.3.3 2.79 2.79 0 0 0-.92.78 3 3 0 0 0-.54 1.08 4.36 4.36 0 0 0-.18 1.23 4.05 4.05 0 0 0 .21 1.29 3.36 3.36 0 0 0 .6 1.1 2.83 2.83 0 0 0 .93.75 2.66 2.66 0 0 0 1.24.28 3.08 3.08 0 0 0 .72-.09 3.13 3.13 0 0 0 .72-.27 2.52 2.52 0 0 0 .62-.48 2 2 0 0 0 .47-.72l2.13 1.26a3.29 3.29 0 0 1-.76 1.11 4.57 4.57 0 0 1-1.15.83 6.72 6.72 0 0 1-1.38.51 6.57 6.57 0 0 1-1.44.17 5 5 0 0 1-2.25-.5 5.65 5.65 0 0 1-1.76-1.33 6.07 6.07 0 0 1-1.56-4zM161.55 252.05v2.29h-7.94V243h7.8v2.29h-5.19v2.2h4.46v2.11h-4.46v2.41zM169.68 246.35a1.7 1.7 0 0 0-.33-.24 6 6 0 0 0-.72-.36 6.85 6.85 0 0 0-.94-.34 4 4 0 0 0-1-.14c-.93 0-1.4.31-1.4.94a.72.72 0 0 0 .16.47 1.24 1.24 0 0 0 .44.35 3.88 3.88 0 0 0 .74.27c.3.09.64.19 1 .29a13.11 13.11 0 0 1 1.46.49 3.81 3.81 0 0 1 1.1.65 2.63 2.63 0 0 1 .71.94 3.41 3.41 0 0 1 .24 1.34 3.34 3.34 0 0 1-.36 1.62 3 3 0 0 1-.94 1.06 4.07 4.07 0 0 1-1.36.59 6.75 6.75 0 0 1-1.57.18 9.26 9.26 0 0 1-1.27-.09 10.78 10.78 0 0 1-1.28-.28 10.13 10.13 0 0 1-1.2-.44 6.12 6.12 0 0 1-1.07-.59l1.14-2.27a2.77 2.77 0 0 0 .42.3 5.77 5.77 0 0 0 .87.45 7.36 7.36 0 0 0 1.15.39 4.67 4.67 0 0 0 1.29.18q1.38 0 1.38-.84a.71.71 0 0 0-.21-.53 1.7 1.7 0 0 0-.57-.37 5.41 5.41 0 0 0-.87-.31l-1.08-.32a9 9 0 0 1-1.36-.52 3.53 3.53 0 0 1-.94-.64 2.38 2.38 0 0 1-.56-.85 3.11 3.11 0 0 1-.18-1.11 3.63 3.63 0 0 1 .33-1.58 3.52 3.52 0 0 1 .91-1.15 4 4 0 0 1 1.33-.71 5.18 5.18 0 0 1 1.59-.23 5.73 5.73 0 0 1 1.17.11 9.14 9.14 0 0 1 1.09.28 8 8 0 0 1 1 .4q.45.22.84.45zM172.69 254.34V243h2.61v11.3zM177.46 254.34V243h4.22a6.19 6.19 0 0 1 2.45.45 5 5 0 0 1 1.76 1.21 5 5 0 0 1 1.06 1.79 6.52 6.52 0 0 1 .36 2.18 6.36 6.36 0 0 1-.4 2.33 4.9 4.9 0 0 1-1.14 1.79 5 5 0 0 1-1.78 1.14 6.29 6.29 0 0 1-2.31.41zm7.19-5.67a4.18 4.18 0 0 0-.2-1.36 3 3 0 0 0-.58-1.06 2.5 2.5 0 0 0-.94-.68 3.13 3.13 0 0 0-1.25-.24h-1.61v6.72h1.61a3 3 0 0 0 1.27-.26 2.51 2.51 0 0 0 .93-.71 3.09 3.09 0 0 0 .57-1.06 4.16 4.16 0 0 0 .2-1.35zM191.53 243h2.35l4.12 11.3h-2.67l-.88-2.53h-3.51l-.86 2.53h-2.67zm2.49 7l-1.32-4-1.35 4zM199.12 254.34V243h4.21a6.19 6.19 0 0 1 2.45.45 4.95 4.95 0 0 1 2.83 3 6.78 6.78 0 0 1 .35 2.18 6.58 6.58 0 0 1-.39 2.33 4.92 4.92 0 0 1-2.92 2.93 6.38 6.38 0 0 1-2.32.41zm7.19-5.67a4.46 4.46 0 0 0-.2-1.36 3.29 3.29 0 0 0-.58-1.06 2.67 2.67 0 0 0-.94-.68 3.15 3.15 0 0 0-1.26-.24h-1.61v6.72h1.61a3 3 0 0 0 1.27-.26 2.47 2.47 0 0 0 .94-.71 3.47 3.47 0 0 0 .57-1.06 4.45 4.45 0 0 0 .2-1.35zM218.45 252.05v2.29h-7.94V243h7.79v2.29h-5.18v2.2h4.45v2.11h-4.45v2.41zM226.58 246.35a2.48 2.48 0 0 0-.34-.24 6.61 6.61 0 0 0-.71-.36 7.37 7.37 0 0 0-.94-.34 4 4 0 0 0-1-.14c-.93 0-1.4.31-1.4.94a.72.72 0 0 0 .15.47 1.28 1.28 0 0 0 .45.35 3.64 3.64 0 0 0 .74.27l1 .29a12.45 12.45 0 0 1 1.46.49 3.74 3.74 0 0 1 1.11.65 2.73 2.73 0 0 1 .7.94 3.41 3.41 0 0 1 .25 1.34 3.34 3.34 0 0 1-.36 1.62 3 3 0 0 1-.95 1.06 3.93 3.93 0 0 1-1.35.59 6.83 6.83 0 0 1-1.58.18 9.37 9.37 0 0 1-1.27-.09 10.62 10.62 0 0 1-1.27-.28 9 9 0 0 1-1.2-.44 6.21 6.21 0 0 1-1.08-.59l1.15-2.27a2.47 2.47 0 0 0 .41.3 6.3 6.3 0 0 0 .87.45 7.73 7.73 0 0 0 1.15.39 4.78 4.78 0 0 0 1.29.18c.92 0 1.39-.28 1.39-.84a.71.71 0 0 0-.21-.53 1.94 1.94 0 0 0-.57-.37 6.21 6.21 0 0 0-.87-.31l-1.09-.32a8.89 8.89 0 0 1-1.35-.52 3.59 3.59 0 0 1-.95-.64 2.52 2.52 0 0 1-.56-.85 3.11 3.11 0 0 1-.18-1.11 3.35 3.35 0 0 1 1.24-2.73 4 4 0 0 1 1.33-.71 5.25 5.25 0 0 1 1.6-.23 5.63 5.63 0 0 1 1.16.11 9.31 9.31 0 0 1 1.1.28 8.71 8.71 0 0 1 1 .4c.3.15.58.3.83.45z"/><path class="c" d="M47.76 271.09v-6.46H49v6.46zM54.67 271.09h-1.22v-2.68a1.32 1.32 0 0 0-.2-.83.65.65 0 0 0-.55-.27 1 1 0 0 0-.37.08 1.07 1.07 0 0 0-.36.2 1.52 1.52 0 0 0-.31.31 1.36 1.36 0 0 0-.2.4v2.79h-1.22v-4.77h1.1v.88a1.75 1.75 0 0 1 .77-.7 2.43 2.43 0 0 1 1.12-.26 1.44 1.44 0 0 1 .73.16 1.29 1.29 0 0 1 .44.43 1.94 1.94 0 0 1 .21.6 3.91 3.91 0 0 1 .06.68zM56 271.09v-3.59h-.63v-.92H56v-.29a2.1 2.1 0 0 1 .43-1.41 1.4 1.4 0 0 1 1.16-.52 2.64 2.64 0 0 1 1.17.28l-.24.92a1.33 1.33 0 0 0-.32-.12 1.14 1.14 0 0 0-.35-.05c-.42 0-.63.28-.63.85v.34h1.16v.92H57.2v3.59zM61 271.18a2.69 2.69 0 0 1-1-.18 2.63 2.63 0 0 1-.79-.54 2.39 2.39 0 0 1-.49-.79 2.49 2.49 0 0 1-.17-.94 2.45 2.45 0 0 1 .17-.94 2.39 2.39 0 0 1 .49-.79 2.31 2.31 0 0 1 .79-.54 2.83 2.83 0 0 1 2.09 0 2.31 2.31 0 0 1 1.27 1.33 2.46 2.46 0 0 1 .18.94 2.5 2.5 0 0 1-.18.94 2.23 2.23 0 0 1-.49.79 2.47 2.47 0 0 1-.78.54 2.68 2.68 0 0 1-1.09.18zm-1.25-2.47a1.54 1.54 0 0 0 .1.58 1.43 1.43 0 0 0 .26.45 1.08 1.08 0 0 0 .4.3 1.13 1.13 0 0 0 .49.1 1.16 1.16 0 0 0 .49-.1 1.14 1.14 0 0 0 .39-.3 1.46 1.46 0 0 0 .27-.45 1.83 1.83 0 0 0 .09-.59 1.79 1.79 0 0 0-.09-.57 1.35 1.35 0 0 0-.27-.45 1.14 1.14 0 0 0-.39-.3 1.16 1.16 0 0 0-.49-.1 1 1 0 0 0-.49.11 1.08 1.08 0 0 0-.4.3 1.24 1.24 0 0 0-.26.45 1.56 1.56 0 0 0-.08.57zM67.16 267.38a2.25 2.25 0 0 0-1 .21 1.29 1.29 0 0 0-.63.61v2.89h-1.2v-4.77h1.11v1a2.83 2.83 0 0 1 .3-.44 2.43 2.43 0 0 1 .38-.34 1.59 1.59 0 0 1 .4-.22 1 1 0 0 1 .4-.08h.24zM75.24 271.09H74v-2.68a1.39 1.39 0 0 0-.2-.83.63.63 0 0 0-.54-.27 1 1 0 0 0-.68.28 1.6 1.6 0 0 0-.46.72v2.78h-1.18v-2.68a1.39 1.39 0 0 0-.2-.83.63.63 0 0 0-.54-.27 1 1 0 0 0-.68.28 1.52 1.52 0 0 0-.46.71v2.79h-1.22v-4.77h1.1v.88a1.85 1.85 0 0 1 .73-.71 2.09 2.09 0 0 1 1-.25 1.33 1.33 0 0 1 .92.29 1.3 1.3 0 0 1 .42.72 2 2 0 0 1 1.76-1 1.42 1.42 0 0 1 .72.16 1.26 1.26 0 0 1 .43.43 2 2 0 0 1 .22.6 3.89 3.89 0 0 1 0 .68zM77.61 271.18a1.75 1.75 0 0 1-.65-.12 1.6 1.6 0 0 1-.52-.31 1.82 1.82 0 0 1-.34-.48 1.46 1.46 0 0 1-.12-.6 1.36 1.36 0 0 1 .15-.63 1.38 1.38 0 0 1 .42-.48 1.82 1.82 0 0 1 .64-.31 2.66 2.66 0 0 1 .82-.12 3.18 3.18 0 0 1 .62.06 2.13 2.13 0 0 1 .54.15v-.27a1 1 0 0 0-.27-.73 1.09 1.09 0 0 0-.79-.25 2.15 2.15 0 0 0-.75.13 3.6 3.6 0 0 0-.74.4l-.38-.77a3.53 3.53 0 0 1 2-.61 2.3 2.3 0 0 1 1.59.51 1.83 1.83 0 0 1 .57 1.45v1.49a.41.41 0 0 0 .07.27.32.32 0 0 0 .22.09v1a2.77 2.77 0 0 1-.53.06.85.85 0 0 1-.54-.15.7.7 0 0 1-.23-.41v-.27a2.15 2.15 0 0 1-.77.64 2.3 2.3 0 0 1-1.01.26zm.34-.89a1.63 1.63 0 0 0 .59-.11 1.08 1.08 0 0 0 .43-.29.43.43 0 0 0 .2-.35V269a2.89 2.89 0 0 0-.47-.14 2.81 2.81 0 0 0-.49-.05 1.23 1.23 0 0 0-.77.22.66.66 0 0 0-.07 1.05.84.84 0 0 0 .63.21zM84.35 270.84c-.17.07-.37.15-.6.22a2.67 2.67 0 0 1-.75.11 1.51 1.51 0 0 1-.48-.07 1 1 0 0 1-.39-.2 1.1 1.1 0 0 1-.27-.36 1.44 1.44 0 0 1-.1-.54v-2.74h-.62v-.94h.62v-1.54H83v1.54h1v.94h-1v2.33a.46.46 0 0 0 .13.36.59.59 0 0 0 .33.1 1.19 1.19 0 0 0 .37-.06l.29-.11zM87.07 271.18a2.63 2.63 0 0 1-1-.2 2.34 2.34 0 0 1-.79-.53 2.4 2.4 0 0 1-.51-.78 2.5 2.5 0 0 1-.18-.94 2.56 2.56 0 0 1 .18-1 2.26 2.26 0 0 1 .5-.79 2.22 2.22 0 0 1 .79-.54 2.69 2.69 0 0 1 1-.2 2.61 2.61 0 0 1 1 .2 2.18 2.18 0 0 1 .78.54 2.27 2.27 0 0 1 .5.78 2.64 2.64 0 0 1 .16.93v.22a.74.74 0 0 1 0 .18h-3.65a1.47 1.47 0 0 0 .14.5 1.34 1.34 0 0 0 .28.38 1.29 1.29 0 0 0 .39.23 1.22 1.22 0 0 0 .46.09 1.36 1.36 0 0 0 .68-.18 1 1 0 0 0 .45-.47l1 .29a2.19 2.19 0 0 1-.84.9 2.62 2.62 0 0 1-1.34.39zm1.24-2.88a1.27 1.27 0 0 0-.4-.86 1.27 1.27 0 0 0-1.31-.23 1.31 1.31 0 0 0-.37.24 1.26 1.26 0 0 0-.27.37 1.31 1.31 0 0 0-.12.48zM94.29 271.18a3.87 3.87 0 0 1-1.17-.19 2.84 2.84 0 0 1-1-.55l.45-.76a4 4 0 0 0 .85.46 2.21 2.21 0 0 0 .82.16 1.06 1.06 0 0 0 .58-.13.44.44 0 0 0 .21-.39.41.41 0 0 0-.25-.38 5.93 5.93 0 0 0-.8-.27c-.31-.08-.57-.17-.79-.24a2.18 2.18 0 0 1-.53-.27 1 1 0 0 1-.29-.35 1.09 1.09 0 0 1-.09-.47 1.51 1.51 0 0 1 .14-.65 1.61 1.61 0 0 1 .4-.5 1.84 1.84 0 0 1 .59-.31 2.55 2.55 0 0 1 .74-.11 3 3 0 0 1 1 .16 2.42 2.42 0 0 1 .86.5l-.49.73a3.23 3.23 0 0 0-.71-.4 2 2 0 0 0-.68-.13 1 1 0 0 0-.51.13.45.45 0 0 0-.21.41.33.33 0 0 0 0 .21.47.47 0 0 0 .16.15 1.55 1.55 0 0 0 .28.12l.44.12a8.66 8.66 0 0 1 .84.26 2.09 2.09 0 0 1 .58.29 1 1 0 0 1 .32.37 1.21 1.21 0 0 1 .11.52 1.32 1.32 0 0 1-.52 1.1 2.23 2.23 0 0 1-1.33.41zM99.21 271.18a2.69 2.69 0 0 1-1-.2 2.47 2.47 0 0 1-.78-.54 2.41 2.41 0 0 1-.5-.79 2.7 2.7 0 0 1-.17-.94 2.66 2.66 0 0 1 .17-.94 2.41 2.41 0 0 1 .5-.79 2.18 2.18 0 0 1 .78-.54 2.69 2.69 0 0 1 1-.2 2.64 2.64 0 0 1 1 .2 2.18 2.18 0 0 1 .78.54 2.41 2.41 0 0 1 .5.79 2.66 2.66 0 0 1 .17.94 2.7 2.7 0 0 1-.17.94 2.31 2.31 0 0 1-1.27 1.33 2.69 2.69 0 0 1-1.01.2zM98 268.71a1.76 1.76 0 0 0 .1.58 1.43 1.43 0 0 0 .26.45 1.27 1.27 0 0 0 .4.3 1.25 1.25 0 0 0 1 0 1.27 1.27 0 0 0 .4-.3 1.43 1.43 0 0 0 .26-.45 1.82 1.82 0 0 0 .1-.59 1.8 1.8 0 0 0-.1-.57 1.33 1.33 0 0 0-.26-.45 1.27 1.27 0 0 0-.4-.3 1.13 1.13 0 0 0-.49-.1 1 1 0 0 0-.49.11 1.27 1.27 0 0 0-.4.3 1.24 1.24 0 0 0-.26.45 1.8 1.8 0 0 0-.12.57zM105.23 271.18a1.92 1.92 0 0 1-1-.25 1.82 1.82 0 0 1-.68-.67v.83h-1.06v-6.64h1.22v2.71a1.82 1.82 0 0 1 .67-.68 2 2 0 0 1 1.81 0 2.12 2.12 0 0 1 .66.54 2.4 2.4 0 0 1 .43.79 3 3 0 0 1 .15 1 2.78 2.78 0 0 1-.17 1 2.42 2.42 0 0 1-.47.77 2.32 2.32 0 0 1-.71.53 2.17 2.17 0 0 1-.85.07zm-.34-1a1.37 1.37 0 0 0 .54-.11 1.43 1.43 0 0 0 .42-.31 1.39 1.39 0 0 0 .26-.44 1.45 1.45 0 0 0 .1-.55 1.67 1.67 0 0 0-.09-.55 1.54 1.54 0 0 0-.26-.47 1.26 1.26 0 0 0-.4-.32 1.15 1.15 0 0 0-.5-.11 1.16 1.16 0 0 0-.73.26 1.78 1.78 0 0 0-.49.66v1.14a1.06 1.06 0 0 0 .18.33 2.18 2.18 0 0 0 .28.25 1.33 1.33 0 0 0 .34.16 1.12 1.12 0 0 0 .35.02zM111.12 267.38a2.25 2.25 0 0 0-1 .21 1.29 1.29 0 0 0-.63.61v2.89h-1.22v-4.77h1.12v1a2.83 2.83 0 0 1 .3-.44 2.92 2.92 0 0 1 .37-.34 1.64 1.64 0 0 1 .41-.22 1 1 0 0 1 .39-.08h.25zM113.77 271.18a2.63 2.63 0 0 1-1-.2 2.44 2.44 0 0 1-.79-.53 2.4 2.4 0 0 1-.51-.78 2.5 2.5 0 0 1-.18-.94 2.56 2.56 0 0 1 .18-1 2.26 2.26 0 0 1 .5-.79 2.31 2.31 0 0 1 .79-.54 2.77 2.77 0 0 1 1-.2 2.61 2.61 0 0 1 1 .2 2.31 2.31 0 0 1 .79.54 2.4 2.4 0 0 1 .49.78 2.64 2.64 0 0 1 .17.93v.22a.74.74 0 0 1 0 .18h-3.68a1.27 1.27 0 0 0 .13.5 1.56 1.56 0 0 0 .28.38 1.29 1.29 0 0 0 .39.23 1.22 1.22 0 0 0 .46.09 1.42 1.42 0 0 0 .69-.18 1 1 0 0 0 .44-.47l1 .29a2.12 2.12 0 0 1-.84.9 2.62 2.62 0 0 1-1.31.39zm1.23-2.88a1.3 1.3 0 0 0-.39-.86 1.25 1.25 0 0 0-.85-.32 1.14 1.14 0 0 0-.46.09 1.23 1.23 0 0 0-.38.24 1.26 1.26 0 0 0-.27.37 1.31 1.31 0 0 0-.12.48zM123.62 271.09h-1.22v-2.68a1.32 1.32 0 0 0-.2-.83.65.65 0 0 0-.55-.27 1.08 1.08 0 0 0-.38.08 1.13 1.13 0 0 0-.35.2 1.52 1.52 0 0 0-.31.31 1.36 1.36 0 0 0-.2.4v2.79h-1.22v-4.77h1.1v.88a1.75 1.75 0 0 1 .77-.7 2.43 2.43 0 0 1 1.12-.26 1.44 1.44 0 0 1 .73.16 1.29 1.29 0 0 1 .44.43 1.94 1.94 0 0 1 .21.6 3.91 3.91 0 0 1 .06.68zM126.14 271.18a1.34 1.34 0 0 1-1.12-.48 2.21 2.21 0 0 1-.38-1.4v-3h1.22v2.7c0 .73.26 1.1.79 1.1a1.26 1.26 0 0 0 .68-.21 1.55 1.55 0 0 0 .55-.65v-3h1.21v3.37a.48.48 0 0 0 .07.27.34.34 0 0 0 .22.09v1a2.08 2.08 0 0 1-.3 0h-.22a.86.86 0 0 1-.53-.15.61.61 0 0 1-.25-.41v-.38a2.12 2.12 0 0 1-.82.73 2.5 2.5 0 0 1-1.12.42zM132.51 271.18a2.59 2.59 0 0 1-1-.2 2.48 2.48 0 0 1-.8-.53 2.54 2.54 0 0 1-.5-.78 2.5 2.5 0 0 1-.18-.94 2.56 2.56 0 0 1 .18-1 2.26 2.26 0 0 1 .5-.79 2.22 2.22 0 0 1 .79-.54 2.69 2.69 0 0 1 1.05-.2 2.61 2.61 0 0 1 1 .2 2.18 2.18 0 0 1 .78.54 2.11 2.11 0 0 1 .49.78 2.44 2.44 0 0 1 .17.93v.22a.74.74 0 0 1 0 .18h-3.69a1.47 1.47 0 0 0 .14.5 1.34 1.34 0 0 0 .28.38 1.29 1.29 0 0 0 .39.23 1.22 1.22 0 0 0 .46.09 1.36 1.36 0 0 0 .68-.18.9.9 0 0 0 .44-.47l1 .29a2.26 2.26 0 0 1-.84.9 2.67 2.67 0 0 1-1.34.39zm1.24-2.88a1.27 1.27 0 0 0-.4-.86 1.27 1.27 0 0 0-1.31-.23 1.31 1.31 0 0 0-.37.24 1.26 1.26 0 0 0-.27.37 1.31 1.31 0 0 0-.12.48zM137.55 271.18a3.87 3.87 0 0 1-1.17-.19 2.88 2.88 0 0 1-1-.55l.46-.76a3.75 3.75 0 0 0 .85.46 2.17 2.17 0 0 0 .82.16 1 1 0 0 0 .57-.13.44.44 0 0 0 .21-.39.4.4 0 0 0-.24-.38 6.49 6.49 0 0 0-.8-.27c-.31-.08-.57-.17-.79-.24a2 2 0 0 1-.53-.27 1 1 0 0 1-.29-.35 1.09 1.09 0 0 1-.09-.47 1.38 1.38 0 0 1 .14-.65 1.45 1.45 0 0 1 .39-.5 1.89 1.89 0 0 1 .6-.31 2.5 2.5 0 0 1 .74-.11 3.05 3.05 0 0 1 1 .16 2.38 2.38 0 0 1 .85.5l-.49.73a3 3 0 0 0-.7-.4 2 2 0 0 0-.68-.13 1.05 1.05 0 0 0-.52.13.45.45 0 0 0-.21.41.41.41 0 0 0 .05.21.78.78 0 0 0 .16.15l.29.12.44.12a8.66 8.66 0 0 1 .84.26 2 2 0 0 1 .57.29 1 1 0 0 1 .33.37 1.21 1.21 0 0 1 .11.52 1.34 1.34 0 0 1-.52 1.1 2.25 2.25 0 0 1-1.39.41zM143.12 270.84a4.91 4.91 0 0 1-.6.22 2.6 2.6 0 0 1-.74.11 1.51 1.51 0 0 1-.48-.07 1 1 0 0 1-.39-.2 1.1 1.1 0 0 1-.27-.36 1.27 1.27 0 0 1-.1-.54v-2.74h-.63v-.94h.63v-1.54h1.22v1.54h1v.94h-1v2.33a.43.43 0 0 0 .13.36.55.55 0 0 0 .32.1 1.15 1.15 0 0 0 .37-.06l.3-.11zM146.59 267.38a2.25 2.25 0 0 0-1 .21 1.23 1.23 0 0 0-.62.61v2.89h-1.22v-4.77h1.12v1a1.9 1.9 0 0 1 .3-.44 2.37 2.37 0 0 1 .37-.34 1.59 1.59 0 0 1 .4-.22 1 1 0 0 1 .4-.08h.24zM149.24 271.18a2.69 2.69 0 0 1-1.05-.2 2.58 2.58 0 0 1-.78-.54 2.41 2.41 0 0 1-.5-.79 2.7 2.7 0 0 1-.17-.94 2.66 2.66 0 0 1 .17-.94 2.41 2.41 0 0 1 .5-.79 2.27 2.27 0 0 1 .78-.54 2.69 2.69 0 0 1 1.05-.2 2.61 2.61 0 0 1 1 .2 2.18 2.18 0 0 1 .78.54 2.41 2.41 0 0 1 .5.79 2.66 2.66 0 0 1 .17.94 2.7 2.7 0 0 1-.17.94 2.31 2.31 0 0 1-1.27 1.33 2.69 2.69 0 0 1-1.01.2zm-1.24-2.47a1.76 1.76 0 0 0 .1.58 1.43 1.43 0 0 0 .26.45 1.27 1.27 0 0 0 .4.3 1.25 1.25 0 0 0 1 0 1.27 1.27 0 0 0 .4-.3 1.43 1.43 0 0 0 .26-.45 1.82 1.82 0 0 0 .1-.59 1.8 1.8 0 0 0-.1-.57 1.33 1.33 0 0 0-.26-.45 1.27 1.27 0 0 0-.4-.3 1.13 1.13 0 0 0-.49-.1 1 1 0 0 0-.49.11 1.27 1.27 0 0 0-.4.3 1.24 1.24 0 0 0-.26.45 1.8 1.8 0 0 0-.12.57zM154.35 271.18a3.87 3.87 0 0 1-1.17-.19 2.75 2.75 0 0 1-1-.55l.45-.76a3.75 3.75 0 0 0 .85.46 2.21 2.21 0 0 0 .82.16 1.08 1.08 0 0 0 .58-.13.43.43 0 0 0 .2-.39.4.4 0 0 0-.24-.38 5.93 5.93 0 0 0-.8-.27c-.31-.08-.57-.17-.79-.24a2 2 0 0 1-.53-.27 1 1 0 0 1-.29-.35 1.09 1.09 0 0 1-.09-.47 1.51 1.51 0 0 1 .14-.65 1.48 1.48 0 0 1 .4-.5 1.74 1.74 0 0 1 .59-.31 2.5 2.5 0 0 1 .74-.11 3.05 3.05 0 0 1 1 .16 2.51 2.51 0 0 1 .86.5l-.5.73a3 3 0 0 0-.7-.4 2 2 0 0 0-.68-.13 1.05 1.05 0 0 0-.52.13.44.44 0 0 0-.2.41.41.41 0 0 0 0 .21.78.78 0 0 0 .16.15l.29.12.44.12a8.66 8.66 0 0 1 .84.26 2.09 2.09 0 0 1 .58.29 1.11 1.11 0 0 1 .32.37 1.21 1.21 0 0 1 .11.52 1.34 1.34 0 0 1-.52 1.1 2.25 2.25 0 0 1-1.34.41zM162.1 271.18a2 2 0 0 1-1-.25 1.84 1.84 0 0 1-.65-.68V273h-1.22v-6.7h1.06v.82a2 2 0 0 1 .69-.66 1.87 1.87 0 0 1 1-.24 2 2 0 0 1 .89.2 2.14 2.14 0 0 1 .7.52 2.3 2.3 0 0 1 .47.79 2.67 2.67 0 0 1 .17.95 3.13 3.13 0 0 1-.16 1 2.42 2.42 0 0 1-.43.79 2 2 0 0 1-.66.53 1.92 1.92 0 0 1-.86.18zm-.4-1a1.06 1.06 0 0 0 .5-.12 1.23 1.23 0 0 0 .4-.32 1.36 1.36 0 0 0 .25-.46 1.7 1.7 0 0 0 .09-.54 1.47 1.47 0 0 0-.1-.56 1.28 1.28 0 0 0-.28-.45 1.12 1.12 0 0 0-.41-.3 1.17 1.17 0 0 0-.53-.11 1.12 1.12 0 0 0-.35.06 1.5 1.5 0 0 0-.34.16 2.27 2.27 0 0 0-.28.26 1 1 0 0 0-.18.32v1.12a1.58 1.58 0 0 0 .5.67 1.12 1.12 0 0 0 .73.23zM165 264.45h1.22v5.11a.59.59 0 0 0 .13.41.47.47 0 0 0 .36.14h.25l.25-.09.16.92a2.24 2.24 0 0 1-.57.18 2.7 2.7 0 0 1-.6.07 1.18 1.18 0 0 1-.88-.31 1.14 1.14 0 0 1-.32-.88zM169.2 271.18a1.71 1.71 0 0 1-.65-.12 1.44 1.44 0 0 1-.86-.79 1.46 1.46 0 0 1-.12-.6 1.36 1.36 0 0 1 .15-.63 1.38 1.38 0 0 1 .42-.48 1.82 1.82 0 0 1 .64-.31 2.66 2.66 0 0 1 .82-.12 3.18 3.18 0 0 1 .62.06 2.13 2.13 0 0 1 .54.15v-.27a1 1 0 0 0-.27-.73 1.1 1.1 0 0 0-.79-.25 2.11 2.11 0 0 0-.75.13 3.94 3.94 0 0 0-.75.4l-.37-.77a3.48 3.48 0 0 1 2-.61 2.31 2.31 0 0 1 1.6.51 1.83 1.83 0 0 1 .57 1.45v1.49a.41.41 0 0 0 .07.27.32.32 0 0 0 .22.09v1a3 3 0 0 1-.54.06.82.82 0 0 1-.53-.15.7.7 0 0 1-.23-.41v-.27a2.15 2.15 0 0 1-.77.64 2.3 2.3 0 0 1-1.02.26zm.34-.89a1.67 1.67 0 0 0 .59-.11 1.16 1.16 0 0 0 .43-.29.46.46 0 0 0 .2-.35V269a3.23 3.23 0 0 0-.47-.14 2.91 2.91 0 0 0-.49-.05 1.26 1.26 0 0 0-.78.22.65.65 0 0 0-.06 1.05.84.84 0 0 0 .58.21zM177.54 271.09h-1.22v-2.68a1.32 1.32 0 0 0-.2-.83.63.63 0 0 0-.55-.27 1 1 0 0 0-.37.08 1.07 1.07 0 0 0-.36.2 1.52 1.52 0 0 0-.31.31 1.66 1.66 0 0 0-.2.4v2.79h-1.22v-4.77h1.1v.88a1.75 1.75 0 0 1 .77-.7 2.44 2.44 0 0 1 1.13-.26 1.42 1.42 0 0 1 .72.16 1.21 1.21 0 0 1 .44.43 1.94 1.94 0 0 1 .21.6 3.91 3.91 0 0 1 .06.68zM180.81 271.18a2.63 2.63 0 0 1-1-.2 2.44 2.44 0 0 1-.79-.53 2.4 2.4 0 0 1-.51-.78 2.49 2.49 0 0 1-.17-.94 2.55 2.55 0 0 1 .17-1 2.26 2.26 0 0 1 .5-.79 2.31 2.31 0 0 1 .79-.54 2.77 2.77 0 0 1 1-.2 2.61 2.61 0 0 1 1 .2 2.31 2.31 0 0 1 .79.54 2.25 2.25 0 0 1 .49.78 2.64 2.64 0 0 1 .17.93v.22a.74.74 0 0 1 0 .18h-3.65a1.27 1.27 0 0 0 .13.5 1.56 1.56 0 0 0 .28.38 1.23 1.23 0 0 0 .4.23 1.13 1.13 0 0 0 .45.09 1.42 1.42 0 0 0 .69-.18 1 1 0 0 0 .44-.47l1 .29a2.12 2.12 0 0 1-.84.9 2.62 2.62 0 0 1-1.34.39zm1.24-2.88a1.3 1.3 0 0 0-.39-.86 1.25 1.25 0 0 0-.85-.32 1.14 1.14 0 0 0-.46.09 1.23 1.23 0 0 0-.38.24 1.26 1.26 0 0 0-.27.37 1.31 1.31 0 0 0-.12.48zM185.85 271.18a3.87 3.87 0 0 1-1.17-.19 2.84 2.84 0 0 1-1-.55l.45-.76a3.75 3.75 0 0 0 .85.46 2.21 2.21 0 0 0 .82.16 1.06 1.06 0 0 0 .58-.13.44.44 0 0 0 .21-.39.41.41 0 0 0-.25-.38 5.93 5.93 0 0 0-.8-.27c-.31-.08-.57-.17-.79-.24a2.18 2.18 0 0 1-.53-.27 1 1 0 0 1-.29-.35 1.09 1.09 0 0 1-.09-.47 1.51 1.51 0 0 1 .14-.65 1.48 1.48 0 0 1 .4-.5 1.84 1.84 0 0 1 .59-.31 2.55 2.55 0 0 1 .74-.11 3.05 3.05 0 0 1 1 .16 2.42 2.42 0 0 1 .86.5l-.49.73a3.23 3.23 0 0 0-.71-.4 2 2 0 0 0-.68-.13 1 1 0 0 0-.51.13.45.45 0 0 0-.21.41.33.33 0 0 0 .05.21.47.47 0 0 0 .16.15 1.55 1.55 0 0 0 .28.12l.44.12a8.66 8.66 0 0 1 .84.26 2.09 2.09 0 0 1 .58.29 1 1 0 0 1 .32.37 1.21 1.21 0 0 1 .11.52 1.32 1.32 0 0 1-.52 1.1 2.25 2.25 0 0 1-1.38.41zM193.61 271.18a2 2 0 0 1-1-.25 1.84 1.84 0 0 1-.65-.68V273h-1.22v-6.7h1.06v.82a2 2 0 0 1 .69-.66 1.9 1.9 0 0 1 1-.24 2 2 0 0 1 .89.2 2.29 2.29 0 0 1 .71.52 2.45 2.45 0 0 1 .46.79 2.67 2.67 0 0 1 .17.95 2.86 2.86 0 0 1-.16 1 2.42 2.42 0 0 1-.43.79 2 2 0 0 1-.66.53 1.91 1.91 0 0 1-.86.18zm-.41-1a1.06 1.06 0 0 0 .5-.12 1.13 1.13 0 0 0 .4-.32 1.36 1.36 0 0 0 .25-.46 1.7 1.7 0 0 0 .09-.54 1.47 1.47 0 0 0-.1-.56 1.15 1.15 0 0 0-.28-.45 1.12 1.12 0 0 0-.41-.3 1.17 1.17 0 0 0-.53-.11 1.12 1.12 0 0 0-.35.06 1.5 1.5 0 0 0-.34.16 1.66 1.66 0 0 0-.27.26.88.88 0 0 0-.19.32v1.12a1.67 1.67 0 0 0 .5.67 1.14 1.14 0 0 0 .73.23zM199.35 267.38a2.25 2.25 0 0 0-1 .21 1.29 1.29 0 0 0-.63.61v2.89h-1.22v-4.77h1.12v1a2.83 2.83 0 0 1 .3-.44 2.43 2.43 0 0 1 .38-.34 1.44 1.44 0 0 1 .4-.22 1 1 0 0 1 .4-.08h.24zM202 271.18a2.64 2.64 0 0 1-1-.2 2.44 2.44 0 0 1-.79-.53 2.4 2.4 0 0 1-.51-.78 2.7 2.7 0 0 1-.17-.94 2.55 2.55 0 0 1 .17-1 2.26 2.26 0 0 1 .5-.79 2.31 2.31 0 0 1 .79-.54 2.77 2.77 0 0 1 1-.2 2.69 2.69 0 0 1 1.05.2 2.37 2.37 0 0 1 .78.54 2.25 2.25 0 0 1 .49.78 2.64 2.64 0 0 1 .17.93 1.62 1.62 0 0 1 0 .22.74.74 0 0 1 0 .18h-3.68a1.47 1.47 0 0 0 .13.5 1.37 1.37 0 0 0 .29.38 1.09 1.09 0 0 0 .39.23 1.13 1.13 0 0 0 .45.09 1.42 1.42 0 0 0 .69-.18 1 1 0 0 0 .44-.47l1 .29a2.12 2.12 0 0 1-.84.9 2.61 2.61 0 0 1-1.35.39zm1.23-2.88a1.3 1.3 0 0 0-.39-.86 1.25 1.25 0 0 0-.85-.32 1.14 1.14 0 0 0-.46.09 1.36 1.36 0 0 0-.38.24 1.26 1.26 0 0 0-.27.37 1.31 1.31 0 0 0-.12.48zM205.49 271.09v-3.59h-.63v-.92h.63v-.29a2.1 2.1 0 0 1 .43-1.41 1.4 1.4 0 0 1 1.16-.52 2.64 2.64 0 0 1 1.17.28l-.24.92a1.27 1.27 0 0 0-.33-.12 1 1 0 0 0-.34-.05c-.42 0-.63.28-.63.85v.34h1.16v.92h-1.16v3.59zM210.53 271.18a2.63 2.63 0 0 1-1-.2 2.34 2.34 0 0 1-.79-.53 2.4 2.4 0 0 1-.51-.78 2.49 2.49 0 0 1-.17-.94 2.55 2.55 0 0 1 .17-1 2.26 2.26 0 0 1 .5-.79 2.31 2.31 0 0 1 .79-.54 2.77 2.77 0 0 1 1-.2 2.61 2.61 0 0 1 1 .2 2.31 2.31 0 0 1 .79.54 2.25 2.25 0 0 1 .49.78 2.64 2.64 0 0 1 .17.93v.22a.74.74 0 0 1 0 .18h-3.68a1.27 1.27 0 0 0 .13.5 1.56 1.56 0 0 0 .28.38 1.23 1.23 0 0 0 .4.23 1.13 1.13 0 0 0 .45.09 1.42 1.42 0 0 0 .69-.18 1 1 0 0 0 .44-.47l1 .29a2.12 2.12 0 0 1-.84.9 2.62 2.62 0 0 1-1.31.39zm1.24-2.88a1.3 1.3 0 0 0-.39-.86 1.25 1.25 0 0 0-.85-.32 1.14 1.14 0 0 0-.46.09 1.23 1.23 0 0 0-.38.24 1.26 1.26 0 0 0-.27.37 1.31 1.31 0 0 0-.12.48zM216.61 267.38a2.25 2.25 0 0 0-1 .21 1.29 1.29 0 0 0-.63.61v2.89h-1.22v-4.77h1.12v1a1.9 1.9 0 0 1 .3-.44 2.37 2.37 0 0 1 .37-.34 1.64 1.64 0 0 1 .41-.22.94.94 0 0 1 .39-.08h.25zM219.26 271.18a2.63 2.63 0 0 1-1-.2 2.34 2.34 0 0 1-.79-.53 2.4 2.4 0 0 1-.51-.78 2.5 2.5 0 0 1-.18-.94 2.56 2.56 0 0 1 .18-1 2.26 2.26 0 0 1 .5-.79 2.22 2.22 0 0 1 .79-.54 2.69 2.69 0 0 1 1.05-.2 2.61 2.61 0 0 1 1 .2 2.18 2.18 0 0 1 .78.54 2.27 2.27 0 0 1 .5.78 2.64 2.64 0 0 1 .16.93v.22a.74.74 0 0 1 0 .18H218a1.47 1.47 0 0 0 .14.5 1.34 1.34 0 0 0 .28.38 1.29 1.29 0 0 0 .39.23 1.22 1.22 0 0 0 .46.09 1.42 1.42 0 0 0 .69-.18 1 1 0 0 0 .44-.47l1 .29a2.12 2.12 0 0 1-.84.9 2.64 2.64 0 0 1-1.3.39zm1.24-2.88a1.27 1.27 0 0 0-.4-.86 1.27 1.27 0 0 0-1.31-.23 1.31 1.31 0 0 0-.37.24 1.26 1.26 0 0 0-.27.37 1.31 1.31 0 0 0-.12.48zM226.93 271.09h-1.22v-2.68a1.39 1.39 0 0 0-.2-.83.65.65 0 0 0-.56-.27 1 1 0 0 0-.37.08 1.07 1.07 0 0 0-.36.2 1.77 1.77 0 0 0-.3.31 1.36 1.36 0 0 0-.2.4v2.79h-1.22v-4.77h1.1v.88a1.72 1.72 0 0 1 .76-.7 2.47 2.47 0 0 1 1.13-.26 1.44 1.44 0 0 1 .73.16 1.18 1.18 0 0 1 .43.43 1.73 1.73 0 0 1 .22.6 3.91 3.91 0 0 1 .06.68zM227.69 268.7a2.7 2.7 0 0 1 .17-.94 2.27 2.27 0 0 1 .5-.78 2.31 2.31 0 0 1 .79-.54 2.69 2.69 0 0 1 1-.2 2.46 2.46 0 0 1 1.33.34 2 2 0 0 1 .82.88l-1.19.36a1.1 1.1 0 0 0-1-.54 1.13 1.13 0 0 0-.49.1 1.41 1.41 0 0 0-.4.29 1.43 1.43 0 0 0-.26.45 1.76 1.76 0 0 0 0 1.17 1.68 1.68 0 0 0 .27.45 1.17 1.17 0 0 0 .4.3 1.2 1.2 0 0 0 1.08-.06.93.93 0 0 0 .39-.4l1.19.36a2 2 0 0 1-.81.89 2.51 2.51 0 0 1-1.35.35 2.69 2.69 0 0 1-1.05-.2 2.63 2.63 0 0 1-.79-.54 2.36 2.36 0 0 1-.5-.8 2.5 2.5 0 0 1-.1-.94zM233.12 265.66v-1.21h1.22v1.21zm0 5.43v-4.77h1.22v4.77zM236.74 271.18a1.75 1.75 0 0 1-.65-.12 1.44 1.44 0 0 1-.86-.79 1.46 1.46 0 0 1-.12-.6 1.36 1.36 0 0 1 .15-.63 1.38 1.38 0 0 1 .42-.48 1.82 1.82 0 0 1 .64-.31 2.66 2.66 0 0 1 .82-.12 3.18 3.18 0 0 1 .62.06 2.13 2.13 0 0 1 .54.15v-.27a1 1 0 0 0-.27-.73 1.1 1.1 0 0 0-.79-.25 2.11 2.11 0 0 0-.75.13 3.6 3.6 0 0 0-.74.4l-.38-.77a3.52 3.52 0 0 1 2-.61 2.31 2.31 0 0 1 1.6.51 1.83 1.83 0 0 1 .57 1.45v1.49a.41.41 0 0 0 .07.27.32.32 0 0 0 .22.09v1a3 3 0 0 1-.54.06.84.84 0 0 1-.53-.15.7.7 0 0 1-.23-.41v-.27a2.15 2.15 0 0 1-.77.64 2.3 2.3 0 0 1-1.02.26zm.34-.89a1.67 1.67 0 0 0 .59-.11 1.16 1.16 0 0 0 .43-.29.46.46 0 0 0 .2-.35V269a2.62 2.62 0 0 0-1-.19 1.26 1.26 0 0 0-.78.22.65.65 0 0 0-.06 1.05.84.84 0 0 0 .62.21zM240.65 264.45h1.21v5.11a.65.65 0 0 0 .13.41.49.49 0 0 0 .36.14h.25l.25-.09.16.92a2.24 2.24 0 0 1-.57.18 2.7 2.7 0 0 1-.6.07 1.18 1.18 0 0 1-.88-.31 1.13 1.13 0 0 1-.31-.86zM245.75 271.18a2.64 2.64 0 0 1-1-.2 2.44 2.44 0 0 1-.79-.53 2.4 2.4 0 0 1-.51-.78 2.49 2.49 0 0 1-.17-.94 2.55 2.55 0 0 1 .17-1 2.26 2.26 0 0 1 .5-.79 2.31 2.31 0 0 1 .79-.54 2.77 2.77 0 0 1 1.05-.2 2.61 2.61 0 0 1 1 .2 2.31 2.31 0 0 1 .79.54 2.25 2.25 0 0 1 .49.78 2.64 2.64 0 0 1 .17.93v.22a.74.74 0 0 1 0 .18h-3.68a1.27 1.27 0 0 0 .13.5 1.37 1.37 0 0 0 .29.38 1.09 1.09 0 0 0 .39.23 1.13 1.13 0 0 0 .45.09 1.42 1.42 0 0 0 .69-.18 1 1 0 0 0 .44-.47l1 .29a2.12 2.12 0 0 1-.84.9 2.61 2.61 0 0 1-1.36.39zm1.25-2.88a1.3 1.3 0 0 0-.39-.86 1.25 1.25 0 0 0-.85-.32 1.14 1.14 0 0 0-.46.09 1.23 1.23 0 0 0-.38.24 1.26 1.26 0 0 0-.27.37 1.31 1.31 0 0 0-.12.48zM250.78 271.18a3.87 3.87 0 0 1-1.17-.19 2.84 2.84 0 0 1-1-.55l.45-.76a4 4 0 0 0 .85.46 2.21 2.21 0 0 0 .82.16 1.06 1.06 0 0 0 .58-.13.44.44 0 0 0 .21-.39.4.4 0 0 0-.25-.38 5.93 5.93 0 0 0-.8-.27c-.31-.08-.57-.17-.79-.24a2.18 2.18 0 0 1-.53-.27 1 1 0 0 1-.29-.35 1.09 1.09 0 0 1-.09-.47 1.51 1.51 0 0 1 .14-.65 1.61 1.61 0 0 1 .4-.5 2 2 0 0 1 .59-.31 2.55 2.55 0 0 1 .74-.11 3 3 0 0 1 1 .16 2.42 2.42 0 0 1 .86.5l-.49.73a3.23 3.23 0 0 0-.71-.4 2 2 0 0 0-.67-.13 1 1 0 0 0-.52.13.45.45 0 0 0-.21.41.33.33 0 0 0 0 .21.47.47 0 0 0 .16.15 1.55 1.55 0 0 0 .28.12l.44.12c.33.09.61.17.85.26a2.17 2.17 0 0 1 .57.29 1 1 0 0 1 .33.37 1.38 1.38 0 0 1 .1.52 1.32 1.32 0 0 1-.52 1.1 2.21 2.21 0 0 1-1.33.41zM106.37 282.92a1.63 1.63 0 0 0 .3.07 1.19 1.19 0 0 0 .25 0 .49.49 0 0 0 .21 0 .39.39 0 0 0 .18-.16 1.72 1.72 0 0 0 .17-.31c0-.14.11-.3.17-.5l-1.88-4.77H107l1.29 3.71 1.15-3.71h1.15l-2 5.71a1.81 1.81 0 0 1-.59.82 1.69 1.69 0 0 1-1 .32h-.3l-.31-.08zM115.41 282.09a2.69 2.69 0 0 1-1-.2 2.63 2.63 0 0 1-.79-.54 2.39 2.39 0 0 1-.49-.79 2.49 2.49 0 0 1-.17-.94 2.45 2.45 0 0 1 .17-.94 2.39 2.39 0 0 1 .49-.79 2.31 2.31 0 0 1 .79-.54 2.83 2.83 0 0 1 2.09 0 2.31 2.31 0 0 1 1.27 1.33 2.46 2.46 0 0 1 .18.94 2.5 2.5 0 0 1-.18.94 2.23 2.23 0 0 1-.49.79 2.47 2.47 0 0 1-.78.54 2.68 2.68 0 0 1-1.09.2zm-1.25-2.47a1.54 1.54 0 0 0 .1.58 1.43 1.43 0 0 0 .26.45 1.08 1.08 0 0 0 .4.3 1.13 1.13 0 0 0 .49.1 1.16 1.16 0 0 0 .49-.1 1.14 1.14 0 0 0 .39-.3 1.68 1.68 0 0 0 .27-.45 1.83 1.83 0 0 0 .09-.59 1.79 1.79 0 0 0-.09-.57 1.54 1.54 0 0 0-.27-.45 1.14 1.14 0 0 0-.39-.3 1.16 1.16 0 0 0-.49-.1 1 1 0 0 0-.49.11 1.08 1.08 0 0 0-.4.3 1.33 1.33 0 0 0-.26.45 1.56 1.56 0 0 0-.1.57zM118.93 282v-3.59h-.62v-.92h.62v-.29a2.16 2.16 0 0 1 .43-1.41 1.42 1.42 0 0 1 1.16-.52 2.72 2.72 0 0 1 1.18.28l-.25.92a1.33 1.33 0 0 0-.32-.12 1.08 1.08 0 0 0-.34-.05c-.43 0-.64.28-.64.85v.34h1.17v.92h-1.17V282zM124 282.09a2.68 2.68 0 0 1-1-.2 2.44 2.44 0 0 1-.79-.53 2.27 2.27 0 0 1-.5-.78 2.5 2.5 0 0 1-.18-.94 2.77 2.77 0 0 1 .17-1 2.41 2.41 0 0 1 .5-.79 2.36 2.36 0 0 1 .8-.54 2.69 2.69 0 0 1 1-.2 2.64 2.64 0 0 1 1 .2 2.18 2.18 0 0 1 .78.54 2.11 2.11 0 0 1 .49.78 2.64 2.64 0 0 1 .17.93v.22a.66.66 0 0 1 0 .18h-3.68a1.47 1.47 0 0 0 .14.5 1.16 1.16 0 0 0 .67.61 1.2 1.2 0 0 0 .45.09 1.37 1.37 0 0 0 .69-.18 1 1 0 0 0 .44-.47l1 .29a2.19 2.19 0 0 1-.84.9 2.67 2.67 0 0 1-1.31.39zm1.24-2.88a1.31 1.31 0 0 0-.4-.86 1.23 1.23 0 0 0-.84-.35 1.18 1.18 0 0 0-.46.09 1.36 1.36 0 0 0-.38.24 1.23 1.23 0 0 0-.26.37 1.55 1.55 0 0 0-.13.48zM130.05 278.29a2.25 2.25 0 0 0-1 .21 1.29 1.29 0 0 0-.63.61V282h-1.21v-4.77h1.11v1a2.83 2.83 0 0 1 .3-.44 2.43 2.43 0 0 1 .38-.34 1.59 1.59 0 0 1 .4-.22 1 1 0 0 1 .4-.08h.24zM133.59 281.75a4.91 4.91 0 0 1-.6.22 2.67 2.67 0 0 1-.75.11 1.45 1.45 0 0 1-.47-.07 1 1 0 0 1-.39-.2.88.88 0 0 1-.27-.36 1.27 1.27 0 0 1-.1-.54v-2.74h-.63v-.94h.62v-1.54h1.22v1.54h1v.94h-1v2.33a.43.43 0 0 0 .13.36.55.55 0 0 0 .32.1 1.15 1.15 0 0 0 .37-.06l.29-.11zM135.53 282.09a1.71 1.71 0 0 1-.65-.12 1.44 1.44 0 0 1-.86-.79 1.46 1.46 0 0 1-.12-.6 1.29 1.29 0 0 1 .15-.62 1.33 1.33 0 0 1 .42-.49 1.82 1.82 0 0 1 .64-.31 2.66 2.66 0 0 1 .82-.12 3.18 3.18 0 0 1 .62.06 2.13 2.13 0 0 1 .54.15V279a1 1 0 0 0-.27-.73 1.1 1.1 0 0 0-.82-.27 2.11 2.11 0 0 0-.75.13 3.94 3.94 0 0 0-.75.4l-.37-.77a3.48 3.48 0 0 1 2-.61 2.31 2.31 0 0 1 1.6.51 1.83 1.83 0 0 1 .57 1.45v1.49a.41.41 0 0 0 .07.27.32.32 0 0 0 .22.09v1a3 3 0 0 1-.54.06.82.82 0 0 1-.53-.15.7.7 0 0 1-.23-.41v-.27a2.15 2.15 0 0 1-.77.64 2.3 2.3 0 0 1-.99.26zm.34-.89a1.67 1.67 0 0 0 .59-.11 1.16 1.16 0 0 0 .43-.29.46.46 0 0 0 .2-.35v-.54a3.23 3.23 0 0 0-.47-.14 2.91 2.91 0 0 0-.49 0 1.26 1.26 0 0 0-.78.22.65.65 0 0 0-.06 1.05.84.84 0 0 0 .58.16zM141.24 282.09a3.87 3.87 0 0 1-1.17-.19 2.84 2.84 0 0 1-1-.55l.45-.76a4 4 0 0 0 .85.46 2.22 2.22 0 0 0 .83.16 1 1 0 0 0 .57-.13.44.44 0 0 0 .21-.39.4.4 0 0 0-.25-.38 5.93 5.93 0 0 0-.8-.27c-.31-.08-.57-.16-.79-.24a1.93 1.93 0 0 1-.52-.27.9.9 0 0 1-.3-.35 1.09 1.09 0 0 1-.09-.47 1.51 1.51 0 0 1 .14-.65 1.61 1.61 0 0 1 .4-.5 1.89 1.89 0 0 1 .6-.31 2.45 2.45 0 0 1 .74-.11 3 3 0 0 1 1 .16 2.42 2.42 0 0 1 .86.5l-.49.73a3 3 0 0 0-.71-.4 2 2 0 0 0-.67-.13 1 1 0 0 0-.52.13.45.45 0 0 0-.21.41.41.41 0 0 0 .05.21.59.59 0 0 0 .16.15 1.7 1.7 0 0 0 .29.12l.44.12c.32.09.6.17.84.26a2.17 2.17 0 0 1 .57.29 1 1 0 0 1 .33.37 1.21 1.21 0 0 1 .1.52 1.32 1.32 0 0 1-.52 1.1 2.21 2.21 0 0 1-1.39.41zM148.35 282.09a2.63 2.63 0 0 1-1-.2 2.34 2.34 0 0 1-.79-.53 2.29 2.29 0 0 1-.51-.78 2.5 2.5 0 0 1-.18-.94 2.56 2.56 0 0 1 .18-1 2.26 2.26 0 0 1 .5-.79 2.31 2.31 0 0 1 .79-.54 2.73 2.73 0 0 1 1.05-.2 2.61 2.61 0 0 1 1 .2 2.31 2.31 0 0 1 .79.54 2.4 2.4 0 0 1 .49.78 2.64 2.64 0 0 1 .16.93v.22a.74.74 0 0 1 0 .18h-3.68a1.27 1.27 0 0 0 .13.5 1.34 1.34 0 0 0 .28.38 1.29 1.29 0 0 0 .39.23 1.22 1.22 0 0 0 .46.09 1.42 1.42 0 0 0 .69-.18 1 1 0 0 0 .44-.47l1 .29a2.07 2.07 0 0 1-.84.9 2.62 2.62 0 0 1-1.35.39zm1.24-2.88a1.27 1.27 0 0 0-.4-.86 1.21 1.21 0 0 0-.85-.32 1.13 1.13 0 0 0-.45.09 1.23 1.23 0 0 0-.38.24 1.26 1.26 0 0 0-.27.37 1.31 1.31 0 0 0-.12.48zM153.39 282.09a3.87 3.87 0 0 1-1.17-.19 2.75 2.75 0 0 1-1-.55l.45-.76a3.75 3.75 0 0 0 .85.46 2.21 2.21 0 0 0 .82.16 1.08 1.08 0 0 0 .58-.13.43.43 0 0 0 .2-.39.4.4 0 0 0-.24-.38 5.93 5.93 0 0 0-.8-.27c-.31-.08-.57-.16-.79-.24a2 2 0 0 1-.53-.27 1 1 0 0 1-.29-.35 1.09 1.09 0 0 1-.09-.47 1.51 1.51 0 0 1 .14-.65 1.48 1.48 0 0 1 .4-.5 1.74 1.74 0 0 1 .59-.31 2.5 2.5 0 0 1 .74-.11 3.05 3.05 0 0 1 1 .16 2.42 2.42 0 0 1 .86.5l-.5.73a3 3 0 0 0-.7-.4 2 2 0 0 0-.68-.13 1.05 1.05 0 0 0-.52.13.44.44 0 0 0-.2.41.41.41 0 0 0 0 .21.78.78 0 0 0 .16.15l.29.12.44.12a8.66 8.66 0 0 1 .84.26 2.09 2.09 0 0 1 .58.29 1.11 1.11 0 0 1 .32.37 1.21 1.21 0 0 1 .11.52 1.34 1.34 0 0 1-.52 1.1 2.25 2.25 0 0 1-1.34.41zM159 282.09a2 2 0 0 1-1-.25 1.77 1.77 0 0 1-.65-.68v2.77h-1.22v-6.7h1.06v.82a2 2 0 0 1 .68-.66 1.91 1.91 0 0 1 1-.24 2 2 0 0 1 .89.2 2.14 2.14 0 0 1 .7.52 2.47 2.47 0 0 1 .47.79 2.71 2.71 0 0 1 .16.95 3.12 3.12 0 0 1-.15 1 2.62 2.62 0 0 1-.43.79 2.24 2.24 0 0 1-.66.53 2 2 0 0 1-.85.16zm-.41-1a1.1 1.1 0 0 0 .51-.12 1.2 1.2 0 0 0 .39-.32 1.38 1.38 0 0 0 .26-.46 1.7 1.7 0 0 0 .09-.54 1.47 1.47 0 0 0-.1-.56 1.28 1.28 0 0 0-.28-.45 1.25 1.25 0 0 0-.42-.3 1.18 1.18 0 0 0-.87-.05 1.19 1.19 0 0 0-.34.16 1.73 1.73 0 0 0-.28.26 1 1 0 0 0-.18.32v1.12a1.58 1.58 0 0 0 .5.67 1.11 1.11 0 0 0 .68.23zM164.08 282.09a2.59 2.59 0 0 1-1-.2 2.48 2.48 0 0 1-.8-.53 2.43 2.43 0 0 1-.5-.78 2.5 2.5 0 0 1-.18-.94 2.56 2.56 0 0 1 .18-1 2.26 2.26 0 0 1 .5-.79 2.22 2.22 0 0 1 .79-.54 2.69 2.69 0 0 1 1.05-.2 2.61 2.61 0 0 1 1 .2 2.18 2.18 0 0 1 .78.54 2.27 2.27 0 0 1 .5.78 2.64 2.64 0 0 1 .16.93v.22a.74.74 0 0 1 0 .18h-3.69a1.47 1.47 0 0 0 .14.5 1.34 1.34 0 0 0 .28.38 1.29 1.29 0 0 0 .39.23 1.22 1.22 0 0 0 .46.09 1.36 1.36 0 0 0 .68-.18.9.9 0 0 0 .44-.47l1.05.29a2.13 2.13 0 0 1-.84.9 2.64 2.64 0 0 1-1.39.39zm1.24-2.88a1.27 1.27 0 0 0-.4-.86 1.27 1.27 0 0 0-1.31-.23 1.31 1.31 0 0 0-.37.24 1.26 1.26 0 0 0-.27.37 1.31 1.31 0 0 0-.12.48zM167 279.61a2.7 2.7 0 0 1 .17-.94 2.27 2.27 0 0 1 .5-.78 2.31 2.31 0 0 1 .79-.54 2.69 2.69 0 0 1 1.05-.2 2.46 2.46 0 0 1 1.33.34 2 2 0 0 1 .82.88l-1.19.36a1.05 1.05 0 0 0-.41-.4 1.08 1.08 0 0 0-.56-.14 1.13 1.13 0 0 0-.49.1 1.28 1.28 0 0 0-.4.29 1.43 1.43 0 0 0-.26.45 1.57 1.57 0 0 0-.1.58 1.82 1.82 0 0 0 .1.59 1.68 1.68 0 0 0 .27.45 1.08 1.08 0 0 0 .4.3 1.2 1.2 0 0 0 1.08-.06.93.93 0 0 0 .39-.4l1.19.36a2 2 0 0 1-.81.89 2.53 2.53 0 0 1-1.35.35 2.69 2.69 0 0 1-1-.2 2.63 2.63 0 0 1-.79-.54 2.21 2.21 0 0 1-.5-.8 2.5 2.5 0 0 1-.23-.94zM172.45 276.57v-1.21h1.21v1.21zm0 5.43v-4.77h1.21V282zM176.06 282.09a1.69 1.69 0 0 1-.64-.12 1.44 1.44 0 0 1-.86-.79 1.46 1.46 0 0 1-.12-.6 1.29 1.29 0 0 1 .15-.62 1.33 1.33 0 0 1 .42-.49 1.74 1.74 0 0 1 .64-.31 2.6 2.6 0 0 1 .81-.12 3.28 3.28 0 0 1 .63.06 2.13 2.13 0 0 1 .54.15V279a1 1 0 0 0-.27-.73 1.11 1.11 0 0 0-.8-.25 2.1 2.1 0 0 0-.74.13 3.94 3.94 0 0 0-.75.4l-.37-.77a3.48 3.48 0 0 1 2-.61 2.31 2.31 0 0 1 1.6.51 1.83 1.83 0 0 1 .57 1.45v1.49a.41.41 0 0 0 .07.27.3.3 0 0 0 .22.09v1a3 3 0 0 1-.54.06.82.82 0 0 1-.53-.15.7.7 0 0 1-.23-.41v-.27a2.15 2.15 0 0 1-.77.64 2.34 2.34 0 0 1-1.03.24zm.35-.89a1.67 1.67 0 0 0 .59-.11 1.16 1.16 0 0 0 .43-.29.46.46 0 0 0 .2-.35v-.54a3.23 3.23 0 0 0-.47-.14 2.91 2.91 0 0 0-.49 0 1.26 1.26 0 0 0-.78.22.65.65 0 0 0-.06 1.05.84.84 0 0 0 .58.16zM180 275.36h1.22v5.11a.59.59 0 0 0 .13.41.46.46 0 0 0 .36.14h.24l.25-.09.17.92a2.32 2.32 0 0 1-.58.18 2.55 2.55 0 0 1-.59.07 1.18 1.18 0 0 1-.88-.31 1.14 1.14 0 0 1-.32-.86zM185.07 282.09a2.63 2.63 0 0 1-1-.2 2.34 2.34 0 0 1-.79-.53 2.29 2.29 0 0 1-.51-.78 2.5 2.5 0 0 1-.18-.94 2.56 2.56 0 0 1 .18-1 2.26 2.26 0 0 1 .5-.79 2.31 2.31 0 0 1 .79-.54 2.69 2.69 0 0 1 1.05-.2 2.61 2.61 0 0 1 1 .2 2.31 2.31 0 0 1 .79.54 2.4 2.4 0 0 1 .49.78 2.64 2.64 0 0 1 .16.93v.22a.74.74 0 0 1 0 .18h-3.68a1.27 1.27 0 0 0 .13.5 1.34 1.34 0 0 0 .28.38 1.29 1.29 0 0 0 .39.23 1.22 1.22 0 0 0 .46.09 1.42 1.42 0 0 0 .69-.18 1 1 0 0 0 .44-.47l1 .29a2.07 2.07 0 0 1-.84.9 2.62 2.62 0 0 1-1.35.39zm1.24-2.88a1.27 1.27 0 0 0-.4-.86 1.21 1.21 0 0 0-.85-.32 1.13 1.13 0 0 0-.45.09 1.23 1.23 0 0 0-.38.24 1.26 1.26 0 0 0-.27.37 1.31 1.31 0 0 0-.12.48zM190.11 282.09a3.87 3.87 0 0 1-1.17-.19 2.84 2.84 0 0 1-1-.55l.45-.76a3.75 3.75 0 0 0 .85.46 2.21 2.21 0 0 0 .82.16 1.06 1.06 0 0 0 .58-.13.44.44 0 0 0 .21-.39.41.41 0 0 0-.25-.38 5.93 5.93 0 0 0-.8-.27c-.31-.08-.57-.16-.79-.24a2 2 0 0 1-.53-.27 1 1 0 0 1-.29-.35 1.09 1.09 0 0 1-.09-.47 1.51 1.51 0 0 1 .14-.65 1.48 1.48 0 0 1 .4-.5 1.84 1.84 0 0 1 .59-.31 2.55 2.55 0 0 1 .74-.11 3.05 3.05 0 0 1 1 .16 2.42 2.42 0 0 1 .86.5l-.49.73a3.23 3.23 0 0 0-.71-.4 2 2 0 0 0-.63-.13 1.05 1.05 0 0 0-.52.13.46.46 0 0 0-.2.41.33.33 0 0 0 .05.21.53.53 0 0 0 .15.15l.29.12.44.12a8.66 8.66 0 0 1 .84.26 2.09 2.09 0 0 1 .58.29 1.11 1.11 0 0 1 .32.37 1.21 1.21 0 0 1 .11.52 1.32 1.32 0 0 1-.52 1.1 2.25 2.25 0 0 1-1.43.41zM192.8 282v-1.31h1V282z"/><path class="d" d="M85.41 21.65v6.52h-2V18H85l5.3 6.68V18h2v10.17h-1.66zM98.66 26.49a2.15 2.15 0 0 0 2-1 3.07 3.07 0 0 0 .41-1.05 5.49 5.49 0 0 0 .13-1.22V18h2v5.19a7.31 7.31 0 0 1-.25 2 4.53 4.53 0 0 1-.79 1.6 3.83 3.83 0 0 1-1.38 1.09 5.31 5.31 0 0 1-4.09 0 3.73 3.73 0 0 1-1.38-1.12 4.37 4.37 0 0 1-.77-1.61 7.5 7.5 0 0 1-.24-1.9V18h2v5.19a6.11 6.11 0 0 0 .12 1.23 3 3 0 0 0 .42 1.06 2.1 2.1 0 0 0 1.92 1zM112.17 26.44v1.73h-7.06V18H112v1.73h-5v2.45h4.28v1.61H107v2.65zM119.56 20.66a2.68 2.68 0 0 0-.36-.27 4.87 4.87 0 0 0-.65-.33 4.64 4.64 0 0 0-.82-.28 3.42 3.42 0 0 0-.9-.12 2 2 0 0 0-1.22.3 1 1 0 0 0-.4.85.86.86 0 0 0 .15.52 1.37 1.37 0 0 0 .44.37 3.61 3.61 0 0 0 .72.28c.29.09.63.18 1 .27s1 .28 1.35.43a4 4 0 0 1 1 .58 2.46 2.46 0 0 1 .65.82 2.76 2.76 0 0 1 .23 1.18 3 3 0 0 1-.31 1.4 2.6 2.6 0 0 1-.83.94 3.58 3.58 0 0 1-1.21.52 5.94 5.94 0 0 1-1.42.17 7.61 7.61 0 0 1-2.26-.35 6.94 6.94 0 0 1-2-1l.87-1.71a3.06 3.06 0 0 0 .47.34 5.77 5.77 0 0 0 .79.41 6.77 6.77 0 0 0 1 .36 4.89 4.89 0 0 0 1.15.14c1.09 0 1.63-.35 1.63-1.05a.85.85 0 0 0-.19-.56 1.64 1.64 0 0 0-.53-.4 4.55 4.55 0 0 0-.83-.31l-1.08-.32a9.85 9.85 0 0 1-1.27-.43 3.55 3.55 0 0 1-.9-.56 2.17 2.17 0 0 1-.54-.75 2.57 2.57 0 0 1-.17-1 3.17 3.17 0 0 1 .28-1.37 2.83 2.83 0 0 1 .8-1 3.55 3.55 0 0 1 1.18-.6 4.84 4.84 0 0 1 1.45-.21 5.7 5.7 0 0 1 2 .33 7.53 7.53 0 0 1 1.58.8zM129.82 19.73h-3.25v8.44h-2v-8.44h-3.25V18h8.46zM131.08 28.17V18h4.5a3 3 0 0 1 1.3.29 3.42 3.42 0 0 1 1 .78 3.71 3.71 0 0 1 .68 1.09 3.27 3.27 0 0 1 .24 1.22 3.39 3.39 0 0 1-.5 1.8 2.8 2.8 0 0 1-1.3 1.17l2.32 3.82h-2.22l-2.1-3.41h-1.95v3.41zm2-5.14h2.48a1.14 1.14 0 0 0 .51-.13 1.5 1.5 0 0 0 .41-.35 1.88 1.88 0 0 0 .27-.53 2.2 2.2 0 0 0 .1-.64 1.86 1.86 0 0 0-.42-1.18 1.52 1.52 0 0 0-.45-.35 1.19 1.19 0 0 0-.51-.12h-2.39zM145 28.24a4.68 4.68 0 0 1-2-.43 5.3 5.3 0 0 1-1.56-1.16 5.52 5.52 0 0 1-1-1.66 5.26 5.26 0 0 1-.36-1.91 5.16 5.16 0 0 1 .38-1.94 5.66 5.66 0 0 1 1-1.65 4.88 4.88 0 0 1 1.54-1.14 4.73 4.73 0 0 1 2-.42 4.5 4.5 0 0 1 2 .45 5 5 0 0 1 1.55 1.18 5.49 5.49 0 0 1 1 1.66 5.23 5.23 0 0 1 0 3.84 5.31 5.31 0 0 1-1 1.63 5 5 0 0 1-1.58 1.13 4.7 4.7 0 0 1-1.97.42zm-3-5.16a4.23 4.23 0 0 0 .2 1.28 3.46 3.46 0 0 0 .58 1.09 2.88 2.88 0 0 0 .93.76 2.7 2.7 0 0 0 1.25.28 2.59 2.59 0 0 0 1.27-.29 2.7 2.7 0 0 0 .93-.78 3.31 3.31 0 0 0 .58-1.1 4 4 0 0 0 0-2.51 3.67 3.67 0 0 0-.58-1.09 3 3 0 0 0-.94-.75 2.63 2.63 0 0 0-1.24-.28 2.76 2.76 0 0 0-1.27.29 2.94 2.94 0 0 0-.93.78 3.43 3.43 0 0 0-.57 1.09 4 4 0 0 0-.21 1.23zM157.5 20.66a4.1 4.1 0 0 0-.37-.27 4.7 4.7 0 0 0-.64-.33 4.94 4.94 0 0 0-.82-.28 3.5 3.5 0 0 0-.91-.12 2 2 0 0 0-1.21.3 1 1 0 0 0-.41.85.94.94 0 0 0 .15.52 1.49 1.49 0 0 0 .44.37 3.49 3.49 0 0 0 .73.28c.29.09.62.18 1 .27s.94.28 1.35.43a3.75 3.75 0 0 1 1 .58 2.34 2.34 0 0 1 .65.82 2.62 2.62 0 0 1 .23 1.18 2.9 2.9 0 0 1-.31 1.4 2.52 2.52 0 0 1-.83.94 3.61 3.61 0 0 1-1.2.52 6 6 0 0 1-1.43.17 7.66 7.66 0 0 1-2.26-.35 7.2 7.2 0 0 1-2-1l.88-1.71a2.86 2.86 0 0 0 .46.34 5.93 5.93 0 0 0 .8.41 6.06 6.06 0 0 0 1 .36 4.81 4.81 0 0 0 1.14.14c1.09 0 1.64-.35 1.64-1.05a.9.9 0 0 0-.19-.56 1.64 1.64 0 0 0-.53-.4 5.2 5.2 0 0 0-.83-.31l-1.03-.29a9.85 9.85 0 0 1-1.27-.43 3.48 3.48 0 0 1-.89-.56 2.17 2.17 0 0 1-.54-.75 2.57 2.57 0 0 1-.18-1 3.17 3.17 0 0 1 .29-1.37 2.8 2.8 0 0 1 .79-1 3.55 3.55 0 0 1 1.18-.6 4.89 4.89 0 0 1 1.45-.21 5.71 5.71 0 0 1 2 .33 7.44 7.44 0 0 1 1.57.8zM163.66 28.17V18H168a3 3 0 0 1 1.3.29 3.3 3.3 0 0 1 1 .78 3.71 3.71 0 0 1 .68 1.09 3.27 3.27 0 0 1 .24 1.22 3.55 3.55 0 0 1-.23 1.25 3.6 3.6 0 0 1-.64 1.09 3.29 3.29 0 0 1-1 .75 2.78 2.78 0 0 1-1.29.29h-2.4v3.41zm2-5.14h2.29a1.14 1.14 0 0 0 .91-.45 1.83 1.83 0 0 0 .36-1.2 1.85 1.85 0 0 0-.11-.69 1.93 1.93 0 0 0-.3-.53 1.25 1.25 0 0 0-.44-.32 1.34 1.34 0 0 0-.51-.11h-2.2zM172.58 28.17V18h2v8.44h5.19v1.73zM183.85 18h1.74l3.87 10.17h-2l-1-2.53h-3.55l-.91 2.53h-2zm2.27 6.25l-1.4-4-1.46 4zM192.56 21.65v6.52h-2V18h1.53l5.3 6.68V18h2v10.17h-1.61zM208.57 26.44v1.73h-7.06V18h6.93v1.73h-4.95v2.45h4.28v1.61h-4.28v2.65zM216 20.66a2.68 2.68 0 0 0-.36-.27 4.87 4.87 0 0 0-.65-.33 4.64 4.64 0 0 0-.82-.28 3.48 3.48 0 0 0-.9-.12A2 2 0 0 0 212 20a1 1 0 0 0-.4.85.86.86 0 0 0 .15.52 1.27 1.27 0 0 0 .44.37 3.61 3.61 0 0 0 .72.28c.29.09.63.18 1 .27s.95.28 1.35.43a3.75 3.75 0 0 1 1 .58 2.37 2.37 0 0 1 .66.82 2.76 2.76 0 0 1 .23 1.18 3 3 0 0 1-.31 1.4 2.6 2.6 0 0 1-.83.94 3.58 3.58 0 0 1-1.21.52 6 6 0 0 1-1.42.17 7.56 7.56 0 0 1-2.26-.35 6.94 6.94 0 0 1-2-1l.87-1.71a2.62 2.62 0 0 0 .47.34 5.77 5.77 0 0 0 .79.41 6.77 6.77 0 0 0 1 .36 4.89 4.89 0 0 0 1.15.14c1.09 0 1.63-.35 1.63-1.05a.85.85 0 0 0-.19-.56 1.64 1.64 0 0 0-.53-.4 4.85 4.85 0 0 0-.83-.31l-1.09-.32a9.67 9.67 0 0 1-1.26-.43 3.55 3.55 0 0 1-.9-.56 2.17 2.17 0 0 1-.54-.75 2.57 2.57 0 0 1-.18-1 3.17 3.17 0 0 1 .29-1.37 2.83 2.83 0 0 1 .8-1 3.55 3.55 0 0 1 1.18-.6 4.84 4.84 0 0 1 1.45-.21 5.7 5.7 0 0 1 2 .33 7.53 7.53 0 0 1 1.58.8z"/><g class="e"><path class="f" d="M42.19 57.67h215.63v15.34H42.19z"/></g><path class="a" d="M42.19 42.33h215.63v15.34H42.19z"/><g class="e"><path class="f" d="M42.19 88.36h215.63v15.34H42.19z"/></g><g class="e"><path class="f" d="M42.19 119.05h215.63v15.34H42.19z"/></g><g class="e"><path class="f" d="M42.19 149.73h215.63v15.34H42.19z"/></g><g class="e"><path class="f" d="M42.19 180.42h215.63v15.34H42.19z"/></g><path class="a" d="M58.28 68.19L60 65.94c.63-.82 1.32-1.63 1.32-2.22a.93.93 0 0 0-.95-.91c-.54 0-.88.37-1.16.9l-.94-.42a2.2 2.2 0 0 1 2.16-1.56 2.06 2.06 0 0 1 2.17 2 4.27 4.27 0 0 1-1.2 2.37l-.79 1h2v1.12h-4.33zM63.19 67.49l.64-.81a2.57 2.57 0 0 0 1.66.68 1.11 1.11 0 0 0 1.22-1.06 1.07 1.07 0 0 0-1.11-1.07 2.55 2.55 0 0 0-1.37.48l-.66-.2.63-3.61h3.36V63h-2.47l-.25 1.45a2.38 2.38 0 0 1 .94-.19A2.11 2.11 0 0 1 68 66.32a2.21 2.21 0 0 1-2.42 2.09 3.38 3.38 0 0 1-2.39-.92zM58.3 83.4l.65-.81a2.56 2.56 0 0 0 1.65.68 1.11 1.11 0 0 0 1.22-1.06 1.07 1.07 0 0 0-1.11-1.07 2.44 2.44 0 0 0-1.36.49l-.66-.21.63-3.61h3.36v1.1H60.2l-.2 1.45a2.38 2.38 0 0 1 .94-.19 2.11 2.11 0 0 1 2.19 2.06 2.21 2.21 0 0 1-2.42 2.09 3.42 3.42 0 0 1-2.41-.92zM63.76 81c0-2.2 1.09-3.34 2.43-3.34s2.43 1.14 2.43 3.34-1.1 3.33-2.43 3.33-2.43-1.16-2.43-3.33zm3.56 0c0-1.5-.51-2.18-1.13-2.18s-1.12.68-1.12 2.18.52 2.17 1.12 2.17 1.13-.7 1.13-2.17zM59.57 94.13l-1 .09V93.1l2.35-.21v6.43h-1.35zM62 96.13c0-2.2 1.09-3.34 2.43-3.34s2.42 1.14 2.42 3.34-1.09 3.33-2.42 3.33S62 98.32 62 96.13zm3.56 0c0-1.5-.52-2.18-1.13-2.18s-1.12.68-1.12 2.18.52 2.18 1.12 2.18 1.11-.69 1.11-2.18zM67.51 96.13c0-2.2 1.09-3.34 2.43-3.34s2.43 1.14 2.43 3.34-1.09 3.33-2.43 3.33-2.43-1.14-2.43-3.33zm3.57 0c0-1.5-.52-2.18-1.14-2.18s-1.12.68-1.12 2.18.52 2.18 1.12 2.18 1.14-.69 1.14-2.18zM58.3 113.7l.65-.81a2.52 2.52 0 0 0 1.65.69 1.11 1.11 0 0 0 1.22-1.07 1.06 1.06 0 0 0-1.11-1.06 2.42 2.42 0 0 0-1.36.48l-.66-.21.63-3.61h3.36v1.1H60.2l-.2 1.46a2.38 2.38 0 0 1 .94-.19 2.11 2.11 0 0 1 2.19 2.06 2.2 2.2 0 0 1-2.42 2.08 3.38 3.38 0 0 1-2.41-.92zM63.76 111.28c0-2.2 1.09-3.33 2.43-3.33s2.43 1.13 2.43 3.33-1.1 3.33-2.43 3.33-2.43-1.13-2.43-3.33zm3.56 0c0-1.5-.51-2.18-1.13-2.18s-1.12.68-1.12 2.18.52 2.18 1.12 2.18 1.13-.68 1.13-2.18zM69.3 111.28c0-2.2 1.09-3.33 2.42-3.33s2.43 1.13 2.43 3.33-1.09 3.33-2.43 3.33-2.42-1.13-2.42-3.33zm3.56 0c0-1.5-.52-2.18-1.14-2.18s-1.12.68-1.12 2.18.52 2.18 1.12 2.18 1.14-.68 1.14-2.18zM59.57 124.44l-1 .09v-1.12l2.35-.21v6.43h-1.35zM62.7 129.64a.82.82 0 0 1-.43-.72.78.78 0 0 1 .79-.79.79.79 0 0 1 .8.8 1.52 1.52 0 0 1-.3.78l-.63 1.07h-.62zM64.58 126.44c0-2.2 1.09-3.34 2.43-3.34s2.42 1.14 2.42 3.34-1.09 3.33-2.42 3.33-2.43-1.14-2.43-3.33zm3.56 0c0-1.5-.52-2.19-1.13-2.19s-1.12.69-1.12 2.19.52 2.17 1.12 2.17 1.13-.68 1.13-2.17zM70.11 126.44c0-2.2 1.1-3.34 2.43-3.34s2.46 1.14 2.46 3.34-1.09 3.33-2.43 3.33-2.46-1.14-2.46-3.33zm3.57 0c0-1.5-.52-2.19-1.14-2.19s-1.12.69-1.12 2.19.52 2.17 1.12 2.17 1.14-.68 1.14-2.17zM75.65 126.44c0-2.2 1.09-3.34 2.43-3.34s2.43 1.14 2.43 3.34-1.09 3.33-2.43 3.33-2.43-1.14-2.43-3.33zm3.57 0c0-1.5-.52-2.19-1.14-2.19s-1.12.69-1.12 2.19.52 2.17 1.12 2.17 1.14-.68 1.14-2.17zM58.28 144.71l1.72-2.25c.63-.82 1.32-1.63 1.32-2.22a.93.93 0 0 0-.95-.91c-.54 0-.88.37-1.16.9l-.94-.42a2.2 2.2 0 0 1 2.16-1.56 2.06 2.06 0 0 1 2.17 2 4.27 4.27 0 0 1-1.17 2.34l-.79 1h2v1.12h-4.36zM64 144.79a.81.81 0 0 1-.44-.72.8.8 0 0 1 1.59 0 1.49 1.49 0 0 1-.3.78l-.62 1.07h-.62zM65.84 141.59c0-2.2 1.09-3.34 2.43-3.34s2.43 1.14 2.43 3.34-1.09 3.33-2.43 3.33-2.43-1.14-2.43-3.33zm3.57 0c0-1.5-.52-2.18-1.14-2.18s-1.12.68-1.12 2.18.52 2.17 1.12 2.17 1.14-.68 1.14-2.17zM71.38 141.59c0-2.2 1.09-3.34 2.43-3.34s2.42 1.14 2.42 3.34-1.09 3.33-2.42 3.33-2.43-1.14-2.43-3.33zm3.56 0c0-1.5-.52-2.18-1.13-2.18s-1.12.68-1.12 2.18.52 2.17 1.12 2.17 1.13-.68 1.13-2.17zM76.91 141.59c0-2.2 1.1-3.34 2.43-3.34s2.43 1.14 2.43 3.34-1.09 3.33-2.43 3.33-2.43-1.14-2.43-3.33zm3.57 0c0-1.5-.52-2.18-1.14-2.18s-1.12.68-1.12 2.18.52 2.17 1.12 2.17 1.14-.68 1.14-2.17zM58.3 159.92l.65-.81a2.56 2.56 0 0 0 1.65.68 1.11 1.11 0 0 0 1.22-1.06 1.07 1.07 0 0 0-1.11-1.07 2.44 2.44 0 0 0-1.36.49l-.66-.21.63-3.61h3.36v1.1H60.2l-.2 1.45a2.38 2.38 0 0 1 .94-.19 2.11 2.11 0 0 1 2.19 2.06 2.21 2.21 0 0 1-2.42 2.09 3.42 3.42 0 0 1-2.41-.92zM64.28 160.7a.81.81 0 0 1-.44-.72.8.8 0 1 1 1.59 0 1.49 1.49 0 0 1-.3.78l-.63 1.07h-.61zM66.15 157.5c0-2.2 1.09-3.34 2.43-3.34S71 155.3 71 157.5s-1.09 3.33-2.43 3.33-2.42-1.14-2.42-3.33zm3.56 0c0-1.5-.51-2.18-1.13-2.18s-1.12.68-1.12 2.18.52 2.17 1.12 2.17 1.13-.67 1.13-2.17zM71.69 157.5c0-2.2 1.09-3.34 2.42-3.34s2.43 1.14 2.43 3.34-1.09 3.33-2.43 3.33-2.42-1.14-2.42-3.33zm3.56 0c0-1.5-.52-2.18-1.14-2.18S73 156 73 157.5s.51 2.17 1.11 2.17 1.14-.67 1.14-2.17zM77.22 157.5c0-2.2 1.09-3.34 2.43-3.34s2.43 1.14 2.43 3.34-1.09 3.33-2.43 3.33-2.43-1.14-2.43-3.33zm3.57 0c0-1.5-.52-2.18-1.14-2.18s-1.12.68-1.12 2.18.52 2.17 1.12 2.17 1.14-.67 1.14-2.17zM59.57 170.65l-1 .09v-1.12l2.35-.2v6.42h-1.35zM62 172.65c0-2.2 1.09-3.34 2.43-3.34s2.42 1.14 2.42 3.34-1.11 3.35-2.44 3.35-2.41-1.16-2.41-3.35zm3.56 0c0-1.5-.52-2.18-1.13-2.18s-1.12.68-1.12 2.18.52 2.18 1.12 2.18 1.11-.69 1.11-2.18zM68 175.85a.81.81 0 0 1-.43-.72.79.79 0 0 1 .79-.79.8.8 0 0 1 .8.8 1.61 1.61 0 0 1-.3.79l-.6 1.07h-.62zM69.9 172.65c0-2.2 1.1-3.34 2.43-3.34s2.43 1.14 2.43 3.34-1.09 3.35-2.43 3.35-2.43-1.16-2.43-3.35zm3.57 0c0-1.5-.52-2.18-1.14-2.18s-1.12.68-1.12 2.18.52 2.18 1.12 2.18 1.14-.69 1.14-2.18zM75.44 172.65c0-2.2 1.09-3.34 2.43-3.34s2.43 1.14 2.43 3.34-1.09 3.35-2.43 3.35-2.43-1.16-2.43-3.35zm3.57 0c0-1.5-.52-2.18-1.14-2.18s-1.12.68-1.12 2.18.52 2.18 1.12 2.18 1.13-.69 1.13-2.18zM81 172.65c0-2.2 1.09-3.34 2.43-3.34s2.42 1.14 2.42 3.34-1.11 3.35-2.44 3.35-2.41-1.16-2.41-3.35zm3.56 0c0-1.5-.52-2.18-1.13-2.18s-1.12.68-1.12 2.18.52 2.18 1.12 2.18 1.11-.69 1.11-2.18zM58.28 191.68l1.72-2.24c.63-.82 1.32-1.64 1.32-2.22a.93.93 0 0 0-.95-.91c-.54 0-.88.36-1.16.89l-.94-.42a2.2 2.2 0 0 1 2.16-1.56 2.06 2.06 0 0 1 2.17 2 4.21 4.21 0 0 1-1.17 2.34l-.79 1h2v1.11h-4.36zM63.29 188.56c0-2.2 1.09-3.34 2.42-3.34s2.43 1.14 2.43 3.34-1.09 3.33-2.43 3.33-2.42-1.14-2.42-3.33zm3.56 0c0-1.5-.52-2.18-1.14-2.18s-1.11.68-1.11 2.18.51 2.18 1.11 2.18 1.14-.69 1.14-2.18zM69.34 191.76a.82.82 0 0 1-.44-.72.8.8 0 0 1 1.6 0 1.61 1.61 0 0 1-.3.79l-.63 1.06H69zM71.21 188.56c0-2.2 1.1-3.34 2.43-3.34s2.43 1.14 2.43 3.34-1.09 3.33-2.43 3.33-2.43-1.14-2.43-3.33zm3.57 0c0-1.5-.52-2.18-1.14-2.18s-1.12.68-1.12 2.18.52 2.18 1.12 2.18 1.14-.69 1.14-2.18zM76.75 188.56c0-2.2 1.09-3.34 2.43-3.34s2.43 1.14 2.43 3.34-1.09 3.33-2.43 3.33-2.43-1.14-2.43-3.33zm3.57 0c0-1.5-.52-2.18-1.14-2.18s-1.12.68-1.12 2.18.52 2.18 1.12 2.18 1.14-.69 1.14-2.18zM82.29 188.56c0-2.2 1.09-3.34 2.43-3.34s2.42 1.14 2.42 3.34-1.09 3.33-2.42 3.33-2.43-1.14-2.43-3.33zm3.56 0c0-1.5-.52-2.18-1.13-2.18s-1.12.68-1.12 2.18.52 2.18 1.12 2.18 1.13-.69 1.13-2.18zM133.37 68.09a2.86 2.86 0 0 1-2-1.15l.84-.7a1.83 1.83 0 0 0 1.54.84c.63 0 1-.26 1-.58s-.51-.56-1-.72c-.79-.25-1.86-.52-1.86-1.74a1.53 1.53 0 0 1 1.46-1.56v-.69h1v.68a2.47 2.47 0 0 1 1.55.85l-.76.7a1.74 1.74 0 0 0-1.29-.55c-.51 0-.78.17-.78.48s.32.46 1.08.7 1.89.6 1.89 1.73a1.77 1.77 0 0 1-1.69 1.69v.76h-1zM136.66 67.49l.64-.81a2.39 2.39 0 0 0 1.58.68 1.08 1.08 0 1 0 0-2.15 1.36 1.36 0 0 0-.52.09L138 65l1.23-2h-2.08v-1.1h4v.1l-1.47 2.37a2 2 0 0 1 1.67 2 2.18 2.18 0 0 1-2.38 2.1 3.34 3.34 0 0 1-2.31-.98zM144.71 63H142v-1.1h4.48v.1l-2.65 6.29h-1.37zM146.81 67.49l.65-.81a2.56 2.56 0 0 0 1.65.68 1.11 1.11 0 0 0 1.22-1.06 1.06 1.06 0 0 0-1.11-1.07 2.5 2.5 0 0 0-1.36.48l-.66-.2.63-3.61h3.36V63h-2.48l-.24 1.45a2.38 2.38 0 0 1 .94-.19 2.11 2.11 0 0 1 2.19 2.06 2.21 2.21 0 0 1-2.42 2.09 3.42 3.42 0 0 1-2.37-.92zM152.35 67.55a.8.8 0 0 1 .8-.79.79.79 0 0 1 0 1.58.79.79 0 0 1-.8-.79zM154.73 63.38c0-1.29.63-2 1.41-2s1.42.66 1.42 2-.64 1.93-1.42 1.93-1.41-.66-1.41-1.93zm2.07 0c0-.88-.3-1.28-.66-1.28s-.65.4-.65 1.28.3 1.26.65 1.26.66-.4.66-1.26zM158 63.38c0-1.29.63-2 1.41-2s1.41.66 1.41 2-.63 1.93-1.41 1.93-1.41-.66-1.41-1.93zm2.07 0c0-.88-.3-1.28-.66-1.28s-.65.4-.65 1.28.3 1.26.65 1.26.59-.4.59-1.26zM133.37 84a2.86 2.86 0 0 1-2-1.15l.84-.7a1.83 1.83 0 0 0 1.54.84c.63 0 1-.26 1-.58s-.51-.56-1-.72c-.79-.25-1.86-.52-1.86-1.74a1.53 1.53 0 0 1 1.46-1.56v-.69h1v.68a2.47 2.47 0 0 1 1.55.85l-.76.7a1.74 1.74 0 0 0-1.29-.55c-.51 0-.78.17-.78.48s.32.46 1.08.7 1.89.6 1.89 1.73a1.77 1.77 0 0 1-1.63 1.71v.76h-1zM139.38 78.91h-2.7v-1.1h4.47v.07l-2.65 6.29h-1.37zM141.43 81c0-2.2 1.09-3.34 2.43-3.34s2.43 1.14 2.43 3.34-1.09 3.33-2.43 3.33-2.43-1.16-2.43-3.33zm3.57 0c0-1.5-.52-2.18-1.14-2.18s-1.12.68-1.12 2.18.52 2.17 1.12 2.17S145 82.47 145 81zM147 81c0-2.2 1.09-3.34 2.43-3.34s2.42 1.14 2.42 3.34-1.09 3.33-2.42 3.33S147 83.17 147 81zm3.56 0c0-1.5-.52-2.18-1.13-2.18s-1.12.68-1.12 2.18.52 2.17 1.12 2.17 1.1-.7 1.1-2.17zM152.59 83.46a.8.8 0 0 1 .8-.79.79.79 0 1 1-.8.79zM155 79.29c0-1.29.64-2 1.42-2s1.41.66 1.41 2-.63 1.93-1.41 1.93-1.42-.66-1.42-1.93zm2.08 0c0-.88-.3-1.28-.66-1.28s-.65.4-.65 1.28.3 1.26.65 1.26.58-.4.58-1.26zM158.19 79.29c0-1.29.64-2 1.42-2s1.41.66 1.41 2-.64 1.93-1.41 1.93-1.42-.66-1.42-1.93zm2.08 0c0-.88-.3-1.28-.66-1.28s-.65.4-.65 1.28.3 1.26.65 1.26.66-.4.66-1.26zM133.37 99.15a2.88 2.88 0 0 1-2-1.14l.84-.7a1.82 1.82 0 0 0 1.54.83c.63 0 1-.26 1-.58s-.51-.55-1-.72c-.79-.24-1.86-.52-1.86-1.74a1.54 1.54 0 0 1 1.46-1.56v-.69h1v.68a2.44 2.44 0 0 1 1.55.86l-.76.7a1.71 1.71 0 0 0-1.29-.56c-.51 0-.78.17-.78.48s.32.46 1.08.7 1.89.6 1.89 1.73a1.77 1.77 0 0 1-1.69 1.69v.76h-1zM137.9 94.13l-1 .09V93.1l2.34-.21v6.43h-1.34zM141 99.33a.82.82 0 0 1-.44-.72.8.8 0 0 1 1.6 0 1.61 1.61 0 0 1-.3.79l-.63 1.06h-.62zM143 99.25l1.72-2.25c.63-.82 1.32-1.64 1.32-2.22a.92.92 0 0 0-.94-.91 1.35 1.35 0 0 0-1.17.89l-.93-.42a2.19 2.19 0 0 1 2.15-1.56 2.06 2.06 0 0 1 2.17 2 4.17 4.17 0 0 1-1.17 2.34l-.78 1h2v1.11H143zM148 96.13c0-2.2 1.09-3.34 2.43-3.34s2.43 1.14 2.43 3.34-1.09 3.33-2.43 3.33-2.43-1.14-2.43-3.33zm3.57 0c0-1.5-.52-2.18-1.14-2.18s-1.12.68-1.12 2.18.52 2.18 1.12 2.18 1.18-.69 1.18-2.18zM153.58 96.13c0-2.2 1.09-3.34 2.43-3.34s2.42 1.14 2.42 3.34-1.09 3.33-2.42 3.33-2.43-1.14-2.43-3.33zm3.56 0c0-1.5-.52-2.18-1.13-2.18s-1.12.68-1.12 2.18.52 2.18 1.12 2.18 1.13-.69 1.13-2.18zM159.2 98.61a.81.81 0 0 1 .8-.79.8.8 0 1 1-.8.79zM161.57 94.44c0-1.28.64-1.94 1.42-1.94s1.41.66 1.41 1.94-.63 1.94-1.41 1.94-1.42-.67-1.42-1.94zm2.08 0c0-.88-.3-1.27-.66-1.27s-.65.39-.65 1.27.3 1.26.65 1.26.66-.39.66-1.26zM164.8 94.44c0-1.28.64-1.94 1.41-1.94s1.42.66 1.42 1.94-.64 1.94-1.42 1.94-1.41-.67-1.41-1.94zm2.08 0c0-.88-.3-1.27-.67-1.27s-.65.39-.65 1.27.31 1.26.65 1.26.67-.39.67-1.26zM133.37 114.3a2.88 2.88 0 0 1-2-1.14l.84-.7a1.82 1.82 0 0 0 1.54.83c.63 0 1-.26 1-.58s-.51-.55-1-.72c-.79-.24-1.86-.51-1.86-1.73a1.54 1.54 0 0 1 1.46-1.57V108h1v.68a2.44 2.44 0 0 1 1.55.86l-.76.7a1.75 1.75 0 0 0-1.29-.56c-.51 0-.78.18-.78.49s.32.45 1.08.7 1.89.6 1.89 1.72a1.78 1.78 0 0 1-1.69 1.7v.71h-1zM136.64 113.7l.65-.81a2.48 2.48 0 0 0 1.65.69 1.12 1.12 0 0 0 1.22-1.07 1.06 1.06 0 0 0-1.11-1.06 2.42 2.42 0 0 0-1.36.48l-.67-.21.64-3.61H141v1.1h-2.47l-.24 1.46a2.37 2.37 0 0 1 .93-.19 2.11 2.11 0 0 1 2.19 2.06 2.2 2.2 0 0 1-2.42 2.08 3.35 3.35 0 0 1-2.35-.92zM142.61 114.49a.82.82 0 0 1-.43-.72.78.78 0 0 1 .82-.77.79.79 0 0 1 .8.8 1.62 1.62 0 0 1-.3.78l-.63 1.06h-.62zM144.6 113.7l.65-.81a2.53 2.53 0 0 0 1.66.69 1.11 1.11 0 0 0 1.21-1.07 1.06 1.06 0 0 0-1.11-1.06 2.42 2.42 0 0 0-1.36.48l-.66-.21.63-3.61H149v1.1h-2.5l-.24 1.46a2.38 2.38 0 0 1 .94-.19 2.11 2.11 0 0 1 2.19 2.06 2.2 2.2 0 0 1-2.42 2.08 3.38 3.38 0 0 1-2.37-.92zM150.06 111.28c0-2.2 1.09-3.33 2.43-3.33s2.43 1.13 2.43 3.33-1.1 3.33-2.43 3.33-2.43-1.13-2.43-3.33zm3.57 0c0-1.5-.52-2.18-1.14-2.18s-1.12.68-1.12 2.18.52 2.18 1.12 2.18 1.14-.68 1.14-2.18zM155.6 111.28c0-2.2 1.09-3.33 2.42-3.33s2.43 1.13 2.43 3.33-1.09 3.33-2.43 3.33-2.42-1.13-2.42-3.33zm3.56 0c0-1.5-.52-2.18-1.14-2.18s-1.11.68-1.11 2.18.51 2.18 1.11 2.18 1.14-.68 1.14-2.18zM161.21 113.77a.81.81 0 0 1 .8-.79.79.79 0 1 1 0 1.58.81.81 0 0 1-.8-.79zM163.59 109.59c0-1.28.64-1.94 1.42-1.94s1.41.66 1.41 1.94-.64 1.94-1.41 1.94-1.42-.66-1.42-1.94zm2.08 0c0-.87-.3-1.27-.66-1.27s-.66.4-.66 1.27.31 1.27.66 1.27.66-.4.66-1.27zM166.82 109.59c0-1.28.64-1.94 1.41-1.94s1.42.66 1.42 1.94-.64 1.94-1.42 1.94-1.41-.66-1.41-1.94zm2.08 0c0-.87-.31-1.27-.67-1.27s-.65.4-.65 1.27.3 1.27.65 1.27.67-.4.67-1.27zM133.37 128.7a2.86 2.86 0 0 1-2-1.15l.84-.7a1.83 1.83 0 0 0 1.54.84c.63 0 1-.26 1-.58s-.51-.56-1-.72c-.79-.25-1.86-.52-1.86-1.74a1.53 1.53 0 0 1 1.46-1.56v-.69h1v.68a2.47 2.47 0 0 1 1.55.85l-.76.7a1.74 1.74 0 0 0-1.29-.55c-.51 0-.78.17-.78.48s.32.46 1.08.7 1.89.6 1.89 1.73a1.77 1.77 0 0 1-1.69 1.69v.76h-1zM137.9 123.68l-1 .09v-1.12l2.34-.21v6.43h-1.34zM140.31 125.68c0-2.2 1.09-3.34 2.43-3.34s2.43 1.14 2.43 3.34-1.09 3.33-2.43 3.33-2.43-1.14-2.43-3.33zm3.57 0c0-1.5-.52-2.18-1.14-2.18s-1.12.68-1.12 2.18.52 2.17 1.12 2.17 1.14-.68 1.14-2.17zM146.37 128.88a.81.81 0 0 1-.44-.72.8.8 0 1 1 1.59 0 1.49 1.49 0 0 1-.3.78l-.62 1.06h-.6zM148.24 125.68c0-2.2 1.09-3.34 2.43-3.34s2.43 1.14 2.43 3.34-1.1 3.32-2.43 3.32-2.43-1.13-2.43-3.32zm3.57 0c0-1.5-.52-2.18-1.14-2.18s-1.12.68-1.12 2.18.52 2.17 1.12 2.17 1.14-.68 1.14-2.17zM153.78 125.68c0-2.2 1.09-3.34 2.43-3.34s2.42 1.14 2.42 3.34-1.09 3.33-2.42 3.33-2.43-1.14-2.43-3.33zm3.56 0c0-1.5-.52-2.18-1.13-2.18s-1.12.68-1.12 2.18.52 2.17 1.12 2.17 1.13-.68 1.13-2.17zM159.31 125.68c0-2.2 1.1-3.34 2.43-3.34s2.43 1.14 2.43 3.34-1.09 3.33-2.43 3.33-2.43-1.14-2.43-3.33zm3.57 0c0-1.5-.52-2.18-1.14-2.18s-1.12.68-1.12 2.18.52 2.17 1.12 2.17 1.14-.68 1.14-2.17zM164.93 128.16a.81.81 0 0 1 .8-.79.79.79 0 0 1 0 1.58.8.8 0 0 1-.8-.79zM167.31 124c0-1.29.64-1.95 1.41-1.95s1.42.66 1.42 1.95-.64 1.93-1.42 1.93-1.41-.67-1.41-1.93zm2.08 0c0-.88-.31-1.28-.67-1.28s-.65.4-.65 1.28.31 1.26.65 1.26.67-.41.67-1.26zM170.54 124c0-1.29.63-1.95 1.41-1.95s1.42.66 1.42 1.95-.64 1.93-1.42 1.93-1.41-.67-1.41-1.93zm2.07 0c0-.88-.3-1.28-.66-1.28s-.65.4-.65 1.28.3 1.26.65 1.26.66-.41.66-1.26zM133.37 144.61a2.86 2.86 0 0 1-2-1.15l.84-.7a1.83 1.83 0 0 0 1.54.84c.63 0 1-.26 1-.58s-.51-.56-1-.72c-.79-.25-1.86-.52-1.86-1.74a1.53 1.53 0 0 1 1.46-1.56v-.69h1v.69a2.47 2.47 0 0 1 1.55.85l-.76.7a1.74 1.74 0 0 0-1.29-.55c-.51 0-.78.17-.78.48s.32.46 1.08.7 1.89.6 1.89 1.73a1.77 1.77 0 0 1-1.69 1.69v.76h-1zM137.9 139.59l-1 .09v-1.12l2.34-.21v6.43h-1.34zM140.31 143a1.91 1.91 0 0 1 1.15-1.7 1.58 1.58 0 0 1-.73-1.34 1.93 1.93 0 0 1 3.82 0 1.58 1.58 0 0 1-.73 1.34A1.9 1.9 0 0 1 145 143a2.36 2.36 0 0 1-4.66 0zm3.4-.06a1.07 1.07 0 0 0-2.14 0 1.07 1.07 0 0 0 2.14 0zm-.17-2.85a.85.85 0 0 0-.9-.84.84.84 0 0 0-.88.84.85.85 0 0 0 .88.87.86.86 0 0 0 .9-.9zM146.2 144.79a.81.81 0 0 1-.44-.72.8.8 0 0 1 1.59 0 1.49 1.49 0 0 1-.3.78l-.63 1.07h-.62zM148.07 141.59c0-2.2 1.09-3.34 2.43-3.34s2.42 1.14 2.42 3.34-1.09 3.33-2.42 3.33-2.43-1.14-2.43-3.33zm3.56 0c0-1.5-.51-2.18-1.13-2.18s-1.12.68-1.12 2.18.52 2.17 1.12 2.17 1.13-.68 1.13-2.17zM153.61 141.59c0-2.2 1.09-3.34 2.42-3.34s2.43 1.14 2.43 3.34-1.09 3.33-2.43 3.33-2.42-1.14-2.42-3.33zm3.56 0c0-1.5-.52-2.18-1.14-2.18s-1.11.68-1.11 2.18.51 2.17 1.11 2.17 1.14-.68 1.14-2.17zM159.14 141.59c0-2.2 1.09-3.34 2.43-3.34s2.43 1.14 2.43 3.34-1.09 3.33-2.43 3.33-2.43-1.14-2.43-3.33zm3.57 0c0-1.5-.52-2.18-1.14-2.18s-1.12.68-1.12 2.18.52 2.17 1.12 2.17 1.14-.68 1.14-2.17zM164.76 144.07a.81.81 0 0 1 .8-.79.79.79 0 0 1 .79.79.78.78 0 0 1-.79.79.79.79 0 0 1-.8-.79zM167.14 139.9c0-1.29.63-2 1.41-2s1.42.66 1.42 2-.64 1.93-1.42 1.93-1.41-.66-1.41-1.93zm2.07 0c0-.88-.3-1.27-.66-1.27s-.65.39-.65 1.27.3 1.26.65 1.26.66-.4.66-1.26zM170.37 139.9c0-1.29.63-2 1.41-2s1.41.66 1.41 2-.63 1.93-1.41 1.93-1.41-.66-1.41-1.93zm2.07 0c0-.88-.3-1.27-.66-1.27s-.65.39-.65 1.27.3 1.26.65 1.26.66-.4.66-1.26zM133.37 160.52a2.86 2.86 0 0 1-2-1.15l.84-.7a1.83 1.83 0 0 0 1.54.84c.63 0 1-.26 1-.58s-.51-.56-1-.72c-.79-.25-1.86-.52-1.86-1.74a1.53 1.53 0 0 1 1.46-1.56v-.69h1v.68a2.47 2.47 0 0 1 1.55.85l-.76.7a1.74 1.74 0 0 0-1.29-.55c-.51 0-.78.17-.78.48s.32.46 1.08.7 1.89.6 1.89 1.73a1.77 1.77 0 0 1-1.69 1.69v.76h-1zM139.58 159.55h-3v-.49l3.91-4.92h.28v4.36h.71v1.05h-.71v1.14h-1.19zm0-1.05v-1.73l-1.35 1.73zM142.05 160.62l1.69-2.25c.63-.82 1.32-1.63 1.32-2.22a.93.93 0 0 0-.95-.91c-.53 0-.88.37-1.16.9l-.94-.42a2.21 2.21 0 0 1 2.16-1.56 2.06 2.06 0 0 1 2.17 2 4.27 4.27 0 0 1-1.17 2.34l-.78 1h2v1.12h-4.34zM147.74 160.7a.83.83 0 0 1-.44-.72.8.8 0 0 1 1.6 0 1.59 1.59 0 0 1-.3.78l-.63 1.07h-.62zM149.73 159.92l.65-.81a2.54 2.54 0 0 0 1.65.68 1.11 1.11 0 0 0 1.22-1.06 1.07 1.07 0 0 0-1.11-1.07 2.44 2.44 0 0 0-1.36.49l-.67-.21.64-3.61h3.36v1.1h-2.48l-.24 1.45a2.37 2.37 0 0 1 .93-.19 2.12 2.12 0 0 1 2.2 2.06 2.21 2.21 0 0 1-2.42 2.09 3.42 3.42 0 0 1-2.37-.92zM155.19 157.5c0-2.2 1.09-3.34 2.43-3.34s2.38 1.14 2.38 3.34-1.09 3.33-2.42 3.33-2.39-1.14-2.39-3.33zm3.56 0c0-1.5-.52-2.18-1.13-2.18s-1.12.68-1.12 2.18.51 2.17 1.12 2.17 1.13-.67 1.13-2.17zM160.72 157.5c0-2.2 1.09-3.34 2.43-3.34s2.43 1.14 2.43 3.34-1.09 3.33-2.43 3.33-2.43-1.14-2.43-3.33zm3.57 0c0-1.5-.52-2.18-1.14-2.18S162 156 162 157.5s.52 2.17 1.12 2.17 1.17-.67 1.17-2.17zM166.34 160a.81.81 0 0 1 .8-.79.79.79 0 0 1 0 1.58.8.8 0 0 1-.8-.79zM168.72 155.81c0-1.29.64-1.95 1.41-1.95s1.42.66 1.42 1.95-.64 1.93-1.42 1.93-1.41-.66-1.41-1.93zm2.08 0c0-.88-.31-1.27-.67-1.27s-.65.39-.65 1.27.3 1.26.65 1.26.67-.4.67-1.26zM172 155.81c0-1.29.63-1.95 1.41-1.95s1.42.66 1.42 1.95-.64 1.93-1.42 1.93-1.41-.66-1.41-1.93zm2.07 0c0-.88-.3-1.27-.66-1.27s-.65.39-.65 1.27.3 1.26.65 1.26.59-.4.59-1.26zM133.37 175.67a2.88 2.88 0 0 1-2-1.14l.84-.7a1.82 1.82 0 0 0 1.54.83c.63 0 1-.26 1-.58s-.51-.55-1-.72c-.79-.24-1.86-.52-1.86-1.73a1.54 1.54 0 0 1 1.46-1.57v-.69h1v.68a2.44 2.44 0 0 1 1.55.86l-.76.7a1.71 1.71 0 0 0-1.29-.56c-.51 0-.78.17-.78.48s.32.46 1.08.7 1.89.6 1.89 1.73a1.77 1.77 0 0 1-1.69 1.69v.76h-1zM136.7 174a1.92 1.92 0 0 1 1.15-1.71 1.57 1.57 0 0 1-.73-1.33 1.92 1.92 0 0 1 3.82 0 1.57 1.57 0 0 1-.73 1.33 1.9 1.9 0 0 1 1.15 1.71 2.37 2.37 0 0 1-4.66 0zm3.41-.07a1.08 1.08 0 0 0-2.15 0 1.08 1.08 0 0 0 2.15 0zm-.18-2.84a.86.86 0 0 0-.9-.85.86.86 0 1 0 0 1.71.86.86 0 0 0 .9-.82zM141.83 172.65c0-2.2 1.09-3.34 2.43-3.34s2.43 1.14 2.43 3.34-1.09 3.35-2.43 3.35-2.43-1.16-2.43-3.35zm3.57 0c0-1.5-.52-2.18-1.14-2.18s-1.12.68-1.12 2.18.52 2.18 1.12 2.18 1.14-.69 1.14-2.18zM147.89 175.85a.8.8 0 0 1-.44-.72.8.8 0 1 1 1.59 0 1.51 1.51 0 0 1-.3.79l-.63 1.06h-.61zM149.76 172.65c0-2.2 1.09-3.34 2.43-3.34s2.43 1.14 2.43 3.34-1.1 3.33-2.43 3.33-2.43-1.14-2.43-3.33zm3.56 0c0-1.5-.51-2.18-1.13-2.18s-1.12.68-1.12 2.18.52 2.18 1.12 2.18 1.13-.69 1.13-2.18zM155.3 172.65c0-2.2 1.09-3.34 2.42-3.34s2.43 1.14 2.43 3.34-1.09 3.33-2.43 3.33-2.42-1.14-2.42-3.33zm3.56 0c0-1.5-.52-2.18-1.14-2.18s-1.11.68-1.11 2.18.51 2.18 1.11 2.18 1.14-.69 1.14-2.18zM160.83 172.65c0-2.2 1.09-3.34 2.43-3.34s2.43 1.14 2.43 3.34-1.09 3.35-2.43 3.35-2.43-1.16-2.43-3.35zm3.57 0c0-1.5-.52-2.18-1.14-2.18s-1.12.68-1.12 2.18.52 2.18 1.12 2.18 1.14-.69 1.14-2.18zM166.45 175.13a.81.81 0 0 1 .8-.79.8.8 0 0 1 0 1.59.81.81 0 0 1-.8-.8zM168.83 171c0-1.28.63-1.94 1.41-1.94s1.42.66 1.42 1.94-.64 1.94-1.42 1.94-1.41-.71-1.41-1.94zm2.07 0c0-.88-.3-1.27-.66-1.27s-.65.39-.65 1.27.3 1.26.65 1.26.66-.43.66-1.26zM172.06 171c0-1.28.63-1.94 1.41-1.94s1.41.66 1.41 1.94-.63 1.94-1.41 1.94-1.41-.71-1.41-1.94zm2.07 0c0-.88-.3-1.27-.66-1.27s-.65.39-.65 1.27.3 1.26.65 1.26.66-.43.66-1.26zM133.37 190.82a2.88 2.88 0 0 1-2-1.14l.84-.7a1.82 1.82 0 0 0 1.54.83c.63 0 1-.26 1-.58s-.51-.55-1-.72c-.79-.24-1.86-.51-1.86-1.73a1.54 1.54 0 0 1 1.46-1.57v-.69h1v.68a2.44 2.44 0 0 1 1.55.86l-.76.7a1.75 1.75 0 0 0-1.29-.56c-.51 0-.78.18-.78.49s.32.45 1.08.7 1.89.6 1.89 1.72a1.78 1.78 0 0 1-1.69 1.7v.75h-1zM137.9 185.8l-1 .09v-1.11l2.34-.21V191h-1.34zM143.19 189.85h-3v-.48l3.91-4.92h.28v4.35h.71v1h-.71v1.2h-1.19zm0-1v-1.72l-1.35 1.72zM145.75 187.8c0-2.2 1.09-3.33 2.43-3.33s2.43 1.13 2.43 3.33-1.09 3.33-2.43 3.33-2.43-1.13-2.43-3.33zm3.56 0c0-1.5-.51-2.18-1.13-2.18s-1.12.68-1.12 2.18.52 2.18 1.12 2.18 1.13-.68 1.13-2.18zM151.81 191a.81.81 0 0 1-.44-.72.78.78 0 0 1 .79-.79.79.79 0 0 1 .8.8 1.52 1.52 0 0 1-.3.78l-.63 1.06h-.62zM153.68 187.8c0-2.2 1.09-3.33 2.43-3.33s2.42 1.13 2.42 3.33-1.09 3.33-2.42 3.33-2.43-1.13-2.43-3.33zm3.56 0c0-1.5-.52-2.18-1.13-2.18s-1.12.68-1.12 2.18.51 2.18 1.12 2.18 1.13-.68 1.13-2.18zM159.21 187.8c0-2.2 1.1-3.33 2.43-3.33s2.43 1.13 2.43 3.33-1.09 3.33-2.43 3.33-2.43-1.13-2.43-3.33zm3.57 0c0-1.5-.52-2.18-1.14-2.18s-1.12.68-1.12 2.18.48 2.2 1.12 2.2 1.14-.7 1.14-2.2zM164.75 187.8c0-2.2 1.09-3.33 2.43-3.33s2.43 1.13 2.43 3.33-1.09 3.33-2.43 3.33-2.43-1.13-2.43-3.33zm3.57 0c0-1.5-.52-2.18-1.14-2.18s-1.12.68-1.12 2.18.52 2.18 1.12 2.18 1.14-.68 1.14-2.18zM170.37 190.29a.8.8 0 0 1 .8-.79.79.79 0 0 1 0 1.58.8.8 0 0 1-.8-.79zM172.75 186.11c0-1.28.63-1.94 1.41-1.94s1.42.66 1.42 1.94-.64 1.94-1.42 1.94-1.41-.66-1.41-1.94zm2.07 0c0-.87-.3-1.27-.66-1.27s-.65.4-.65 1.27.3 1.27.65 1.27.66-.38.66-1.27zM176 186.11c0-1.28.63-1.94 1.41-1.94s1.41.66 1.41 1.94-.63 1.94-1.41 1.94-1.41-.66-1.41-1.94zm2.07 0c0-.87-.3-1.27-.66-1.27s-.65.4-.65 1.27.3 1.27.65 1.27.64-.38.64-1.27zM215.75 68.09a2.84 2.84 0 0 1-1.94-1.15l.84-.7a1.83 1.83 0 0 0 1.54.84c.63 0 1-.26 1-.58s-.51-.56-1-.72c-.8-.25-1.86-.52-1.86-1.74a1.52 1.52 0 0 1 1.45-1.56v-.69h1.05v.68a2.5 2.5 0 0 1 1.55.85l-.77.7a1.7 1.7 0 0 0-1.28-.55c-.51 0-.78.17-.78.48s.32.46 1.08.7 1.88.6 1.88 1.73a1.76 1.76 0 0 1-1.68 1.69v.76h-1.05zM220.29 63.07l-1 .09V62l2.35-.21v6.43h-1.31zM222.64 67.49l.64-.81a2.57 2.57 0 0 0 1.66.68 1.11 1.11 0 0 0 1.22-1.06 1.07 1.07 0 0 0-1.11-1.07 2.55 2.55 0 0 0-1.37.48l-.66-.2.63-3.61H227V63h-2.47l-.25 1.45a2.38 2.38 0 0 1 .94-.19 2.11 2.11 0 0 1 2.19 2.06 2.21 2.21 0 0 1-2.41 2.09 3.38 3.38 0 0 1-2.36-.92zM228.17 67.55a.81.81 0 0 1 .8-.79.79.79 0 1 1 0 1.58.8.8 0 0 1-.8-.79zM230.55 63.38c0-1.29.64-2 1.41-2s1.42.66 1.42 2-.64 1.93-1.42 1.93-1.41-.66-1.41-1.93zm2.08 0c0-.88-.31-1.28-.67-1.28s-.65.4-.65 1.28.3 1.26.65 1.26.67-.4.67-1.26zM233.78 63.38c0-1.29.63-2 1.41-2s1.42.66 1.42 2-.64 1.93-1.42 1.93-1.41-.66-1.41-1.93zm2.07 0c0-.88-.3-1.28-.66-1.28s-.65.4-.65 1.28.3 1.26.65 1.26.66-.4.66-1.26zM215.75 84a2.84 2.84 0 0 1-1.94-1.15l.84-.7a1.83 1.83 0 0 0 1.54.84c.63 0 1-.26 1-.58s-.51-.56-1-.72c-.8-.25-1.86-.52-1.86-1.74a1.52 1.52 0 0 1 1.45-1.56v-.69h1.05v.68a2.5 2.5 0 0 1 1.55.85l-.77.7a1.7 1.7 0 0 0-1.28-.55c-.51 0-.78.17-.78.48s.32.46 1.08.7 1.88.6 1.88 1.73A1.76 1.76 0 0 1 216.8 84v.76h-1.05zM220.29 79l-1 .09V78l2.35-.21v6.43h-1.31zM225.57 83h-3v-.49l3.91-4.92h.28V82h.71v1h-.71v1.14h-1.19zm0-1v-1.75L224.23 82zM228.37 83.46a.81.81 0 0 1 .8-.79.79.79 0 0 1 0 1.58.8.8 0 0 1-.8-.79zM230.75 79.29c0-1.29.64-2 1.41-2s1.42.66 1.42 2-.64 1.93-1.42 1.93-1.41-.66-1.41-1.93zm2.08 0c0-.88-.31-1.28-.67-1.28s-.65.4-.65 1.28.3 1.26.65 1.26.67-.4.67-1.26zM234 79.29c0-1.29.63-2 1.41-2s1.42.66 1.42 2-.64 1.93-1.42 1.93-1.41-.66-1.41-1.93zm2.07 0c0-.88-.3-1.28-.66-1.28s-.65.4-.65 1.28.3 1.26.65 1.26.64-.4.64-1.26zM215.75 99.15a2.86 2.86 0 0 1-1.94-1.15l.84-.7a1.82 1.82 0 0 0 1.54.83c.63 0 1-.26 1-.58s-.51-.55-1-.72c-.8-.24-1.86-.52-1.86-1.74a1.53 1.53 0 0 1 1.45-1.56v-.69h1.05v.68a2.46 2.46 0 0 1 1.55.86l-.77.7a1.67 1.67 0 0 0-1.28-.56c-.51 0-.78.17-.78.48s.32.46 1.08.7 1.88.6 1.88 1.73a1.76 1.76 0 0 1-1.68 1.69v.76h-1.05zM220.29 94.13l-1 .09V93.1l2.35-.21v6.43h-1.31zM222.61 99.25L224.3 97c.63-.82 1.32-1.64 1.32-2.22a.93.93 0 0 0-1-.91c-.53 0-.88.36-1.16.89l-.94-.42a2.2 2.2 0 0 1 2.16-1.56 2.06 2.06 0 0 1 2.17 2 4.24 4.24 0 0 1-1.17 2.34l-.78 1h2v1.11h-4.34zM227.86 98.61a.81.81 0 0 1 .8-.79.8.8 0 1 1 0 1.59.81.81 0 0 1-.8-.8zM230.24 94.44c0-1.28.64-1.94 1.42-1.94s1.41.66 1.41 1.94-.64 1.94-1.41 1.94-1.42-.67-1.42-1.94zm2.08 0c0-.88-.3-1.27-.66-1.27s-.66.39-.66 1.27.31 1.26.66 1.26.66-.39.66-1.26zM233.47 94.44c0-1.28.63-1.94 1.41-1.94s1.42.66 1.42 1.94-.64 1.94-1.42 1.94-1.41-.67-1.41-1.94zm2.07 0c0-.88-.3-1.27-.66-1.27s-.65.39-.65 1.27.3 1.26.65 1.26.66-.39.66-1.26zM215.75 114.3a2.86 2.86 0 0 1-1.94-1.14l.84-.7a1.82 1.82 0 0 0 1.54.83c.63 0 1-.26 1-.58s-.51-.55-1-.72c-.8-.24-1.86-.51-1.86-1.73a1.53 1.53 0 0 1 1.45-1.57V108h1.05v.68a2.46 2.46 0 0 1 1.55.86l-.77.7a1.71 1.71 0 0 0-1.28-.56c-.51 0-.78.18-.78.49s.32.45 1.08.7 1.88.6 1.88 1.72a1.77 1.77 0 0 1-1.68 1.7v.71h-1.05zM220.29 109.28l-1 .09v-1.11l2.35-.21v6.43h-1.31zM223.9 109.28l-1 .09v-1.11l2.35-.21v6.43h-1.35zM226.6 113.77a.8.8 0 0 1 .8-.79.79.79 0 0 1 0 1.58.8.8 0 0 1-.8-.79zM229 109.59c0-1.28.63-1.94 1.41-1.94s1.42.66 1.42 1.94-.64 1.94-1.42 1.94-1.41-.66-1.41-1.94zm2.07 0c0-.87-.3-1.27-.66-1.27s-.65.4-.65 1.27.3 1.27.65 1.27.64-.4.64-1.27zM232.21 109.59c0-1.28.63-1.94 1.41-1.94s1.41.66 1.41 1.94-.63 1.94-1.41 1.94-1.41-.66-1.41-1.94zm2.07 0c0-.87-.3-1.27-.66-1.27s-.65.4-.65 1.27.3 1.27.65 1.27.66-.4.66-1.27zM215.75 128.7a2.84 2.84 0 0 1-1.94-1.15l.84-.7a1.83 1.83 0 0 0 1.54.84c.63 0 1-.26 1-.58s-.51-.56-1-.72c-.8-.25-1.86-.52-1.86-1.74a1.52 1.52 0 0 1 1.45-1.56v-.69h1.05v.68a2.5 2.5 0 0 1 1.55.85l-.77.7a1.7 1.7 0 0 0-1.28-.55c-.51 0-.78.17-.78.48s.32.46 1.08.7 1.88.6 1.88 1.73a1.76 1.76 0 0 1-1.68 1.69v.76h-1.05zM220.29 123.68l-1 .09v-1.12l2.35-.21v6.43h-1.31zM222.7 125.68c0-2.2 1.09-3.34 2.43-3.34s2.43 1.14 2.43 3.34-1.1 3.33-2.43 3.33-2.43-1.14-2.43-3.33zm3.56 0c0-1.5-.51-2.18-1.13-2.18s-1.12.68-1.12 2.18.52 2.17 1.12 2.17 1.13-.68 1.13-2.17zM228.32 128.16a.8.8 0 0 1 .8-.79.79.79 0 1 1-.8.79zM230.7 124c0-1.29.63-1.95 1.41-1.95s1.41.66 1.41 1.95-.63 1.93-1.41 1.93-1.41-.67-1.41-1.93zm2.07 0c0-.88-.3-1.28-.66-1.28s-.65.4-.65 1.28.3 1.26.65 1.26.66-.41.66-1.26zM233.92 124c0-1.29.64-1.95 1.42-1.95s1.41.66 1.41 1.95-.63 1.93-1.41 1.93-1.42-.67-1.42-1.93zm2.08 0c0-.88-.3-1.28-.66-1.28s-.65.4-.65 1.28.3 1.26.65 1.26.66-.41.66-1.26zM215.75 144.61a2.84 2.84 0 0 1-1.94-1.15l.84-.7a1.83 1.83 0 0 0 1.54.84c.63 0 1-.26 1-.58s-.51-.56-1-.72c-.8-.25-1.86-.52-1.86-1.74a1.52 1.52 0 0 1 1.45-1.56v-.69h1.05v.69a2.5 2.5 0 0 1 1.55.85l-.77.7a1.7 1.7 0 0 0-1.28-.55c-.51 0-.78.17-.78.48s.32.46 1.08.7 1.88.6 1.88 1.73a1.76 1.76 0 0 1-1.68 1.69v.76h-1.05zM221.42 142.41h-.07a2.15 2.15 0 0 1-2.26-2.07 2.22 2.22 0 0 1 2.36-2.09 2.18 2.18 0 0 1 2.3 2.12 2.7 2.7 0 0 1-.58 1.53l-1.84 2.88H220zm1.07-2.06a1.06 1.06 0 0 0-1.07-1.06 1.1 1.1 0 0 0-1.07 1.06 1.07 1.07 0 1 0 2.14 0zM224.17 144.07a.81.81 0 0 1 .8-.79.79.79 0 0 1 .79.79.78.78 0 0 1-.79.79.8.8 0 0 1-.8-.79zM226.55 139.9c0-1.29.64-2 1.41-2s1.42.66 1.42 2-.64 1.93-1.42 1.93-1.41-.66-1.41-1.93zm2.08 0c0-.88-.31-1.27-.67-1.27s-.65.39-.65 1.27.3 1.26.65 1.26.67-.4.67-1.26zM229.78 139.9c0-1.29.63-2 1.41-2s1.42.66 1.42 2-.64 1.93-1.42 1.93-1.41-.66-1.41-1.93zm2.07 0c0-.88-.3-1.27-.66-1.27s-.65.39-.65 1.27.3 1.26.65 1.26.66-.4.66-1.26zM215.75 160.52a2.84 2.84 0 0 1-1.94-1.15l.84-.7a1.83 1.83 0 0 0 1.54.84c.63 0 1-.26 1-.58s-.51-.56-1-.72c-.8-.25-1.86-.52-1.86-1.74a1.52 1.52 0 0 1 1.45-1.56v-.69h1.05v.68a2.5 2.5 0 0 1 1.55.85l-.77.7a1.7 1.7 0 0 0-1.28-.55c-.51 0-.78.17-.78.48s.32.46 1.08.7 1.88.6 1.88 1.73a1.76 1.76 0 0 1-1.68 1.69v.76h-1.05zM219.09 158.88a1.9 1.9 0 0 1 1.15-1.7 1.58 1.58 0 0 1-.73-1.34 1.93 1.93 0 0 1 3.82 0 1.58 1.58 0 0 1-.73 1.34 1.91 1.91 0 0 1 1.15 1.7 2.36 2.36 0 0 1-4.66 0zm3.4-.06a1.07 1.07 0 0 0-2.14 0 1.07 1.07 0 0 0 2.14 0zm-.17-2.85a.85.85 0 0 0-.9-.84.84.84 0 0 0-.88.84.85.85 0 0 0 .88.87.86.86 0 0 0 .9-.84zM224.54 160a.8.8 0 0 1 .8-.79.79.79 0 1 1-.8.79zM226.88 157.21l.37-.47a1.48 1.48 0 0 0 1 .4.65.65 0 0 0 .71-.62.62.62 0 0 0-.65-.62 1.43 1.43 0 0 0-.79.28l-.39-.12.37-2.1h1.95v.64H228l-.14.85a1.31 1.31 0 0 1 .55-.12 1.23 1.23 0 0 1 1.27 1.21 1.28 1.28 0 0 1-1.41 1.21 1.92 1.92 0 0 1-1.39-.54zM230.06 155.81c0-1.29.63-1.95 1.41-1.95s1.41.66 1.41 1.95-.63 1.93-1.41 1.93-1.41-.66-1.41-1.93zm2.07 0c0-.88-.3-1.27-.66-1.27s-.65.39-.65 1.27.3 1.26.65 1.26.66-.4.66-1.26zM215.75 174.91a2.86 2.86 0 0 1-1.94-1.14l.84-.7a1.82 1.82 0 0 0 1.54.83c.63 0 1-.26 1-.58s-.51-.55-1-.72c-.8-.24-1.86-.51-1.86-1.73a1.53 1.53 0 0 1 1.45-1.57v-.69h1.05v.68a2.46 2.46 0 0 1 1.55.86l-.77.7a1.71 1.71 0 0 0-1.28-.56c-.51 0-.78.18-.78.49s.32.45 1.08.7 1.88.6 1.88 1.72a1.77 1.77 0 0 1-1.68 1.7v.75h-1.05zM219.09 173.28a1.88 1.88 0 0 1 1.15-1.7 1.59 1.59 0 0 1-.73-1.34 1.93 1.93 0 0 1 3.82 0 1.59 1.59 0 0 1-.73 1.34 1.89 1.89 0 0 1 1.15 1.7 2.37 2.37 0 0 1-4.66 0zm3.4-.07a1.07 1.07 0 0 0-2.14 0 1.07 1.07 0 0 0 2.14 0zm-.17-2.84a.86.86 0 0 0-.9-.85.86.86 0 1 0 0 1.71.86.86 0 0 0 .9-.86zM224.54 174.38a.8.8 0 0 1 .8-.79.79.79 0 1 1 0 1.58.8.8 0 0 1-.8-.79zM226.92 170.2c0-1.28.63-1.94 1.41-1.94s1.41.66 1.41 1.94-.63 1.94-1.41 1.94-1.41-.66-1.41-1.94zm2.07 0c0-.87-.3-1.27-.66-1.27s-.65.4-.65 1.27.3 1.27.65 1.27.67-.4.67-1.27zM230.14 170.2c0-1.28.64-1.94 1.42-1.94s1.41.66 1.41 1.94-.64 1.94-1.41 1.94-1.42-.66-1.42-1.94zm2.08 0c0-.87-.3-1.27-.66-1.27s-.66.4-.66 1.27.31 1.27.66 1.27.66-.4.66-1.27zM215.75 190.07a2.87 2.87 0 0 1-1.94-1.15l.84-.7a1.83 1.83 0 0 0 1.54.84c.63 0 1-.27 1-.59s-.51-.55-1-.71c-.8-.25-1.86-.52-1.86-1.74a1.52 1.52 0 0 1 1.45-1.56v-.7h1.05v.69a2.41 2.41 0 0 1 1.55.85l-.77.7a1.7 1.7 0 0 0-1.28-.55c-.51 0-.78.17-.78.48s.32.45 1.08.7 1.88.6 1.88 1.73a1.76 1.76 0 0 1-1.68 1.69v.75h-1.05zM221.76 185h-2.7v-1.1h4.48v.1l-2.65 6.29h-1.37zM223.67 189.53a.81.81 0 0 1 .8-.79.79.79 0 0 1 0 1.58.8.8 0 0 1-.8-.79zM226.05 185.35c0-1.28.64-1.94 1.41-1.94s1.42.66 1.42 1.94-.64 1.94-1.42 1.94-1.41-.66-1.41-1.94zm2.08 0c0-.87-.31-1.27-.67-1.27s-.65.4-.65 1.27.3 1.27.65 1.27.67-.4.67-1.27zM229.28 185.35c0-1.28.63-1.94 1.41-1.94s1.42.66 1.42 1.94-.64 1.94-1.42 1.94-1.41-.66-1.41-1.94zm2.07 0c0-.87-.3-1.27-.66-1.27s-.65.4-.65 1.27.3 1.27.65 1.27.66-.4.66-1.27z"/><path class="g" d="M58.65 53.28v-5.92h2.51a1.72 1.72 0 0 1 .75.17 1.89 1.89 0 0 1 .6.45 2.55 2.55 0 0 1 .39.63 2 2 0 0 1 0 1.45 2.07 2.07 0 0 1-.38.62 1.68 1.68 0 0 1-1.33.61H59.8v2zm1.15-3h1.33a.66.66 0 0 0 .53-.25 1.1 1.1 0 0 0 .21-.7 1.31 1.31 0 0 0-.06-.41 1.09 1.09 0 0 0-.18-.3.64.64 0 0 0-.25-.19.8.8 0 0 0-.3-.06H59.8zM64.88 53.36a1.87 1.87 0 0 1-.59-.1 1.5 1.5 0 0 1-.48-.3 1.48 1.48 0 0 1-.31-.43 1.42 1.42 0 0 1-.11-.55 1.2 1.2 0 0 1 .14-.57 1.27 1.27 0 0 1 .38-.45 1.91 1.91 0 0 1 .59-.29 2.57 2.57 0 0 1 .75-.1 2.75 2.75 0 0 1 .57 0 2.27 2.27 0 0 1 .5.14v-.25a.91.91 0 0 0-.25-.67 1 1 0 0 0-.73-.23 2 2 0 0 0-.68.12 3.59 3.59 0 0 0-.69.37l-.34-.71a3.25 3.25 0 0 1 1.82-.56 2.12 2.12 0 0 1 1.46.47 1.68 1.68 0 0 1 .52 1.33V52a.4.4 0 0 0 .06.25.32.32 0 0 0 .21.09v1a3.25 3.25 0 0 1-.49 0 .72.72 0 0 1-.49-.14.58.58 0 0 1-.21-.37v-.24a1.9 1.9 0 0 1-.71.58 2 2 0 0 1-.92.19zm.32-.82a1.4 1.4 0 0 0 .54-.1.86.86 0 0 0 .39-.26.43.43 0 0 0 .19-.32v-.5a2.83 2.83 0 0 0-.44-.12 2.3 2.3 0 0 0-.45-.05 1.22 1.22 0 0 0-.71.2.58.58 0 0 0-.27.49.61.61 0 0 0 .22.48.79.79 0 0 0 .53.18zM70.12 53.36a1.64 1.64 0 0 1-.76-.18 1.81 1.81 0 0 1-.61-.49 2.08 2.08 0 0 1-.39-.72 2.77 2.77 0 0 1 0-1.77 2.21 2.21 0 0 1 .43-.71 2.07 2.07 0 0 1 .65-.48 1.85 1.85 0 0 1 .81-.18 1.72 1.72 0 0 1 .88.23 2 2 0 0 1 .63.61v-.76h1v4.8a.33.33 0 0 0 .07.25.29.29 0 0 0 .17.04v1h-.61a.81.81 0 0 1-.31-.06.77.77 0 0 1-.43-.39.74.74 0 0 1-.07-.31v-1.73a1.66 1.66 0 0 1-.62.64 1.82 1.82 0 0 1-.84.21zm.42-1a1.05 1.05 0 0 0 .63-.2 1.76 1.76 0 0 0 .45-.52v-1a.89.89 0 0 0-.16-.34 1.16 1.16 0 0 0-.26-.3 1.35 1.35 0 0 0-.33-.19 1 1 0 0 0-1.18.34 1.31 1.31 0 0 0-.25.43 1.63 1.63 0 0 0 0 1 1.18 1.18 0 0 0 .25.4 1 1 0 0 0 .37.28 1.06 1.06 0 0 0 .48.15zM75.09 53.36a1.22 1.22 0 0 1-1-.43 2 2 0 0 1-.35-1.29v-2.73h1.11v2.49c0 .67.24 1 .73 1a1.2 1.2 0 0 0 .63-.2 1.45 1.45 0 0 0 .49-.59v-2.7h1.1V52a.4.4 0 0 0 .06.25.29.29 0 0 0 .21.09v1h-.49a.84.84 0 0 1-.49-.14.59.59 0 0 1-.22-.38v-.35a1.92 1.92 0 0 1-.75.67 2.27 2.27 0 0 1-1.03.22zM80.93 53.36a2.44 2.44 0 0 1-1-.18A2.23 2.23 0 0 1 78.79 52a2.45 2.45 0 0 1 0-1.74 2.21 2.21 0 0 1 .46-.73A2.23 2.23 0 0 1 80 49a2.42 2.42 0 0 1 1-.19 2.45 2.45 0 0 1 1 .19 2.1 2.1 0 0 1 .71.49 1.91 1.91 0 0 1 .45.72 2.42 2.42 0 0 1 .16.85v.2a.72.72 0 0 1 0 .17h-3.5a1.12 1.12 0 0 0 .12.46 1.1 1.1 0 0 0 .26.34 1 1 0 0 0 .36.22 1.14 1.14 0 0 0 .41.07 1.23 1.23 0 0 0 .63-.16.85.85 0 0 0 .4-.36l1 .27a2 2 0 0 1-.78.82 2.41 2.41 0 0 1-1.29.27zm1.14-2.63a1.16 1.16 0 0 0-.37-.79 1.09 1.09 0 0 0-.78-.3 1.16 1.16 0 0 0-.42.08 1.11 1.11 0 0 0-.34.22 1.42 1.42 0 0 0-.25.34 1.29 1.29 0 0 0-.11.45zM86.48 53.05a4.74 4.74 0 0 1-.55.2 2.15 2.15 0 0 1-.68.1 1.56 1.56 0 0 1-.44-.06 1.22 1.22 0 0 1-.36-.18 1 1 0 0 1-.24-.34 1.19 1.19 0 0 1-.09-.49v-2.51h-.58v-.86h.58v-1.42h1.11v1.42h.92v.86h-.92v2.13a.39.39 0 0 0 .12.33.49.49 0 0 0 .3.1 1 1 0 0 0 .34-.06l.27-.1zM89 53.36a2.44 2.44 0 0 1-1-.18 2.14 2.14 0 0 1-.72-.49 2 2 0 0 1-.46-.71 2.31 2.31 0 0 1-.17-.86 2.55 2.55 0 0 1 .16-.88 2.21 2.21 0 0 1 .46-.73A2.23 2.23 0 0 1 88 49a2.45 2.45 0 0 1 1-.19 2.42 2.42 0 0 1 1 .19 2 2 0 0 1 .71.49 1.91 1.91 0 0 1 .45.72 2.22 2.22 0 0 1 .16.85 1.27 1.27 0 0 1 0 .2.72.72 0 0 1 0 .17h-3.45a1.12 1.12 0 0 0 .12.46 1.1 1.1 0 0 0 .26.34 1 1 0 0 0 .36.22 1.14 1.14 0 0 0 .41.07 1.23 1.23 0 0 0 .63-.16.85.85 0 0 0 .41-.43l1 .27a2 2 0 0 1-.77.82 2.47 2.47 0 0 1-1.29.34zm1.14-2.63a1.16 1.16 0 0 0-.37-.79 1.08 1.08 0 0 0-.77-.3 1.18 1.18 0 0 0-.43.08 1.11 1.11 0 0 0-.34.22 1.42 1.42 0 0 0-.25.34 1.29 1.29 0 0 0-.11.45z"/><path class="a" d="M209.18 204.84a2.06 2.06 0 0 1 .14-.77 2 2 0 0 1 .41-.69 2.19 2.19 0 0 1 .67-.49 2 2 0 0 1 .9-.19 2 2 0 0 1 1 .26 1.67 1.67 0 0 1 .64.68l-.64.44a1.14 1.14 0 0 0-.21-.3 1 1 0 0 0-.26-.2 1 1 0 0 0-.29-.11 1.53 1.53 0 0 0-.3 0 1.12 1.12 0 0 0-.93.46 1.44 1.44 0 0 0-.24.46 1.81 1.81 0 0 0-.08.51 1.49 1.49 0 0 0 .1.55 1.46 1.46 0 0 0 .25.46 1.38 1.38 0 0 0 .4.32 1.14 1.14 0 0 0 .52.12h.3a1.88 1.88 0 0 0 .3-.12 1.21 1.21 0 0 0 .26-.2.93.93 0 0 0 .2-.3l.68.39a1.42 1.42 0 0 1-.29.43 1.88 1.88 0 0 1-.43.31 2.16 2.16 0 0 1-.52.2 2.46 2.46 0 0 1-.53.06 1.79 1.79 0 0 1-.84-.19 2.27 2.27 0 0 1-1.09-1.22 2.24 2.24 0 0 1-.12-.87zM215 207.09a1.67 1.67 0 0 1-.69-.14 1.39 1.39 0 0 1-.53-.36 1.61 1.61 0 0 1-.44-1.14 1.69 1.69 0 0 1 .11-.64 1.77 1.77 0 0 1 .33-.52 1.65 1.65 0 0 1 1.22-.49 1.75 1.75 0 0 1 .7.13 1.73 1.73 0 0 1 .52.36 1.77 1.77 0 0 1 .33.52 1.69 1.69 0 0 1 .11.64 1.61 1.61 0 0 1-.44 1.14 1.28 1.28 0 0 1-.52.36 1.75 1.75 0 0 1-.7.14zm-.83-1.64a1 1 0 0 0 .07.38 1 1 0 0 0 .17.3.9.9 0 0 0 .27.2.79.79 0 0 0 .65 0 .86.86 0 0 0 .26-.2.92.92 0 0 0 .18-.3 1.23 1.23 0 0 0 .06-.39 1.12 1.12 0 0 0-.06-.38.87.87 0 0 0-.18-.31.7.7 0 0 0-.26-.19.72.72 0 0 0-.33-.07.71.71 0 0 0-.32.07.9.9 0 0 0-.27.2 1 1 0 0 0-.17.3 1 1 0 0 0-.09.39zM218.39 207.09a2.55 2.55 0 0 1-.78-.13 1.9 1.9 0 0 1-.66-.36l.31-.51a2.87 2.87 0 0 0 .56.31 1.58 1.58 0 0 0 .55.11.69.69 0 0 0 .38-.09.3.3 0 0 0 .14-.27.25.25 0 0 0-.16-.24 3 3 0 0 0-.53-.19 5 5 0 0 1-.53-.16 1.14 1.14 0 0 1-.35-.18.62.62 0 0 1-.2-.23.75.75 0 0 1-.06-.31.92.92 0 0 1 .1-.44.93.93 0 0 1 .26-.33 1.27 1.27 0 0 1 .4-.21 1.53 1.53 0 0 1 .49-.07 2.41 2.41 0 0 1 .67.1 1.52 1.52 0 0 1 .57.34l-.32.49a2.33 2.33 0 0 0-.47-.27 1.28 1.28 0 0 0-.46-.08.61.61 0 0 0-.34.08.31.31 0 0 0-.14.27.26.26 0 0 0 0 .14.36.36 0 0 0 .11.1.68.68 0 0 0 .19.08 1.71 1.71 0 0 0 .29.08l.56.17a1.76 1.76 0 0 1 .39.2.56.56 0 0 1 .21.25.71.71 0 0 1 .07.34.89.89 0 0 1-.34.74 1.48 1.48 0 0 1-.91.27zM222.1 206.86a2.86 2.86 0 0 1-.4.15 1.57 1.57 0 0 1-.49.07 1.08 1.08 0 0 1-.32 0 .6.6 0 0 1-.26-.14.55.55 0 0 1-.18-.24.8.8 0 0 1-.07-.36v-1.82H220v-.63h.42v-1h.81v1h.67v.63h-.67V206a.3.3 0 0 0 .09.24.38.38 0 0 0 .22.07.74.74 0 0 0 .25-.05l.19-.07zM223.92 207.09a1.75 1.75 0 0 1-.7-.14 1.28 1.28 0 0 1-.52-.36 1.36 1.36 0 0 1-.33-.52 1.67 1.67 0 0 1-.12-.62 1.69 1.69 0 0 1 .12-.64 1.44 1.44 0 0 1 .33-.52 1.51 1.51 0 0 1 .52-.36 1.75 1.75 0 0 1 .7-.13 1.7 1.7 0 0 1 .69.13 1.61 1.61 0 0 1 .52.36 1.44 1.44 0 0 1 .33.52 1.69 1.69 0 0 1 .12.64 1.67 1.67 0 0 1-.12.62 1.36 1.36 0 0 1-.33.52 1.28 1.28 0 0 1-.52.36 1.7 1.7 0 0 1-.69.14zm-.83-1.64a1.16 1.16 0 0 0 .06.38.83.83 0 0 0 .18.3.86.86 0 0 0 .26.2.79.79 0 0 0 .65 0 1.05 1.05 0 0 0 .27-.2 1.11 1.11 0 0 0 .17-.3 1 1 0 0 0 .07-.39.92.92 0 0 0-.07-.38 1 1 0 0 0-.17-.31.83.83 0 0 0-.27-.19.71.71 0 0 0-.32-.07.72.72 0 0 0-.33.07.86.86 0 0 0-.26.2.83.83 0 0 0-.18.3 1.23 1.23 0 0 0-.06.39zM228.55 207.09a.91.91 0 0 1-.75-.32 1.45 1.45 0 0 1-.25-.93v-2h.81v1.81c0 .49.17.74.53.74a.78.78 0 0 0 .45-.15 1 1 0 0 0 .36-.43v-2h.82v2.24a.32.32 0 0 0 0 .19.26.26 0 0 0 .15.06v.7h-.35a.57.57 0 0 1-.36-.1.4.4 0 0 1-.16-.27v-.26a1.35 1.35 0 0 1-.55.49 1.63 1.63 0 0 1-.7.23zM234.27 207h-.81v-1.78a.91.91 0 0 0-.13-.56.43.43 0 0 0-.37-.18.79.79 0 0 0-.25.05 1 1 0 0 0-.24.14 1 1 0 0 0-.2.21.94.94 0 0 0-.14.26V207h-.81v-3.18h.74v.59a1.11 1.11 0 0 1 .51-.47 1.54 1.54 0 0 1 .75-.17.88.88 0 0 1 .48.11.71.71 0 0 1 .29.28 1.28 1.28 0 0 1 .15.4 3.4 3.4 0 0 1 0 .45zM235 203.41v-.81h.82v.81zm0 3.62v-3.18h.82V207zM238.43 206.86a3.44 3.44 0 0 1-.4.15 1.61 1.61 0 0 1-.49.07 1.08 1.08 0 0 1-.32 0 .6.6 0 0 1-.26-.14.55.55 0 0 1-.18-.24.8.8 0 0 1-.07-.36v-1.82h-.42v-.63h.42v-1h.81v1h.67v.63h-.67V206a.3.3 0 0 0 .09.24.38.38 0 0 0 .22.07.69.69 0 0 0 .24-.05 1.11 1.11 0 0 0 .2-.07zM239.72 207.09a1.26 1.26 0 0 1-.43-.08 1 1 0 0 1-.34-.21.9.9 0 0 1-.23-.32 1 1 0 0 1-.08-.4.8.8 0 0 1 .1-.41.88.88 0 0 1 .28-.33 1.38 1.38 0 0 1 .42-.21 1.93 1.93 0 0 1 .55-.07 2.73 2.73 0 0 1 .41 0 1.79 1.79 0 0 1 .37.11V205a.62.62 0 0 0-.18-.48.77.77 0 0 0-.53-.17 1.43 1.43 0 0 0-.5.09 2.24 2.24 0 0 0-.5.27l-.25-.52a2.35 2.35 0 0 1 1.32-.4 1.57 1.57 0 0 1 1.07.33 1.26 1.26 0 0 1 .38 1v1a.32.32 0 0 0 0 .19.26.26 0 0 0 .15.06v.63a1.71 1.71 0 0 1-.36 0 .52.52 0 0 1-.35-.1.46.46 0 0 1-.16-.28v-.17a1.4 1.4 0 0 1-.52.42 1.44 1.44 0 0 1-.62.22zm.23-.6a1 1 0 0 0 .39-.07.7.7 0 0 0 .29-.19.31.31 0 0 0 .14-.23v-.37l-.32-.09h-.33a.88.88 0 0 0-.51.14.42.42 0 0 0-.2.36.43.43 0 0 0 .16.35.55.55 0 0 0 .43.1zM244.23 204.55a1.69 1.69 0 0 0-.66.15.77.77 0 0 0-.42.41V207h-.81v-3.18h.74v.68a1.24 1.24 0 0 1 .2-.29 1.34 1.34 0 0 1 .25-.23.91.91 0 0 1 .27-.15.85.85 0 0 1 .26-.05h.17zM244.68 203.41v-.81h.81v.81zm0 3.62v-3.18h.81V207zM247.69 207.09a1.67 1.67 0 0 1-.69-.09 1.39 1.39 0 0 1-.53-.36 1.61 1.61 0 0 1-.44-1.14 1.69 1.69 0 0 1 .11-.64 1.77 1.77 0 0 1 .33-.52 1.65 1.65 0 0 1 1.22-.49 1.75 1.75 0 0 1 .7.13 1.73 1.73 0 0 1 .52.36 1.77 1.77 0 0 1 .33.52 1.69 1.69 0 0 1 .11.64 1.61 1.61 0 0 1-.44 1.14 1.28 1.28 0 0 1-.52.36 1.75 1.75 0 0 1-.7.09zm-.83-1.64a1 1 0 0 0 .07.38 1 1 0 0 0 .17.3.9.9 0 0 0 .27.2.79.79 0 0 0 .65 0 .86.86 0 0 0 .26-.2.92.92 0 0 0 .18-.3 1.23 1.23 0 0 0 .06-.39 1.12 1.12 0 0 0-.06-.38.87.87 0 0 0-.18-.31.7.7 0 0 0-.26-.19.72.72 0 0 0-.33-.07.71.71 0 0 0-.32.07.9.9 0 0 0-.27.2 1 1 0 0 0-.17.3 1 1 0 0 0-.07.39zM249.88 203.88l.29-.43-.43-.14.1-.35.45.19v-.47h.43v.47l.43-.19.11.35-.42.14.28.43-.31.2-.27-.45-.28.45zM167.1 207v-4.31h1.82a1.24 1.24 0 0 1 .55.13 1.31 1.31 0 0 1 .44.33 1.42 1.42 0 0 1 .28.46 1.32 1.32 0 0 1 .1.51 1.55 1.55 0 0 1-.09.53 1.6 1.6 0 0 1-.27.46 1.3 1.3 0 0 1-1 .44h-1V207zm.84-2.18h1a.46.46 0 0 0 .38-.19.78.78 0 0 0 .16-.51.88.88 0 0 0 0-.29.67.67 0 0 0-.13-.22.49.49 0 0 0-.18-.14.6.6 0 0 0-.22 0h-.93zM172.69 204.55a1.69 1.69 0 0 0-.66.15.8.8 0 0 0-.42.41V207h-.81v-3.18h.74v.68a1.64 1.64 0 0 1 .2-.29 1.34 1.34 0 0 1 .26-.21.91.91 0 0 1 .27-.15.86.86 0 0 1 .27-.05h.16zM174.46 207.09a1.84 1.84 0 0 1-.69-.13 1.66 1.66 0 0 1-.53-.36 1.51 1.51 0 0 1-.34-.52 1.84 1.84 0 0 1-.11-.62 1.66 1.66 0 0 1 .44-1.17 1.65 1.65 0 0 1 1.23-.49 1.71 1.71 0 0 1 .7.13 1.61 1.61 0 0 1 .52.36 1.65 1.65 0 0 1 .33.52 1.84 1.84 0 0 1 .11.62v.27h-2.45a.8.8 0 0 0 .09.33.79.79 0 0 0 .19.25.76.76 0 0 0 .26.16.73.73 0 0 0 .3.05 1.07 1.07 0 0 0 .46-.11.64.64 0 0 0 .29-.32l.7.2a1.44 1.44 0 0 1-.56.59 1.73 1.73 0 0 1-.94.24zm.82-1.92a.82.82 0 0 0-.83-.79.73.73 0 0 0-.3.06.72.72 0 0 0-.25.16.64.64 0 0 0-.18.25.9.9 0 0 0-.09.32zM176.42 205.44a1.9 1.9 0 0 1 .11-.63 1.51 1.51 0 0 1 .34-.52 1.61 1.61 0 0 1 .52-.36 1.75 1.75 0 0 1 .7-.13 1.68 1.68 0 0 1 .89.22 1.48 1.48 0 0 1 .55.59l-.8.24a.7.7 0 0 0-.27-.27.79.79 0 0 0-.38-.09.71.71 0 0 0-.32.07.83.83 0 0 0-.27.19.87.87 0 0 0-.17.3 1 1 0 0 0-.07.39 1.23 1.23 0 0 0 .07.39.92.92 0 0 0 .18.3.86.86 0 0 0 .26.2.88.88 0 0 0 .32.07.84.84 0 0 0 .41-.11.58.58 0 0 0 .25-.27l.8.24a1.35 1.35 0 0 1-.54.6 1.85 1.85 0 0 1-1.6.09 1.39 1.39 0 0 1-.53-.36 1.49 1.49 0 0 1-.33-.52 1.68 1.68 0 0 1-.12-.63zM180 203.41v-.81h.81v.81zm0 3.62v-3.18h.81V207zM183.05 207.09a1.75 1.75 0 0 1-.7-.14 1.28 1.28 0 0 1-.52-.36 1.36 1.36 0 0 1-.33-.52 1.67 1.67 0 0 1-.12-.62 1.69 1.69 0 0 1 .12-.64 1.44 1.44 0 0 1 .33-.52 1.51 1.51 0 0 1 .52-.36 1.75 1.75 0 0 1 .7-.13 1.67 1.67 0 0 1 .69.13 1.51 1.51 0 0 1 .52.36 1.44 1.44 0 0 1 .33.52 1.69 1.69 0 0 1 .12.64 1.67 1.67 0 0 1-.12.62 1.46 1.46 0 0 1-.32.52 1.39 1.39 0 0 1-.53.36 1.67 1.67 0 0 1-.69.14zm-.83-1.64a1.16 1.16 0 0 0 .06.38.83.83 0 0 0 .18.3.86.86 0 0 0 .26.2.88.88 0 0 0 .33.07.93.93 0 0 0 .33-.07 1 1 0 0 0 .26-.2 1.11 1.11 0 0 0 .17-.3 1 1 0 0 0 .07-.39.92.92 0 0 0-.07-.38 1 1 0 0 0-.17-.31.79.79 0 0 0-.26-.19.75.75 0 0 0-.33-.07.72.72 0 0 0-.33.07.86.86 0 0 0-.26.2.83.83 0 0 0-.18.3 1.23 1.23 0 0 0-.06.39zM188.6 204.55v.65h-.6v.69h-.73v-.69h-.63v-.65h.63v-.69h.73v.69zM190.79 207v-4.31h.84V207zM193.3 207l-1.17-3.18h.87l.81 2.52.81-2.52h.76l-1.2 3.18zM196.56 207.09a1.26 1.26 0 0 1-.43-.08 1 1 0 0 1-.34-.21.9.9 0 0 1-.23-.32.87.87 0 0 1-.08-.4.8.8 0 0 1 .1-.41.88.88 0 0 1 .28-.33 1.38 1.38 0 0 1 .42-.21 1.93 1.93 0 0 1 .55-.07 2.73 2.73 0 0 1 .41 0 1.79 1.79 0 0 1 .37.11V205a.62.62 0 0 0-.18-.48.77.77 0 0 0-.53-.17 1.43 1.43 0 0 0-.5.09 2.24 2.24 0 0 0-.5.27l-.25-.52a2.35 2.35 0 0 1 1.32-.4 1.57 1.57 0 0 1 1.07.33 1.26 1.26 0 0 1 .38 1v1a.32.32 0 0 0 0 .19.26.26 0 0 0 .15.06v.63a1.71 1.71 0 0 1-.36 0 .52.52 0 0 1-.35-.1.46.46 0 0 1-.16-.28v-.17a1.49 1.49 0 0 1-.52.42 1.44 1.44 0 0 1-.62.22zm.23-.6a1 1 0 0 0 .39-.07.7.7 0 0 0 .29-.19.31.31 0 0 0 .14-.23v-.37l-.32-.09h-.33a.88.88 0 0 0-.51.14.42.42 0 0 0-.2.36.43.43 0 0 0 .16.35.55.55 0 0 0 .38.1zM199.17 203.88l.29-.43-.43-.14.11-.35.44.19v-.47h.42v.47l.44-.19.11.35-.43.14.29.43-.32.2-.27-.45-.28.45z"/><path class="g" d="M131.77 53.28v-5.92h1.15v5.92zM140.83 53.28h-1.11v-2.45a1.3 1.3 0 0 0-.18-.77.59.59 0 0 0-.5-.24.91.91 0 0 0-.62.25 1.35 1.35 0 0 0-.42.66v2.55h-1.12v-2.45a1.3 1.3 0 0 0-.18-.77.58.58 0 0 0-.49-.24.91.91 0 0 0-.62.25 1.26 1.26 0 0 0-.42.66v2.55h-1.12v-4.37h1v.81a1.68 1.68 0 0 1 .66-.66 2 2 0 0 1 1-.23 1.22 1.22 0 0 1 .85.27 1.25 1.25 0 0 1 .39.66 1.85 1.85 0 0 1 .67-.69 1.83 1.83 0 0 1 .94-.24 1.28 1.28 0 0 1 .65.15 1 1 0 0 1 .4.4 1.57 1.57 0 0 1 .2.55 3.18 3.18 0 0 1 .05.62zM144.43 53.36a1.72 1.72 0 0 1-.9-.23 1.56 1.56 0 0 1-.6-.62v2.54h-1.12v-6.14h1v.75a1.72 1.72 0 0 1 .63-.6 1.7 1.7 0 0 1 .88-.23 1.86 1.86 0 0 1 .82.18 2.07 2.07 0 0 1 .65.49 2.19 2.19 0 0 1 .42.71 2.57 2.57 0 0 1 .15.87 2.65 2.65 0 0 1-.14.9 2.17 2.17 0 0 1-.39.72 1.67 1.67 0 0 1-.61.48 1.64 1.64 0 0 1-.79.18zm-.38-1a1 1 0 0 0 .46-.11 1.06 1.06 0 0 0 .37-.29 1.36 1.36 0 0 0 .23-.43 1.38 1.38 0 0 0 .08-.5 1.44 1.44 0 0 0-.09-.51 1.21 1.21 0 0 0-.64-.69 1.21 1.21 0 0 0-.48-.1 1 1 0 0 0-.32.06 1.77 1.77 0 0 0-.31.15 1.42 1.42 0 0 0-.25.24.66.66 0 0 0-.17.29v1a1.49 1.49 0 0 0 .45.62 1 1 0 0 0 .67.32zM149.11 53.36a2.42 2.42 0 0 1-1-.18 2.32 2.32 0 0 1-.72-.5A2.08 2.08 0 0 1 147 52a2.27 2.27 0 0 1-.16-.86 2.35 2.35 0 0 1 .16-.87 2.08 2.08 0 0 1 .45-.72 2.29 2.29 0 0 1 .72-.49 2.5 2.5 0 0 1 1.91 0 2.29 2.29 0 0 1 .72.49 2.08 2.08 0 0 1 .45.72 2.35 2.35 0 0 1 .16.87 2.27 2.27 0 0 1-.16.86 2.08 2.08 0 0 1-.45.72 2.17 2.17 0 0 1-.71.5 2.49 2.49 0 0 1-.98.14zM148 51.1a1.74 1.74 0 0 0 .08.53 1.13 1.13 0 0 0 .25.41 1 1 0 0 0 .36.27 1.06 1.06 0 0 0 .9 0 1 1 0 0 0 .36-.27 1.27 1.27 0 0 0 .24-.41 1.53 1.53 0 0 0 .09-.54 1.46 1.46 0 0 0-.09-.52 1.44 1.44 0 0 0-.24-.42 1 1 0 0 0-.36-.27 1.06 1.06 0 0 0-.9 0 1.09 1.09 0 0 0-.36.28 1.27 1.27 0 0 0-.25.42 1.72 1.72 0 0 0-.08.52zM154.74 49.88a2.21 2.21 0 0 0-.91.19 1.19 1.19 0 0 0-.57.56v2.65h-1.12v-4.37h1v.93a2.33 2.33 0 0 1 .27-.4 1.69 1.69 0 0 1 .35-.31 1.53 1.53 0 0 1 .37-.21 1.15 1.15 0 0 1 .36-.07h.22zM158 53.05a4.74 4.74 0 0 1-.55.2 2.15 2.15 0 0 1-.68.1 1.61 1.61 0 0 1-.44-.06 1.06 1.06 0 0 1-.35-.18.86.86 0 0 1-.25-.34 1.19 1.19 0 0 1-.09-.49v-2.51H155v-.86h.58v-1.42h1.11v1.42h.92v.86h-.92v2.13a.37.37 0 0 0 .13.33.46.46 0 0 0 .29.1 1 1 0 0 0 .34-.06l.27-.1zM160.48 53.36a2.44 2.44 0 0 1-.95-.18 2.17 2.17 0 0 1-1.18-1.2 2.31 2.31 0 0 1-.17-.86 2.55 2.55 0 0 1 .16-.88 2.21 2.21 0 0 1 .46-.73 2.23 2.23 0 0 1 .73-.49 2.49 2.49 0 0 1 1-.19 2.42 2.42 0 0 1 1 .19 2 2 0 0 1 .71.49 1.91 1.91 0 0 1 .45.72 2.22 2.22 0 0 1 .16.85 1.27 1.27 0 0 1 0 .2.72.72 0 0 1 0 .17h-3.37a1.3 1.3 0 0 0 .12.46 1.28 1.28 0 0 0 .26.34 1.13 1.13 0 0 0 .36.22 1.16 1.16 0 0 0 .42.07 1.28 1.28 0 0 0 .63-.16.87.87 0 0 0 .4-.43l1 .27a2 2 0 0 1-.77.82 2.47 2.47 0 0 1-1.42.32zm1.14-2.63a1.19 1.19 0 0 0-.36-.79 1.12 1.12 0 0 0-.78-.3 1.16 1.16 0 0 0-.42.08 1 1 0 0 0-.35.22 1.42 1.42 0 0 0-.25.34 1.29 1.29 0 0 0-.11.45zM163.45 48.94l.39-.59-.59-.18.15-.49.61.26v-.64h.59v.64l.6-.26.15.49-.58.18.39.59-.44.29-.37-.63-.38.63zM213.8 50.28a3.07 3.07 0 0 1 .2-1.07 2.87 2.87 0 0 1 .57-1 3 3 0 0 1 .92-.68 2.85 2.85 0 0 1 1.23-.25 2.76 2.76 0 0 1 1.41.35 2.23 2.23 0 0 1 .89.94l-.88.61a1.65 1.65 0 0 0-.64-.7 2 2 0 0 0-.41-.14 1.83 1.83 0 0 0-.4 0 1.55 1.55 0 0 0-.76.18 1.65 1.65 0 0 0-.53.45 2 2 0 0 0-.32.64 2.43 2.43 0 0 0-.11.7 2.36 2.36 0 0 0 .12.75 2.09 2.09 0 0 0 .36.64 1.81 1.81 0 0 0 .55.44 1.51 1.51 0 0 0 .7.17 2 2 0 0 0 .42-.05 1.59 1.59 0 0 0 .41-.16 1.57 1.57 0 0 0 .37-.28 1.15 1.15 0 0 0 .26-.41l.94.54a1.81 1.81 0 0 1-.4.59 2.79 2.79 0 0 1-.59.43 3.34 3.34 0 0 1-.71.26 2.67 2.67 0 0 1-.73.1 2.51 2.51 0 0 1-1.16-.27 3 3 0 0 1-.9-.7 3 3 0 0 1-.59-1 2.93 2.93 0 0 1-.22-1.08zM221.79 53.36a2.42 2.42 0 0 1-1-.18 2.11 2.11 0 0 1-.72-.5 2.27 2.27 0 0 1-.46-.72 2.47 2.47 0 0 1-.15-.86 2.57 2.57 0 0 1 .15-.87 2.27 2.27 0 0 1 .46-.72 2.09 2.09 0 0 1 .72-.49 2.5 2.5 0 0 1 1.91 0 2.29 2.29 0 0 1 .72.49 2.08 2.08 0 0 1 .45.72 2.35 2.35 0 0 1 .16.87 2.27 2.27 0 0 1-.16.86 2.08 2.08 0 0 1-.45.72 2.17 2.17 0 0 1-.71.5 2.49 2.49 0 0 1-.92.18zm-1.14-2.26a1.48 1.48 0 0 0 .08.53 1.27 1.27 0 0 0 .27.37 1.07 1.07 0 0 0 .37.27 1.06 1.06 0 0 0 .9 0 1 1 0 0 0 .36-.27 1.27 1.27 0 0 0 .24-.41 1.53 1.53 0 0 0 .09-.54 1.46 1.46 0 0 0-.09-.52 1.44 1.44 0 0 0-.24-.42 1 1 0 0 0-.36-.27 1.06 1.06 0 0 0-.9 0 1.25 1.25 0 0 0-.37.28 1.44 1.44 0 0 0-.24.42 1.46 1.46 0 0 0-.11.56zM226.47 53.36a3.25 3.25 0 0 1-1.07-.18 2.47 2.47 0 0 1-.9-.5l.41-.7a3.4 3.4 0 0 0 .78.43 2.06 2.06 0 0 0 .76.15.89.89 0 0 0 .52-.13.39.39 0 0 0 .19-.35.37.37 0 0 0-.22-.35 6.08 6.08 0 0 0-.74-.25 8.04 8.04 0 0 1-.72-.22A1.54 1.54 0 0 1 225 51a.79.79 0 0 1-.27-.31 1 1 0 0 1-.08-.43 1.32 1.32 0 0 1 .13-.6 1.23 1.23 0 0 1 .36-.46 1.54 1.54 0 0 1 .54-.28 2.15 2.15 0 0 1 .68-.1 2.73 2.73 0 0 1 .92.14 2.05 2.05 0 0 1 .79.46l-.45.67a2.68 2.68 0 0 0-.64-.37 2 2 0 0 0-.63-.11 1 1 0 0 0-.47.11.41.41 0 0 0-.19.38.36.36 0 0 0 0 .19.32.32 0 0 0 .15.13 1.62 1.62 0 0 0 .26.12l.41.11c.3.08.55.15.77.23a2.09 2.09 0 0 1 .52.27.9.9 0 0 1 .3.35 1 1 0 0 1 .1.47 1.22 1.22 0 0 1-.48 1 2 2 0 0 1-1.25.39zM231.58 53.05a4.74 4.74 0 0 1-.55.2 2.24 2.24 0 0 1-.68.1 1.51 1.51 0 0 1-.44-.06 1 1 0 0 1-.36-.18 1.11 1.11 0 0 1-.25-.34 1.19 1.19 0 0 1-.09-.49v-2.51h-.57v-.86h.57v-1.42h1.12v1.42h.92v.86h-.92v2.13a.39.39 0 0 0 .12.33.49.49 0 0 0 .3.1 1 1 0 0 0 .34-.06l.26-.1zM234.07 53.36a2.49 2.49 0 0 1-1-.18 2.32 2.32 0 0 1-.72-.5 2.08 2.08 0 0 1-.45-.72 2.27 2.27 0 0 1-.16-.86 2.35 2.35 0 0 1 .16-.87 2.08 2.08 0 0 1 .45-.72 2.29 2.29 0 0 1 .72-.49 2.49 2.49 0 0 1 1-.19 2.42 2.42 0 0 1 1 .19 2.17 2.17 0 0 1 1.17 1.21 2.57 2.57 0 0 1 .15.87 2.47 2.47 0 0 1-.15.86 2.43 2.43 0 0 1-.45.72 2.32 2.32 0 0 1-.72.5 2.42 2.42 0 0 1-1 .18zm-1.14-2.26a1.47 1.47 0 0 0 .09.53 1.27 1.27 0 0 0 .24.41 1 1 0 0 0 .36.27 1.06 1.06 0 0 0 .9 0 1 1 0 0 0 .36-.27 1.13 1.13 0 0 0 .25-.41 1.8 1.8 0 0 0 .08-.54 1.72 1.72 0 0 0-.08-.52 1.27 1.27 0 0 0-.25-.42 1 1 0 0 0-.36-.27 1.06 1.06 0 0 0-.9 0 1.09 1.09 0 0 0-.36.28 1.44 1.44 0 0 0-.24.42 1.46 1.46 0 0 0-.09.52zM237.08 48.94l.39-.59-.59-.18.15-.49.61.26v-.64h.59v.64l.6-.26.15.49-.59.18.39.59-.43.29-.37-.63-.39.63z"/><path class="a" d="M108.51 57.67h3v138.09h-3zM191.19 57.67h3v138.09h-3z"/><g class="e"><path class="f" d="M108.51 42.33h3v15.34h-3z"/></g><g class="e"><path class="f" d="M191.19 42.33h3v15.34h-3z"/></g></svg>