<?xml version="1.0" encoding="utf-8"?>
<!-- Generator: Adobe Illustrator 23.1.0, SVG Export Plug-In . SVG Version: 6.00 Build 0)  -->
<svg version="1.1" id="Layer_2" xmlns="http://www.w3.org/2000/svg" xmlns:xlink="http://www.w3.org/1999/xlink" x="0px" y="0px"
	 viewBox="0 0 400 400" style="enable-background:new 0 0 400 400;" xml:space="preserve">
<style type="text/css">
	.st0{fill:#953247;}
	.st1{fill:#E76F70;}
	.st2{fill:#F4C1C2;}
	.st3{fill:#1E120D;}
</style>
<g>
	<g>
		<polygon class="st0" points="102.1,269.3 71.1,191 153.6,159.8 		"/>
	</g>
	<g>
		<polygon class="st1" points="45.3,212.9 69.4,204.4 95.7,270.1 		"/>
	</g>
	<g>
		<polygon class="st1" points="69.2,183 109.8,168.1 93.8,129.1 		"/>
	</g>
	<g>
		<polygon class="st2" points="33.1,242.4 53.5,233.8 43.4,221.2 		"/>
	</g>
	<g>
		<path class="st0" d="M160.9,225l-8.3,17.4h-9.8l34.8-72.5l34.8,72.5h-9.8l-8.3-17.4H160.9z M177.6,189l-12.9,28.1h25.9L177.6,189z
			"/>
		<path class="st0" d="M217.7,172.9h15.1c22.3,0,40.9,11.2,40.9,34.4c0,23.7-18.2,35.1-41.1,35.1h-14.8V172.9z M226.8,234.5h3.2
			c18.5,0,34.6-6.6,34.6-26.8c0-20.3-16-26.8-34.6-26.8h-3.2V234.5z"/>
		<path class="st0" d="M291.5,242.4h-9.1v-69.5h9.1V242.4z"/>
		<path class="st0" d="M315.5,225l-8.3,17.4h-9.8l34.8-72.5l34.8,72.5h-9.8l-8.3-17.4H315.5z M332.2,189l-12.9,28.1h25.9L332.2,189z
			"/>
	</g>
	<g>
		<path class="st3" d="M144,250h10.8v2.3h-8.3v5.6h8.1v2.3h-8.1v7.6h8.3v2.3H144V250z"/>
		<path class="st3" d="M169.2,250h4.2c6.2,0,11.3,3.3,11.3,10c0,6.9-5,10.2-11.4,10.2h-4.1V250z M171.7,267.8h0.9
			c5.1,0,9.6-1.9,9.6-7.8c0-5.9-4.4-7.8-9.6-7.8h-0.9V267.8z"/>
		<path class="st3" d="M201,270.1h-2.5V250h2.5V270.1z"/>
		<path class="st3" d="M230.9,253.8c-1.4-1.3-3.4-2-5.3-2c-4.5,0-8,3.8-8,8.2c0,4.4,3.4,8.2,7.9,8.2c2,0,3.9-0.7,5.4-2.1v3
			c-1.5,0.9-3.5,1.4-5.3,1.4c-5.7,0-10.5-4.6-10.5-10.4c0-6,4.8-10.6,10.7-10.6c1.8,0,3.6,0.4,5.1,1.4V253.8z"/>
		<path class="st3" d="M247.8,270.1h-2.5V250h2.5V270.1z"/>
		<path class="st3" d="M282.8,260.1c0,6-4.7,10.5-10.5,10.5s-10.5-4.5-10.5-10.5c0-5.8,4.8-10.5,10.5-10.5
			C278,249.6,282.8,254.3,282.8,260.1z M280.3,260.1c0-4.4-3.3-8.1-8-8.1c-4.7,0-8,3.7-8,8.1c0,4.6,3.7,8.1,8,8.1
			S280.3,264.6,280.3,260.1z"/>
		<path class="st3" d="M296.4,249l15.1,15.8V250h2.5v21l-15.1-15.8v15h-2.5V249z"/>
		<path class="st3" d="M329.1,250h10.8v2.3h-8.3v5.6h8.1v2.3h-8.1v7.6h8.3v2.3h-10.8V250z"/>
		<path class="st3" d="M363.4,253.8c-0.7-1.3-1.7-1.9-3.2-1.9c-1.6,0-3.4,1.1-3.4,2.9c0,1.6,1.5,2.4,2.8,2.9l1.4,0.6
			c2.9,1.1,5,2.7,5,6.1c0,3.7-2.8,6.3-6.4,6.3c-3.3,0-5.8-2.4-6.2-5.6l2.5-0.5c0,2.2,1.7,3.8,3.9,3.8c2.2,0,3.7-1.8,3.7-3.9
			c0-2.2-1.7-3.1-3.5-3.8l-1.4-0.6c-2.3-1-4.4-2.3-4.4-5.1c0-3.3,2.9-5.2,5.9-5.2c2.2,0,4.1,1.1,5.2,3L363.4,253.8z"/>
	</g>
</g>
</svg>
