<svg id="Layer_2" data-name="Layer 2" xmlns="http://www.w3.org/2000/svg" viewBox="0 0 400 400"><defs><style>.cls-1{fill:#010001;}.cls-2{fill:#b52129;}.cls-3{fill:#1e120d;}</style></defs><title>ficorma</title><polygon class="cls-1" points="365.3 334.72 331.3 334.72 331.3 332.57 363.15 332.57 363.15 253.42 36.85 253.42 36.85 332.57 69.92 332.57 69.92 334.72 34.7 334.72 34.7 251.28 365.3 251.28 365.3 334.72"/><circle class="cls-2" cx="200" cy="166.84" r="101.56"/><polygon class="cls-1" points="233.71 157.08 190.89 157.08 190.89 158.71 190.89 177.68 190.89 220.49 209.86 220.49 209.86 177.68 233.71 177.68 233.71 157.08"/><rect class="cls-1" x="156" y="113.18" width="88.01" height="15.24"/><path class="cls-3" d="M95.43,305.47V282.39h15.15v2H97.7v8.48h10.86v1.89H97.7v10.69Z"/><path class="cls-3" d="M124.65,305.47V282.39h2.28v23.08Z"/><path class="cls-3" d="M141.26,293.77a12.25,12.25,0,0,1,.73-4.14,11.49,11.49,0,0,1,2.13-3.69,10.74,10.74,0,0,1,3.45-2.65,10.26,10.26,0,0,1,4.65-1,9.65,9.65,0,0,1,5.28,1.4,8.51,8.51,0,0,1,3.23,3.64l-1.79,1.11a6.65,6.65,0,0,0-1.34-1.92,7.82,7.82,0,0,0-1.71-1.27,7.45,7.45,0,0,0-1.89-.7,9.1,9.1,0,0,0-1.92-.21,7.65,7.65,0,0,0-3.67.85,8.47,8.47,0,0,0-2.68,2.21,9.56,9.56,0,0,0-1.64,3.07,11.12,11.12,0,0,0-.55,3.46,10.33,10.33,0,0,0,.66,3.67,10.57,10.57,0,0,0,1.82,3.11,8.91,8.91,0,0,0,2.73,2.15,7.52,7.52,0,0,0,3.43.79,8.74,8.74,0,0,0,2-.24,8,8,0,0,0,2-.78,9,9,0,0,0,1.77-1.34,6.89,6.89,0,0,0,1.36-1.93l1.89,1a7.1,7.1,0,0,1-1.56,2.3,10.19,10.19,0,0,1-2.25,1.67,11,11,0,0,1-2.61,1,10.77,10.77,0,0,1-2.72.36,9.25,9.25,0,0,1-4.35-1,11.33,11.33,0,0,1-3.42-2.72,12.54,12.54,0,0,1-2.22-3.8A12.3,12.3,0,0,1,141.26,293.77Z"/><path class="cls-3" d="M184.23,305.64a9.65,9.65,0,0,1-4.4-1A10.84,10.84,0,0,1,176.4,302a12,12,0,0,1-2.21-3.75,12.41,12.41,0,0,1-.78-4.33,12.22,12.22,0,0,1,3.12-8.15,11,11,0,0,1,3.45-2.59,9.7,9.7,0,0,1,4.29-1,9.53,9.53,0,0,1,4.4,1,11.11,11.11,0,0,1,3.41,2.69,12.27,12.27,0,0,1,2.15,12.45,11.94,11.94,0,0,1-2.28,3.72,11,11,0,0,1-3.42,2.57A9.78,9.78,0,0,1,184.23,305.64Zm-8.54-11.71a10.81,10.81,0,0,0,.61,3.63,9.82,9.82,0,0,0,1.76,3.09,8.76,8.76,0,0,0,2.7,2.14,7.54,7.54,0,0,0,3.47.8,7.36,7.36,0,0,0,3.55-.85,8.66,8.66,0,0,0,2.7-2.21,10.32,10.32,0,0,0,1.7-3.09,10.64,10.64,0,0,0,0-7.13,9.83,9.83,0,0,0-1.77-3.07,8.73,8.73,0,0,0-2.7-2.13,7.49,7.49,0,0,0-3.45-.8,7.57,7.57,0,0,0-3.54.83,8.36,8.36,0,0,0-2.7,2.2,10.26,10.26,0,0,0-1.7,3.08A10.61,10.61,0,0,0,175.69,293.93Z"/><path class="cls-3" d="M209.43,305.47V282.39h9.75a6,6,0,0,1,2.74.64,7.09,7.09,0,0,1,2.17,1.66A7.72,7.72,0,0,1,225.5,287a7.14,7.14,0,0,1,.5,2.63,7.74,7.74,0,0,1-1.41,4.51,6.46,6.46,0,0,1-1.61,1.56,5.7,5.7,0,0,1-2.11.86l5.65,8.9H224L218.53,297H211.7v8.51Zm2.27-10.53h7.54a3.91,3.91,0,0,0,1.84-.44,4.45,4.45,0,0,0,1.41-1.18,5.62,5.62,0,0,0,.91-1.69,6,6,0,0,0,.33-2,5.47,5.47,0,0,0-.38-2,5.58,5.58,0,0,0-1-1.67,4.78,4.78,0,0,0-1.5-1.14,4,4,0,0,0-1.8-.42H211.7Z"/><path class="cls-3" d="M261.18,305.47v-19l-8.42,14.66h-1.34L243,286.52v19h-2.28V282.39h2.34l9,15.8,9.07-15.8h2.31v23.08Z"/><path class="cls-3" d="M286.47,282.39h1.91L298,305.47h-2.4l-3-7.21H282.21l-3,7.21h-2.44Zm5.59,14.08-4.65-11.41-4.72,11.41Z"/></svg>