<?xml version="1.0" encoding="utf-8"?>
<!-- Generator: Adobe Illustrator 23.1.0, SVG Export Plug-In . SVG Version: 6.00 Build 0)  -->
<svg version="1.1" id="Layer_2" xmlns="http://www.w3.org/2000/svg" xmlns:xlink="http://www.w3.org/1999/xlink" x="0px" y="0px"
	 viewBox="0 0 400 400" style="enable-background:new 0 0 400 400;" xml:space="preserve">
<style type="text/css">
	.st0{fill:url(#SVGID_1_);}
	.st1{fill:#2B326A;}
	.st2{fill:url(#SVGID_2_);}
	.st3{fill:url(#SVGID_3_);}
	.st4{fill:url(#SVGID_4_);stroke:#2B326A;stroke-width:0.75;stroke-miterlimit:10;}
	.st5{fill:url(#SVGID_5_);stroke:#931438;stroke-linecap:round;stroke-linejoin:round;stroke-miterlimit:10;}
	.st6{fill:url(#SVGID_6_);stroke:#2B326A;stroke-width:0.75;stroke-miterlimit:10;}
	.st7{fill:url(#SVGID_7_);stroke:#931438;stroke-linecap:round;stroke-linejoin:round;stroke-miterlimit:10;}
	.st8{fill:url(#SVGID_8_);stroke:#931438;stroke-linecap:round;stroke-linejoin:round;stroke-miterlimit:10;}
	.st9{fill:url(#SVGID_9_);stroke:#931438;stroke-linecap:round;stroke-linejoin:round;stroke-miterlimit:10;}
	.st10{fill:url(#SVGID_10_);stroke:#931438;stroke-linecap:round;stroke-linejoin:round;stroke-miterlimit:10;}
	.st11{fill:url(#SVGID_11_);}
	.st12{fill:url(#SVGID_12_);}
	.st13{fill:url(#SVGID_13_);}
	.st14{fill:#CD194B;}
	.st15{fill:#FFFFFF;}
</style>
<g>
	<linearGradient id="SVGID_1_" gradientUnits="userSpaceOnUse" x1="189.4345" y1="235.4007" x2="235.9028" y2="108.8953">
		<stop  offset="0" style="stop-color:#FFFFFF;stop-opacity:0"/>
		<stop  offset="1" style="stop-color:#8BCEEA"/>
	</linearGradient>
	<path class="st0" d="M178.7,177.4c0,0,4.8-50.3,29.8-86.9c18.4-27,27.3-31.3,35.4-30.3c8.1,1,15.2,13.1,13.1,62.1
		S244.9,189,244.9,189"/>
	<g>
		<path class="st1" d="M244.9,189c3.5-7.8,5.3-16.1,6.8-24.4c0.7-4.2,1.3-8.4,1.9-12.6c0.6-4.2,1-8.4,1.4-12.6
			c0.7-8.4,1.1-16.9,1.3-25.4c0.1-4.2,0.1-8.5,0.1-12.7c-0.1-4.2-0.2-8.5-0.5-12.7l0-0.1l-0.2-2.1l-0.2-2.1
			c-0.2-1.4-0.4-2.8-0.6-4.2c-0.2-1.4-0.4-2.8-0.7-4.2c-0.3-1.4-0.5-2.8-0.9-4.2c-0.4-1.4-0.9-2.7-1.4-4c-0.6-1.3-1.2-2.6-2-3.7
			c-1.6-2.3-4.3-3.8-7.1-4c1.4,0,2.9,0.3,4.2,1c1.3,0.6,2.5,1.6,3.4,2.7c0.9,1.2,1.6,2.4,2.3,3.7c0.7,1.3,1.2,2.6,1.7,4
			c0.5,1.4,0.8,2.8,1.1,4.2c0.3,1.4,0.6,2.8,0.9,4.2c0.3,1.4,0.5,2.8,0.7,4.3l0.3,2.1l0.1,1.1c0,0.4,0.1,0.7,0.1,1.1l0-0.1
			c0.7,8.5,1,17,0.8,25.5c-0.1,4.3-0.2,8.5-0.5,12.8c-0.3,4.2-0.5,8.5-0.9,12.7c-0.4,4.2-0.9,8.5-1.6,12.7c-0.3,2.1-0.7,4.2-1.1,6.3
			c-0.4,2.1-0.7,4.2-1.2,6.3c-0.9,4.2-1.9,8.3-3.2,12.4c-0.6,2-1.3,4-2.2,6C246.7,185.2,245.8,187.1,244.9,189z"/>
	</g>
	<linearGradient id="SVGID_2_" gradientUnits="userSpaceOnUse" x1="100.4263" y1="207.8442" x2="139.7708" y2="48.8573">
		<stop  offset="0" style="stop-color:#FFFFFF;stop-opacity:0"/>
		<stop  offset="0.299" style="stop-color:#A5C64D"/>
	</linearGradient>
	<path class="st2" d="M85.4,206c-0.5-13.8,0.4-34.6,8-58.4c6.4-20.3,15.5-35.8,22.7-46.2c-2,1.1-3.9,2.1-5.9,3.2
		c-3.2,0.4-6.4,0.8-9.7,1.1c-0.1-2.2-0.3-4.4-0.4-6.6c-1.6,2.1-3.3,4.3-4.9,6.4c-3.5,0.1-6.9,0.1-10.4,0.2c-0.2-2.2-0.4-4.4-0.6-6.6
		c-2.3,2.2-4.7,4.4-7,6.6c-2.7,0-5.3,0-8,0c0.3-2.2,0.5-4.4,0.8-6.6c-1.5,2-3.9,4.6-7.6,6.3c-11.1,5.1-22.8-3.1-23.5-3.6
		c2.8,0.3,6.9,0.5,11.7-0.4c10.5-1.9,11.7-6.6,22.4-10.6c11.3-4.2,22.3-3.5,29.4-3c3.9,0.3,7.1,0.7,9.5,1.1c-1.3-2-2.5-3.9-3.8-5.9
		c2.3-0.5,3.4-0.9,3.4-1.3c0-0.7-3.1-1.2-9.3-1.7c-1.8-1.8-3.5-3.7-5.3-5.5c4.3-1.3,6.4-2.4,6.3-3c-0.1-0.9-4.1-1.2-11.9-0.9
		c-3.5-3-7.1-6.1-10.6-9.1c2.1-1.5,6.1-3.8,11.4-4.2c7-0.4,12.2,4,21.2,11.4c3.7,3.1,8.8,7.6,14.2,13.6c4.8-2.9,11.1-6.2,18.8-8.7
		c11.9-3.9,22.5-4.5,29.7-4.4c0.9,0.4,3.3,1.7,3.4,3.6c0.2,2.4-3.3,5.4-9.1,6.1c-2.3,0.2-4.5,0.4-6.8,0.6c1.1,3.4,0.4,5.6,0,6.4
		c-2.1,4.6-9.5,7.2-18.2,4.7c0.7,1.2,1.4,2.4,2.1,3.6c11.8,0,21.2,2.2,27.3,4.2c9.5,3,21.8,7,29.4,18.6c2.4,3.6,3.6,7.1,4.4,9.5
		c-2.6,0-5.2,0-7.8,0c-6.8-9.9-8.7-12.1-8.9-11.9c-0.4,0.3,4.4,6.9,2.7,9.1c-1.2,1.5-5,0.3-8.1-0.9c-5.3-8.9-8.5-13.2-9.5-12.7
		c-0.8,0.4-0.1,4.2,2.3,11.6c-2.7-0.1-5.4-0.3-8.1-0.4c-3.9-2.4-7.7-4.8-11.6-7.2c3,4.4,6.1,9.7,9.1,15.9c3.2,6.7,5.4,13,7,18.4
		c-2.2-1.5-4.4-3-6.6-4.5c-1.2-5-2-7.5-2.7-7.4c-0.5,0.1-0.9,2.2-0.9,6.4c-2-1-3.9-2-5.9-3c-0.6-7-1.3-10.6-2.3-10.6
		c-0.7,0-1.4,1.7-2.3,5.3c-2.8-1-5.7-2-8.5-3c0.4-1.7,1.3-6.3-1.1-10.8c-0.6-1.2-1.4-2.1-2.1-2.8c-0.4,3.1-0.9,6.2-1.3,9.3
		c-2.2-1.6-4.4-3.3-6.6-4.9c0.4-2,0.9-5.8-0.6-10.2c-0.8-2.4-1.9-4.2-2.8-5.5c-0.3,3.3-0.6,6.7-0.9,10c-1.8-0.9-3.5-1.9-5.3-2.8
		c0.5-7.8-0.2-9.8-1.1-10c-3.7-1-15.4,26.4-21.6,51c-5.2,20.4-6.4,38.2-6.4,50.8"/>
	<linearGradient id="SVGID_3_" gradientUnits="userSpaceOnUse" x1="97.3332" y1="292.0196" x2="186.8626" y2="136.9501">
		<stop  offset="0" style="stop-color:#FFFFFF;stop-opacity:0"/>
		<stop  offset="0.7709" style="stop-color:#A5C64D"/>
	</linearGradient>
	<path class="st3" d="M107.8,300.3c-0.5-14.2,0.4-35.7,8.2-60.2c6.6-20.9,16-36.9,23.5-47.7c-2,1.1-4,2.2-6.1,3.3
		c-3.3,0.4-6.6,0.8-10,1.2c-0.1-2.3-0.3-4.6-0.4-6.8c-1.7,2.2-3.4,4.4-5.1,6.6c-3.6,0.1-7.2,0.1-10.8,0.2c-0.2-2.3-0.4-4.6-0.6-6.8
		c-2.4,2.3-4.8,4.6-7.2,6.8c-2.7,0-5.5,0-8.2,0c0.3-2.3,0.5-4.6,0.8-6.8c-1.5,2-4,4.7-7.8,6.5c-11.5,5.3-23.5-3.2-24.2-3.7
		c2.9,0.3,7.2,0.5,12.1-0.4c10.9-2,12.1-6.9,23.1-10.9c11.6-4.3,23-3.6,30.3-3.1c4,0.3,7.4,0.7,9.8,1.2c-1.3-2-2.6-4-3.9-6.1
		c2.4-0.5,3.5-0.9,3.5-1.4c0-0.7-3.2-1.3-9.6-1.8c-1.8-1.9-3.6-3.8-5.5-5.7c4.4-1.4,6.6-2.4,6.5-3.1c-0.1-0.9-4.2-1.3-12.3-1
		c-3.6-3.1-7.3-6.3-10.9-9.4c2.2-1.5,6.2-4,11.7-4.3c7.2-0.4,12.6,4.1,21.9,11.7c3.8,3.2,9,7.8,14.7,14.1c4.9-3,11.4-6.4,19.4-9
		c12.3-4,23.2-4.7,30.7-4.5c0.9,0.4,3.4,1.8,3.5,3.7c0.2,2.4-3.4,5.6-9.4,6.3c-2.3,0.2-4.7,0.4-7,0.6c1.2,3.5,0.4,5.8,0,6.6
		c-2.1,4.8-9.8,7.4-18.8,4.9c0.7,1.2,1.4,2.5,2.2,3.7c12.2,0,21.9,2.3,28.1,4.3c9.8,3.1,22.5,7.2,30.3,19.2c2.4,3.8,3.8,7.3,4.5,9.8
		c-2.7,0-5.3,0-8,0c-7-10.2-8.9-12.5-9.2-12.3c-0.4,0.3,4.6,7.2,2.7,9.4c-1.3,1.5-5.2,0.3-8.4-1c-5.5-9.2-8.8-13.6-9.8-13.1
		c-0.9,0.4-0.1,4.4,2.3,11.9c-2.8-0.1-5.6-0.3-8.4-0.4c-4-2.5-7.9-5-11.9-7.4c3.1,4.5,6.3,10,9.4,16.4c3.3,6.9,5.6,13.4,7.2,19
		c-2.3-1.6-4.6-3.1-6.8-4.7c-1.2-5.2-2.1-7.7-2.7-7.6c-0.6,0.1-0.9,2.3-1,6.6c-2-1-4-2.1-6.1-3.1c-0.6-7.3-1.4-10.9-2.3-10.9
		c-0.7,0-1.5,1.8-2.3,5.5c-2.9-1-5.9-2.1-8.8-3.1c0.4-1.7,1.3-6.5-1.2-11.1c-0.7-1.2-1.4-2.2-2.2-2.9c-0.5,3.2-0.9,6.4-1.4,9.6
		c-2.3-1.7-4.6-3.4-6.8-5.1c0.4-2,0.9-6-0.6-10.6c-0.8-2.5-2-4.4-2.9-5.7c-0.3,3.5-0.7,6.9-1,10.4c-1.8-1-3.6-2-5.5-2.9
		c0.5-8-0.3-10.1-1.2-10.4c-3.8-1-15.9,27.2-22.3,52.6c-5.3,21.1-6.6,39.4-6.6,52.4"/>
	<g>
		<path class="st1" d="M190.6,164.1l2-0.7c0.2-0.1,0.3-0.1,0.4-0.3c0.1-0.1,0.2-0.3,0.2-0.5v-15c0-0.2-0.1-0.4-0.2-0.5
			c-0.1-0.1-0.3-0.2-0.4-0.2l-2-0.7v-1.1h9.7c1,0,1.9,0.1,2.7,0.2c0.8,0.1,1.5,0.3,2,0.6c0.6,0.2,1,0.5,1.4,0.8s0.7,0.7,0.9,1
			c0.2,0.4,0.4,0.8,0.5,1.2c0.1,0.4,0.1,0.8,0.1,1.2c0,0.8-0.1,1.5-0.4,2.1c-0.3,0.6-0.6,1.1-1,1.5c-0.4,0.4-0.8,0.8-1.3,1.1
			c-0.5,0.3-1,0.5-1.4,0.6l4.8,7c0.1,0.1,0.1,0.2,0.2,0.3s0.2,0.2,0.3,0.3c0.1,0.1,0.2,0.2,0.3,0.3c0.1,0.1,0.2,0.1,0.3,0.2l2,0.6
			v1.1h-5c-0.5,0-0.8,0-1.1-0.1c-0.3-0.1-0.5-0.2-0.7-0.3s-0.4-0.3-0.6-0.6c-0.2-0.2-0.4-0.5-0.6-0.9l-4.3-6.6l-1.9-0.5v6.4
			c0,0.2,0.1,0.4,0.2,0.5c0.1,0.1,0.2,0.2,0.4,0.3l2.2,0.7v1.1h-9.9V164.1z M199.7,154.7c0.6,0,1.1-0.1,1.5-0.3
			c0.4-0.2,0.8-0.5,1.1-0.9s0.5-0.8,0.6-1.2s0.2-0.9,0.2-1.4c0-1.3-0.3-2.2-0.9-2.8c-0.6-0.6-1.5-0.9-2.7-0.9h-1.7v7.4
			c0.1,0,0.2,0,0.4,0c0.2,0,0.4,0,0.6,0s0.4,0,0.6,0C199.5,154.7,199.6,154.7,199.7,154.7z"/>
		<path class="st1" d="M211.7,160.5l1.4-0.5c0.1,0,0.2-0.1,0.3-0.2s0.1-0.2,0.1-0.3v-10.1c0-0.1,0-0.3-0.1-0.3
			c-0.1-0.1-0.2-0.1-0.3-0.2l-1.4-0.5v-0.7h11.5v3.7h-1.1l-0.6-1.9c0-0.1-0.1-0.2-0.1-0.3c-0.1-0.1-0.1-0.1-0.3-0.1h-4.6v4.4h2.7
			c0.1,0,0.2,0,0.3-0.1c0.1-0.1,0.1-0.1,0.1-0.2l0.6-1.5h0.9v5.1h-0.9l-0.6-1.5c0-0.1-0.1-0.2-0.1-0.3c-0.1-0.1-0.1-0.1-0.3-0.1
			h-2.7v4.9h5.3c0.1,0,0.2,0,0.3-0.1c0.1-0.1,0.1-0.2,0.1-0.3l0.6-2.2h1.1v4h-12.2V160.5z"/>
		<path class="st1" d="M230.4,161.5c-0.4,0-0.7,0-1.2-0.1c-0.4,0-0.8-0.1-1.2-0.2c-0.4-0.1-0.8-0.2-1.2-0.3s-0.8-0.2-1.1-0.3
			l-0.1-3.9h1.1l0.7,1.9c0,0,0,0.1,0.1,0.1c0,0,0.1,0.1,0.1,0.1c0,0,0.1,0.1,0.1,0.1c0,0,0.1,0.1,0.1,0.1c0.2,0.1,0.4,0.2,0.7,0.4
			c0.3,0.1,0.5,0.2,0.8,0.3c0.3,0.1,0.5,0.2,0.8,0.2s0.5,0.1,0.7,0.1c0.4,0,0.7-0.1,1.1-0.2s0.6-0.2,0.8-0.4
			c0.2-0.2,0.4-0.4,0.5-0.7c0.1-0.2,0.2-0.5,0.2-0.8c0-0.3,0-0.5-0.1-0.7c-0.1-0.2-0.2-0.4-0.3-0.5c-0.2-0.2-0.3-0.3-0.6-0.4
			c-0.2-0.1-0.5-0.2-0.8-0.3c-0.3-0.1-0.5-0.2-0.8-0.3c-0.3-0.1-0.5-0.2-0.8-0.2c-0.3-0.1-0.5-0.1-0.8-0.2c-0.3-0.1-0.5-0.2-0.7-0.3
			c-0.4-0.2-0.8-0.3-1.1-0.6s-0.6-0.5-0.8-0.8c-0.2-0.3-0.4-0.6-0.5-1s-0.2-0.8-0.2-1.2c0-0.4,0.1-0.8,0.2-1.1
			c0.1-0.4,0.3-0.7,0.5-1c0.2-0.3,0.5-0.6,0.8-0.8s0.7-0.4,1-0.6c0.4-0.2,0.8-0.3,1.2-0.4c0.4-0.1,0.9-0.1,1.3-0.1
			c0.4,0,0.8,0,1.2,0.1c0.4,0,0.8,0.1,1.2,0.1c0.4,0.1,0.8,0.1,1.1,0.2c0.3,0.1,0.7,0.1,0.9,0.2v3.7h-1l-0.6-1.7
			c0-0.1-0.1-0.2-0.2-0.3c-0.1-0.1-0.2-0.1-0.2-0.2c-0.1-0.1-0.3-0.2-0.5-0.2c-0.2-0.1-0.4-0.2-0.6-0.2s-0.5-0.1-0.7-0.2
			c-0.2,0-0.4-0.1-0.6-0.1c-0.4,0-0.7,0-1,0.1s-0.5,0.2-0.7,0.4c-0.2,0.2-0.3,0.3-0.4,0.6c-0.1,0.2-0.1,0.4-0.1,0.6
			c0,0.2,0,0.5,0.1,0.7c0.1,0.2,0.2,0.4,0.3,0.6c0.1,0.2,0.3,0.3,0.6,0.5c0.2,0.1,0.5,0.3,0.9,0.4c0.2,0.1,0.5,0.2,0.7,0.2
			s0.5,0.1,0.7,0.2s0.5,0.2,0.8,0.2c0.3,0.1,0.5,0.2,0.8,0.3c0.3,0.1,0.7,0.3,1,0.5c0.3,0.2,0.6,0.4,0.8,0.7c0.2,0.3,0.4,0.6,0.6,1
			c0.1,0.4,0.2,0.8,0.2,1.3c0,0.6-0.1,1.1-0.3,1.6c-0.2,0.5-0.6,1-1.1,1.4c-0.5,0.4-1.1,0.7-1.8,1
			C232.3,161.4,231.4,161.5,230.4,161.5z"/>
		<path class="st1" d="M240.3,160.5l1.5-0.5c0.1,0,0.2-0.1,0.3-0.2c0.1-0.1,0.1-0.2,0.1-0.3v-10.4h-2.8c-0.1,0-0.2,0-0.3,0.1
			c-0.1,0.1-0.1,0.1-0.1,0.3l-0.6,2.1h-1v-3.8h12.8v3.8h-1.1l-0.6-2.1c0-0.1-0.1-0.2-0.1-0.2c-0.1-0.1-0.1-0.1-0.2-0.1h-2.8v10.4
			c0,0.1,0,0.3,0.1,0.3c0.1,0.1,0.2,0.1,0.3,0.2l1.5,0.5v0.7h-6.8V160.5z"/>
		<path class="st1" d="M248.9,160.5l1-0.4c0.2-0.1,0.4-0.3,0.5-0.5l3.9-9.8l1.2-2.3h1.9l4.7,12.1c0.1,0.1,0.1,0.2,0.2,0.3
			c0.1,0.1,0.2,0.2,0.3,0.2l1,0.4v0.7h-6.1v-0.7l1.6-0.5l-1.3-3.2h-4.6l-1.2,3.2l1.6,0.6v0.7h-4.6V160.5z M257.2,155.4l-1.3-3.3
			l-0.4-1.3h-0.1l-1.7,4.6H257.2z"/>
		<path class="st1" d="M270.4,161.5c-0.9,0-1.7-0.1-2.4-0.3c-0.7-0.2-1.3-0.5-1.7-0.9c-0.5-0.4-0.8-0.8-1-1.3
			c-0.2-0.5-0.3-1-0.3-1.6v-8c0-0.1,0-0.3-0.1-0.3c-0.1-0.1-0.2-0.1-0.3-0.2l-1.4-0.5v-0.7h6.6v0.7l-1.4,0.5c-0.1,0-0.2,0.1-0.3,0.2
			s-0.1,0.2-0.1,0.3v7.1c0,0.2,0,0.5,0,0.7c0,0.3,0.1,0.5,0.2,0.8c0.1,0.3,0.2,0.5,0.3,0.7c0.1,0.2,0.3,0.4,0.6,0.6
			c0.2,0.2,0.5,0.3,0.8,0.4c0.3,0.1,0.7,0.2,1.1,0.2c0.4,0,0.8-0.1,1.2-0.2c0.3-0.1,0.6-0.2,0.9-0.4c0.2-0.2,0.5-0.4,0.6-0.6
			s0.3-0.5,0.4-0.7c0.1-0.3,0.2-0.5,0.2-0.8c0-0.3,0.1-0.5,0.1-0.8v-7c0-0.1,0-0.2-0.1-0.3c-0.1-0.1-0.2-0.1-0.3-0.2l-1.4-0.6v-0.7
			h5.1v0.7l-1.4,0.6c-0.1,0-0.2,0.1-0.3,0.2s-0.1,0.2-0.1,0.3v7.5c0,0.5-0.1,1-0.3,1.5c-0.2,0.4-0.4,0.8-0.7,1.2
			c-0.3,0.3-0.6,0.6-1,0.9c-0.4,0.2-0.8,0.4-1.2,0.6c-0.4,0.2-0.8,0.3-1.2,0.3C271.2,161.5,270.8,161.5,270.4,161.5z"/>
		<path class="st1" d="M278.9,160.5l1.4-0.5c0.1,0,0.2-0.1,0.3-0.2c0.1-0.1,0.1-0.2,0.1-0.3v-10.1c0-0.1,0-0.3-0.1-0.3
			c-0.1-0.1-0.2-0.1-0.3-0.2l-1.4-0.5v-0.7h6.5c0.7,0,1.3,0,1.8,0.1s1,0.2,1.4,0.4c0.4,0.2,0.7,0.4,0.9,0.6c0.2,0.2,0.4,0.5,0.6,0.7
			c0.1,0.3,0.2,0.5,0.3,0.8c0.1,0.3,0.1,0.5,0.1,0.8c0,0.5-0.1,1-0.3,1.4c-0.2,0.4-0.4,0.7-0.7,1c-0.3,0.3-0.6,0.5-0.9,0.7
			c-0.3,0.2-0.6,0.3-0.9,0.4l3.2,4.7c0,0.1,0.1,0.1,0.2,0.2c0.1,0.1,0.1,0.1,0.2,0.2s0.2,0.1,0.2,0.2s0.2,0.1,0.2,0.1l1.4,0.4v0.7
			h-3.4c-0.3,0-0.6,0-0.8-0.1s-0.4-0.1-0.5-0.2c-0.1-0.1-0.3-0.2-0.4-0.4c-0.1-0.2-0.2-0.4-0.4-0.6l-2.9-4.4l-1.3-0.3v4.3
			c0,0.1,0,0.3,0.1,0.3c0.1,0.1,0.2,0.1,0.3,0.2l1.5,0.5v0.7h-6.6V160.5z M285,154.1c0.4,0,0.7-0.1,1-0.2s0.5-0.3,0.7-0.6
			c0.2-0.2,0.3-0.5,0.4-0.8s0.1-0.6,0.1-1c0-0.9-0.2-1.5-0.6-1.9c-0.4-0.4-1-0.6-1.8-0.6h-1.2v5c0.1,0,0.1,0,0.3,0
			c0.1,0,0.2,0,0.4,0c0.1,0,0.3,0,0.4,0S284.9,154.1,285,154.1z"/>
		<path class="st1" d="M292.2,160.5l1-0.4c0.2-0.1,0.4-0.3,0.5-0.5l3.9-9.8l1.2-2.3h1.9l4.7,12.1c0.1,0.1,0.1,0.2,0.2,0.3
			c0.1,0.1,0.2,0.2,0.3,0.2l1,0.4v0.7h-6.1v-0.7l1.6-0.5l-1.3-3.2h-4.6l-1.2,3.2l1.6,0.6v0.7h-4.6V160.5z M300.5,155.4l-1.3-3.3
			l-0.4-1.3h-0.1l-1.7,4.6H300.5z"/>
		<path class="st1" d="M311.4,152.2l-0.8-1.3h-0.1v8.6c0,0.1,0,0.2,0.1,0.3c0.1,0.1,0.2,0.1,0.3,0.2l1.4,0.6v0.7h-5.2v-0.7l1.4-0.6
			c0.1,0,0.2-0.1,0.3-0.2s0.1-0.2,0.1-0.3v-10c0-0.1,0-0.3-0.1-0.3c-0.1-0.1-0.2-0.1-0.3-0.2l-1.5-0.5v-0.7h4.7l5.8,8.3l0.8,1.3h0.1
			v-7.8c0-0.1,0-0.2-0.1-0.3s-0.2-0.1-0.3-0.2l-1.4-0.6v-0.7h5.2v0.7l-1.4,0.6c-0.1,0-0.2,0.1-0.3,0.2c-0.1,0.1-0.1,0.2-0.1,0.3v9.6
			l-0.3,2.2h-1.9L311.4,152.2z"/>
		<path class="st1" d="M325.7,160.5l1.5-0.5c0.1,0,0.2-0.1,0.3-0.2c0.1-0.1,0.1-0.2,0.1-0.3v-10.4h-2.8c-0.1,0-0.2,0-0.3,0.1
			c-0.1,0.1-0.1,0.1-0.1,0.3l-0.6,2.1h-1v-3.8h12.8v3.8h-1.1l-0.6-2.1c0-0.1-0.1-0.2-0.1-0.2c-0.1-0.1-0.1-0.1-0.2-0.1h-2.8v10.4
			c0,0.1,0,0.3,0.1,0.3c0.1,0.1,0.2,0.1,0.3,0.2l1.5,0.5v0.7h-6.8V160.5z"/>
		<path class="st1" d="M346.8,161.5c-0.6,0-1.1-0.1-1.7-0.3c-0.5-0.2-1-0.4-1.3-0.7c-0.4-0.3-0.7-0.7-0.9-1.2
			c-0.2-0.5-0.3-1-0.3-1.5c0-0.2,0-0.4,0.1-0.7s0.1-0.5,0.2-0.7s0.2-0.5,0.3-0.7c0.1-0.2,0.2-0.4,0.4-0.6l2.1-1.3
			c-0.4-0.4-0.7-0.7-1-1c-0.2-0.3-0.4-0.6-0.5-0.8s-0.2-0.5-0.2-0.7c0-0.2,0-0.5,0-0.7c0-0.5,0.1-0.9,0.4-1.3c0.2-0.4,0.6-0.7,1-1
			c0.4-0.3,0.9-0.5,1.4-0.7s1.1-0.2,1.7-0.2c0.6,0,1.2,0.1,1.7,0.2c0.5,0.1,0.9,0.3,1.3,0.6c0.4,0.2,0.6,0.5,0.9,0.9
			c0.2,0.3,0.3,0.7,0.3,1.2c0,0.5-0.1,0.9-0.2,1.3c-0.2,0.4-0.3,0.8-0.6,1.1l-2.3,1.3l3.2,3.1c0.2-0.3,0.3-0.5,0.5-0.8
			c0.1-0.2,0.2-0.5,0.3-0.7c0.1-0.2,0.2-0.4,0.2-0.6c0.1-0.2,0.1-0.3,0.1-0.4l-1.6-0.5v-0.7h5v0.7l-1.1,0.4c-0.1,0-0.2,0.1-0.4,0.2
			c-0.1,0.1-0.2,0.3-0.3,0.4c-0.1,0.3-0.3,0.5-0.4,0.7c-0.2,0.2-0.3,0.5-0.5,0.7s-0.3,0.4-0.5,0.7c-0.2,0.2-0.3,0.4-0.5,0.7l1.6,1.5
			c0.1,0.1,0.1,0.1,0.2,0.2c0.1,0.1,0.2,0.1,0.2,0.2c0.1,0.1,0.2,0.1,0.3,0.2c0.1,0.1,0.2,0.1,0.2,0.1l1.5,0.5v0.7h-3.1
			c-0.3,0-0.6,0-0.8,0c-0.2,0-0.4-0.1-0.5-0.2c-0.2-0.1-0.3-0.2-0.5-0.3c-0.2-0.1-0.4-0.3-0.6-0.6l-0.5-0.5c-0.3,0.3-0.6,0.6-1,0.9
			s-0.7,0.4-1,0.6c-0.4,0.2-0.7,0.3-1.1,0.4C347.7,161.5,347.2,161.5,346.8,161.5z M347.8,159.6c0.3,0,0.6,0,0.8,0s0.5-0.1,0.7-0.1
			c0.2-0.1,0.4-0.2,0.6-0.3c0.2-0.1,0.4-0.2,0.6-0.4l-4.1-4.1c-0.2,0.2-0.3,0.3-0.4,0.5c-0.1,0.2-0.2,0.4-0.2,0.6s-0.1,0.5-0.1,0.7
			c0,0.2,0,0.5,0,0.8c0,0.3,0.1,0.6,0.2,0.9s0.3,0.5,0.5,0.7s0.4,0.4,0.7,0.5S347.4,159.6,347.8,159.6z M348.4,153.1
			c0.3-0.2,0.5-0.4,0.7-0.6c0.2-0.2,0.3-0.4,0.4-0.6c0.1-0.2,0.2-0.5,0.2-0.7c0-0.3,0.1-0.5,0.1-0.8c0-0.2,0-0.4-0.1-0.6
			c-0.1-0.2-0.2-0.4-0.3-0.5c-0.1-0.2-0.3-0.3-0.5-0.4c-0.2-0.1-0.4-0.1-0.6-0.1c-0.2,0-0.5,0-0.6,0.1c-0.2,0.1-0.4,0.2-0.5,0.4
			c-0.1,0.2-0.2,0.3-0.3,0.5s-0.1,0.4-0.1,0.6c0,0.2,0,0.5,0.1,0.7c0.1,0.2,0.2,0.4,0.3,0.7s0.3,0.4,0.5,0.7
			S348.1,152.8,348.4,153.1z"/>
	</g>
	<g>
		<path class="st1" d="M219.1,185.7l2-0.7c0.2-0.1,0.3-0.1,0.4-0.3c0.1-0.1,0.2-0.3,0.2-0.5v-15c0-0.2-0.1-0.4-0.2-0.5
			c-0.1-0.1-0.3-0.2-0.4-0.2l-2-0.7v-1.1h9.5c1.5,0,2.7,0.1,3.7,0.4c1,0.2,1.7,0.6,2.3,1c0.6,0.4,0.9,0.9,1.2,1.4
			c0.2,0.5,0.3,1.1,0.3,1.7c0,0.6-0.1,1.2-0.3,1.7c-0.2,0.5-0.5,1-0.9,1.4c-0.4,0.4-0.8,0.8-1.4,1.1s-1.2,0.5-1.8,0.7v0.1
			c0.9,0.1,1.6,0.2,2.3,0.4c0.7,0.2,1.3,0.6,1.8,1c0.5,0.4,0.9,0.9,1.2,1.5c0.3,0.6,0.4,1.2,0.4,1.9c0,0.8-0.1,1.4-0.3,2
			c-0.2,0.6-0.5,1.1-0.9,1.5s-0.9,0.8-1.4,1.1c-0.5,0.3-1.1,0.5-1.7,0.7c-0.6,0.2-1.3,0.3-2,0.4c-0.7,0.1-1.4,0.1-2.1,0.1h-9.9
			V185.7z M227.4,175.5c0.7,0,1.4-0.1,1.9-0.2c0.5-0.1,0.9-0.3,1.2-0.6c0.3-0.3,0.5-0.6,0.7-1c0.1-0.4,0.2-0.8,0.2-1.3
			c0-1.3-0.3-2.2-0.9-2.8c-0.6-0.6-1.5-0.9-2.7-0.9h-1.6v6.7H227.4z M228.8,184.7c1.3,0,2.2-0.3,2.8-0.8s0.9-1.4,0.9-2.6
			c0-0.7-0.1-1.3-0.2-1.8c-0.2-0.5-0.4-0.9-0.8-1.2c-0.3-0.3-0.8-0.5-1.3-0.7c-0.5-0.1-1.2-0.2-2-0.2h-2.1v7.3H228.8z"/>
		<path class="st1" d="M239.2,182.1l1.4-0.5c0.1,0,0.2-0.1,0.3-0.2s0.1-0.2,0.1-0.3V171c0-0.1,0-0.3-0.1-0.3
			c-0.1-0.1-0.2-0.1-0.3-0.2l-1.4-0.5v-0.7h11.5v3.7h-1.1L249,171c0-0.1-0.1-0.2-0.1-0.3c-0.1-0.1-0.1-0.1-0.3-0.1H244v4.4h2.7
			c0.1,0,0.2,0,0.3-0.1c0.1-0.1,0.1-0.1,0.1-0.2l0.6-1.5h0.9v5.1h-0.9l-0.6-1.5c0-0.1-0.1-0.2-0.1-0.3c-0.1-0.1-0.1-0.1-0.3-0.1H244
			v4.9h5.3c0.1,0,0.2,0,0.3-0.1c0.1-0.1,0.1-0.2,0.1-0.3l0.6-2.2h1.1v4h-12.2V182.1z"/>
		<path class="st1" d="M251.8,182.1l1-0.4c0.2-0.1,0.4-0.3,0.5-0.5l3.9-9.8l1.2-2.3h1.9l4.7,12.1c0.1,0.1,0.1,0.2,0.2,0.3
			c0.1,0.1,0.2,0.2,0.3,0.2l1,0.4v0.7h-6.1v-0.7l1.6-0.5l-1.3-3.2H256l-1.2,3.2l1.6,0.6v0.7h-4.6V182.1z M260.1,177l-1.3-3.3
			l-0.4-1.3h-0.1l-1.7,4.6H260.1z"/>
		<path class="st1" d="M273.3,183.1c-1,0-1.9-0.2-2.8-0.5s-1.5-0.8-2.1-1.4s-1-1.3-1.4-2.2c-0.3-0.9-0.5-1.9-0.5-2.9
			c0-0.7,0.1-1.4,0.2-2c0.2-0.6,0.4-1.2,0.7-1.7c0.3-0.5,0.6-1,1-1.4s0.9-0.8,1.4-1.1c0.5-0.3,1.1-0.5,1.6-0.7
			c0.6-0.2,1.2-0.2,1.9-0.2c0.4,0,0.7,0,1.2,0.1s0.9,0.1,1.3,0.2c0.4,0.1,0.8,0.1,1.2,0.2c0.4,0.1,0.7,0.2,1,0.2v3.6h-1l-0.6-1.8
			c0-0.1-0.1-0.2-0.2-0.2s-0.2-0.1-0.2-0.2c-0.4-0.2-0.7-0.4-1.1-0.5c-0.4-0.1-0.8-0.2-1.3-0.2c-0.6,0-1.1,0.1-1.6,0.3
			c-0.5,0.2-0.9,0.6-1.2,1c-0.3,0.4-0.6,1-0.8,1.7c-0.2,0.7-0.3,1.4-0.3,2.3c0,0.9,0.1,1.7,0.3,2.4c0.2,0.7,0.5,1.3,0.9,1.8
			c0.4,0.5,0.9,0.8,1.4,1.1c0.6,0.2,1.2,0.4,1.9,0.4c0.4,0,0.8,0,1.2-0.1c0.4-0.1,0.7-0.2,1-0.4c0.3-0.1,0.5-0.3,0.8-0.5
			c0.2-0.2,0.4-0.3,0.6-0.5h0.6v1.2c-0.3,0.2-0.6,0.5-1,0.7c-0.4,0.2-0.8,0.5-1.2,0.7c-0.4,0.2-0.9,0.4-1.4,0.5
			C274.3,183,273.8,183.1,273.3,183.1z"/>
		<path class="st1" d="M279.6,182.1l1.4-0.5c0.1,0,0.2-0.1,0.3-0.2s0.1-0.2,0.1-0.3V171c0-0.1,0-0.2-0.1-0.3
			c-0.1-0.1-0.2-0.1-0.3-0.2l-1.4-0.5v-0.7h6.6v0.7l-1.4,0.5c-0.1,0-0.2,0.1-0.3,0.2c-0.1,0.1-0.1,0.2-0.1,0.3v4.1h5.6V171
			c0-0.1,0-0.2-0.1-0.3c-0.1-0.1-0.2-0.1-0.3-0.2l-1.4-0.5v-0.7h6.6v0.7l-1.4,0.5c-0.1,0-0.2,0.1-0.3,0.2s-0.1,0.2-0.1,0.3v10.1
			c0,0.1,0,0.3,0.1,0.3c0.1,0.1,0.2,0.1,0.3,0.2l1.4,0.5v0.7h-6.6v-0.7l1.4-0.5c0.1,0,0.2-0.1,0.3-0.2c0.1-0.1,0.1-0.2,0.1-0.3v-4.6
			h-5.6v4.6c0,0.1,0,0.3,0.1,0.3c0.1,0.1,0.2,0.1,0.3,0.2l1.4,0.5v0.7h-6.6V182.1z"/>
	</g>
	<g>
		<path class="st1" d="M312.5,187.2c-1.5,0-2.9-0.2-4.1-0.7s-2.3-1.2-3.2-2.1s-1.6-2-2-3.3c-0.5-1.3-0.7-2.8-0.7-4.4
			c0-1.1,0.1-2.1,0.3-3c0.2-0.9,0.6-1.8,1-2.6s0.9-1.5,1.5-2.1c0.6-0.6,1.3-1.1,2-1.6s1.6-0.8,2.4-1c0.9-0.2,1.8-0.3,2.8-0.3
			c0.5,0,1.1,0,1.7,0.1c0.6,0.1,1.3,0.2,1.9,0.3c0.6,0.1,1.2,0.2,1.8,0.3c0.6,0.1,1.1,0.2,1.4,0.4v5.3h-1.5L317,170
			c-0.1-0.1-0.1-0.3-0.3-0.4s-0.2-0.2-0.4-0.3c-0.5-0.3-1.1-0.5-1.6-0.7c-0.6-0.2-1.2-0.3-1.9-0.3c-0.8,0-1.6,0.2-2.3,0.5
			s-1.3,0.8-1.8,1.5c-0.5,0.7-0.9,1.5-1.1,2.5c-0.3,1-0.4,2.1-0.4,3.4c0,1.3,0.1,2.5,0.4,3.6c0.3,1,0.7,1.9,1.3,2.6
			c0.6,0.7,1.3,1.2,2.1,1.6c0.8,0.4,1.8,0.5,2.8,0.5c0.7,0,1.3-0.1,1.8-0.2s1-0.3,1.4-0.5s0.8-0.5,1.1-0.7c0.3-0.3,0.6-0.5,0.9-0.7
			h0.9v1.8c-0.4,0.3-0.9,0.7-1.4,1.1s-1.2,0.7-1.8,1s-1.4,0.5-2.1,0.7C314,187.1,313.2,187.2,312.5,187.2z"/>
		<path class="st1" d="M321.4,182.1l1.4-0.5c0.1,0,0.2-0.1,0.3-0.2s0.1-0.2,0.1-0.3V171c0-0.1,0-0.3-0.1-0.3
			c-0.1-0.1-0.2-0.1-0.3-0.2l-1.4-0.5v-0.7h6.6v0.7l-1.4,0.5c-0.1,0-0.2,0.1-0.3,0.2c-0.1,0.1-0.1,0.2-0.1,0.3v10.4h4.6
			c0.1,0,0.1,0,0.1,0c0,0,0.1-0.1,0.1-0.1s0.1-0.1,0.1-0.1c0-0.1,0-0.1,0.1-0.2l0.7-2.7h1.1v4.6h-11.5V182.1z"/>
		<path class="st1" d="M340.3,183.1c-0.9,0-1.7-0.1-2.4-0.3c-0.7-0.2-1.3-0.5-1.7-0.9c-0.5-0.4-0.8-0.8-1-1.3
			c-0.2-0.5-0.3-1-0.3-1.6v-8c0-0.1,0-0.3-0.1-0.3c-0.1-0.1-0.2-0.1-0.3-0.2L333,170v-0.7h6.6v0.7l-1.4,0.5c-0.1,0-0.2,0.1-0.3,0.2
			s-0.1,0.2-0.1,0.3v7.1c0,0.2,0,0.5,0,0.7c0,0.3,0.1,0.5,0.2,0.8c0.1,0.3,0.2,0.5,0.3,0.7c0.1,0.2,0.3,0.4,0.6,0.6
			c0.2,0.2,0.5,0.3,0.8,0.4c0.3,0.1,0.7,0.2,1.1,0.2c0.4,0,0.8-0.1,1.2-0.2c0.3-0.1,0.6-0.2,0.9-0.4c0.2-0.2,0.5-0.4,0.6-0.6
			s0.3-0.5,0.4-0.7c0.1-0.3,0.2-0.5,0.2-0.8c0-0.3,0.1-0.5,0.1-0.8v-7c0-0.1,0-0.2-0.1-0.3c-0.1-0.1-0.2-0.1-0.3-0.2l-1.4-0.6v-0.7
			h5.1v0.7l-1.4,0.6c-0.1,0-0.2,0.1-0.3,0.2s-0.1,0.2-0.1,0.3v7.5c0,0.5-0.1,1-0.3,1.5c-0.2,0.4-0.4,0.8-0.7,1.2
			c-0.3,0.3-0.6,0.6-1,0.9c-0.4,0.2-0.8,0.4-1.2,0.6c-0.4,0.2-0.8,0.3-1.2,0.3C341.1,183.1,340.7,183.1,340.3,183.1z"/>
		<path class="st1" d="M348.7,182.1l1.4-0.5c0.1,0,0.2-0.1,0.3-0.2s0.1-0.2,0.1-0.3V171c0-0.1,0-0.3-0.1-0.3
			c-0.1-0.1-0.2-0.1-0.3-0.2l-1.4-0.5v-0.7h6.4c1,0,1.8,0.1,2.5,0.2c0.7,0.2,1.2,0.4,1.5,0.7c0.4,0.3,0.6,0.6,0.8,1
			c0.1,0.4,0.2,0.7,0.2,1.1c0,0.4-0.1,0.8-0.2,1.2s-0.3,0.7-0.6,1c-0.3,0.3-0.6,0.5-0.9,0.7s-0.8,0.4-1.2,0.5v0.1
			c0.6,0,1.1,0.1,1.6,0.3c0.5,0.2,0.9,0.4,1.2,0.7c0.3,0.3,0.6,0.6,0.8,1c0.2,0.4,0.3,0.8,0.3,1.3c0,0.5-0.1,1-0.2,1.4
			c-0.1,0.4-0.4,0.7-0.6,1c-0.3,0.3-0.6,0.5-0.9,0.7c-0.4,0.2-0.8,0.4-1.2,0.5s-0.9,0.2-1.3,0.2s-0.9,0.1-1.4,0.1h-6.7V182.1z
			 M354.3,175.2c0.5,0,0.9,0,1.3-0.1c0.3-0.1,0.6-0.2,0.8-0.4c0.2-0.2,0.4-0.4,0.5-0.7c0.1-0.3,0.1-0.5,0.1-0.9
			c0-0.9-0.2-1.5-0.6-1.9c-0.4-0.4-1-0.6-1.8-0.6h-1.1v4.5H354.3z M355.3,181.4c0.8,0,1.5-0.2,1.9-0.5c0.4-0.4,0.6-0.9,0.6-1.8
			c0-0.5-0.1-0.9-0.2-1.2c-0.1-0.3-0.3-0.6-0.5-0.8c-0.2-0.2-0.5-0.4-0.9-0.4c-0.4-0.1-0.8-0.1-1.3-0.1h-1.4v4.9H355.3z"/>
	</g>
	<linearGradient id="SVGID_4_" gradientUnits="userSpaceOnUse" x1="72.8087" y1="200.0813" x2="72.8087" y2="254.0813">
		<stop  offset="0" style="stop-color:#94DCEB"/>
		<stop  offset="0.5363" style="stop-color:#1B4596"/>
	</linearGradient>
	<polygon class="st4" points="78.9,245.2 78.9,200.1 78.4,200.1 67.4,200.1 63.1,200.1 63.1,209 67.4,209 67.4,245.2 63.6,245.2 
		63.6,254.1 82.5,254.1 82.5,245.2 	"/>
	<linearGradient id="SVGID_5_" gradientUnits="userSpaceOnUse" x1="163.2372" y1="194.8904" x2="220.621" y2="252.2743">
		<stop  offset="0" style="stop-color:#F4C8DF"/>
		<stop  offset="0.5698" style="stop-color:#EA286A"/>
		<stop  offset="1" style="stop-color:#BA194B"/>
	</linearGradient>
	<polygon class="st5" points="202.7,250.6 202.7,180.2 202,180.2 184.6,180.2 178,180.2 178,194.1 184.6,194.1 184.6,250.6 
		178.7,250.6 178.7,264.6 208.3,264.6 208.3,250.6 	"/>
	<linearGradient id="SVGID_6_" gradientUnits="userSpaceOnUse" x1="106.6297" y1="209.6497" x2="106.6297" y2="246.7865">
		<stop  offset="0" style="stop-color:#94DCEB"/>
		<stop  offset="0.5363" style="stop-color:#1B4596"/>
	</linearGradient>
	<path class="st6" d="M112.7,209.6H95.5c-3.3,0-6.1,2.7-6.1,6.1v7.9h10.9l0-5.4h7.8v6.7h-11c-4.2,0-7.7,3.4-7.7,7.7v9.5
		c0,2.6,2.1,4.7,4.7,4.7h8.9l5.1-3.4v3.4h15.6v-10.9l-3.5,0v-18.7C120.3,213,116.9,209.6,112.7,209.6z M108,237.5h-8v-4.7h8V237.5z"
		/>
	<linearGradient id="SVGID_7_" gradientUnits="userSpaceOnUse" x1="214.769" y1="205.4268" x2="263.1488" y2="253.8066">
		<stop  offset="0" style="stop-color:#F4C8DF"/>
		<stop  offset="0.5698" style="stop-color:#EA286A"/>
		<stop  offset="1" style="stop-color:#BA194B"/>
	</linearGradient>
	<path class="st7" d="M248.2,200.1h-24.5c-4.8,0-8.6,3.9-8.6,8.6v11.2h15.5l0-7.7h11.1v9.6H226c-6,0-10.9,4.9-10.9,10.9v13.5
		c0,3.7,3,6.7,6.7,6.7h12.7l7.3-4.8v4.8H264v-15.5l-5,0v-26.6C259,204.9,254.2,200.1,248.2,200.1z M241.5,239.7h-11.3V233h11.3
		V239.7z"/>
	<linearGradient id="SVGID_8_" gradientUnits="userSpaceOnUse" x1="308.4953" y1="214.0478" x2="356.8752" y2="262.4277">
		<stop  offset="0" style="stop-color:#F4C8DF"/>
		<stop  offset="0.5698" style="stop-color:#EA286A"/>
		<stop  offset="1" style="stop-color:#BA194B"/>
	</linearGradient>
	<path class="st8" d="M342,208.7h-24.5c-4.8,0-8.6,3.9-8.6,8.6v11.2h15.5l0-7.7h11.1v9.6h-15.6c-6,0-10.9,4.9-10.9,10.9v13.5
		c0,3.7,3,6.7,6.7,6.7h12.7l7.3-4.8v4.8h22.3v-15.5l-5,0v-26.6C352.7,213.5,347.9,208.7,342,208.7z M335.2,248.3h-11.3v-6.7h11.3
		V248.3z"/>
	<linearGradient id="SVGID_9_" gradientUnits="userSpaceOnUse" x1="256.3541" y1="196.3938" x2="307.5751" y2="247.6149">
		<stop  offset="0" style="stop-color:#F4C8DF"/>
		<stop  offset="0.5698" style="stop-color:#EA286A"/>
		<stop  offset="1" style="stop-color:#BA194B"/>
	</linearGradient>
	<polygon class="st9" points="265,206 260.9,206 260.9,191.8 279.5,191.8 285.1,221.2 290.2,191.8 308.8,191.8 308.8,206 304.3,206 
		289,266.2 269.2,266.2 269.2,251.4 276.6,251.4 	"/>
	<linearGradient id="SVGID_10_" gradientUnits="userSpaceOnUse" x1="118.9684" y1="203.1689" x2="171.0105" y2="255.211">
		<stop  offset="0" style="stop-color:#F4C8DF"/>
		<stop  offset="0.5698" style="stop-color:#EA286A"/>
		<stop  offset="1" style="stop-color:#BA194B"/>
	</linearGradient>
	<path class="st10" d="M166.3,195.7h-5.6c-5.1,0-9.3,3.6-10.4,8.3v-8.3h-19.2h-4.8v14.9h4.8v45.5h-4.8v14.1H156v-14.1h-5.6v-13.2
		c0.9,4,4.5,7,8.8,7h7.1c6.4,0,11.6-5.2,11.6-11.6v-30.9C178,200.9,172.8,195.7,166.3,195.7z M158.1,235.1h-7.7v-25.5h7.7V235.1z"/>
	<linearGradient id="SVGID_11_" gradientUnits="userSpaceOnUse" x1="238.2615" y1="297.9733" x2="198.7168" y2="297.9733">
		<stop  offset="0" style="stop-color:#4C9DD7"/>
		<stop  offset="1" style="stop-color:#4CA2D7"/>
	</linearGradient>
	<path class="st11" d="M238.1,290.8c0,0-17.8,18.9-19.5,17.2c-1.4-1.5,10.9-16.7,15.2-21.9c0.8-1,0.7-2.4-0.2-3.3l-3-3
		c-1.1-1.1-2.9-0.9-3.7,0.4c-5.3,8.2-22.3,34.1-25.2,32.8c-3.3-1.4,11.2-20.1,16.2-26.5c0.9-1.2,0.7-2.9-0.5-3.8l-2.8-2.1
		c-1-0.7-2.4-0.4-3,0.6c-3.4,6.2-13.2,24.8-13,29.7c0.3,5.9,2.9,5.9,4.4,5.5c1.5-0.4,11.7-14.5,11.7-14.5s0,0-0.9,5.4
		s2.7,6.3,4.6,6.3c1.3,0,12.4-12.3,17.8-19.1C239,291.5,238.1,290.8,238.1,290.8z"/>
	<linearGradient id="SVGID_12_" gradientUnits="userSpaceOnUse" x1="203.9198" y1="309.0226" x2="92.9938" y2="309.0226">
		<stop  offset="0" style="stop-color:#4C9DD7"/>
		<stop  offset="1" style="stop-color:#4CA2D7"/>
	</linearGradient>
	<path class="st12" d="M196.6,280c-3.7,0.7-7.4,5.2-8.1,4.7c-0.8-0.5-0.6-1.4-0.9-2.4c-0.3-1-2-3-3-2.8
		c-0.9,0.2-12.2,21.9-20.9,34.7c-0.3-0.9-1.1-3.3-3.1-9.4c-0.7-2.2-1.4-5.3-2.1-8.8c6.4-5.8,13.3-10.5,17.3-13.1
		c1.7-1.1,1.8-3.5,0.1-4.7l-3.2-2.4c-1.5-1.1-3.6-0.9-4.8,0.5l-10.8,12.4c-0.6-3.5-1.2-6.8-1.6-9.1c-0.3-1.6-2-2.4-3.4-1.7l-3.5,1.7
		c-1.8,0.9-2.6,3.1-1.8,4.9l4.8,10.6l-12.7,14.6c-1.9,2.2-2,5.5-0.1,7.8c0.3,0.3,0.7,0.3,1,0c1.2-1.6,4.8-6.4,13.1-15.8
		c0.4-0.4,0.7-0.8,1.1-1.2l7.6,16.7c-0.7,0.9-1.3,1.7-1.9,2.4c-8.7,10.5-24.3,21.3-39.7,20.3c-15.4-1-26.9-11-26.9-11
		s0.5,3.4,3.7,5.8c3.2,2.4,13.6,10.2,35.2,7.2c21.6-3,39-28.3,39-28.3s2.1,3.4,9.2,1.1s23-21.6,23.7-29.4
		C204.3,281.7,199.6,279.4,196.6,280z M187.9,301.4c-6.6,8-13.3,13.3-15.1,11.8s2.2-9,8.8-17c6.6-8,13.3-13.3,15.1-11.8
		C198.4,285.8,194.4,293.4,187.9,301.4z"/>
	<linearGradient id="SVGID_13_" gradientUnits="userSpaceOnUse" x1="227.3618" y1="286.2941" x2="310.7403" y2="286.2941">
		<stop  offset="0" style="stop-color:#144BA3"/>
		<stop  offset="0.9944" style="stop-color:#02328C"/>
	</linearGradient>
	<path class="st13" d="M286.4,308.7c-1,0,1.6-7.8,4.8-11.7c2.5-3.1,9.2-11.1,11.8-14.3c0.6-0.8,0.6-1.9-0.1-2.6l-1.6-1.7
		c-1-1-2.6-1-3.5,0.1l-2.7,3l-5.1-3.9c-2-1.5-4.7-1.3-6.4,0.5c-7.7,8.2-27.8,29.5-29.8,29.6c-2.5,0.2-0.8-4.7,3.4-8.8
		c3.2-3.1,8.5-8.9,10.9-11.5c0.7-0.8,0.8-1.9,0.2-2.8l-4.2-5.8c-0.6-0.8-1.7-1-2.6-0.5c-2.3,1.5-7.2,4.9-13.5,10.7
		c-9.1,8.3-10,11.4-10.7,11.2c-0.7-0.2,5.9-13.8,17.8-24.8c5.5-5.1,8.4-7.9,9.9-9.5c1-1.1,1.1-2.8,0.1-3.9l-2.7-3.1
		c-0.8-0.9-2.2-0.9-3,0c-2.8,3.3-9.5,11.7-19.3,27.4c-9.4,15-12,21.2-12.7,23.5c-0.2,0.7,0,1.5,0.5,2l1.2,1.2
		c0.3,0.4,0.9,0.3,1.2-0.1c3.1-3.8,17.5-21.7,22.5-25.7c5.7-4.5,6.4-4.6,7-4.4c0.6,0.3-16.2,27.3-12.3,30.8
		c3.9,3.5,18.1-12.7,18.1-12.7s-2.9,8.6,0,11.1c2.9,2.5,21.6-18.7,21.6-18.7s-6.6,13.9-5.2,17.6c1.4,3.7,6.1-0.8,9.9-4.8
		s18.8-21,18.8-21S287.4,308.7,286.4,308.7z M268.3,307.1c-2.1-0.4,18.9-24.8,20.5-25.3s3.3,0.4,4.3,1.3
		C294,284,271.4,307.7,268.3,307.1z"/>
	<g>
		<path class="st14" d="M182,332.4l1.2-0.4c0.1,0,0.2-0.1,0.2-0.2c0.1-0.1,0.1-0.2,0.1-0.3v-8.7c0-0.1,0-0.2-0.1-0.3
			c-0.1-0.1-0.1-0.1-0.2-0.1L182,322v-0.6h5.6c0.6,0,1.1,0,1.6,0.1c0.5,0.1,0.9,0.2,1.2,0.3c0.3,0.1,0.6,0.3,0.8,0.5
			s0.4,0.4,0.5,0.6s0.2,0.4,0.3,0.7c0,0.2,0.1,0.5,0.1,0.7c0,0.5-0.1,0.9-0.2,1.2c-0.2,0.3-0.3,0.6-0.6,0.9
			c-0.2,0.2-0.5,0.5-0.8,0.6c-0.3,0.2-0.6,0.3-0.8,0.4l2.8,4.1c0,0.1,0.1,0.1,0.1,0.2s0.1,0.1,0.2,0.2c0.1,0.1,0.1,0.1,0.2,0.1
			c0.1,0,0.1,0.1,0.2,0.1l1.2,0.4v0.6h-2.9c-0.3,0-0.5,0-0.7-0.1c-0.2,0-0.3-0.1-0.4-0.2c-0.1-0.1-0.2-0.2-0.3-0.3s-0.2-0.3-0.3-0.5
			l-2.5-3.8l-1.1-0.3v3.7c0,0.1,0,0.2,0.1,0.3c0.1,0.1,0.1,0.1,0.2,0.2l1.3,0.4v0.6H182V332.4z M187.3,326.9c0.3,0,0.6-0.1,0.9-0.2
			c0.2-0.1,0.5-0.3,0.6-0.5c0.2-0.2,0.3-0.4,0.4-0.7s0.1-0.5,0.1-0.8c0-0.8-0.2-1.3-0.6-1.6c-0.4-0.3-0.9-0.5-1.6-0.5h-1v4.3
			c0,0,0.1,0,0.2,0c0.1,0,0.2,0,0.3,0c0.1,0,0.2,0,0.3,0S187.2,326.9,187.3,326.9z"/>
		<path class="st14" d="M194.3,332.6l0.9-0.3c0.1,0,0.1-0.1,0.2-0.1c0,0,0.1-0.1,0.1-0.2v-6.3c0-0.1,0-0.2-0.1-0.2
			c0,0-0.1-0.1-0.2-0.1l-0.9-0.3v-0.5h4.1v0.5l-0.9,0.3c-0.1,0-0.1,0.1-0.2,0.1s-0.1,0.1-0.1,0.2v6.3c0,0.1,0,0.2,0.1,0.2
			c0,0,0.1,0.1,0.2,0.1l0.9,0.3v0.5h-4.1V332.6z"/>
		<path class="st14" d="M199.6,325.7c0-0.1-0.1-0.1-0.1-0.2s-0.1-0.1-0.2-0.1l-0.6-0.2v-0.5h3.8v0.5l-1,0.3l2,4.9l0.3,0.8h0.1
			l2.1-5.7l-1-0.4v-0.5h2.9v0.5l-0.6,0.3c-0.1,0-0.1,0.1-0.2,0.1c-0.1,0.1-0.1,0.1-0.1,0.2l-2.4,6.1l-0.7,1.4h-1.2L199.6,325.7z"/>
		<path class="st14" d="M208,332.6l0.9-0.3c0.1,0,0.1-0.1,0.2-0.1c0,0,0.1-0.1,0.1-0.2v-6.3c0-0.1,0-0.2-0.1-0.2
			c0,0-0.1-0.1-0.2-0.1l-0.9-0.3v-0.5h4.1v0.5l-0.9,0.3c-0.1,0-0.1,0.1-0.2,0.1c0,0.1-0.1,0.1-0.1,0.2v6.3c0,0.1,0,0.2,0.1,0.2
			c0,0,0.1,0.1,0.2,0.1l0.9,0.3v0.5H208V332.6z"/>
		<path class="st14" d="M213,332.6l0.9-0.3c0.1,0,0.1-0.1,0.2-0.1c0-0.1,0.1-0.1,0.1-0.2v-6.3c0-0.1,0-0.2-0.1-0.2s-0.1-0.1-0.2-0.1
			l-0.9-0.3v-0.5h7.1v2.3h-0.7l-0.4-1.2c0-0.1-0.1-0.1-0.1-0.2c0,0-0.1-0.1-0.2-0.1H216v2.7h1.6c0.1,0,0.1,0,0.2-0.1
			c0,0,0.1-0.1,0.1-0.2l0.3-1h0.6v3.2h-0.6l-0.3-0.9c0-0.1-0.1-0.1-0.1-0.2c0,0-0.1-0.1-0.2-0.1H216v3.1h3.3c0.1,0,0.1,0,0.2-0.1
			c0,0,0.1-0.1,0.1-0.2l0.4-1.4h0.7v2.5H213V332.6z"/>
		<path class="st14" d="M221.5,332.6l0.9-0.3c0.1,0,0.1-0.1,0.2-0.1c0-0.1,0.1-0.1,0.1-0.2v-6.3c0-0.1,0-0.2-0.1-0.2
			s-0.1-0.1-0.2-0.1l-0.9-0.3v-0.5h4c0.4,0,0.8,0,1.1,0.1s0.6,0.1,0.8,0.2c0.2,0.1,0.4,0.2,0.6,0.4c0.2,0.1,0.3,0.3,0.4,0.4
			c0.1,0.2,0.2,0.3,0.2,0.5c0,0.2,0.1,0.3,0.1,0.5c0,0.3-0.1,0.6-0.2,0.9c-0.1,0.2-0.2,0.5-0.4,0.6c-0.2,0.2-0.4,0.3-0.6,0.4
			c-0.2,0.1-0.4,0.2-0.6,0.3l2,2.9c0,0,0.1,0.1,0.1,0.1c0,0,0.1,0.1,0.1,0.1c0,0,0.1,0.1,0.1,0.1c0,0,0.1,0.1,0.1,0.1l0.9,0.3v0.5
			h-2.1c-0.2,0-0.4,0-0.5,0c-0.1,0-0.2-0.1-0.3-0.1c-0.1-0.1-0.2-0.1-0.2-0.2c-0.1-0.1-0.2-0.2-0.2-0.4l-1.8-2.7l-0.8-0.2v2.7
			c0,0.1,0,0.2,0.1,0.2c0,0,0.1,0.1,0.2,0.1l0.9,0.3v0.5h-4.1V332.6z M225.3,328.7c0.2,0,0.5,0,0.6-0.1c0.2-0.1,0.3-0.2,0.4-0.4
			c0.1-0.2,0.2-0.3,0.3-0.5s0.1-0.4,0.1-0.6c0-0.5-0.1-0.9-0.4-1.2c-0.3-0.2-0.6-0.4-1.1-0.4h-0.7v3.1c0,0,0.1,0,0.2,0
			c0.1,0,0.2,0,0.2,0c0.1,0,0.2,0,0.2,0S225.3,328.7,225.3,328.7z"/>
		<path class="st14" d="M229.8,332.6l0.6-0.3c0.2-0.1,0.3-0.2,0.3-0.3l2.4-6.1l0.7-1.4h1.2l2.9,7.5c0,0.1,0.1,0.1,0.1,0.2
			s0.1,0.1,0.2,0.1l0.6,0.2v0.5h-3.8v-0.5l1-0.3l-0.8-2h-2.9l-0.8,2l1,0.4v0.5h-2.9V332.6z M235,329.4l-0.8-2l-0.3-0.8h-0.1
			l-1.1,2.9H235z"/>
		<path class="st14" d="M244.2,332.4l1.2-0.5c0.1,0,0.2-0.1,0.2-0.2c0.1-0.1,0.1-0.2,0.1-0.3v-8.7c0-0.1,0-0.2-0.1-0.3
			c-0.1-0.1-0.1-0.1-0.2-0.1l-1.2-0.4v-0.6h4.9l2.3,6.6l0.5,1.5h0.1l2.8-8.2h4.9v0.6l-1.2,0.4c-0.1,0-0.2,0.1-0.3,0.2
			c-0.1,0.1-0.1,0.2-0.1,0.3v8.7c0,0.1,0,0.2,0.1,0.3c0.1,0.1,0.2,0.1,0.3,0.2l1.2,0.4v0.6H254v-0.6l1.2-0.4c0.1,0,0.2-0.1,0.3-0.2
			c0.1-0.1,0.1-0.2,0.1-0.3v-8.3h-0.1l-0.4,1.4l-2.3,6.6l-0.8,1.9h-1.3l-3-8.5l-0.4-1.4h-0.1v8.3c0,0.1,0,0.2,0.1,0.3
			s0.1,0.1,0.2,0.2l1.2,0.5v0.6h-4.4V332.4z"/>
		<path class="st14" d="M260.1,332.6l0.6-0.3c0.2-0.1,0.3-0.2,0.3-0.3l2.4-6.1l0.7-1.4h1.2l2.9,7.5c0,0.1,0.1,0.1,0.1,0.2
			s0.1,0.1,0.2,0.1l0.6,0.2v0.5h-3.8v-0.5l1-0.3l-0.8-2h-2.9l-0.8,2l1,0.4v0.5h-2.9V332.6z M265.2,329.4l-0.8-2l-0.3-0.8h-0.1
			l-1.1,2.9H265.2z"/>
		<path class="st14" d="M270.2,332.6l0.9-0.3c0.1,0,0.1-0.1,0.2-0.1c0-0.1,0.1-0.1,0.1-0.2v-2.2l-2.3-4.1c0-0.1-0.1-0.1-0.1-0.2
			s-0.1-0.1-0.2-0.1l-0.6-0.2v-0.5h3.8v0.5l-1,0.3l1.5,2.6l0.4,0.7h0.1l1.9-3.3l-1-0.4v-0.5h2.8v0.5l-0.6,0.3
			c-0.1,0-0.1,0.1-0.2,0.1s-0.1,0.1-0.1,0.2l-2.4,4v2.2c0,0.1,0,0.2,0.1,0.2c0,0,0.1,0.1,0.2,0.1l1,0.3v0.5h-4.3V332.6z"/>
		<path class="st14" d="M275.6,332.6l0.6-0.3c0.2-0.1,0.3-0.2,0.3-0.3l2.4-6.1l0.7-1.4h1.2l2.9,7.5c0,0.1,0.1,0.1,0.1,0.2
			s0.1,0.1,0.2,0.1l0.6,0.2v0.5h-3.8v-0.5l1-0.3l-0.8-2h-2.9l-0.8,2l1,0.4v0.5h-2.9V332.6z M280.8,329.4l-0.8-2l-0.3-0.8h-0.1
			l-1.1,2.9H280.8z"/>
	</g>
	<g>
		<path class="st15" d="M217.1,119l0.5-1.5c0.2-0.6,0.5-1.1,0.8-1.3c0.4-0.3,0.8-0.3,1.2-0.2c0.2,0.1,0.4,0.2,0.6,0.4
			c0.2,0.2,0.3,0.5,0.3,0.7l2.5-0.4l-0.4,1.4l-2.5,0.4l0,0l2.2,0.7l-0.4,1.3L217.1,119z M218.5,118l1.1,0.4c0.2-0.6,0.1-0.9-0.2-1
			c-0.2-0.1-0.4-0.1-0.5,0.1S218.6,117.7,218.5,118z"/>
		<path class="st15" d="M218.6,114.5l0.4-1.3l4.8,1.5l-0.4,1.3L218.6,114.5z"/>
		<path class="st15" d="M219.2,112.4l0.4-1.4l2.3,0c0.5,0,0.8,0,1.1,0.1l0,0c-0.2-0.1-0.4-0.2-0.6-0.3l-2.3-1.6l0.4-1.4l4.2,3.2
			l-0.4,1.2L219.2,112.4z"/>
		<path class="st15" d="M220.9,107l0.4-1.3l4.8,1.5l-0.4,1.3L220.9,107z"/>
		<path class="st15" d="M221.7,104.4l0.8-2.6l1,0.3l-0.4,1.3l0.9,0.3l0.4-1.2l1,0.3L225,104l0.9,0.3l0.4-1.3l1,0.3l-0.8,2.6
			L221.7,104.4z"/>
		<path class="st15" d="M222.9,100.7l0.5-1.5c0.2-0.6,0.5-1.1,0.8-1.3c0.4-0.3,0.8-0.3,1.2-0.2c0.2,0.1,0.4,0.2,0.6,0.4
			c0.2,0.2,0.3,0.5,0.3,0.7l2.5-0.4l-0.4,1.4l-2.5,0.4l0,0l2.2,0.7l-0.4,1.3L222.9,100.7z M224.2,99.7l1.1,0.4
			c0.2-0.6,0.1-0.9-0.2-1c-0.2-0.1-0.4-0.1-0.5,0.1S224.3,99.4,224.2,99.7z"/>
		<path class="st15" d="M230.3,93.7l-0.4,1.4l-0.9,0l-0.4,1.4l0.7,0.5l-0.4,1.3l-4.3-3l0.5-1.5L230.3,93.7z M228.1,95
			c-0.8,0-1.5-0.1-2.2-0.2l0,0c0.6,0.3,1.3,0.7,1.9,1.1L228.1,95z"/>
		<path class="st15" d="M226.6,89l0.5-1.6c1.1,0.1,2,0.2,2.8,0.3l-0.7-0.4c-0.3-0.1-0.5-0.3-0.8-0.4l-1-0.6l0.5-1.7l5,0.8l-0.4,1.3
			l-3.4-0.7l3,1.8l-0.3,0.9l-3.5-0.2l3.2,1.4l-0.4,1.2L226.6,89z"/>
		<path class="st15" d="M234.5,80.3l-0.4,1.4l-0.9,0l-0.4,1.4l0.7,0.5l-0.4,1.3l-4.3-3l0.5-1.5L234.5,80.3z M232.3,81.6
			c-0.8,0-1.5-0.1-2.2-0.2l0,0c0.6,0.3,1.3,0.7,1.9,1.1L232.3,81.6z"/>
		<path class="st15" d="M229.7,79.2l0.5-1.5c0.8-0.1,1.4-0.2,1.8-0.2l0,0c-0.3-0.3-0.8-0.7-1.4-1.2l0.5-1.5l2.1,2.4l2.2,0.7
			l-0.4,1.3l-2.2-0.7L229.7,79.2z"/>
		<path class="st15" d="M237.1,72l-0.4,1.4l-0.9,0l-0.4,1.4l0.7,0.5l-0.4,1.3l-4.3-3l0.5-1.5L237.1,72z M234.9,73.3
			c-0.8,0-1.5-0.1-2.2-0.2l0,0c0.6,0.3,1.3,0.7,1.9,1.1L234.9,73.3z"/>
	</g>
	<g>
		<path class="st15" d="M218,145.1c1.9-7,3.8-14.1,5.8-21.1l6.1-21l6.3-20.9l3.2-10.4l3.3-10.4l-2.9,10.6l-3,10.5l-6.1,21l-6.3,20.9
			C222.5,131.2,220.3,138.1,218,145.1z"/>
	</g>
</g>
</svg>
