<?xml version="1.0" encoding="utf-8"?>
<!-- Generator: Adobe Illustrator 23.1.0, SVG Export Plug-In . SVG Version: 6.00 Build 0)  -->
<svg version="1.1" id="Layer_2" xmlns="http://www.w3.org/2000/svg" xmlns:xlink="http://www.w3.org/1999/xlink" x="0px" y="0px"
	 viewBox="0 0 400 400" style="enable-background:new 0 0 400 400;" xml:space="preserve">
<style type="text/css">
	.st0{fill:#20416C;}
	.st1{fill:#E9C330;}
	.st2{fill:#FFFFFF;}
</style>
<g>
	<g>
		<path class="st0" d="M350.9,119.9H49.1c-8.6,0-15.6,7-15.6,15.6v129c0,8.6,7,15.6,15.6,15.6h301.9c8.6,0,15.6-7,15.6-15.6v-129
			C366.6,126.9,359.6,119.9,350.9,119.9z"/>
	</g>
	<g>
		<g>
			<polygon class="st1" points="86,204.9 159.9,200.8 124.9,241.6 			"/>
		</g>
		<g>
			<polygon class="st2" points="51,207.5 73.8,206.6 119.1,247 109.2,259.2 			"/>
		</g>
		<g>
			<polygon class="st2" points="123.6,194.9 49.7,199.1 84.8,158.3 			"/>
		</g>
		<g>
			<polygon class="st2" points="157.5,192.5 134.8,193.4 89.4,153 99.4,140.8 			"/>
		</g>
		<g>
			<path class="st2" d="M169.6,237.8c14.8-3,29.9-5,45-6.4c7.6-0.7,15.1-1.1,22.7-1.4c7.6-0.3,15.2-0.4,22.7-0.3
				c7.6,0.1,15.2,0.3,22.7,0.8c7.6,0.5,15.1,1,22.7,1.9c15.1,1.6,30.1,3.9,44.9,7.2c-15.1-1.5-30.1-2.9-45.1-3.9
				c-7.5-0.4-15-0.9-22.6-1.1c-7.5-0.3-15.1-0.5-22.6-0.5c-7.5-0.1-15.1,0-22.6,0.1c-7.5,0.1-15.1,0.4-22.6,0.7
				C199.7,235.4,184.6,236.5,169.6,237.8z"/>
		</g>
		<g>
			<path class="st2" d="M182.9,254.9v2.1h-8.6v-11.1h8.4v2.1h-5.8v2.4h5.1v2h-5.1v2.6H182.9z"/>
			<path class="st2" d="M186.7,256.9c-0.7-0.2-1.2-0.4-1.6-0.7l0.8-1.8c0.4,0.2,0.8,0.4,1.4,0.6c0.5,0.2,1.1,0.2,1.6,0.2
				c1,0,1.6-0.3,1.6-0.8c0-0.2-0.1-0.4-0.4-0.5c-0.3-0.1-0.7-0.2-1.3-0.3c-0.7-0.1-1.3-0.2-1.7-0.4c-0.5-0.1-0.8-0.4-1.2-0.7
				c-0.3-0.3-0.5-0.8-0.5-1.5c0-0.5,0.2-1,0.5-1.4c0.3-0.4,0.8-0.7,1.4-1c0.6-0.2,1.3-0.3,2.1-0.3c0.6,0,1.2,0.1,1.8,0.2
				c0.6,0.1,1.1,0.3,1.5,0.5l-0.8,1.8c-0.7-0.4-1.6-0.6-2.4-0.6c-0.5,0-0.9,0.1-1.2,0.2c-0.3,0.1-0.4,0.3-0.4,0.6
				c0,0.3,0.1,0.4,0.4,0.6c0.3,0.1,0.7,0.2,1.4,0.3c0.7,0.1,1.3,0.2,1.7,0.4c0.4,0.1,0.8,0.4,1.2,0.7c0.3,0.3,0.5,0.8,0.5,1.5
				c0,0.5-0.2,1-0.5,1.4c-0.3,0.4-0.8,0.7-1.4,1c-0.6,0.2-1.3,0.3-2.2,0.3C188,257.1,187.3,257,186.7,256.9z"/>
			<path class="st2" d="M200.9,256.6c-0.2,0.2-0.5,0.3-0.9,0.4c-0.4,0.1-0.7,0.1-1.1,0.1c-1,0-1.8-0.3-2.3-0.8
				c-0.6-0.5-0.8-1.3-0.8-2.3v-3.5h-1.3v-1.9h1.3v-2.1h2.5v2.1h2.1v1.9h-2.1v3.5c0,0.4,0.1,0.6,0.3,0.8c0.2,0.2,0.4,0.3,0.8,0.3
				c0.4,0,0.7-0.1,1-0.3L200.9,256.6z"/>
			<path class="st2" d="M203.6,246.9c-0.3-0.3-0.4-0.6-0.4-1c0-0.4,0.1-0.7,0.4-1c0.3-0.3,0.7-0.4,1.1-0.4c0.5,0,0.8,0.1,1.1,0.4
				c0.3,0.3,0.4,0.6,0.4,0.9c0,0.4-0.1,0.8-0.4,1s-0.7,0.4-1.1,0.4C204.3,247.3,203.9,247.2,203.6,246.9z M203.5,248.5h2.5v8.5h-2.5
				V248.5z"/>
			<path class="st2" d="M209.5,245.3h2.5V257h-2.5V245.3z"/>
			<path class="st2" d="M217,256.6c-0.7-0.4-1.3-0.9-1.7-1.6c-0.4-0.7-0.6-1.4-0.6-2.3c0-0.8,0.2-1.6,0.6-2.3c0.4-0.7,1-1.2,1.7-1.6
				c0.7-0.4,1.5-0.6,2.4-0.6c0.9,0,1.7,0.2,2.4,0.6c0.7,0.4,1.3,0.9,1.7,1.6c0.4,0.7,0.6,1.4,0.6,2.3c0,0.8-0.2,1.6-0.6,2.3
				c-0.4,0.7-1,1.2-1.7,1.6c-0.7,0.4-1.5,0.6-2.4,0.6C218.5,257.1,217.7,256.9,217,256.6z M221,254.5c0.4-0.4,0.6-1,0.6-1.7
				s-0.2-1.3-0.6-1.7c-0.4-0.4-0.9-0.6-1.6-0.6s-1.2,0.2-1.6,0.6c-0.4,0.4-0.6,1-0.6,1.7s0.2,1.3,0.6,1.7c0.4,0.4,0.9,0.6,1.6,0.6
				S220.6,254.9,221,254.5z"/>
			<path class="st2" d="M227.7,256.9c-0.7-0.2-1.2-0.4-1.6-0.7l0.8-1.8c0.4,0.2,0.8,0.4,1.4,0.6c0.5,0.2,1.1,0.2,1.6,0.2
				c1,0,1.6-0.3,1.6-0.8c0-0.2-0.1-0.4-0.4-0.5c-0.3-0.1-0.7-0.2-1.3-0.3c-0.7-0.1-1.3-0.2-1.7-0.4c-0.5-0.1-0.8-0.4-1.2-0.7
				c-0.3-0.3-0.5-0.8-0.5-1.5c0-0.5,0.2-1,0.5-1.4c0.3-0.4,0.8-0.7,1.4-1c0.6-0.2,1.3-0.3,2.1-0.3c0.6,0,1.2,0.1,1.8,0.2
				c0.6,0.1,1.1,0.3,1.5,0.5l-0.8,1.8c-0.7-0.4-1.6-0.6-2.4-0.6c-0.5,0-0.9,0.1-1.2,0.2c-0.3,0.1-0.4,0.3-0.4,0.6
				c0,0.3,0.1,0.4,0.4,0.6c0.3,0.1,0.7,0.2,1.4,0.3c0.7,0.1,1.3,0.2,1.7,0.4c0.4,0.1,0.8,0.4,1.2,0.7c0.3,0.3,0.5,0.8,0.5,1.5
				c0,0.5-0.2,1-0.5,1.4c-0.3,0.4-0.8,0.7-1.4,1c-0.6,0.2-1.3,0.3-2.2,0.3C229.1,257.1,228.4,257,227.7,256.9z"/>
			<path class="st2" d="M250.8,257.2l-1.3-1.2c-1.1,0.8-2.3,1.2-3.7,1.2c-0.8,0-1.5-0.1-2.2-0.4c-0.6-0.3-1.1-0.6-1.5-1.1
				c-0.4-0.5-0.5-1-0.5-1.6c0-0.7,0.2-1.3,0.6-1.8c0.4-0.5,1-1,1.9-1.5c-0.4-0.4-0.7-0.8-0.9-1.2c-0.2-0.4-0.3-0.8-0.3-1.2
				c0-0.5,0.1-1,0.4-1.4c0.3-0.4,0.7-0.7,1.2-1c0.5-0.2,1.1-0.3,1.8-0.3c1,0,1.7,0.2,2.3,0.7c0.6,0.5,0.9,1.1,0.9,1.9
				c0,0.6-0.2,1.1-0.5,1.5c-0.3,0.4-0.9,0.9-1.7,1.3l2,1.9c0.2-0.5,0.4-1.1,0.6-1.7l2,0.6c-0.2,1-0.5,1.8-1,2.5l1.3,1.2L250.8,257.2
				z M248.1,254.6l-2.7-2.5c-0.5,0.3-0.8,0.6-1.1,0.8c-0.2,0.3-0.3,0.6-0.3,0.9c0,0.4,0.2,0.7,0.5,1c0.4,0.3,0.8,0.4,1.4,0.4
				C246.8,255.2,247.4,255,248.1,254.6z M245.5,247.7c-0.2,0.2-0.3,0.4-0.3,0.7c0,0.2,0.1,0.4,0.2,0.6c0.1,0.2,0.3,0.5,0.7,0.8
				c0.5-0.3,0.9-0.5,1.1-0.8c0.2-0.2,0.3-0.5,0.3-0.7c0-0.3-0.1-0.5-0.3-0.7c-0.2-0.2-0.5-0.3-0.8-0.3
				C246,247.5,245.7,247.6,245.5,247.7z"/>
			<path class="st2" d="M268,254.6h-5.1l-1,2.4h-2.6l4.9-11.1h2.5l4.9,11.1h-2.7L268,254.6z M267.2,252.7l-1.8-4.2l-1.8,4.2H267.2z"
				/>
			<path class="st2" d="M275.4,256.6c-0.7-0.4-1.3-0.9-1.7-1.6c-0.4-0.7-0.6-1.4-0.6-2.3c0-0.8,0.2-1.6,0.6-2.3s1-1.2,1.7-1.6
				c0.7-0.4,1.5-0.6,2.4-0.6c0.9,0,1.7,0.2,2.3,0.6c0.7,0.4,1.2,0.9,1.5,1.6l-1.9,1c-0.4-0.8-1.1-1.2-1.9-1.2
				c-0.6,0-1.2,0.2-1.6,0.6c-0.4,0.4-0.6,1-0.6,1.7s0.2,1.3,0.6,1.7c0.4,0.4,1,0.6,1.6,0.6c0.8,0,1.5-0.4,1.9-1.2l1.9,1
				c-0.3,0.7-0.8,1.2-1.5,1.6c-0.7,0.4-1.5,0.6-2.3,0.6C276.9,257.1,276.1,256.9,275.4,256.6z"/>
			<path class="st2" d="M290.7,249.3c0.7,0.6,1.1,1.6,1.1,2.8v4.9h-2.3v-1.1c-0.5,0.8-1.3,1.2-2.6,1.2c-0.7,0-1.2-0.1-1.7-0.3
				c-0.5-0.2-0.8-0.5-1.1-0.9c-0.3-0.4-0.4-0.8-0.4-1.3c0-0.8,0.3-1.4,0.9-1.9c0.6-0.5,1.5-0.7,2.8-0.7h2c0-0.5-0.2-1-0.5-1.2
				c-0.3-0.3-0.8-0.4-1.5-0.4c-0.5,0-0.9,0.1-1.3,0.2c-0.4,0.1-0.8,0.3-1.1,0.6l-0.9-1.7c0.5-0.3,1-0.6,1.7-0.8
				c0.6-0.2,1.3-0.3,2-0.3C289,248.4,290,248.7,290.7,249.3z M288.6,255.2c0.3-0.2,0.6-0.5,0.7-0.9v-0.9h-1.7c-1,0-1.5,0.3-1.5,1
				c0,0.3,0.1,0.6,0.4,0.8c0.2,0.2,0.6,0.3,1,0.3C287.9,255.5,288.3,255.4,288.6,255.2z"/>
			<path class="st2" d="M302.4,248.9c0.6,0.4,1.2,0.9,1.5,1.5c0.4,0.7,0.6,1.4,0.6,2.3c0,0.9-0.2,1.6-0.6,2.3s-0.9,1.2-1.5,1.5
				c-0.6,0.4-1.4,0.5-2.2,0.5c-1.2,0-2.1-0.4-2.7-1.1v1h-2.4v-11.7h2.5v4.1c0.6-0.7,1.5-1,2.6-1C301,248.4,301.7,248.5,302.4,248.9z
				 M301.3,254.5c0.4-0.4,0.6-1,0.6-1.7s-0.2-1.3-0.6-1.7c-0.4-0.4-0.9-0.6-1.6-0.6s-1.2,0.2-1.6,0.6s-0.6,1-0.6,1.7
				s0.2,1.3,0.6,1.7c0.4,0.4,0.9,0.6,1.6,0.6S300.9,254.9,301.3,254.5z"/>
			<path class="st2" d="M313.6,249.3c0.7,0.6,1.1,1.6,1.1,2.8v4.9h-2.3v-1.1c-0.5,0.8-1.3,1.2-2.6,1.2c-0.7,0-1.2-0.1-1.7-0.3
				c-0.5-0.2-0.8-0.5-1.1-0.9c-0.3-0.4-0.4-0.8-0.4-1.3c0-0.8,0.3-1.4,0.9-1.9c0.6-0.5,1.5-0.7,2.8-0.7h2c0-0.5-0.2-1-0.5-1.2
				c-0.3-0.3-0.8-0.4-1.5-0.4c-0.5,0-0.9,0.1-1.3,0.2c-0.4,0.1-0.8,0.3-1.1,0.6l-0.9-1.7c0.5-0.3,1-0.6,1.7-0.8
				c0.6-0.2,1.3-0.3,2-0.3C311.9,248.4,312.9,248.7,313.6,249.3z M311.5,255.2c0.3-0.2,0.6-0.5,0.7-0.9v-0.9h-1.7
				c-1,0-1.5,0.3-1.5,1c0,0.3,0.1,0.6,0.4,0.8c0.2,0.2,0.6,0.3,1,0.3C310.8,255.5,311.2,255.4,311.5,255.2z"/>
			<path class="st2" d="M326.8,245.3V257h-2.4v-1c-0.6,0.7-1.5,1.1-2.7,1.1c-0.8,0-1.5-0.2-2.2-0.5c-0.6-0.4-1.2-0.9-1.5-1.5
				c-0.4-0.7-0.6-1.4-0.6-2.3c0-0.9,0.2-1.6,0.6-2.3c0.4-0.7,0.9-1.2,1.5-1.5c0.6-0.4,1.4-0.5,2.2-0.5c1.1,0,1.9,0.3,2.5,1v-4.1
				H326.8z M323.8,254.5c0.4-0.4,0.6-1,0.6-1.7s-0.2-1.3-0.6-1.7c-0.4-0.4-0.9-0.6-1.5-0.6c-0.6,0-1.2,0.2-1.6,0.6
				c-0.4,0.4-0.6,1-0.6,1.7s0.2,1.3,0.6,1.7c0.4,0.4,0.9,0.6,1.6,0.6C322.9,255.1,323.4,254.9,323.8,254.5z"/>
			<path class="st2" d="M331.9,256.6c-0.7-0.4-1.3-0.9-1.7-1.6c-0.4-0.7-0.6-1.4-0.6-2.3c0-0.8,0.2-1.6,0.6-2.3
				c0.4-0.7,1-1.2,1.7-1.6c0.7-0.4,1.5-0.6,2.4-0.6c0.9,0,1.7,0.2,2.4,0.6c0.7,0.4,1.3,0.9,1.7,1.6c0.4,0.7,0.6,1.4,0.6,2.3
				c0,0.8-0.2,1.6-0.6,2.3c-0.4,0.7-1,1.2-1.7,1.6c-0.7,0.4-1.5,0.6-2.4,0.6C333.4,257.1,332.6,256.9,331.9,256.6z M335.9,254.5
				c0.4-0.4,0.6-1,0.6-1.7s-0.2-1.3-0.6-1.7c-0.4-0.4-0.9-0.6-1.6-0.6s-1.2,0.2-1.6,0.6c-0.4,0.4-0.6,1-0.6,1.7s0.2,1.3,0.6,1.7
				c0.4,0.4,0.9,0.6,1.6,0.6S335.5,254.9,335.9,254.5z"/>
			<path class="st2" d="M342.6,256.9c-0.7-0.2-1.2-0.4-1.6-0.7l0.8-1.8c0.4,0.2,0.8,0.4,1.4,0.6c0.5,0.2,1.1,0.2,1.6,0.2
				c1,0,1.6-0.3,1.6-0.8c0-0.2-0.1-0.4-0.4-0.5s-0.7-0.2-1.3-0.3c-0.7-0.1-1.3-0.2-1.7-0.4c-0.5-0.1-0.8-0.4-1.2-0.7
				c-0.3-0.3-0.5-0.8-0.5-1.5c0-0.5,0.2-1,0.5-1.4c0.3-0.4,0.8-0.7,1.4-1c0.6-0.2,1.3-0.3,2.1-0.3c0.6,0,1.2,0.1,1.8,0.2
				c0.6,0.1,1.1,0.3,1.5,0.5l-0.8,1.8c-0.7-0.4-1.6-0.6-2.4-0.6c-0.5,0-0.9,0.1-1.2,0.2c-0.3,0.1-0.4,0.3-0.4,0.6
				c0,0.3,0.1,0.4,0.4,0.6c0.3,0.1,0.7,0.2,1.4,0.3c0.7,0.1,1.3,0.2,1.7,0.4c0.4,0.1,0.8,0.4,1.2,0.7c0.3,0.3,0.5,0.8,0.5,1.5
				c0,0.5-0.2,1-0.5,1.4c-0.3,0.4-0.8,0.7-1.4,1c-0.6,0.2-1.3,0.3-2.2,0.3C344,257.1,343.3,257,342.6,256.9z"/>
		</g>
		<g>
			<path class="st2" d="M201,192c-1.5-0.4-3.2-0.6-5.1-0.6c-4.3,0-8,1.5-10.8,4.5c-2.8,3-4.3,7-4.3,11.8c0,4.5,1.3,8.2,3.8,11
				c2.6,2.8,6,4.3,10.2,4.3c2.3,0,4.4-0.3,6.2-1l0-6.2c-1.6,0.9-3.6,1.4-5.8,1.4c-2.5,0-4.5-0.8-6-2.5c-1.6-1.7-2.3-4.1-2.3-7.1
				c0-3.2,0.8-5.7,2.5-7.6c1.7-1.8,3.8-2.7,6.5-2.7c1.8,0,3.6,0.4,5.1,1.2"/>
		</g>
		<g>
			<polygon class="st2" points="210.8,216.7 210.8,209.8 220.8,209.8 220.8,204 210.8,204 210.8,197.7 225.8,197.7 225.8,191.8 
				204.6,191.8 204.6,222.5 226.4,222.5 226.4,216.7 			"/>
		</g>
		<g>
			<polygon class="st2" points="296.2,216.7 296.2,209.8 306.2,209.8 306.2,204 296.2,204 296.2,197.7 311.2,197.7 311.2,191.8 
				290,191.8 290,222.5 311.8,222.5 311.8,216.7 			"/>
		</g>
		<g>
			<polygon class="st2" points="249.2,191.8 249.2,211.7 236.5,191.8 230,191.8 230,222.5 236.2,222.5 236.2,202.5 249.1,222.5 
				255.3,222.5 255.3,191.8 			"/>
		</g>
		<g>
			<polygon class="st2" points="259.9,191.8 259.9,197.7 269.4,197.7 269.4,222.5 275.6,222.5 275.6,197.7 286.1,197.7 286.1,191.8 
							"/>
		</g>
		<g>
			<path class="st2" d="M333.4,212c-0.4-0.6-0.7-1.2-1-1.6c-0.3-0.5-0.7-1-1-1.4c-0.1-0.1-0.2-0.3-0.3-0.4c0.1-0.1,0.2-0.1,0.3-0.2
				c0.9-0.5,1.7-1.2,2.3-1.9c0.6-0.8,1.2-1.6,1.5-2.6c0.3-1,0.5-2,0.5-3.2c0-1.4-0.3-2.7-0.8-3.9c-0.5-1.1-1.2-2.1-2.2-2.8
				c-0.9-0.7-2-1.3-3.2-1.7c-1.2-0.3-2.4-0.5-3.8-0.5H316v30.7h6.2v-11.8h1.2c0.5,0,0.9,0.1,1.2,0.2c0.3,0.1,0.6,0.3,0.9,0.5
				c0.3,0.2,0.7,0.6,1,1c0.4,0.5,0.7,1,1.1,1.7l5.1,8.5h7.3L333.4,212z M322.1,197.7h3c1.5,0,2.5,0.3,3.2,0.9
				c0.6,0.6,0.9,1.3,0.9,2.4c0,0.6-0.1,1.2-0.3,1.7c-0.2,0.5-0.5,0.9-0.8,1.2c-0.4,0.3-0.8,0.6-1.3,0.8c-0.5,0.2-1.1,0.3-1.8,0.3h-3
				V197.7z"/>
		</g>
		<g>
			<path class="st2" d="M203.5,181.9l-0.8,0c0-1.8-0.3-4.1-1.1-6.6c0.3-0.1,0.5-0.1,0.6-0.2c0.3,1,0.6,1.7,0.7,2.2
				c0.2,0.4,0.4,0.8,0.7,1.2c0.3,0.3,0.7,0.6,1.2,0.9c0.9,0.5,1.9,0.9,3,1.2c1.1,0.4,2.3,0.5,3.6,0.5c1.1,0,2.3-0.3,3.4-0.8
				c1.1-0.6,1.7-1.8,1.7-3.7c0-1-0.2-1.8-0.5-2.5c-0.3-0.7-0.8-1.2-1.3-1.7c-0.5-0.4-1.2-0.8-1.9-1.1c-0.7-0.3-1.6-0.7-2.8-1.1
				c-1.6-0.6-2.9-1.2-3.9-1.7c-1-0.6-1.8-1.3-2.4-2.2c-0.6-0.9-0.9-1.9-0.9-3.2c0-2,0.7-3.7,2.2-5c1.5-1.3,3.6-2,6.3-2
				c1.4,0,2.8,0.1,4.1,0.4c0.5,0.1,0.9,0.2,1,0.2c0.4,0,0.8-0.1,1.2-0.4l0.2-0.1c0.1,0,0.2,0,0.4,0.1c0,0.3-0.1,0.6-0.1,0.9
				s-0.1,0.6-0.1,1c0,0.4-0.1,0.6-0.1,0.8c0,0.2,0,0.3,0,0.4c0.2,1.6,0.3,2.5,0.2,2.6l-0.6,0c-0.1-1.4-0.6-2.4-1.3-3.2
				c-0.8-0.8-1.7-1.3-2.6-1.6c-1-0.3-1.9-0.4-2.8-0.4c-2.2,0-3.7,0.6-4.4,1.7c-0.7,1.1-1.1,2.2-1.1,3.3c0,1.1,0.3,2,0.8,2.7
				c0.5,0.7,1.2,1.3,2,1.7c0.8,0.4,1.9,0.9,3.3,1.4c1.6,0.6,2.9,1.2,3.9,1.8c1,0.5,1.9,1.3,2.6,2.3c0.8,1,1.2,2.3,1.2,3.8
				c0,1.3-0.3,2.4-1,3.4c-0.7,1-1.7,1.8-3,2.4c-1.3,0.6-3,0.9-4.9,0.9c-1.9,0-3.8-0.3-5.8-0.8c-0.4-0.1-0.6-0.1-0.7-0.1
				C203.6,181.2,203.4,181.4,203.5,181.9z"/>
		</g>
		<g>
			<path class="st2" d="M218.4,159.9l-0.7-0.2c0.6-1.7,0.1-3.2,0.6-4.7c0.3,0.3,0.6,0.5,0.7,0.6c0.2,0.1,0.4,0.2,0.9,0.2
				c0.8,0.1,2.8,0.2,5.8,0.2h10.1c0.3,0,1.1,0,2.4,0c1.4,0,2.1,0,2.3,0c0.6,0,0.9,0,1.1-0.1c0.2-0.1,0.4-0.2,0.6-0.5
				c0.1,0.2,0.3,0.4,0.5,0.5c-0.5,1.3-0.8,2.6-1.1,4.1l-0.9,0.1c0.1-0.4,0.1-1,0.2-1.8c-0.4-0.3-1-0.6-1.8-0.8
				c-0.8-0.2-2.1-0.3-4-0.3c-1.3,0-2.2,0-2.6,0c-0.4,0-0.7,0.1-0.8,0.2s-0.2,0.3-0.2,0.6l-0.1,2.7c0,0.4,0,1.6-0.1,3.5
				c0,0.5,0,1.8,0,3.9c0,2.1,0,4,0,5.5c0,2,0,3.4,0.1,4.2c0,0.8,0.2,1.4,0.3,1.8c0.2,0.4,0.5,0.7,0.8,0.8c0.4,0.1,1,0.3,1.9,0.4
				c0.6,0.1,0.9,0.1,0.9,0.3c0,0.3,0,0.4,0,0.5c-0.2,0-0.5,0-0.8,0c-0.8-0.1-1.5-0.1-2.1-0.1c-0.9-0.1-1.6-0.1-2.1-0.1
				c-1.3,0-2.7,0.1-4.2,0.4c-0.8,0.1-1.3,0.2-1.4,0.2c-0.2,0-0.3,0-0.4-0.1c-0.1-0.1-0.2-0.3-0.3-0.5c0.2-0.1,0.6-0.2,1.2-0.3
				c0.9-0.2,1.6-0.4,2-0.6c0.4-0.2,0.7-0.4,0.8-0.6c0.1-0.3,0.2-0.7,0.2-1.2c0-0.6,0.1-1.4,0.2-2.2c0,0.1,0-0.7,0-2.4
				c0-1.7,0-2.8,0.1-3.5c0-0.7,0-1.5,0-2.5c0-2.8,0-4.9,0-6.1c0-1.2-0.1-2.2-0.1-2.8c-0.1-0.7-0.2-1.2-0.3-1.6
				c-1.1-0.1-2.4-0.2-3.8-0.2c-1.4,0-2.5,0-3.3,0.1c-0.8,0.1-0.6,0.1-1,0.3c-0.4,0.2-0.4,0.6-0.6,0.9
				C218.9,158.7,218.7,159.2,218.4,159.9z"/>
		</g>
		<g>
			<path class="st2" d="M238.8,168.4c0-2.4,0.6-4.6,1.9-6.7c1.3-2,3-3.7,5.1-4.9c2.1-1.2,4.4-1.8,6.7-1.8c1.6,0,3.2,0.3,4.8,1
				c1.6,0.6,3,1.5,4.2,2.7c1.2,1.1,2.2,2.5,3,4.2c0.7,1.7,1.1,3.5,1.1,5.4c0,2.4-0.6,4.6-1.8,6.7c-1.2,2.1-2.8,3.7-4.9,4.9
				c-2.1,1.2-4.5,1.8-7.1,1.8c-2,0-3.9-0.4-5.5-1.2c-1.6-0.8-3-1.9-4.2-3.2c-1.1-1.4-2-2.8-2.6-4.3
				C239.1,171.4,238.8,169.9,238.8,168.4z M241.8,166.9c0,2.3,0.5,4.5,1.6,6.6c1.1,2.1,2.5,3.7,4.4,5c1.8,1.2,3.8,1.9,5.8,1.9
				c1.5,0,3-0.4,4.3-1.1c1.4-0.7,2.5-1.9,3.4-3.5s1.3-3.5,1.3-5.8c0-1.8-0.3-3.6-0.9-5.2c-0.6-1.6-1.4-3.1-2.5-4.3
				c-1.1-1.2-2.3-2.2-3.6-2.9c-1.4-0.7-2.8-1-4.4-1c-1.7,0-3.2,0.4-4.7,1.2c-1.5,0.8-2.6,2-3.5,3.6
				C242.2,162.9,241.8,164.8,241.8,166.9z"/>
		</g>
		<g>
			<path class="st2" d="M321.7,180.3c-0.7-0.1-6,6.8-13.7,7.1c-5.9,0.2-12.7-5.2-13.2-5.6c-1.3-0.9-4.3-3.2-5.5-4.6
				c-1.2-1.4-2.6-2.5-3.6-4c-1.1-1.5-2.4-3.5-4.1-6l-1.2-1.8c1.7-0.6,3-1.4,4.1-2.3c1.1-0.9,1.8-1.9,2.4-3c0.5-1.1,0.8-2.2,0.8-3.4
				c0-1.1-0.3-2.2-0.8-3.3c-0.5-1.1-1.2-2-2.2-2.8c-1-0.8-2.2-1.5-3.7-2c-1.5-0.5-3.1-0.8-4.9-0.8c-0.7,0-2.3,0.1-5,0.3
				c-2.6,0.2-4.1,0.3-4.5,0.3c-1.4,0-2.6,0-3.5-0.1l-0.1,0.9c1,0.1,1.7,0.3,2.2,0.5c0.5,0.2,0.8,0.6,1,1.2c0.2,0.6,0.4,1.6,0.4,2.9
				c0.1,1.3,0.1,3.4,0,6.2v11.5c0,2.7-0.1,4.7-0.3,6c-0.2,1.2-0.4,2.1-0.8,2.5c-0.3,0.4-0.9,0.7-1.7,0.9c-0.5,0.1-0.7,0.2-0.9,0.3
				c-0.1,0.1-0.2,0.2-0.2,0.4c0,0.3,0.2,0.5,0.5,0.5c0.2,0,0.3-0.1,0.4-0.1c1.8-0.2,3.5-0.4,5.2-0.4c0.3,0,1.2,0.1,2.7,0.2
				c1.2,0.2,1.9,0.3,2.2,0.3c0.2,0,0.4-0.2,0.4-0.6c0-0.2-0.2-0.3-0.6-0.4c-1.2-0.3-1.9-0.6-2.3-0.7c-0.3-0.2-0.6-0.5-0.7-0.9
				c-0.3-0.7-0.3-1.8-0.4-3.4c-0.1-1.6-0.1-4.7-0.1-6c0,0,0.3-19.3,0.6-20c0.2-0.4,0.7-0.7,1.7-0.9c1-0.2,1.8-0.3,2.6-0.3
				c1.8,0,3.4,0.5,4.7,1.4c1.3,0.9,2.2,2,2.8,3.3s0.9,2.5,0.9,3.7c0,1.7-0.4,3-1.1,4c-0.7,1-1.6,1.7-2.5,2.1c-1,0.4-1.9,0.7-2.9,0.8
				c-0.6,0.1-2.9,0.1-4,0.2c-0.3,0.4-0.2,0.9-0.1,1.5c0.4,0,1.9,0,2.8,0l3,4.3c1.5,2.1,2.8,3.9,3.9,5.2c1.1,1.4,2.3,2.7,3.7,3.9
				c1.4,1.2,5.4,4.2,6.9,5.1c2.1,1.4,8.7,5.9,15.1,5.6c7.6-0.4,11.6-6.4,12.2-7.2c0.3-0.4,1.2-1.7,1.3-1.8c0.1-0.2,0.2-0.5,0.2-0.7
				C322.2,180.2,321.7,180.3,321.7,180.3z"/>
		</g>
		<g>
			<path class="st2" d="M313.5,174.2h0.6c-0.2,1.4-0.4,2.5-0.7,3.4c-0.3,0.9-0.6,1.8-1,2.6c-0.4,0-1-0.1-1.8-0.1
				c-0.8,0-2.4,0-3.4-0.1c-0.9,0-1.3,0-1.2,0c-0.9,0-1.9,0-3,0c-1.1,0-2.5,0.1-4.1,0.1c-1.6,0.1-2.8,0.1-3.6,0.1l0-0.7
				c0.4-0.1,0.8-0.2,1.3-0.3c0.4-0.1,0.7-0.2,0.9-0.4c0.2-0.1,0.3-0.3,0.3-0.5c0.1-0.2,0.1-0.5,0.2-1c0.1-0.5,0.2-1.4,0.2-2.7
				c0.1-1.3,0.1-2.8,0.2-4.4c0-1.6,0.1-2.7,0-3.1l-0.1-6.3c0-2-0.1-3.3-0.2-4c-0.1-0.7-0.3-1.1-0.6-1.4c-0.3-0.2-0.9-0.4-1.8-0.6
				c0-0.2,0-0.4,0-0.5h9.3c1.4,0,3.6-0.1,6.5-0.2c-0.1,1.1-0.2,2.3-0.4,3.4c-0.2,1.1-0.4,1.7-0.7,1.7c-0.3,0-0.5-0.1-0.5-0.3
				c0-0.1,0-0.3,0.1-0.8c0.1-0.4,0.1-0.7,0.1-0.7c0-1-0.6-1.6-1.7-1.8c-1.2-0.3-1.7-0.3-3.3-0.3c-1.9,0-1.4,0-3.5,0.3
				c-0.2,2.2-0.4,4-0.4,5.5c0,1,0,2.1,0,3.4c0,1.3,0,1.9,0,1.8c0.3,0,3.2,0,4.3-0.1c0.6-0.1,1-0.1,1.2-0.2c0.2-0.1,0.4-0.3,0.6-0.7
				c0.2-0.4,0.4-1,0.6-1.7l0.6,0c0,1.4,0,2.6,0,3.7c0,1.1,0,2.3,0,3.7h-0.7c0-1.2-0.2-2.1-0.5-2.5c-0.3-0.5-1-0.8-1.9-0.9
				c-0.9-0.1-3.2-0.1-4.1,0l-0.1,2.8c-0.1,3.4,0,6.1,0.4,8c0.2,0.1,0.5,0.1,0.9,0.2c0.3,0.1,0.6,0.1,0.9,0.2c0.3,0,0.7,0.1,1.3,0.1
				c0.6,0,1.3,0.1,2.1,0.1c2.1,0,1.8,0,3-0.3c1.2-0.3,1.5-1,2.2-1.6C312.5,176.4,313,175.5,313.5,174.2z"/>
		</g>
	</g>
</g>
</svg>
